G04 #@! TF.GenerationSoftware,KiCad,Pcbnew,8.0.6*
G04 #@! TF.CreationDate,2025-01-17T10:19:54-06:00*
G04 #@! TF.ProjectId,Quake_PCB_3,5175616b-655f-4504-9342-5f332e6b6963,rev?*
G04 #@! TF.SameCoordinates,Original*
G04 #@! TF.FileFunction,Legend,Top*
G04 #@! TF.FilePolarity,Positive*
%FSLAX46Y46*%
G04 Gerber Fmt 4.6, Leading zero omitted, Abs format (unit mm)*
G04 Created by KiCad (PCBNEW 8.0.6) date 2025-01-17 10:19:54*
%MOMM*%
%LPD*%
G01*
G04 APERTURE LIST*
%ADD10C,0.100000*%
%ADD11C,0.200000*%
%ADD12C,0.150000*%
%ADD13C,0.120000*%
%ADD14C,0.152400*%
%ADD15C,0.254000*%
%ADD16R,1.700000X1.700000*%
%ADD17O,1.700000X1.700000*%
%ADD18C,1.400000*%
%ADD19O,1.400000X1.400000*%
%ADD20R,1.800000X1.800000*%
%ADD21C,1.800000*%
%ADD22C,1.799996*%
%ADD23C,1.707896*%
G04 APERTURE END LIST*
D10*
X207920000Y-113010000D02*
X209370000Y-113020000D01*
X207910000Y-124240000D02*
X207920000Y-113010000D01*
X158070000Y-105950000D02*
X209400000Y-105950000D01*
X209400000Y-131310000D01*
X158070000Y-131310000D01*
X158070000Y-105950000D01*
X207630000Y-85230000D02*
X209430000Y-85230000D01*
X186580000Y-77000000D02*
X209450000Y-77000000D01*
X209450000Y-102420000D01*
X186580000Y-102420000D01*
X186580000Y-77000000D01*
X207630000Y-96450000D02*
X207630000Y-85230000D01*
X207910000Y-124240000D02*
X209400000Y-124240000D01*
X207630000Y-96450000D02*
X209450000Y-96450000D01*
X151506741Y-77297419D02*
X151459122Y-77273609D01*
X151459122Y-77273609D02*
X151387693Y-77273609D01*
X151387693Y-77273609D02*
X151316265Y-77297419D01*
X151316265Y-77297419D02*
X151268646Y-77345038D01*
X151268646Y-77345038D02*
X151244836Y-77392657D01*
X151244836Y-77392657D02*
X151221027Y-77487895D01*
X151221027Y-77487895D02*
X151221027Y-77559323D01*
X151221027Y-77559323D02*
X151244836Y-77654561D01*
X151244836Y-77654561D02*
X151268646Y-77702180D01*
X151268646Y-77702180D02*
X151316265Y-77749800D01*
X151316265Y-77749800D02*
X151387693Y-77773609D01*
X151387693Y-77773609D02*
X151435312Y-77773609D01*
X151435312Y-77773609D02*
X151506741Y-77749800D01*
X151506741Y-77749800D02*
X151530550Y-77725990D01*
X151530550Y-77725990D02*
X151530550Y-77559323D01*
X151530550Y-77559323D02*
X151435312Y-77559323D01*
X151744836Y-77773609D02*
X151744836Y-77273609D01*
X151744836Y-77273609D02*
X152030550Y-77773609D01*
X152030550Y-77773609D02*
X152030550Y-77273609D01*
X152268646Y-77773609D02*
X152268646Y-77273609D01*
X152268646Y-77273609D02*
X152387694Y-77273609D01*
X152387694Y-77273609D02*
X152459122Y-77297419D01*
X152459122Y-77297419D02*
X152506741Y-77345038D01*
X152506741Y-77345038D02*
X152530551Y-77392657D01*
X152530551Y-77392657D02*
X152554360Y-77487895D01*
X152554360Y-77487895D02*
X152554360Y-77559323D01*
X152554360Y-77559323D02*
X152530551Y-77654561D01*
X152530551Y-77654561D02*
X152506741Y-77702180D01*
X152506741Y-77702180D02*
X152459122Y-77749800D01*
X152459122Y-77749800D02*
X152387694Y-77773609D01*
X152387694Y-77773609D02*
X152268646Y-77773609D01*
X171544836Y-106783609D02*
X171544836Y-106283609D01*
X171544836Y-106283609D02*
X171711503Y-106640752D01*
X171711503Y-106640752D02*
X171878169Y-106283609D01*
X171878169Y-106283609D02*
X171878169Y-106783609D01*
X172116265Y-106783609D02*
X172116265Y-106283609D01*
X172330551Y-106759800D02*
X172401979Y-106783609D01*
X172401979Y-106783609D02*
X172521027Y-106783609D01*
X172521027Y-106783609D02*
X172568646Y-106759800D01*
X172568646Y-106759800D02*
X172592455Y-106735990D01*
X172592455Y-106735990D02*
X172616265Y-106688371D01*
X172616265Y-106688371D02*
X172616265Y-106640752D01*
X172616265Y-106640752D02*
X172592455Y-106593133D01*
X172592455Y-106593133D02*
X172568646Y-106569323D01*
X172568646Y-106569323D02*
X172521027Y-106545514D01*
X172521027Y-106545514D02*
X172425789Y-106521704D01*
X172425789Y-106521704D02*
X172378170Y-106497895D01*
X172378170Y-106497895D02*
X172354360Y-106474085D01*
X172354360Y-106474085D02*
X172330551Y-106426466D01*
X172330551Y-106426466D02*
X172330551Y-106378847D01*
X172330551Y-106378847D02*
X172354360Y-106331228D01*
X172354360Y-106331228D02*
X172378170Y-106307419D01*
X172378170Y-106307419D02*
X172425789Y-106283609D01*
X172425789Y-106283609D02*
X172544836Y-106283609D01*
X172544836Y-106283609D02*
X172616265Y-106307419D01*
X172925788Y-106283609D02*
X173021026Y-106283609D01*
X173021026Y-106283609D02*
X173068645Y-106307419D01*
X173068645Y-106307419D02*
X173116264Y-106355038D01*
X173116264Y-106355038D02*
X173140074Y-106450276D01*
X173140074Y-106450276D02*
X173140074Y-106616942D01*
X173140074Y-106616942D02*
X173116264Y-106712180D01*
X173116264Y-106712180D02*
X173068645Y-106759800D01*
X173068645Y-106759800D02*
X173021026Y-106783609D01*
X173021026Y-106783609D02*
X172925788Y-106783609D01*
X172925788Y-106783609D02*
X172878169Y-106759800D01*
X172878169Y-106759800D02*
X172830550Y-106712180D01*
X172830550Y-106712180D02*
X172806741Y-106616942D01*
X172806741Y-106616942D02*
X172806741Y-106450276D01*
X172806741Y-106450276D02*
X172830550Y-106355038D01*
X172830550Y-106355038D02*
X172878169Y-106307419D01*
X172878169Y-106307419D02*
X172925788Y-106283609D01*
X143574836Y-84083609D02*
X143574836Y-83583609D01*
X143574836Y-83583609D02*
X143741503Y-83940752D01*
X143741503Y-83940752D02*
X143908169Y-83583609D01*
X143908169Y-83583609D02*
X143908169Y-84083609D01*
X144241503Y-83583609D02*
X144336741Y-83583609D01*
X144336741Y-83583609D02*
X144384360Y-83607419D01*
X144384360Y-83607419D02*
X144431979Y-83655038D01*
X144431979Y-83655038D02*
X144455789Y-83750276D01*
X144455789Y-83750276D02*
X144455789Y-83916942D01*
X144455789Y-83916942D02*
X144431979Y-84012180D01*
X144431979Y-84012180D02*
X144384360Y-84059800D01*
X144384360Y-84059800D02*
X144336741Y-84083609D01*
X144336741Y-84083609D02*
X144241503Y-84083609D01*
X144241503Y-84083609D02*
X144193884Y-84059800D01*
X144193884Y-84059800D02*
X144146265Y-84012180D01*
X144146265Y-84012180D02*
X144122456Y-83916942D01*
X144122456Y-83916942D02*
X144122456Y-83750276D01*
X144122456Y-83750276D02*
X144146265Y-83655038D01*
X144146265Y-83655038D02*
X144193884Y-83607419D01*
X144193884Y-83607419D02*
X144241503Y-83583609D01*
X144646266Y-84059800D02*
X144717694Y-84083609D01*
X144717694Y-84083609D02*
X144836742Y-84083609D01*
X144836742Y-84083609D02*
X144884361Y-84059800D01*
X144884361Y-84059800D02*
X144908170Y-84035990D01*
X144908170Y-84035990D02*
X144931980Y-83988371D01*
X144931980Y-83988371D02*
X144931980Y-83940752D01*
X144931980Y-83940752D02*
X144908170Y-83893133D01*
X144908170Y-83893133D02*
X144884361Y-83869323D01*
X144884361Y-83869323D02*
X144836742Y-83845514D01*
X144836742Y-83845514D02*
X144741504Y-83821704D01*
X144741504Y-83821704D02*
X144693885Y-83797895D01*
X144693885Y-83797895D02*
X144670075Y-83774085D01*
X144670075Y-83774085D02*
X144646266Y-83726466D01*
X144646266Y-83726466D02*
X144646266Y-83678847D01*
X144646266Y-83678847D02*
X144670075Y-83631228D01*
X144670075Y-83631228D02*
X144693885Y-83607419D01*
X144693885Y-83607419D02*
X144741504Y-83583609D01*
X144741504Y-83583609D02*
X144860551Y-83583609D01*
X144860551Y-83583609D02*
X144931980Y-83607419D01*
X145146265Y-84083609D02*
X145146265Y-83583609D01*
D11*
X180609197Y-99195504D02*
X180571101Y-99233600D01*
X180571101Y-99233600D02*
X180456816Y-99271695D01*
X180456816Y-99271695D02*
X180380625Y-99271695D01*
X180380625Y-99271695D02*
X180266339Y-99233600D01*
X180266339Y-99233600D02*
X180190149Y-99157409D01*
X180190149Y-99157409D02*
X180152054Y-99081219D01*
X180152054Y-99081219D02*
X180113958Y-98928838D01*
X180113958Y-98928838D02*
X180113958Y-98814552D01*
X180113958Y-98814552D02*
X180152054Y-98662171D01*
X180152054Y-98662171D02*
X180190149Y-98585980D01*
X180190149Y-98585980D02*
X180266339Y-98509790D01*
X180266339Y-98509790D02*
X180380625Y-98471695D01*
X180380625Y-98471695D02*
X180456816Y-98471695D01*
X180456816Y-98471695D02*
X180571101Y-98509790D01*
X180571101Y-98509790D02*
X180609197Y-98547885D01*
D10*
X166139836Y-77773609D02*
X166139836Y-77273609D01*
X166139836Y-77273609D02*
X166306503Y-77630752D01*
X166306503Y-77630752D02*
X166473169Y-77273609D01*
X166473169Y-77273609D02*
X166473169Y-77773609D01*
X166711265Y-77773609D02*
X166711265Y-77273609D01*
X166925551Y-77749800D02*
X166996979Y-77773609D01*
X166996979Y-77773609D02*
X167116027Y-77773609D01*
X167116027Y-77773609D02*
X167163646Y-77749800D01*
X167163646Y-77749800D02*
X167187455Y-77725990D01*
X167187455Y-77725990D02*
X167211265Y-77678371D01*
X167211265Y-77678371D02*
X167211265Y-77630752D01*
X167211265Y-77630752D02*
X167187455Y-77583133D01*
X167187455Y-77583133D02*
X167163646Y-77559323D01*
X167163646Y-77559323D02*
X167116027Y-77535514D01*
X167116027Y-77535514D02*
X167020789Y-77511704D01*
X167020789Y-77511704D02*
X166973170Y-77487895D01*
X166973170Y-77487895D02*
X166949360Y-77464085D01*
X166949360Y-77464085D02*
X166925551Y-77416466D01*
X166925551Y-77416466D02*
X166925551Y-77368847D01*
X166925551Y-77368847D02*
X166949360Y-77321228D01*
X166949360Y-77321228D02*
X166973170Y-77297419D01*
X166973170Y-77297419D02*
X167020789Y-77273609D01*
X167020789Y-77273609D02*
X167139836Y-77273609D01*
X167139836Y-77273609D02*
X167211265Y-77297419D01*
X167520788Y-77273609D02*
X167616026Y-77273609D01*
X167616026Y-77273609D02*
X167663645Y-77297419D01*
X167663645Y-77297419D02*
X167711264Y-77345038D01*
X167711264Y-77345038D02*
X167735074Y-77440276D01*
X167735074Y-77440276D02*
X167735074Y-77606942D01*
X167735074Y-77606942D02*
X167711264Y-77702180D01*
X167711264Y-77702180D02*
X167663645Y-77749800D01*
X167663645Y-77749800D02*
X167616026Y-77773609D01*
X167616026Y-77773609D02*
X167520788Y-77773609D01*
X167520788Y-77773609D02*
X167473169Y-77749800D01*
X167473169Y-77749800D02*
X167425550Y-77702180D01*
X167425550Y-77702180D02*
X167401741Y-77606942D01*
X167401741Y-77606942D02*
X167401741Y-77440276D01*
X167401741Y-77440276D02*
X167425550Y-77345038D01*
X167425550Y-77345038D02*
X167473169Y-77297419D01*
X167473169Y-77297419D02*
X167520788Y-77273609D01*
X184520550Y-130815990D02*
X184496741Y-130839800D01*
X184496741Y-130839800D02*
X184425312Y-130863609D01*
X184425312Y-130863609D02*
X184377693Y-130863609D01*
X184377693Y-130863609D02*
X184306265Y-130839800D01*
X184306265Y-130839800D02*
X184258646Y-130792180D01*
X184258646Y-130792180D02*
X184234836Y-130744561D01*
X184234836Y-130744561D02*
X184211027Y-130649323D01*
X184211027Y-130649323D02*
X184211027Y-130577895D01*
X184211027Y-130577895D02*
X184234836Y-130482657D01*
X184234836Y-130482657D02*
X184258646Y-130435038D01*
X184258646Y-130435038D02*
X184306265Y-130387419D01*
X184306265Y-130387419D02*
X184377693Y-130363609D01*
X184377693Y-130363609D02*
X184425312Y-130363609D01*
X184425312Y-130363609D02*
X184496741Y-130387419D01*
X184496741Y-130387419D02*
X184520550Y-130411228D01*
X184711027Y-130839800D02*
X184782455Y-130863609D01*
X184782455Y-130863609D02*
X184901503Y-130863609D01*
X184901503Y-130863609D02*
X184949122Y-130839800D01*
X184949122Y-130839800D02*
X184972931Y-130815990D01*
X184972931Y-130815990D02*
X184996741Y-130768371D01*
X184996741Y-130768371D02*
X184996741Y-130720752D01*
X184996741Y-130720752D02*
X184972931Y-130673133D01*
X184972931Y-130673133D02*
X184949122Y-130649323D01*
X184949122Y-130649323D02*
X184901503Y-130625514D01*
X184901503Y-130625514D02*
X184806265Y-130601704D01*
X184806265Y-130601704D02*
X184758646Y-130577895D01*
X184758646Y-130577895D02*
X184734836Y-130554085D01*
X184734836Y-130554085D02*
X184711027Y-130506466D01*
X184711027Y-130506466D02*
X184711027Y-130458847D01*
X184711027Y-130458847D02*
X184734836Y-130411228D01*
X184734836Y-130411228D02*
X184758646Y-130387419D01*
X184758646Y-130387419D02*
X184806265Y-130363609D01*
X184806265Y-130363609D02*
X184925312Y-130363609D01*
X184925312Y-130363609D02*
X184996741Y-130387419D01*
X185091979Y-130911228D02*
X185472931Y-130911228D01*
X185853883Y-130863609D02*
X185568169Y-130863609D01*
X185711026Y-130863609D02*
X185711026Y-130363609D01*
X185711026Y-130363609D02*
X185663407Y-130435038D01*
X185663407Y-130435038D02*
X185615788Y-130482657D01*
X185615788Y-130482657D02*
X185568169Y-130506466D01*
X187016390Y-89034836D02*
X187516390Y-89034836D01*
X187516390Y-89034836D02*
X187159247Y-89201503D01*
X187159247Y-89201503D02*
X187516390Y-89368169D01*
X187516390Y-89368169D02*
X187016390Y-89368169D01*
X187516390Y-89701503D02*
X187516390Y-89796741D01*
X187516390Y-89796741D02*
X187492580Y-89844360D01*
X187492580Y-89844360D02*
X187444961Y-89891979D01*
X187444961Y-89891979D02*
X187349723Y-89915789D01*
X187349723Y-89915789D02*
X187183057Y-89915789D01*
X187183057Y-89915789D02*
X187087819Y-89891979D01*
X187087819Y-89891979D02*
X187040200Y-89844360D01*
X187040200Y-89844360D02*
X187016390Y-89796741D01*
X187016390Y-89796741D02*
X187016390Y-89701503D01*
X187016390Y-89701503D02*
X187040200Y-89653884D01*
X187040200Y-89653884D02*
X187087819Y-89606265D01*
X187087819Y-89606265D02*
X187183057Y-89582456D01*
X187183057Y-89582456D02*
X187349723Y-89582456D01*
X187349723Y-89582456D02*
X187444961Y-89606265D01*
X187444961Y-89606265D02*
X187492580Y-89653884D01*
X187492580Y-89653884D02*
X187516390Y-89701503D01*
X187040200Y-90106266D02*
X187016390Y-90177694D01*
X187016390Y-90177694D02*
X187016390Y-90296742D01*
X187016390Y-90296742D02*
X187040200Y-90344361D01*
X187040200Y-90344361D02*
X187064009Y-90368170D01*
X187064009Y-90368170D02*
X187111628Y-90391980D01*
X187111628Y-90391980D02*
X187159247Y-90391980D01*
X187159247Y-90391980D02*
X187206866Y-90368170D01*
X187206866Y-90368170D02*
X187230676Y-90344361D01*
X187230676Y-90344361D02*
X187254485Y-90296742D01*
X187254485Y-90296742D02*
X187278295Y-90201504D01*
X187278295Y-90201504D02*
X187302104Y-90153885D01*
X187302104Y-90153885D02*
X187325914Y-90130075D01*
X187325914Y-90130075D02*
X187373533Y-90106266D01*
X187373533Y-90106266D02*
X187421152Y-90106266D01*
X187421152Y-90106266D02*
X187468771Y-90130075D01*
X187468771Y-90130075D02*
X187492580Y-90153885D01*
X187492580Y-90153885D02*
X187516390Y-90201504D01*
X187516390Y-90201504D02*
X187516390Y-90320551D01*
X187516390Y-90320551D02*
X187492580Y-90391980D01*
X187016390Y-90606265D02*
X187516390Y-90606265D01*
X169260550Y-130815990D02*
X169236741Y-130839800D01*
X169236741Y-130839800D02*
X169165312Y-130863609D01*
X169165312Y-130863609D02*
X169117693Y-130863609D01*
X169117693Y-130863609D02*
X169046265Y-130839800D01*
X169046265Y-130839800D02*
X168998646Y-130792180D01*
X168998646Y-130792180D02*
X168974836Y-130744561D01*
X168974836Y-130744561D02*
X168951027Y-130649323D01*
X168951027Y-130649323D02*
X168951027Y-130577895D01*
X168951027Y-130577895D02*
X168974836Y-130482657D01*
X168974836Y-130482657D02*
X168998646Y-130435038D01*
X168998646Y-130435038D02*
X169046265Y-130387419D01*
X169046265Y-130387419D02*
X169117693Y-130363609D01*
X169117693Y-130363609D02*
X169165312Y-130363609D01*
X169165312Y-130363609D02*
X169236741Y-130387419D01*
X169236741Y-130387419D02*
X169260550Y-130411228D01*
X169451027Y-130839800D02*
X169522455Y-130863609D01*
X169522455Y-130863609D02*
X169641503Y-130863609D01*
X169641503Y-130863609D02*
X169689122Y-130839800D01*
X169689122Y-130839800D02*
X169712931Y-130815990D01*
X169712931Y-130815990D02*
X169736741Y-130768371D01*
X169736741Y-130768371D02*
X169736741Y-130720752D01*
X169736741Y-130720752D02*
X169712931Y-130673133D01*
X169712931Y-130673133D02*
X169689122Y-130649323D01*
X169689122Y-130649323D02*
X169641503Y-130625514D01*
X169641503Y-130625514D02*
X169546265Y-130601704D01*
X169546265Y-130601704D02*
X169498646Y-130577895D01*
X169498646Y-130577895D02*
X169474836Y-130554085D01*
X169474836Y-130554085D02*
X169451027Y-130506466D01*
X169451027Y-130506466D02*
X169451027Y-130458847D01*
X169451027Y-130458847D02*
X169474836Y-130411228D01*
X169474836Y-130411228D02*
X169498646Y-130387419D01*
X169498646Y-130387419D02*
X169546265Y-130363609D01*
X169546265Y-130363609D02*
X169665312Y-130363609D01*
X169665312Y-130363609D02*
X169736741Y-130387419D01*
X169831979Y-130911228D02*
X170212931Y-130911228D01*
X170308169Y-130411228D02*
X170331978Y-130387419D01*
X170331978Y-130387419D02*
X170379597Y-130363609D01*
X170379597Y-130363609D02*
X170498645Y-130363609D01*
X170498645Y-130363609D02*
X170546264Y-130387419D01*
X170546264Y-130387419D02*
X170570073Y-130411228D01*
X170570073Y-130411228D02*
X170593883Y-130458847D01*
X170593883Y-130458847D02*
X170593883Y-130506466D01*
X170593883Y-130506466D02*
X170570073Y-130577895D01*
X170570073Y-130577895D02*
X170284359Y-130863609D01*
X170284359Y-130863609D02*
X170593883Y-130863609D01*
X156450550Y-77725990D02*
X156426741Y-77749800D01*
X156426741Y-77749800D02*
X156355312Y-77773609D01*
X156355312Y-77773609D02*
X156307693Y-77773609D01*
X156307693Y-77773609D02*
X156236265Y-77749800D01*
X156236265Y-77749800D02*
X156188646Y-77702180D01*
X156188646Y-77702180D02*
X156164836Y-77654561D01*
X156164836Y-77654561D02*
X156141027Y-77559323D01*
X156141027Y-77559323D02*
X156141027Y-77487895D01*
X156141027Y-77487895D02*
X156164836Y-77392657D01*
X156164836Y-77392657D02*
X156188646Y-77345038D01*
X156188646Y-77345038D02*
X156236265Y-77297419D01*
X156236265Y-77297419D02*
X156307693Y-77273609D01*
X156307693Y-77273609D02*
X156355312Y-77273609D01*
X156355312Y-77273609D02*
X156426741Y-77297419D01*
X156426741Y-77297419D02*
X156450550Y-77321228D01*
X156641027Y-77749800D02*
X156712455Y-77773609D01*
X156712455Y-77773609D02*
X156831503Y-77773609D01*
X156831503Y-77773609D02*
X156879122Y-77749800D01*
X156879122Y-77749800D02*
X156902931Y-77725990D01*
X156902931Y-77725990D02*
X156926741Y-77678371D01*
X156926741Y-77678371D02*
X156926741Y-77630752D01*
X156926741Y-77630752D02*
X156902931Y-77583133D01*
X156902931Y-77583133D02*
X156879122Y-77559323D01*
X156879122Y-77559323D02*
X156831503Y-77535514D01*
X156831503Y-77535514D02*
X156736265Y-77511704D01*
X156736265Y-77511704D02*
X156688646Y-77487895D01*
X156688646Y-77487895D02*
X156664836Y-77464085D01*
X156664836Y-77464085D02*
X156641027Y-77416466D01*
X156641027Y-77416466D02*
X156641027Y-77368847D01*
X156641027Y-77368847D02*
X156664836Y-77321228D01*
X156664836Y-77321228D02*
X156688646Y-77297419D01*
X156688646Y-77297419D02*
X156736265Y-77273609D01*
X156736265Y-77273609D02*
X156855312Y-77273609D01*
X156855312Y-77273609D02*
X156926741Y-77297419D01*
X157021979Y-77821228D02*
X157402931Y-77821228D01*
X157498169Y-77321228D02*
X157521978Y-77297419D01*
X157521978Y-77297419D02*
X157569597Y-77273609D01*
X157569597Y-77273609D02*
X157688645Y-77273609D01*
X157688645Y-77273609D02*
X157736264Y-77297419D01*
X157736264Y-77297419D02*
X157760073Y-77321228D01*
X157760073Y-77321228D02*
X157783883Y-77368847D01*
X157783883Y-77368847D02*
X157783883Y-77416466D01*
X157783883Y-77416466D02*
X157760073Y-77487895D01*
X157760073Y-77487895D02*
X157474359Y-77773609D01*
X157474359Y-77773609D02*
X157783883Y-77773609D01*
X176486741Y-77387419D02*
X176439122Y-77363609D01*
X176439122Y-77363609D02*
X176367693Y-77363609D01*
X176367693Y-77363609D02*
X176296265Y-77387419D01*
X176296265Y-77387419D02*
X176248646Y-77435038D01*
X176248646Y-77435038D02*
X176224836Y-77482657D01*
X176224836Y-77482657D02*
X176201027Y-77577895D01*
X176201027Y-77577895D02*
X176201027Y-77649323D01*
X176201027Y-77649323D02*
X176224836Y-77744561D01*
X176224836Y-77744561D02*
X176248646Y-77792180D01*
X176248646Y-77792180D02*
X176296265Y-77839800D01*
X176296265Y-77839800D02*
X176367693Y-77863609D01*
X176367693Y-77863609D02*
X176415312Y-77863609D01*
X176415312Y-77863609D02*
X176486741Y-77839800D01*
X176486741Y-77839800D02*
X176510550Y-77815990D01*
X176510550Y-77815990D02*
X176510550Y-77649323D01*
X176510550Y-77649323D02*
X176415312Y-77649323D01*
X176724836Y-77863609D02*
X176724836Y-77363609D01*
X176724836Y-77363609D02*
X177010550Y-77863609D01*
X177010550Y-77863609D02*
X177010550Y-77363609D01*
X177248646Y-77863609D02*
X177248646Y-77363609D01*
X177248646Y-77363609D02*
X177367694Y-77363609D01*
X177367694Y-77363609D02*
X177439122Y-77387419D01*
X177439122Y-77387419D02*
X177486741Y-77435038D01*
X177486741Y-77435038D02*
X177510551Y-77482657D01*
X177510551Y-77482657D02*
X177534360Y-77577895D01*
X177534360Y-77577895D02*
X177534360Y-77649323D01*
X177534360Y-77649323D02*
X177510551Y-77744561D01*
X177510551Y-77744561D02*
X177486741Y-77792180D01*
X177486741Y-77792180D02*
X177439122Y-77839800D01*
X177439122Y-77839800D02*
X177367694Y-77863609D01*
X177367694Y-77863609D02*
X177248646Y-77863609D01*
X141131027Y-84059800D02*
X141202455Y-84083609D01*
X141202455Y-84083609D02*
X141321503Y-84083609D01*
X141321503Y-84083609D02*
X141369122Y-84059800D01*
X141369122Y-84059800D02*
X141392931Y-84035990D01*
X141392931Y-84035990D02*
X141416741Y-83988371D01*
X141416741Y-83988371D02*
X141416741Y-83940752D01*
X141416741Y-83940752D02*
X141392931Y-83893133D01*
X141392931Y-83893133D02*
X141369122Y-83869323D01*
X141369122Y-83869323D02*
X141321503Y-83845514D01*
X141321503Y-83845514D02*
X141226265Y-83821704D01*
X141226265Y-83821704D02*
X141178646Y-83797895D01*
X141178646Y-83797895D02*
X141154836Y-83774085D01*
X141154836Y-83774085D02*
X141131027Y-83726466D01*
X141131027Y-83726466D02*
X141131027Y-83678847D01*
X141131027Y-83678847D02*
X141154836Y-83631228D01*
X141154836Y-83631228D02*
X141178646Y-83607419D01*
X141178646Y-83607419D02*
X141226265Y-83583609D01*
X141226265Y-83583609D02*
X141345312Y-83583609D01*
X141345312Y-83583609D02*
X141416741Y-83607419D01*
X141916740Y-84035990D02*
X141892931Y-84059800D01*
X141892931Y-84059800D02*
X141821502Y-84083609D01*
X141821502Y-84083609D02*
X141773883Y-84083609D01*
X141773883Y-84083609D02*
X141702455Y-84059800D01*
X141702455Y-84059800D02*
X141654836Y-84012180D01*
X141654836Y-84012180D02*
X141631026Y-83964561D01*
X141631026Y-83964561D02*
X141607217Y-83869323D01*
X141607217Y-83869323D02*
X141607217Y-83797895D01*
X141607217Y-83797895D02*
X141631026Y-83702657D01*
X141631026Y-83702657D02*
X141654836Y-83655038D01*
X141654836Y-83655038D02*
X141702455Y-83607419D01*
X141702455Y-83607419D02*
X141773883Y-83583609D01*
X141773883Y-83583609D02*
X141821502Y-83583609D01*
X141821502Y-83583609D02*
X141892931Y-83607419D01*
X141892931Y-83607419D02*
X141916740Y-83631228D01*
X142131026Y-84083609D02*
X142131026Y-83583609D01*
X142416740Y-84083609D02*
X142202455Y-83797895D01*
X142416740Y-83583609D02*
X142131026Y-83869323D01*
X187040200Y-84081027D02*
X187016390Y-84152455D01*
X187016390Y-84152455D02*
X187016390Y-84271503D01*
X187016390Y-84271503D02*
X187040200Y-84319122D01*
X187040200Y-84319122D02*
X187064009Y-84342931D01*
X187064009Y-84342931D02*
X187111628Y-84366741D01*
X187111628Y-84366741D02*
X187159247Y-84366741D01*
X187159247Y-84366741D02*
X187206866Y-84342931D01*
X187206866Y-84342931D02*
X187230676Y-84319122D01*
X187230676Y-84319122D02*
X187254485Y-84271503D01*
X187254485Y-84271503D02*
X187278295Y-84176265D01*
X187278295Y-84176265D02*
X187302104Y-84128646D01*
X187302104Y-84128646D02*
X187325914Y-84104836D01*
X187325914Y-84104836D02*
X187373533Y-84081027D01*
X187373533Y-84081027D02*
X187421152Y-84081027D01*
X187421152Y-84081027D02*
X187468771Y-84104836D01*
X187468771Y-84104836D02*
X187492580Y-84128646D01*
X187492580Y-84128646D02*
X187516390Y-84176265D01*
X187516390Y-84176265D02*
X187516390Y-84295312D01*
X187516390Y-84295312D02*
X187492580Y-84366741D01*
X187064009Y-84866740D02*
X187040200Y-84842931D01*
X187040200Y-84842931D02*
X187016390Y-84771502D01*
X187016390Y-84771502D02*
X187016390Y-84723883D01*
X187016390Y-84723883D02*
X187040200Y-84652455D01*
X187040200Y-84652455D02*
X187087819Y-84604836D01*
X187087819Y-84604836D02*
X187135438Y-84581026D01*
X187135438Y-84581026D02*
X187230676Y-84557217D01*
X187230676Y-84557217D02*
X187302104Y-84557217D01*
X187302104Y-84557217D02*
X187397342Y-84581026D01*
X187397342Y-84581026D02*
X187444961Y-84604836D01*
X187444961Y-84604836D02*
X187492580Y-84652455D01*
X187492580Y-84652455D02*
X187516390Y-84723883D01*
X187516390Y-84723883D02*
X187516390Y-84771502D01*
X187516390Y-84771502D02*
X187492580Y-84842931D01*
X187492580Y-84842931D02*
X187468771Y-84866740D01*
X187016390Y-85081026D02*
X187516390Y-85081026D01*
X187016390Y-85366740D02*
X187302104Y-85152455D01*
X187516390Y-85366740D02*
X187230676Y-85081026D01*
X138917217Y-83583609D02*
X139226741Y-83583609D01*
X139226741Y-83583609D02*
X139060074Y-83774085D01*
X139060074Y-83774085D02*
X139131503Y-83774085D01*
X139131503Y-83774085D02*
X139179122Y-83797895D01*
X139179122Y-83797895D02*
X139202931Y-83821704D01*
X139202931Y-83821704D02*
X139226741Y-83869323D01*
X139226741Y-83869323D02*
X139226741Y-83988371D01*
X139226741Y-83988371D02*
X139202931Y-84035990D01*
X139202931Y-84035990D02*
X139179122Y-84059800D01*
X139179122Y-84059800D02*
X139131503Y-84083609D01*
X139131503Y-84083609D02*
X138988646Y-84083609D01*
X138988646Y-84083609D02*
X138941027Y-84059800D01*
X138941027Y-84059800D02*
X138917217Y-84035990D01*
X139369598Y-83583609D02*
X139536264Y-84083609D01*
X139536264Y-84083609D02*
X139702931Y-83583609D01*
X163982217Y-83543609D02*
X164291741Y-83543609D01*
X164291741Y-83543609D02*
X164125074Y-83734085D01*
X164125074Y-83734085D02*
X164196503Y-83734085D01*
X164196503Y-83734085D02*
X164244122Y-83757895D01*
X164244122Y-83757895D02*
X164267931Y-83781704D01*
X164267931Y-83781704D02*
X164291741Y-83829323D01*
X164291741Y-83829323D02*
X164291741Y-83948371D01*
X164291741Y-83948371D02*
X164267931Y-83995990D01*
X164267931Y-83995990D02*
X164244122Y-84019800D01*
X164244122Y-84019800D02*
X164196503Y-84043609D01*
X164196503Y-84043609D02*
X164053646Y-84043609D01*
X164053646Y-84043609D02*
X164006027Y-84019800D01*
X164006027Y-84019800D02*
X163982217Y-83995990D01*
X164434598Y-83543609D02*
X164601264Y-84043609D01*
X164601264Y-84043609D02*
X164767931Y-83543609D01*
X153644836Y-77773609D02*
X153644836Y-77273609D01*
X153644836Y-77273609D02*
X153811503Y-77630752D01*
X153811503Y-77630752D02*
X153978169Y-77273609D01*
X153978169Y-77273609D02*
X153978169Y-77773609D01*
X154216265Y-77773609D02*
X154216265Y-77273609D01*
X154430551Y-77749800D02*
X154501979Y-77773609D01*
X154501979Y-77773609D02*
X154621027Y-77773609D01*
X154621027Y-77773609D02*
X154668646Y-77749800D01*
X154668646Y-77749800D02*
X154692455Y-77725990D01*
X154692455Y-77725990D02*
X154716265Y-77678371D01*
X154716265Y-77678371D02*
X154716265Y-77630752D01*
X154716265Y-77630752D02*
X154692455Y-77583133D01*
X154692455Y-77583133D02*
X154668646Y-77559323D01*
X154668646Y-77559323D02*
X154621027Y-77535514D01*
X154621027Y-77535514D02*
X154525789Y-77511704D01*
X154525789Y-77511704D02*
X154478170Y-77487895D01*
X154478170Y-77487895D02*
X154454360Y-77464085D01*
X154454360Y-77464085D02*
X154430551Y-77416466D01*
X154430551Y-77416466D02*
X154430551Y-77368847D01*
X154430551Y-77368847D02*
X154454360Y-77321228D01*
X154454360Y-77321228D02*
X154478170Y-77297419D01*
X154478170Y-77297419D02*
X154525789Y-77273609D01*
X154525789Y-77273609D02*
X154644836Y-77273609D01*
X154644836Y-77273609D02*
X154716265Y-77297419D01*
X155025788Y-77273609D02*
X155121026Y-77273609D01*
X155121026Y-77273609D02*
X155168645Y-77297419D01*
X155168645Y-77297419D02*
X155216264Y-77345038D01*
X155216264Y-77345038D02*
X155240074Y-77440276D01*
X155240074Y-77440276D02*
X155240074Y-77606942D01*
X155240074Y-77606942D02*
X155216264Y-77702180D01*
X155216264Y-77702180D02*
X155168645Y-77749800D01*
X155168645Y-77749800D02*
X155121026Y-77773609D01*
X155121026Y-77773609D02*
X155025788Y-77773609D01*
X155025788Y-77773609D02*
X154978169Y-77749800D01*
X154978169Y-77749800D02*
X154930550Y-77702180D01*
X154930550Y-77702180D02*
X154906741Y-77606942D01*
X154906741Y-77606942D02*
X154906741Y-77440276D01*
X154906741Y-77440276D02*
X154930550Y-77345038D01*
X154930550Y-77345038D02*
X154978169Y-77297419D01*
X154978169Y-77297419D02*
X155025788Y-77273609D01*
X189754836Y-130601704D02*
X189921503Y-130601704D01*
X189992931Y-130863609D02*
X189754836Y-130863609D01*
X189754836Y-130863609D02*
X189754836Y-130363609D01*
X189754836Y-130363609D02*
X189992931Y-130363609D01*
X190207217Y-130863609D02*
X190207217Y-130363609D01*
X190207217Y-130363609D02*
X190492931Y-130863609D01*
X190492931Y-130863609D02*
X190492931Y-130363609D01*
X181184836Y-84093609D02*
X181184836Y-83593609D01*
X181184836Y-83593609D02*
X181351503Y-83950752D01*
X181351503Y-83950752D02*
X181518169Y-83593609D01*
X181518169Y-83593609D02*
X181518169Y-84093609D01*
X181851503Y-83593609D02*
X181946741Y-83593609D01*
X181946741Y-83593609D02*
X181994360Y-83617419D01*
X181994360Y-83617419D02*
X182041979Y-83665038D01*
X182041979Y-83665038D02*
X182065789Y-83760276D01*
X182065789Y-83760276D02*
X182065789Y-83926942D01*
X182065789Y-83926942D02*
X182041979Y-84022180D01*
X182041979Y-84022180D02*
X181994360Y-84069800D01*
X181994360Y-84069800D02*
X181946741Y-84093609D01*
X181946741Y-84093609D02*
X181851503Y-84093609D01*
X181851503Y-84093609D02*
X181803884Y-84069800D01*
X181803884Y-84069800D02*
X181756265Y-84022180D01*
X181756265Y-84022180D02*
X181732456Y-83926942D01*
X181732456Y-83926942D02*
X181732456Y-83760276D01*
X181732456Y-83760276D02*
X181756265Y-83665038D01*
X181756265Y-83665038D02*
X181803884Y-83617419D01*
X181803884Y-83617419D02*
X181851503Y-83593609D01*
X182256266Y-84069800D02*
X182327694Y-84093609D01*
X182327694Y-84093609D02*
X182446742Y-84093609D01*
X182446742Y-84093609D02*
X182494361Y-84069800D01*
X182494361Y-84069800D02*
X182518170Y-84045990D01*
X182518170Y-84045990D02*
X182541980Y-83998371D01*
X182541980Y-83998371D02*
X182541980Y-83950752D01*
X182541980Y-83950752D02*
X182518170Y-83903133D01*
X182518170Y-83903133D02*
X182494361Y-83879323D01*
X182494361Y-83879323D02*
X182446742Y-83855514D01*
X182446742Y-83855514D02*
X182351504Y-83831704D01*
X182351504Y-83831704D02*
X182303885Y-83807895D01*
X182303885Y-83807895D02*
X182280075Y-83784085D01*
X182280075Y-83784085D02*
X182256266Y-83736466D01*
X182256266Y-83736466D02*
X182256266Y-83688847D01*
X182256266Y-83688847D02*
X182280075Y-83641228D01*
X182280075Y-83641228D02*
X182303885Y-83617419D01*
X182303885Y-83617419D02*
X182351504Y-83593609D01*
X182351504Y-83593609D02*
X182470551Y-83593609D01*
X182470551Y-83593609D02*
X182541980Y-83617419D01*
X182756265Y-84093609D02*
X182756265Y-83593609D01*
X179180550Y-106735990D02*
X179156741Y-106759800D01*
X179156741Y-106759800D02*
X179085312Y-106783609D01*
X179085312Y-106783609D02*
X179037693Y-106783609D01*
X179037693Y-106783609D02*
X178966265Y-106759800D01*
X178966265Y-106759800D02*
X178918646Y-106712180D01*
X178918646Y-106712180D02*
X178894836Y-106664561D01*
X178894836Y-106664561D02*
X178871027Y-106569323D01*
X178871027Y-106569323D02*
X178871027Y-106497895D01*
X178871027Y-106497895D02*
X178894836Y-106402657D01*
X178894836Y-106402657D02*
X178918646Y-106355038D01*
X178918646Y-106355038D02*
X178966265Y-106307419D01*
X178966265Y-106307419D02*
X179037693Y-106283609D01*
X179037693Y-106283609D02*
X179085312Y-106283609D01*
X179085312Y-106283609D02*
X179156741Y-106307419D01*
X179156741Y-106307419D02*
X179180550Y-106331228D01*
X179371027Y-106759800D02*
X179442455Y-106783609D01*
X179442455Y-106783609D02*
X179561503Y-106783609D01*
X179561503Y-106783609D02*
X179609122Y-106759800D01*
X179609122Y-106759800D02*
X179632931Y-106735990D01*
X179632931Y-106735990D02*
X179656741Y-106688371D01*
X179656741Y-106688371D02*
X179656741Y-106640752D01*
X179656741Y-106640752D02*
X179632931Y-106593133D01*
X179632931Y-106593133D02*
X179609122Y-106569323D01*
X179609122Y-106569323D02*
X179561503Y-106545514D01*
X179561503Y-106545514D02*
X179466265Y-106521704D01*
X179466265Y-106521704D02*
X179418646Y-106497895D01*
X179418646Y-106497895D02*
X179394836Y-106474085D01*
X179394836Y-106474085D02*
X179371027Y-106426466D01*
X179371027Y-106426466D02*
X179371027Y-106378847D01*
X179371027Y-106378847D02*
X179394836Y-106331228D01*
X179394836Y-106331228D02*
X179418646Y-106307419D01*
X179418646Y-106307419D02*
X179466265Y-106283609D01*
X179466265Y-106283609D02*
X179585312Y-106283609D01*
X179585312Y-106283609D02*
X179656741Y-106307419D01*
X179751979Y-106831228D02*
X180132931Y-106831228D01*
X180228169Y-106759800D02*
X180299597Y-106783609D01*
X180299597Y-106783609D02*
X180418645Y-106783609D01*
X180418645Y-106783609D02*
X180466264Y-106759800D01*
X180466264Y-106759800D02*
X180490073Y-106735990D01*
X180490073Y-106735990D02*
X180513883Y-106688371D01*
X180513883Y-106688371D02*
X180513883Y-106640752D01*
X180513883Y-106640752D02*
X180490073Y-106593133D01*
X180490073Y-106593133D02*
X180466264Y-106569323D01*
X180466264Y-106569323D02*
X180418645Y-106545514D01*
X180418645Y-106545514D02*
X180323407Y-106521704D01*
X180323407Y-106521704D02*
X180275788Y-106497895D01*
X180275788Y-106497895D02*
X180251978Y-106474085D01*
X180251978Y-106474085D02*
X180228169Y-106426466D01*
X180228169Y-106426466D02*
X180228169Y-106378847D01*
X180228169Y-106378847D02*
X180251978Y-106331228D01*
X180251978Y-106331228D02*
X180275788Y-106307419D01*
X180275788Y-106307419D02*
X180323407Y-106283609D01*
X180323407Y-106283609D02*
X180442454Y-106283609D01*
X180442454Y-106283609D02*
X180513883Y-106307419D01*
X180728168Y-106783609D02*
X180728168Y-106283609D01*
X180728168Y-106283609D02*
X180847216Y-106283609D01*
X180847216Y-106283609D02*
X180918644Y-106307419D01*
X180918644Y-106307419D02*
X180966263Y-106355038D01*
X180966263Y-106355038D02*
X180990073Y-106402657D01*
X180990073Y-106402657D02*
X181013882Y-106497895D01*
X181013882Y-106497895D02*
X181013882Y-106569323D01*
X181013882Y-106569323D02*
X180990073Y-106664561D01*
X180990073Y-106664561D02*
X180966263Y-106712180D01*
X180966263Y-106712180D02*
X180918644Y-106759800D01*
X180918644Y-106759800D02*
X180847216Y-106783609D01*
X180847216Y-106783609D02*
X180728168Y-106783609D01*
X189210074Y-106283609D02*
X189305312Y-106283609D01*
X189305312Y-106283609D02*
X189352931Y-106307419D01*
X189352931Y-106307419D02*
X189400550Y-106355038D01*
X189400550Y-106355038D02*
X189424360Y-106450276D01*
X189424360Y-106450276D02*
X189424360Y-106616942D01*
X189424360Y-106616942D02*
X189400550Y-106712180D01*
X189400550Y-106712180D02*
X189352931Y-106759800D01*
X189352931Y-106759800D02*
X189305312Y-106783609D01*
X189305312Y-106783609D02*
X189210074Y-106783609D01*
X189210074Y-106783609D02*
X189162455Y-106759800D01*
X189162455Y-106759800D02*
X189114836Y-106712180D01*
X189114836Y-106712180D02*
X189091027Y-106616942D01*
X189091027Y-106616942D02*
X189091027Y-106450276D01*
X189091027Y-106450276D02*
X189114836Y-106355038D01*
X189114836Y-106355038D02*
X189162455Y-106307419D01*
X189162455Y-106307419D02*
X189210074Y-106283609D01*
X189638646Y-106783609D02*
X189638646Y-106283609D01*
X189638646Y-106283609D02*
X189829122Y-106283609D01*
X189829122Y-106283609D02*
X189876741Y-106307419D01*
X189876741Y-106307419D02*
X189900551Y-106331228D01*
X189900551Y-106331228D02*
X189924360Y-106378847D01*
X189924360Y-106378847D02*
X189924360Y-106450276D01*
X189924360Y-106450276D02*
X189900551Y-106497895D01*
X189900551Y-106497895D02*
X189876741Y-106521704D01*
X189876741Y-106521704D02*
X189829122Y-106545514D01*
X189829122Y-106545514D02*
X189638646Y-106545514D01*
X190138646Y-106521704D02*
X190305313Y-106521704D01*
X190376741Y-106783609D02*
X190138646Y-106783609D01*
X190138646Y-106783609D02*
X190138646Y-106283609D01*
X190138646Y-106283609D02*
X190376741Y-106283609D01*
X190876741Y-106783609D02*
X190710075Y-106545514D01*
X190591027Y-106783609D02*
X190591027Y-106283609D01*
X190591027Y-106283609D02*
X190781503Y-106283609D01*
X190781503Y-106283609D02*
X190829122Y-106307419D01*
X190829122Y-106307419D02*
X190852932Y-106331228D01*
X190852932Y-106331228D02*
X190876741Y-106378847D01*
X190876741Y-106378847D02*
X190876741Y-106450276D01*
X190876741Y-106450276D02*
X190852932Y-106497895D01*
X190852932Y-106497895D02*
X190829122Y-106521704D01*
X190829122Y-106521704D02*
X190781503Y-106545514D01*
X190781503Y-106545514D02*
X190591027Y-106545514D01*
D12*
X157428207Y-90589291D02*
X157352017Y-90551196D01*
X157352017Y-90551196D02*
X157237731Y-90551196D01*
X157237731Y-90551196D02*
X157123445Y-90589291D01*
X157123445Y-90589291D02*
X157047255Y-90665481D01*
X157047255Y-90665481D02*
X157009160Y-90741672D01*
X157009160Y-90741672D02*
X156971064Y-90894053D01*
X156971064Y-90894053D02*
X156971064Y-91008339D01*
X156971064Y-91008339D02*
X157009160Y-91160720D01*
X157009160Y-91160720D02*
X157047255Y-91236910D01*
X157047255Y-91236910D02*
X157123445Y-91313101D01*
X157123445Y-91313101D02*
X157237731Y-91351196D01*
X157237731Y-91351196D02*
X157313922Y-91351196D01*
X157313922Y-91351196D02*
X157428207Y-91313101D01*
X157428207Y-91313101D02*
X157466303Y-91275005D01*
X157466303Y-91275005D02*
X157466303Y-91008339D01*
X157466303Y-91008339D02*
X157313922Y-91008339D01*
X157809160Y-91351196D02*
X157809160Y-90551196D01*
X157809160Y-90551196D02*
X158266303Y-91351196D01*
X158266303Y-91351196D02*
X158266303Y-90551196D01*
X158647255Y-91351196D02*
X158647255Y-90551196D01*
X158647255Y-90551196D02*
X158837731Y-90551196D01*
X158837731Y-90551196D02*
X158952017Y-90589291D01*
X158952017Y-90589291D02*
X159028207Y-90665481D01*
X159028207Y-90665481D02*
X159066302Y-90741672D01*
X159066302Y-90741672D02*
X159104398Y-90894053D01*
X159104398Y-90894053D02*
X159104398Y-91008339D01*
X159104398Y-91008339D02*
X159066302Y-91160720D01*
X159066302Y-91160720D02*
X159028207Y-91236910D01*
X159028207Y-91236910D02*
X158952017Y-91313101D01*
X158952017Y-91313101D02*
X158837731Y-91351196D01*
X158837731Y-91351196D02*
X158647255Y-91351196D01*
D11*
X180479197Y-90905504D02*
X180441101Y-90943600D01*
X180441101Y-90943600D02*
X180326816Y-90981695D01*
X180326816Y-90981695D02*
X180250625Y-90981695D01*
X180250625Y-90981695D02*
X180136339Y-90943600D01*
X180136339Y-90943600D02*
X180060149Y-90867409D01*
X180060149Y-90867409D02*
X180022054Y-90791219D01*
X180022054Y-90791219D02*
X179983958Y-90638838D01*
X179983958Y-90638838D02*
X179983958Y-90524552D01*
X179983958Y-90524552D02*
X180022054Y-90372171D01*
X180022054Y-90372171D02*
X180060149Y-90295980D01*
X180060149Y-90295980D02*
X180136339Y-90219790D01*
X180136339Y-90219790D02*
X180250625Y-90181695D01*
X180250625Y-90181695D02*
X180326816Y-90181695D01*
X180326816Y-90181695D02*
X180441101Y-90219790D01*
X180441101Y-90219790D02*
X180479197Y-90257885D01*
D10*
X176571027Y-106759800D02*
X176642455Y-106783609D01*
X176642455Y-106783609D02*
X176761503Y-106783609D01*
X176761503Y-106783609D02*
X176809122Y-106759800D01*
X176809122Y-106759800D02*
X176832931Y-106735990D01*
X176832931Y-106735990D02*
X176856741Y-106688371D01*
X176856741Y-106688371D02*
X176856741Y-106640752D01*
X176856741Y-106640752D02*
X176832931Y-106593133D01*
X176832931Y-106593133D02*
X176809122Y-106569323D01*
X176809122Y-106569323D02*
X176761503Y-106545514D01*
X176761503Y-106545514D02*
X176666265Y-106521704D01*
X176666265Y-106521704D02*
X176618646Y-106497895D01*
X176618646Y-106497895D02*
X176594836Y-106474085D01*
X176594836Y-106474085D02*
X176571027Y-106426466D01*
X176571027Y-106426466D02*
X176571027Y-106378847D01*
X176571027Y-106378847D02*
X176594836Y-106331228D01*
X176594836Y-106331228D02*
X176618646Y-106307419D01*
X176618646Y-106307419D02*
X176666265Y-106283609D01*
X176666265Y-106283609D02*
X176785312Y-106283609D01*
X176785312Y-106283609D02*
X176856741Y-106307419D01*
X177356740Y-106735990D02*
X177332931Y-106759800D01*
X177332931Y-106759800D02*
X177261502Y-106783609D01*
X177261502Y-106783609D02*
X177213883Y-106783609D01*
X177213883Y-106783609D02*
X177142455Y-106759800D01*
X177142455Y-106759800D02*
X177094836Y-106712180D01*
X177094836Y-106712180D02*
X177071026Y-106664561D01*
X177071026Y-106664561D02*
X177047217Y-106569323D01*
X177047217Y-106569323D02*
X177047217Y-106497895D01*
X177047217Y-106497895D02*
X177071026Y-106402657D01*
X177071026Y-106402657D02*
X177094836Y-106355038D01*
X177094836Y-106355038D02*
X177142455Y-106307419D01*
X177142455Y-106307419D02*
X177213883Y-106283609D01*
X177213883Y-106283609D02*
X177261502Y-106283609D01*
X177261502Y-106283609D02*
X177332931Y-106307419D01*
X177332931Y-106307419D02*
X177356740Y-106331228D01*
X177571026Y-106783609D02*
X177571026Y-106283609D01*
X177856740Y-106783609D02*
X177642455Y-106497895D01*
X177856740Y-106283609D02*
X177571026Y-106569323D01*
X153741027Y-84019800D02*
X153812455Y-84043609D01*
X153812455Y-84043609D02*
X153931503Y-84043609D01*
X153931503Y-84043609D02*
X153979122Y-84019800D01*
X153979122Y-84019800D02*
X154002931Y-83995990D01*
X154002931Y-83995990D02*
X154026741Y-83948371D01*
X154026741Y-83948371D02*
X154026741Y-83900752D01*
X154026741Y-83900752D02*
X154002931Y-83853133D01*
X154002931Y-83853133D02*
X153979122Y-83829323D01*
X153979122Y-83829323D02*
X153931503Y-83805514D01*
X153931503Y-83805514D02*
X153836265Y-83781704D01*
X153836265Y-83781704D02*
X153788646Y-83757895D01*
X153788646Y-83757895D02*
X153764836Y-83734085D01*
X153764836Y-83734085D02*
X153741027Y-83686466D01*
X153741027Y-83686466D02*
X153741027Y-83638847D01*
X153741027Y-83638847D02*
X153764836Y-83591228D01*
X153764836Y-83591228D02*
X153788646Y-83567419D01*
X153788646Y-83567419D02*
X153836265Y-83543609D01*
X153836265Y-83543609D02*
X153955312Y-83543609D01*
X153955312Y-83543609D02*
X154026741Y-83567419D01*
X154526740Y-83995990D02*
X154502931Y-84019800D01*
X154502931Y-84019800D02*
X154431502Y-84043609D01*
X154431502Y-84043609D02*
X154383883Y-84043609D01*
X154383883Y-84043609D02*
X154312455Y-84019800D01*
X154312455Y-84019800D02*
X154264836Y-83972180D01*
X154264836Y-83972180D02*
X154241026Y-83924561D01*
X154241026Y-83924561D02*
X154217217Y-83829323D01*
X154217217Y-83829323D02*
X154217217Y-83757895D01*
X154217217Y-83757895D02*
X154241026Y-83662657D01*
X154241026Y-83662657D02*
X154264836Y-83615038D01*
X154264836Y-83615038D02*
X154312455Y-83567419D01*
X154312455Y-83567419D02*
X154383883Y-83543609D01*
X154383883Y-83543609D02*
X154431502Y-83543609D01*
X154431502Y-83543609D02*
X154502931Y-83567419D01*
X154502931Y-83567419D02*
X154526740Y-83591228D01*
X154741026Y-84043609D02*
X154741026Y-83543609D01*
X155026740Y-84043609D02*
X154812455Y-83757895D01*
X155026740Y-83543609D02*
X154741026Y-83829323D01*
X178624836Y-77843609D02*
X178624836Y-77343609D01*
X178624836Y-77343609D02*
X178791503Y-77700752D01*
X178791503Y-77700752D02*
X178958169Y-77343609D01*
X178958169Y-77343609D02*
X178958169Y-77843609D01*
X179196265Y-77843609D02*
X179196265Y-77343609D01*
X179410551Y-77819800D02*
X179481979Y-77843609D01*
X179481979Y-77843609D02*
X179601027Y-77843609D01*
X179601027Y-77843609D02*
X179648646Y-77819800D01*
X179648646Y-77819800D02*
X179672455Y-77795990D01*
X179672455Y-77795990D02*
X179696265Y-77748371D01*
X179696265Y-77748371D02*
X179696265Y-77700752D01*
X179696265Y-77700752D02*
X179672455Y-77653133D01*
X179672455Y-77653133D02*
X179648646Y-77629323D01*
X179648646Y-77629323D02*
X179601027Y-77605514D01*
X179601027Y-77605514D02*
X179505789Y-77581704D01*
X179505789Y-77581704D02*
X179458170Y-77557895D01*
X179458170Y-77557895D02*
X179434360Y-77534085D01*
X179434360Y-77534085D02*
X179410551Y-77486466D01*
X179410551Y-77486466D02*
X179410551Y-77438847D01*
X179410551Y-77438847D02*
X179434360Y-77391228D01*
X179434360Y-77391228D02*
X179458170Y-77367419D01*
X179458170Y-77367419D02*
X179505789Y-77343609D01*
X179505789Y-77343609D02*
X179624836Y-77343609D01*
X179624836Y-77343609D02*
X179696265Y-77367419D01*
X180005788Y-77343609D02*
X180101026Y-77343609D01*
X180101026Y-77343609D02*
X180148645Y-77367419D01*
X180148645Y-77367419D02*
X180196264Y-77415038D01*
X180196264Y-77415038D02*
X180220074Y-77510276D01*
X180220074Y-77510276D02*
X180220074Y-77676942D01*
X180220074Y-77676942D02*
X180196264Y-77772180D01*
X180196264Y-77772180D02*
X180148645Y-77819800D01*
X180148645Y-77819800D02*
X180101026Y-77843609D01*
X180101026Y-77843609D02*
X180005788Y-77843609D01*
X180005788Y-77843609D02*
X179958169Y-77819800D01*
X179958169Y-77819800D02*
X179910550Y-77772180D01*
X179910550Y-77772180D02*
X179886741Y-77676942D01*
X179886741Y-77676942D02*
X179886741Y-77510276D01*
X179886741Y-77510276D02*
X179910550Y-77415038D01*
X179910550Y-77415038D02*
X179958169Y-77367419D01*
X179958169Y-77367419D02*
X180005788Y-77343609D01*
X199693239Y-84129999D02*
X199693239Y-84606189D01*
X199407524Y-84034761D02*
X200407524Y-84368094D01*
X200407524Y-84368094D02*
X199407524Y-84701427D01*
X199407524Y-85463332D02*
X200407524Y-85463332D01*
X199455144Y-85463332D02*
X199407524Y-85368094D01*
X199407524Y-85368094D02*
X199407524Y-85177618D01*
X199407524Y-85177618D02*
X199455144Y-85082380D01*
X199455144Y-85082380D02*
X199502763Y-85034761D01*
X199502763Y-85034761D02*
X199598001Y-84987142D01*
X199598001Y-84987142D02*
X199883715Y-84987142D01*
X199883715Y-84987142D02*
X199978953Y-85034761D01*
X199978953Y-85034761D02*
X200026572Y-85082380D01*
X200026572Y-85082380D02*
X200074191Y-85177618D01*
X200074191Y-85177618D02*
X200074191Y-85368094D01*
X200074191Y-85368094D02*
X200026572Y-85463332D01*
X199407524Y-86368094D02*
X199931334Y-86368094D01*
X199931334Y-86368094D02*
X200026572Y-86320475D01*
X200026572Y-86320475D02*
X200074191Y-86225237D01*
X200074191Y-86225237D02*
X200074191Y-86034761D01*
X200074191Y-86034761D02*
X200026572Y-85939523D01*
X199455144Y-86368094D02*
X199407524Y-86272856D01*
X199407524Y-86272856D02*
X199407524Y-86034761D01*
X199407524Y-86034761D02*
X199455144Y-85939523D01*
X199455144Y-85939523D02*
X199550382Y-85891904D01*
X199550382Y-85891904D02*
X199645620Y-85891904D01*
X199645620Y-85891904D02*
X199740858Y-85939523D01*
X199740858Y-85939523D02*
X199788477Y-86034761D01*
X199788477Y-86034761D02*
X199788477Y-86272856D01*
X199788477Y-86272856D02*
X199836096Y-86368094D01*
X200074191Y-86701428D02*
X200074191Y-87082380D01*
X199407524Y-86844285D02*
X200264667Y-86844285D01*
X200264667Y-86844285D02*
X200359905Y-86891904D01*
X200359905Y-86891904D02*
X200407524Y-86987142D01*
X200407524Y-86987142D02*
X200407524Y-87082380D01*
X199407524Y-87415714D02*
X200074191Y-87415714D01*
X199883715Y-87415714D02*
X199978953Y-87463333D01*
X199978953Y-87463333D02*
X200026572Y-87510952D01*
X200026572Y-87510952D02*
X200074191Y-87606190D01*
X200074191Y-87606190D02*
X200074191Y-87701428D01*
X200074191Y-88463333D02*
X199407524Y-88463333D01*
X200074191Y-88034762D02*
X199550382Y-88034762D01*
X199550382Y-88034762D02*
X199455144Y-88082381D01*
X199455144Y-88082381D02*
X199407524Y-88177619D01*
X199407524Y-88177619D02*
X199407524Y-88320476D01*
X199407524Y-88320476D02*
X199455144Y-88415714D01*
X199455144Y-88415714D02*
X199502763Y-88463333D01*
X199407524Y-88939524D02*
X200074191Y-88939524D01*
X200407524Y-88939524D02*
X200359905Y-88891905D01*
X200359905Y-88891905D02*
X200312286Y-88939524D01*
X200312286Y-88939524D02*
X200359905Y-88987143D01*
X200359905Y-88987143D02*
X200407524Y-88939524D01*
X200407524Y-88939524D02*
X200312286Y-88939524D01*
X200074191Y-89272857D02*
X200074191Y-89653809D01*
X200407524Y-89415714D02*
X199550382Y-89415714D01*
X199550382Y-89415714D02*
X199455144Y-89463333D01*
X199455144Y-89463333D02*
X199407524Y-89558571D01*
X199407524Y-89558571D02*
X199407524Y-89653809D01*
X200074191Y-91177619D02*
X199407524Y-91177619D01*
X200455144Y-90939524D02*
X199740858Y-90701429D01*
X199740858Y-90701429D02*
X199740858Y-91320476D01*
X200407524Y-92130000D02*
X200407524Y-91939524D01*
X200407524Y-91939524D02*
X200359905Y-91844286D01*
X200359905Y-91844286D02*
X200312286Y-91796667D01*
X200312286Y-91796667D02*
X200169429Y-91701429D01*
X200169429Y-91701429D02*
X199978953Y-91653810D01*
X199978953Y-91653810D02*
X199598001Y-91653810D01*
X199598001Y-91653810D02*
X199502763Y-91701429D01*
X199502763Y-91701429D02*
X199455144Y-91749048D01*
X199455144Y-91749048D02*
X199407524Y-91844286D01*
X199407524Y-91844286D02*
X199407524Y-92034762D01*
X199407524Y-92034762D02*
X199455144Y-92130000D01*
X199455144Y-92130000D02*
X199502763Y-92177619D01*
X199502763Y-92177619D02*
X199598001Y-92225238D01*
X199598001Y-92225238D02*
X199836096Y-92225238D01*
X199836096Y-92225238D02*
X199931334Y-92177619D01*
X199931334Y-92177619D02*
X199978953Y-92130000D01*
X199978953Y-92130000D02*
X200026572Y-92034762D01*
X200026572Y-92034762D02*
X200026572Y-91844286D01*
X200026572Y-91844286D02*
X199978953Y-91749048D01*
X199978953Y-91749048D02*
X199931334Y-91701429D01*
X199931334Y-91701429D02*
X199836096Y-91653810D01*
X199978953Y-92796667D02*
X200026572Y-92701429D01*
X200026572Y-92701429D02*
X200074191Y-92653810D01*
X200074191Y-92653810D02*
X200169429Y-92606191D01*
X200169429Y-92606191D02*
X200217048Y-92606191D01*
X200217048Y-92606191D02*
X200312286Y-92653810D01*
X200312286Y-92653810D02*
X200359905Y-92701429D01*
X200359905Y-92701429D02*
X200407524Y-92796667D01*
X200407524Y-92796667D02*
X200407524Y-92987143D01*
X200407524Y-92987143D02*
X200359905Y-93082381D01*
X200359905Y-93082381D02*
X200312286Y-93130000D01*
X200312286Y-93130000D02*
X200217048Y-93177619D01*
X200217048Y-93177619D02*
X200169429Y-93177619D01*
X200169429Y-93177619D02*
X200074191Y-93130000D01*
X200074191Y-93130000D02*
X200026572Y-93082381D01*
X200026572Y-93082381D02*
X199978953Y-92987143D01*
X199978953Y-92987143D02*
X199978953Y-92796667D01*
X199978953Y-92796667D02*
X199931334Y-92701429D01*
X199931334Y-92701429D02*
X199883715Y-92653810D01*
X199883715Y-92653810D02*
X199788477Y-92606191D01*
X199788477Y-92606191D02*
X199598001Y-92606191D01*
X199598001Y-92606191D02*
X199502763Y-92653810D01*
X199502763Y-92653810D02*
X199455144Y-92701429D01*
X199455144Y-92701429D02*
X199407524Y-92796667D01*
X199407524Y-92796667D02*
X199407524Y-92987143D01*
X199407524Y-92987143D02*
X199455144Y-93082381D01*
X199455144Y-93082381D02*
X199502763Y-93130000D01*
X199502763Y-93130000D02*
X199598001Y-93177619D01*
X199598001Y-93177619D02*
X199788477Y-93177619D01*
X199788477Y-93177619D02*
X199883715Y-93130000D01*
X199883715Y-93130000D02*
X199931334Y-93082381D01*
X199931334Y-93082381D02*
X199978953Y-92987143D01*
X200312286Y-93558572D02*
X200359905Y-93606191D01*
X200359905Y-93606191D02*
X200407524Y-93701429D01*
X200407524Y-93701429D02*
X200407524Y-93939524D01*
X200407524Y-93939524D02*
X200359905Y-94034762D01*
X200359905Y-94034762D02*
X200312286Y-94082381D01*
X200312286Y-94082381D02*
X200217048Y-94130000D01*
X200217048Y-94130000D02*
X200121810Y-94130000D01*
X200121810Y-94130000D02*
X199978953Y-94082381D01*
X199978953Y-94082381D02*
X199407524Y-93510953D01*
X199407524Y-93510953D02*
X199407524Y-94130000D01*
X197845200Y-83058571D02*
X197797580Y-83201428D01*
X197797580Y-83201428D02*
X197797580Y-83439523D01*
X197797580Y-83439523D02*
X197845200Y-83534761D01*
X197845200Y-83534761D02*
X197892819Y-83582380D01*
X197892819Y-83582380D02*
X197988057Y-83629999D01*
X197988057Y-83629999D02*
X198083295Y-83629999D01*
X198083295Y-83629999D02*
X198178533Y-83582380D01*
X198178533Y-83582380D02*
X198226152Y-83534761D01*
X198226152Y-83534761D02*
X198273771Y-83439523D01*
X198273771Y-83439523D02*
X198321390Y-83249047D01*
X198321390Y-83249047D02*
X198369009Y-83153809D01*
X198369009Y-83153809D02*
X198416628Y-83106190D01*
X198416628Y-83106190D02*
X198511866Y-83058571D01*
X198511866Y-83058571D02*
X198607104Y-83058571D01*
X198607104Y-83058571D02*
X198702342Y-83106190D01*
X198702342Y-83106190D02*
X198749961Y-83153809D01*
X198749961Y-83153809D02*
X198797580Y-83249047D01*
X198797580Y-83249047D02*
X198797580Y-83487142D01*
X198797580Y-83487142D02*
X198749961Y-83629999D01*
X197797580Y-84058571D02*
X198797580Y-84058571D01*
X198797580Y-84058571D02*
X198797580Y-84296666D01*
X198797580Y-84296666D02*
X198749961Y-84439523D01*
X198749961Y-84439523D02*
X198654723Y-84534761D01*
X198654723Y-84534761D02*
X198559485Y-84582380D01*
X198559485Y-84582380D02*
X198369009Y-84629999D01*
X198369009Y-84629999D02*
X198226152Y-84629999D01*
X198226152Y-84629999D02*
X198035676Y-84582380D01*
X198035676Y-84582380D02*
X197940438Y-84534761D01*
X197940438Y-84534761D02*
X197845200Y-84439523D01*
X197845200Y-84439523D02*
X197797580Y-84296666D01*
X197797580Y-84296666D02*
X197797580Y-84058571D01*
X198178533Y-85058571D02*
X198178533Y-85820476D01*
X197892819Y-86868094D02*
X197845200Y-86820475D01*
X197845200Y-86820475D02*
X197797580Y-86677618D01*
X197797580Y-86677618D02*
X197797580Y-86582380D01*
X197797580Y-86582380D02*
X197845200Y-86439523D01*
X197845200Y-86439523D02*
X197940438Y-86344285D01*
X197940438Y-86344285D02*
X198035676Y-86296666D01*
X198035676Y-86296666D02*
X198226152Y-86249047D01*
X198226152Y-86249047D02*
X198369009Y-86249047D01*
X198369009Y-86249047D02*
X198559485Y-86296666D01*
X198559485Y-86296666D02*
X198654723Y-86344285D01*
X198654723Y-86344285D02*
X198749961Y-86439523D01*
X198749961Y-86439523D02*
X198797580Y-86582380D01*
X198797580Y-86582380D02*
X198797580Y-86677618D01*
X198797580Y-86677618D02*
X198749961Y-86820475D01*
X198749961Y-86820475D02*
X198702342Y-86868094D01*
X197797580Y-87725237D02*
X198321390Y-87725237D01*
X198321390Y-87725237D02*
X198416628Y-87677618D01*
X198416628Y-87677618D02*
X198464247Y-87582380D01*
X198464247Y-87582380D02*
X198464247Y-87391904D01*
X198464247Y-87391904D02*
X198416628Y-87296666D01*
X197845200Y-87725237D02*
X197797580Y-87629999D01*
X197797580Y-87629999D02*
X197797580Y-87391904D01*
X197797580Y-87391904D02*
X197845200Y-87296666D01*
X197845200Y-87296666D02*
X197940438Y-87249047D01*
X197940438Y-87249047D02*
X198035676Y-87249047D01*
X198035676Y-87249047D02*
X198130914Y-87296666D01*
X198130914Y-87296666D02*
X198178533Y-87391904D01*
X198178533Y-87391904D02*
X198178533Y-87629999D01*
X198178533Y-87629999D02*
X198226152Y-87725237D01*
X197797580Y-88201428D02*
X198464247Y-88201428D01*
X198273771Y-88201428D02*
X198369009Y-88249047D01*
X198369009Y-88249047D02*
X198416628Y-88296666D01*
X198416628Y-88296666D02*
X198464247Y-88391904D01*
X198464247Y-88391904D02*
X198464247Y-88487142D01*
X197797580Y-89249047D02*
X198797580Y-89249047D01*
X197845200Y-89249047D02*
X197797580Y-89153809D01*
X197797580Y-89153809D02*
X197797580Y-88963333D01*
X197797580Y-88963333D02*
X197845200Y-88868095D01*
X197845200Y-88868095D02*
X197892819Y-88820476D01*
X197892819Y-88820476D02*
X197988057Y-88772857D01*
X197988057Y-88772857D02*
X198273771Y-88772857D01*
X198273771Y-88772857D02*
X198369009Y-88820476D01*
X198369009Y-88820476D02*
X198416628Y-88868095D01*
X198416628Y-88868095D02*
X198464247Y-88963333D01*
X198464247Y-88963333D02*
X198464247Y-89153809D01*
X198464247Y-89153809D02*
X198416628Y-89249047D01*
X197797580Y-91058571D02*
X198273771Y-90725238D01*
X197797580Y-90487143D02*
X198797580Y-90487143D01*
X198797580Y-90487143D02*
X198797580Y-90868095D01*
X198797580Y-90868095D02*
X198749961Y-90963333D01*
X198749961Y-90963333D02*
X198702342Y-91010952D01*
X198702342Y-91010952D02*
X198607104Y-91058571D01*
X198607104Y-91058571D02*
X198464247Y-91058571D01*
X198464247Y-91058571D02*
X198369009Y-91010952D01*
X198369009Y-91010952D02*
X198321390Y-90963333D01*
X198321390Y-90963333D02*
X198273771Y-90868095D01*
X198273771Y-90868095D02*
X198273771Y-90487143D01*
X197845200Y-91868095D02*
X197797580Y-91772857D01*
X197797580Y-91772857D02*
X197797580Y-91582381D01*
X197797580Y-91582381D02*
X197845200Y-91487143D01*
X197845200Y-91487143D02*
X197940438Y-91439524D01*
X197940438Y-91439524D02*
X198321390Y-91439524D01*
X198321390Y-91439524D02*
X198416628Y-91487143D01*
X198416628Y-91487143D02*
X198464247Y-91582381D01*
X198464247Y-91582381D02*
X198464247Y-91772857D01*
X198464247Y-91772857D02*
X198416628Y-91868095D01*
X198416628Y-91868095D02*
X198321390Y-91915714D01*
X198321390Y-91915714D02*
X198226152Y-91915714D01*
X198226152Y-91915714D02*
X198130914Y-91439524D01*
X197797580Y-92772857D02*
X198321390Y-92772857D01*
X198321390Y-92772857D02*
X198416628Y-92725238D01*
X198416628Y-92725238D02*
X198464247Y-92630000D01*
X198464247Y-92630000D02*
X198464247Y-92439524D01*
X198464247Y-92439524D02*
X198416628Y-92344286D01*
X197845200Y-92772857D02*
X197797580Y-92677619D01*
X197797580Y-92677619D02*
X197797580Y-92439524D01*
X197797580Y-92439524D02*
X197845200Y-92344286D01*
X197845200Y-92344286D02*
X197940438Y-92296667D01*
X197940438Y-92296667D02*
X198035676Y-92296667D01*
X198035676Y-92296667D02*
X198130914Y-92344286D01*
X198130914Y-92344286D02*
X198178533Y-92439524D01*
X198178533Y-92439524D02*
X198178533Y-92677619D01*
X198178533Y-92677619D02*
X198226152Y-92772857D01*
X197797580Y-93677619D02*
X198797580Y-93677619D01*
X197845200Y-93677619D02*
X197797580Y-93582381D01*
X197797580Y-93582381D02*
X197797580Y-93391905D01*
X197797580Y-93391905D02*
X197845200Y-93296667D01*
X197845200Y-93296667D02*
X197892819Y-93249048D01*
X197892819Y-93249048D02*
X197988057Y-93201429D01*
X197988057Y-93201429D02*
X198273771Y-93201429D01*
X198273771Y-93201429D02*
X198369009Y-93249048D01*
X198369009Y-93249048D02*
X198416628Y-93296667D01*
X198416628Y-93296667D02*
X198464247Y-93391905D01*
X198464247Y-93391905D02*
X198464247Y-93582381D01*
X198464247Y-93582381D02*
X198416628Y-93677619D01*
X197845200Y-94534762D02*
X197797580Y-94439524D01*
X197797580Y-94439524D02*
X197797580Y-94249048D01*
X197797580Y-94249048D02*
X197845200Y-94153810D01*
X197845200Y-94153810D02*
X197940438Y-94106191D01*
X197940438Y-94106191D02*
X198321390Y-94106191D01*
X198321390Y-94106191D02*
X198416628Y-94153810D01*
X198416628Y-94153810D02*
X198464247Y-94249048D01*
X198464247Y-94249048D02*
X198464247Y-94439524D01*
X198464247Y-94439524D02*
X198416628Y-94534762D01*
X198416628Y-94534762D02*
X198321390Y-94582381D01*
X198321390Y-94582381D02*
X198226152Y-94582381D01*
X198226152Y-94582381D02*
X198130914Y-94106191D01*
X197797580Y-95010953D02*
X198464247Y-95010953D01*
X198273771Y-95010953D02*
X198369009Y-95058572D01*
X198369009Y-95058572D02*
X198416628Y-95106191D01*
X198416628Y-95106191D02*
X198464247Y-95201429D01*
X198464247Y-95201429D02*
X198464247Y-95296667D01*
X187492580Y-81776741D02*
X187516390Y-81729122D01*
X187516390Y-81729122D02*
X187516390Y-81657693D01*
X187516390Y-81657693D02*
X187492580Y-81586265D01*
X187492580Y-81586265D02*
X187444961Y-81538646D01*
X187444961Y-81538646D02*
X187397342Y-81514836D01*
X187397342Y-81514836D02*
X187302104Y-81491027D01*
X187302104Y-81491027D02*
X187230676Y-81491027D01*
X187230676Y-81491027D02*
X187135438Y-81514836D01*
X187135438Y-81514836D02*
X187087819Y-81538646D01*
X187087819Y-81538646D02*
X187040200Y-81586265D01*
X187040200Y-81586265D02*
X187016390Y-81657693D01*
X187016390Y-81657693D02*
X187016390Y-81705312D01*
X187016390Y-81705312D02*
X187040200Y-81776741D01*
X187040200Y-81776741D02*
X187064009Y-81800550D01*
X187064009Y-81800550D02*
X187230676Y-81800550D01*
X187230676Y-81800550D02*
X187230676Y-81705312D01*
X187016390Y-82014836D02*
X187516390Y-82014836D01*
X187516390Y-82014836D02*
X187016390Y-82300550D01*
X187016390Y-82300550D02*
X187516390Y-82300550D01*
X187016390Y-82538646D02*
X187516390Y-82538646D01*
X187516390Y-82538646D02*
X187516390Y-82657694D01*
X187516390Y-82657694D02*
X187492580Y-82729122D01*
X187492580Y-82729122D02*
X187444961Y-82776741D01*
X187444961Y-82776741D02*
X187397342Y-82800551D01*
X187397342Y-82800551D02*
X187302104Y-82824360D01*
X187302104Y-82824360D02*
X187230676Y-82824360D01*
X187230676Y-82824360D02*
X187135438Y-82800551D01*
X187135438Y-82800551D02*
X187087819Y-82776741D01*
X187087819Y-82776741D02*
X187040200Y-82729122D01*
X187040200Y-82729122D02*
X187016390Y-82657694D01*
X187016390Y-82657694D02*
X187016390Y-82538646D01*
X174084836Y-106783609D02*
X174084836Y-106283609D01*
X174084836Y-106283609D02*
X174251503Y-106640752D01*
X174251503Y-106640752D02*
X174418169Y-106283609D01*
X174418169Y-106283609D02*
X174418169Y-106783609D01*
X174751503Y-106283609D02*
X174846741Y-106283609D01*
X174846741Y-106283609D02*
X174894360Y-106307419D01*
X174894360Y-106307419D02*
X174941979Y-106355038D01*
X174941979Y-106355038D02*
X174965789Y-106450276D01*
X174965789Y-106450276D02*
X174965789Y-106616942D01*
X174965789Y-106616942D02*
X174941979Y-106712180D01*
X174941979Y-106712180D02*
X174894360Y-106759800D01*
X174894360Y-106759800D02*
X174846741Y-106783609D01*
X174846741Y-106783609D02*
X174751503Y-106783609D01*
X174751503Y-106783609D02*
X174703884Y-106759800D01*
X174703884Y-106759800D02*
X174656265Y-106712180D01*
X174656265Y-106712180D02*
X174632456Y-106616942D01*
X174632456Y-106616942D02*
X174632456Y-106450276D01*
X174632456Y-106450276D02*
X174656265Y-106355038D01*
X174656265Y-106355038D02*
X174703884Y-106307419D01*
X174703884Y-106307419D02*
X174751503Y-106283609D01*
X175156266Y-106759800D02*
X175227694Y-106783609D01*
X175227694Y-106783609D02*
X175346742Y-106783609D01*
X175346742Y-106783609D02*
X175394361Y-106759800D01*
X175394361Y-106759800D02*
X175418170Y-106735990D01*
X175418170Y-106735990D02*
X175441980Y-106688371D01*
X175441980Y-106688371D02*
X175441980Y-106640752D01*
X175441980Y-106640752D02*
X175418170Y-106593133D01*
X175418170Y-106593133D02*
X175394361Y-106569323D01*
X175394361Y-106569323D02*
X175346742Y-106545514D01*
X175346742Y-106545514D02*
X175251504Y-106521704D01*
X175251504Y-106521704D02*
X175203885Y-106497895D01*
X175203885Y-106497895D02*
X175180075Y-106474085D01*
X175180075Y-106474085D02*
X175156266Y-106426466D01*
X175156266Y-106426466D02*
X175156266Y-106378847D01*
X175156266Y-106378847D02*
X175180075Y-106331228D01*
X175180075Y-106331228D02*
X175203885Y-106307419D01*
X175203885Y-106307419D02*
X175251504Y-106283609D01*
X175251504Y-106283609D02*
X175370551Y-106283609D01*
X175370551Y-106283609D02*
X175441980Y-106307419D01*
X175656265Y-106783609D02*
X175656265Y-106283609D01*
X194826741Y-106307419D02*
X194779122Y-106283609D01*
X194779122Y-106283609D02*
X194707693Y-106283609D01*
X194707693Y-106283609D02*
X194636265Y-106307419D01*
X194636265Y-106307419D02*
X194588646Y-106355038D01*
X194588646Y-106355038D02*
X194564836Y-106402657D01*
X194564836Y-106402657D02*
X194541027Y-106497895D01*
X194541027Y-106497895D02*
X194541027Y-106569323D01*
X194541027Y-106569323D02*
X194564836Y-106664561D01*
X194564836Y-106664561D02*
X194588646Y-106712180D01*
X194588646Y-106712180D02*
X194636265Y-106759800D01*
X194636265Y-106759800D02*
X194707693Y-106783609D01*
X194707693Y-106783609D02*
X194755312Y-106783609D01*
X194755312Y-106783609D02*
X194826741Y-106759800D01*
X194826741Y-106759800D02*
X194850550Y-106735990D01*
X194850550Y-106735990D02*
X194850550Y-106569323D01*
X194850550Y-106569323D02*
X194755312Y-106569323D01*
X195064836Y-106783609D02*
X195064836Y-106283609D01*
X195064836Y-106283609D02*
X195350550Y-106783609D01*
X195350550Y-106783609D02*
X195350550Y-106283609D01*
X195588646Y-106783609D02*
X195588646Y-106283609D01*
X195588646Y-106283609D02*
X195707694Y-106283609D01*
X195707694Y-106283609D02*
X195779122Y-106307419D01*
X195779122Y-106307419D02*
X195826741Y-106355038D01*
X195826741Y-106355038D02*
X195850551Y-106402657D01*
X195850551Y-106402657D02*
X195874360Y-106497895D01*
X195874360Y-106497895D02*
X195874360Y-106569323D01*
X195874360Y-106569323D02*
X195850551Y-106664561D01*
X195850551Y-106664561D02*
X195826741Y-106712180D01*
X195826741Y-106712180D02*
X195779122Y-106759800D01*
X195779122Y-106759800D02*
X195707694Y-106783609D01*
X195707694Y-106783609D02*
X195588646Y-106783609D01*
X138876741Y-77337419D02*
X138829122Y-77313609D01*
X138829122Y-77313609D02*
X138757693Y-77313609D01*
X138757693Y-77313609D02*
X138686265Y-77337419D01*
X138686265Y-77337419D02*
X138638646Y-77385038D01*
X138638646Y-77385038D02*
X138614836Y-77432657D01*
X138614836Y-77432657D02*
X138591027Y-77527895D01*
X138591027Y-77527895D02*
X138591027Y-77599323D01*
X138591027Y-77599323D02*
X138614836Y-77694561D01*
X138614836Y-77694561D02*
X138638646Y-77742180D01*
X138638646Y-77742180D02*
X138686265Y-77789800D01*
X138686265Y-77789800D02*
X138757693Y-77813609D01*
X138757693Y-77813609D02*
X138805312Y-77813609D01*
X138805312Y-77813609D02*
X138876741Y-77789800D01*
X138876741Y-77789800D02*
X138900550Y-77765990D01*
X138900550Y-77765990D02*
X138900550Y-77599323D01*
X138900550Y-77599323D02*
X138805312Y-77599323D01*
X139114836Y-77813609D02*
X139114836Y-77313609D01*
X139114836Y-77313609D02*
X139400550Y-77813609D01*
X139400550Y-77813609D02*
X139400550Y-77313609D01*
X139638646Y-77813609D02*
X139638646Y-77313609D01*
X139638646Y-77313609D02*
X139757694Y-77313609D01*
X139757694Y-77313609D02*
X139829122Y-77337419D01*
X139829122Y-77337419D02*
X139876741Y-77385038D01*
X139876741Y-77385038D02*
X139900551Y-77432657D01*
X139900551Y-77432657D02*
X139924360Y-77527895D01*
X139924360Y-77527895D02*
X139924360Y-77599323D01*
X139924360Y-77599323D02*
X139900551Y-77694561D01*
X139900551Y-77694561D02*
X139876741Y-77742180D01*
X139876741Y-77742180D02*
X139829122Y-77789800D01*
X139829122Y-77789800D02*
X139757694Y-77813609D01*
X139757694Y-77813609D02*
X139638646Y-77813609D01*
X181410550Y-77775990D02*
X181386741Y-77799800D01*
X181386741Y-77799800D02*
X181315312Y-77823609D01*
X181315312Y-77823609D02*
X181267693Y-77823609D01*
X181267693Y-77823609D02*
X181196265Y-77799800D01*
X181196265Y-77799800D02*
X181148646Y-77752180D01*
X181148646Y-77752180D02*
X181124836Y-77704561D01*
X181124836Y-77704561D02*
X181101027Y-77609323D01*
X181101027Y-77609323D02*
X181101027Y-77537895D01*
X181101027Y-77537895D02*
X181124836Y-77442657D01*
X181124836Y-77442657D02*
X181148646Y-77395038D01*
X181148646Y-77395038D02*
X181196265Y-77347419D01*
X181196265Y-77347419D02*
X181267693Y-77323609D01*
X181267693Y-77323609D02*
X181315312Y-77323609D01*
X181315312Y-77323609D02*
X181386741Y-77347419D01*
X181386741Y-77347419D02*
X181410550Y-77371228D01*
X181601027Y-77799800D02*
X181672455Y-77823609D01*
X181672455Y-77823609D02*
X181791503Y-77823609D01*
X181791503Y-77823609D02*
X181839122Y-77799800D01*
X181839122Y-77799800D02*
X181862931Y-77775990D01*
X181862931Y-77775990D02*
X181886741Y-77728371D01*
X181886741Y-77728371D02*
X181886741Y-77680752D01*
X181886741Y-77680752D02*
X181862931Y-77633133D01*
X181862931Y-77633133D02*
X181839122Y-77609323D01*
X181839122Y-77609323D02*
X181791503Y-77585514D01*
X181791503Y-77585514D02*
X181696265Y-77561704D01*
X181696265Y-77561704D02*
X181648646Y-77537895D01*
X181648646Y-77537895D02*
X181624836Y-77514085D01*
X181624836Y-77514085D02*
X181601027Y-77466466D01*
X181601027Y-77466466D02*
X181601027Y-77418847D01*
X181601027Y-77418847D02*
X181624836Y-77371228D01*
X181624836Y-77371228D02*
X181648646Y-77347419D01*
X181648646Y-77347419D02*
X181696265Y-77323609D01*
X181696265Y-77323609D02*
X181815312Y-77323609D01*
X181815312Y-77323609D02*
X181886741Y-77347419D01*
X181981979Y-77871228D02*
X182362931Y-77871228D01*
X182696264Y-77490276D02*
X182696264Y-77823609D01*
X182577216Y-77299800D02*
X182458169Y-77656942D01*
X182458169Y-77656942D02*
X182767692Y-77656942D01*
X177463332Y-117386760D02*
X177939522Y-117386760D01*
X177368094Y-117672475D02*
X177701427Y-116672475D01*
X177701427Y-116672475D02*
X178034760Y-117672475D01*
X178796665Y-117672475D02*
X178796665Y-116672475D01*
X178796665Y-117624856D02*
X178701427Y-117672475D01*
X178701427Y-117672475D02*
X178510951Y-117672475D01*
X178510951Y-117672475D02*
X178415713Y-117624856D01*
X178415713Y-117624856D02*
X178368094Y-117577236D01*
X178368094Y-117577236D02*
X178320475Y-117481998D01*
X178320475Y-117481998D02*
X178320475Y-117196284D01*
X178320475Y-117196284D02*
X178368094Y-117101046D01*
X178368094Y-117101046D02*
X178415713Y-117053427D01*
X178415713Y-117053427D02*
X178510951Y-117005808D01*
X178510951Y-117005808D02*
X178701427Y-117005808D01*
X178701427Y-117005808D02*
X178796665Y-117053427D01*
X179701427Y-117672475D02*
X179701427Y-117148665D01*
X179701427Y-117148665D02*
X179653808Y-117053427D01*
X179653808Y-117053427D02*
X179558570Y-117005808D01*
X179558570Y-117005808D02*
X179368094Y-117005808D01*
X179368094Y-117005808D02*
X179272856Y-117053427D01*
X179701427Y-117624856D02*
X179606189Y-117672475D01*
X179606189Y-117672475D02*
X179368094Y-117672475D01*
X179368094Y-117672475D02*
X179272856Y-117624856D01*
X179272856Y-117624856D02*
X179225237Y-117529617D01*
X179225237Y-117529617D02*
X179225237Y-117434379D01*
X179225237Y-117434379D02*
X179272856Y-117339141D01*
X179272856Y-117339141D02*
X179368094Y-117291522D01*
X179368094Y-117291522D02*
X179606189Y-117291522D01*
X179606189Y-117291522D02*
X179701427Y-117243903D01*
X180034761Y-117005808D02*
X180415713Y-117005808D01*
X180177618Y-117672475D02*
X180177618Y-116815332D01*
X180177618Y-116815332D02*
X180225237Y-116720094D01*
X180225237Y-116720094D02*
X180320475Y-116672475D01*
X180320475Y-116672475D02*
X180415713Y-116672475D01*
X180749047Y-117672475D02*
X180749047Y-117005808D01*
X180749047Y-117196284D02*
X180796666Y-117101046D01*
X180796666Y-117101046D02*
X180844285Y-117053427D01*
X180844285Y-117053427D02*
X180939523Y-117005808D01*
X180939523Y-117005808D02*
X181034761Y-117005808D01*
X181796666Y-117005808D02*
X181796666Y-117672475D01*
X181368095Y-117005808D02*
X181368095Y-117529617D01*
X181368095Y-117529617D02*
X181415714Y-117624856D01*
X181415714Y-117624856D02*
X181510952Y-117672475D01*
X181510952Y-117672475D02*
X181653809Y-117672475D01*
X181653809Y-117672475D02*
X181749047Y-117624856D01*
X181749047Y-117624856D02*
X181796666Y-117577236D01*
X182272857Y-117672475D02*
X182272857Y-117005808D01*
X182272857Y-116672475D02*
X182225238Y-116720094D01*
X182225238Y-116720094D02*
X182272857Y-116767713D01*
X182272857Y-116767713D02*
X182320476Y-116720094D01*
X182320476Y-116720094D02*
X182272857Y-116672475D01*
X182272857Y-116672475D02*
X182272857Y-116767713D01*
X182606190Y-117005808D02*
X182987142Y-117005808D01*
X182749047Y-116672475D02*
X182749047Y-117529617D01*
X182749047Y-117529617D02*
X182796666Y-117624856D01*
X182796666Y-117624856D02*
X182891904Y-117672475D01*
X182891904Y-117672475D02*
X182987142Y-117672475D01*
X184415714Y-117148665D02*
X184082381Y-117148665D01*
X184082381Y-117672475D02*
X184082381Y-116672475D01*
X184082381Y-116672475D02*
X184558571Y-116672475D01*
X185320476Y-117624856D02*
X185225238Y-117672475D01*
X185225238Y-117672475D02*
X185034762Y-117672475D01*
X185034762Y-117672475D02*
X184939524Y-117624856D01*
X184939524Y-117624856D02*
X184891905Y-117529617D01*
X184891905Y-117529617D02*
X184891905Y-117148665D01*
X184891905Y-117148665D02*
X184939524Y-117053427D01*
X184939524Y-117053427D02*
X185034762Y-117005808D01*
X185034762Y-117005808D02*
X185225238Y-117005808D01*
X185225238Y-117005808D02*
X185320476Y-117053427D01*
X185320476Y-117053427D02*
X185368095Y-117148665D01*
X185368095Y-117148665D02*
X185368095Y-117243903D01*
X185368095Y-117243903D02*
X184891905Y-117339141D01*
X186225238Y-117672475D02*
X186225238Y-117148665D01*
X186225238Y-117148665D02*
X186177619Y-117053427D01*
X186177619Y-117053427D02*
X186082381Y-117005808D01*
X186082381Y-117005808D02*
X185891905Y-117005808D01*
X185891905Y-117005808D02*
X185796667Y-117053427D01*
X186225238Y-117624856D02*
X186130000Y-117672475D01*
X186130000Y-117672475D02*
X185891905Y-117672475D01*
X185891905Y-117672475D02*
X185796667Y-117624856D01*
X185796667Y-117624856D02*
X185749048Y-117529617D01*
X185749048Y-117529617D02*
X185749048Y-117434379D01*
X185749048Y-117434379D02*
X185796667Y-117339141D01*
X185796667Y-117339141D02*
X185891905Y-117291522D01*
X185891905Y-117291522D02*
X186130000Y-117291522D01*
X186130000Y-117291522D02*
X186225238Y-117243903D01*
X186558572Y-117005808D02*
X186939524Y-117005808D01*
X186701429Y-116672475D02*
X186701429Y-117529617D01*
X186701429Y-117529617D02*
X186749048Y-117624856D01*
X186749048Y-117624856D02*
X186844286Y-117672475D01*
X186844286Y-117672475D02*
X186939524Y-117672475D01*
X187272858Y-117672475D02*
X187272858Y-116672475D01*
X187701429Y-117672475D02*
X187701429Y-117148665D01*
X187701429Y-117148665D02*
X187653810Y-117053427D01*
X187653810Y-117053427D02*
X187558572Y-117005808D01*
X187558572Y-117005808D02*
X187415715Y-117005808D01*
X187415715Y-117005808D02*
X187320477Y-117053427D01*
X187320477Y-117053427D02*
X187272858Y-117101046D01*
X188558572Y-117624856D02*
X188463334Y-117672475D01*
X188463334Y-117672475D02*
X188272858Y-117672475D01*
X188272858Y-117672475D02*
X188177620Y-117624856D01*
X188177620Y-117624856D02*
X188130001Y-117529617D01*
X188130001Y-117529617D02*
X188130001Y-117148665D01*
X188130001Y-117148665D02*
X188177620Y-117053427D01*
X188177620Y-117053427D02*
X188272858Y-117005808D01*
X188272858Y-117005808D02*
X188463334Y-117005808D01*
X188463334Y-117005808D02*
X188558572Y-117053427D01*
X188558572Y-117053427D02*
X188606191Y-117148665D01*
X188606191Y-117148665D02*
X188606191Y-117243903D01*
X188606191Y-117243903D02*
X188130001Y-117339141D01*
X189034763Y-117672475D02*
X189034763Y-117005808D01*
X189034763Y-117196284D02*
X189082382Y-117101046D01*
X189082382Y-117101046D02*
X189130001Y-117053427D01*
X189130001Y-117053427D02*
X189225239Y-117005808D01*
X189225239Y-117005808D02*
X189320477Y-117005808D01*
X190272859Y-116672475D02*
X190606192Y-117672475D01*
X190606192Y-117672475D02*
X190939525Y-116672475D01*
X191225240Y-116767713D02*
X191272859Y-116720094D01*
X191272859Y-116720094D02*
X191368097Y-116672475D01*
X191368097Y-116672475D02*
X191606192Y-116672475D01*
X191606192Y-116672475D02*
X191701430Y-116720094D01*
X191701430Y-116720094D02*
X191749049Y-116767713D01*
X191749049Y-116767713D02*
X191796668Y-116862951D01*
X191796668Y-116862951D02*
X191796668Y-116958189D01*
X191796668Y-116958189D02*
X191749049Y-117101046D01*
X191749049Y-117101046D02*
X191177621Y-117672475D01*
X191177621Y-117672475D02*
X191796668Y-117672475D01*
X182106190Y-118758609D02*
X182439523Y-118758609D01*
X182582380Y-119282419D02*
X182106190Y-119282419D01*
X182106190Y-119282419D02*
X182106190Y-118282419D01*
X182106190Y-118282419D02*
X182582380Y-118282419D01*
X182963333Y-119234800D02*
X183106190Y-119282419D01*
X183106190Y-119282419D02*
X183344285Y-119282419D01*
X183344285Y-119282419D02*
X183439523Y-119234800D01*
X183439523Y-119234800D02*
X183487142Y-119187180D01*
X183487142Y-119187180D02*
X183534761Y-119091942D01*
X183534761Y-119091942D02*
X183534761Y-118996704D01*
X183534761Y-118996704D02*
X183487142Y-118901466D01*
X183487142Y-118901466D02*
X183439523Y-118853847D01*
X183439523Y-118853847D02*
X183344285Y-118806228D01*
X183344285Y-118806228D02*
X183153809Y-118758609D01*
X183153809Y-118758609D02*
X183058571Y-118710990D01*
X183058571Y-118710990D02*
X183010952Y-118663371D01*
X183010952Y-118663371D02*
X182963333Y-118568133D01*
X182963333Y-118568133D02*
X182963333Y-118472895D01*
X182963333Y-118472895D02*
X183010952Y-118377657D01*
X183010952Y-118377657D02*
X183058571Y-118330038D01*
X183058571Y-118330038D02*
X183153809Y-118282419D01*
X183153809Y-118282419D02*
X183391904Y-118282419D01*
X183391904Y-118282419D02*
X183534761Y-118330038D01*
X183963333Y-119282419D02*
X183963333Y-118282419D01*
X183963333Y-118282419D02*
X184344285Y-118282419D01*
X184344285Y-118282419D02*
X184439523Y-118330038D01*
X184439523Y-118330038D02*
X184487142Y-118377657D01*
X184487142Y-118377657D02*
X184534761Y-118472895D01*
X184534761Y-118472895D02*
X184534761Y-118615752D01*
X184534761Y-118615752D02*
X184487142Y-118710990D01*
X184487142Y-118710990D02*
X184439523Y-118758609D01*
X184439523Y-118758609D02*
X184344285Y-118806228D01*
X184344285Y-118806228D02*
X183963333Y-118806228D01*
X184868095Y-118282419D02*
X185487142Y-118282419D01*
X185487142Y-118282419D02*
X185153809Y-118663371D01*
X185153809Y-118663371D02*
X185296666Y-118663371D01*
X185296666Y-118663371D02*
X185391904Y-118710990D01*
X185391904Y-118710990D02*
X185439523Y-118758609D01*
X185439523Y-118758609D02*
X185487142Y-118853847D01*
X185487142Y-118853847D02*
X185487142Y-119091942D01*
X185487142Y-119091942D02*
X185439523Y-119187180D01*
X185439523Y-119187180D02*
X185391904Y-119234800D01*
X185391904Y-119234800D02*
X185296666Y-119282419D01*
X185296666Y-119282419D02*
X185010952Y-119282419D01*
X185010952Y-119282419D02*
X184915714Y-119234800D01*
X184915714Y-119234800D02*
X184868095Y-119187180D01*
X185868095Y-118377657D02*
X185915714Y-118330038D01*
X185915714Y-118330038D02*
X186010952Y-118282419D01*
X186010952Y-118282419D02*
X186249047Y-118282419D01*
X186249047Y-118282419D02*
X186344285Y-118330038D01*
X186344285Y-118330038D02*
X186391904Y-118377657D01*
X186391904Y-118377657D02*
X186439523Y-118472895D01*
X186439523Y-118472895D02*
X186439523Y-118568133D01*
X186439523Y-118568133D02*
X186391904Y-118710990D01*
X186391904Y-118710990D02*
X185820476Y-119282419D01*
X185820476Y-119282419D02*
X186439523Y-119282419D01*
X187016390Y-86584836D02*
X187516390Y-86584836D01*
X187516390Y-86584836D02*
X187159247Y-86751503D01*
X187159247Y-86751503D02*
X187516390Y-86918169D01*
X187516390Y-86918169D02*
X187016390Y-86918169D01*
X187016390Y-87156265D02*
X187516390Y-87156265D01*
X187040200Y-87370551D02*
X187016390Y-87441979D01*
X187016390Y-87441979D02*
X187016390Y-87561027D01*
X187016390Y-87561027D02*
X187040200Y-87608646D01*
X187040200Y-87608646D02*
X187064009Y-87632455D01*
X187064009Y-87632455D02*
X187111628Y-87656265D01*
X187111628Y-87656265D02*
X187159247Y-87656265D01*
X187159247Y-87656265D02*
X187206866Y-87632455D01*
X187206866Y-87632455D02*
X187230676Y-87608646D01*
X187230676Y-87608646D02*
X187254485Y-87561027D01*
X187254485Y-87561027D02*
X187278295Y-87465789D01*
X187278295Y-87465789D02*
X187302104Y-87418170D01*
X187302104Y-87418170D02*
X187325914Y-87394360D01*
X187325914Y-87394360D02*
X187373533Y-87370551D01*
X187373533Y-87370551D02*
X187421152Y-87370551D01*
X187421152Y-87370551D02*
X187468771Y-87394360D01*
X187468771Y-87394360D02*
X187492580Y-87418170D01*
X187492580Y-87418170D02*
X187516390Y-87465789D01*
X187516390Y-87465789D02*
X187516390Y-87584836D01*
X187516390Y-87584836D02*
X187492580Y-87656265D01*
X187516390Y-87965788D02*
X187516390Y-88061026D01*
X187516390Y-88061026D02*
X187492580Y-88108645D01*
X187492580Y-88108645D02*
X187444961Y-88156264D01*
X187444961Y-88156264D02*
X187349723Y-88180074D01*
X187349723Y-88180074D02*
X187183057Y-88180074D01*
X187183057Y-88180074D02*
X187087819Y-88156264D01*
X187087819Y-88156264D02*
X187040200Y-88108645D01*
X187040200Y-88108645D02*
X187016390Y-88061026D01*
X187016390Y-88061026D02*
X187016390Y-87965788D01*
X187016390Y-87965788D02*
X187040200Y-87918169D01*
X187040200Y-87918169D02*
X187087819Y-87870550D01*
X187087819Y-87870550D02*
X187183057Y-87846741D01*
X187183057Y-87846741D02*
X187349723Y-87846741D01*
X187349723Y-87846741D02*
X187444961Y-87870550D01*
X187444961Y-87870550D02*
X187492580Y-87918169D01*
X187492580Y-87918169D02*
X187516390Y-87965788D01*
X151507217Y-83543609D02*
X151816741Y-83543609D01*
X151816741Y-83543609D02*
X151650074Y-83734085D01*
X151650074Y-83734085D02*
X151721503Y-83734085D01*
X151721503Y-83734085D02*
X151769122Y-83757895D01*
X151769122Y-83757895D02*
X151792931Y-83781704D01*
X151792931Y-83781704D02*
X151816741Y-83829323D01*
X151816741Y-83829323D02*
X151816741Y-83948371D01*
X151816741Y-83948371D02*
X151792931Y-83995990D01*
X151792931Y-83995990D02*
X151769122Y-84019800D01*
X151769122Y-84019800D02*
X151721503Y-84043609D01*
X151721503Y-84043609D02*
X151578646Y-84043609D01*
X151578646Y-84043609D02*
X151531027Y-84019800D01*
X151531027Y-84019800D02*
X151507217Y-83995990D01*
X151959598Y-83543609D02*
X152126264Y-84043609D01*
X152126264Y-84043609D02*
X152292931Y-83543609D01*
X168855550Y-77725990D02*
X168831741Y-77749800D01*
X168831741Y-77749800D02*
X168760312Y-77773609D01*
X168760312Y-77773609D02*
X168712693Y-77773609D01*
X168712693Y-77773609D02*
X168641265Y-77749800D01*
X168641265Y-77749800D02*
X168593646Y-77702180D01*
X168593646Y-77702180D02*
X168569836Y-77654561D01*
X168569836Y-77654561D02*
X168546027Y-77559323D01*
X168546027Y-77559323D02*
X168546027Y-77487895D01*
X168546027Y-77487895D02*
X168569836Y-77392657D01*
X168569836Y-77392657D02*
X168593646Y-77345038D01*
X168593646Y-77345038D02*
X168641265Y-77297419D01*
X168641265Y-77297419D02*
X168712693Y-77273609D01*
X168712693Y-77273609D02*
X168760312Y-77273609D01*
X168760312Y-77273609D02*
X168831741Y-77297419D01*
X168831741Y-77297419D02*
X168855550Y-77321228D01*
X169046027Y-77749800D02*
X169117455Y-77773609D01*
X169117455Y-77773609D02*
X169236503Y-77773609D01*
X169236503Y-77773609D02*
X169284122Y-77749800D01*
X169284122Y-77749800D02*
X169307931Y-77725990D01*
X169307931Y-77725990D02*
X169331741Y-77678371D01*
X169331741Y-77678371D02*
X169331741Y-77630752D01*
X169331741Y-77630752D02*
X169307931Y-77583133D01*
X169307931Y-77583133D02*
X169284122Y-77559323D01*
X169284122Y-77559323D02*
X169236503Y-77535514D01*
X169236503Y-77535514D02*
X169141265Y-77511704D01*
X169141265Y-77511704D02*
X169093646Y-77487895D01*
X169093646Y-77487895D02*
X169069836Y-77464085D01*
X169069836Y-77464085D02*
X169046027Y-77416466D01*
X169046027Y-77416466D02*
X169046027Y-77368847D01*
X169046027Y-77368847D02*
X169069836Y-77321228D01*
X169069836Y-77321228D02*
X169093646Y-77297419D01*
X169093646Y-77297419D02*
X169141265Y-77273609D01*
X169141265Y-77273609D02*
X169260312Y-77273609D01*
X169260312Y-77273609D02*
X169331741Y-77297419D01*
X169426979Y-77821228D02*
X169807931Y-77821228D01*
X169879359Y-77273609D02*
X170188883Y-77273609D01*
X170188883Y-77273609D02*
X170022216Y-77464085D01*
X170022216Y-77464085D02*
X170093645Y-77464085D01*
X170093645Y-77464085D02*
X170141264Y-77487895D01*
X170141264Y-77487895D02*
X170165073Y-77511704D01*
X170165073Y-77511704D02*
X170188883Y-77559323D01*
X170188883Y-77559323D02*
X170188883Y-77678371D01*
X170188883Y-77678371D02*
X170165073Y-77725990D01*
X170165073Y-77725990D02*
X170141264Y-77749800D01*
X170141264Y-77749800D02*
X170093645Y-77773609D01*
X170093645Y-77773609D02*
X169950788Y-77773609D01*
X169950788Y-77773609D02*
X169903169Y-77749800D01*
X169903169Y-77749800D02*
X169879359Y-77725990D01*
X176477217Y-83593609D02*
X176786741Y-83593609D01*
X176786741Y-83593609D02*
X176620074Y-83784085D01*
X176620074Y-83784085D02*
X176691503Y-83784085D01*
X176691503Y-83784085D02*
X176739122Y-83807895D01*
X176739122Y-83807895D02*
X176762931Y-83831704D01*
X176762931Y-83831704D02*
X176786741Y-83879323D01*
X176786741Y-83879323D02*
X176786741Y-83998371D01*
X176786741Y-83998371D02*
X176762931Y-84045990D01*
X176762931Y-84045990D02*
X176739122Y-84069800D01*
X176739122Y-84069800D02*
X176691503Y-84093609D01*
X176691503Y-84093609D02*
X176548646Y-84093609D01*
X176548646Y-84093609D02*
X176501027Y-84069800D01*
X176501027Y-84069800D02*
X176477217Y-84045990D01*
X176929598Y-83593609D02*
X177096264Y-84093609D01*
X177096264Y-84093609D02*
X177262931Y-83593609D01*
X156144836Y-84043609D02*
X156144836Y-83543609D01*
X156144836Y-83543609D02*
X156311503Y-83900752D01*
X156311503Y-83900752D02*
X156478169Y-83543609D01*
X156478169Y-83543609D02*
X156478169Y-84043609D01*
X156811503Y-83543609D02*
X156906741Y-83543609D01*
X156906741Y-83543609D02*
X156954360Y-83567419D01*
X156954360Y-83567419D02*
X157001979Y-83615038D01*
X157001979Y-83615038D02*
X157025789Y-83710276D01*
X157025789Y-83710276D02*
X157025789Y-83876942D01*
X157025789Y-83876942D02*
X157001979Y-83972180D01*
X157001979Y-83972180D02*
X156954360Y-84019800D01*
X156954360Y-84019800D02*
X156906741Y-84043609D01*
X156906741Y-84043609D02*
X156811503Y-84043609D01*
X156811503Y-84043609D02*
X156763884Y-84019800D01*
X156763884Y-84019800D02*
X156716265Y-83972180D01*
X156716265Y-83972180D02*
X156692456Y-83876942D01*
X156692456Y-83876942D02*
X156692456Y-83710276D01*
X156692456Y-83710276D02*
X156716265Y-83615038D01*
X156716265Y-83615038D02*
X156763884Y-83567419D01*
X156763884Y-83567419D02*
X156811503Y-83543609D01*
X157216266Y-84019800D02*
X157287694Y-84043609D01*
X157287694Y-84043609D02*
X157406742Y-84043609D01*
X157406742Y-84043609D02*
X157454361Y-84019800D01*
X157454361Y-84019800D02*
X157478170Y-83995990D01*
X157478170Y-83995990D02*
X157501980Y-83948371D01*
X157501980Y-83948371D02*
X157501980Y-83900752D01*
X157501980Y-83900752D02*
X157478170Y-83853133D01*
X157478170Y-83853133D02*
X157454361Y-83829323D01*
X157454361Y-83829323D02*
X157406742Y-83805514D01*
X157406742Y-83805514D02*
X157311504Y-83781704D01*
X157311504Y-83781704D02*
X157263885Y-83757895D01*
X157263885Y-83757895D02*
X157240075Y-83734085D01*
X157240075Y-83734085D02*
X157216266Y-83686466D01*
X157216266Y-83686466D02*
X157216266Y-83638847D01*
X157216266Y-83638847D02*
X157240075Y-83591228D01*
X157240075Y-83591228D02*
X157263885Y-83567419D01*
X157263885Y-83567419D02*
X157311504Y-83543609D01*
X157311504Y-83543609D02*
X157430551Y-83543609D01*
X157430551Y-83543609D02*
X157501980Y-83567419D01*
X157716265Y-84043609D02*
X157716265Y-83543609D01*
X171830550Y-130815990D02*
X171806741Y-130839800D01*
X171806741Y-130839800D02*
X171735312Y-130863609D01*
X171735312Y-130863609D02*
X171687693Y-130863609D01*
X171687693Y-130863609D02*
X171616265Y-130839800D01*
X171616265Y-130839800D02*
X171568646Y-130792180D01*
X171568646Y-130792180D02*
X171544836Y-130744561D01*
X171544836Y-130744561D02*
X171521027Y-130649323D01*
X171521027Y-130649323D02*
X171521027Y-130577895D01*
X171521027Y-130577895D02*
X171544836Y-130482657D01*
X171544836Y-130482657D02*
X171568646Y-130435038D01*
X171568646Y-130435038D02*
X171616265Y-130387419D01*
X171616265Y-130387419D02*
X171687693Y-130363609D01*
X171687693Y-130363609D02*
X171735312Y-130363609D01*
X171735312Y-130363609D02*
X171806741Y-130387419D01*
X171806741Y-130387419D02*
X171830550Y-130411228D01*
X172021027Y-130839800D02*
X172092455Y-130863609D01*
X172092455Y-130863609D02*
X172211503Y-130863609D01*
X172211503Y-130863609D02*
X172259122Y-130839800D01*
X172259122Y-130839800D02*
X172282931Y-130815990D01*
X172282931Y-130815990D02*
X172306741Y-130768371D01*
X172306741Y-130768371D02*
X172306741Y-130720752D01*
X172306741Y-130720752D02*
X172282931Y-130673133D01*
X172282931Y-130673133D02*
X172259122Y-130649323D01*
X172259122Y-130649323D02*
X172211503Y-130625514D01*
X172211503Y-130625514D02*
X172116265Y-130601704D01*
X172116265Y-130601704D02*
X172068646Y-130577895D01*
X172068646Y-130577895D02*
X172044836Y-130554085D01*
X172044836Y-130554085D02*
X172021027Y-130506466D01*
X172021027Y-130506466D02*
X172021027Y-130458847D01*
X172021027Y-130458847D02*
X172044836Y-130411228D01*
X172044836Y-130411228D02*
X172068646Y-130387419D01*
X172068646Y-130387419D02*
X172116265Y-130363609D01*
X172116265Y-130363609D02*
X172235312Y-130363609D01*
X172235312Y-130363609D02*
X172306741Y-130387419D01*
X172401979Y-130911228D02*
X172782931Y-130911228D01*
X173116264Y-130530276D02*
X173116264Y-130863609D01*
X172997216Y-130339800D02*
X172878169Y-130696942D01*
X172878169Y-130696942D02*
X173187692Y-130696942D01*
X168669836Y-84093609D02*
X168669836Y-83593609D01*
X168669836Y-83593609D02*
X168836503Y-83950752D01*
X168836503Y-83950752D02*
X169003169Y-83593609D01*
X169003169Y-83593609D02*
X169003169Y-84093609D01*
X169336503Y-83593609D02*
X169431741Y-83593609D01*
X169431741Y-83593609D02*
X169479360Y-83617419D01*
X169479360Y-83617419D02*
X169526979Y-83665038D01*
X169526979Y-83665038D02*
X169550789Y-83760276D01*
X169550789Y-83760276D02*
X169550789Y-83926942D01*
X169550789Y-83926942D02*
X169526979Y-84022180D01*
X169526979Y-84022180D02*
X169479360Y-84069800D01*
X169479360Y-84069800D02*
X169431741Y-84093609D01*
X169431741Y-84093609D02*
X169336503Y-84093609D01*
X169336503Y-84093609D02*
X169288884Y-84069800D01*
X169288884Y-84069800D02*
X169241265Y-84022180D01*
X169241265Y-84022180D02*
X169217456Y-83926942D01*
X169217456Y-83926942D02*
X169217456Y-83760276D01*
X169217456Y-83760276D02*
X169241265Y-83665038D01*
X169241265Y-83665038D02*
X169288884Y-83617419D01*
X169288884Y-83617419D02*
X169336503Y-83593609D01*
X169741266Y-84069800D02*
X169812694Y-84093609D01*
X169812694Y-84093609D02*
X169931742Y-84093609D01*
X169931742Y-84093609D02*
X169979361Y-84069800D01*
X169979361Y-84069800D02*
X170003170Y-84045990D01*
X170003170Y-84045990D02*
X170026980Y-83998371D01*
X170026980Y-83998371D02*
X170026980Y-83950752D01*
X170026980Y-83950752D02*
X170003170Y-83903133D01*
X170003170Y-83903133D02*
X169979361Y-83879323D01*
X169979361Y-83879323D02*
X169931742Y-83855514D01*
X169931742Y-83855514D02*
X169836504Y-83831704D01*
X169836504Y-83831704D02*
X169788885Y-83807895D01*
X169788885Y-83807895D02*
X169765075Y-83784085D01*
X169765075Y-83784085D02*
X169741266Y-83736466D01*
X169741266Y-83736466D02*
X169741266Y-83688847D01*
X169741266Y-83688847D02*
X169765075Y-83641228D01*
X169765075Y-83641228D02*
X169788885Y-83617419D01*
X169788885Y-83617419D02*
X169836504Y-83593609D01*
X169836504Y-83593609D02*
X169955551Y-83593609D01*
X169955551Y-83593609D02*
X170026980Y-83617419D01*
X170241265Y-84093609D02*
X170241265Y-83593609D01*
X202430550Y-106783609D02*
X202263884Y-106545514D01*
X202144836Y-106783609D02*
X202144836Y-106283609D01*
X202144836Y-106283609D02*
X202335312Y-106283609D01*
X202335312Y-106283609D02*
X202382931Y-106307419D01*
X202382931Y-106307419D02*
X202406741Y-106331228D01*
X202406741Y-106331228D02*
X202430550Y-106378847D01*
X202430550Y-106378847D02*
X202430550Y-106450276D01*
X202430550Y-106450276D02*
X202406741Y-106497895D01*
X202406741Y-106497895D02*
X202382931Y-106521704D01*
X202382931Y-106521704D02*
X202335312Y-106545514D01*
X202335312Y-106545514D02*
X202144836Y-106545514D01*
X202621027Y-106759800D02*
X202692455Y-106783609D01*
X202692455Y-106783609D02*
X202811503Y-106783609D01*
X202811503Y-106783609D02*
X202859122Y-106759800D01*
X202859122Y-106759800D02*
X202882931Y-106735990D01*
X202882931Y-106735990D02*
X202906741Y-106688371D01*
X202906741Y-106688371D02*
X202906741Y-106640752D01*
X202906741Y-106640752D02*
X202882931Y-106593133D01*
X202882931Y-106593133D02*
X202859122Y-106569323D01*
X202859122Y-106569323D02*
X202811503Y-106545514D01*
X202811503Y-106545514D02*
X202716265Y-106521704D01*
X202716265Y-106521704D02*
X202668646Y-106497895D01*
X202668646Y-106497895D02*
X202644836Y-106474085D01*
X202644836Y-106474085D02*
X202621027Y-106426466D01*
X202621027Y-106426466D02*
X202621027Y-106378847D01*
X202621027Y-106378847D02*
X202644836Y-106331228D01*
X202644836Y-106331228D02*
X202668646Y-106307419D01*
X202668646Y-106307419D02*
X202716265Y-106283609D01*
X202716265Y-106283609D02*
X202835312Y-106283609D01*
X202835312Y-106283609D02*
X202906741Y-106307419D01*
X203049598Y-106283609D02*
X203335312Y-106283609D01*
X203192455Y-106783609D02*
X203192455Y-106283609D01*
X143860550Y-77765990D02*
X143836741Y-77789800D01*
X143836741Y-77789800D02*
X143765312Y-77813609D01*
X143765312Y-77813609D02*
X143717693Y-77813609D01*
X143717693Y-77813609D02*
X143646265Y-77789800D01*
X143646265Y-77789800D02*
X143598646Y-77742180D01*
X143598646Y-77742180D02*
X143574836Y-77694561D01*
X143574836Y-77694561D02*
X143551027Y-77599323D01*
X143551027Y-77599323D02*
X143551027Y-77527895D01*
X143551027Y-77527895D02*
X143574836Y-77432657D01*
X143574836Y-77432657D02*
X143598646Y-77385038D01*
X143598646Y-77385038D02*
X143646265Y-77337419D01*
X143646265Y-77337419D02*
X143717693Y-77313609D01*
X143717693Y-77313609D02*
X143765312Y-77313609D01*
X143765312Y-77313609D02*
X143836741Y-77337419D01*
X143836741Y-77337419D02*
X143860550Y-77361228D01*
X144051027Y-77789800D02*
X144122455Y-77813609D01*
X144122455Y-77813609D02*
X144241503Y-77813609D01*
X144241503Y-77813609D02*
X144289122Y-77789800D01*
X144289122Y-77789800D02*
X144312931Y-77765990D01*
X144312931Y-77765990D02*
X144336741Y-77718371D01*
X144336741Y-77718371D02*
X144336741Y-77670752D01*
X144336741Y-77670752D02*
X144312931Y-77623133D01*
X144312931Y-77623133D02*
X144289122Y-77599323D01*
X144289122Y-77599323D02*
X144241503Y-77575514D01*
X144241503Y-77575514D02*
X144146265Y-77551704D01*
X144146265Y-77551704D02*
X144098646Y-77527895D01*
X144098646Y-77527895D02*
X144074836Y-77504085D01*
X144074836Y-77504085D02*
X144051027Y-77456466D01*
X144051027Y-77456466D02*
X144051027Y-77408847D01*
X144051027Y-77408847D02*
X144074836Y-77361228D01*
X144074836Y-77361228D02*
X144098646Y-77337419D01*
X144098646Y-77337419D02*
X144146265Y-77313609D01*
X144146265Y-77313609D02*
X144265312Y-77313609D01*
X144265312Y-77313609D02*
X144336741Y-77337419D01*
X144431979Y-77861228D02*
X144812931Y-77861228D01*
X145193883Y-77813609D02*
X144908169Y-77813609D01*
X145051026Y-77813609D02*
X145051026Y-77313609D01*
X145051026Y-77313609D02*
X145003407Y-77385038D01*
X145003407Y-77385038D02*
X144955788Y-77432657D01*
X144955788Y-77432657D02*
X144908169Y-77456466D01*
X163981741Y-77297419D02*
X163934122Y-77273609D01*
X163934122Y-77273609D02*
X163862693Y-77273609D01*
X163862693Y-77273609D02*
X163791265Y-77297419D01*
X163791265Y-77297419D02*
X163743646Y-77345038D01*
X163743646Y-77345038D02*
X163719836Y-77392657D01*
X163719836Y-77392657D02*
X163696027Y-77487895D01*
X163696027Y-77487895D02*
X163696027Y-77559323D01*
X163696027Y-77559323D02*
X163719836Y-77654561D01*
X163719836Y-77654561D02*
X163743646Y-77702180D01*
X163743646Y-77702180D02*
X163791265Y-77749800D01*
X163791265Y-77749800D02*
X163862693Y-77773609D01*
X163862693Y-77773609D02*
X163910312Y-77773609D01*
X163910312Y-77773609D02*
X163981741Y-77749800D01*
X163981741Y-77749800D02*
X164005550Y-77725990D01*
X164005550Y-77725990D02*
X164005550Y-77559323D01*
X164005550Y-77559323D02*
X163910312Y-77559323D01*
X164219836Y-77773609D02*
X164219836Y-77273609D01*
X164219836Y-77273609D02*
X164505550Y-77773609D01*
X164505550Y-77773609D02*
X164505550Y-77273609D01*
X164743646Y-77773609D02*
X164743646Y-77273609D01*
X164743646Y-77273609D02*
X164862694Y-77273609D01*
X164862694Y-77273609D02*
X164934122Y-77297419D01*
X164934122Y-77297419D02*
X164981741Y-77345038D01*
X164981741Y-77345038D02*
X165005551Y-77392657D01*
X165005551Y-77392657D02*
X165029360Y-77487895D01*
X165029360Y-77487895D02*
X165029360Y-77559323D01*
X165029360Y-77559323D02*
X165005551Y-77654561D01*
X165005551Y-77654561D02*
X164981741Y-77702180D01*
X164981741Y-77702180D02*
X164934122Y-77749800D01*
X164934122Y-77749800D02*
X164862694Y-77773609D01*
X164862694Y-77773609D02*
X164743646Y-77773609D01*
X187064009Y-91850550D02*
X187040200Y-91826741D01*
X187040200Y-91826741D02*
X187016390Y-91755312D01*
X187016390Y-91755312D02*
X187016390Y-91707693D01*
X187016390Y-91707693D02*
X187040200Y-91636265D01*
X187040200Y-91636265D02*
X187087819Y-91588646D01*
X187087819Y-91588646D02*
X187135438Y-91564836D01*
X187135438Y-91564836D02*
X187230676Y-91541027D01*
X187230676Y-91541027D02*
X187302104Y-91541027D01*
X187302104Y-91541027D02*
X187397342Y-91564836D01*
X187397342Y-91564836D02*
X187444961Y-91588646D01*
X187444961Y-91588646D02*
X187492580Y-91636265D01*
X187492580Y-91636265D02*
X187516390Y-91707693D01*
X187516390Y-91707693D02*
X187516390Y-91755312D01*
X187516390Y-91755312D02*
X187492580Y-91826741D01*
X187492580Y-91826741D02*
X187468771Y-91850550D01*
X187040200Y-92041027D02*
X187016390Y-92112455D01*
X187016390Y-92112455D02*
X187016390Y-92231503D01*
X187016390Y-92231503D02*
X187040200Y-92279122D01*
X187040200Y-92279122D02*
X187064009Y-92302931D01*
X187064009Y-92302931D02*
X187111628Y-92326741D01*
X187111628Y-92326741D02*
X187159247Y-92326741D01*
X187159247Y-92326741D02*
X187206866Y-92302931D01*
X187206866Y-92302931D02*
X187230676Y-92279122D01*
X187230676Y-92279122D02*
X187254485Y-92231503D01*
X187254485Y-92231503D02*
X187278295Y-92136265D01*
X187278295Y-92136265D02*
X187302104Y-92088646D01*
X187302104Y-92088646D02*
X187325914Y-92064836D01*
X187325914Y-92064836D02*
X187373533Y-92041027D01*
X187373533Y-92041027D02*
X187421152Y-92041027D01*
X187421152Y-92041027D02*
X187468771Y-92064836D01*
X187468771Y-92064836D02*
X187492580Y-92088646D01*
X187492580Y-92088646D02*
X187516390Y-92136265D01*
X187516390Y-92136265D02*
X187516390Y-92255312D01*
X187516390Y-92255312D02*
X187492580Y-92326741D01*
X186968771Y-92421979D02*
X186968771Y-92802931D01*
X187040200Y-92898169D02*
X187016390Y-92969597D01*
X187016390Y-92969597D02*
X187016390Y-93088645D01*
X187016390Y-93088645D02*
X187040200Y-93136264D01*
X187040200Y-93136264D02*
X187064009Y-93160073D01*
X187064009Y-93160073D02*
X187111628Y-93183883D01*
X187111628Y-93183883D02*
X187159247Y-93183883D01*
X187159247Y-93183883D02*
X187206866Y-93160073D01*
X187206866Y-93160073D02*
X187230676Y-93136264D01*
X187230676Y-93136264D02*
X187254485Y-93088645D01*
X187254485Y-93088645D02*
X187278295Y-92993407D01*
X187278295Y-92993407D02*
X187302104Y-92945788D01*
X187302104Y-92945788D02*
X187325914Y-92921978D01*
X187325914Y-92921978D02*
X187373533Y-92898169D01*
X187373533Y-92898169D02*
X187421152Y-92898169D01*
X187421152Y-92898169D02*
X187468771Y-92921978D01*
X187468771Y-92921978D02*
X187492580Y-92945788D01*
X187492580Y-92945788D02*
X187516390Y-92993407D01*
X187516390Y-92993407D02*
X187516390Y-93112454D01*
X187516390Y-93112454D02*
X187492580Y-93183883D01*
X187016390Y-93398168D02*
X187516390Y-93398168D01*
X187516390Y-93398168D02*
X187516390Y-93517216D01*
X187516390Y-93517216D02*
X187492580Y-93588644D01*
X187492580Y-93588644D02*
X187444961Y-93636263D01*
X187444961Y-93636263D02*
X187397342Y-93660073D01*
X187397342Y-93660073D02*
X187302104Y-93683882D01*
X187302104Y-93683882D02*
X187230676Y-93683882D01*
X187230676Y-93683882D02*
X187135438Y-93660073D01*
X187135438Y-93660073D02*
X187087819Y-93636263D01*
X187087819Y-93636263D02*
X187040200Y-93588644D01*
X187040200Y-93588644D02*
X187016390Y-93517216D01*
X187016390Y-93517216D02*
X187016390Y-93398168D01*
X166266027Y-84019800D02*
X166337455Y-84043609D01*
X166337455Y-84043609D02*
X166456503Y-84043609D01*
X166456503Y-84043609D02*
X166504122Y-84019800D01*
X166504122Y-84019800D02*
X166527931Y-83995990D01*
X166527931Y-83995990D02*
X166551741Y-83948371D01*
X166551741Y-83948371D02*
X166551741Y-83900752D01*
X166551741Y-83900752D02*
X166527931Y-83853133D01*
X166527931Y-83853133D02*
X166504122Y-83829323D01*
X166504122Y-83829323D02*
X166456503Y-83805514D01*
X166456503Y-83805514D02*
X166361265Y-83781704D01*
X166361265Y-83781704D02*
X166313646Y-83757895D01*
X166313646Y-83757895D02*
X166289836Y-83734085D01*
X166289836Y-83734085D02*
X166266027Y-83686466D01*
X166266027Y-83686466D02*
X166266027Y-83638847D01*
X166266027Y-83638847D02*
X166289836Y-83591228D01*
X166289836Y-83591228D02*
X166313646Y-83567419D01*
X166313646Y-83567419D02*
X166361265Y-83543609D01*
X166361265Y-83543609D02*
X166480312Y-83543609D01*
X166480312Y-83543609D02*
X166551741Y-83567419D01*
X167051740Y-83995990D02*
X167027931Y-84019800D01*
X167027931Y-84019800D02*
X166956502Y-84043609D01*
X166956502Y-84043609D02*
X166908883Y-84043609D01*
X166908883Y-84043609D02*
X166837455Y-84019800D01*
X166837455Y-84019800D02*
X166789836Y-83972180D01*
X166789836Y-83972180D02*
X166766026Y-83924561D01*
X166766026Y-83924561D02*
X166742217Y-83829323D01*
X166742217Y-83829323D02*
X166742217Y-83757895D01*
X166742217Y-83757895D02*
X166766026Y-83662657D01*
X166766026Y-83662657D02*
X166789836Y-83615038D01*
X166789836Y-83615038D02*
X166837455Y-83567419D01*
X166837455Y-83567419D02*
X166908883Y-83543609D01*
X166908883Y-83543609D02*
X166956502Y-83543609D01*
X166956502Y-83543609D02*
X167027931Y-83567419D01*
X167027931Y-83567419D02*
X167051740Y-83591228D01*
X167266026Y-84043609D02*
X167266026Y-83543609D01*
X167551740Y-84043609D02*
X167337455Y-83757895D01*
X167551740Y-83543609D02*
X167266026Y-83829323D01*
X192320550Y-106735990D02*
X192296741Y-106759800D01*
X192296741Y-106759800D02*
X192225312Y-106783609D01*
X192225312Y-106783609D02*
X192177693Y-106783609D01*
X192177693Y-106783609D02*
X192106265Y-106759800D01*
X192106265Y-106759800D02*
X192058646Y-106712180D01*
X192058646Y-106712180D02*
X192034836Y-106664561D01*
X192034836Y-106664561D02*
X192011027Y-106569323D01*
X192011027Y-106569323D02*
X192011027Y-106497895D01*
X192011027Y-106497895D02*
X192034836Y-106402657D01*
X192034836Y-106402657D02*
X192058646Y-106355038D01*
X192058646Y-106355038D02*
X192106265Y-106307419D01*
X192106265Y-106307419D02*
X192177693Y-106283609D01*
X192177693Y-106283609D02*
X192225312Y-106283609D01*
X192225312Y-106283609D02*
X192296741Y-106307419D01*
X192296741Y-106307419D02*
X192320550Y-106331228D01*
X192511027Y-106640752D02*
X192749122Y-106640752D01*
X192463408Y-106783609D02*
X192630074Y-106283609D01*
X192630074Y-106283609D02*
X192796741Y-106783609D01*
X193201502Y-106783609D02*
X192963407Y-106783609D01*
X192963407Y-106783609D02*
X192963407Y-106283609D01*
X199827217Y-106283609D02*
X200136741Y-106283609D01*
X200136741Y-106283609D02*
X199970074Y-106474085D01*
X199970074Y-106474085D02*
X200041503Y-106474085D01*
X200041503Y-106474085D02*
X200089122Y-106497895D01*
X200089122Y-106497895D02*
X200112931Y-106521704D01*
X200112931Y-106521704D02*
X200136741Y-106569323D01*
X200136741Y-106569323D02*
X200136741Y-106688371D01*
X200136741Y-106688371D02*
X200112931Y-106735990D01*
X200112931Y-106735990D02*
X200089122Y-106759800D01*
X200089122Y-106759800D02*
X200041503Y-106783609D01*
X200041503Y-106783609D02*
X199898646Y-106783609D01*
X199898646Y-106783609D02*
X199851027Y-106759800D01*
X199851027Y-106759800D02*
X199827217Y-106735990D01*
X200279598Y-106283609D02*
X200446264Y-106783609D01*
X200446264Y-106783609D02*
X200612931Y-106283609D01*
X187516390Y-79167217D02*
X187516390Y-79476741D01*
X187516390Y-79476741D02*
X187325914Y-79310074D01*
X187325914Y-79310074D02*
X187325914Y-79381503D01*
X187325914Y-79381503D02*
X187302104Y-79429122D01*
X187302104Y-79429122D02*
X187278295Y-79452931D01*
X187278295Y-79452931D02*
X187230676Y-79476741D01*
X187230676Y-79476741D02*
X187111628Y-79476741D01*
X187111628Y-79476741D02*
X187064009Y-79452931D01*
X187064009Y-79452931D02*
X187040200Y-79429122D01*
X187040200Y-79429122D02*
X187016390Y-79381503D01*
X187016390Y-79381503D02*
X187016390Y-79238646D01*
X187016390Y-79238646D02*
X187040200Y-79191027D01*
X187040200Y-79191027D02*
X187064009Y-79167217D01*
X187516390Y-79619598D02*
X187016390Y-79786264D01*
X187016390Y-79786264D02*
X187516390Y-79952931D01*
X141054836Y-77813609D02*
X141054836Y-77313609D01*
X141054836Y-77313609D02*
X141221503Y-77670752D01*
X141221503Y-77670752D02*
X141388169Y-77313609D01*
X141388169Y-77313609D02*
X141388169Y-77813609D01*
X141626265Y-77813609D02*
X141626265Y-77313609D01*
X141840551Y-77789800D02*
X141911979Y-77813609D01*
X141911979Y-77813609D02*
X142031027Y-77813609D01*
X142031027Y-77813609D02*
X142078646Y-77789800D01*
X142078646Y-77789800D02*
X142102455Y-77765990D01*
X142102455Y-77765990D02*
X142126265Y-77718371D01*
X142126265Y-77718371D02*
X142126265Y-77670752D01*
X142126265Y-77670752D02*
X142102455Y-77623133D01*
X142102455Y-77623133D02*
X142078646Y-77599323D01*
X142078646Y-77599323D02*
X142031027Y-77575514D01*
X142031027Y-77575514D02*
X141935789Y-77551704D01*
X141935789Y-77551704D02*
X141888170Y-77527895D01*
X141888170Y-77527895D02*
X141864360Y-77504085D01*
X141864360Y-77504085D02*
X141840551Y-77456466D01*
X141840551Y-77456466D02*
X141840551Y-77408847D01*
X141840551Y-77408847D02*
X141864360Y-77361228D01*
X141864360Y-77361228D02*
X141888170Y-77337419D01*
X141888170Y-77337419D02*
X141935789Y-77313609D01*
X141935789Y-77313609D02*
X142054836Y-77313609D01*
X142054836Y-77313609D02*
X142126265Y-77337419D01*
X142435788Y-77313609D02*
X142531026Y-77313609D01*
X142531026Y-77313609D02*
X142578645Y-77337419D01*
X142578645Y-77337419D02*
X142626264Y-77385038D01*
X142626264Y-77385038D02*
X142650074Y-77480276D01*
X142650074Y-77480276D02*
X142650074Y-77646942D01*
X142650074Y-77646942D02*
X142626264Y-77742180D01*
X142626264Y-77742180D02*
X142578645Y-77789800D01*
X142578645Y-77789800D02*
X142531026Y-77813609D01*
X142531026Y-77813609D02*
X142435788Y-77813609D01*
X142435788Y-77813609D02*
X142388169Y-77789800D01*
X142388169Y-77789800D02*
X142340550Y-77742180D01*
X142340550Y-77742180D02*
X142316741Y-77646942D01*
X142316741Y-77646942D02*
X142316741Y-77480276D01*
X142316741Y-77480276D02*
X142340550Y-77385038D01*
X142340550Y-77385038D02*
X142388169Y-77337419D01*
X142388169Y-77337419D02*
X142435788Y-77313609D01*
X174330550Y-130815990D02*
X174306741Y-130839800D01*
X174306741Y-130839800D02*
X174235312Y-130863609D01*
X174235312Y-130863609D02*
X174187693Y-130863609D01*
X174187693Y-130863609D02*
X174116265Y-130839800D01*
X174116265Y-130839800D02*
X174068646Y-130792180D01*
X174068646Y-130792180D02*
X174044836Y-130744561D01*
X174044836Y-130744561D02*
X174021027Y-130649323D01*
X174021027Y-130649323D02*
X174021027Y-130577895D01*
X174021027Y-130577895D02*
X174044836Y-130482657D01*
X174044836Y-130482657D02*
X174068646Y-130435038D01*
X174068646Y-130435038D02*
X174116265Y-130387419D01*
X174116265Y-130387419D02*
X174187693Y-130363609D01*
X174187693Y-130363609D02*
X174235312Y-130363609D01*
X174235312Y-130363609D02*
X174306741Y-130387419D01*
X174306741Y-130387419D02*
X174330550Y-130411228D01*
X174521027Y-130839800D02*
X174592455Y-130863609D01*
X174592455Y-130863609D02*
X174711503Y-130863609D01*
X174711503Y-130863609D02*
X174759122Y-130839800D01*
X174759122Y-130839800D02*
X174782931Y-130815990D01*
X174782931Y-130815990D02*
X174806741Y-130768371D01*
X174806741Y-130768371D02*
X174806741Y-130720752D01*
X174806741Y-130720752D02*
X174782931Y-130673133D01*
X174782931Y-130673133D02*
X174759122Y-130649323D01*
X174759122Y-130649323D02*
X174711503Y-130625514D01*
X174711503Y-130625514D02*
X174616265Y-130601704D01*
X174616265Y-130601704D02*
X174568646Y-130577895D01*
X174568646Y-130577895D02*
X174544836Y-130554085D01*
X174544836Y-130554085D02*
X174521027Y-130506466D01*
X174521027Y-130506466D02*
X174521027Y-130458847D01*
X174521027Y-130458847D02*
X174544836Y-130411228D01*
X174544836Y-130411228D02*
X174568646Y-130387419D01*
X174568646Y-130387419D02*
X174616265Y-130363609D01*
X174616265Y-130363609D02*
X174735312Y-130363609D01*
X174735312Y-130363609D02*
X174806741Y-130387419D01*
X174901979Y-130911228D02*
X175282931Y-130911228D01*
X175354359Y-130363609D02*
X175663883Y-130363609D01*
X175663883Y-130363609D02*
X175497216Y-130554085D01*
X175497216Y-130554085D02*
X175568645Y-130554085D01*
X175568645Y-130554085D02*
X175616264Y-130577895D01*
X175616264Y-130577895D02*
X175640073Y-130601704D01*
X175640073Y-130601704D02*
X175663883Y-130649323D01*
X175663883Y-130649323D02*
X175663883Y-130768371D01*
X175663883Y-130768371D02*
X175640073Y-130815990D01*
X175640073Y-130815990D02*
X175616264Y-130839800D01*
X175616264Y-130839800D02*
X175568645Y-130863609D01*
X175568645Y-130863609D02*
X175425788Y-130863609D01*
X175425788Y-130863609D02*
X175378169Y-130839800D01*
X175378169Y-130839800D02*
X175354359Y-130815990D01*
X178761027Y-84069800D02*
X178832455Y-84093609D01*
X178832455Y-84093609D02*
X178951503Y-84093609D01*
X178951503Y-84093609D02*
X178999122Y-84069800D01*
X178999122Y-84069800D02*
X179022931Y-84045990D01*
X179022931Y-84045990D02*
X179046741Y-83998371D01*
X179046741Y-83998371D02*
X179046741Y-83950752D01*
X179046741Y-83950752D02*
X179022931Y-83903133D01*
X179022931Y-83903133D02*
X178999122Y-83879323D01*
X178999122Y-83879323D02*
X178951503Y-83855514D01*
X178951503Y-83855514D02*
X178856265Y-83831704D01*
X178856265Y-83831704D02*
X178808646Y-83807895D01*
X178808646Y-83807895D02*
X178784836Y-83784085D01*
X178784836Y-83784085D02*
X178761027Y-83736466D01*
X178761027Y-83736466D02*
X178761027Y-83688847D01*
X178761027Y-83688847D02*
X178784836Y-83641228D01*
X178784836Y-83641228D02*
X178808646Y-83617419D01*
X178808646Y-83617419D02*
X178856265Y-83593609D01*
X178856265Y-83593609D02*
X178975312Y-83593609D01*
X178975312Y-83593609D02*
X179046741Y-83617419D01*
X179546740Y-84045990D02*
X179522931Y-84069800D01*
X179522931Y-84069800D02*
X179451502Y-84093609D01*
X179451502Y-84093609D02*
X179403883Y-84093609D01*
X179403883Y-84093609D02*
X179332455Y-84069800D01*
X179332455Y-84069800D02*
X179284836Y-84022180D01*
X179284836Y-84022180D02*
X179261026Y-83974561D01*
X179261026Y-83974561D02*
X179237217Y-83879323D01*
X179237217Y-83879323D02*
X179237217Y-83807895D01*
X179237217Y-83807895D02*
X179261026Y-83712657D01*
X179261026Y-83712657D02*
X179284836Y-83665038D01*
X179284836Y-83665038D02*
X179332455Y-83617419D01*
X179332455Y-83617419D02*
X179403883Y-83593609D01*
X179403883Y-83593609D02*
X179451502Y-83593609D01*
X179451502Y-83593609D02*
X179522931Y-83617419D01*
X179522931Y-83617419D02*
X179546740Y-83641228D01*
X179761026Y-84093609D02*
X179761026Y-83593609D01*
X180046740Y-84093609D02*
X179832455Y-83807895D01*
X180046740Y-83593609D02*
X179761026Y-83879323D01*
D12*
X161484819Y-80993333D02*
X162199104Y-80993333D01*
X162199104Y-80993333D02*
X162341961Y-81040952D01*
X162341961Y-81040952D02*
X162437200Y-81136190D01*
X162437200Y-81136190D02*
X162484819Y-81279047D01*
X162484819Y-81279047D02*
X162484819Y-81374285D01*
X161484819Y-80040952D02*
X161484819Y-80517142D01*
X161484819Y-80517142D02*
X161961009Y-80564761D01*
X161961009Y-80564761D02*
X161913390Y-80517142D01*
X161913390Y-80517142D02*
X161865771Y-80421904D01*
X161865771Y-80421904D02*
X161865771Y-80183809D01*
X161865771Y-80183809D02*
X161913390Y-80088571D01*
X161913390Y-80088571D02*
X161961009Y-80040952D01*
X161961009Y-80040952D02*
X162056247Y-79993333D01*
X162056247Y-79993333D02*
X162294342Y-79993333D01*
X162294342Y-79993333D02*
X162389580Y-80040952D01*
X162389580Y-80040952D02*
X162437200Y-80088571D01*
X162437200Y-80088571D02*
X162484819Y-80183809D01*
X162484819Y-80183809D02*
X162484819Y-80421904D01*
X162484819Y-80421904D02*
X162437200Y-80517142D01*
X162437200Y-80517142D02*
X162389580Y-80564761D01*
X191716666Y-79064819D02*
X191716666Y-79779104D01*
X191716666Y-79779104D02*
X191669047Y-79921961D01*
X191669047Y-79921961D02*
X191573809Y-80017200D01*
X191573809Y-80017200D02*
X191430952Y-80064819D01*
X191430952Y-80064819D02*
X191335714Y-80064819D01*
X192097619Y-79064819D02*
X192764285Y-79064819D01*
X192764285Y-79064819D02*
X192335714Y-80064819D01*
X161824819Y-108803333D02*
X162539104Y-108803333D01*
X162539104Y-108803333D02*
X162681961Y-108850952D01*
X162681961Y-108850952D02*
X162777200Y-108946190D01*
X162777200Y-108946190D02*
X162824819Y-109089047D01*
X162824819Y-109089047D02*
X162824819Y-109184285D01*
X161920057Y-108374761D02*
X161872438Y-108327142D01*
X161872438Y-108327142D02*
X161824819Y-108231904D01*
X161824819Y-108231904D02*
X161824819Y-107993809D01*
X161824819Y-107993809D02*
X161872438Y-107898571D01*
X161872438Y-107898571D02*
X161920057Y-107850952D01*
X161920057Y-107850952D02*
X162015295Y-107803333D01*
X162015295Y-107803333D02*
X162110533Y-107803333D01*
X162110533Y-107803333D02*
X162253390Y-107850952D01*
X162253390Y-107850952D02*
X162824819Y-108422380D01*
X162824819Y-108422380D02*
X162824819Y-107803333D01*
X168103333Y-89164819D02*
X167770000Y-88688628D01*
X167531905Y-89164819D02*
X167531905Y-88164819D01*
X167531905Y-88164819D02*
X167912857Y-88164819D01*
X167912857Y-88164819D02*
X168008095Y-88212438D01*
X168008095Y-88212438D02*
X168055714Y-88260057D01*
X168055714Y-88260057D02*
X168103333Y-88355295D01*
X168103333Y-88355295D02*
X168103333Y-88498152D01*
X168103333Y-88498152D02*
X168055714Y-88593390D01*
X168055714Y-88593390D02*
X168008095Y-88641009D01*
X168008095Y-88641009D02*
X167912857Y-88688628D01*
X167912857Y-88688628D02*
X167531905Y-88688628D01*
X169055714Y-89164819D02*
X168484286Y-89164819D01*
X168770000Y-89164819D02*
X168770000Y-88164819D01*
X168770000Y-88164819D02*
X168674762Y-88307676D01*
X168674762Y-88307676D02*
X168579524Y-88402914D01*
X168579524Y-88402914D02*
X168484286Y-88450533D01*
X173984819Y-81013333D02*
X174699104Y-81013333D01*
X174699104Y-81013333D02*
X174841961Y-81060952D01*
X174841961Y-81060952D02*
X174937200Y-81156190D01*
X174937200Y-81156190D02*
X174984819Y-81299047D01*
X174984819Y-81299047D02*
X174984819Y-81394285D01*
X173984819Y-80108571D02*
X173984819Y-80299047D01*
X173984819Y-80299047D02*
X174032438Y-80394285D01*
X174032438Y-80394285D02*
X174080057Y-80441904D01*
X174080057Y-80441904D02*
X174222914Y-80537142D01*
X174222914Y-80537142D02*
X174413390Y-80584761D01*
X174413390Y-80584761D02*
X174794342Y-80584761D01*
X174794342Y-80584761D02*
X174889580Y-80537142D01*
X174889580Y-80537142D02*
X174937200Y-80489523D01*
X174937200Y-80489523D02*
X174984819Y-80394285D01*
X174984819Y-80394285D02*
X174984819Y-80203809D01*
X174984819Y-80203809D02*
X174937200Y-80108571D01*
X174937200Y-80108571D02*
X174889580Y-80060952D01*
X174889580Y-80060952D02*
X174794342Y-80013333D01*
X174794342Y-80013333D02*
X174556247Y-80013333D01*
X174556247Y-80013333D02*
X174461009Y-80060952D01*
X174461009Y-80060952D02*
X174413390Y-80108571D01*
X174413390Y-80108571D02*
X174365771Y-80203809D01*
X174365771Y-80203809D02*
X174365771Y-80394285D01*
X174365771Y-80394285D02*
X174413390Y-80489523D01*
X174413390Y-80489523D02*
X174461009Y-80537142D01*
X174461009Y-80537142D02*
X174556247Y-80584761D01*
X176391905Y-94044819D02*
X176391905Y-93044819D01*
X176391905Y-93044819D02*
X176630000Y-93044819D01*
X176630000Y-93044819D02*
X176772857Y-93092438D01*
X176772857Y-93092438D02*
X176868095Y-93187676D01*
X176868095Y-93187676D02*
X176915714Y-93282914D01*
X176915714Y-93282914D02*
X176963333Y-93473390D01*
X176963333Y-93473390D02*
X176963333Y-93616247D01*
X176963333Y-93616247D02*
X176915714Y-93806723D01*
X176915714Y-93806723D02*
X176868095Y-93901961D01*
X176868095Y-93901961D02*
X176772857Y-93997200D01*
X176772857Y-93997200D02*
X176630000Y-94044819D01*
X176630000Y-94044819D02*
X176391905Y-94044819D01*
X177915714Y-94044819D02*
X177344286Y-94044819D01*
X177630000Y-94044819D02*
X177630000Y-93044819D01*
X177630000Y-93044819D02*
X177534762Y-93187676D01*
X177534762Y-93187676D02*
X177439524Y-93282914D01*
X177439524Y-93282914D02*
X177344286Y-93330533D01*
X161824819Y-129103333D02*
X162539104Y-129103333D01*
X162539104Y-129103333D02*
X162681961Y-129150952D01*
X162681961Y-129150952D02*
X162777200Y-129246190D01*
X162777200Y-129246190D02*
X162824819Y-129389047D01*
X162824819Y-129389047D02*
X162824819Y-129484285D01*
X162824819Y-128103333D02*
X162824819Y-128674761D01*
X162824819Y-128389047D02*
X161824819Y-128389047D01*
X161824819Y-128389047D02*
X161967676Y-128484285D01*
X161967676Y-128484285D02*
X162062914Y-128579523D01*
X162062914Y-128579523D02*
X162110533Y-128674761D01*
X148994819Y-80993333D02*
X149709104Y-80993333D01*
X149709104Y-80993333D02*
X149851961Y-81040952D01*
X149851961Y-81040952D02*
X149947200Y-81136190D01*
X149947200Y-81136190D02*
X149994819Y-81279047D01*
X149994819Y-81279047D02*
X149994819Y-81374285D01*
X149328152Y-80088571D02*
X149994819Y-80088571D01*
X148947200Y-80326666D02*
X149661485Y-80564761D01*
X149661485Y-80564761D02*
X149661485Y-79945714D01*
X156616667Y-99107200D02*
X156759524Y-99154819D01*
X156759524Y-99154819D02*
X156997619Y-99154819D01*
X156997619Y-99154819D02*
X157092857Y-99107200D01*
X157092857Y-99107200D02*
X157140476Y-99059580D01*
X157140476Y-99059580D02*
X157188095Y-98964342D01*
X157188095Y-98964342D02*
X157188095Y-98869104D01*
X157188095Y-98869104D02*
X157140476Y-98773866D01*
X157140476Y-98773866D02*
X157092857Y-98726247D01*
X157092857Y-98726247D02*
X156997619Y-98678628D01*
X156997619Y-98678628D02*
X156807143Y-98631009D01*
X156807143Y-98631009D02*
X156711905Y-98583390D01*
X156711905Y-98583390D02*
X156664286Y-98535771D01*
X156664286Y-98535771D02*
X156616667Y-98440533D01*
X156616667Y-98440533D02*
X156616667Y-98345295D01*
X156616667Y-98345295D02*
X156664286Y-98250057D01*
X156664286Y-98250057D02*
X156711905Y-98202438D01*
X156711905Y-98202438D02*
X156807143Y-98154819D01*
X156807143Y-98154819D02*
X157045238Y-98154819D01*
X157045238Y-98154819D02*
X157188095Y-98202438D01*
X157521429Y-98154819D02*
X157759524Y-99154819D01*
X157759524Y-99154819D02*
X157950000Y-98440533D01*
X157950000Y-98440533D02*
X158140476Y-99154819D01*
X158140476Y-99154819D02*
X158378572Y-98154819D01*
X158711905Y-98250057D02*
X158759524Y-98202438D01*
X158759524Y-98202438D02*
X158854762Y-98154819D01*
X158854762Y-98154819D02*
X159092857Y-98154819D01*
X159092857Y-98154819D02*
X159188095Y-98202438D01*
X159188095Y-98202438D02*
X159235714Y-98250057D01*
X159235714Y-98250057D02*
X159283333Y-98345295D01*
X159283333Y-98345295D02*
X159283333Y-98440533D01*
X159283333Y-98440533D02*
X159235714Y-98583390D01*
X159235714Y-98583390D02*
X158664286Y-99154819D01*
X158664286Y-99154819D02*
X159283333Y-99154819D01*
X176391905Y-102084819D02*
X176391905Y-101084819D01*
X176391905Y-101084819D02*
X176630000Y-101084819D01*
X176630000Y-101084819D02*
X176772857Y-101132438D01*
X176772857Y-101132438D02*
X176868095Y-101227676D01*
X176868095Y-101227676D02*
X176915714Y-101322914D01*
X176915714Y-101322914D02*
X176963333Y-101513390D01*
X176963333Y-101513390D02*
X176963333Y-101656247D01*
X176963333Y-101656247D02*
X176915714Y-101846723D01*
X176915714Y-101846723D02*
X176868095Y-101941961D01*
X176868095Y-101941961D02*
X176772857Y-102037200D01*
X176772857Y-102037200D02*
X176630000Y-102084819D01*
X176630000Y-102084819D02*
X176391905Y-102084819D01*
X177344286Y-101180057D02*
X177391905Y-101132438D01*
X177391905Y-101132438D02*
X177487143Y-101084819D01*
X177487143Y-101084819D02*
X177725238Y-101084819D01*
X177725238Y-101084819D02*
X177820476Y-101132438D01*
X177820476Y-101132438D02*
X177868095Y-101180057D01*
X177868095Y-101180057D02*
X177915714Y-101275295D01*
X177915714Y-101275295D02*
X177915714Y-101370533D01*
X177915714Y-101370533D02*
X177868095Y-101513390D01*
X177868095Y-101513390D02*
X177296667Y-102084819D01*
X177296667Y-102084819D02*
X177915714Y-102084819D01*
X143516667Y-95217200D02*
X143659524Y-95264819D01*
X143659524Y-95264819D02*
X143897619Y-95264819D01*
X143897619Y-95264819D02*
X143992857Y-95217200D01*
X143992857Y-95217200D02*
X144040476Y-95169580D01*
X144040476Y-95169580D02*
X144088095Y-95074342D01*
X144088095Y-95074342D02*
X144088095Y-94979104D01*
X144088095Y-94979104D02*
X144040476Y-94883866D01*
X144040476Y-94883866D02*
X143992857Y-94836247D01*
X143992857Y-94836247D02*
X143897619Y-94788628D01*
X143897619Y-94788628D02*
X143707143Y-94741009D01*
X143707143Y-94741009D02*
X143611905Y-94693390D01*
X143611905Y-94693390D02*
X143564286Y-94645771D01*
X143564286Y-94645771D02*
X143516667Y-94550533D01*
X143516667Y-94550533D02*
X143516667Y-94455295D01*
X143516667Y-94455295D02*
X143564286Y-94360057D01*
X143564286Y-94360057D02*
X143611905Y-94312438D01*
X143611905Y-94312438D02*
X143707143Y-94264819D01*
X143707143Y-94264819D02*
X143945238Y-94264819D01*
X143945238Y-94264819D02*
X144088095Y-94312438D01*
X144421429Y-94264819D02*
X144659524Y-95264819D01*
X144659524Y-95264819D02*
X144850000Y-94550533D01*
X144850000Y-94550533D02*
X145040476Y-95264819D01*
X145040476Y-95264819D02*
X145278572Y-94264819D01*
X146183333Y-95264819D02*
X145611905Y-95264819D01*
X145897619Y-95264819D02*
X145897619Y-94264819D01*
X145897619Y-94264819D02*
X145802381Y-94407676D01*
X145802381Y-94407676D02*
X145707143Y-94502914D01*
X145707143Y-94502914D02*
X145611905Y-94550533D01*
X168103333Y-97204819D02*
X167770000Y-96728628D01*
X167531905Y-97204819D02*
X167531905Y-96204819D01*
X167531905Y-96204819D02*
X167912857Y-96204819D01*
X167912857Y-96204819D02*
X168008095Y-96252438D01*
X168008095Y-96252438D02*
X168055714Y-96300057D01*
X168055714Y-96300057D02*
X168103333Y-96395295D01*
X168103333Y-96395295D02*
X168103333Y-96538152D01*
X168103333Y-96538152D02*
X168055714Y-96633390D01*
X168055714Y-96633390D02*
X168008095Y-96681009D01*
X168008095Y-96681009D02*
X167912857Y-96728628D01*
X167912857Y-96728628D02*
X167531905Y-96728628D01*
X168484286Y-96300057D02*
X168531905Y-96252438D01*
X168531905Y-96252438D02*
X168627143Y-96204819D01*
X168627143Y-96204819D02*
X168865238Y-96204819D01*
X168865238Y-96204819D02*
X168960476Y-96252438D01*
X168960476Y-96252438D02*
X169008095Y-96300057D01*
X169008095Y-96300057D02*
X169055714Y-96395295D01*
X169055714Y-96395295D02*
X169055714Y-96490533D01*
X169055714Y-96490533D02*
X169008095Y-96633390D01*
X169008095Y-96633390D02*
X168436667Y-97204819D01*
X168436667Y-97204819D02*
X169055714Y-97204819D01*
X136394819Y-81033333D02*
X137109104Y-81033333D01*
X137109104Y-81033333D02*
X137251961Y-81080952D01*
X137251961Y-81080952D02*
X137347200Y-81176190D01*
X137347200Y-81176190D02*
X137394819Y-81319047D01*
X137394819Y-81319047D02*
X137394819Y-81414285D01*
X136394819Y-80652380D02*
X136394819Y-80033333D01*
X136394819Y-80033333D02*
X136775771Y-80366666D01*
X136775771Y-80366666D02*
X136775771Y-80223809D01*
X136775771Y-80223809D02*
X136823390Y-80128571D01*
X136823390Y-80128571D02*
X136871009Y-80080952D01*
X136871009Y-80080952D02*
X136966247Y-80033333D01*
X136966247Y-80033333D02*
X137204342Y-80033333D01*
X137204342Y-80033333D02*
X137299580Y-80080952D01*
X137299580Y-80080952D02*
X137347200Y-80128571D01*
X137347200Y-80128571D02*
X137394819Y-80223809D01*
X137394819Y-80223809D02*
X137394819Y-80509523D01*
X137394819Y-80509523D02*
X137347200Y-80604761D01*
X137347200Y-80604761D02*
X137299580Y-80652380D01*
D13*
X163030000Y-78060000D02*
X170770000Y-78060000D01*
X163030000Y-80660000D02*
X163030000Y-78060000D01*
X163030000Y-83260000D02*
X163030000Y-81930000D01*
X164360000Y-83260000D02*
X163030000Y-83260000D01*
X165630000Y-80660000D02*
X163030000Y-80660000D01*
X165630000Y-83260000D02*
X165630000Y-80660000D01*
X165630000Y-83260000D02*
X170770000Y-83260000D01*
X170770000Y-83260000D02*
X170770000Y-78060000D01*
X187910000Y-78340000D02*
X189240000Y-78340000D01*
X187910000Y-79670000D02*
X187910000Y-78340000D01*
X187910000Y-80940000D02*
X187910000Y-101320000D01*
X187910000Y-80940000D02*
X190570000Y-80940000D01*
X187910000Y-101320000D02*
X190570000Y-101320000D01*
X190570000Y-80940000D02*
X190570000Y-101320000D01*
X163370000Y-109800000D02*
X163370000Y-108470000D01*
X164700000Y-109800000D02*
X163370000Y-109800000D01*
X165970000Y-107140000D02*
X204130000Y-107140000D01*
X165970000Y-109800000D02*
X165970000Y-107140000D01*
X165970000Y-109800000D02*
X204130000Y-109800000D01*
X204130000Y-109800000D02*
X204130000Y-107140000D01*
X165400000Y-90630000D02*
X166350000Y-90630000D01*
X166350000Y-89710000D02*
X166350000Y-91550000D01*
X166350000Y-91550000D02*
X170190000Y-91550000D01*
X170190000Y-89710000D02*
X166350000Y-89710000D01*
X170190000Y-91550000D02*
X170190000Y-89710000D01*
X171140000Y-90630000D02*
X170190000Y-90630000D01*
X175530000Y-78080000D02*
X183270000Y-78080000D01*
X175530000Y-80680000D02*
X175530000Y-78080000D01*
X175530000Y-83280000D02*
X175530000Y-81950000D01*
X176860000Y-83280000D02*
X175530000Y-83280000D01*
X178130000Y-80680000D02*
X175530000Y-80680000D01*
X178130000Y-83280000D02*
X178130000Y-80680000D01*
X178130000Y-83280000D02*
X183270000Y-83280000D01*
X183270000Y-83280000D02*
X183270000Y-78080000D01*
X178690000Y-89550000D02*
X178690000Y-89394000D01*
X178690000Y-91866000D02*
X178690000Y-91710000D01*
X175457665Y-89551392D02*
G75*
G02*
X178690000Y-89394484I1672335J-1078608D01*
G01*
X176088870Y-89550163D02*
G75*
G02*
X178170961Y-89550000I1041130J-1079837D01*
G01*
X178170961Y-91710000D02*
G75*
G02*
X176088870Y-91709837I-1040961J1080000D01*
G01*
X178690000Y-91865516D02*
G75*
G02*
X175457665Y-91708608I-1560000J1235516D01*
G01*
X163370000Y-130100000D02*
X163370000Y-128770000D01*
X164700000Y-130100000D02*
X163370000Y-130100000D01*
X165970000Y-127440000D02*
X193970000Y-127440000D01*
X165970000Y-130100000D02*
X165970000Y-127440000D01*
X165970000Y-130100000D02*
X193970000Y-130100000D01*
X193970000Y-130100000D02*
X193970000Y-127440000D01*
X150540000Y-78060000D02*
X158280000Y-78060000D01*
X150540000Y-80660000D02*
X150540000Y-78060000D01*
X150540000Y-83260000D02*
X150540000Y-81930000D01*
X151870000Y-83260000D02*
X150540000Y-83260000D01*
X153140000Y-80660000D02*
X150540000Y-80660000D01*
X153140000Y-83260000D02*
X153140000Y-80660000D01*
X153140000Y-83260000D02*
X158280000Y-83260000D01*
X158280000Y-83260000D02*
X158280000Y-78060000D01*
X156680000Y-94730000D02*
X156680000Y-92130000D01*
X159340000Y-92130000D02*
X156680000Y-92130000D01*
X159340000Y-94730000D02*
X156680000Y-94730000D01*
X159340000Y-94730000D02*
X159340000Y-92130000D01*
X159340000Y-96000000D02*
X159340000Y-97330000D01*
X159340000Y-97330000D02*
X158010000Y-97330000D01*
X178690000Y-97590000D02*
X178690000Y-97434000D01*
X178690000Y-99906000D02*
X178690000Y-99750000D01*
X175457665Y-97591392D02*
G75*
G02*
X178690000Y-97434484I1672335J-1078608D01*
G01*
X176088870Y-97590163D02*
G75*
G02*
X178170961Y-97590000I1041130J-1079837D01*
G01*
X178170961Y-99750000D02*
G75*
G02*
X176088870Y-99749837I-1040961J1080000D01*
G01*
X178690000Y-99905516D02*
G75*
G02*
X175457665Y-99748608I-1560000J1235516D01*
G01*
D14*
X138723002Y-88683002D02*
X138723002Y-91129704D01*
X138723002Y-93490296D02*
X138723002Y-96129704D01*
X138723002Y-98490296D02*
X138723002Y-100936998D01*
X138723002Y-100936998D02*
X150976998Y-100936998D01*
X150976998Y-88683002D02*
X138723002Y-88683002D01*
X150976998Y-91129704D02*
X150976998Y-88683002D01*
X150976998Y-96129704D02*
X150976998Y-93490296D01*
X150976998Y-100936998D02*
X150976998Y-98490296D01*
D15*
X138727000Y-87230000D02*
G75*
G02*
X138473000Y-87230000I-127000J0D01*
G01*
X138473000Y-87230000D02*
G75*
G02*
X138727000Y-87230000I127000J0D01*
G01*
D13*
X165400000Y-98670000D02*
X166350000Y-98670000D01*
X166350000Y-97750000D02*
X166350000Y-99590000D01*
X166350000Y-99590000D02*
X170190000Y-99590000D01*
X170190000Y-97750000D02*
X166350000Y-97750000D01*
X170190000Y-99590000D02*
X170190000Y-97750000D01*
X171140000Y-98670000D02*
X170190000Y-98670000D01*
X137940000Y-78100000D02*
X145680000Y-78100000D01*
X137940000Y-80700000D02*
X137940000Y-78100000D01*
X137940000Y-83300000D02*
X137940000Y-81970000D01*
X139270000Y-83300000D02*
X137940000Y-83300000D01*
X140540000Y-80700000D02*
X137940000Y-80700000D01*
X140540000Y-83300000D02*
X140540000Y-80700000D01*
X140540000Y-83300000D02*
X145680000Y-83300000D01*
X145680000Y-83300000D02*
X145680000Y-78100000D01*
%LPC*%
D16*
X164360000Y-81930000D03*
D17*
X164360000Y-79390000D03*
X166900000Y-81930000D03*
X166900000Y-79390000D03*
X169440000Y-81930000D03*
X169440000Y-79390000D03*
D16*
X189240000Y-79670000D03*
D17*
X189240000Y-82210000D03*
X189240000Y-84750000D03*
X189240000Y-87290000D03*
X189240000Y-89830000D03*
X189240000Y-92370000D03*
X189240000Y-94910000D03*
X189240000Y-97450000D03*
X189240000Y-99990000D03*
D16*
X164700000Y-108470000D03*
D17*
X167240000Y-108470000D03*
X169780000Y-108470000D03*
X172320000Y-108470000D03*
X174860000Y-108470000D03*
X177400000Y-108470000D03*
X179940000Y-108470000D03*
X182480000Y-108470000D03*
X185020000Y-108470000D03*
X187560000Y-108470000D03*
X190100000Y-108470000D03*
X192640000Y-108470000D03*
X195180000Y-108470000D03*
X197720000Y-108470000D03*
X200260000Y-108470000D03*
X202800000Y-108470000D03*
D18*
X164460000Y-90630000D03*
D19*
X172080000Y-90630000D03*
D16*
X176860000Y-81950000D03*
D17*
X176860000Y-79410000D03*
X179400000Y-81950000D03*
X179400000Y-79410000D03*
X181940000Y-81950000D03*
X181940000Y-79410000D03*
D20*
X178400000Y-90630000D03*
D21*
X175860000Y-90630000D03*
D16*
X164700000Y-128770000D03*
D17*
X167240000Y-128770000D03*
X169780000Y-128770000D03*
X172320000Y-128770000D03*
X174860000Y-128770000D03*
X177400000Y-128770000D03*
X179940000Y-128770000D03*
X182480000Y-128770000D03*
X185020000Y-128770000D03*
X187560000Y-128770000D03*
X190100000Y-128770000D03*
X192640000Y-128770000D03*
D16*
X151870000Y-81930000D03*
D17*
X151870000Y-79390000D03*
X154410000Y-81930000D03*
X154410000Y-79390000D03*
X156950000Y-81930000D03*
X156950000Y-79390000D03*
D16*
X158010000Y-96000000D03*
D17*
X158010000Y-93460000D03*
D20*
X178400000Y-98670000D03*
D21*
X175860000Y-98670000D03*
D22*
X144850000Y-90310000D03*
X144850000Y-99310000D03*
D23*
X138600000Y-92310000D03*
X151100000Y-92310000D03*
X138600000Y-97310000D03*
X151100000Y-97310000D03*
D18*
X164460000Y-98670000D03*
D19*
X172080000Y-98670000D03*
D16*
X139270000Y-81970000D03*
D17*
X139270000Y-79430000D03*
X141810000Y-81970000D03*
X141810000Y-79430000D03*
X144350000Y-81970000D03*
X144350000Y-79430000D03*
%LPD*%
M02*
