G04 #@! TF.GenerationSoftware,KiCad,Pcbnew,8.0.6*
G04 #@! TF.CreationDate,2025-01-17T10:19:54-06:00*
G04 #@! TF.ProjectId,Quake_PCB_3,5175616b-655f-4504-9342-5f332e6b6963,rev?*
G04 #@! TF.SameCoordinates,Original*
G04 #@! TF.FileFunction,Legend,Bot*
G04 #@! TF.FilePolarity,Positive*
%FSLAX46Y46*%
G04 Gerber Fmt 4.6, Leading zero omitted, Abs format (unit mm)*
G04 Created by KiCad (PCBNEW 8.0.6) date 2025-01-17 10:19:54*
%MOMM*%
%LPD*%
G01*
G04 APERTURE LIST*
%ADD10C,0.200000*%
%ADD11C,0.254000*%
%ADD12R,1.700000X1.700000*%
%ADD13O,1.700000X1.700000*%
%ADD14C,1.400000*%
%ADD15O,1.400000X1.400000*%
%ADD16R,1.800000X1.800000*%
%ADD17C,1.800000*%
%ADD18C,1.799996*%
%ADD19C,1.707896*%
G04 APERTURE END LIST*
D10*
X204891279Y-116996196D02*
X204891279Y-115496196D01*
X204891279Y-115496196D02*
X204319850Y-115496196D01*
X204319850Y-115496196D02*
X204176993Y-115567625D01*
X204176993Y-115567625D02*
X204105564Y-115639053D01*
X204105564Y-115639053D02*
X204034136Y-115781910D01*
X204034136Y-115781910D02*
X204034136Y-115996196D01*
X204034136Y-115996196D02*
X204105564Y-116139053D01*
X204105564Y-116139053D02*
X204176993Y-116210482D01*
X204176993Y-116210482D02*
X204319850Y-116281910D01*
X204319850Y-116281910D02*
X204891279Y-116281910D01*
X202534136Y-116853339D02*
X202605564Y-116924768D01*
X202605564Y-116924768D02*
X202819850Y-116996196D01*
X202819850Y-116996196D02*
X202962707Y-116996196D01*
X202962707Y-116996196D02*
X203176993Y-116924768D01*
X203176993Y-116924768D02*
X203319850Y-116781910D01*
X203319850Y-116781910D02*
X203391279Y-116639053D01*
X203391279Y-116639053D02*
X203462707Y-116353339D01*
X203462707Y-116353339D02*
X203462707Y-116139053D01*
X203462707Y-116139053D02*
X203391279Y-115853339D01*
X203391279Y-115853339D02*
X203319850Y-115710482D01*
X203319850Y-115710482D02*
X203176993Y-115567625D01*
X203176993Y-115567625D02*
X202962707Y-115496196D01*
X202962707Y-115496196D02*
X202819850Y-115496196D01*
X202819850Y-115496196D02*
X202605564Y-115567625D01*
X202605564Y-115567625D02*
X202534136Y-115639053D01*
X201391279Y-116210482D02*
X201176993Y-116281910D01*
X201176993Y-116281910D02*
X201105564Y-116353339D01*
X201105564Y-116353339D02*
X201034136Y-116496196D01*
X201034136Y-116496196D02*
X201034136Y-116710482D01*
X201034136Y-116710482D02*
X201105564Y-116853339D01*
X201105564Y-116853339D02*
X201176993Y-116924768D01*
X201176993Y-116924768D02*
X201319850Y-116996196D01*
X201319850Y-116996196D02*
X201891279Y-116996196D01*
X201891279Y-116996196D02*
X201891279Y-115496196D01*
X201891279Y-115496196D02*
X201391279Y-115496196D01*
X201391279Y-115496196D02*
X201248422Y-115567625D01*
X201248422Y-115567625D02*
X201176993Y-115639053D01*
X201176993Y-115639053D02*
X201105564Y-115781910D01*
X201105564Y-115781910D02*
X201105564Y-115924768D01*
X201105564Y-115924768D02*
X201176993Y-116067625D01*
X201176993Y-116067625D02*
X201248422Y-116139053D01*
X201248422Y-116139053D02*
X201391279Y-116210482D01*
X201391279Y-116210482D02*
X201891279Y-116210482D01*
X198748422Y-116210482D02*
X199248422Y-116210482D01*
X199248422Y-116996196D02*
X199248422Y-115496196D01*
X199248422Y-115496196D02*
X198534136Y-115496196D01*
X197748422Y-116996196D02*
X197891279Y-116924768D01*
X197891279Y-116924768D02*
X197962708Y-116853339D01*
X197962708Y-116853339D02*
X198034136Y-116710482D01*
X198034136Y-116710482D02*
X198034136Y-116281910D01*
X198034136Y-116281910D02*
X197962708Y-116139053D01*
X197962708Y-116139053D02*
X197891279Y-116067625D01*
X197891279Y-116067625D02*
X197748422Y-115996196D01*
X197748422Y-115996196D02*
X197534136Y-115996196D01*
X197534136Y-115996196D02*
X197391279Y-116067625D01*
X197391279Y-116067625D02*
X197319851Y-116139053D01*
X197319851Y-116139053D02*
X197248422Y-116281910D01*
X197248422Y-116281910D02*
X197248422Y-116710482D01*
X197248422Y-116710482D02*
X197319851Y-116853339D01*
X197319851Y-116853339D02*
X197391279Y-116924768D01*
X197391279Y-116924768D02*
X197534136Y-116996196D01*
X197534136Y-116996196D02*
X197748422Y-116996196D01*
X196605565Y-116996196D02*
X196605565Y-115996196D01*
X196605565Y-116281910D02*
X196534136Y-116139053D01*
X196534136Y-116139053D02*
X196462708Y-116067625D01*
X196462708Y-116067625D02*
X196319850Y-115996196D01*
X196319850Y-115996196D02*
X196176993Y-115996196D01*
X193534137Y-117139053D02*
X193676994Y-117067625D01*
X193676994Y-117067625D02*
X193819851Y-116924768D01*
X193819851Y-116924768D02*
X194034137Y-116710482D01*
X194034137Y-116710482D02*
X194176994Y-116639053D01*
X194176994Y-116639053D02*
X194319851Y-116639053D01*
X194248422Y-116996196D02*
X194391280Y-116924768D01*
X194391280Y-116924768D02*
X194534137Y-116781910D01*
X194534137Y-116781910D02*
X194605565Y-116496196D01*
X194605565Y-116496196D02*
X194605565Y-115996196D01*
X194605565Y-115996196D02*
X194534137Y-115710482D01*
X194534137Y-115710482D02*
X194391280Y-115567625D01*
X194391280Y-115567625D02*
X194248422Y-115496196D01*
X194248422Y-115496196D02*
X193962708Y-115496196D01*
X193962708Y-115496196D02*
X193819851Y-115567625D01*
X193819851Y-115567625D02*
X193676994Y-115710482D01*
X193676994Y-115710482D02*
X193605565Y-115996196D01*
X193605565Y-115996196D02*
X193605565Y-116496196D01*
X193605565Y-116496196D02*
X193676994Y-116781910D01*
X193676994Y-116781910D02*
X193819851Y-116924768D01*
X193819851Y-116924768D02*
X193962708Y-116996196D01*
X193962708Y-116996196D02*
X194248422Y-116996196D01*
X192319851Y-115996196D02*
X192319851Y-116996196D01*
X192962708Y-115996196D02*
X192962708Y-116781910D01*
X192962708Y-116781910D02*
X192891279Y-116924768D01*
X192891279Y-116924768D02*
X192748422Y-116996196D01*
X192748422Y-116996196D02*
X192534136Y-116996196D01*
X192534136Y-116996196D02*
X192391279Y-116924768D01*
X192391279Y-116924768D02*
X192319851Y-116853339D01*
X190962708Y-116996196D02*
X190962708Y-116210482D01*
X190962708Y-116210482D02*
X191034136Y-116067625D01*
X191034136Y-116067625D02*
X191176993Y-115996196D01*
X191176993Y-115996196D02*
X191462708Y-115996196D01*
X191462708Y-115996196D02*
X191605565Y-116067625D01*
X190962708Y-116924768D02*
X191105565Y-116996196D01*
X191105565Y-116996196D02*
X191462708Y-116996196D01*
X191462708Y-116996196D02*
X191605565Y-116924768D01*
X191605565Y-116924768D02*
X191676993Y-116781910D01*
X191676993Y-116781910D02*
X191676993Y-116639053D01*
X191676993Y-116639053D02*
X191605565Y-116496196D01*
X191605565Y-116496196D02*
X191462708Y-116424768D01*
X191462708Y-116424768D02*
X191105565Y-116424768D01*
X191105565Y-116424768D02*
X190962708Y-116353339D01*
X190248422Y-116996196D02*
X190248422Y-115496196D01*
X190105565Y-116424768D02*
X189676993Y-116996196D01*
X189676993Y-115996196D02*
X190248422Y-116567625D01*
X188462707Y-116924768D02*
X188605564Y-116996196D01*
X188605564Y-116996196D02*
X188891279Y-116996196D01*
X188891279Y-116996196D02*
X189034136Y-116924768D01*
X189034136Y-116924768D02*
X189105564Y-116781910D01*
X189105564Y-116781910D02*
X189105564Y-116210482D01*
X189105564Y-116210482D02*
X189034136Y-116067625D01*
X189034136Y-116067625D02*
X188891279Y-115996196D01*
X188891279Y-115996196D02*
X188605564Y-115996196D01*
X188605564Y-115996196D02*
X188462707Y-116067625D01*
X188462707Y-116067625D02*
X188391279Y-116210482D01*
X188391279Y-116210482D02*
X188391279Y-116353339D01*
X188391279Y-116353339D02*
X189105564Y-116496196D01*
X186605565Y-116996196D02*
X186605565Y-115496196D01*
X186605565Y-115496196D02*
X186034136Y-115496196D01*
X186034136Y-115496196D02*
X185891279Y-115567625D01*
X185891279Y-115567625D02*
X185819850Y-115639053D01*
X185819850Y-115639053D02*
X185748422Y-115781910D01*
X185748422Y-115781910D02*
X185748422Y-115996196D01*
X185748422Y-115996196D02*
X185819850Y-116139053D01*
X185819850Y-116139053D02*
X185891279Y-116210482D01*
X185891279Y-116210482D02*
X186034136Y-116281910D01*
X186034136Y-116281910D02*
X186605565Y-116281910D01*
X185105565Y-116996196D02*
X185105565Y-115996196D01*
X185105565Y-116281910D02*
X185034136Y-116139053D01*
X185034136Y-116139053D02*
X184962708Y-116067625D01*
X184962708Y-116067625D02*
X184819850Y-115996196D01*
X184819850Y-115996196D02*
X184676993Y-115996196D01*
X183962708Y-116996196D02*
X184105565Y-116924768D01*
X184105565Y-116924768D02*
X184176994Y-116853339D01*
X184176994Y-116853339D02*
X184248422Y-116710482D01*
X184248422Y-116710482D02*
X184248422Y-116281910D01*
X184248422Y-116281910D02*
X184176994Y-116139053D01*
X184176994Y-116139053D02*
X184105565Y-116067625D01*
X184105565Y-116067625D02*
X183962708Y-115996196D01*
X183962708Y-115996196D02*
X183748422Y-115996196D01*
X183748422Y-115996196D02*
X183605565Y-116067625D01*
X183605565Y-116067625D02*
X183534137Y-116139053D01*
X183534137Y-116139053D02*
X183462708Y-116281910D01*
X183462708Y-116281910D02*
X183462708Y-116710482D01*
X183462708Y-116710482D02*
X183534137Y-116853339D01*
X183534137Y-116853339D02*
X183605565Y-116924768D01*
X183605565Y-116924768D02*
X183748422Y-116996196D01*
X183748422Y-116996196D02*
X183962708Y-116996196D01*
X182819851Y-115996196D02*
X182819851Y-117281910D01*
X182819851Y-117281910D02*
X182891279Y-117424768D01*
X182891279Y-117424768D02*
X183034136Y-117496196D01*
X183034136Y-117496196D02*
X183105565Y-117496196D01*
X182819851Y-115496196D02*
X182891279Y-115567625D01*
X182891279Y-115567625D02*
X182819851Y-115639053D01*
X182819851Y-115639053D02*
X182748422Y-115567625D01*
X182748422Y-115567625D02*
X182819851Y-115496196D01*
X182819851Y-115496196D02*
X182819851Y-115639053D01*
X181534136Y-116924768D02*
X181676993Y-116996196D01*
X181676993Y-116996196D02*
X181962708Y-116996196D01*
X181962708Y-116996196D02*
X182105565Y-116924768D01*
X182105565Y-116924768D02*
X182176993Y-116781910D01*
X182176993Y-116781910D02*
X182176993Y-116210482D01*
X182176993Y-116210482D02*
X182105565Y-116067625D01*
X182105565Y-116067625D02*
X181962708Y-115996196D01*
X181962708Y-115996196D02*
X181676993Y-115996196D01*
X181676993Y-115996196D02*
X181534136Y-116067625D01*
X181534136Y-116067625D02*
X181462708Y-116210482D01*
X181462708Y-116210482D02*
X181462708Y-116353339D01*
X181462708Y-116353339D02*
X182176993Y-116496196D01*
X180176994Y-116924768D02*
X180319851Y-116996196D01*
X180319851Y-116996196D02*
X180605565Y-116996196D01*
X180605565Y-116996196D02*
X180748422Y-116924768D01*
X180748422Y-116924768D02*
X180819851Y-116853339D01*
X180819851Y-116853339D02*
X180891279Y-116710482D01*
X180891279Y-116710482D02*
X180891279Y-116281910D01*
X180891279Y-116281910D02*
X180819851Y-116139053D01*
X180819851Y-116139053D02*
X180748422Y-116067625D01*
X180748422Y-116067625D02*
X180605565Y-115996196D01*
X180605565Y-115996196D02*
X180319851Y-115996196D01*
X180319851Y-115996196D02*
X180176994Y-116067625D01*
X179748422Y-115996196D02*
X179176994Y-115996196D01*
X179534137Y-115496196D02*
X179534137Y-116781910D01*
X179534137Y-116781910D02*
X179462708Y-116924768D01*
X179462708Y-116924768D02*
X179319851Y-116996196D01*
X179319851Y-116996196D02*
X179176994Y-116996196D01*
X176676994Y-116996196D02*
X177176994Y-116281910D01*
X177534137Y-116996196D02*
X177534137Y-115496196D01*
X177534137Y-115496196D02*
X176962708Y-115496196D01*
X176962708Y-115496196D02*
X176819851Y-115567625D01*
X176819851Y-115567625D02*
X176748422Y-115639053D01*
X176748422Y-115639053D02*
X176676994Y-115781910D01*
X176676994Y-115781910D02*
X176676994Y-115996196D01*
X176676994Y-115996196D02*
X176748422Y-116139053D01*
X176748422Y-116139053D02*
X176819851Y-116210482D01*
X176819851Y-116210482D02*
X176962708Y-116281910D01*
X176962708Y-116281910D02*
X177534137Y-116281910D01*
X175462708Y-116924768D02*
X175605565Y-116996196D01*
X175605565Y-116996196D02*
X175891280Y-116996196D01*
X175891280Y-116996196D02*
X176034137Y-116924768D01*
X176034137Y-116924768D02*
X176105565Y-116781910D01*
X176105565Y-116781910D02*
X176105565Y-116210482D01*
X176105565Y-116210482D02*
X176034137Y-116067625D01*
X176034137Y-116067625D02*
X175891280Y-115996196D01*
X175891280Y-115996196D02*
X175605565Y-115996196D01*
X175605565Y-115996196D02*
X175462708Y-116067625D01*
X175462708Y-116067625D02*
X175391280Y-116210482D01*
X175391280Y-116210482D02*
X175391280Y-116353339D01*
X175391280Y-116353339D02*
X176105565Y-116496196D01*
X174891280Y-115996196D02*
X174534137Y-116996196D01*
X174534137Y-116996196D02*
X174176994Y-115996196D01*
X173605566Y-116853339D02*
X173534137Y-116924768D01*
X173534137Y-116924768D02*
X173605566Y-116996196D01*
X173605566Y-116996196D02*
X173676994Y-116924768D01*
X173676994Y-116924768D02*
X173605566Y-116853339D01*
X173605566Y-116853339D02*
X173605566Y-116996196D01*
X171891280Y-115496196D02*
X170962708Y-115496196D01*
X170962708Y-115496196D02*
X171462708Y-116067625D01*
X171462708Y-116067625D02*
X171248423Y-116067625D01*
X171248423Y-116067625D02*
X171105566Y-116139053D01*
X171105566Y-116139053D02*
X171034137Y-116210482D01*
X171034137Y-116210482D02*
X170962708Y-116353339D01*
X170962708Y-116353339D02*
X170962708Y-116710482D01*
X170962708Y-116710482D02*
X171034137Y-116853339D01*
X171034137Y-116853339D02*
X171105566Y-116924768D01*
X171105566Y-116924768D02*
X171248423Y-116996196D01*
X171248423Y-116996196D02*
X171676994Y-116996196D01*
X171676994Y-116996196D02*
X171819851Y-116924768D01*
X171819851Y-116924768D02*
X171891280Y-116853339D01*
X204391279Y-118625398D02*
X204176993Y-118696826D01*
X204176993Y-118696826D02*
X204105564Y-118768255D01*
X204105564Y-118768255D02*
X204034136Y-118911112D01*
X204034136Y-118911112D02*
X204034136Y-119125398D01*
X204034136Y-119125398D02*
X204105564Y-119268255D01*
X204105564Y-119268255D02*
X204176993Y-119339684D01*
X204176993Y-119339684D02*
X204319850Y-119411112D01*
X204319850Y-119411112D02*
X204891279Y-119411112D01*
X204891279Y-119411112D02*
X204891279Y-117911112D01*
X204891279Y-117911112D02*
X204391279Y-117911112D01*
X204391279Y-117911112D02*
X204248422Y-117982541D01*
X204248422Y-117982541D02*
X204176993Y-118053969D01*
X204176993Y-118053969D02*
X204105564Y-118196826D01*
X204105564Y-118196826D02*
X204105564Y-118339684D01*
X204105564Y-118339684D02*
X204176993Y-118482541D01*
X204176993Y-118482541D02*
X204248422Y-118553969D01*
X204248422Y-118553969D02*
X204391279Y-118625398D01*
X204391279Y-118625398D02*
X204891279Y-118625398D01*
X202819850Y-119339684D02*
X202962707Y-119411112D01*
X202962707Y-119411112D02*
X203248422Y-119411112D01*
X203248422Y-119411112D02*
X203391279Y-119339684D01*
X203391279Y-119339684D02*
X203462707Y-119196826D01*
X203462707Y-119196826D02*
X203462707Y-118625398D01*
X203462707Y-118625398D02*
X203391279Y-118482541D01*
X203391279Y-118482541D02*
X203248422Y-118411112D01*
X203248422Y-118411112D02*
X202962707Y-118411112D01*
X202962707Y-118411112D02*
X202819850Y-118482541D01*
X202819850Y-118482541D02*
X202748422Y-118625398D01*
X202748422Y-118625398D02*
X202748422Y-118768255D01*
X202748422Y-118768255D02*
X203462707Y-118911112D01*
X202105565Y-119411112D02*
X202105565Y-118411112D01*
X202105565Y-118696826D02*
X202034136Y-118553969D01*
X202034136Y-118553969D02*
X201962708Y-118482541D01*
X201962708Y-118482541D02*
X201819850Y-118411112D01*
X201819850Y-118411112D02*
X201676993Y-118411112D01*
X201391279Y-118411112D02*
X200819851Y-118411112D01*
X201176994Y-117911112D02*
X201176994Y-119196826D01*
X201176994Y-119196826D02*
X201105565Y-119339684D01*
X201105565Y-119339684D02*
X200962708Y-119411112D01*
X200962708Y-119411112D02*
X200819851Y-119411112D01*
X198319851Y-119268255D02*
X198391279Y-119339684D01*
X198391279Y-119339684D02*
X198605565Y-119411112D01*
X198605565Y-119411112D02*
X198748422Y-119411112D01*
X198748422Y-119411112D02*
X198962708Y-119339684D01*
X198962708Y-119339684D02*
X199105565Y-119196826D01*
X199105565Y-119196826D02*
X199176994Y-119053969D01*
X199176994Y-119053969D02*
X199248422Y-118768255D01*
X199248422Y-118768255D02*
X199248422Y-118553969D01*
X199248422Y-118553969D02*
X199176994Y-118268255D01*
X199176994Y-118268255D02*
X199105565Y-118125398D01*
X199105565Y-118125398D02*
X198962708Y-117982541D01*
X198962708Y-117982541D02*
X198748422Y-117911112D01*
X198748422Y-117911112D02*
X198605565Y-117911112D01*
X198605565Y-117911112D02*
X198391279Y-117982541D01*
X198391279Y-117982541D02*
X198319851Y-118053969D01*
X197462708Y-119411112D02*
X197605565Y-119339684D01*
X197605565Y-119339684D02*
X197676994Y-119268255D01*
X197676994Y-119268255D02*
X197748422Y-119125398D01*
X197748422Y-119125398D02*
X197748422Y-118696826D01*
X197748422Y-118696826D02*
X197676994Y-118553969D01*
X197676994Y-118553969D02*
X197605565Y-118482541D01*
X197605565Y-118482541D02*
X197462708Y-118411112D01*
X197462708Y-118411112D02*
X197248422Y-118411112D01*
X197248422Y-118411112D02*
X197105565Y-118482541D01*
X197105565Y-118482541D02*
X197034137Y-118553969D01*
X197034137Y-118553969D02*
X196962708Y-118696826D01*
X196962708Y-118696826D02*
X196962708Y-119125398D01*
X196962708Y-119125398D02*
X197034137Y-119268255D01*
X197034137Y-119268255D02*
X197105565Y-119339684D01*
X197105565Y-119339684D02*
X197248422Y-119411112D01*
X197248422Y-119411112D02*
X197462708Y-119411112D01*
X196105565Y-119411112D02*
X196248422Y-119339684D01*
X196248422Y-119339684D02*
X196319851Y-119268255D01*
X196319851Y-119268255D02*
X196391279Y-119125398D01*
X196391279Y-119125398D02*
X196391279Y-118696826D01*
X196391279Y-118696826D02*
X196319851Y-118553969D01*
X196319851Y-118553969D02*
X196248422Y-118482541D01*
X196248422Y-118482541D02*
X196105565Y-118411112D01*
X196105565Y-118411112D02*
X195891279Y-118411112D01*
X195891279Y-118411112D02*
X195748422Y-118482541D01*
X195748422Y-118482541D02*
X195676994Y-118553969D01*
X195676994Y-118553969D02*
X195605565Y-118696826D01*
X195605565Y-118696826D02*
X195605565Y-119125398D01*
X195605565Y-119125398D02*
X195676994Y-119268255D01*
X195676994Y-119268255D02*
X195748422Y-119339684D01*
X195748422Y-119339684D02*
X195891279Y-119411112D01*
X195891279Y-119411112D02*
X196105565Y-119411112D01*
X194962708Y-118411112D02*
X194962708Y-119911112D01*
X194962708Y-118482541D02*
X194819851Y-118411112D01*
X194819851Y-118411112D02*
X194534136Y-118411112D01*
X194534136Y-118411112D02*
X194391279Y-118482541D01*
X194391279Y-118482541D02*
X194319851Y-118553969D01*
X194319851Y-118553969D02*
X194248422Y-118696826D01*
X194248422Y-118696826D02*
X194248422Y-119125398D01*
X194248422Y-119125398D02*
X194319851Y-119268255D01*
X194319851Y-119268255D02*
X194391279Y-119339684D01*
X194391279Y-119339684D02*
X194534136Y-119411112D01*
X194534136Y-119411112D02*
X194819851Y-119411112D01*
X194819851Y-119411112D02*
X194962708Y-119339684D01*
X193034136Y-119339684D02*
X193176993Y-119411112D01*
X193176993Y-119411112D02*
X193462708Y-119411112D01*
X193462708Y-119411112D02*
X193605565Y-119339684D01*
X193605565Y-119339684D02*
X193676993Y-119196826D01*
X193676993Y-119196826D02*
X193676993Y-118625398D01*
X193676993Y-118625398D02*
X193605565Y-118482541D01*
X193605565Y-118482541D02*
X193462708Y-118411112D01*
X193462708Y-118411112D02*
X193176993Y-118411112D01*
X193176993Y-118411112D02*
X193034136Y-118482541D01*
X193034136Y-118482541D02*
X192962708Y-118625398D01*
X192962708Y-118625398D02*
X192962708Y-118768255D01*
X192962708Y-118768255D02*
X193676993Y-118911112D01*
X192319851Y-119411112D02*
X192319851Y-118411112D01*
X192319851Y-118696826D02*
X192248422Y-118553969D01*
X192248422Y-118553969D02*
X192176994Y-118482541D01*
X192176994Y-118482541D02*
X192034136Y-118411112D01*
X192034136Y-118411112D02*
X191891279Y-118411112D01*
X189534137Y-119411112D02*
X190248423Y-119411112D01*
X190248423Y-119411112D02*
X190248423Y-117911112D01*
X188391280Y-119411112D02*
X188391280Y-118625398D01*
X188391280Y-118625398D02*
X188462708Y-118482541D01*
X188462708Y-118482541D02*
X188605565Y-118411112D01*
X188605565Y-118411112D02*
X188891280Y-118411112D01*
X188891280Y-118411112D02*
X189034137Y-118482541D01*
X188391280Y-119339684D02*
X188534137Y-119411112D01*
X188534137Y-119411112D02*
X188891280Y-119411112D01*
X188891280Y-119411112D02*
X189034137Y-119339684D01*
X189034137Y-119339684D02*
X189105565Y-119196826D01*
X189105565Y-119196826D02*
X189105565Y-119053969D01*
X189105565Y-119053969D02*
X189034137Y-118911112D01*
X189034137Y-118911112D02*
X188891280Y-118839684D01*
X188891280Y-118839684D02*
X188534137Y-118839684D01*
X188534137Y-118839684D02*
X188391280Y-118768255D01*
X187676994Y-119411112D02*
X187676994Y-117911112D01*
X187676994Y-118482541D02*
X187534137Y-118411112D01*
X187534137Y-118411112D02*
X187248422Y-118411112D01*
X187248422Y-118411112D02*
X187105565Y-118482541D01*
X187105565Y-118482541D02*
X187034137Y-118553969D01*
X187034137Y-118553969D02*
X186962708Y-118696826D01*
X186962708Y-118696826D02*
X186962708Y-119125398D01*
X186962708Y-119125398D02*
X187034137Y-119268255D01*
X187034137Y-119268255D02*
X187105565Y-119339684D01*
X187105565Y-119339684D02*
X187248422Y-119411112D01*
X187248422Y-119411112D02*
X187534137Y-119411112D01*
X187534137Y-119411112D02*
X187676994Y-119339684D01*
X204605564Y-120326028D02*
X204319850Y-120326028D01*
X204319850Y-120326028D02*
X204176993Y-120397457D01*
X204176993Y-120397457D02*
X204034136Y-120540314D01*
X204034136Y-120540314D02*
X203962707Y-120826028D01*
X203962707Y-120826028D02*
X203962707Y-121326028D01*
X203962707Y-121326028D02*
X204034136Y-121611742D01*
X204034136Y-121611742D02*
X204176993Y-121754600D01*
X204176993Y-121754600D02*
X204319850Y-121826028D01*
X204319850Y-121826028D02*
X204605564Y-121826028D01*
X204605564Y-121826028D02*
X204748422Y-121754600D01*
X204748422Y-121754600D02*
X204891279Y-121611742D01*
X204891279Y-121611742D02*
X204962707Y-121326028D01*
X204962707Y-121326028D02*
X204962707Y-120826028D01*
X204962707Y-120826028D02*
X204891279Y-120540314D01*
X204891279Y-120540314D02*
X204748422Y-120397457D01*
X204748422Y-120397457D02*
X204605564Y-120326028D01*
X203319850Y-121826028D02*
X203319850Y-120326028D01*
X203176993Y-121254600D02*
X202748421Y-121826028D01*
X202748421Y-120826028D02*
X203319850Y-121397457D01*
X201891278Y-121826028D02*
X202034135Y-121754600D01*
X202034135Y-121754600D02*
X202105564Y-121611742D01*
X202105564Y-121611742D02*
X202105564Y-120326028D01*
X200676993Y-121826028D02*
X200676993Y-121040314D01*
X200676993Y-121040314D02*
X200748421Y-120897457D01*
X200748421Y-120897457D02*
X200891278Y-120826028D01*
X200891278Y-120826028D02*
X201176993Y-120826028D01*
X201176993Y-120826028D02*
X201319850Y-120897457D01*
X200676993Y-121754600D02*
X200819850Y-121826028D01*
X200819850Y-121826028D02*
X201176993Y-121826028D01*
X201176993Y-121826028D02*
X201319850Y-121754600D01*
X201319850Y-121754600D02*
X201391278Y-121611742D01*
X201391278Y-121611742D02*
X201391278Y-121468885D01*
X201391278Y-121468885D02*
X201319850Y-121326028D01*
X201319850Y-121326028D02*
X201176993Y-121254600D01*
X201176993Y-121254600D02*
X200819850Y-121254600D01*
X200819850Y-121254600D02*
X200676993Y-121183171D01*
X199962707Y-121826028D02*
X199962707Y-120326028D01*
X199319850Y-121826028D02*
X199319850Y-121040314D01*
X199319850Y-121040314D02*
X199391278Y-120897457D01*
X199391278Y-120897457D02*
X199534135Y-120826028D01*
X199534135Y-120826028D02*
X199748421Y-120826028D01*
X199748421Y-120826028D02*
X199891278Y-120897457D01*
X199891278Y-120897457D02*
X199962707Y-120968885D01*
X198391278Y-121826028D02*
X198534135Y-121754600D01*
X198534135Y-121754600D02*
X198605564Y-121683171D01*
X198605564Y-121683171D02*
X198676992Y-121540314D01*
X198676992Y-121540314D02*
X198676992Y-121111742D01*
X198676992Y-121111742D02*
X198605564Y-120968885D01*
X198605564Y-120968885D02*
X198534135Y-120897457D01*
X198534135Y-120897457D02*
X198391278Y-120826028D01*
X198391278Y-120826028D02*
X198176992Y-120826028D01*
X198176992Y-120826028D02*
X198034135Y-120897457D01*
X198034135Y-120897457D02*
X197962707Y-120968885D01*
X197962707Y-120968885D02*
X197891278Y-121111742D01*
X197891278Y-121111742D02*
X197891278Y-121540314D01*
X197891278Y-121540314D02*
X197962707Y-121683171D01*
X197962707Y-121683171D02*
X198034135Y-121754600D01*
X198034135Y-121754600D02*
X198176992Y-121826028D01*
X198176992Y-121826028D02*
X198391278Y-121826028D01*
X197248421Y-121826028D02*
X197248421Y-120826028D01*
X197248421Y-120968885D02*
X197176992Y-120897457D01*
X197176992Y-120897457D02*
X197034135Y-120826028D01*
X197034135Y-120826028D02*
X196819849Y-120826028D01*
X196819849Y-120826028D02*
X196676992Y-120897457D01*
X196676992Y-120897457D02*
X196605564Y-121040314D01*
X196605564Y-121040314D02*
X196605564Y-121826028D01*
X196605564Y-121040314D02*
X196534135Y-120897457D01*
X196534135Y-120897457D02*
X196391278Y-120826028D01*
X196391278Y-120826028D02*
X196176992Y-120826028D01*
X196176992Y-120826028D02*
X196034135Y-120897457D01*
X196034135Y-120897457D02*
X195962706Y-121040314D01*
X195962706Y-121040314D02*
X195962706Y-121826028D01*
X194605564Y-121826028D02*
X194605564Y-121040314D01*
X194605564Y-121040314D02*
X194676992Y-120897457D01*
X194676992Y-120897457D02*
X194819849Y-120826028D01*
X194819849Y-120826028D02*
X195105564Y-120826028D01*
X195105564Y-120826028D02*
X195248421Y-120897457D01*
X194605564Y-121754600D02*
X194748421Y-121826028D01*
X194748421Y-121826028D02*
X195105564Y-121826028D01*
X195105564Y-121826028D02*
X195248421Y-121754600D01*
X195248421Y-121754600D02*
X195319849Y-121611742D01*
X195319849Y-121611742D02*
X195319849Y-121468885D01*
X195319849Y-121468885D02*
X195248421Y-121326028D01*
X195248421Y-121326028D02*
X195105564Y-121254600D01*
X195105564Y-121254600D02*
X194748421Y-121254600D01*
X194748421Y-121254600D02*
X194605564Y-121183171D01*
X192819849Y-121754600D02*
X192605564Y-121826028D01*
X192605564Y-121826028D02*
X192248421Y-121826028D01*
X192248421Y-121826028D02*
X192105564Y-121754600D01*
X192105564Y-121754600D02*
X192034135Y-121683171D01*
X192034135Y-121683171D02*
X191962706Y-121540314D01*
X191962706Y-121540314D02*
X191962706Y-121397457D01*
X191962706Y-121397457D02*
X192034135Y-121254600D01*
X192034135Y-121254600D02*
X192105564Y-121183171D01*
X192105564Y-121183171D02*
X192248421Y-121111742D01*
X192248421Y-121111742D02*
X192534135Y-121040314D01*
X192534135Y-121040314D02*
X192676992Y-120968885D01*
X192676992Y-120968885D02*
X192748421Y-120897457D01*
X192748421Y-120897457D02*
X192819849Y-120754600D01*
X192819849Y-120754600D02*
X192819849Y-120611742D01*
X192819849Y-120611742D02*
X192748421Y-120468885D01*
X192748421Y-120468885D02*
X192676992Y-120397457D01*
X192676992Y-120397457D02*
X192534135Y-120326028D01*
X192534135Y-120326028D02*
X192176992Y-120326028D01*
X192176992Y-120326028D02*
X191962706Y-120397457D01*
X191534135Y-120826028D02*
X190962707Y-120826028D01*
X191319850Y-120326028D02*
X191319850Y-121611742D01*
X191319850Y-121611742D02*
X191248421Y-121754600D01*
X191248421Y-121754600D02*
X191105564Y-121826028D01*
X191105564Y-121826028D02*
X190962707Y-121826028D01*
X189819850Y-121826028D02*
X189819850Y-121040314D01*
X189819850Y-121040314D02*
X189891278Y-120897457D01*
X189891278Y-120897457D02*
X190034135Y-120826028D01*
X190034135Y-120826028D02*
X190319850Y-120826028D01*
X190319850Y-120826028D02*
X190462707Y-120897457D01*
X189819850Y-121754600D02*
X189962707Y-121826028D01*
X189962707Y-121826028D02*
X190319850Y-121826028D01*
X190319850Y-121826028D02*
X190462707Y-121754600D01*
X190462707Y-121754600D02*
X190534135Y-121611742D01*
X190534135Y-121611742D02*
X190534135Y-121468885D01*
X190534135Y-121468885D02*
X190462707Y-121326028D01*
X190462707Y-121326028D02*
X190319850Y-121254600D01*
X190319850Y-121254600D02*
X189962707Y-121254600D01*
X189962707Y-121254600D02*
X189819850Y-121183171D01*
X189319849Y-120826028D02*
X188748421Y-120826028D01*
X189105564Y-120326028D02*
X189105564Y-121611742D01*
X189105564Y-121611742D02*
X189034135Y-121754600D01*
X189034135Y-121754600D02*
X188891278Y-121826028D01*
X188891278Y-121826028D02*
X188748421Y-121826028D01*
X187676992Y-121754600D02*
X187819849Y-121826028D01*
X187819849Y-121826028D02*
X188105564Y-121826028D01*
X188105564Y-121826028D02*
X188248421Y-121754600D01*
X188248421Y-121754600D02*
X188319849Y-121611742D01*
X188319849Y-121611742D02*
X188319849Y-121040314D01*
X188319849Y-121040314D02*
X188248421Y-120897457D01*
X188248421Y-120897457D02*
X188105564Y-120826028D01*
X188105564Y-120826028D02*
X187819849Y-120826028D01*
X187819849Y-120826028D02*
X187676992Y-120897457D01*
X187676992Y-120897457D02*
X187605564Y-121040314D01*
X187605564Y-121040314D02*
X187605564Y-121183171D01*
X187605564Y-121183171D02*
X188319849Y-121326028D01*
X185819850Y-120326028D02*
X185819850Y-121540314D01*
X185819850Y-121540314D02*
X185748421Y-121683171D01*
X185748421Y-121683171D02*
X185676993Y-121754600D01*
X185676993Y-121754600D02*
X185534135Y-121826028D01*
X185534135Y-121826028D02*
X185248421Y-121826028D01*
X185248421Y-121826028D02*
X185105564Y-121754600D01*
X185105564Y-121754600D02*
X185034135Y-121683171D01*
X185034135Y-121683171D02*
X184962707Y-121540314D01*
X184962707Y-121540314D02*
X184962707Y-120326028D01*
X184248421Y-120826028D02*
X184248421Y-121826028D01*
X184248421Y-120968885D02*
X184176992Y-120897457D01*
X184176992Y-120897457D02*
X184034135Y-120826028D01*
X184034135Y-120826028D02*
X183819849Y-120826028D01*
X183819849Y-120826028D02*
X183676992Y-120897457D01*
X183676992Y-120897457D02*
X183605564Y-121040314D01*
X183605564Y-121040314D02*
X183605564Y-121826028D01*
X182891278Y-121826028D02*
X182891278Y-120826028D01*
X182891278Y-120326028D02*
X182962706Y-120397457D01*
X182962706Y-120397457D02*
X182891278Y-120468885D01*
X182891278Y-120468885D02*
X182819849Y-120397457D01*
X182819849Y-120397457D02*
X182891278Y-120326028D01*
X182891278Y-120326028D02*
X182891278Y-120468885D01*
X182319849Y-120826028D02*
X181962706Y-121826028D01*
X181962706Y-121826028D02*
X181605563Y-120826028D01*
X180462706Y-121754600D02*
X180605563Y-121826028D01*
X180605563Y-121826028D02*
X180891278Y-121826028D01*
X180891278Y-121826028D02*
X181034135Y-121754600D01*
X181034135Y-121754600D02*
X181105563Y-121611742D01*
X181105563Y-121611742D02*
X181105563Y-121040314D01*
X181105563Y-121040314D02*
X181034135Y-120897457D01*
X181034135Y-120897457D02*
X180891278Y-120826028D01*
X180891278Y-120826028D02*
X180605563Y-120826028D01*
X180605563Y-120826028D02*
X180462706Y-120897457D01*
X180462706Y-120897457D02*
X180391278Y-121040314D01*
X180391278Y-121040314D02*
X180391278Y-121183171D01*
X180391278Y-121183171D02*
X181105563Y-121326028D01*
X179748421Y-121826028D02*
X179748421Y-120826028D01*
X179748421Y-121111742D02*
X179676992Y-120968885D01*
X179676992Y-120968885D02*
X179605564Y-120897457D01*
X179605564Y-120897457D02*
X179462706Y-120826028D01*
X179462706Y-120826028D02*
X179319849Y-120826028D01*
X178891278Y-121754600D02*
X178748421Y-121826028D01*
X178748421Y-121826028D02*
X178462707Y-121826028D01*
X178462707Y-121826028D02*
X178319850Y-121754600D01*
X178319850Y-121754600D02*
X178248421Y-121611742D01*
X178248421Y-121611742D02*
X178248421Y-121540314D01*
X178248421Y-121540314D02*
X178319850Y-121397457D01*
X178319850Y-121397457D02*
X178462707Y-121326028D01*
X178462707Y-121326028D02*
X178676993Y-121326028D01*
X178676993Y-121326028D02*
X178819850Y-121254600D01*
X178819850Y-121254600D02*
X178891278Y-121111742D01*
X178891278Y-121111742D02*
X178891278Y-121040314D01*
X178891278Y-121040314D02*
X178819850Y-120897457D01*
X178819850Y-120897457D02*
X178676993Y-120826028D01*
X178676993Y-120826028D02*
X178462707Y-120826028D01*
X178462707Y-120826028D02*
X178319850Y-120897457D01*
X177605564Y-121826028D02*
X177605564Y-120826028D01*
X177605564Y-120326028D02*
X177676992Y-120397457D01*
X177676992Y-120397457D02*
X177605564Y-120468885D01*
X177605564Y-120468885D02*
X177534135Y-120397457D01*
X177534135Y-120397457D02*
X177605564Y-120326028D01*
X177605564Y-120326028D02*
X177605564Y-120468885D01*
X177105563Y-120826028D02*
X176534135Y-120826028D01*
X176891278Y-120326028D02*
X176891278Y-121611742D01*
X176891278Y-121611742D02*
X176819849Y-121754600D01*
X176819849Y-121754600D02*
X176676992Y-121826028D01*
X176676992Y-121826028D02*
X176534135Y-121826028D01*
X176176992Y-120826028D02*
X175819849Y-121826028D01*
X175462706Y-120826028D02*
X175819849Y-121826028D01*
X175819849Y-121826028D02*
X175962706Y-122183171D01*
X175962706Y-122183171D02*
X176034135Y-122254600D01*
X176034135Y-122254600D02*
X176176992Y-122326028D01*
D11*
X138727000Y-87230000D02*
G75*
G02*
X138473000Y-87230000I-127000J0D01*
G01*
X138473000Y-87230000D02*
G75*
G02*
X138727000Y-87230000I127000J0D01*
G01*
%LPC*%
D12*
X164360000Y-81930000D03*
D13*
X164360000Y-79390000D03*
X166900000Y-81930000D03*
X166900000Y-79390000D03*
X169440000Y-81930000D03*
X169440000Y-79390000D03*
D12*
X189240000Y-79670000D03*
D13*
X189240000Y-82210000D03*
X189240000Y-84750000D03*
X189240000Y-87290000D03*
X189240000Y-89830000D03*
X189240000Y-92370000D03*
X189240000Y-94910000D03*
X189240000Y-97450000D03*
X189240000Y-99990000D03*
D12*
X164700000Y-108470000D03*
D13*
X167240000Y-108470000D03*
X169780000Y-108470000D03*
X172320000Y-108470000D03*
X174860000Y-108470000D03*
X177400000Y-108470000D03*
X179940000Y-108470000D03*
X182480000Y-108470000D03*
X185020000Y-108470000D03*
X187560000Y-108470000D03*
X190100000Y-108470000D03*
X192640000Y-108470000D03*
X195180000Y-108470000D03*
X197720000Y-108470000D03*
X200260000Y-108470000D03*
X202800000Y-108470000D03*
D14*
X164460000Y-90630000D03*
D15*
X172080000Y-90630000D03*
D12*
X176860000Y-81950000D03*
D13*
X176860000Y-79410000D03*
X179400000Y-81950000D03*
X179400000Y-79410000D03*
X181940000Y-81950000D03*
X181940000Y-79410000D03*
D16*
X178400000Y-90630000D03*
D17*
X175860000Y-90630000D03*
D12*
X164700000Y-128770000D03*
D13*
X167240000Y-128770000D03*
X169780000Y-128770000D03*
X172320000Y-128770000D03*
X174860000Y-128770000D03*
X177400000Y-128770000D03*
X179940000Y-128770000D03*
X182480000Y-128770000D03*
X185020000Y-128770000D03*
X187560000Y-128770000D03*
X190100000Y-128770000D03*
X192640000Y-128770000D03*
D12*
X151870000Y-81930000D03*
D13*
X151870000Y-79390000D03*
X154410000Y-81930000D03*
X154410000Y-79390000D03*
X156950000Y-81930000D03*
X156950000Y-79390000D03*
D12*
X158010000Y-96000000D03*
D13*
X158010000Y-93460000D03*
D16*
X178400000Y-98670000D03*
D17*
X175860000Y-98670000D03*
D18*
X144850000Y-90310000D03*
X144850000Y-99310000D03*
D19*
X138600000Y-92310000D03*
X151100000Y-92310000D03*
X138600000Y-97310000D03*
X151100000Y-97310000D03*
D14*
X164460000Y-98670000D03*
D15*
X172080000Y-98670000D03*
D12*
X139270000Y-81970000D03*
D13*
X139270000Y-79430000D03*
X141810000Y-81970000D03*
X141810000Y-79430000D03*
X144350000Y-81970000D03*
X144350000Y-79430000D03*
%LPD*%
M02*
