%TF.GenerationSoftware,KiCad,Pcbnew,8.0.6*%
%TF.CreationDate,2025-01-17T10:20:18-06:00*%
%TF.ProjectId,Quake_PCB_3,5175616b-655f-4504-9342-5f332e6b6963,rev?*%
%TF.SameCoordinates,Original*%
%TF.FileFunction,Drillmap*%
%TF.FilePolarity,Positive*%
%FSLAX45Y45*%
G04 Gerber Fmt 4.5, Leading zero omitted, Abs format (unit mm)*
G04 Created by KiCad (PCBNEW 8.0.6) date 2025-01-17 10:20:18*
%MOMM*%
%LPD*%
G01*
G04 APERTURE LIST*
%ADD10C,0.050000*%
%ADD11C,0.200000*%
%ADD12C,0.179999*%
G04 APERTURE END LIST*
D10*
X15784023Y-13660032D02*
G75*
G02*
X15285000Y-13153000I1977J501032D01*
G01*
X13615000Y-10395000D02*
G75*
G02*
X13355000Y-10395000I-130000J0D01*
G01*
X13355000Y-10395000D02*
G75*
G02*
X13615000Y-10395000I130000J0D01*
G01*
X21115000Y-9647000D02*
X21114000Y-8521000D01*
X20935000Y-13661000D02*
X15784023Y-13660032D01*
X20834000Y-7969000D02*
G75*
G02*
X20574000Y-7969000I-130000J0D01*
G01*
X20574000Y-7969000D02*
G75*
G02*
X20834000Y-7969000I130000J0D01*
G01*
X14784000Y-10718000D02*
X13672000Y-10716000D01*
X21443004Y-13155000D02*
X21443956Y-9981000D01*
X21444000Y-8191000D02*
X21447999Y-7689994D01*
X21258000Y-7501000D02*
G75*
G02*
X20998000Y-7501000I-130000J0D01*
G01*
X20998000Y-7501000D02*
G75*
G02*
X21258000Y-7501000I130000J0D01*
G01*
X21250000Y-13345000D02*
G75*
G02*
X20990000Y-13345000I-130000J0D01*
G01*
X20990000Y-13345000D02*
G75*
G02*
X21250000Y-13345000I130000J0D01*
G01*
X13672000Y-10716000D02*
G75*
G02*
X13173995Y-10216984I3000J501000D01*
G01*
X15285000Y-13153000D02*
X15288000Y-11222000D01*
X21114000Y-8521000D02*
G75*
G02*
X21285000Y-8350000I171000J0D01*
G01*
X21285000Y-9821047D02*
G75*
G02*
X21443956Y-9981000I-1000J-159953D01*
G01*
X13681000Y-7186991D02*
X20944000Y-7187000D01*
X21285000Y-9821047D02*
G75*
G02*
X21115000Y-9647000I0J170047D01*
G01*
X14784000Y-10718000D02*
G75*
G02*
X15288000Y-11222000I0J-504000D01*
G01*
X21444000Y-8191000D02*
G75*
G02*
X21285000Y-8350000I-159000J0D01*
G01*
X20944000Y-7187000D02*
G75*
G02*
X21447999Y-7689994I0J-504000D01*
G01*
X13173995Y-10216984D02*
X13173000Y-7698000D01*
X13629000Y-7506000D02*
G75*
G02*
X13369000Y-7506000I-130000J0D01*
G01*
X13369000Y-7506000D02*
G75*
G02*
X13629000Y-7506000I130000J0D01*
G01*
X20829173Y-9999000D02*
G75*
G02*
X20568827Y-9999000I-130173J0D01*
G01*
X20568827Y-9999000D02*
G75*
G02*
X20829173Y-9999000I130173J0D01*
G01*
X21443004Y-13155000D02*
G75*
G02*
X20935000Y-13661000I-506004J0D01*
G01*
X13173000Y-7698000D02*
G75*
G02*
X13681000Y-7186991I508000J3000D01*
G01*
X15734000Y-13341000D02*
G75*
G02*
X15474000Y-13341000I-130000J0D01*
G01*
X15474000Y-13341000D02*
G75*
G02*
X15734000Y-13341000I130000J0D01*
G01*
D11*
D12*
X14395000Y-8941000D02*
X14575000Y-9121000D01*
X14575000Y-8941000D02*
X14395000Y-9121000D01*
X14395000Y-9841000D02*
X14575000Y-10021000D01*
X14575000Y-9841000D02*
X14395000Y-10021000D01*
D11*
X13431268Y-13974988D02*
X13431268Y-13774988D01*
X13431268Y-13774988D02*
X13478887Y-13774988D01*
X13478887Y-13774988D02*
X13507458Y-13784511D01*
X13507458Y-13784511D02*
X13526506Y-13803559D01*
X13526506Y-13803559D02*
X13536030Y-13822607D01*
X13536030Y-13822607D02*
X13545554Y-13860702D01*
X13545554Y-13860702D02*
X13545554Y-13889273D01*
X13545554Y-13889273D02*
X13536030Y-13927369D01*
X13536030Y-13927369D02*
X13526506Y-13946416D01*
X13526506Y-13946416D02*
X13507458Y-13965464D01*
X13507458Y-13965464D02*
X13478887Y-13974988D01*
X13478887Y-13974988D02*
X13431268Y-13974988D01*
X13631268Y-13974988D02*
X13631268Y-13841654D01*
X13631268Y-13879750D02*
X13640792Y-13860702D01*
X13640792Y-13860702D02*
X13650316Y-13851178D01*
X13650316Y-13851178D02*
X13669363Y-13841654D01*
X13669363Y-13841654D02*
X13688411Y-13841654D01*
X13755077Y-13974988D02*
X13755077Y-13841654D01*
X13755077Y-13774988D02*
X13745554Y-13784511D01*
X13745554Y-13784511D02*
X13755077Y-13794035D01*
X13755077Y-13794035D02*
X13764601Y-13784511D01*
X13764601Y-13784511D02*
X13755077Y-13774988D01*
X13755077Y-13774988D02*
X13755077Y-13794035D01*
X13878887Y-13974988D02*
X13859839Y-13965464D01*
X13859839Y-13965464D02*
X13850316Y-13946416D01*
X13850316Y-13946416D02*
X13850316Y-13774988D01*
X13983649Y-13974988D02*
X13964601Y-13965464D01*
X13964601Y-13965464D02*
X13955077Y-13946416D01*
X13955077Y-13946416D02*
X13955077Y-13774988D01*
X14212220Y-13974988D02*
X14212220Y-13774988D01*
X14212220Y-13774988D02*
X14278887Y-13917845D01*
X14278887Y-13917845D02*
X14345554Y-13774988D01*
X14345554Y-13774988D02*
X14345554Y-13974988D01*
X14526506Y-13974988D02*
X14526506Y-13870226D01*
X14526506Y-13870226D02*
X14516982Y-13851178D01*
X14516982Y-13851178D02*
X14497935Y-13841654D01*
X14497935Y-13841654D02*
X14459839Y-13841654D01*
X14459839Y-13841654D02*
X14440792Y-13851178D01*
X14526506Y-13965464D02*
X14507458Y-13974988D01*
X14507458Y-13974988D02*
X14459839Y-13974988D01*
X14459839Y-13974988D02*
X14440792Y-13965464D01*
X14440792Y-13965464D02*
X14431268Y-13946416D01*
X14431268Y-13946416D02*
X14431268Y-13927369D01*
X14431268Y-13927369D02*
X14440792Y-13908321D01*
X14440792Y-13908321D02*
X14459839Y-13898797D01*
X14459839Y-13898797D02*
X14507458Y-13898797D01*
X14507458Y-13898797D02*
X14526506Y-13889273D01*
X14621744Y-13841654D02*
X14621744Y-14041654D01*
X14621744Y-13851178D02*
X14640792Y-13841654D01*
X14640792Y-13841654D02*
X14678887Y-13841654D01*
X14678887Y-13841654D02*
X14697935Y-13851178D01*
X14697935Y-13851178D02*
X14707458Y-13860702D01*
X14707458Y-13860702D02*
X14716982Y-13879750D01*
X14716982Y-13879750D02*
X14716982Y-13936892D01*
X14716982Y-13936892D02*
X14707458Y-13955940D01*
X14707458Y-13955940D02*
X14697935Y-13965464D01*
X14697935Y-13965464D02*
X14678887Y-13974988D01*
X14678887Y-13974988D02*
X14640792Y-13974988D01*
X14640792Y-13974988D02*
X14621744Y-13965464D01*
X14802697Y-13955940D02*
X14812220Y-13965464D01*
X14812220Y-13965464D02*
X14802697Y-13974988D01*
X14802697Y-13974988D02*
X14793173Y-13965464D01*
X14793173Y-13965464D02*
X14802697Y-13955940D01*
X14802697Y-13955940D02*
X14802697Y-13974988D01*
X14802697Y-13851178D02*
X14812220Y-13860702D01*
X14812220Y-13860702D02*
X14802697Y-13870226D01*
X14802697Y-13870226D02*
X14793173Y-13860702D01*
X14793173Y-13860702D02*
X14802697Y-13851178D01*
X14802697Y-13851178D02*
X14802697Y-13870226D01*
D12*
X12990492Y-14213504D02*
X13170491Y-14393504D01*
X13170491Y-14213504D02*
X12990492Y-14393504D01*
D11*
X13536030Y-14394988D02*
X13421744Y-14394988D01*
X13478887Y-14394988D02*
X13478887Y-14194988D01*
X13478887Y-14194988D02*
X13459839Y-14223559D01*
X13459839Y-14223559D02*
X13440792Y-14242607D01*
X13440792Y-14242607D02*
X13421744Y-14252130D01*
X13621744Y-14375940D02*
X13631268Y-14385464D01*
X13631268Y-14385464D02*
X13621744Y-14394988D01*
X13621744Y-14394988D02*
X13612220Y-14385464D01*
X13612220Y-14385464D02*
X13621744Y-14375940D01*
X13621744Y-14375940D02*
X13621744Y-14394988D01*
X13745554Y-14280702D02*
X13726506Y-14271178D01*
X13726506Y-14271178D02*
X13716982Y-14261654D01*
X13716982Y-14261654D02*
X13707458Y-14242607D01*
X13707458Y-14242607D02*
X13707458Y-14233083D01*
X13707458Y-14233083D02*
X13716982Y-14214035D01*
X13716982Y-14214035D02*
X13726506Y-14204511D01*
X13726506Y-14204511D02*
X13745554Y-14194988D01*
X13745554Y-14194988D02*
X13783649Y-14194988D01*
X13783649Y-14194988D02*
X13802697Y-14204511D01*
X13802697Y-14204511D02*
X13812220Y-14214035D01*
X13812220Y-14214035D02*
X13821744Y-14233083D01*
X13821744Y-14233083D02*
X13821744Y-14242607D01*
X13821744Y-14242607D02*
X13812220Y-14261654D01*
X13812220Y-14261654D02*
X13802697Y-14271178D01*
X13802697Y-14271178D02*
X13783649Y-14280702D01*
X13783649Y-14280702D02*
X13745554Y-14280702D01*
X13745554Y-14280702D02*
X13726506Y-14290226D01*
X13726506Y-14290226D02*
X13716982Y-14299750D01*
X13716982Y-14299750D02*
X13707458Y-14318797D01*
X13707458Y-14318797D02*
X13707458Y-14356892D01*
X13707458Y-14356892D02*
X13716982Y-14375940D01*
X13716982Y-14375940D02*
X13726506Y-14385464D01*
X13726506Y-14385464D02*
X13745554Y-14394988D01*
X13745554Y-14394988D02*
X13783649Y-14394988D01*
X13783649Y-14394988D02*
X13802697Y-14385464D01*
X13802697Y-14385464D02*
X13812220Y-14375940D01*
X13812220Y-14375940D02*
X13821744Y-14356892D01*
X13821744Y-14356892D02*
X13821744Y-14318797D01*
X13821744Y-14318797D02*
X13812220Y-14299750D01*
X13812220Y-14299750D02*
X13802697Y-14290226D01*
X13802697Y-14290226D02*
X13783649Y-14280702D01*
X13945554Y-14194988D02*
X13964601Y-14194988D01*
X13964601Y-14194988D02*
X13983649Y-14204511D01*
X13983649Y-14204511D02*
X13993173Y-14214035D01*
X13993173Y-14214035D02*
X14002697Y-14233083D01*
X14002697Y-14233083D02*
X14012220Y-14271178D01*
X14012220Y-14271178D02*
X14012220Y-14318797D01*
X14012220Y-14318797D02*
X14002697Y-14356892D01*
X14002697Y-14356892D02*
X13993173Y-14375940D01*
X13993173Y-14375940D02*
X13983649Y-14385464D01*
X13983649Y-14385464D02*
X13964601Y-14394988D01*
X13964601Y-14394988D02*
X13945554Y-14394988D01*
X13945554Y-14394988D02*
X13926506Y-14385464D01*
X13926506Y-14385464D02*
X13916982Y-14375940D01*
X13916982Y-14375940D02*
X13907458Y-14356892D01*
X13907458Y-14356892D02*
X13897935Y-14318797D01*
X13897935Y-14318797D02*
X13897935Y-14271178D01*
X13897935Y-14271178D02*
X13907458Y-14233083D01*
X13907458Y-14233083D02*
X13916982Y-14214035D01*
X13916982Y-14214035D02*
X13926506Y-14204511D01*
X13926506Y-14204511D02*
X13945554Y-14194988D01*
X14136030Y-14194988D02*
X14155078Y-14194988D01*
X14155078Y-14194988D02*
X14174125Y-14204511D01*
X14174125Y-14204511D02*
X14183649Y-14214035D01*
X14183649Y-14214035D02*
X14193173Y-14233083D01*
X14193173Y-14233083D02*
X14202697Y-14271178D01*
X14202697Y-14271178D02*
X14202697Y-14318797D01*
X14202697Y-14318797D02*
X14193173Y-14356892D01*
X14193173Y-14356892D02*
X14183649Y-14375940D01*
X14183649Y-14375940D02*
X14174125Y-14385464D01*
X14174125Y-14385464D02*
X14155078Y-14394988D01*
X14155078Y-14394988D02*
X14136030Y-14394988D01*
X14136030Y-14394988D02*
X14116982Y-14385464D01*
X14116982Y-14385464D02*
X14107458Y-14375940D01*
X14107458Y-14375940D02*
X14097935Y-14356892D01*
X14097935Y-14356892D02*
X14088411Y-14318797D01*
X14088411Y-14318797D02*
X14088411Y-14271178D01*
X14088411Y-14271178D02*
X14097935Y-14233083D01*
X14097935Y-14233083D02*
X14107458Y-14214035D01*
X14107458Y-14214035D02*
X14116982Y-14204511D01*
X14116982Y-14204511D02*
X14136030Y-14194988D01*
X14288411Y-14394988D02*
X14288411Y-14261654D01*
X14288411Y-14280702D02*
X14297935Y-14271178D01*
X14297935Y-14271178D02*
X14316982Y-14261654D01*
X14316982Y-14261654D02*
X14345554Y-14261654D01*
X14345554Y-14261654D02*
X14364601Y-14271178D01*
X14364601Y-14271178D02*
X14374125Y-14290226D01*
X14374125Y-14290226D02*
X14374125Y-14394988D01*
X14374125Y-14290226D02*
X14383649Y-14271178D01*
X14383649Y-14271178D02*
X14402697Y-14261654D01*
X14402697Y-14261654D02*
X14431268Y-14261654D01*
X14431268Y-14261654D02*
X14450316Y-14271178D01*
X14450316Y-14271178D02*
X14459839Y-14290226D01*
X14459839Y-14290226D02*
X14459839Y-14394988D01*
X14555078Y-14394988D02*
X14555078Y-14261654D01*
X14555078Y-14280702D02*
X14564601Y-14271178D01*
X14564601Y-14271178D02*
X14583649Y-14261654D01*
X14583649Y-14261654D02*
X14612220Y-14261654D01*
X14612220Y-14261654D02*
X14631268Y-14271178D01*
X14631268Y-14271178D02*
X14640792Y-14290226D01*
X14640792Y-14290226D02*
X14640792Y-14394988D01*
X14640792Y-14290226D02*
X14650316Y-14271178D01*
X14650316Y-14271178D02*
X14669363Y-14261654D01*
X14669363Y-14261654D02*
X14697935Y-14261654D01*
X14697935Y-14261654D02*
X14716982Y-14271178D01*
X14716982Y-14271178D02*
X14726506Y-14290226D01*
X14726506Y-14290226D02*
X14726506Y-14394988D01*
X15116982Y-14185464D02*
X14945554Y-14442607D01*
X15374125Y-14194988D02*
X15393173Y-14194988D01*
X15393173Y-14194988D02*
X15412221Y-14204511D01*
X15412221Y-14204511D02*
X15421744Y-14214035D01*
X15421744Y-14214035D02*
X15431268Y-14233083D01*
X15431268Y-14233083D02*
X15440792Y-14271178D01*
X15440792Y-14271178D02*
X15440792Y-14318797D01*
X15440792Y-14318797D02*
X15431268Y-14356892D01*
X15431268Y-14356892D02*
X15421744Y-14375940D01*
X15421744Y-14375940D02*
X15412221Y-14385464D01*
X15412221Y-14385464D02*
X15393173Y-14394988D01*
X15393173Y-14394988D02*
X15374125Y-14394988D01*
X15374125Y-14394988D02*
X15355078Y-14385464D01*
X15355078Y-14385464D02*
X15345554Y-14375940D01*
X15345554Y-14375940D02*
X15336030Y-14356892D01*
X15336030Y-14356892D02*
X15326506Y-14318797D01*
X15326506Y-14318797D02*
X15326506Y-14271178D01*
X15326506Y-14271178D02*
X15336030Y-14233083D01*
X15336030Y-14233083D02*
X15345554Y-14214035D01*
X15345554Y-14214035D02*
X15355078Y-14204511D01*
X15355078Y-14204511D02*
X15374125Y-14194988D01*
X15526506Y-14375940D02*
X15536030Y-14385464D01*
X15536030Y-14385464D02*
X15526506Y-14394988D01*
X15526506Y-14394988D02*
X15516982Y-14385464D01*
X15516982Y-14385464D02*
X15526506Y-14375940D01*
X15526506Y-14375940D02*
X15526506Y-14394988D01*
X15659840Y-14194988D02*
X15678887Y-14194988D01*
X15678887Y-14194988D02*
X15697935Y-14204511D01*
X15697935Y-14204511D02*
X15707459Y-14214035D01*
X15707459Y-14214035D02*
X15716982Y-14233083D01*
X15716982Y-14233083D02*
X15726506Y-14271178D01*
X15726506Y-14271178D02*
X15726506Y-14318797D01*
X15726506Y-14318797D02*
X15716982Y-14356892D01*
X15716982Y-14356892D02*
X15707459Y-14375940D01*
X15707459Y-14375940D02*
X15697935Y-14385464D01*
X15697935Y-14385464D02*
X15678887Y-14394988D01*
X15678887Y-14394988D02*
X15659840Y-14394988D01*
X15659840Y-14394988D02*
X15640792Y-14385464D01*
X15640792Y-14385464D02*
X15631268Y-14375940D01*
X15631268Y-14375940D02*
X15621744Y-14356892D01*
X15621744Y-14356892D02*
X15612221Y-14318797D01*
X15612221Y-14318797D02*
X15612221Y-14271178D01*
X15612221Y-14271178D02*
X15621744Y-14233083D01*
X15621744Y-14233083D02*
X15631268Y-14214035D01*
X15631268Y-14214035D02*
X15640792Y-14204511D01*
X15640792Y-14204511D02*
X15659840Y-14194988D01*
X15793173Y-14194988D02*
X15926506Y-14194988D01*
X15926506Y-14194988D02*
X15840792Y-14394988D01*
X16040792Y-14194988D02*
X16059840Y-14194988D01*
X16059840Y-14194988D02*
X16078887Y-14204511D01*
X16078887Y-14204511D02*
X16088411Y-14214035D01*
X16088411Y-14214035D02*
X16097935Y-14233083D01*
X16097935Y-14233083D02*
X16107459Y-14271178D01*
X16107459Y-14271178D02*
X16107459Y-14318797D01*
X16107459Y-14318797D02*
X16097935Y-14356892D01*
X16097935Y-14356892D02*
X16088411Y-14375940D01*
X16088411Y-14375940D02*
X16078887Y-14385464D01*
X16078887Y-14385464D02*
X16059840Y-14394988D01*
X16059840Y-14394988D02*
X16040792Y-14394988D01*
X16040792Y-14394988D02*
X16021744Y-14385464D01*
X16021744Y-14385464D02*
X16012221Y-14375940D01*
X16012221Y-14375940D02*
X16002697Y-14356892D01*
X16002697Y-14356892D02*
X15993173Y-14318797D01*
X15993173Y-14318797D02*
X15993173Y-14271178D01*
X15993173Y-14271178D02*
X16002697Y-14233083D01*
X16002697Y-14233083D02*
X16012221Y-14214035D01*
X16012221Y-14214035D02*
X16021744Y-14204511D01*
X16021744Y-14204511D02*
X16040792Y-14194988D01*
X16202697Y-14394988D02*
X16240792Y-14394988D01*
X16240792Y-14394988D02*
X16259840Y-14385464D01*
X16259840Y-14385464D02*
X16269363Y-14375940D01*
X16269363Y-14375940D02*
X16288411Y-14347369D01*
X16288411Y-14347369D02*
X16297935Y-14309273D01*
X16297935Y-14309273D02*
X16297935Y-14233083D01*
X16297935Y-14233083D02*
X16288411Y-14214035D01*
X16288411Y-14214035D02*
X16278887Y-14204511D01*
X16278887Y-14204511D02*
X16259840Y-14194988D01*
X16259840Y-14194988D02*
X16221744Y-14194988D01*
X16221744Y-14194988D02*
X16202697Y-14204511D01*
X16202697Y-14204511D02*
X16193173Y-14214035D01*
X16193173Y-14214035D02*
X16183649Y-14233083D01*
X16183649Y-14233083D02*
X16183649Y-14280702D01*
X16183649Y-14280702D02*
X16193173Y-14299750D01*
X16193173Y-14299750D02*
X16202697Y-14309273D01*
X16202697Y-14309273D02*
X16221744Y-14318797D01*
X16221744Y-14318797D02*
X16259840Y-14318797D01*
X16259840Y-14318797D02*
X16278887Y-14309273D01*
X16278887Y-14309273D02*
X16288411Y-14299750D01*
X16288411Y-14299750D02*
X16297935Y-14280702D01*
X16374125Y-14194988D02*
X16374125Y-14233083D01*
X16450316Y-14194988D02*
X16450316Y-14233083D01*
X16745554Y-14471178D02*
X16736030Y-14461654D01*
X16736030Y-14461654D02*
X16716983Y-14433083D01*
X16716983Y-14433083D02*
X16707459Y-14414035D01*
X16707459Y-14414035D02*
X16697935Y-14385464D01*
X16697935Y-14385464D02*
X16688411Y-14337845D01*
X16688411Y-14337845D02*
X16688411Y-14299750D01*
X16688411Y-14299750D02*
X16697935Y-14252130D01*
X16697935Y-14252130D02*
X16707459Y-14223559D01*
X16707459Y-14223559D02*
X16716983Y-14204511D01*
X16716983Y-14204511D02*
X16736030Y-14175940D01*
X16736030Y-14175940D02*
X16745554Y-14166416D01*
X16812221Y-14214035D02*
X16821745Y-14204511D01*
X16821745Y-14204511D02*
X16840792Y-14194988D01*
X16840792Y-14194988D02*
X16888411Y-14194988D01*
X16888411Y-14194988D02*
X16907459Y-14204511D01*
X16907459Y-14204511D02*
X16916983Y-14214035D01*
X16916983Y-14214035D02*
X16926506Y-14233083D01*
X16926506Y-14233083D02*
X16926506Y-14252130D01*
X16926506Y-14252130D02*
X16916983Y-14280702D01*
X16916983Y-14280702D02*
X16802697Y-14394988D01*
X16802697Y-14394988D02*
X16926506Y-14394988D01*
X17164602Y-14394988D02*
X17164602Y-14194988D01*
X17250316Y-14394988D02*
X17250316Y-14290226D01*
X17250316Y-14290226D02*
X17240792Y-14271178D01*
X17240792Y-14271178D02*
X17221745Y-14261654D01*
X17221745Y-14261654D02*
X17193173Y-14261654D01*
X17193173Y-14261654D02*
X17174126Y-14271178D01*
X17174126Y-14271178D02*
X17164602Y-14280702D01*
X17374126Y-14394988D02*
X17355078Y-14385464D01*
X17355078Y-14385464D02*
X17345554Y-14375940D01*
X17345554Y-14375940D02*
X17336030Y-14356892D01*
X17336030Y-14356892D02*
X17336030Y-14299750D01*
X17336030Y-14299750D02*
X17345554Y-14280702D01*
X17345554Y-14280702D02*
X17355078Y-14271178D01*
X17355078Y-14271178D02*
X17374126Y-14261654D01*
X17374126Y-14261654D02*
X17402697Y-14261654D01*
X17402697Y-14261654D02*
X17421745Y-14271178D01*
X17421745Y-14271178D02*
X17431268Y-14280702D01*
X17431268Y-14280702D02*
X17440792Y-14299750D01*
X17440792Y-14299750D02*
X17440792Y-14356892D01*
X17440792Y-14356892D02*
X17431268Y-14375940D01*
X17431268Y-14375940D02*
X17421745Y-14385464D01*
X17421745Y-14385464D02*
X17402697Y-14394988D01*
X17402697Y-14394988D02*
X17374126Y-14394988D01*
X17555078Y-14394988D02*
X17536030Y-14385464D01*
X17536030Y-14385464D02*
X17526507Y-14366416D01*
X17526507Y-14366416D02*
X17526507Y-14194988D01*
X17707459Y-14385464D02*
X17688411Y-14394988D01*
X17688411Y-14394988D02*
X17650316Y-14394988D01*
X17650316Y-14394988D02*
X17631268Y-14385464D01*
X17631268Y-14385464D02*
X17621745Y-14366416D01*
X17621745Y-14366416D02*
X17621745Y-14290226D01*
X17621745Y-14290226D02*
X17631268Y-14271178D01*
X17631268Y-14271178D02*
X17650316Y-14261654D01*
X17650316Y-14261654D02*
X17688411Y-14261654D01*
X17688411Y-14261654D02*
X17707459Y-14271178D01*
X17707459Y-14271178D02*
X17716983Y-14290226D01*
X17716983Y-14290226D02*
X17716983Y-14309273D01*
X17716983Y-14309273D02*
X17621745Y-14328321D01*
X17793173Y-14385464D02*
X17812221Y-14394988D01*
X17812221Y-14394988D02*
X17850316Y-14394988D01*
X17850316Y-14394988D02*
X17869364Y-14385464D01*
X17869364Y-14385464D02*
X17878888Y-14366416D01*
X17878888Y-14366416D02*
X17878888Y-14356892D01*
X17878888Y-14356892D02*
X17869364Y-14337845D01*
X17869364Y-14337845D02*
X17850316Y-14328321D01*
X17850316Y-14328321D02*
X17821745Y-14328321D01*
X17821745Y-14328321D02*
X17802697Y-14318797D01*
X17802697Y-14318797D02*
X17793173Y-14299750D01*
X17793173Y-14299750D02*
X17793173Y-14290226D01*
X17793173Y-14290226D02*
X17802697Y-14271178D01*
X17802697Y-14271178D02*
X17821745Y-14261654D01*
X17821745Y-14261654D02*
X17850316Y-14261654D01*
X17850316Y-14261654D02*
X17869364Y-14271178D01*
X17945554Y-14471178D02*
X17955078Y-14461654D01*
X17955078Y-14461654D02*
X17974126Y-14433083D01*
X17974126Y-14433083D02*
X17983649Y-14414035D01*
X17983649Y-14414035D02*
X17993173Y-14385464D01*
X17993173Y-14385464D02*
X18002697Y-14337845D01*
X18002697Y-14337845D02*
X18002697Y-14299750D01*
X18002697Y-14299750D02*
X17993173Y-14252130D01*
X17993173Y-14252130D02*
X17983649Y-14223559D01*
X17983649Y-14223559D02*
X17974126Y-14204511D01*
X17974126Y-14204511D02*
X17955078Y-14175940D01*
X17955078Y-14175940D02*
X17945554Y-14166416D01*
X18307459Y-14471178D02*
X18297935Y-14461654D01*
X18297935Y-14461654D02*
X18278888Y-14433083D01*
X18278888Y-14433083D02*
X18269364Y-14414035D01*
X18269364Y-14414035D02*
X18259840Y-14385464D01*
X18259840Y-14385464D02*
X18250316Y-14337845D01*
X18250316Y-14337845D02*
X18250316Y-14299750D01*
X18250316Y-14299750D02*
X18259840Y-14252130D01*
X18259840Y-14252130D02*
X18269364Y-14223559D01*
X18269364Y-14223559D02*
X18278888Y-14204511D01*
X18278888Y-14204511D02*
X18297935Y-14175940D01*
X18297935Y-14175940D02*
X18307459Y-14166416D01*
X18383649Y-14261654D02*
X18383649Y-14394988D01*
X18383649Y-14280702D02*
X18393173Y-14271178D01*
X18393173Y-14271178D02*
X18412221Y-14261654D01*
X18412221Y-14261654D02*
X18440792Y-14261654D01*
X18440792Y-14261654D02*
X18459840Y-14271178D01*
X18459840Y-14271178D02*
X18469364Y-14290226D01*
X18469364Y-14290226D02*
X18469364Y-14394988D01*
X18593173Y-14394988D02*
X18574126Y-14385464D01*
X18574126Y-14385464D02*
X18564602Y-14375940D01*
X18564602Y-14375940D02*
X18555078Y-14356892D01*
X18555078Y-14356892D02*
X18555078Y-14299750D01*
X18555078Y-14299750D02*
X18564602Y-14280702D01*
X18564602Y-14280702D02*
X18574126Y-14271178D01*
X18574126Y-14271178D02*
X18593173Y-14261654D01*
X18593173Y-14261654D02*
X18621745Y-14261654D01*
X18621745Y-14261654D02*
X18640792Y-14271178D01*
X18640792Y-14271178D02*
X18650316Y-14280702D01*
X18650316Y-14280702D02*
X18659840Y-14299750D01*
X18659840Y-14299750D02*
X18659840Y-14356892D01*
X18659840Y-14356892D02*
X18650316Y-14375940D01*
X18650316Y-14375940D02*
X18640792Y-14385464D01*
X18640792Y-14385464D02*
X18621745Y-14394988D01*
X18621745Y-14394988D02*
X18593173Y-14394988D01*
X18716983Y-14261654D02*
X18793173Y-14261654D01*
X18745554Y-14194988D02*
X18745554Y-14366416D01*
X18745554Y-14366416D02*
X18755078Y-14385464D01*
X18755078Y-14385464D02*
X18774126Y-14394988D01*
X18774126Y-14394988D02*
X18793173Y-14394988D01*
X19012221Y-14261654D02*
X19012221Y-14461654D01*
X19012221Y-14271178D02*
X19031269Y-14261654D01*
X19031269Y-14261654D02*
X19069364Y-14261654D01*
X19069364Y-14261654D02*
X19088411Y-14271178D01*
X19088411Y-14271178D02*
X19097935Y-14280702D01*
X19097935Y-14280702D02*
X19107459Y-14299750D01*
X19107459Y-14299750D02*
X19107459Y-14356892D01*
X19107459Y-14356892D02*
X19097935Y-14375940D01*
X19097935Y-14375940D02*
X19088411Y-14385464D01*
X19088411Y-14385464D02*
X19069364Y-14394988D01*
X19069364Y-14394988D02*
X19031269Y-14394988D01*
X19031269Y-14394988D02*
X19012221Y-14385464D01*
X19221745Y-14394988D02*
X19202697Y-14385464D01*
X19202697Y-14385464D02*
X19193173Y-14366416D01*
X19193173Y-14366416D02*
X19193173Y-14194988D01*
X19383650Y-14394988D02*
X19383650Y-14290226D01*
X19383650Y-14290226D02*
X19374126Y-14271178D01*
X19374126Y-14271178D02*
X19355078Y-14261654D01*
X19355078Y-14261654D02*
X19316983Y-14261654D01*
X19316983Y-14261654D02*
X19297935Y-14271178D01*
X19383650Y-14385464D02*
X19364602Y-14394988D01*
X19364602Y-14394988D02*
X19316983Y-14394988D01*
X19316983Y-14394988D02*
X19297935Y-14385464D01*
X19297935Y-14385464D02*
X19288411Y-14366416D01*
X19288411Y-14366416D02*
X19288411Y-14347369D01*
X19288411Y-14347369D02*
X19297935Y-14328321D01*
X19297935Y-14328321D02*
X19316983Y-14318797D01*
X19316983Y-14318797D02*
X19364602Y-14318797D01*
X19364602Y-14318797D02*
X19383650Y-14309273D01*
X19450316Y-14261654D02*
X19526507Y-14261654D01*
X19478888Y-14194988D02*
X19478888Y-14366416D01*
X19478888Y-14366416D02*
X19488411Y-14385464D01*
X19488411Y-14385464D02*
X19507459Y-14394988D01*
X19507459Y-14394988D02*
X19526507Y-14394988D01*
X19669364Y-14385464D02*
X19650316Y-14394988D01*
X19650316Y-14394988D02*
X19612221Y-14394988D01*
X19612221Y-14394988D02*
X19593173Y-14385464D01*
X19593173Y-14385464D02*
X19583650Y-14366416D01*
X19583650Y-14366416D02*
X19583650Y-14290226D01*
X19583650Y-14290226D02*
X19593173Y-14271178D01*
X19593173Y-14271178D02*
X19612221Y-14261654D01*
X19612221Y-14261654D02*
X19650316Y-14261654D01*
X19650316Y-14261654D02*
X19669364Y-14271178D01*
X19669364Y-14271178D02*
X19678888Y-14290226D01*
X19678888Y-14290226D02*
X19678888Y-14309273D01*
X19678888Y-14309273D02*
X19583650Y-14328321D01*
X19850316Y-14394988D02*
X19850316Y-14194988D01*
X19850316Y-14385464D02*
X19831269Y-14394988D01*
X19831269Y-14394988D02*
X19793173Y-14394988D01*
X19793173Y-14394988D02*
X19774126Y-14385464D01*
X19774126Y-14385464D02*
X19764602Y-14375940D01*
X19764602Y-14375940D02*
X19755078Y-14356892D01*
X19755078Y-14356892D02*
X19755078Y-14299750D01*
X19755078Y-14299750D02*
X19764602Y-14280702D01*
X19764602Y-14280702D02*
X19774126Y-14271178D01*
X19774126Y-14271178D02*
X19793173Y-14261654D01*
X19793173Y-14261654D02*
X19831269Y-14261654D01*
X19831269Y-14261654D02*
X19850316Y-14271178D01*
X19926507Y-14471178D02*
X19936031Y-14461654D01*
X19936031Y-14461654D02*
X19955078Y-14433083D01*
X19955078Y-14433083D02*
X19964602Y-14414035D01*
X19964602Y-14414035D02*
X19974126Y-14385464D01*
X19974126Y-14385464D02*
X19983650Y-14337845D01*
X19983650Y-14337845D02*
X19983650Y-14299750D01*
X19983650Y-14299750D02*
X19974126Y-14252130D01*
X19974126Y-14252130D02*
X19964602Y-14223559D01*
X19964602Y-14223559D02*
X19955078Y-14204511D01*
X19955078Y-14204511D02*
X19936031Y-14175940D01*
X19936031Y-14175940D02*
X19926507Y-14166416D01*
M02*
