M48
; DRILL file {KiCad 8.0.6} date 2025-01-17T10:20:16-0600
; FORMAT={-:-/ absolute / metric / decimal}
; #@! TF.CreationDate,2025-01-17T10:20:16-06:00
; #@! TF.GenerationSoftware,Kicad,Pcbnew,8.0.6
; #@! TF.FileFunction,Plated,1,2,PTH
FMAT,2
METRIC
; #@! TA.AperFunction,Plated,PTH,ComponentDrill
T1C0.700
; #@! TA.AperFunction,Plated,PTH,ComponentDrill
T2C0.900
; #@! TA.AperFunction,Plated,PTH,ComponentDrill
T3C1.000
; #@! TA.AperFunction,Plated,PTH,ComponentDrill
T4C1.200
%
G90
G05
T1
X164.46Y-90.63
X164.46Y-98.67
X172.08Y-90.63
X172.08Y-98.67
T2
X175.86Y-90.63
X175.86Y-98.67
X178.4Y-90.63
X178.4Y-98.67
T3
X139.27Y-79.43
X139.27Y-81.97
X141.81Y-79.43
X141.81Y-81.97
X144.35Y-79.43
X144.35Y-81.97
X151.87Y-79.39
X151.87Y-81.93
X154.41Y-79.39
X154.41Y-81.93
X156.95Y-79.39
X156.95Y-81.93
X158.01Y-93.46
X158.01Y-96.0
X164.36Y-79.39
X164.36Y-81.93
X164.7Y-108.47
X164.7Y-128.77
X166.9Y-79.39
X166.9Y-81.93
X167.24Y-108.47
X167.24Y-128.77
X169.44Y-79.39
X169.44Y-81.93
X169.78Y-108.47
X169.78Y-128.77
X172.32Y-108.47
X172.32Y-128.77
X174.86Y-108.47
X174.86Y-128.77
X176.86Y-79.41
X176.86Y-81.95
X177.4Y-108.47
X177.4Y-128.77
X179.4Y-79.41
X179.4Y-81.95
X179.94Y-108.47
X179.94Y-128.77
X181.94Y-79.41
X181.94Y-81.95
X182.48Y-108.47
X182.48Y-128.77
X185.02Y-108.47
X185.02Y-128.77
X187.56Y-108.47
X187.56Y-128.77
X189.24Y-79.67
X189.24Y-82.21
X189.24Y-84.75
X189.24Y-87.29
X189.24Y-89.83
X189.24Y-92.37
X189.24Y-94.91
X189.24Y-97.45
X189.24Y-99.99
X190.1Y-108.47
X190.1Y-128.77
X192.64Y-108.47
X192.64Y-128.77
X195.18Y-108.47
X197.72Y-108.47
X200.26Y-108.47
X202.8Y-108.47
T4
X138.6Y-92.31
X138.6Y-97.31
X151.1Y-92.31
X151.1Y-97.31
M30
