G04 #@! TF.GenerationSoftware,KiCad,Pcbnew,8.0.6*
G04 #@! TF.CreationDate,2025-01-17T10:19:54-06:00*
G04 #@! TF.ProjectId,Quake_PCB_3,5175616b-655f-4504-9342-5f332e6b6963,rev?*
G04 #@! TF.SameCoordinates,Original*
G04 #@! TF.FileFunction,Copper,L2,Bot*
G04 #@! TF.FilePolarity,Positive*
%FSLAX46Y46*%
G04 Gerber Fmt 4.6, Leading zero omitted, Abs format (unit mm)*
G04 Created by KiCad (PCBNEW 8.0.6) date 2025-01-17 10:19:54*
%MOMM*%
%LPD*%
G01*
G04 APERTURE LIST*
G04 #@! TA.AperFunction,ComponentPad*
%ADD10R,1.700000X1.700000*%
G04 #@! TD*
G04 #@! TA.AperFunction,ComponentPad*
%ADD11O,1.700000X1.700000*%
G04 #@! TD*
G04 #@! TA.AperFunction,ComponentPad*
%ADD12C,1.400000*%
G04 #@! TD*
G04 #@! TA.AperFunction,ComponentPad*
%ADD13O,1.400000X1.400000*%
G04 #@! TD*
G04 #@! TA.AperFunction,ComponentPad*
%ADD14R,1.800000X1.800000*%
G04 #@! TD*
G04 #@! TA.AperFunction,ComponentPad*
%ADD15C,1.800000*%
G04 #@! TD*
G04 #@! TA.AperFunction,ComponentPad*
%ADD16C,1.707896*%
G04 #@! TD*
G04 #@! TA.AperFunction,Conductor*
%ADD17C,0.200000*%
G04 #@! TD*
G04 #@! TA.AperFunction,Conductor*
%ADD18C,0.300000*%
G04 #@! TD*
G04 APERTURE END LIST*
D10*
X164360000Y-81930000D03*
D11*
X164360000Y-79390000D03*
X166900000Y-81930000D03*
X166900000Y-79390000D03*
X169440000Y-81930000D03*
X169440000Y-79390000D03*
D10*
X189240000Y-79670000D03*
D11*
X189240000Y-82210000D03*
X189240000Y-84750000D03*
X189240000Y-87290000D03*
X189240000Y-89830000D03*
X189240000Y-92370000D03*
X189240000Y-94910000D03*
X189240000Y-97450000D03*
X189240000Y-99990000D03*
D10*
X164700000Y-108470000D03*
D11*
X167240000Y-108470000D03*
X169780000Y-108470000D03*
X172320000Y-108470000D03*
X174860000Y-108470000D03*
X177400000Y-108470000D03*
X179940000Y-108470000D03*
X182480000Y-108470000D03*
X185020000Y-108470000D03*
X187560000Y-108470000D03*
X190100000Y-108470000D03*
X192640000Y-108470000D03*
X195180000Y-108470000D03*
X197720000Y-108470000D03*
X200260000Y-108470000D03*
X202800000Y-108470000D03*
D12*
X164460000Y-90630000D03*
D13*
X172080000Y-90630000D03*
D10*
X176860000Y-81950000D03*
D11*
X176860000Y-79410000D03*
X179400000Y-81950000D03*
X179400000Y-79410000D03*
X181940000Y-81950000D03*
X181940000Y-79410000D03*
D14*
X178400000Y-90630000D03*
D15*
X175860000Y-90630000D03*
D10*
X164700000Y-128770000D03*
D11*
X167240000Y-128770000D03*
X169780000Y-128770000D03*
X172320000Y-128770000D03*
X174860000Y-128770000D03*
X177400000Y-128770000D03*
X179940000Y-128770000D03*
X182480000Y-128770000D03*
X185020000Y-128770000D03*
X187560000Y-128770000D03*
X190100000Y-128770000D03*
X192640000Y-128770000D03*
D10*
X151870000Y-81930000D03*
D11*
X151870000Y-79390000D03*
X154410000Y-81930000D03*
X154410000Y-79390000D03*
X156950000Y-81930000D03*
X156950000Y-79390000D03*
D10*
X158010000Y-96000000D03*
D11*
X158010000Y-93460000D03*
D14*
X178400000Y-98670000D03*
D15*
X175860000Y-98670000D03*
D16*
X138600000Y-92310000D03*
X151100000Y-92310000D03*
X138600000Y-97310000D03*
X151100000Y-97310000D03*
D12*
X164460000Y-98670000D03*
D13*
X172080000Y-98670000D03*
D10*
X139270000Y-81970000D03*
D11*
X139270000Y-79430000D03*
X141810000Y-81970000D03*
X141810000Y-79430000D03*
X144350000Y-81970000D03*
X144350000Y-79430000D03*
D17*
X189001700Y-93520100D02*
X189240000Y-93520100D01*
X179940000Y-102581800D02*
X189001700Y-93520100D01*
X179940000Y-107319900D02*
X179940000Y-102581800D01*
X179940000Y-108470000D02*
X179940000Y-107319900D01*
X189240000Y-92370000D02*
X189240000Y-93520100D01*
X183090100Y-80307500D02*
X183090100Y-79410000D01*
X188802600Y-86020000D02*
X183090100Y-80307500D01*
X189616600Y-86020000D02*
X188802600Y-86020000D01*
X190417000Y-86820400D02*
X189616600Y-86020000D01*
X190417000Y-103945000D02*
X190417000Y-86820400D01*
X186390000Y-107972000D02*
X190417000Y-103945000D01*
X186390000Y-110658300D02*
X186390000Y-107972000D01*
X176033200Y-121015100D02*
X186390000Y-110658300D01*
X176033200Y-129242400D02*
X176033200Y-121015100D01*
X175308000Y-129967600D02*
X176033200Y-129242400D01*
X174380200Y-129967600D02*
X175308000Y-129967600D01*
X173470100Y-129057500D02*
X174380200Y-129967600D01*
X173470100Y-128770000D02*
X173470100Y-129057500D01*
X172320000Y-128770000D02*
X173470100Y-128770000D01*
X181940000Y-79410000D02*
X183090100Y-79410000D01*
X169678300Y-80540100D02*
X169440000Y-80540100D01*
X173709900Y-84571700D02*
X169678300Y-80540100D01*
X173709900Y-126469800D02*
X173709900Y-84571700D01*
X174860000Y-127619900D02*
X173709900Y-126469800D01*
X174860000Y-128770000D02*
X174860000Y-127619900D01*
X169440000Y-79390000D02*
X169440000Y-80540100D01*
X155799900Y-79628300D02*
X155799900Y-79390000D01*
X154768200Y-80660000D02*
X155799900Y-79628300D01*
X153981700Y-80660000D02*
X154768200Y-80660000D01*
X153240000Y-81401700D02*
X153981700Y-80660000D01*
X153240000Y-84433500D02*
X153240000Y-81401700D01*
X155159900Y-86353400D02*
X153240000Y-84433500D01*
X155159900Y-112999800D02*
X155159900Y-86353400D01*
X169780000Y-127619900D02*
X155159900Y-112999800D01*
X169780000Y-128770000D02*
X169780000Y-127619900D01*
X156950000Y-79390000D02*
X155799900Y-79390000D01*
D18*
X200260000Y-90690000D02*
X189240000Y-79670000D01*
X200260000Y-108470000D02*
X200260000Y-90690000D01*
X189240000Y-79670000D02*
X187939900Y-79670000D01*
X163051200Y-80621200D02*
X164360000Y-81930000D01*
X163051200Y-78798200D02*
X163051200Y-80621200D01*
X163776300Y-78073100D02*
X163051200Y-78798200D01*
X174677300Y-78073100D02*
X163776300Y-78073100D01*
X175512200Y-78908000D02*
X174677300Y-78073100D01*
X176327300Y-78092900D02*
X175512200Y-78908000D01*
X186362800Y-78092900D02*
X176327300Y-78092900D01*
X187939900Y-79670000D02*
X186362800Y-78092900D01*
X175512200Y-80602200D02*
X176860000Y-81950000D01*
X175512200Y-78908000D02*
X175512200Y-80602200D01*
D17*
X166900000Y-81930000D02*
X166900000Y-83080100D01*
X154410000Y-81930000D02*
X155560100Y-81930000D01*
X179720200Y-83420300D02*
X179400000Y-83100100D01*
X179720200Y-100386300D02*
X179720200Y-83420300D01*
X177400000Y-102706500D02*
X179720200Y-100386300D01*
X177400000Y-108470000D02*
X177400000Y-102706500D01*
X179400000Y-81950000D02*
X179400000Y-83100100D01*
X166367300Y-83612800D02*
X166900000Y-83080100D01*
X157004600Y-83612800D02*
X166367300Y-83612800D01*
X155560100Y-82168300D02*
X157004600Y-83612800D01*
X155560100Y-81930000D02*
X155560100Y-82168300D01*
X181940000Y-81950000D02*
X181940000Y-83100100D01*
X189240000Y-89830000D02*
X188089900Y-89830000D01*
X184607400Y-89830000D02*
X188089900Y-89830000D01*
X184607400Y-85767500D02*
X181940000Y-83100100D01*
X184607400Y-89830000D02*
X184607400Y-85767500D01*
X174860000Y-108470000D02*
X176010100Y-108470000D01*
X184607400Y-97348500D02*
X184607400Y-89830000D01*
X178670000Y-103285900D02*
X184607400Y-97348500D01*
X178670000Y-108889900D02*
X178670000Y-103285900D01*
X177879000Y-109680900D02*
X178670000Y-108889900D01*
X176933500Y-109680900D02*
X177879000Y-109680900D01*
X176010100Y-108757500D02*
X176933500Y-109680900D01*
X176010100Y-108470000D02*
X176010100Y-108757500D01*
X144588300Y-80580100D02*
X144350000Y-80580100D01*
X145739800Y-81731600D02*
X144588300Y-80580100D01*
X145739800Y-89148900D02*
X145739800Y-81731600D01*
X154369000Y-97778100D02*
X145739800Y-89148900D01*
X154369000Y-114253300D02*
X154369000Y-97778100D01*
X168510000Y-128394300D02*
X154369000Y-114253300D01*
X168510000Y-129165000D02*
X168510000Y-128394300D01*
X169754600Y-130409600D02*
X168510000Y-129165000D01*
X182517800Y-130409600D02*
X169754600Y-130409600D01*
X183869900Y-129057500D02*
X182517800Y-130409600D01*
X183869900Y-128770000D02*
X183869900Y-129057500D01*
X185020000Y-128770000D02*
X183869900Y-128770000D01*
X144350000Y-79430000D02*
X144350000Y-80580100D01*
X172320000Y-108470000D02*
X172320000Y-107319900D01*
X166900000Y-79390000D02*
X166900000Y-80540100D01*
X188089900Y-86392500D02*
X188089900Y-87290000D01*
X182257500Y-80560100D02*
X188089900Y-86392500D01*
X181412600Y-80560100D02*
X182257500Y-80560100D01*
X180550100Y-79697600D02*
X181412600Y-80560100D01*
X180550100Y-79410000D02*
X180550100Y-79697600D01*
X179400000Y-79410000D02*
X180550100Y-79410000D01*
X189240000Y-87290000D02*
X188089900Y-87290000D01*
X167138300Y-80540100D02*
X166900000Y-80540100D01*
X168170000Y-81571800D02*
X167138300Y-80540100D01*
X168170000Y-103169900D02*
X168170000Y-81571800D01*
X172320000Y-107319900D02*
X168170000Y-103169900D01*
X141810000Y-79430000D02*
X142960100Y-79430000D01*
X154410000Y-79390000D02*
X154410000Y-78239900D01*
X157875100Y-78239900D02*
X154410000Y-78239900D01*
X162815400Y-83180200D02*
X157875100Y-78239900D01*
X165436400Y-83180200D02*
X162815400Y-83180200D01*
X165697300Y-82919300D02*
X165436400Y-83180200D01*
X165697300Y-81437700D02*
X165697300Y-82919300D01*
X166594900Y-80540100D02*
X165697300Y-81437700D01*
X166900000Y-80540100D02*
X166594900Y-80540100D01*
X142960100Y-79191700D02*
X142960100Y-79430000D01*
X144020500Y-78131300D02*
X142960100Y-79191700D01*
X154301400Y-78131300D02*
X144020500Y-78131300D01*
X154410000Y-78239900D02*
X154301400Y-78131300D01*
D18*
X150569800Y-80690200D02*
X151870000Y-79390000D01*
X150569800Y-91779800D02*
X150569800Y-80690200D01*
X151100000Y-92310000D02*
X150569800Y-91779800D01*
G04 #@! TA.AperFunction,Conductor*
G36*
X210366486Y-73189923D02*
G01*
X210433514Y-73209643D01*
X210479241Y-73262472D01*
X210489147Y-73331636D01*
X210460089Y-73395176D01*
X210420222Y-73425642D01*
X210377235Y-73446344D01*
X210377232Y-73446345D01*
X210154258Y-73598365D01*
X209956442Y-73781910D01*
X209788185Y-73992898D01*
X209653258Y-74226599D01*
X209653256Y-74226603D01*
X209554666Y-74477804D01*
X209554664Y-74477811D01*
X209494616Y-74740898D01*
X209474451Y-75009995D01*
X209474451Y-75010004D01*
X209494616Y-75279101D01*
X209554664Y-75542188D01*
X209554666Y-75542195D01*
X209612625Y-75689872D01*
X209653257Y-75793398D01*
X209788185Y-76027102D01*
X209828059Y-76077102D01*
X209956442Y-76238089D01*
X210031760Y-76307973D01*
X210154259Y-76421635D01*
X210377226Y-76573651D01*
X210620359Y-76690738D01*
X210878228Y-76770280D01*
X210878229Y-76770280D01*
X210878232Y-76770281D01*
X211145063Y-76810499D01*
X211145068Y-76810499D01*
X211145071Y-76810500D01*
X211145072Y-76810500D01*
X211414928Y-76810500D01*
X211414929Y-76810500D01*
X211414936Y-76810499D01*
X211681767Y-76770281D01*
X211681768Y-76770280D01*
X211681772Y-76770280D01*
X211939641Y-76690738D01*
X212182775Y-76573651D01*
X212405741Y-76421635D01*
X212603561Y-76238085D01*
X212771815Y-76027102D01*
X212906743Y-75793398D01*
X212947375Y-75689868D01*
X212990189Y-75634658D01*
X213056059Y-75611357D01*
X213124070Y-75627368D01*
X213147279Y-75644402D01*
X213211221Y-75703910D01*
X213246886Y-75763992D01*
X213250732Y-75792968D01*
X213338830Y-82165414D01*
X213320074Y-82232719D01*
X213267908Y-82279200D01*
X213261670Y-82281946D01*
X210789999Y-83290000D01*
X210040000Y-85179999D01*
X210169999Y-97329999D01*
X210170000Y-97330001D01*
X212049983Y-98899987D01*
X212049993Y-98899994D01*
X212050000Y-98900000D01*
X213283623Y-99703289D01*
X213329060Y-99756365D01*
X213339959Y-99807275D01*
X213320028Y-132603519D01*
X213300303Y-132670547D01*
X213289426Y-132685008D01*
X213109447Y-132891100D01*
X213050524Y-132928647D01*
X212980655Y-132928377D01*
X212922023Y-132890376D01*
X212900621Y-132854838D01*
X212826745Y-132666607D01*
X212826741Y-132666599D01*
X212691815Y-132432898D01*
X212523561Y-132221915D01*
X212523560Y-132221914D01*
X212523557Y-132221910D01*
X212325741Y-132038365D01*
X212267072Y-131998365D01*
X212102775Y-131886349D01*
X212102769Y-131886346D01*
X212102768Y-131886345D01*
X212102767Y-131886344D01*
X211859643Y-131769263D01*
X211859645Y-131769263D01*
X211601773Y-131689720D01*
X211601767Y-131689718D01*
X211334936Y-131649500D01*
X211334929Y-131649500D01*
X211065071Y-131649500D01*
X211065063Y-131649500D01*
X210798232Y-131689718D01*
X210798226Y-131689720D01*
X210540358Y-131769262D01*
X210297230Y-131886346D01*
X210074258Y-132038365D01*
X209876442Y-132221910D01*
X209708185Y-132432898D01*
X209573258Y-132666599D01*
X209573256Y-132666603D01*
X209474666Y-132917804D01*
X209474664Y-132917811D01*
X209414616Y-133180898D01*
X209394451Y-133449995D01*
X209394451Y-133450004D01*
X209414616Y-133719101D01*
X209474664Y-133982188D01*
X209474666Y-133982195D01*
X209563877Y-134209500D01*
X209573257Y-134233398D01*
X209708185Y-134467102D01*
X209824378Y-134612803D01*
X209876442Y-134678089D01*
X210031148Y-134821634D01*
X210074259Y-134861635D01*
X210297226Y-135013651D01*
X210297229Y-135013652D01*
X210297230Y-135013653D01*
X210327490Y-135028225D01*
X210540359Y-135130738D01*
X210798225Y-135210279D01*
X210798228Y-135210280D01*
X210827111Y-135214633D01*
X210890466Y-135244087D01*
X210927841Y-135303120D01*
X210927368Y-135372988D01*
X210902029Y-135418811D01*
X210807059Y-135527563D01*
X210748136Y-135565111D01*
X210713660Y-135570000D01*
X157012370Y-135570000D01*
X156945331Y-135550315D01*
X156923485Y-135532461D01*
X156679557Y-135281694D01*
X156646923Y-135219914D01*
X156652870Y-135150298D01*
X156695511Y-135094948D01*
X156714620Y-135083524D01*
X156942775Y-134973651D01*
X157165741Y-134821635D01*
X157363561Y-134638085D01*
X157531815Y-134427102D01*
X157666743Y-134193398D01*
X157765334Y-133942195D01*
X157825383Y-133679103D01*
X157832217Y-133587905D01*
X157845549Y-133410004D01*
X157845549Y-133409995D01*
X157825383Y-133140898D01*
X157807883Y-133064224D01*
X157765334Y-132877805D01*
X157666743Y-132626602D01*
X157531815Y-132392898D01*
X157363561Y-132181915D01*
X157363560Y-132181914D01*
X157363557Y-132181910D01*
X157165741Y-131998365D01*
X157092437Y-131948387D01*
X156942775Y-131846349D01*
X156942769Y-131846346D01*
X156942768Y-131846345D01*
X156942767Y-131846344D01*
X156699643Y-131729263D01*
X156699645Y-131729263D01*
X156441773Y-131649720D01*
X156441767Y-131649718D01*
X156174936Y-131609500D01*
X156174929Y-131609500D01*
X155905071Y-131609500D01*
X155905063Y-131609500D01*
X155638232Y-131649718D01*
X155638226Y-131649720D01*
X155380358Y-131729262D01*
X155137230Y-131846346D01*
X154914258Y-131998365D01*
X154716442Y-132181910D01*
X154548185Y-132392898D01*
X154413258Y-132626599D01*
X154413254Y-132626606D01*
X154392547Y-132679366D01*
X154349730Y-132734578D01*
X154283860Y-132757878D01*
X154215849Y-132741866D01*
X154188235Y-132720522D01*
X154148201Y-132679366D01*
X153785207Y-132306194D01*
X153752573Y-132244414D01*
X153750092Y-132219511D01*
X153781984Y-114814650D01*
X153801791Y-114747651D01*
X153854678Y-114701992D01*
X153923855Y-114692176D01*
X153987357Y-114721317D01*
X153993664Y-114727200D01*
X154007349Y-114740885D01*
X154007355Y-114740890D01*
X166641721Y-127375256D01*
X166675206Y-127436579D01*
X166670222Y-127506271D01*
X166628350Y-127562204D01*
X166606446Y-127575319D01*
X166562168Y-127595966D01*
X166368600Y-127731503D01*
X166246673Y-127853430D01*
X166185350Y-127886914D01*
X166115658Y-127881930D01*
X166059725Y-127840058D01*
X166042810Y-127809081D01*
X165993797Y-127677671D01*
X165993793Y-127677664D01*
X165907547Y-127562455D01*
X165907544Y-127562452D01*
X165792335Y-127476206D01*
X165792328Y-127476202D01*
X165657482Y-127425908D01*
X165657483Y-127425908D01*
X165597883Y-127419501D01*
X165597881Y-127419500D01*
X165597873Y-127419500D01*
X165597864Y-127419500D01*
X163802129Y-127419500D01*
X163802123Y-127419501D01*
X163742516Y-127425908D01*
X163607671Y-127476202D01*
X163607664Y-127476206D01*
X163492455Y-127562452D01*
X163492452Y-127562455D01*
X163406206Y-127677664D01*
X163406202Y-127677671D01*
X163355908Y-127812517D01*
X163349501Y-127872116D01*
X163349500Y-127872135D01*
X163349500Y-129667870D01*
X163349501Y-129667876D01*
X163355908Y-129727483D01*
X163406202Y-129862328D01*
X163406206Y-129862335D01*
X163492452Y-129977544D01*
X163492455Y-129977547D01*
X163607664Y-130063793D01*
X163607671Y-130063797D01*
X163742517Y-130114091D01*
X163742516Y-130114091D01*
X163749444Y-130114835D01*
X163802127Y-130120500D01*
X165597872Y-130120499D01*
X165657483Y-130114091D01*
X165792331Y-130063796D01*
X165907546Y-129977546D01*
X165993796Y-129862331D01*
X166042810Y-129730916D01*
X166084681Y-129674984D01*
X166150145Y-129650566D01*
X166218418Y-129665417D01*
X166246673Y-129686569D01*
X166368599Y-129808495D01*
X166465384Y-129876265D01*
X166562165Y-129944032D01*
X166562167Y-129944033D01*
X166562170Y-129944035D01*
X166776337Y-130043903D01*
X167004592Y-130105063D01*
X167181034Y-130120500D01*
X167239999Y-130125659D01*
X167240000Y-130125659D01*
X167240001Y-130125659D01*
X167298966Y-130120500D01*
X167475408Y-130105063D01*
X167703663Y-130043903D01*
X167917830Y-129944035D01*
X168111401Y-129808495D01*
X168120149Y-129799746D01*
X168181467Y-129766262D01*
X168251159Y-129771244D01*
X168295511Y-129799746D01*
X169269739Y-130773974D01*
X169269749Y-130773985D01*
X169274079Y-130778315D01*
X169274080Y-130778316D01*
X169385884Y-130890120D01*
X169472695Y-130940239D01*
X169472697Y-130940241D01*
X169522813Y-130969176D01*
X169522815Y-130969177D01*
X169675542Y-131010100D01*
X169675543Y-131010100D01*
X182431131Y-131010100D01*
X182431147Y-131010101D01*
X182438743Y-131010101D01*
X182596854Y-131010101D01*
X182596857Y-131010101D01*
X182749585Y-130969177D01*
X182799704Y-130940239D01*
X182886516Y-130890120D01*
X182998320Y-130778316D01*
X182998320Y-130778314D01*
X183008528Y-130768107D01*
X183008530Y-130768104D01*
X183970688Y-129805946D01*
X184032011Y-129772461D01*
X184101703Y-129777445D01*
X184146050Y-129805946D01*
X184148599Y-129808495D01*
X184245384Y-129876265D01*
X184342165Y-129944032D01*
X184342167Y-129944033D01*
X184342170Y-129944035D01*
X184556337Y-130043903D01*
X184784592Y-130105063D01*
X184961034Y-130120500D01*
X185019999Y-130125659D01*
X185020000Y-130125659D01*
X185020001Y-130125659D01*
X185078966Y-130120500D01*
X185255408Y-130105063D01*
X185483663Y-130043903D01*
X185697830Y-129944035D01*
X185891401Y-129808495D01*
X186058495Y-129641401D01*
X186188425Y-129455842D01*
X186243002Y-129412217D01*
X186312500Y-129405023D01*
X186374855Y-129436546D01*
X186391575Y-129455842D01*
X186521500Y-129641395D01*
X186521505Y-129641401D01*
X186688599Y-129808495D01*
X186785384Y-129876265D01*
X186882165Y-129944032D01*
X186882167Y-129944033D01*
X186882170Y-129944035D01*
X187096337Y-130043903D01*
X187324592Y-130105063D01*
X187501034Y-130120500D01*
X187559999Y-130125659D01*
X187560000Y-130125659D01*
X187560001Y-130125659D01*
X187618966Y-130120500D01*
X187795408Y-130105063D01*
X188023663Y-130043903D01*
X188237830Y-129944035D01*
X188431401Y-129808495D01*
X188598495Y-129641401D01*
X188728425Y-129455842D01*
X188783002Y-129412217D01*
X188852500Y-129405023D01*
X188914855Y-129436546D01*
X188931575Y-129455842D01*
X189061500Y-129641395D01*
X189061505Y-129641401D01*
X189228599Y-129808495D01*
X189325384Y-129876265D01*
X189422165Y-129944032D01*
X189422167Y-129944033D01*
X189422170Y-129944035D01*
X189636337Y-130043903D01*
X189864592Y-130105063D01*
X190041034Y-130120500D01*
X190099999Y-130125659D01*
X190100000Y-130125659D01*
X190100001Y-130125659D01*
X190158966Y-130120500D01*
X190335408Y-130105063D01*
X190563663Y-130043903D01*
X190777830Y-129944035D01*
X190971401Y-129808495D01*
X191138495Y-129641401D01*
X191268425Y-129455842D01*
X191323002Y-129412217D01*
X191392500Y-129405023D01*
X191454855Y-129436546D01*
X191471575Y-129455842D01*
X191601500Y-129641395D01*
X191601505Y-129641401D01*
X191768599Y-129808495D01*
X191865384Y-129876265D01*
X191962165Y-129944032D01*
X191962167Y-129944033D01*
X191962170Y-129944035D01*
X192176337Y-130043903D01*
X192404592Y-130105063D01*
X192581034Y-130120500D01*
X192639999Y-130125659D01*
X192640000Y-130125659D01*
X192640001Y-130125659D01*
X192698966Y-130120500D01*
X192875408Y-130105063D01*
X193103663Y-130043903D01*
X193317830Y-129944035D01*
X193511401Y-129808495D01*
X193678495Y-129641401D01*
X193814035Y-129447830D01*
X193913903Y-129233663D01*
X193975063Y-129005408D01*
X193995659Y-128770000D01*
X193975063Y-128534592D01*
X193913903Y-128306337D01*
X193814035Y-128092171D01*
X193808425Y-128084158D01*
X193678494Y-127898597D01*
X193511402Y-127731506D01*
X193511395Y-127731501D01*
X193317834Y-127595967D01*
X193317830Y-127595965D01*
X193317826Y-127595963D01*
X193103663Y-127496097D01*
X193103659Y-127496096D01*
X193103655Y-127496094D01*
X192875413Y-127434938D01*
X192875403Y-127434936D01*
X192640001Y-127414341D01*
X192639999Y-127414341D01*
X192404596Y-127434936D01*
X192404586Y-127434938D01*
X192176344Y-127496094D01*
X192176335Y-127496098D01*
X191962171Y-127595964D01*
X191962169Y-127595965D01*
X191768597Y-127731505D01*
X191601505Y-127898597D01*
X191471575Y-128084158D01*
X191416998Y-128127783D01*
X191347500Y-128134977D01*
X191285145Y-128103454D01*
X191268425Y-128084158D01*
X191138494Y-127898597D01*
X190971402Y-127731506D01*
X190971395Y-127731501D01*
X190777834Y-127595967D01*
X190777830Y-127595965D01*
X190777826Y-127595963D01*
X190563663Y-127496097D01*
X190563659Y-127496096D01*
X190563655Y-127496094D01*
X190335413Y-127434938D01*
X190335403Y-127434936D01*
X190100001Y-127414341D01*
X190099999Y-127414341D01*
X189864596Y-127434936D01*
X189864586Y-127434938D01*
X189636344Y-127496094D01*
X189636335Y-127496098D01*
X189422171Y-127595964D01*
X189422169Y-127595965D01*
X189228597Y-127731505D01*
X189061505Y-127898597D01*
X188931575Y-128084158D01*
X188876998Y-128127783D01*
X188807500Y-128134977D01*
X188745145Y-128103454D01*
X188728425Y-128084158D01*
X188598494Y-127898597D01*
X188431402Y-127731506D01*
X188431395Y-127731501D01*
X188237834Y-127595967D01*
X188237830Y-127595965D01*
X188237826Y-127595963D01*
X188023663Y-127496097D01*
X188023659Y-127496096D01*
X188023655Y-127496094D01*
X187795413Y-127434938D01*
X187795403Y-127434936D01*
X187560001Y-127414341D01*
X187559999Y-127414341D01*
X187324596Y-127434936D01*
X187324586Y-127434938D01*
X187096344Y-127496094D01*
X187096335Y-127496098D01*
X186882171Y-127595964D01*
X186882169Y-127595965D01*
X186688597Y-127731505D01*
X186521505Y-127898597D01*
X186391575Y-128084158D01*
X186336998Y-128127783D01*
X186267500Y-128134977D01*
X186205145Y-128103454D01*
X186188425Y-128084158D01*
X186058494Y-127898597D01*
X185891402Y-127731506D01*
X185891395Y-127731501D01*
X185697834Y-127595967D01*
X185697830Y-127595965D01*
X185697826Y-127595963D01*
X185483663Y-127496097D01*
X185483659Y-127496096D01*
X185483655Y-127496094D01*
X185255413Y-127434938D01*
X185255403Y-127434936D01*
X185020001Y-127414341D01*
X185019999Y-127414341D01*
X184784596Y-127434936D01*
X184784586Y-127434938D01*
X184556344Y-127496094D01*
X184556335Y-127496098D01*
X184342171Y-127595964D01*
X184342169Y-127595965D01*
X184148597Y-127731505D01*
X183981506Y-127898596D01*
X183851575Y-128084159D01*
X183796998Y-128127784D01*
X183727500Y-128134978D01*
X183665145Y-128103455D01*
X183648425Y-128084159D01*
X183518494Y-127898597D01*
X183351402Y-127731506D01*
X183351395Y-127731501D01*
X183157834Y-127595967D01*
X183157830Y-127595965D01*
X183157826Y-127595963D01*
X182943663Y-127496097D01*
X182943659Y-127496096D01*
X182943655Y-127496094D01*
X182715413Y-127434938D01*
X182715403Y-127434936D01*
X182480001Y-127414341D01*
X182479999Y-127414341D01*
X182244596Y-127434936D01*
X182244586Y-127434938D01*
X182016344Y-127496094D01*
X182016335Y-127496098D01*
X181802171Y-127595964D01*
X181802169Y-127595965D01*
X181608597Y-127731505D01*
X181441505Y-127898597D01*
X181311575Y-128084158D01*
X181256998Y-128127783D01*
X181187500Y-128134977D01*
X181125145Y-128103454D01*
X181108425Y-128084158D01*
X180978494Y-127898597D01*
X180811402Y-127731506D01*
X180811395Y-127731501D01*
X180617834Y-127595967D01*
X180617830Y-127595965D01*
X180617826Y-127595963D01*
X180403663Y-127496097D01*
X180403659Y-127496096D01*
X180403655Y-127496094D01*
X180175413Y-127434938D01*
X180175403Y-127434936D01*
X179940001Y-127414341D01*
X179939999Y-127414341D01*
X179704596Y-127434936D01*
X179704586Y-127434938D01*
X179476344Y-127496094D01*
X179476335Y-127496098D01*
X179262171Y-127595964D01*
X179262169Y-127595965D01*
X179068597Y-127731505D01*
X178901505Y-127898597D01*
X178771575Y-128084158D01*
X178716998Y-128127783D01*
X178647500Y-128134977D01*
X178585145Y-128103454D01*
X178568425Y-128084158D01*
X178438494Y-127898597D01*
X178271402Y-127731506D01*
X178271395Y-127731501D01*
X178077834Y-127595967D01*
X178077830Y-127595965D01*
X178077826Y-127595963D01*
X177863663Y-127496097D01*
X177863659Y-127496096D01*
X177863655Y-127496094D01*
X177635413Y-127434938D01*
X177635403Y-127434936D01*
X177400001Y-127414341D01*
X177399999Y-127414341D01*
X177164596Y-127434936D01*
X177164586Y-127434938D01*
X176936344Y-127496094D01*
X176936335Y-127496098D01*
X176810105Y-127554960D01*
X176741027Y-127565452D01*
X176677243Y-127536932D01*
X176639004Y-127478456D01*
X176633700Y-127442578D01*
X176633700Y-121315196D01*
X176653385Y-121248157D01*
X176670014Y-121227520D01*
X186758713Y-111138821D01*
X186758716Y-111138820D01*
X186870520Y-111027016D01*
X186920639Y-110940204D01*
X186949577Y-110890085D01*
X186990501Y-110737357D01*
X186990501Y-110579243D01*
X186990501Y-110571648D01*
X186990500Y-110571630D01*
X186990500Y-109877144D01*
X187010185Y-109810105D01*
X187062989Y-109764350D01*
X187132147Y-109754406D01*
X187146593Y-109757369D01*
X187170583Y-109763797D01*
X187324592Y-109805063D01*
X187501034Y-109820500D01*
X187559999Y-109825659D01*
X187560000Y-109825659D01*
X187560001Y-109825659D01*
X187618966Y-109820500D01*
X187795408Y-109805063D01*
X188023663Y-109743903D01*
X188237830Y-109644035D01*
X188431401Y-109508495D01*
X188598495Y-109341401D01*
X188728425Y-109155842D01*
X188783002Y-109112217D01*
X188852500Y-109105023D01*
X188914855Y-109136546D01*
X188931575Y-109155842D01*
X189061500Y-109341395D01*
X189061505Y-109341401D01*
X189228599Y-109508495D01*
X189310599Y-109565912D01*
X189422165Y-109644032D01*
X189422167Y-109644033D01*
X189422170Y-109644035D01*
X189636337Y-109743903D01*
X189864592Y-109805063D01*
X190041034Y-109820500D01*
X190099999Y-109825659D01*
X190100000Y-109825659D01*
X190100001Y-109825659D01*
X190158966Y-109820500D01*
X190335408Y-109805063D01*
X190563663Y-109743903D01*
X190777830Y-109644035D01*
X190971401Y-109508495D01*
X191138495Y-109341401D01*
X191268425Y-109155842D01*
X191323002Y-109112217D01*
X191392500Y-109105023D01*
X191454855Y-109136546D01*
X191471575Y-109155842D01*
X191601500Y-109341395D01*
X191601505Y-109341401D01*
X191768599Y-109508495D01*
X191850599Y-109565912D01*
X191962165Y-109644032D01*
X191962167Y-109644033D01*
X191962170Y-109644035D01*
X192176337Y-109743903D01*
X192404592Y-109805063D01*
X192581034Y-109820500D01*
X192639999Y-109825659D01*
X192640000Y-109825659D01*
X192640001Y-109825659D01*
X192698966Y-109820500D01*
X192875408Y-109805063D01*
X193103663Y-109743903D01*
X193317830Y-109644035D01*
X193511401Y-109508495D01*
X193678495Y-109341401D01*
X193808730Y-109155405D01*
X193863307Y-109111781D01*
X193932805Y-109104587D01*
X193995160Y-109136110D01*
X194011879Y-109155405D01*
X194141890Y-109341078D01*
X194308917Y-109508105D01*
X194502421Y-109643600D01*
X194716507Y-109743429D01*
X194716516Y-109743433D01*
X194930000Y-109800634D01*
X194930000Y-108903012D01*
X194987007Y-108935925D01*
X195114174Y-108970000D01*
X195245826Y-108970000D01*
X195372993Y-108935925D01*
X195430000Y-108903012D01*
X195430000Y-109800633D01*
X195643483Y-109743433D01*
X195643492Y-109743429D01*
X195857578Y-109643600D01*
X196051082Y-109508105D01*
X196218105Y-109341082D01*
X196348119Y-109155405D01*
X196402696Y-109111781D01*
X196472195Y-109104588D01*
X196534549Y-109136110D01*
X196551269Y-109155405D01*
X196681505Y-109341401D01*
X196848599Y-109508495D01*
X196930599Y-109565912D01*
X197042165Y-109644032D01*
X197042167Y-109644033D01*
X197042170Y-109644035D01*
X197256337Y-109743903D01*
X197484592Y-109805063D01*
X197661034Y-109820500D01*
X197719999Y-109825659D01*
X197720000Y-109825659D01*
X197720001Y-109825659D01*
X197778966Y-109820500D01*
X197955408Y-109805063D01*
X198183663Y-109743903D01*
X198397830Y-109644035D01*
X198591401Y-109508495D01*
X198758495Y-109341401D01*
X198888425Y-109155842D01*
X198943002Y-109112217D01*
X199012500Y-109105023D01*
X199074855Y-109136546D01*
X199091575Y-109155842D01*
X199221500Y-109341395D01*
X199221505Y-109341401D01*
X199388599Y-109508495D01*
X199470599Y-109565912D01*
X199582165Y-109644032D01*
X199582167Y-109644033D01*
X199582170Y-109644035D01*
X199796337Y-109743903D01*
X200024592Y-109805063D01*
X200201034Y-109820500D01*
X200259999Y-109825659D01*
X200260000Y-109825659D01*
X200260001Y-109825659D01*
X200318966Y-109820500D01*
X200495408Y-109805063D01*
X200723663Y-109743903D01*
X200937830Y-109644035D01*
X201131401Y-109508495D01*
X201298495Y-109341401D01*
X201428425Y-109155842D01*
X201483002Y-109112217D01*
X201552500Y-109105023D01*
X201614855Y-109136546D01*
X201631575Y-109155842D01*
X201761500Y-109341395D01*
X201761505Y-109341401D01*
X201928599Y-109508495D01*
X202010599Y-109565912D01*
X202122165Y-109644032D01*
X202122167Y-109644033D01*
X202122170Y-109644035D01*
X202336337Y-109743903D01*
X202564592Y-109805063D01*
X202741034Y-109820500D01*
X202799999Y-109825659D01*
X202800000Y-109825659D01*
X202800001Y-109825659D01*
X202858966Y-109820500D01*
X203035408Y-109805063D01*
X203263663Y-109743903D01*
X203477830Y-109644035D01*
X203671401Y-109508495D01*
X203838495Y-109341401D01*
X203974035Y-109147830D01*
X204073903Y-108933663D01*
X204135063Y-108705408D01*
X204155659Y-108470000D01*
X204135063Y-108234592D01*
X204073903Y-108006337D01*
X203974035Y-107792171D01*
X203968731Y-107784595D01*
X203838494Y-107598597D01*
X203671402Y-107431506D01*
X203671395Y-107431501D01*
X203477834Y-107295967D01*
X203477830Y-107295965D01*
X203442128Y-107279317D01*
X203263663Y-107196097D01*
X203263659Y-107196096D01*
X203263655Y-107196094D01*
X203035413Y-107134938D01*
X203035403Y-107134936D01*
X202800001Y-107114341D01*
X202799999Y-107114341D01*
X202564596Y-107134936D01*
X202564586Y-107134938D01*
X202336344Y-107196094D01*
X202336335Y-107196098D01*
X202122171Y-107295964D01*
X202122169Y-107295965D01*
X201928597Y-107431505D01*
X201761505Y-107598597D01*
X201631575Y-107784158D01*
X201576998Y-107827783D01*
X201507500Y-107834977D01*
X201445145Y-107803454D01*
X201428425Y-107784158D01*
X201298494Y-107598597D01*
X201131402Y-107431506D01*
X201131401Y-107431505D01*
X200963377Y-107313853D01*
X200963376Y-107313852D01*
X200919751Y-107259275D01*
X200910500Y-107212277D01*
X200910500Y-99989995D01*
X205182716Y-99989995D01*
X205182716Y-99990004D01*
X205202900Y-100259352D01*
X205202901Y-100259357D01*
X205263008Y-100522708D01*
X205361693Y-100774151D01*
X205361692Y-100774151D01*
X205415196Y-100866821D01*
X205496752Y-101008079D01*
X205665167Y-101219265D01*
X205665172Y-101219269D01*
X205665175Y-101219273D01*
X205863172Y-101402988D01*
X205863174Y-101402989D01*
X205863177Y-101402992D01*
X206086358Y-101555154D01*
X206086363Y-101555156D01*
X206086364Y-101555157D01*
X206086365Y-101555158D01*
X206215616Y-101617401D01*
X206329721Y-101672351D01*
X206329722Y-101672351D01*
X206329725Y-101672353D01*
X206587841Y-101751972D01*
X206587842Y-101751972D01*
X206587845Y-101751973D01*
X206854933Y-101792229D01*
X206854938Y-101792229D01*
X206854941Y-101792230D01*
X206854942Y-101792230D01*
X207125058Y-101792230D01*
X207125059Y-101792230D01*
X207125066Y-101792229D01*
X207392154Y-101751973D01*
X207392155Y-101751972D01*
X207392159Y-101751972D01*
X207650275Y-101672353D01*
X207893642Y-101555154D01*
X208116823Y-101402992D01*
X208314833Y-101219265D01*
X208483248Y-101008079D01*
X208618307Y-100774151D01*
X208682826Y-100609757D01*
X208716991Y-100522708D01*
X208759231Y-100337641D01*
X208777098Y-100259362D01*
X208783923Y-100168290D01*
X208797284Y-99990004D01*
X208797284Y-99989995D01*
X208777099Y-99720647D01*
X208777098Y-99720642D01*
X208777098Y-99720638D01*
X208737066Y-99545246D01*
X208716991Y-99457291D01*
X208642745Y-99268117D01*
X208618307Y-99205849D01*
X208618306Y-99205848D01*
X208618307Y-99205848D01*
X208551036Y-99089333D01*
X208483248Y-98971921D01*
X208314833Y-98760735D01*
X208314827Y-98760729D01*
X208314824Y-98760726D01*
X208116827Y-98577011D01*
X208116823Y-98577008D01*
X207893642Y-98424846D01*
X207893638Y-98424844D01*
X207893635Y-98424842D01*
X207893634Y-98424841D01*
X207650277Y-98307648D01*
X207650279Y-98307648D01*
X207392160Y-98228028D01*
X207392154Y-98228026D01*
X207125066Y-98187770D01*
X207125059Y-98187770D01*
X206854941Y-98187770D01*
X206854933Y-98187770D01*
X206587845Y-98228026D01*
X206587839Y-98228028D01*
X206329721Y-98307648D01*
X206086365Y-98424841D01*
X206086364Y-98424842D01*
X206086358Y-98424845D01*
X206086358Y-98424846D01*
X206066045Y-98438695D01*
X205863172Y-98577011D01*
X205665175Y-98760726D01*
X205665167Y-98760735D01*
X205496752Y-98971921D01*
X205361693Y-99205848D01*
X205263008Y-99457291D01*
X205202901Y-99720642D01*
X205202900Y-99720647D01*
X205182716Y-99989995D01*
X200910500Y-99989995D01*
X200910500Y-90625928D01*
X200885502Y-90500261D01*
X200885501Y-90500260D01*
X200885501Y-90500256D01*
X200836465Y-90381873D01*
X200784375Y-90303914D01*
X200765276Y-90275330D01*
X200765273Y-90275327D01*
X200765271Y-90275324D01*
X190626818Y-80136871D01*
X190593333Y-80075548D01*
X190590499Y-80049190D01*
X190590499Y-79689995D01*
X205234451Y-79689995D01*
X205234451Y-79690004D01*
X205254616Y-79959101D01*
X205314664Y-80222188D01*
X205314666Y-80222195D01*
X205413256Y-80473396D01*
X205413258Y-80473400D01*
X205436784Y-80514149D01*
X205548185Y-80707102D01*
X205623223Y-80801196D01*
X205716442Y-80918089D01*
X205903183Y-81091358D01*
X205914259Y-81101635D01*
X206137226Y-81253651D01*
X206380359Y-81370738D01*
X206638228Y-81450280D01*
X206638229Y-81450280D01*
X206638232Y-81450281D01*
X206905063Y-81490499D01*
X206905068Y-81490499D01*
X206905071Y-81490500D01*
X206905072Y-81490500D01*
X207174928Y-81490500D01*
X207174929Y-81490500D01*
X207223846Y-81483127D01*
X207441767Y-81450281D01*
X207441768Y-81450280D01*
X207441772Y-81450280D01*
X207699641Y-81370738D01*
X207942775Y-81253651D01*
X208165741Y-81101635D01*
X208351445Y-80929327D01*
X208363557Y-80918089D01*
X208363557Y-80918087D01*
X208363561Y-80918085D01*
X208531815Y-80707102D01*
X208666743Y-80473398D01*
X208765334Y-80222195D01*
X208825383Y-79959103D01*
X208838048Y-79790099D01*
X208845549Y-79690004D01*
X208845549Y-79689995D01*
X208828744Y-79465747D01*
X208825383Y-79420897D01*
X208765334Y-79157805D01*
X208666743Y-78906602D01*
X208531815Y-78672898D01*
X208363561Y-78461915D01*
X208363560Y-78461914D01*
X208363557Y-78461910D01*
X208165741Y-78278365D01*
X208132885Y-78255964D01*
X207942775Y-78126349D01*
X207942769Y-78126346D01*
X207942768Y-78126345D01*
X207942767Y-78126344D01*
X207699643Y-78009263D01*
X207699645Y-78009263D01*
X207441773Y-77929720D01*
X207441767Y-77929718D01*
X207174936Y-77889500D01*
X207174929Y-77889500D01*
X206905071Y-77889500D01*
X206905063Y-77889500D01*
X206638232Y-77929718D01*
X206638226Y-77929720D01*
X206380358Y-78009262D01*
X206137230Y-78126346D01*
X205914258Y-78278365D01*
X205716442Y-78461910D01*
X205548185Y-78672898D01*
X205413258Y-78906599D01*
X205413256Y-78906603D01*
X205314666Y-79157804D01*
X205314664Y-79157811D01*
X205254616Y-79420898D01*
X205234451Y-79689995D01*
X190590499Y-79689995D01*
X190590499Y-78772129D01*
X190590498Y-78772123D01*
X190590069Y-78768133D01*
X190584091Y-78712517D01*
X190545278Y-78608455D01*
X190533797Y-78577671D01*
X190533793Y-78577664D01*
X190447547Y-78462455D01*
X190447544Y-78462452D01*
X190332335Y-78376206D01*
X190332328Y-78376202D01*
X190197482Y-78325908D01*
X190197483Y-78325908D01*
X190137883Y-78319501D01*
X190137881Y-78319500D01*
X190137873Y-78319500D01*
X190137864Y-78319500D01*
X188342129Y-78319500D01*
X188342123Y-78319501D01*
X188282516Y-78325908D01*
X188147671Y-78376202D01*
X188147664Y-78376206D01*
X188032455Y-78462452D01*
X187955462Y-78565300D01*
X187899528Y-78607171D01*
X187829836Y-78612154D01*
X187768515Y-78578669D01*
X186777474Y-77587627D01*
X186777473Y-77587626D01*
X186777469Y-77587623D01*
X186670927Y-77516435D01*
X186623123Y-77496634D01*
X186552544Y-77467399D01*
X186552538Y-77467397D01*
X186426871Y-77442400D01*
X186426869Y-77442400D01*
X176263231Y-77442400D01*
X176263229Y-77442400D01*
X176137561Y-77467397D01*
X176137555Y-77467399D01*
X176019170Y-77516435D01*
X175912631Y-77587622D01*
X175912624Y-77587628D01*
X175599880Y-77900372D01*
X175538557Y-77933857D01*
X175468865Y-77928873D01*
X175424518Y-77900372D01*
X175091974Y-77567827D01*
X175091973Y-77567826D01*
X175091969Y-77567823D01*
X174985427Y-77496635D01*
X174914846Y-77467399D01*
X174867042Y-77447598D01*
X174867043Y-77447598D01*
X174866682Y-77447527D01*
X174866672Y-77447525D01*
X174741371Y-77422600D01*
X174741369Y-77422600D01*
X163712231Y-77422600D01*
X163712229Y-77422600D01*
X163586928Y-77447525D01*
X163586918Y-77447527D01*
X163586556Y-77447598D01*
X163468170Y-77496635D01*
X163361631Y-77567822D01*
X163361624Y-77567828D01*
X162545924Y-78383528D01*
X162493188Y-78462455D01*
X162474735Y-78490071D01*
X162425699Y-78608455D01*
X162425697Y-78608461D01*
X162400700Y-78734128D01*
X162400700Y-80685271D01*
X162423760Y-80801196D01*
X162425697Y-80810938D01*
X162425701Y-80810949D01*
X162474732Y-80929323D01*
X162496607Y-80962061D01*
X162544293Y-81033430D01*
X162545926Y-81035873D01*
X162545927Y-81035874D01*
X162973181Y-81463127D01*
X163006666Y-81524450D01*
X163009500Y-81550808D01*
X163009500Y-82225703D01*
X162989815Y-82292742D01*
X162937011Y-82338497D01*
X162867853Y-82348441D01*
X162804297Y-82319416D01*
X162797819Y-82313384D01*
X158362690Y-77878255D01*
X158362688Y-77878252D01*
X158243817Y-77759381D01*
X158243816Y-77759380D01*
X158157004Y-77709260D01*
X158157004Y-77709259D01*
X158157000Y-77709258D01*
X158106885Y-77680323D01*
X157954157Y-77639399D01*
X157796043Y-77639399D01*
X157788447Y-77639399D01*
X157788431Y-77639400D01*
X154683630Y-77639400D01*
X154621630Y-77622787D01*
X154560724Y-77587623D01*
X154560723Y-77587622D01*
X154533183Y-77571722D01*
X154477281Y-77556743D01*
X154380457Y-77530799D01*
X154222343Y-77530799D01*
X154214747Y-77530799D01*
X154214731Y-77530800D01*
X143941443Y-77530800D01*
X143788714Y-77571723D01*
X143761176Y-77587623D01*
X143761175Y-77587623D01*
X143651787Y-77650777D01*
X143651782Y-77650781D01*
X142883911Y-78418653D01*
X142822588Y-78452138D01*
X142752896Y-78447154D01*
X142708549Y-78418653D01*
X142681402Y-78391506D01*
X142681395Y-78391501D01*
X142670008Y-78383528D01*
X142642521Y-78364281D01*
X142487834Y-78255967D01*
X142487830Y-78255965D01*
X142487828Y-78255964D01*
X142273663Y-78156097D01*
X142273659Y-78156096D01*
X142273655Y-78156094D01*
X142045413Y-78094938D01*
X142045403Y-78094936D01*
X141810001Y-78074341D01*
X141809999Y-78074341D01*
X141574596Y-78094936D01*
X141574586Y-78094938D01*
X141346344Y-78156094D01*
X141346335Y-78156098D01*
X141132171Y-78255964D01*
X141132169Y-78255965D01*
X140938597Y-78391505D01*
X140771508Y-78558594D01*
X140641269Y-78744595D01*
X140586692Y-78788219D01*
X140517193Y-78795412D01*
X140454839Y-78763890D01*
X140438119Y-78744594D01*
X140308113Y-78558926D01*
X140308108Y-78558920D01*
X140141082Y-78391894D01*
X139947578Y-78256399D01*
X139733492Y-78156570D01*
X139733486Y-78156567D01*
X139520000Y-78099364D01*
X139520000Y-78996988D01*
X139462993Y-78964075D01*
X139335826Y-78930000D01*
X139204174Y-78930000D01*
X139077007Y-78964075D01*
X139020000Y-78996988D01*
X139020000Y-78099364D01*
X139019999Y-78099364D01*
X138806513Y-78156567D01*
X138806507Y-78156570D01*
X138592422Y-78256399D01*
X138592420Y-78256400D01*
X138398926Y-78391886D01*
X138398920Y-78391891D01*
X138231891Y-78558920D01*
X138231886Y-78558926D01*
X138096400Y-78752420D01*
X138096399Y-78752422D01*
X137996570Y-78966507D01*
X137996567Y-78966513D01*
X137939364Y-79179999D01*
X137939364Y-79180000D01*
X138836988Y-79180000D01*
X138804075Y-79237007D01*
X138770000Y-79364174D01*
X138770000Y-79495826D01*
X138804075Y-79622993D01*
X138836988Y-79680000D01*
X137939364Y-79680000D01*
X137996567Y-79893486D01*
X137996570Y-79893492D01*
X138096399Y-80107578D01*
X138231894Y-80301082D01*
X138353946Y-80423134D01*
X138387431Y-80484457D01*
X138382447Y-80554149D01*
X138340575Y-80610082D01*
X138309598Y-80626997D01*
X138177671Y-80676202D01*
X138177664Y-80676206D01*
X138062455Y-80762452D01*
X138062452Y-80762455D01*
X137976206Y-80877664D01*
X137976202Y-80877671D01*
X137925908Y-81012517D01*
X137919501Y-81072116D01*
X137919500Y-81072135D01*
X137919500Y-82867870D01*
X137919501Y-82867876D01*
X137925908Y-82927483D01*
X137976202Y-83062328D01*
X137976206Y-83062335D01*
X138062452Y-83177544D01*
X138062455Y-83177547D01*
X138177664Y-83263793D01*
X138177671Y-83263797D01*
X138312517Y-83314091D01*
X138312516Y-83314091D01*
X138319444Y-83314835D01*
X138372127Y-83320500D01*
X140167872Y-83320499D01*
X140227483Y-83314091D01*
X140362331Y-83263796D01*
X140477546Y-83177546D01*
X140563796Y-83062331D01*
X140612810Y-82930916D01*
X140654681Y-82874984D01*
X140720145Y-82850566D01*
X140788418Y-82865417D01*
X140816673Y-82886569D01*
X140938599Y-83008495D01*
X141020699Y-83065982D01*
X141132165Y-83144032D01*
X141132167Y-83144033D01*
X141132170Y-83144035D01*
X141346337Y-83243903D01*
X141574592Y-83305063D01*
X141751034Y-83320500D01*
X141809999Y-83325659D01*
X141810000Y-83325659D01*
X141810001Y-83325659D01*
X141868966Y-83320500D01*
X142045408Y-83305063D01*
X142273663Y-83243903D01*
X142487830Y-83144035D01*
X142681401Y-83008495D01*
X142848495Y-82841401D01*
X142978425Y-82655842D01*
X143033002Y-82612217D01*
X143102500Y-82605023D01*
X143164855Y-82636546D01*
X143181575Y-82655842D01*
X143308135Y-82836589D01*
X143311505Y-82841401D01*
X143478599Y-83008495D01*
X143560699Y-83065982D01*
X143672165Y-83144032D01*
X143672167Y-83144033D01*
X143672170Y-83144035D01*
X143886337Y-83243903D01*
X144114592Y-83305063D01*
X144291034Y-83320500D01*
X144349999Y-83325659D01*
X144350000Y-83325659D01*
X144350001Y-83325659D01*
X144408966Y-83320500D01*
X144585408Y-83305063D01*
X144813663Y-83243903D01*
X144962897Y-83174313D01*
X145031972Y-83163822D01*
X145095756Y-83192341D01*
X145133996Y-83250818D01*
X145139300Y-83286696D01*
X145139300Y-89045795D01*
X145119615Y-89112834D01*
X145066811Y-89158589D01*
X144997653Y-89168533D01*
X144995903Y-89168269D01*
X144940546Y-89159502D01*
X144759454Y-89159502D01*
X144759449Y-89159502D01*
X144580589Y-89187831D01*
X144408364Y-89243789D01*
X144408361Y-89243790D01*
X144247006Y-89326006D01*
X144182588Y-89372809D01*
X144100501Y-89432449D01*
X144100499Y-89432451D01*
X144100498Y-89432451D01*
X143972451Y-89560498D01*
X143972451Y-89560499D01*
X143972449Y-89560501D01*
X143946594Y-89596087D01*
X143866006Y-89707006D01*
X143783790Y-89868361D01*
X143783789Y-89868364D01*
X143727831Y-90040589D01*
X143699502Y-90219448D01*
X143699502Y-90400551D01*
X143727831Y-90579410D01*
X143783789Y-90751635D01*
X143783790Y-90751638D01*
X143862599Y-90906306D01*
X143866006Y-90912993D01*
X143972449Y-91059499D01*
X144100501Y-91187551D01*
X144247007Y-91293994D01*
X144320626Y-91331505D01*
X144408361Y-91376209D01*
X144408364Y-91376210D01*
X144494476Y-91404189D01*
X144580591Y-91432169D01*
X144663429Y-91445289D01*
X144759449Y-91460498D01*
X144759454Y-91460498D01*
X144940551Y-91460498D01*
X145027259Y-91446763D01*
X145119409Y-91432169D01*
X145291638Y-91376209D01*
X145452993Y-91293994D01*
X145599499Y-91187551D01*
X145727551Y-91059499D01*
X145833994Y-90912993D01*
X145916209Y-90751638D01*
X145972169Y-90579409D01*
X145981804Y-90518576D01*
X146011733Y-90455442D01*
X146071044Y-90418510D01*
X146140907Y-90419508D01*
X146191958Y-90450293D01*
X151520656Y-95778991D01*
X151554141Y-95840314D01*
X151549157Y-95910006D01*
X151507285Y-95965939D01*
X151441821Y-95990356D01*
X151412566Y-95988981D01*
X151212233Y-95955552D01*
X150987767Y-95955552D01*
X150932416Y-95964788D01*
X150766360Y-95992498D01*
X150554067Y-96065379D01*
X150554053Y-96065385D01*
X150356650Y-96172213D01*
X150356645Y-96172216D01*
X150179515Y-96310083D01*
X150027484Y-96475233D01*
X149904714Y-96663148D01*
X149814549Y-96868703D01*
X149759445Y-97086304D01*
X149740910Y-97309994D01*
X149740910Y-97310005D01*
X149759445Y-97533695D01*
X149814549Y-97751296D01*
X149885770Y-97913664D01*
X149904716Y-97956855D01*
X149926708Y-97990516D01*
X150016419Y-98127830D01*
X150027487Y-98144770D01*
X150179513Y-98309915D01*
X150200187Y-98326006D01*
X150329817Y-98426902D01*
X150356648Y-98447785D01*
X150554060Y-98554618D01*
X150766363Y-98627502D01*
X150987767Y-98664448D01*
X150987768Y-98664448D01*
X151212232Y-98664448D01*
X151212233Y-98664448D01*
X151433637Y-98627502D01*
X151645940Y-98554618D01*
X151843352Y-98447785D01*
X152020487Y-98309915D01*
X152172513Y-98144770D01*
X152295284Y-97956855D01*
X152385451Y-97751296D01*
X152440554Y-97533699D01*
X152455734Y-97350499D01*
X152459090Y-97310005D01*
X152459090Y-97309994D01*
X152443285Y-97119264D01*
X152440554Y-97086301D01*
X152419731Y-97004072D01*
X152422356Y-96934254D01*
X152462312Y-96876937D01*
X152526913Y-96850320D01*
X152595650Y-96862854D01*
X152627618Y-96885953D01*
X153732181Y-97990516D01*
X153765666Y-98051839D01*
X153768500Y-98078197D01*
X153768500Y-110142772D01*
X153748815Y-110209811D01*
X153696011Y-110255566D01*
X153626853Y-110265510D01*
X153563297Y-110236485D01*
X153555414Y-110229026D01*
X153154971Y-109815437D01*
X152315283Y-108948184D01*
X152306544Y-108938125D01*
X152071482Y-108636118D01*
X151918560Y-108470000D01*
X151761075Y-108298924D01*
X151423881Y-107988517D01*
X151423872Y-107988509D01*
X151277504Y-107874587D01*
X151264580Y-107862988D01*
X149790000Y-106340000D01*
X149789999Y-106340000D01*
X136173954Y-106340000D01*
X136106915Y-106320315D01*
X136095859Y-106312318D01*
X135501957Y-105830776D01*
X135462281Y-105773264D01*
X135459996Y-105703432D01*
X135495829Y-105643450D01*
X135526245Y-105622741D01*
X135752775Y-105513651D01*
X135975741Y-105361635D01*
X136173561Y-105178085D01*
X136341815Y-104967102D01*
X136476743Y-104733398D01*
X136575334Y-104482195D01*
X136635383Y-104219103D01*
X136635384Y-104219100D01*
X136635384Y-104219098D01*
X136655549Y-103950004D01*
X136655549Y-103949995D01*
X136636535Y-103696265D01*
X136635383Y-103680897D01*
X136575334Y-103417805D01*
X136476743Y-103166602D01*
X136341815Y-102932898D01*
X136173561Y-102721915D01*
X136173560Y-102721914D01*
X136173557Y-102721910D01*
X135975741Y-102538365D01*
X135752775Y-102386349D01*
X135752769Y-102386346D01*
X135752768Y-102386345D01*
X135752767Y-102386344D01*
X135509643Y-102269263D01*
X135509645Y-102269263D01*
X135251773Y-102189720D01*
X135251767Y-102189718D01*
X134984936Y-102149500D01*
X134984929Y-102149500D01*
X134715071Y-102149500D01*
X134715063Y-102149500D01*
X134448232Y-102189718D01*
X134448226Y-102189720D01*
X134190358Y-102269262D01*
X133947230Y-102386346D01*
X133724258Y-102538365D01*
X133526442Y-102721910D01*
X133358185Y-102932898D01*
X133223258Y-103166599D01*
X133223256Y-103166603D01*
X133124666Y-103417804D01*
X133124666Y-103417805D01*
X133075481Y-103633297D01*
X133041372Y-103694275D01*
X132979711Y-103727133D01*
X132910074Y-103721438D01*
X132876494Y-103702021D01*
X132845904Y-103677218D01*
X132806228Y-103619706D01*
X132800000Y-103580901D01*
X132800000Y-99219448D01*
X143699502Y-99219448D01*
X143699502Y-99400551D01*
X143727831Y-99579410D01*
X143783789Y-99751635D01*
X143783790Y-99751638D01*
X143847102Y-99875892D01*
X143866006Y-99912993D01*
X143972449Y-100059499D01*
X144100501Y-100187551D01*
X144247007Y-100293994D01*
X144279402Y-100310500D01*
X144408361Y-100376209D01*
X144408364Y-100376210D01*
X144494476Y-100404189D01*
X144580591Y-100432169D01*
X144663429Y-100445289D01*
X144759449Y-100460498D01*
X144759454Y-100460498D01*
X144940551Y-100460498D01*
X145027259Y-100446763D01*
X145119409Y-100432169D01*
X145291638Y-100376209D01*
X145452993Y-100293994D01*
X145599499Y-100187551D01*
X145727551Y-100059499D01*
X145833994Y-99912993D01*
X145916209Y-99751638D01*
X145972169Y-99579409D01*
X145991511Y-99457291D01*
X146000498Y-99400551D01*
X146000498Y-99219448D01*
X145984017Y-99115397D01*
X145972169Y-99040591D01*
X145926487Y-98899994D01*
X145916210Y-98868364D01*
X145916209Y-98868361D01*
X145861365Y-98760726D01*
X145833994Y-98707007D01*
X145727551Y-98560501D01*
X145599499Y-98432449D01*
X145452993Y-98326006D01*
X145443955Y-98321401D01*
X145291638Y-98243790D01*
X145291635Y-98243789D01*
X145119410Y-98187831D01*
X144940551Y-98159502D01*
X144940546Y-98159502D01*
X144759454Y-98159502D01*
X144759449Y-98159502D01*
X144580589Y-98187831D01*
X144408364Y-98243789D01*
X144408361Y-98243790D01*
X144247006Y-98326006D01*
X144163419Y-98386735D01*
X144100501Y-98432449D01*
X144100499Y-98432451D01*
X144100498Y-98432451D01*
X143972451Y-98560498D01*
X143972451Y-98560499D01*
X143972449Y-98560501D01*
X143960456Y-98577008D01*
X143866006Y-98707006D01*
X143783790Y-98868361D01*
X143783789Y-98868364D01*
X143727831Y-99040589D01*
X143699502Y-99219448D01*
X132800000Y-99219448D01*
X132800000Y-97309994D01*
X137240910Y-97309994D01*
X137240910Y-97310005D01*
X137259445Y-97533695D01*
X137314549Y-97751296D01*
X137385770Y-97913664D01*
X137404716Y-97956855D01*
X137426708Y-97990516D01*
X137516419Y-98127830D01*
X137527487Y-98144770D01*
X137679513Y-98309915D01*
X137700187Y-98326006D01*
X137829817Y-98426902D01*
X137856648Y-98447785D01*
X138054060Y-98554618D01*
X138266363Y-98627502D01*
X138487767Y-98664448D01*
X138487768Y-98664448D01*
X138712232Y-98664448D01*
X138712233Y-98664448D01*
X138933637Y-98627502D01*
X139145940Y-98554618D01*
X139343352Y-98447785D01*
X139520487Y-98309915D01*
X139672513Y-98144770D01*
X139795284Y-97956855D01*
X139885451Y-97751296D01*
X139940554Y-97533699D01*
X139955734Y-97350499D01*
X139959090Y-97310005D01*
X139959090Y-97309994D01*
X139943285Y-97119264D01*
X139940554Y-97086301D01*
X139885451Y-96868704D01*
X139795284Y-96663145D01*
X139672513Y-96475230D01*
X139520487Y-96310085D01*
X139447123Y-96252983D01*
X139343354Y-96172216D01*
X139343349Y-96172213D01*
X139145946Y-96065385D01*
X139145943Y-96065384D01*
X139145940Y-96065382D01*
X139145934Y-96065380D01*
X139145932Y-96065379D01*
X138933639Y-95992498D01*
X138786034Y-95967867D01*
X138712233Y-95955552D01*
X138487767Y-95955552D01*
X138432416Y-95964788D01*
X138266360Y-95992498D01*
X138054067Y-96065379D01*
X138054053Y-96065385D01*
X137856650Y-96172213D01*
X137856645Y-96172216D01*
X137679515Y-96310083D01*
X137527484Y-96475233D01*
X137404714Y-96663148D01*
X137314549Y-96868703D01*
X137259445Y-97086304D01*
X137240910Y-97309994D01*
X132800000Y-97309994D01*
X132800000Y-92309994D01*
X137240910Y-92309994D01*
X137240910Y-92310005D01*
X137259445Y-92533695D01*
X137314549Y-92751296D01*
X137404611Y-92956617D01*
X137404716Y-92956855D01*
X137527487Y-93144770D01*
X137679513Y-93309915D01*
X137787769Y-93394174D01*
X137856105Y-93447363D01*
X137856648Y-93447785D01*
X138054060Y-93554618D01*
X138266363Y-93627502D01*
X138487767Y-93664448D01*
X138487768Y-93664448D01*
X138712232Y-93664448D01*
X138712233Y-93664448D01*
X138933637Y-93627502D01*
X139145940Y-93554618D01*
X139343352Y-93447785D01*
X139520487Y-93309915D01*
X139672513Y-93144770D01*
X139795284Y-92956855D01*
X139885451Y-92751296D01*
X139940554Y-92533699D01*
X139952545Y-92388985D01*
X139959090Y-92310005D01*
X139959090Y-92309994D01*
X139940554Y-92086304D01*
X139940554Y-92086301D01*
X139885451Y-91868704D01*
X139795284Y-91663145D01*
X139672513Y-91475230D01*
X139520487Y-91310085D01*
X139373866Y-91195965D01*
X139343354Y-91172216D01*
X139343349Y-91172213D01*
X139145946Y-91065385D01*
X139145943Y-91065384D01*
X139145940Y-91065382D01*
X139145934Y-91065380D01*
X139145932Y-91065379D01*
X138933639Y-90992498D01*
X138735568Y-90959446D01*
X138712233Y-90955552D01*
X138487767Y-90955552D01*
X138464432Y-90959446D01*
X138266360Y-90992498D01*
X138054067Y-91065379D01*
X138054053Y-91065385D01*
X137856650Y-91172213D01*
X137856645Y-91172216D01*
X137679515Y-91310083D01*
X137527484Y-91475233D01*
X137404714Y-91663148D01*
X137314549Y-91868703D01*
X137259445Y-92086304D01*
X137240910Y-92309994D01*
X132800000Y-92309994D01*
X132800000Y-76307973D01*
X132819685Y-76240934D01*
X132832287Y-76224518D01*
X132921087Y-76126932D01*
X133177537Y-75845108D01*
X133237212Y-75808775D01*
X133307061Y-75810473D01*
X133364904Y-75849664D01*
X133376632Y-75866565D01*
X133498185Y-76077102D01*
X133579006Y-76178448D01*
X133666442Y-76288089D01*
X133853183Y-76461358D01*
X133864259Y-76471635D01*
X134087226Y-76623651D01*
X134330359Y-76740738D01*
X134588228Y-76820280D01*
X134588229Y-76820280D01*
X134588232Y-76820281D01*
X134855063Y-76860499D01*
X134855068Y-76860499D01*
X134855071Y-76860500D01*
X134855072Y-76860500D01*
X135124928Y-76860500D01*
X135124929Y-76860500D01*
X135124936Y-76860499D01*
X135391767Y-76820281D01*
X135391768Y-76820280D01*
X135391772Y-76820280D01*
X135649641Y-76740738D01*
X135892775Y-76623651D01*
X136115741Y-76471635D01*
X136313561Y-76288085D01*
X136481815Y-76077102D01*
X136616743Y-75843398D01*
X136715334Y-75592195D01*
X136775383Y-75329103D01*
X136795549Y-75060000D01*
X136794123Y-75040974D01*
X136775383Y-74790898D01*
X136763971Y-74740897D01*
X136715334Y-74527805D01*
X136616743Y-74276602D01*
X136481815Y-74042898D01*
X136313561Y-73831915D01*
X136313560Y-73831914D01*
X136313557Y-73831910D01*
X136115741Y-73648365D01*
X135892775Y-73496349D01*
X135892771Y-73496347D01*
X135892768Y-73496345D01*
X135892767Y-73496344D01*
X135663147Y-73385766D01*
X135611287Y-73338944D01*
X135592974Y-73271517D01*
X135614022Y-73204893D01*
X135667748Y-73160224D01*
X135717011Y-73150046D01*
X210366486Y-73189923D01*
G37*
G04 #@! TD.AperFunction*
G04 #@! TA.AperFunction,Conductor*
G36*
X155439562Y-82912845D02*
G01*
X155483911Y-82941346D01*
X156519739Y-83977174D01*
X156519749Y-83977185D01*
X156524079Y-83981515D01*
X156524080Y-83981516D01*
X156635884Y-84093320D01*
X156635886Y-84093321D01*
X156635890Y-84093324D01*
X156772809Y-84172373D01*
X156772816Y-84172377D01*
X156882307Y-84201715D01*
X156882306Y-84201715D01*
X156887050Y-84202986D01*
X156925542Y-84213300D01*
X156925543Y-84213300D01*
X166280631Y-84213300D01*
X166280647Y-84213301D01*
X166288243Y-84213301D01*
X166446354Y-84213301D01*
X166446357Y-84213301D01*
X166599085Y-84172377D01*
X166649204Y-84143439D01*
X166736016Y-84093320D01*
X166847820Y-83981516D01*
X166847821Y-83981514D01*
X167357821Y-83471514D01*
X167419142Y-83438031D01*
X167488834Y-83443015D01*
X167544767Y-83484887D01*
X167569184Y-83550351D01*
X167569500Y-83559197D01*
X167569500Y-103083230D01*
X167569499Y-103083248D01*
X167569499Y-103248954D01*
X167569498Y-103248954D01*
X167610423Y-103401685D01*
X167619730Y-103417805D01*
X167689477Y-103538612D01*
X167689481Y-103538617D01*
X167808349Y-103657485D01*
X167808355Y-103657490D01*
X171427803Y-107276938D01*
X171461288Y-107338261D01*
X171456304Y-107407953D01*
X171427803Y-107452300D01*
X171281505Y-107598597D01*
X171151575Y-107784158D01*
X171096998Y-107827783D01*
X171027500Y-107834977D01*
X170965145Y-107803454D01*
X170948425Y-107784158D01*
X170818494Y-107598597D01*
X170651402Y-107431506D01*
X170651395Y-107431501D01*
X170457834Y-107295967D01*
X170457830Y-107295965D01*
X170422128Y-107279317D01*
X170243663Y-107196097D01*
X170243659Y-107196096D01*
X170243655Y-107196094D01*
X170015413Y-107134938D01*
X170015403Y-107134936D01*
X169780001Y-107114341D01*
X169779999Y-107114341D01*
X169544596Y-107134936D01*
X169544586Y-107134938D01*
X169316344Y-107196094D01*
X169316335Y-107196098D01*
X169102171Y-107295964D01*
X169102169Y-107295965D01*
X168908597Y-107431505D01*
X168741505Y-107598597D01*
X168611575Y-107784158D01*
X168556998Y-107827783D01*
X168487500Y-107834977D01*
X168425145Y-107803454D01*
X168408425Y-107784158D01*
X168278494Y-107598597D01*
X168111402Y-107431506D01*
X168111395Y-107431501D01*
X167917834Y-107295967D01*
X167917830Y-107295965D01*
X167882128Y-107279317D01*
X167703663Y-107196097D01*
X167703659Y-107196096D01*
X167703655Y-107196094D01*
X167475413Y-107134938D01*
X167475403Y-107134936D01*
X167240001Y-107114341D01*
X167239999Y-107114341D01*
X167004596Y-107134936D01*
X167004586Y-107134938D01*
X166776344Y-107196094D01*
X166776335Y-107196098D01*
X166562171Y-107295964D01*
X166562169Y-107295965D01*
X166368600Y-107431503D01*
X166246673Y-107553430D01*
X166185350Y-107586914D01*
X166115658Y-107581930D01*
X166059725Y-107540058D01*
X166042810Y-107509081D01*
X165993797Y-107377671D01*
X165993793Y-107377664D01*
X165907547Y-107262455D01*
X165907544Y-107262452D01*
X165792335Y-107176206D01*
X165792328Y-107176202D01*
X165657482Y-107125908D01*
X165657483Y-107125908D01*
X165597883Y-107119501D01*
X165597881Y-107119500D01*
X165597873Y-107119500D01*
X165597864Y-107119500D01*
X163802129Y-107119500D01*
X163802123Y-107119501D01*
X163742516Y-107125908D01*
X163607671Y-107176202D01*
X163607664Y-107176206D01*
X163492455Y-107262452D01*
X163492452Y-107262455D01*
X163406206Y-107377664D01*
X163406202Y-107377671D01*
X163355908Y-107512517D01*
X163349501Y-107572116D01*
X163349500Y-107572135D01*
X163349500Y-109367870D01*
X163349501Y-109367876D01*
X163355908Y-109427483D01*
X163406202Y-109562328D01*
X163406206Y-109562335D01*
X163492452Y-109677544D01*
X163492455Y-109677547D01*
X163607664Y-109763793D01*
X163607671Y-109763797D01*
X163742517Y-109814091D01*
X163742516Y-109814091D01*
X163749444Y-109814835D01*
X163802127Y-109820500D01*
X165597872Y-109820499D01*
X165657483Y-109814091D01*
X165792331Y-109763796D01*
X165907546Y-109677546D01*
X165993796Y-109562331D01*
X166042810Y-109430916D01*
X166084681Y-109374984D01*
X166150145Y-109350566D01*
X166218418Y-109365417D01*
X166246673Y-109386569D01*
X166368599Y-109508495D01*
X166450599Y-109565912D01*
X166562165Y-109644032D01*
X166562167Y-109644033D01*
X166562170Y-109644035D01*
X166776337Y-109743903D01*
X167004592Y-109805063D01*
X167181034Y-109820500D01*
X167239999Y-109825659D01*
X167240000Y-109825659D01*
X167240001Y-109825659D01*
X167298966Y-109820500D01*
X167475408Y-109805063D01*
X167703663Y-109743903D01*
X167917830Y-109644035D01*
X168111401Y-109508495D01*
X168278495Y-109341401D01*
X168408425Y-109155842D01*
X168463002Y-109112217D01*
X168532500Y-109105023D01*
X168594855Y-109136546D01*
X168611575Y-109155842D01*
X168741500Y-109341395D01*
X168741505Y-109341401D01*
X168908599Y-109508495D01*
X168990599Y-109565912D01*
X169102165Y-109644032D01*
X169102167Y-109644033D01*
X169102170Y-109644035D01*
X169316337Y-109743903D01*
X169544592Y-109805063D01*
X169721034Y-109820500D01*
X169779999Y-109825659D01*
X169780000Y-109825659D01*
X169780001Y-109825659D01*
X169838966Y-109820500D01*
X170015408Y-109805063D01*
X170243663Y-109743903D01*
X170457830Y-109644035D01*
X170651401Y-109508495D01*
X170818495Y-109341401D01*
X170948425Y-109155842D01*
X171003002Y-109112217D01*
X171072500Y-109105023D01*
X171134855Y-109136546D01*
X171151575Y-109155842D01*
X171281500Y-109341395D01*
X171281505Y-109341401D01*
X171448599Y-109508495D01*
X171530599Y-109565912D01*
X171642165Y-109644032D01*
X171642167Y-109644033D01*
X171642170Y-109644035D01*
X171856337Y-109743903D01*
X172084592Y-109805063D01*
X172261034Y-109820500D01*
X172319999Y-109825659D01*
X172320000Y-109825659D01*
X172320001Y-109825659D01*
X172378966Y-109820500D01*
X172555408Y-109805063D01*
X172783663Y-109743903D01*
X172932995Y-109674267D01*
X173002073Y-109663776D01*
X173065857Y-109692296D01*
X173104096Y-109750772D01*
X173109400Y-109786650D01*
X173109400Y-126383130D01*
X173109399Y-126383148D01*
X173109399Y-126548854D01*
X173109398Y-126548854D01*
X173150323Y-126701585D01*
X173179258Y-126751700D01*
X173179259Y-126751704D01*
X173179260Y-126751704D01*
X173229379Y-126838514D01*
X173229381Y-126838517D01*
X173348249Y-126957385D01*
X173348255Y-126957390D01*
X173967803Y-127576938D01*
X174001288Y-127638261D01*
X173996304Y-127707953D01*
X173967803Y-127752300D01*
X173821508Y-127898594D01*
X173691574Y-128084160D01*
X173636997Y-128127784D01*
X173567498Y-128134977D01*
X173505144Y-128103455D01*
X173488429Y-128084164D01*
X173358495Y-127898599D01*
X173358493Y-127898596D01*
X173191402Y-127731506D01*
X173191395Y-127731501D01*
X172997834Y-127595967D01*
X172997830Y-127595965D01*
X172997826Y-127595963D01*
X172783663Y-127496097D01*
X172783659Y-127496096D01*
X172783655Y-127496094D01*
X172555413Y-127434938D01*
X172555403Y-127434936D01*
X172320001Y-127414341D01*
X172319999Y-127414341D01*
X172084596Y-127434936D01*
X172084586Y-127434938D01*
X171856344Y-127496094D01*
X171856335Y-127496098D01*
X171642171Y-127595964D01*
X171642169Y-127595965D01*
X171448597Y-127731505D01*
X171281505Y-127898597D01*
X171151575Y-128084158D01*
X171096998Y-128127783D01*
X171027500Y-128134977D01*
X170965145Y-128103454D01*
X170948425Y-128084158D01*
X170818494Y-127898597D01*
X170651402Y-127731506D01*
X170651395Y-127731501D01*
X170457831Y-127595965D01*
X170457828Y-127595963D01*
X170438739Y-127587062D01*
X170386301Y-127540889D01*
X170371374Y-127506782D01*
X170339577Y-127388116D01*
X170310640Y-127337995D01*
X170260524Y-127251190D01*
X170260518Y-127251182D01*
X155796719Y-112787383D01*
X155763234Y-112726060D01*
X155760400Y-112699702D01*
X155760400Y-98669999D01*
X163254357Y-98669999D01*
X163254357Y-98670000D01*
X163274884Y-98891535D01*
X163274885Y-98891537D01*
X163335769Y-99105523D01*
X163335775Y-99105538D01*
X163434938Y-99304683D01*
X163434943Y-99304691D01*
X163569020Y-99482238D01*
X163733437Y-99632123D01*
X163733439Y-99632125D01*
X163922595Y-99749245D01*
X163922596Y-99749245D01*
X163922599Y-99749247D01*
X164130060Y-99829618D01*
X164348757Y-99870500D01*
X164348759Y-99870500D01*
X164571241Y-99870500D01*
X164571243Y-99870500D01*
X164789940Y-99829618D01*
X164997401Y-99749247D01*
X165186562Y-99632124D01*
X165350981Y-99482236D01*
X165485058Y-99304689D01*
X165584229Y-99105528D01*
X165645115Y-98891536D01*
X165665643Y-98670000D01*
X165663314Y-98644871D01*
X165645115Y-98448464D01*
X165645114Y-98448462D01*
X165644921Y-98447785D01*
X165584229Y-98234472D01*
X165583117Y-98232238D01*
X165485061Y-98035316D01*
X165485056Y-98035308D01*
X165350979Y-97857761D01*
X165186562Y-97707876D01*
X165186560Y-97707874D01*
X164997404Y-97590754D01*
X164997398Y-97590752D01*
X164789940Y-97510382D01*
X164571243Y-97469500D01*
X164348757Y-97469500D01*
X164130060Y-97510382D01*
X163998864Y-97561207D01*
X163922601Y-97590752D01*
X163922595Y-97590754D01*
X163733439Y-97707874D01*
X163733437Y-97707876D01*
X163569020Y-97857761D01*
X163434943Y-98035308D01*
X163434938Y-98035316D01*
X163335775Y-98234461D01*
X163335769Y-98234476D01*
X163274885Y-98448462D01*
X163274884Y-98448464D01*
X163254357Y-98669999D01*
X155760400Y-98669999D01*
X155760400Y-95102135D01*
X156659500Y-95102135D01*
X156659500Y-96897870D01*
X156659501Y-96897876D01*
X156665908Y-96957483D01*
X156716202Y-97092328D01*
X156716206Y-97092335D01*
X156802452Y-97207544D01*
X156802455Y-97207547D01*
X156917664Y-97293793D01*
X156917671Y-97293797D01*
X157052517Y-97344091D01*
X157052516Y-97344091D01*
X157059444Y-97344835D01*
X157112127Y-97350500D01*
X158907872Y-97350499D01*
X158967483Y-97344091D01*
X159102331Y-97293796D01*
X159217546Y-97207546D01*
X159303796Y-97092331D01*
X159354091Y-96957483D01*
X159360500Y-96897873D01*
X159360499Y-95102128D01*
X159354091Y-95042517D01*
X159303796Y-94907669D01*
X159303795Y-94907668D01*
X159303793Y-94907664D01*
X159217547Y-94792455D01*
X159217544Y-94792452D01*
X159102335Y-94706206D01*
X159102328Y-94706202D01*
X158970401Y-94656997D01*
X158914467Y-94615126D01*
X158890050Y-94549662D01*
X158904902Y-94481389D01*
X158926053Y-94453133D01*
X159048108Y-94331078D01*
X159183600Y-94137578D01*
X159283429Y-93923492D01*
X159283432Y-93923486D01*
X159340636Y-93710000D01*
X158443012Y-93710000D01*
X158475925Y-93652993D01*
X158510000Y-93525826D01*
X158510000Y-93394174D01*
X158475925Y-93267007D01*
X158443012Y-93210000D01*
X159340636Y-93210000D01*
X159340635Y-93209999D01*
X159283432Y-92996513D01*
X159283429Y-92996507D01*
X159183600Y-92782422D01*
X159183599Y-92782420D01*
X159048113Y-92588926D01*
X159048108Y-92588920D01*
X158881082Y-92421894D01*
X158687578Y-92286399D01*
X158473492Y-92186570D01*
X158473486Y-92186567D01*
X158260000Y-92129364D01*
X158260000Y-93026988D01*
X158202993Y-92994075D01*
X158075826Y-92960000D01*
X157944174Y-92960000D01*
X157817007Y-92994075D01*
X157760000Y-93026988D01*
X157760000Y-92129364D01*
X157759999Y-92129364D01*
X157546513Y-92186567D01*
X157546507Y-92186570D01*
X157332422Y-92286399D01*
X157332420Y-92286400D01*
X157138926Y-92421886D01*
X157138920Y-92421891D01*
X156971891Y-92588920D01*
X156971886Y-92588926D01*
X156836400Y-92782420D01*
X156836399Y-92782422D01*
X156736570Y-92996507D01*
X156736567Y-92996513D01*
X156679364Y-93209999D01*
X156679364Y-93210000D01*
X157576988Y-93210000D01*
X157544075Y-93267007D01*
X157510000Y-93394174D01*
X157510000Y-93525826D01*
X157544075Y-93652993D01*
X157576988Y-93710000D01*
X156679364Y-93710000D01*
X156736567Y-93923486D01*
X156736570Y-93923492D01*
X156836399Y-94137578D01*
X156971894Y-94331082D01*
X157093946Y-94453134D01*
X157127431Y-94514457D01*
X157122447Y-94584149D01*
X157080575Y-94640082D01*
X157049598Y-94656997D01*
X156917671Y-94706202D01*
X156917664Y-94706206D01*
X156802455Y-94792452D01*
X156802452Y-94792455D01*
X156716206Y-94907664D01*
X156716202Y-94907671D01*
X156665908Y-95042517D01*
X156659501Y-95102116D01*
X156659501Y-95102123D01*
X156659500Y-95102135D01*
X155760400Y-95102135D01*
X155760400Y-90629999D01*
X163254357Y-90629999D01*
X163254357Y-90630000D01*
X163274884Y-90851535D01*
X163274885Y-90851537D01*
X163335769Y-91065523D01*
X163335775Y-91065538D01*
X163434938Y-91264683D01*
X163434943Y-91264691D01*
X163569020Y-91442238D01*
X163733437Y-91592123D01*
X163733439Y-91592125D01*
X163922595Y-91709245D01*
X163922596Y-91709245D01*
X163922599Y-91709247D01*
X164130060Y-91789618D01*
X164348757Y-91830500D01*
X164348759Y-91830500D01*
X164571241Y-91830500D01*
X164571243Y-91830500D01*
X164789940Y-91789618D01*
X164997401Y-91709247D01*
X165186562Y-91592124D01*
X165350981Y-91442236D01*
X165485058Y-91264689D01*
X165584229Y-91065528D01*
X165645115Y-90851536D01*
X165665643Y-90630000D01*
X165654322Y-90507830D01*
X165645115Y-90408464D01*
X165645114Y-90408462D01*
X165642863Y-90400551D01*
X165584229Y-90194472D01*
X165584224Y-90194461D01*
X165485061Y-89995316D01*
X165485056Y-89995308D01*
X165350979Y-89817761D01*
X165186562Y-89667876D01*
X165186560Y-89667874D01*
X164997404Y-89550754D01*
X164997398Y-89550752D01*
X164789940Y-89470382D01*
X164571243Y-89429500D01*
X164348757Y-89429500D01*
X164130060Y-89470382D01*
X164084813Y-89487911D01*
X163922601Y-89550752D01*
X163922595Y-89550754D01*
X163733439Y-89667874D01*
X163733437Y-89667876D01*
X163569020Y-89817761D01*
X163434943Y-89995308D01*
X163434938Y-89995316D01*
X163335775Y-90194461D01*
X163335769Y-90194476D01*
X163274885Y-90408462D01*
X163274884Y-90408464D01*
X163254357Y-90629999D01*
X155760400Y-90629999D01*
X155760400Y-86442460D01*
X155760401Y-86442447D01*
X155760401Y-86274344D01*
X155719476Y-86121614D01*
X155719473Y-86121609D01*
X155640424Y-85984690D01*
X155640418Y-85984682D01*
X153876819Y-84221083D01*
X153843334Y-84159760D01*
X153840500Y-84133402D01*
X153840500Y-83337144D01*
X153860185Y-83270105D01*
X153912989Y-83224350D01*
X153982147Y-83214406D01*
X153996593Y-83217369D01*
X154020583Y-83223797D01*
X154174592Y-83265063D01*
X154351034Y-83280500D01*
X154409999Y-83285659D01*
X154410000Y-83285659D01*
X154410001Y-83285659D01*
X154468966Y-83280500D01*
X154645408Y-83265063D01*
X154873663Y-83203903D01*
X155087830Y-83104035D01*
X155281401Y-82968495D01*
X155308550Y-82941344D01*
X155369870Y-82907861D01*
X155439562Y-82912845D01*
G37*
G04 #@! TD.AperFunction*
G04 #@! TA.AperFunction,Conductor*
G36*
X190625731Y-81979685D02*
G01*
X190646373Y-81996319D01*
X199573181Y-90923127D01*
X199606666Y-90984450D01*
X199609500Y-91010808D01*
X199609500Y-107212278D01*
X199589815Y-107279317D01*
X199556623Y-107313853D01*
X199388597Y-107431505D01*
X199221505Y-107598597D01*
X199091575Y-107784158D01*
X199036998Y-107827783D01*
X198967500Y-107834977D01*
X198905145Y-107803454D01*
X198888425Y-107784158D01*
X198758494Y-107598597D01*
X198591402Y-107431506D01*
X198591395Y-107431501D01*
X198397834Y-107295967D01*
X198397830Y-107295965D01*
X198362128Y-107279317D01*
X198183663Y-107196097D01*
X198183659Y-107196096D01*
X198183655Y-107196094D01*
X197955413Y-107134938D01*
X197955403Y-107134936D01*
X197720001Y-107114341D01*
X197719999Y-107114341D01*
X197484596Y-107134936D01*
X197484586Y-107134938D01*
X197256344Y-107196094D01*
X197256335Y-107196098D01*
X197042171Y-107295964D01*
X197042169Y-107295965D01*
X196848597Y-107431505D01*
X196681508Y-107598594D01*
X196551269Y-107784595D01*
X196496692Y-107828219D01*
X196427193Y-107835412D01*
X196364839Y-107803890D01*
X196348119Y-107784594D01*
X196218113Y-107598926D01*
X196218108Y-107598920D01*
X196051082Y-107431894D01*
X195857578Y-107296399D01*
X195643492Y-107196570D01*
X195643486Y-107196567D01*
X195430000Y-107139364D01*
X195430000Y-108036988D01*
X195372993Y-108004075D01*
X195245826Y-107970000D01*
X195114174Y-107970000D01*
X194987007Y-108004075D01*
X194930000Y-108036988D01*
X194930000Y-107139364D01*
X194929999Y-107139364D01*
X194716513Y-107196567D01*
X194716507Y-107196570D01*
X194502422Y-107296399D01*
X194502420Y-107296400D01*
X194308926Y-107431886D01*
X194308920Y-107431891D01*
X194141891Y-107598920D01*
X194141890Y-107598922D01*
X194011880Y-107784595D01*
X193957303Y-107828219D01*
X193887804Y-107835412D01*
X193825450Y-107803890D01*
X193808730Y-107784594D01*
X193678494Y-107598597D01*
X193511402Y-107431506D01*
X193511395Y-107431501D01*
X193317834Y-107295967D01*
X193317830Y-107295965D01*
X193282128Y-107279317D01*
X193103663Y-107196097D01*
X193103659Y-107196096D01*
X193103655Y-107196094D01*
X192875413Y-107134938D01*
X192875403Y-107134936D01*
X192640001Y-107114341D01*
X192639999Y-107114341D01*
X192404596Y-107134936D01*
X192404586Y-107134938D01*
X192176344Y-107196094D01*
X192176335Y-107196098D01*
X191962171Y-107295964D01*
X191962169Y-107295965D01*
X191768597Y-107431505D01*
X191601505Y-107598597D01*
X191471575Y-107784158D01*
X191416998Y-107827783D01*
X191347500Y-107834977D01*
X191285145Y-107803454D01*
X191268425Y-107784158D01*
X191138494Y-107598597D01*
X190971402Y-107431506D01*
X190971395Y-107431501D01*
X190777834Y-107295967D01*
X190777830Y-107295965D01*
X190742128Y-107279317D01*
X190563663Y-107196097D01*
X190563659Y-107196096D01*
X190563655Y-107196094D01*
X190335413Y-107134938D01*
X190335403Y-107134936D01*
X190100001Y-107114341D01*
X190099999Y-107114341D01*
X189864596Y-107134936D01*
X189864586Y-107134938D01*
X189636344Y-107196094D01*
X189636335Y-107196098D01*
X189422171Y-107295964D01*
X189422169Y-107295965D01*
X189228597Y-107431505D01*
X189061505Y-107598597D01*
X188931575Y-107784158D01*
X188876998Y-107827783D01*
X188807500Y-107834977D01*
X188745145Y-107803454D01*
X188728425Y-107784158D01*
X188598494Y-107598597D01*
X188431402Y-107431506D01*
X188431395Y-107431501D01*
X188237834Y-107295967D01*
X188237830Y-107295965D01*
X188229501Y-107292081D01*
X188178344Y-107268226D01*
X188125906Y-107222055D01*
X188106754Y-107154861D01*
X188126970Y-107087980D01*
X188143064Y-107068169D01*
X190775506Y-104435728D01*
X190775511Y-104435724D01*
X190785714Y-104425520D01*
X190785716Y-104425520D01*
X190897520Y-104313716D01*
X190952144Y-104219103D01*
X190976577Y-104176785D01*
X191017501Y-104024057D01*
X191017501Y-103865943D01*
X191017501Y-103858348D01*
X191017500Y-103858330D01*
X191017500Y-86909460D01*
X191017501Y-86909447D01*
X191017501Y-86741344D01*
X190993962Y-86653497D01*
X190976577Y-86588616D01*
X190963414Y-86565816D01*
X190897524Y-86451690D01*
X190897518Y-86451682D01*
X190720179Y-86274343D01*
X190260545Y-85814710D01*
X190227061Y-85753388D01*
X190232045Y-85683697D01*
X190260546Y-85639349D01*
X190278495Y-85621401D01*
X190414035Y-85427830D01*
X190513903Y-85213663D01*
X190575063Y-84985408D01*
X190595659Y-84750000D01*
X190575063Y-84514592D01*
X190513903Y-84286337D01*
X190414035Y-84072171D01*
X190408549Y-84064335D01*
X190278494Y-83878597D01*
X190111402Y-83711506D01*
X190111401Y-83711505D01*
X189925405Y-83581269D01*
X189881781Y-83526692D01*
X189874588Y-83457193D01*
X189906110Y-83394839D01*
X189925405Y-83378119D01*
X190111082Y-83248105D01*
X190278105Y-83081082D01*
X190413600Y-82887578D01*
X190513429Y-82673492D01*
X190513432Y-82673486D01*
X190570636Y-82460000D01*
X189673012Y-82460000D01*
X189705925Y-82402993D01*
X189740000Y-82275826D01*
X189740000Y-82144174D01*
X189705925Y-82017007D01*
X189673012Y-81960000D01*
X190558692Y-81960000D01*
X190625731Y-81979685D01*
G37*
G04 #@! TD.AperFunction*
G04 #@! TA.AperFunction,Conductor*
G36*
X178650000Y-100070000D02*
G01*
X178887903Y-100070000D01*
X178954942Y-100089685D01*
X179000697Y-100142489D01*
X179010641Y-100211647D01*
X178981616Y-100275203D01*
X178975584Y-100281679D01*
X177993363Y-101263901D01*
X177031286Y-102225978D01*
X176919481Y-102337782D01*
X176919480Y-102337784D01*
X176891444Y-102386345D01*
X176869361Y-102424594D01*
X176869359Y-102424596D01*
X176840425Y-102474709D01*
X176840424Y-102474710D01*
X176840423Y-102474715D01*
X176799499Y-102627443D01*
X176799499Y-102627445D01*
X176799499Y-102795546D01*
X176799500Y-102795559D01*
X176799500Y-107180908D01*
X176779815Y-107247947D01*
X176727914Y-107293286D01*
X176722173Y-107295963D01*
X176722169Y-107295965D01*
X176528597Y-107431505D01*
X176361508Y-107598594D01*
X176231574Y-107784160D01*
X176176997Y-107827784D01*
X176107498Y-107834977D01*
X176045144Y-107803455D01*
X176028429Y-107784164D01*
X175898495Y-107598599D01*
X175898493Y-107598596D01*
X175731402Y-107431506D01*
X175731395Y-107431501D01*
X175537834Y-107295967D01*
X175537830Y-107295965D01*
X175502128Y-107279317D01*
X175323663Y-107196097D01*
X175323659Y-107196096D01*
X175323655Y-107196094D01*
X175095413Y-107134938D01*
X175095403Y-107134936D01*
X174860001Y-107114341D01*
X174859999Y-107114341D01*
X174624596Y-107134936D01*
X174624583Y-107134939D01*
X174466492Y-107177298D01*
X174396643Y-107175635D01*
X174338780Y-107136472D01*
X174311277Y-107072243D01*
X174310400Y-107057523D01*
X174310400Y-99215123D01*
X174330085Y-99148084D01*
X174382889Y-99102329D01*
X174452047Y-99092385D01*
X174515603Y-99121410D01*
X174547956Y-99165313D01*
X174624075Y-99338848D01*
X174751016Y-99533147D01*
X174751019Y-99533151D01*
X174751021Y-99533153D01*
X174908216Y-99703913D01*
X174908219Y-99703915D01*
X174908222Y-99703918D01*
X175091365Y-99846464D01*
X175091371Y-99846468D01*
X175091374Y-99846470D01*
X175295497Y-99956936D01*
X175391795Y-99989995D01*
X175515015Y-100032297D01*
X175515017Y-100032297D01*
X175515019Y-100032298D01*
X175743951Y-100070500D01*
X175743952Y-100070500D01*
X175976048Y-100070500D01*
X175976049Y-100070500D01*
X176204981Y-100032298D01*
X176424503Y-99956936D01*
X176628626Y-99846470D01*
X176811784Y-99703913D01*
X176820511Y-99694432D01*
X176880394Y-99658441D01*
X176950232Y-99660538D01*
X177007850Y-99700060D01*
X177027924Y-99735080D01*
X177056645Y-99812086D01*
X177056649Y-99812093D01*
X177142809Y-99927187D01*
X177142812Y-99927190D01*
X177257906Y-100013350D01*
X177257913Y-100013354D01*
X177392620Y-100063596D01*
X177392627Y-100063598D01*
X177452155Y-100069999D01*
X177452172Y-100070000D01*
X178150000Y-100070000D01*
X178150000Y-99045277D01*
X178226306Y-99089333D01*
X178340756Y-99120000D01*
X178459244Y-99120000D01*
X178573694Y-99089333D01*
X178650000Y-99045277D01*
X178650000Y-100070000D01*
G37*
G04 #@! TD.AperFunction*
G04 #@! TA.AperFunction,Conductor*
G36*
X178650000Y-92030000D02*
G01*
X178995700Y-92030000D01*
X179062739Y-92049685D01*
X179108494Y-92102489D01*
X179119700Y-92154000D01*
X179119700Y-97146000D01*
X179100015Y-97213039D01*
X179047211Y-97258794D01*
X178995700Y-97270000D01*
X178650000Y-97270000D01*
X178650000Y-98294722D01*
X178573694Y-98250667D01*
X178459244Y-98220000D01*
X178340756Y-98220000D01*
X178226306Y-98250667D01*
X178150000Y-98294722D01*
X178150000Y-97270000D01*
X177452155Y-97270000D01*
X177392627Y-97276401D01*
X177392620Y-97276403D01*
X177257913Y-97326645D01*
X177257906Y-97326649D01*
X177142812Y-97412809D01*
X177142809Y-97412812D01*
X177056649Y-97527906D01*
X177056646Y-97527911D01*
X177027924Y-97604920D01*
X176986052Y-97660853D01*
X176920588Y-97685270D01*
X176852315Y-97670418D01*
X176820514Y-97645571D01*
X176811784Y-97636087D01*
X176811779Y-97636083D01*
X176811777Y-97636081D01*
X176628634Y-97493535D01*
X176628628Y-97493531D01*
X176424504Y-97383064D01*
X176424495Y-97383061D01*
X176204984Y-97307702D01*
X176017404Y-97276401D01*
X175976049Y-97269500D01*
X175743951Y-97269500D01*
X175702596Y-97276401D01*
X175515015Y-97307702D01*
X175295504Y-97383061D01*
X175295495Y-97383064D01*
X175091371Y-97493531D01*
X175091365Y-97493535D01*
X174908222Y-97636081D01*
X174908219Y-97636084D01*
X174908216Y-97636086D01*
X174908216Y-97636087D01*
X174876612Y-97670418D01*
X174751016Y-97806852D01*
X174624075Y-98001151D01*
X174547956Y-98174686D01*
X174503000Y-98228172D01*
X174436264Y-98248862D01*
X174368936Y-98230187D01*
X174322393Y-98178077D01*
X174310400Y-98124876D01*
X174310400Y-91175123D01*
X174330085Y-91108084D01*
X174382889Y-91062329D01*
X174452047Y-91052385D01*
X174515603Y-91081410D01*
X174547956Y-91125313D01*
X174624075Y-91298848D01*
X174751016Y-91493147D01*
X174751019Y-91493151D01*
X174751021Y-91493153D01*
X174908216Y-91663913D01*
X174908219Y-91663915D01*
X174908222Y-91663918D01*
X175091365Y-91806464D01*
X175091371Y-91806468D01*
X175091374Y-91806470D01*
X175295497Y-91916936D01*
X175367408Y-91941623D01*
X175515015Y-91992297D01*
X175515017Y-91992297D01*
X175515019Y-91992298D01*
X175743951Y-92030500D01*
X175743952Y-92030500D01*
X175976048Y-92030500D01*
X175976049Y-92030500D01*
X176204981Y-91992298D01*
X176424503Y-91916936D01*
X176628626Y-91806470D01*
X176811784Y-91663913D01*
X176820511Y-91654432D01*
X176880394Y-91618441D01*
X176950232Y-91620538D01*
X177007850Y-91660060D01*
X177027924Y-91695080D01*
X177056645Y-91772086D01*
X177056649Y-91772093D01*
X177142809Y-91887187D01*
X177142812Y-91887190D01*
X177257906Y-91973350D01*
X177257913Y-91973354D01*
X177392620Y-92023596D01*
X177392627Y-92023598D01*
X177452155Y-92029999D01*
X177452172Y-92030000D01*
X178150000Y-92030000D01*
X178150000Y-91005277D01*
X178226306Y-91049333D01*
X178340756Y-91080000D01*
X178459244Y-91080000D01*
X178573694Y-91049333D01*
X178650000Y-91005277D01*
X178650000Y-92030000D01*
G37*
G04 #@! TD.AperFunction*
G04 #@! TA.AperFunction,Conductor*
G36*
X150559762Y-78751485D02*
G01*
X150605517Y-78804289D01*
X150615461Y-78873447D01*
X150605104Y-78908207D01*
X150596569Y-78926507D01*
X150596567Y-78926513D01*
X150539364Y-79139999D01*
X150539364Y-79140000D01*
X151436988Y-79140000D01*
X151404075Y-79197007D01*
X151370000Y-79324174D01*
X151370000Y-79455826D01*
X151404075Y-79582993D01*
X151436988Y-79640000D01*
X150539364Y-79640000D01*
X150596567Y-79853486D01*
X150596570Y-79853492D01*
X150696399Y-80067578D01*
X150831894Y-80261082D01*
X150953946Y-80383134D01*
X150987431Y-80444457D01*
X150982447Y-80514149D01*
X150940575Y-80570082D01*
X150909598Y-80586997D01*
X150777671Y-80636202D01*
X150777664Y-80636206D01*
X150662455Y-80722452D01*
X150662452Y-80722455D01*
X150576206Y-80837664D01*
X150576202Y-80837671D01*
X150525908Y-80972517D01*
X150519501Y-81032116D01*
X150519500Y-81032135D01*
X150519500Y-82827870D01*
X150519501Y-82827876D01*
X150525908Y-82887483D01*
X150576202Y-83022328D01*
X150576206Y-83022335D01*
X150662452Y-83137544D01*
X150662455Y-83137547D01*
X150777664Y-83223793D01*
X150777671Y-83223797D01*
X150912517Y-83274091D01*
X150912516Y-83274091D01*
X150919444Y-83274835D01*
X150972127Y-83280500D01*
X152515500Y-83280499D01*
X152582539Y-83300184D01*
X152628294Y-83352987D01*
X152639500Y-83404499D01*
X152639500Y-84346830D01*
X152639499Y-84346848D01*
X152639499Y-84512554D01*
X152639498Y-84512554D01*
X152640044Y-84514592D01*
X152680423Y-84665285D01*
X152705917Y-84709442D01*
X152759481Y-84802217D01*
X152878349Y-84921085D01*
X152878355Y-84921090D01*
X154523081Y-86565816D01*
X154556566Y-86627139D01*
X154559400Y-86653497D01*
X154559400Y-96819902D01*
X154539715Y-96886941D01*
X154486911Y-96932696D01*
X154417753Y-96942640D01*
X154354197Y-96913615D01*
X154347719Y-96907583D01*
X151289883Y-93849747D01*
X151256398Y-93788424D01*
X151261382Y-93718732D01*
X151303254Y-93662799D01*
X151357156Y-93639757D01*
X151433516Y-93627015D01*
X151645731Y-93554161D01*
X151645749Y-93554154D01*
X151843075Y-93447365D01*
X151843078Y-93447363D01*
X151865981Y-93429535D01*
X151865981Y-93429534D01*
X151311017Y-92874570D01*
X151331571Y-92869063D01*
X151468377Y-92790078D01*
X151580078Y-92678377D01*
X151659063Y-92541571D01*
X151664570Y-92521018D01*
X152217914Y-93074362D01*
X152294841Y-92956617D01*
X152384976Y-92751130D01*
X152440059Y-92533612D01*
X152458588Y-92310006D01*
X152458588Y-92309993D01*
X152440059Y-92086387D01*
X152384976Y-91868869D01*
X152294841Y-91663382D01*
X152217915Y-91545637D01*
X151664570Y-92098981D01*
X151659063Y-92078429D01*
X151580078Y-91941623D01*
X151468377Y-91829922D01*
X151331571Y-91750937D01*
X151311017Y-91745429D01*
X151865981Y-91190464D01*
X151843073Y-91172634D01*
X151843071Y-91172632D01*
X151645749Y-91065845D01*
X151645731Y-91065838D01*
X151433516Y-90992984D01*
X151212191Y-90956052D01*
X150987809Y-90956052D01*
X150766483Y-90992984D01*
X150554268Y-91065838D01*
X150554260Y-91065841D01*
X150356925Y-91172635D01*
X150334016Y-91190464D01*
X150888982Y-91745429D01*
X150868429Y-91750937D01*
X150731623Y-91829922D01*
X150619922Y-91941623D01*
X150540937Y-92078429D01*
X150535429Y-92098982D01*
X149982084Y-91545637D01*
X149905157Y-91663386D01*
X149815021Y-91868873D01*
X149766346Y-92061084D01*
X149730807Y-92121239D01*
X149668386Y-92152631D01*
X149598903Y-92145293D01*
X149558460Y-92118324D01*
X146376619Y-88936483D01*
X146343134Y-88875160D01*
X146340300Y-88848802D01*
X146340300Y-81820659D01*
X146340301Y-81820646D01*
X146340301Y-81652545D01*
X146340301Y-81652543D01*
X146299377Y-81499815D01*
X146266926Y-81443608D01*
X146220320Y-81362884D01*
X146108516Y-81251080D01*
X146108515Y-81251079D01*
X146104185Y-81246749D01*
X146104174Y-81246739D01*
X145361346Y-80503911D01*
X145327861Y-80442588D01*
X145332845Y-80372896D01*
X145361343Y-80328551D01*
X145388495Y-80301401D01*
X145524035Y-80107830D01*
X145623903Y-79893663D01*
X145685063Y-79665408D01*
X145705659Y-79430000D01*
X145685063Y-79194592D01*
X145630217Y-78989901D01*
X145623905Y-78966344D01*
X145623902Y-78966335D01*
X145613522Y-78944075D01*
X145596794Y-78908203D01*
X145586303Y-78839128D01*
X145614822Y-78775344D01*
X145673299Y-78737104D01*
X145709177Y-78731800D01*
X150492723Y-78731800D01*
X150559762Y-78751485D01*
G37*
G04 #@! TD.AperFunction*
G04 #@! TA.AperFunction,Conductor*
G36*
X174423531Y-78743285D02*
G01*
X174444173Y-78759919D01*
X174825381Y-79141127D01*
X174858866Y-79202450D01*
X174861700Y-79228808D01*
X174861700Y-80666271D01*
X174885448Y-80785654D01*
X174885449Y-80785664D01*
X174885450Y-80785664D01*
X174886698Y-80791943D01*
X174886699Y-80791945D01*
X174935733Y-80910325D01*
X174963672Y-80952138D01*
X175001719Y-81009081D01*
X175006926Y-81016873D01*
X175006927Y-81016874D01*
X175473181Y-81483127D01*
X175506666Y-81544450D01*
X175509500Y-81570808D01*
X175509500Y-82847870D01*
X175509501Y-82847876D01*
X175515908Y-82907483D01*
X175566202Y-83042328D01*
X175566206Y-83042335D01*
X175652452Y-83157544D01*
X175652455Y-83157547D01*
X175767664Y-83243793D01*
X175767671Y-83243797D01*
X175902517Y-83294091D01*
X175902516Y-83294091D01*
X175909444Y-83294835D01*
X175962127Y-83300500D01*
X177757872Y-83300499D01*
X177817483Y-83294091D01*
X177952331Y-83243796D01*
X178067546Y-83157546D01*
X178153796Y-83042331D01*
X178202810Y-82910916D01*
X178244681Y-82854984D01*
X178310145Y-82830566D01*
X178378418Y-82845417D01*
X178406673Y-82866569D01*
X178528599Y-82988495D01*
X178607277Y-83043586D01*
X178722165Y-83124032D01*
X178722167Y-83124033D01*
X178722170Y-83124035D01*
X178738137Y-83131480D01*
X178741256Y-83132935D01*
X178793696Y-83179107D01*
X178808627Y-83213223D01*
X178835063Y-83311884D01*
X178840423Y-83331885D01*
X178845826Y-83341243D01*
X178919477Y-83468812D01*
X178919481Y-83468817D01*
X179038349Y-83587685D01*
X179038355Y-83587690D01*
X179083381Y-83632716D01*
X179116866Y-83694039D01*
X179119700Y-83720397D01*
X179119700Y-89106000D01*
X179100015Y-89173039D01*
X179047211Y-89218794D01*
X178995700Y-89230000D01*
X178650000Y-89230000D01*
X178650000Y-90254722D01*
X178573694Y-90210667D01*
X178459244Y-90180000D01*
X178340756Y-90180000D01*
X178226306Y-90210667D01*
X178150000Y-90254722D01*
X178150000Y-89230000D01*
X177452155Y-89230000D01*
X177392627Y-89236401D01*
X177392620Y-89236403D01*
X177257913Y-89286645D01*
X177257906Y-89286649D01*
X177142812Y-89372809D01*
X177142809Y-89372812D01*
X177056649Y-89487906D01*
X177056646Y-89487911D01*
X177027924Y-89564920D01*
X176986052Y-89620853D01*
X176920588Y-89645270D01*
X176852315Y-89630418D01*
X176820514Y-89605571D01*
X176811784Y-89596087D01*
X176811779Y-89596083D01*
X176811777Y-89596081D01*
X176628634Y-89453535D01*
X176628628Y-89453531D01*
X176424504Y-89343064D01*
X176424495Y-89343061D01*
X176204984Y-89267702D01*
X176017404Y-89236401D01*
X175976049Y-89229500D01*
X175743951Y-89229500D01*
X175702596Y-89236401D01*
X175515015Y-89267702D01*
X175295504Y-89343061D01*
X175295495Y-89343064D01*
X175091371Y-89453531D01*
X175091365Y-89453535D01*
X174908222Y-89596081D01*
X174908219Y-89596084D01*
X174908216Y-89596086D01*
X174908216Y-89596087D01*
X174876612Y-89630418D01*
X174751016Y-89766852D01*
X174624075Y-89961151D01*
X174547956Y-90134686D01*
X174503000Y-90188172D01*
X174436264Y-90208862D01*
X174368936Y-90190187D01*
X174322393Y-90138077D01*
X174310400Y-90084876D01*
X174310400Y-84492645D01*
X174310400Y-84492643D01*
X174269477Y-84339916D01*
X174247081Y-84301124D01*
X174190424Y-84202990D01*
X174190421Y-84202986D01*
X174190420Y-84202984D01*
X174078616Y-84091180D01*
X174078615Y-84091179D01*
X174074285Y-84086849D01*
X174074274Y-84086839D01*
X170451346Y-80463911D01*
X170417861Y-80402588D01*
X170422845Y-80332896D01*
X170451343Y-80288551D01*
X170478495Y-80261401D01*
X170614035Y-80067830D01*
X170713903Y-79853663D01*
X170775063Y-79625408D01*
X170795659Y-79390000D01*
X170793399Y-79364174D01*
X170784635Y-79264000D01*
X170775063Y-79154592D01*
X170718656Y-78944075D01*
X170713905Y-78926344D01*
X170713904Y-78926343D01*
X170713903Y-78926337D01*
X170701623Y-78900004D01*
X170691132Y-78830927D01*
X170719652Y-78767143D01*
X170778128Y-78728904D01*
X170814006Y-78723600D01*
X174356492Y-78723600D01*
X174423531Y-78743285D01*
G37*
G04 #@! TD.AperFunction*
G04 #@! TA.AperFunction,Conductor*
G36*
X186109031Y-78763085D02*
G01*
X186129673Y-78779719D01*
X186805781Y-79455826D01*
X187434624Y-80084669D01*
X187486826Y-80136871D01*
X187525232Y-80175277D01*
X187631766Y-80246461D01*
X187631772Y-80246464D01*
X187631773Y-80246465D01*
X187750156Y-80295501D01*
X187789693Y-80303365D01*
X187851602Y-80335748D01*
X187886177Y-80396464D01*
X187889501Y-80424982D01*
X187889501Y-80567876D01*
X187895908Y-80627483D01*
X187946202Y-80762328D01*
X187946206Y-80762335D01*
X188032452Y-80877544D01*
X188032455Y-80877547D01*
X188147664Y-80963793D01*
X188147671Y-80963797D01*
X188171051Y-80972517D01*
X188279598Y-81013002D01*
X188335531Y-81054873D01*
X188359949Y-81120337D01*
X188345098Y-81188610D01*
X188323947Y-81216865D01*
X188201886Y-81338926D01*
X188066400Y-81532420D01*
X188066399Y-81532422D01*
X187966570Y-81746507D01*
X187966567Y-81746513D01*
X187909364Y-81959999D01*
X187909364Y-81960000D01*
X188806988Y-81960000D01*
X188774075Y-82017007D01*
X188740000Y-82144174D01*
X188740000Y-82275826D01*
X188774075Y-82402993D01*
X188806988Y-82460000D01*
X187909364Y-82460000D01*
X187966567Y-82673486D01*
X187966570Y-82673492D01*
X188066399Y-82887578D01*
X188201894Y-83081082D01*
X188368917Y-83248105D01*
X188554595Y-83378119D01*
X188598219Y-83432696D01*
X188605412Y-83502195D01*
X188573890Y-83564549D01*
X188554595Y-83581269D01*
X188368594Y-83711508D01*
X188201505Y-83878597D01*
X188065966Y-84072168D01*
X188025697Y-84158524D01*
X187979524Y-84210963D01*
X187912330Y-84230114D01*
X187845449Y-84209898D01*
X187825634Y-84193799D01*
X183726919Y-80095084D01*
X183693434Y-80033761D01*
X183690600Y-80007403D01*
X183690600Y-79330945D01*
X183690600Y-79330943D01*
X183649677Y-79178216D01*
X183627613Y-79139999D01*
X183570624Y-79041290D01*
X183570618Y-79041282D01*
X183484417Y-78955081D01*
X183450932Y-78893758D01*
X183455916Y-78824066D01*
X183497788Y-78768133D01*
X183563252Y-78743716D01*
X183572098Y-78743400D01*
X186041992Y-78743400D01*
X186109031Y-78763085D01*
G37*
G04 #@! TD.AperFunction*
M02*
