G04 #@! TF.GenerationSoftware,KiCad,Pcbnew,8.0.6*
G04 #@! TF.CreationDate,2025-01-17T10:19:54-06:00*
G04 #@! TF.ProjectId,Quake_PCB_3,5175616b-655f-4504-9342-5f332e6b6963,rev?*
G04 #@! TF.SameCoordinates,Original*
G04 #@! TF.FileFunction,Soldermask,Bot*
G04 #@! TF.FilePolarity,Negative*
%FSLAX46Y46*%
G04 Gerber Fmt 4.6, Leading zero omitted, Abs format (unit mm)*
G04 Created by KiCad (PCBNEW 8.0.6) date 2025-01-17 10:19:54*
%MOMM*%
%LPD*%
G01*
G04 APERTURE LIST*
%ADD10R,1.700000X1.700000*%
%ADD11O,1.700000X1.700000*%
%ADD12C,1.400000*%
%ADD13O,1.400000X1.400000*%
%ADD14R,1.800000X1.800000*%
%ADD15C,1.800000*%
%ADD16C,1.799996*%
%ADD17C,1.707896*%
G04 APERTURE END LIST*
D10*
X164360000Y-81930000D03*
D11*
X164360000Y-79390000D03*
X166900000Y-81930000D03*
X166900000Y-79390000D03*
X169440000Y-81930000D03*
X169440000Y-79390000D03*
D10*
X189240000Y-79670000D03*
D11*
X189240000Y-82210000D03*
X189240000Y-84750000D03*
X189240000Y-87290000D03*
X189240000Y-89830000D03*
X189240000Y-92370000D03*
X189240000Y-94910000D03*
X189240000Y-97450000D03*
X189240000Y-99990000D03*
D10*
X164700000Y-108470000D03*
D11*
X167240000Y-108470000D03*
X169780000Y-108470000D03*
X172320000Y-108470000D03*
X174860000Y-108470000D03*
X177400000Y-108470000D03*
X179940000Y-108470000D03*
X182480000Y-108470000D03*
X185020000Y-108470000D03*
X187560000Y-108470000D03*
X190100000Y-108470000D03*
X192640000Y-108470000D03*
X195180000Y-108470000D03*
X197720000Y-108470000D03*
X200260000Y-108470000D03*
X202800000Y-108470000D03*
D12*
X164460000Y-90630000D03*
D13*
X172080000Y-90630000D03*
D10*
X176860000Y-81950000D03*
D11*
X176860000Y-79410000D03*
X179400000Y-81950000D03*
X179400000Y-79410000D03*
X181940000Y-81950000D03*
X181940000Y-79410000D03*
D14*
X178400000Y-90630000D03*
D15*
X175860000Y-90630000D03*
D10*
X164700000Y-128770000D03*
D11*
X167240000Y-128770000D03*
X169780000Y-128770000D03*
X172320000Y-128770000D03*
X174860000Y-128770000D03*
X177400000Y-128770000D03*
X179940000Y-128770000D03*
X182480000Y-128770000D03*
X185020000Y-128770000D03*
X187560000Y-128770000D03*
X190100000Y-128770000D03*
X192640000Y-128770000D03*
D10*
X151870000Y-81930000D03*
D11*
X151870000Y-79390000D03*
X154410000Y-81930000D03*
X154410000Y-79390000D03*
X156950000Y-81930000D03*
X156950000Y-79390000D03*
D10*
X158010000Y-96000000D03*
D11*
X158010000Y-93460000D03*
D14*
X178400000Y-98670000D03*
D15*
X175860000Y-98670000D03*
D16*
X144850000Y-90310000D03*
X144850000Y-99310000D03*
D17*
X138600000Y-92310000D03*
X151100000Y-92310000D03*
X138600000Y-97310000D03*
X151100000Y-97310000D03*
D12*
X164460000Y-98670000D03*
D13*
X172080000Y-98670000D03*
D10*
X139270000Y-81970000D03*
D11*
X139270000Y-79430000D03*
X141810000Y-81970000D03*
X141810000Y-79430000D03*
X144350000Y-81970000D03*
X144350000Y-79430000D03*
M02*
