G04 #@! TF.GenerationSoftware,KiCad,Pcbnew,9.0.2*
G04 #@! TF.CreationDate,2025-06-18T13:56:45-05:00*
G04 #@! TF.ProjectId,Quake_PCB_3,5175616b-655f-4504-9342-5f332e6b6963,rev?*
G04 #@! TF.SameCoordinates,Original*
G04 #@! TF.FileFunction,Copper,L2,Bot*
G04 #@! TF.FilePolarity,Positive*
%FSLAX46Y46*%
G04 Gerber Fmt 4.6, Leading zero omitted, Abs format (unit mm)*
G04 Created by KiCad (PCBNEW 9.0.2) date 2025-06-18 13:56:45*
%MOMM*%
%LPD*%
G01*
G04 APERTURE LIST*
G04 #@! TA.AperFunction,ComponentPad*
%ADD10R,1.700000X1.700000*%
G04 #@! TD*
G04 #@! TA.AperFunction,ComponentPad*
%ADD11O,1.700000X1.700000*%
G04 #@! TD*
G04 #@! TA.AperFunction,ComponentPad*
%ADD12C,1.400000*%
G04 #@! TD*
G04 #@! TA.AperFunction,ComponentPad*
%ADD13O,1.400000X1.400000*%
G04 #@! TD*
G04 #@! TA.AperFunction,ComponentPad*
%ADD14R,1.800000X1.800000*%
G04 #@! TD*
G04 #@! TA.AperFunction,ComponentPad*
%ADD15C,1.800000*%
G04 #@! TD*
G04 #@! TA.AperFunction,ComponentPad*
%ADD16O,2.900000X1.700000*%
G04 #@! TD*
G04 #@! TA.AperFunction,ViaPad*
%ADD17C,0.600000*%
G04 #@! TD*
G04 #@! TA.AperFunction,Conductor*
%ADD18C,0.200000*%
G04 #@! TD*
G04 APERTURE END LIST*
D10*
X183680000Y-74900000D03*
D11*
X181140000Y-74900000D03*
X178600000Y-74900000D03*
X176060000Y-74900000D03*
X173520000Y-74900000D03*
X170980000Y-74900000D03*
X168440000Y-74900000D03*
X165900000Y-74900000D03*
X163360000Y-74900000D03*
D10*
X114520000Y-97500000D03*
D11*
X117060000Y-97500000D03*
X119600000Y-97500000D03*
X122140000Y-97500000D03*
X124680000Y-97500000D03*
X127220000Y-97500000D03*
X129760000Y-97500000D03*
X132300000Y-97500000D03*
X134840000Y-97500000D03*
X137380000Y-97500000D03*
X139920000Y-97500000D03*
X142460000Y-97500000D03*
X145000000Y-97500000D03*
X147540000Y-97500000D03*
X150080000Y-97500000D03*
X152620000Y-97500000D03*
D12*
X150000000Y-79500000D03*
D13*
X142380000Y-79500000D03*
D14*
X135225000Y-79500000D03*
D15*
X137765000Y-79500000D03*
D10*
X114520000Y-117800000D03*
D11*
X117060000Y-117800000D03*
X119600000Y-117800000D03*
X122140000Y-117800000D03*
X124680000Y-117800000D03*
X127220000Y-117800000D03*
X129760000Y-117800000D03*
X132300000Y-117800000D03*
X134840000Y-117800000D03*
X137380000Y-117800000D03*
X139920000Y-117800000D03*
X142460000Y-117800000D03*
D10*
X147800000Y-70960000D03*
D11*
X147800000Y-68420000D03*
X150340000Y-70960000D03*
X150340000Y-68420000D03*
X152880000Y-70960000D03*
X152880000Y-68420000D03*
D10*
X128790000Y-85030000D03*
D11*
X128790000Y-82490000D03*
D16*
X109280000Y-68530000D03*
X121780000Y-68530000D03*
X109280000Y-73530000D03*
X121780000Y-73530000D03*
D14*
X135225000Y-87530000D03*
D15*
X137765000Y-87530000D03*
D12*
X128780000Y-74340000D03*
X128780000Y-66720000D03*
D16*
X109280000Y-84030000D03*
X121780000Y-84030000D03*
X109280000Y-89030000D03*
X121780000Y-89030000D03*
D12*
X149810000Y-87500000D03*
D13*
X142190000Y-87500000D03*
D10*
X135200000Y-71000000D03*
D11*
X135200000Y-68460000D03*
X137740000Y-71000000D03*
X137740000Y-68460000D03*
X140280000Y-71000000D03*
X140280000Y-68460000D03*
D17*
X138901200Y-66721200D03*
X151560400Y-78350500D03*
X171563500Y-77645800D03*
X147800000Y-73662800D03*
X133722100Y-69367100D03*
D18*
X138314100Y-67308300D02*
X137740000Y-67308300D01*
X138901200Y-66721200D02*
X138314100Y-67308300D01*
X137740000Y-68460000D02*
X137740000Y-67308300D01*
X151560400Y-70504200D02*
X151560400Y-78350500D01*
X150627900Y-69571700D02*
X151560400Y-70504200D01*
X150340000Y-69571700D02*
X150627900Y-69571700D01*
X150340000Y-68420000D02*
X150340000Y-69571700D01*
X170980000Y-77062300D02*
X171563500Y-77645800D01*
X170980000Y-74900000D02*
X170980000Y-77062300D01*
X147800000Y-70960000D02*
X147800000Y-73662800D01*
X134203300Y-69848300D02*
X135200000Y-69848300D01*
X133722100Y-69367100D02*
X134203300Y-69848300D01*
X135200000Y-71000000D02*
X135200000Y-69848300D01*
G04 #@! TA.AperFunction,Conductor*
G36*
X188004418Y-61000816D02*
G01*
X188204561Y-61015130D01*
X188222063Y-61017647D01*
X188413797Y-61059355D01*
X188430755Y-61064334D01*
X188586212Y-61122317D01*
X188614606Y-61132908D01*
X188630691Y-61140253D01*
X188636102Y-61143207D01*
X188664362Y-61164362D01*
X189335637Y-61835637D01*
X189354417Y-61860723D01*
X189356783Y-61863883D01*
X189359736Y-61869290D01*
X189367091Y-61885391D01*
X189435662Y-62069236D01*
X189440646Y-62086212D01*
X189482351Y-62277931D01*
X189484869Y-62295442D01*
X189499184Y-62495580D01*
X189499500Y-62504427D01*
X189499500Y-75434108D01*
X189499500Y-75500000D01*
X189499500Y-75651252D01*
X189535963Y-75951551D01*
X189561367Y-76054620D01*
X189608358Y-76245272D01*
X189715628Y-76528117D01*
X189856206Y-76795964D01*
X189856212Y-76795973D01*
X190028047Y-77044921D01*
X190028052Y-77044927D01*
X190228646Y-77271351D01*
X190228648Y-77271353D01*
X190455072Y-77471947D01*
X190455078Y-77471952D01*
X190704026Y-77643787D01*
X190704035Y-77643793D01*
X190971882Y-77784371D01*
X191254727Y-77891641D01*
X191254731Y-77891642D01*
X191254734Y-77891643D01*
X191548449Y-77964037D01*
X191784658Y-77992718D01*
X191848746Y-78000500D01*
X191848748Y-78000500D01*
X191934108Y-78000500D01*
X197434108Y-78000500D01*
X197495572Y-78000500D01*
X197504417Y-78000816D01*
X197511363Y-78001312D01*
X197589037Y-78006868D01*
X197654498Y-78031283D01*
X197667870Y-78042870D01*
X198957128Y-79332128D01*
X198990613Y-79393451D01*
X198993131Y-79410962D01*
X198999184Y-79495582D01*
X198999500Y-79504429D01*
X198999500Y-95495933D01*
X198999235Y-95504043D01*
X198982925Y-95752883D01*
X198980807Y-95768964D01*
X198932955Y-96009535D01*
X198928757Y-96025205D01*
X198914390Y-96067526D01*
X198884652Y-96115346D01*
X197615346Y-97384652D01*
X197604637Y-97391311D01*
X197598992Y-97398403D01*
X197567526Y-97414390D01*
X197546666Y-97421471D01*
X197525198Y-97428758D01*
X197509535Y-97432955D01*
X197268964Y-97480807D01*
X197252883Y-97482925D01*
X197004043Y-97499235D01*
X196995933Y-97499500D01*
X162848746Y-97499500D01*
X162698598Y-97517731D01*
X162548449Y-97535963D01*
X162429602Y-97565255D01*
X162254727Y-97608358D01*
X161971882Y-97715628D01*
X161704035Y-97856206D01*
X161704026Y-97856212D01*
X161455078Y-98028047D01*
X161455072Y-98028052D01*
X161228648Y-98228646D01*
X161228646Y-98228648D01*
X161028052Y-98455072D01*
X161028047Y-98455078D01*
X160856212Y-98704026D01*
X160856206Y-98704035D01*
X160715628Y-98971882D01*
X160608358Y-99254727D01*
X160578200Y-99377085D01*
X160535963Y-99548449D01*
X160521377Y-99668568D01*
X160499500Y-99848745D01*
X160499500Y-125449137D01*
X160479815Y-125516176D01*
X160463181Y-125536818D01*
X159036818Y-126963181D01*
X158975495Y-126996666D01*
X158949137Y-126999500D01*
X101504428Y-126999500D01*
X101495582Y-126999184D01*
X101473622Y-126997613D01*
X101295442Y-126984869D01*
X101277931Y-126982351D01*
X101086212Y-126940646D01*
X101069236Y-126935662D01*
X100885391Y-126867091D01*
X100869290Y-126859736D01*
X100863883Y-126856783D01*
X100835637Y-126835637D01*
X100164362Y-126164362D01*
X100164359Y-126164358D01*
X100164357Y-126164357D01*
X100164352Y-126164352D01*
X100143207Y-126136102D01*
X100140253Y-126130691D01*
X100132908Y-126114606D01*
X100072091Y-125951551D01*
X100064334Y-125930755D01*
X100059355Y-125913797D01*
X100017647Y-125722063D01*
X100015130Y-125704556D01*
X100000816Y-125504418D01*
X100000500Y-125495572D01*
X100000500Y-122715819D01*
X100561253Y-122715819D01*
X100561253Y-123041772D01*
X100593201Y-123366157D01*
X100593204Y-123366174D01*
X100656789Y-123685844D01*
X100656792Y-123685855D01*
X100751416Y-123997791D01*
X100876157Y-124298941D01*
X100876159Y-124298946D01*
X101029806Y-124586399D01*
X101029817Y-124586417D01*
X101210910Y-124857442D01*
X101417698Y-125109414D01*
X101648177Y-125339893D01*
X101900149Y-125546681D01*
X101900155Y-125546685D01*
X102171181Y-125727779D01*
X102171190Y-125727784D01*
X102171192Y-125727785D01*
X102458645Y-125881432D01*
X102458647Y-125881432D01*
X102458653Y-125881436D01*
X102759802Y-126006176D01*
X103071727Y-126100797D01*
X103071733Y-126100798D01*
X103071736Y-126100799D01*
X103071747Y-126100802D01*
X103249206Y-126136100D01*
X103391424Y-126164389D01*
X103715816Y-126196339D01*
X103715819Y-126196339D01*
X104041773Y-126196339D01*
X104041776Y-126196339D01*
X104366168Y-126164389D01*
X104524410Y-126132912D01*
X104685844Y-126100802D01*
X104685855Y-126100799D01*
X104685855Y-126100798D01*
X104685865Y-126100797D01*
X104997790Y-126006176D01*
X105298939Y-125881436D01*
X105586411Y-125727779D01*
X105857437Y-125546685D01*
X106109409Y-125339898D01*
X106339898Y-125109409D01*
X106546685Y-124857437D01*
X106727779Y-124586411D01*
X106881436Y-124298939D01*
X107006176Y-123997790D01*
X107100797Y-123685865D01*
X107100799Y-123685855D01*
X107100802Y-123685844D01*
X107132912Y-123524410D01*
X107164389Y-123366168D01*
X107196339Y-123041776D01*
X107196339Y-122715816D01*
X107164389Y-122391424D01*
X107140675Y-122272206D01*
X107100802Y-122071747D01*
X107100799Y-122071736D01*
X107100798Y-122071733D01*
X107100797Y-122071727D01*
X107006176Y-121759802D01*
X106881436Y-121458653D01*
X106824104Y-121351393D01*
X106727785Y-121171192D01*
X106727784Y-121171190D01*
X106727779Y-121171181D01*
X106546685Y-120900155D01*
X106546681Y-120900149D01*
X106339893Y-120648177D01*
X106109414Y-120417698D01*
X105857442Y-120210910D01*
X105586417Y-120029817D01*
X105586416Y-120029816D01*
X105586411Y-120029813D01*
X105586406Y-120029810D01*
X105586399Y-120029806D01*
X105298946Y-119876159D01*
X105298941Y-119876157D01*
X104997791Y-119751416D01*
X104685855Y-119656792D01*
X104685844Y-119656789D01*
X104366174Y-119593204D01*
X104366157Y-119593201D01*
X104120851Y-119569041D01*
X104041776Y-119561253D01*
X103715816Y-119561253D01*
X103642683Y-119568455D01*
X103391434Y-119593201D01*
X103391417Y-119593204D01*
X103071747Y-119656789D01*
X103071736Y-119656792D01*
X102759800Y-119751416D01*
X102458650Y-119876157D01*
X102458645Y-119876159D01*
X102171192Y-120029806D01*
X102171174Y-120029817D01*
X101900149Y-120210910D01*
X101648177Y-120417698D01*
X101417698Y-120648177D01*
X101210910Y-120900149D01*
X101029817Y-121171174D01*
X101029806Y-121171192D01*
X100876159Y-121458645D01*
X100876157Y-121458650D01*
X100751416Y-121759800D01*
X100656792Y-122071736D01*
X100656789Y-122071747D01*
X100593204Y-122391417D01*
X100593201Y-122391434D01*
X100561253Y-122715819D01*
X100000500Y-122715819D01*
X100000500Y-116930247D01*
X113469500Y-116930247D01*
X113469500Y-118669752D01*
X113481131Y-118728229D01*
X113481132Y-118728230D01*
X113525447Y-118794552D01*
X113591769Y-118838867D01*
X113591770Y-118838868D01*
X113650247Y-118850499D01*
X113650250Y-118850500D01*
X113650252Y-118850500D01*
X115389750Y-118850500D01*
X115389751Y-118850499D01*
X115404568Y-118847552D01*
X115448229Y-118838868D01*
X115448229Y-118838867D01*
X115448231Y-118838867D01*
X115514552Y-118794552D01*
X115558867Y-118728231D01*
X115558867Y-118728229D01*
X115558868Y-118728229D01*
X115570499Y-118669752D01*
X115570500Y-118669750D01*
X115570500Y-117696530D01*
X116009500Y-117696530D01*
X116009500Y-117903469D01*
X116049868Y-118106412D01*
X116049870Y-118106420D01*
X116129058Y-118297596D01*
X116244024Y-118469657D01*
X116390342Y-118615975D01*
X116390345Y-118615977D01*
X116562402Y-118730941D01*
X116753580Y-118810130D01*
X116898052Y-118838867D01*
X116956530Y-118850499D01*
X116956534Y-118850500D01*
X116956535Y-118850500D01*
X117163466Y-118850500D01*
X117163467Y-118850499D01*
X117366420Y-118810130D01*
X117557598Y-118730941D01*
X117729655Y-118615977D01*
X117875977Y-118469655D01*
X117990941Y-118297598D01*
X118070130Y-118106420D01*
X118110500Y-117903465D01*
X118110500Y-117696535D01*
X118110499Y-117696530D01*
X118549500Y-117696530D01*
X118549500Y-117903469D01*
X118589868Y-118106412D01*
X118589870Y-118106420D01*
X118669058Y-118297596D01*
X118784024Y-118469657D01*
X118930342Y-118615975D01*
X118930345Y-118615977D01*
X119102402Y-118730941D01*
X119293580Y-118810130D01*
X119438052Y-118838867D01*
X119496530Y-118850499D01*
X119496534Y-118850500D01*
X119496535Y-118850500D01*
X119703466Y-118850500D01*
X119703467Y-118850499D01*
X119906420Y-118810130D01*
X120097598Y-118730941D01*
X120269655Y-118615977D01*
X120415977Y-118469655D01*
X120530941Y-118297598D01*
X120610130Y-118106420D01*
X120650500Y-117903465D01*
X120650500Y-117696535D01*
X120650499Y-117696530D01*
X121089500Y-117696530D01*
X121089500Y-117903469D01*
X121129868Y-118106412D01*
X121129870Y-118106420D01*
X121209058Y-118297596D01*
X121324024Y-118469657D01*
X121470342Y-118615975D01*
X121470345Y-118615977D01*
X121642402Y-118730941D01*
X121833580Y-118810130D01*
X121978052Y-118838867D01*
X122036530Y-118850499D01*
X122036534Y-118850500D01*
X122036535Y-118850500D01*
X122243466Y-118850500D01*
X122243467Y-118850499D01*
X122446420Y-118810130D01*
X122637598Y-118730941D01*
X122809655Y-118615977D01*
X122955977Y-118469655D01*
X123070941Y-118297598D01*
X123150130Y-118106420D01*
X123190500Y-117903465D01*
X123190500Y-117696535D01*
X123190499Y-117696530D01*
X123629500Y-117696530D01*
X123629500Y-117903469D01*
X123669868Y-118106412D01*
X123669870Y-118106420D01*
X123749058Y-118297596D01*
X123864024Y-118469657D01*
X124010342Y-118615975D01*
X124010345Y-118615977D01*
X124182402Y-118730941D01*
X124373580Y-118810130D01*
X124518052Y-118838867D01*
X124576530Y-118850499D01*
X124576534Y-118850500D01*
X124576535Y-118850500D01*
X124783466Y-118850500D01*
X124783467Y-118850499D01*
X124986420Y-118810130D01*
X125177598Y-118730941D01*
X125349655Y-118615977D01*
X125495977Y-118469655D01*
X125610941Y-118297598D01*
X125690130Y-118106420D01*
X125730500Y-117903465D01*
X125730500Y-117696535D01*
X125730499Y-117696530D01*
X126169500Y-117696530D01*
X126169500Y-117903469D01*
X126209868Y-118106412D01*
X126209870Y-118106420D01*
X126289058Y-118297596D01*
X126404024Y-118469657D01*
X126550342Y-118615975D01*
X126550345Y-118615977D01*
X126722402Y-118730941D01*
X126913580Y-118810130D01*
X127058052Y-118838867D01*
X127116530Y-118850499D01*
X127116534Y-118850500D01*
X127116535Y-118850500D01*
X127323466Y-118850500D01*
X127323467Y-118850499D01*
X127526420Y-118810130D01*
X127717598Y-118730941D01*
X127889655Y-118615977D01*
X128035977Y-118469655D01*
X128150941Y-118297598D01*
X128230130Y-118106420D01*
X128270500Y-117903465D01*
X128270500Y-117696535D01*
X128270499Y-117696530D01*
X128709500Y-117696530D01*
X128709500Y-117903469D01*
X128749868Y-118106412D01*
X128749870Y-118106420D01*
X128829058Y-118297596D01*
X128944024Y-118469657D01*
X129090342Y-118615975D01*
X129090345Y-118615977D01*
X129262402Y-118730941D01*
X129453580Y-118810130D01*
X129598052Y-118838867D01*
X129656530Y-118850499D01*
X129656534Y-118850500D01*
X129656535Y-118850500D01*
X129863466Y-118850500D01*
X129863467Y-118850499D01*
X130066420Y-118810130D01*
X130257598Y-118730941D01*
X130429655Y-118615977D01*
X130575977Y-118469655D01*
X130690941Y-118297598D01*
X130770130Y-118106420D01*
X130810500Y-117903465D01*
X130810500Y-117696535D01*
X130810499Y-117696530D01*
X131249500Y-117696530D01*
X131249500Y-117903469D01*
X131289868Y-118106412D01*
X131289870Y-118106420D01*
X131369058Y-118297596D01*
X131484024Y-118469657D01*
X131630342Y-118615975D01*
X131630345Y-118615977D01*
X131802402Y-118730941D01*
X131993580Y-118810130D01*
X132138052Y-118838867D01*
X132196530Y-118850499D01*
X132196534Y-118850500D01*
X132196535Y-118850500D01*
X132403466Y-118850500D01*
X132403467Y-118850499D01*
X132606420Y-118810130D01*
X132797598Y-118730941D01*
X132969655Y-118615977D01*
X133115977Y-118469655D01*
X133230941Y-118297598D01*
X133310130Y-118106420D01*
X133350500Y-117903465D01*
X133350500Y-117696535D01*
X133350499Y-117696530D01*
X133789500Y-117696530D01*
X133789500Y-117903469D01*
X133829868Y-118106412D01*
X133829870Y-118106420D01*
X133909058Y-118297596D01*
X134024024Y-118469657D01*
X134170342Y-118615975D01*
X134170345Y-118615977D01*
X134342402Y-118730941D01*
X134533580Y-118810130D01*
X134678052Y-118838867D01*
X134736530Y-118850499D01*
X134736534Y-118850500D01*
X134736535Y-118850500D01*
X134943466Y-118850500D01*
X134943467Y-118850499D01*
X135146420Y-118810130D01*
X135337598Y-118730941D01*
X135509655Y-118615977D01*
X135655977Y-118469655D01*
X135770941Y-118297598D01*
X135850130Y-118106420D01*
X135890500Y-117903465D01*
X135890500Y-117696535D01*
X135890499Y-117696530D01*
X136329500Y-117696530D01*
X136329500Y-117903469D01*
X136369868Y-118106412D01*
X136369870Y-118106420D01*
X136449058Y-118297596D01*
X136564024Y-118469657D01*
X136710342Y-118615975D01*
X136710345Y-118615977D01*
X136882402Y-118730941D01*
X137073580Y-118810130D01*
X137218052Y-118838867D01*
X137276530Y-118850499D01*
X137276534Y-118850500D01*
X137276535Y-118850500D01*
X137483466Y-118850500D01*
X137483467Y-118850499D01*
X137686420Y-118810130D01*
X137877598Y-118730941D01*
X138049655Y-118615977D01*
X138195977Y-118469655D01*
X138310941Y-118297598D01*
X138390130Y-118106420D01*
X138430500Y-117903465D01*
X138430500Y-117696535D01*
X138430499Y-117696530D01*
X138869500Y-117696530D01*
X138869500Y-117903469D01*
X138909868Y-118106412D01*
X138909870Y-118106420D01*
X138989058Y-118297596D01*
X139104024Y-118469657D01*
X139250342Y-118615975D01*
X139250345Y-118615977D01*
X139422402Y-118730941D01*
X139613580Y-118810130D01*
X139758052Y-118838867D01*
X139816530Y-118850499D01*
X139816534Y-118850500D01*
X139816535Y-118850500D01*
X140023466Y-118850500D01*
X140023467Y-118850499D01*
X140226420Y-118810130D01*
X140417598Y-118730941D01*
X140589655Y-118615977D01*
X140735977Y-118469655D01*
X140850941Y-118297598D01*
X140930130Y-118106420D01*
X140970500Y-117903465D01*
X140970500Y-117696535D01*
X140970499Y-117696530D01*
X141409500Y-117696530D01*
X141409500Y-117903469D01*
X141449868Y-118106412D01*
X141449870Y-118106420D01*
X141529058Y-118297596D01*
X141644024Y-118469657D01*
X141790342Y-118615975D01*
X141790345Y-118615977D01*
X141962402Y-118730941D01*
X142153580Y-118810130D01*
X142298052Y-118838867D01*
X142356530Y-118850499D01*
X142356534Y-118850500D01*
X142356535Y-118850500D01*
X142563466Y-118850500D01*
X142563467Y-118850499D01*
X142766420Y-118810130D01*
X142957598Y-118730941D01*
X143129655Y-118615977D01*
X143275977Y-118469655D01*
X143390941Y-118297598D01*
X143470130Y-118106420D01*
X143510500Y-117903465D01*
X143510500Y-117696535D01*
X143470130Y-117493580D01*
X143390941Y-117302402D01*
X143275977Y-117130345D01*
X143275975Y-117130342D01*
X143129657Y-116984024D01*
X142961655Y-116871770D01*
X142957598Y-116869059D01*
X142766420Y-116789870D01*
X142766412Y-116789868D01*
X142563469Y-116749500D01*
X142563465Y-116749500D01*
X142356535Y-116749500D01*
X142356530Y-116749500D01*
X142153587Y-116789868D01*
X142153579Y-116789870D01*
X141962403Y-116869058D01*
X141790342Y-116984024D01*
X141644024Y-117130342D01*
X141529058Y-117302403D01*
X141449870Y-117493579D01*
X141449868Y-117493587D01*
X141409500Y-117696530D01*
X140970499Y-117696530D01*
X140930130Y-117493580D01*
X140850941Y-117302402D01*
X140735977Y-117130345D01*
X140735975Y-117130342D01*
X140589657Y-116984024D01*
X140421655Y-116871770D01*
X140417598Y-116869059D01*
X140226420Y-116789870D01*
X140226412Y-116789868D01*
X140023469Y-116749500D01*
X140023465Y-116749500D01*
X139816535Y-116749500D01*
X139816530Y-116749500D01*
X139613587Y-116789868D01*
X139613579Y-116789870D01*
X139422403Y-116869058D01*
X139250342Y-116984024D01*
X139104024Y-117130342D01*
X138989058Y-117302403D01*
X138909870Y-117493579D01*
X138909868Y-117493587D01*
X138869500Y-117696530D01*
X138430499Y-117696530D01*
X138390130Y-117493580D01*
X138310941Y-117302402D01*
X138195977Y-117130345D01*
X138195975Y-117130342D01*
X138049657Y-116984024D01*
X137881655Y-116871770D01*
X137877598Y-116869059D01*
X137686420Y-116789870D01*
X137686412Y-116789868D01*
X137483469Y-116749500D01*
X137483465Y-116749500D01*
X137276535Y-116749500D01*
X137276530Y-116749500D01*
X137073587Y-116789868D01*
X137073579Y-116789870D01*
X136882403Y-116869058D01*
X136710342Y-116984024D01*
X136564024Y-117130342D01*
X136449058Y-117302403D01*
X136369870Y-117493579D01*
X136369868Y-117493587D01*
X136329500Y-117696530D01*
X135890499Y-117696530D01*
X135850130Y-117493580D01*
X135770941Y-117302402D01*
X135655977Y-117130345D01*
X135655975Y-117130342D01*
X135509657Y-116984024D01*
X135341655Y-116871770D01*
X135337598Y-116869059D01*
X135146420Y-116789870D01*
X135146412Y-116789868D01*
X134943469Y-116749500D01*
X134943465Y-116749500D01*
X134736535Y-116749500D01*
X134736530Y-116749500D01*
X134533587Y-116789868D01*
X134533579Y-116789870D01*
X134342403Y-116869058D01*
X134170342Y-116984024D01*
X134024024Y-117130342D01*
X133909058Y-117302403D01*
X133829870Y-117493579D01*
X133829868Y-117493587D01*
X133789500Y-117696530D01*
X133350499Y-117696530D01*
X133310130Y-117493580D01*
X133230941Y-117302402D01*
X133115977Y-117130345D01*
X133115975Y-117130342D01*
X132969657Y-116984024D01*
X132801655Y-116871770D01*
X132797598Y-116869059D01*
X132606420Y-116789870D01*
X132606412Y-116789868D01*
X132403469Y-116749500D01*
X132403465Y-116749500D01*
X132196535Y-116749500D01*
X132196530Y-116749500D01*
X131993587Y-116789868D01*
X131993579Y-116789870D01*
X131802403Y-116869058D01*
X131630342Y-116984024D01*
X131484024Y-117130342D01*
X131369058Y-117302403D01*
X131289870Y-117493579D01*
X131289868Y-117493587D01*
X131249500Y-117696530D01*
X130810499Y-117696530D01*
X130770130Y-117493580D01*
X130690941Y-117302402D01*
X130575977Y-117130345D01*
X130575975Y-117130342D01*
X130429657Y-116984024D01*
X130261655Y-116871770D01*
X130257598Y-116869059D01*
X130066420Y-116789870D01*
X130066412Y-116789868D01*
X129863469Y-116749500D01*
X129863465Y-116749500D01*
X129656535Y-116749500D01*
X129656530Y-116749500D01*
X129453587Y-116789868D01*
X129453579Y-116789870D01*
X129262403Y-116869058D01*
X129090342Y-116984024D01*
X128944024Y-117130342D01*
X128829058Y-117302403D01*
X128749870Y-117493579D01*
X128749868Y-117493587D01*
X128709500Y-117696530D01*
X128270499Y-117696530D01*
X128230130Y-117493580D01*
X128150941Y-117302402D01*
X128035977Y-117130345D01*
X128035975Y-117130342D01*
X127889657Y-116984024D01*
X127721655Y-116871770D01*
X127717598Y-116869059D01*
X127526420Y-116789870D01*
X127526412Y-116789868D01*
X127323469Y-116749500D01*
X127323465Y-116749500D01*
X127116535Y-116749500D01*
X127116530Y-116749500D01*
X126913587Y-116789868D01*
X126913579Y-116789870D01*
X126722403Y-116869058D01*
X126550342Y-116984024D01*
X126404024Y-117130342D01*
X126289058Y-117302403D01*
X126209870Y-117493579D01*
X126209868Y-117493587D01*
X126169500Y-117696530D01*
X125730499Y-117696530D01*
X125690130Y-117493580D01*
X125610941Y-117302402D01*
X125495977Y-117130345D01*
X125495975Y-117130342D01*
X125349657Y-116984024D01*
X125181655Y-116871770D01*
X125177598Y-116869059D01*
X124986420Y-116789870D01*
X124986412Y-116789868D01*
X124783469Y-116749500D01*
X124783465Y-116749500D01*
X124576535Y-116749500D01*
X124576530Y-116749500D01*
X124373587Y-116789868D01*
X124373579Y-116789870D01*
X124182403Y-116869058D01*
X124010342Y-116984024D01*
X123864024Y-117130342D01*
X123749058Y-117302403D01*
X123669870Y-117493579D01*
X123669868Y-117493587D01*
X123629500Y-117696530D01*
X123190499Y-117696530D01*
X123150130Y-117493580D01*
X123070941Y-117302402D01*
X122955977Y-117130345D01*
X122955975Y-117130342D01*
X122809657Y-116984024D01*
X122641655Y-116871770D01*
X122637598Y-116869059D01*
X122446420Y-116789870D01*
X122446412Y-116789868D01*
X122243469Y-116749500D01*
X122243465Y-116749500D01*
X122036535Y-116749500D01*
X122036530Y-116749500D01*
X121833587Y-116789868D01*
X121833579Y-116789870D01*
X121642403Y-116869058D01*
X121470342Y-116984024D01*
X121324024Y-117130342D01*
X121209058Y-117302403D01*
X121129870Y-117493579D01*
X121129868Y-117493587D01*
X121089500Y-117696530D01*
X120650499Y-117696530D01*
X120610130Y-117493580D01*
X120530941Y-117302402D01*
X120415977Y-117130345D01*
X120415975Y-117130342D01*
X120269657Y-116984024D01*
X120101655Y-116871770D01*
X120097598Y-116869059D01*
X119906420Y-116789870D01*
X119906412Y-116789868D01*
X119703469Y-116749500D01*
X119703465Y-116749500D01*
X119496535Y-116749500D01*
X119496530Y-116749500D01*
X119293587Y-116789868D01*
X119293579Y-116789870D01*
X119102403Y-116869058D01*
X118930342Y-116984024D01*
X118784024Y-117130342D01*
X118669058Y-117302403D01*
X118589870Y-117493579D01*
X118589868Y-117493587D01*
X118549500Y-117696530D01*
X118110499Y-117696530D01*
X118070130Y-117493580D01*
X117990941Y-117302402D01*
X117875977Y-117130345D01*
X117875975Y-117130342D01*
X117729657Y-116984024D01*
X117561655Y-116871770D01*
X117557598Y-116869059D01*
X117366420Y-116789870D01*
X117366412Y-116789868D01*
X117163469Y-116749500D01*
X117163465Y-116749500D01*
X116956535Y-116749500D01*
X116956530Y-116749500D01*
X116753587Y-116789868D01*
X116753579Y-116789870D01*
X116562403Y-116869058D01*
X116390342Y-116984024D01*
X116244024Y-117130342D01*
X116129058Y-117302403D01*
X116049870Y-117493579D01*
X116049868Y-117493587D01*
X116009500Y-117696530D01*
X115570500Y-117696530D01*
X115570500Y-116930249D01*
X115570499Y-116930247D01*
X115558868Y-116871770D01*
X115558867Y-116871769D01*
X115514552Y-116805447D01*
X115448230Y-116761132D01*
X115448229Y-116761131D01*
X115389752Y-116749500D01*
X115389748Y-116749500D01*
X113650252Y-116749500D01*
X113650247Y-116749500D01*
X113591770Y-116761131D01*
X113591769Y-116761132D01*
X113525447Y-116805447D01*
X113481132Y-116871769D01*
X113481131Y-116871770D01*
X113469500Y-116930247D01*
X100000500Y-116930247D01*
X100000500Y-111368886D01*
X100000499Y-111368872D01*
X99994912Y-111326439D01*
X99966270Y-111108884D01*
X99898398Y-110855581D01*
X99806785Y-110634408D01*
X99798046Y-110613309D01*
X99798041Y-110613299D01*
X99666924Y-110386196D01*
X99507281Y-110178148D01*
X99507274Y-110178140D01*
X99321860Y-109992726D01*
X99321851Y-109992718D01*
X99113803Y-109833075D01*
X98886700Y-109701958D01*
X98886690Y-109701953D01*
X98644428Y-109601605D01*
X98644421Y-109601603D01*
X98644419Y-109601602D01*
X98391116Y-109533730D01*
X98333339Y-109526123D01*
X98131127Y-109499500D01*
X98131120Y-109499500D01*
X98065892Y-109499500D01*
X92300862Y-109499500D01*
X92233823Y-109479815D01*
X92213181Y-109463181D01*
X91036819Y-108286819D01*
X91003334Y-108225496D01*
X91000500Y-108199138D01*
X91000500Y-93728493D01*
X93438401Y-93728493D01*
X93438401Y-93739779D01*
X93438401Y-94055573D01*
X93447870Y-94151715D01*
X93470459Y-94381076D01*
X93534264Y-94701851D01*
X93534267Y-94701862D01*
X93629216Y-95014868D01*
X93754381Y-95317042D01*
X93754388Y-95317056D01*
X93908561Y-95605496D01*
X93908572Y-95605514D01*
X94090278Y-95877455D01*
X94090288Y-95877469D01*
X94297785Y-96130305D01*
X94529055Y-96361575D01*
X94529060Y-96361579D01*
X94529061Y-96361580D01*
X94781897Y-96569077D01*
X95053853Y-96750793D01*
X95342312Y-96904977D01*
X95644494Y-97030145D01*
X95957489Y-97125091D01*
X95957495Y-97125092D01*
X95957498Y-97125093D01*
X95957509Y-97125096D01*
X96252076Y-97183688D01*
X96278284Y-97188901D01*
X96603788Y-97220960D01*
X96603791Y-97220960D01*
X96930865Y-97220960D01*
X96930868Y-97220960D01*
X97256372Y-97188901D01*
X97325458Y-97175159D01*
X97577146Y-97125096D01*
X97577157Y-97125093D01*
X97577157Y-97125092D01*
X97577167Y-97125091D01*
X97890162Y-97030145D01*
X98192344Y-96904977D01*
X98480803Y-96750793D01*
X98661212Y-96630247D01*
X113469500Y-96630247D01*
X113469500Y-98369752D01*
X113481131Y-98428229D01*
X113481132Y-98428230D01*
X113525447Y-98494552D01*
X113591769Y-98538867D01*
X113591770Y-98538868D01*
X113650247Y-98550499D01*
X113650250Y-98550500D01*
X113650252Y-98550500D01*
X115389750Y-98550500D01*
X115389751Y-98550499D01*
X115404568Y-98547552D01*
X115448229Y-98538868D01*
X115448229Y-98538867D01*
X115448231Y-98538867D01*
X115514552Y-98494552D01*
X115558867Y-98428231D01*
X115558867Y-98428229D01*
X115558868Y-98428229D01*
X115570499Y-98369752D01*
X115570500Y-98369750D01*
X115570500Y-97396530D01*
X116009500Y-97396530D01*
X116009500Y-97603469D01*
X116049868Y-97806412D01*
X116049870Y-97806420D01*
X116115939Y-97965925D01*
X116129059Y-97997598D01*
X116142836Y-98018217D01*
X116244024Y-98169657D01*
X116390342Y-98315975D01*
X116390345Y-98315977D01*
X116562402Y-98430941D01*
X116753580Y-98510130D01*
X116898052Y-98538867D01*
X116956530Y-98550499D01*
X116956534Y-98550500D01*
X116956535Y-98550500D01*
X117163466Y-98550500D01*
X117163467Y-98550499D01*
X117366420Y-98510130D01*
X117557598Y-98430941D01*
X117729655Y-98315977D01*
X117875977Y-98169655D01*
X117990941Y-97997598D01*
X118070130Y-97806420D01*
X118110500Y-97603465D01*
X118110500Y-97396535D01*
X118110499Y-97396530D01*
X118549500Y-97396530D01*
X118549500Y-97603469D01*
X118589868Y-97806412D01*
X118589870Y-97806420D01*
X118655939Y-97965925D01*
X118669059Y-97997598D01*
X118682836Y-98018217D01*
X118784024Y-98169657D01*
X118930342Y-98315975D01*
X118930345Y-98315977D01*
X119102402Y-98430941D01*
X119293580Y-98510130D01*
X119438052Y-98538867D01*
X119496530Y-98550499D01*
X119496534Y-98550500D01*
X119496535Y-98550500D01*
X119703466Y-98550500D01*
X119703467Y-98550499D01*
X119906420Y-98510130D01*
X120097598Y-98430941D01*
X120269655Y-98315977D01*
X120415977Y-98169655D01*
X120530941Y-97997598D01*
X120610130Y-97806420D01*
X120650500Y-97603465D01*
X120650500Y-97396535D01*
X120650499Y-97396530D01*
X121089500Y-97396530D01*
X121089500Y-97603469D01*
X121129868Y-97806412D01*
X121129870Y-97806420D01*
X121195939Y-97965925D01*
X121209059Y-97997598D01*
X121222836Y-98018217D01*
X121324024Y-98169657D01*
X121470342Y-98315975D01*
X121470345Y-98315977D01*
X121642402Y-98430941D01*
X121833580Y-98510130D01*
X121978052Y-98538867D01*
X122036530Y-98550499D01*
X122036534Y-98550500D01*
X122036535Y-98550500D01*
X122243466Y-98550500D01*
X122243467Y-98550499D01*
X122446420Y-98510130D01*
X122637598Y-98430941D01*
X122809655Y-98315977D01*
X122955977Y-98169655D01*
X123070941Y-97997598D01*
X123150130Y-97806420D01*
X123190500Y-97603465D01*
X123190500Y-97396535D01*
X123190499Y-97396530D01*
X123629500Y-97396530D01*
X123629500Y-97603469D01*
X123669868Y-97806412D01*
X123669870Y-97806420D01*
X123735939Y-97965925D01*
X123749059Y-97997598D01*
X123762836Y-98018217D01*
X123864024Y-98169657D01*
X124010342Y-98315975D01*
X124010345Y-98315977D01*
X124182402Y-98430941D01*
X124373580Y-98510130D01*
X124518052Y-98538867D01*
X124576530Y-98550499D01*
X124576534Y-98550500D01*
X124576535Y-98550500D01*
X124783466Y-98550500D01*
X124783467Y-98550499D01*
X124986420Y-98510130D01*
X125177598Y-98430941D01*
X125349655Y-98315977D01*
X125495977Y-98169655D01*
X125610941Y-97997598D01*
X125690130Y-97806420D01*
X125730500Y-97603465D01*
X125730500Y-97396535D01*
X125730499Y-97396530D01*
X126169500Y-97396530D01*
X126169500Y-97603469D01*
X126209868Y-97806412D01*
X126209870Y-97806420D01*
X126275939Y-97965925D01*
X126289059Y-97997598D01*
X126302836Y-98018217D01*
X126404024Y-98169657D01*
X126550342Y-98315975D01*
X126550345Y-98315977D01*
X126722402Y-98430941D01*
X126913580Y-98510130D01*
X127058052Y-98538867D01*
X127116530Y-98550499D01*
X127116534Y-98550500D01*
X127116535Y-98550500D01*
X127323466Y-98550500D01*
X127323467Y-98550499D01*
X127526420Y-98510130D01*
X127717598Y-98430941D01*
X127889655Y-98315977D01*
X128035977Y-98169655D01*
X128150941Y-97997598D01*
X128230130Y-97806420D01*
X128270500Y-97603465D01*
X128270500Y-97396535D01*
X128270499Y-97396530D01*
X128709500Y-97396530D01*
X128709500Y-97603469D01*
X128749868Y-97806412D01*
X128749870Y-97806420D01*
X128815939Y-97965925D01*
X128829059Y-97997598D01*
X128842836Y-98018217D01*
X128944024Y-98169657D01*
X129090342Y-98315975D01*
X129090345Y-98315977D01*
X129262402Y-98430941D01*
X129453580Y-98510130D01*
X129598052Y-98538867D01*
X129656530Y-98550499D01*
X129656534Y-98550500D01*
X129656535Y-98550500D01*
X129863466Y-98550500D01*
X129863467Y-98550499D01*
X130066420Y-98510130D01*
X130257598Y-98430941D01*
X130429655Y-98315977D01*
X130575977Y-98169655D01*
X130690941Y-97997598D01*
X130770130Y-97806420D01*
X130810500Y-97603465D01*
X130810500Y-97396535D01*
X130810499Y-97396530D01*
X131249500Y-97396530D01*
X131249500Y-97603469D01*
X131289868Y-97806412D01*
X131289870Y-97806420D01*
X131355939Y-97965925D01*
X131369059Y-97997598D01*
X131382836Y-98018217D01*
X131484024Y-98169657D01*
X131630342Y-98315975D01*
X131630345Y-98315977D01*
X131802402Y-98430941D01*
X131993580Y-98510130D01*
X132138052Y-98538867D01*
X132196530Y-98550499D01*
X132196534Y-98550500D01*
X132196535Y-98550500D01*
X132403466Y-98550500D01*
X132403467Y-98550499D01*
X132606420Y-98510130D01*
X132797598Y-98430941D01*
X132969655Y-98315977D01*
X133115977Y-98169655D01*
X133230941Y-97997598D01*
X133310130Y-97806420D01*
X133350500Y-97603465D01*
X133350500Y-97396535D01*
X133350499Y-97396530D01*
X133789500Y-97396530D01*
X133789500Y-97603469D01*
X133829868Y-97806412D01*
X133829870Y-97806420D01*
X133895939Y-97965925D01*
X133909059Y-97997598D01*
X133922836Y-98018217D01*
X134024024Y-98169657D01*
X134170342Y-98315975D01*
X134170345Y-98315977D01*
X134342402Y-98430941D01*
X134533580Y-98510130D01*
X134678052Y-98538867D01*
X134736530Y-98550499D01*
X134736534Y-98550500D01*
X134736535Y-98550500D01*
X134943466Y-98550500D01*
X134943467Y-98550499D01*
X135146420Y-98510130D01*
X135337598Y-98430941D01*
X135509655Y-98315977D01*
X135655977Y-98169655D01*
X135770941Y-97997598D01*
X135850130Y-97806420D01*
X135890500Y-97603465D01*
X135890500Y-97396535D01*
X135890499Y-97396530D01*
X136329500Y-97396530D01*
X136329500Y-97603469D01*
X136369868Y-97806412D01*
X136369870Y-97806420D01*
X136435939Y-97965925D01*
X136449059Y-97997598D01*
X136462836Y-98018217D01*
X136564024Y-98169657D01*
X136710342Y-98315975D01*
X136710345Y-98315977D01*
X136882402Y-98430941D01*
X137073580Y-98510130D01*
X137218052Y-98538867D01*
X137276530Y-98550499D01*
X137276534Y-98550500D01*
X137276535Y-98550500D01*
X137483466Y-98550500D01*
X137483467Y-98550499D01*
X137686420Y-98510130D01*
X137877598Y-98430941D01*
X138049655Y-98315977D01*
X138195977Y-98169655D01*
X138310941Y-97997598D01*
X138390130Y-97806420D01*
X138430500Y-97603465D01*
X138430500Y-97396535D01*
X138430499Y-97396530D01*
X138869500Y-97396530D01*
X138869500Y-97603469D01*
X138909868Y-97806412D01*
X138909870Y-97806420D01*
X138975939Y-97965925D01*
X138989059Y-97997598D01*
X139002836Y-98018217D01*
X139104024Y-98169657D01*
X139250342Y-98315975D01*
X139250345Y-98315977D01*
X139422402Y-98430941D01*
X139613580Y-98510130D01*
X139758052Y-98538867D01*
X139816530Y-98550499D01*
X139816534Y-98550500D01*
X139816535Y-98550500D01*
X140023466Y-98550500D01*
X140023467Y-98550499D01*
X140226420Y-98510130D01*
X140417598Y-98430941D01*
X140589655Y-98315977D01*
X140735977Y-98169655D01*
X140850941Y-97997598D01*
X140930130Y-97806420D01*
X140970500Y-97603465D01*
X140970500Y-97396535D01*
X140970499Y-97396530D01*
X141409500Y-97396530D01*
X141409500Y-97603469D01*
X141449868Y-97806412D01*
X141449870Y-97806420D01*
X141515939Y-97965925D01*
X141529059Y-97997598D01*
X141542836Y-98018217D01*
X141644024Y-98169657D01*
X141790342Y-98315975D01*
X141790345Y-98315977D01*
X141962402Y-98430941D01*
X142153580Y-98510130D01*
X142298052Y-98538867D01*
X142356530Y-98550499D01*
X142356534Y-98550500D01*
X142356535Y-98550500D01*
X142563466Y-98550500D01*
X142563467Y-98550499D01*
X142766420Y-98510130D01*
X142957598Y-98430941D01*
X143129655Y-98315977D01*
X143275977Y-98169655D01*
X143390941Y-97997598D01*
X143459165Y-97832889D01*
X143503004Y-97778488D01*
X143569298Y-97756423D01*
X143636998Y-97773702D01*
X143684609Y-97824839D01*
X143691656Y-97842026D01*
X143748904Y-98018216D01*
X143845379Y-98207557D01*
X143970272Y-98379459D01*
X143970276Y-98379464D01*
X144120535Y-98529723D01*
X144120540Y-98529727D01*
X144292442Y-98654620D01*
X144481782Y-98751095D01*
X144683871Y-98816757D01*
X144750000Y-98827231D01*
X144750000Y-97933012D01*
X144807007Y-97965925D01*
X144934174Y-98000000D01*
X145065826Y-98000000D01*
X145192993Y-97965925D01*
X145250000Y-97933012D01*
X145250000Y-98827230D01*
X145316126Y-98816757D01*
X145316129Y-98816757D01*
X145518217Y-98751095D01*
X145707557Y-98654620D01*
X145879459Y-98529727D01*
X145879464Y-98529723D01*
X146029723Y-98379464D01*
X146029727Y-98379459D01*
X146154620Y-98207557D01*
X146251095Y-98018217D01*
X146308343Y-97842026D01*
X146347780Y-97784351D01*
X146412139Y-97757152D01*
X146480985Y-97769066D01*
X146532461Y-97816310D01*
X146540833Y-97832887D01*
X146544619Y-97842026D01*
X146595939Y-97965925D01*
X146609059Y-97997598D01*
X146622836Y-98018217D01*
X146724024Y-98169657D01*
X146870342Y-98315975D01*
X146870345Y-98315977D01*
X147042402Y-98430941D01*
X147233580Y-98510130D01*
X147378052Y-98538867D01*
X147436530Y-98550499D01*
X147436534Y-98550500D01*
X147436535Y-98550500D01*
X147643466Y-98550500D01*
X147643467Y-98550499D01*
X147846420Y-98510130D01*
X148037598Y-98430941D01*
X148209655Y-98315977D01*
X148355977Y-98169655D01*
X148470941Y-97997598D01*
X148550130Y-97806420D01*
X148590500Y-97603465D01*
X148590500Y-97396535D01*
X148590499Y-97396530D01*
X149029500Y-97396530D01*
X149029500Y-97603469D01*
X149069868Y-97806412D01*
X149069870Y-97806420D01*
X149135939Y-97965925D01*
X149149059Y-97997598D01*
X149162836Y-98018217D01*
X149264024Y-98169657D01*
X149410342Y-98315975D01*
X149410345Y-98315977D01*
X149582402Y-98430941D01*
X149773580Y-98510130D01*
X149918052Y-98538867D01*
X149976530Y-98550499D01*
X149976534Y-98550500D01*
X149976535Y-98550500D01*
X150183466Y-98550500D01*
X150183467Y-98550499D01*
X150386420Y-98510130D01*
X150577598Y-98430941D01*
X150749655Y-98315977D01*
X150895977Y-98169655D01*
X151010941Y-97997598D01*
X151090130Y-97806420D01*
X151130500Y-97603465D01*
X151130500Y-97396535D01*
X151130499Y-97396530D01*
X151569500Y-97396530D01*
X151569500Y-97603469D01*
X151609868Y-97806412D01*
X151609870Y-97806420D01*
X151675939Y-97965925D01*
X151689059Y-97997598D01*
X151702836Y-98018217D01*
X151804024Y-98169657D01*
X151950342Y-98315975D01*
X151950345Y-98315977D01*
X152122402Y-98430941D01*
X152313580Y-98510130D01*
X152458052Y-98538867D01*
X152516530Y-98550499D01*
X152516534Y-98550500D01*
X152516535Y-98550500D01*
X152723466Y-98550500D01*
X152723467Y-98550499D01*
X152926420Y-98510130D01*
X153117598Y-98430941D01*
X153289655Y-98315977D01*
X153435977Y-98169655D01*
X153550941Y-97997598D01*
X153630130Y-97806420D01*
X153670500Y-97603465D01*
X153670500Y-97396535D01*
X153630130Y-97193580D01*
X153550941Y-97002402D01*
X153435977Y-96830345D01*
X153435975Y-96830342D01*
X153289657Y-96684024D01*
X153121655Y-96571770D01*
X153117598Y-96569059D01*
X152926420Y-96489870D01*
X152926412Y-96489868D01*
X152723469Y-96449500D01*
X152723465Y-96449500D01*
X152516535Y-96449500D01*
X152516530Y-96449500D01*
X152313587Y-96489868D01*
X152313579Y-96489870D01*
X152122403Y-96569058D01*
X151950342Y-96684024D01*
X151804024Y-96830342D01*
X151689058Y-97002403D01*
X151609870Y-97193579D01*
X151609868Y-97193587D01*
X151569500Y-97396530D01*
X151130499Y-97396530D01*
X151090130Y-97193580D01*
X151010941Y-97002402D01*
X150895977Y-96830345D01*
X150895975Y-96830342D01*
X150749657Y-96684024D01*
X150581655Y-96571770D01*
X150577598Y-96569059D01*
X150386420Y-96489870D01*
X150386412Y-96489868D01*
X150183469Y-96449500D01*
X150183465Y-96449500D01*
X149976535Y-96449500D01*
X149976530Y-96449500D01*
X149773587Y-96489868D01*
X149773579Y-96489870D01*
X149582403Y-96569058D01*
X149410342Y-96684024D01*
X149264024Y-96830342D01*
X149149058Y-97002403D01*
X149069870Y-97193579D01*
X149069868Y-97193587D01*
X149029500Y-97396530D01*
X148590499Y-97396530D01*
X148550130Y-97193580D01*
X148470941Y-97002402D01*
X148355977Y-96830345D01*
X148355975Y-96830342D01*
X148209657Y-96684024D01*
X148041655Y-96571770D01*
X148037598Y-96569059D01*
X147846420Y-96489870D01*
X147846412Y-96489868D01*
X147643469Y-96449500D01*
X147643465Y-96449500D01*
X147436535Y-96449500D01*
X147436530Y-96449500D01*
X147233587Y-96489868D01*
X147233579Y-96489870D01*
X147042403Y-96569058D01*
X146870342Y-96684024D01*
X146724024Y-96830342D01*
X146609057Y-97002403D01*
X146540835Y-97167108D01*
X146496994Y-97221511D01*
X146430700Y-97243576D01*
X146363000Y-97226297D01*
X146315390Y-97175159D01*
X146308343Y-97157973D01*
X146251095Y-96981782D01*
X146154620Y-96792442D01*
X146029727Y-96620540D01*
X146029723Y-96620535D01*
X145879464Y-96470276D01*
X145879459Y-96470272D01*
X145707557Y-96345379D01*
X145518215Y-96248903D01*
X145316124Y-96183241D01*
X145250000Y-96172768D01*
X145250000Y-97066988D01*
X145192993Y-97034075D01*
X145065826Y-97000000D01*
X144934174Y-97000000D01*
X144807007Y-97034075D01*
X144750000Y-97066988D01*
X144750000Y-96172768D01*
X144749999Y-96172768D01*
X144683875Y-96183241D01*
X144481784Y-96248903D01*
X144292442Y-96345379D01*
X144120540Y-96470272D01*
X144120535Y-96470276D01*
X143970276Y-96620535D01*
X143970272Y-96620540D01*
X143845379Y-96792442D01*
X143748905Y-96981781D01*
X143691656Y-97157974D01*
X143652218Y-97215649D01*
X143587859Y-97242847D01*
X143519013Y-97230932D01*
X143467537Y-97183688D01*
X143459164Y-97167107D01*
X143453924Y-97154457D01*
X143425697Y-97086310D01*
X143390943Y-97002405D01*
X143275975Y-96830342D01*
X143129657Y-96684024D01*
X142961655Y-96571770D01*
X142957598Y-96569059D01*
X142766420Y-96489870D01*
X142766412Y-96489868D01*
X142563469Y-96449500D01*
X142563465Y-96449500D01*
X142356535Y-96449500D01*
X142356530Y-96449500D01*
X142153587Y-96489868D01*
X142153579Y-96489870D01*
X141962403Y-96569058D01*
X141790342Y-96684024D01*
X141644024Y-96830342D01*
X141529058Y-97002403D01*
X141449870Y-97193579D01*
X141449868Y-97193587D01*
X141409500Y-97396530D01*
X140970499Y-97396530D01*
X140930130Y-97193580D01*
X140850941Y-97002402D01*
X140735977Y-96830345D01*
X140735975Y-96830342D01*
X140589657Y-96684024D01*
X140421655Y-96571770D01*
X140417598Y-96569059D01*
X140226420Y-96489870D01*
X140226412Y-96489868D01*
X140023469Y-96449500D01*
X140023465Y-96449500D01*
X139816535Y-96449500D01*
X139816530Y-96449500D01*
X139613587Y-96489868D01*
X139613579Y-96489870D01*
X139422403Y-96569058D01*
X139250342Y-96684024D01*
X139104024Y-96830342D01*
X138989058Y-97002403D01*
X138909870Y-97193579D01*
X138909868Y-97193587D01*
X138869500Y-97396530D01*
X138430499Y-97396530D01*
X138390130Y-97193580D01*
X138310941Y-97002402D01*
X138195977Y-96830345D01*
X138195975Y-96830342D01*
X138049657Y-96684024D01*
X137881655Y-96571770D01*
X137877598Y-96569059D01*
X137686420Y-96489870D01*
X137686412Y-96489868D01*
X137483469Y-96449500D01*
X137483465Y-96449500D01*
X137276535Y-96449500D01*
X137276530Y-96449500D01*
X137073587Y-96489868D01*
X137073579Y-96489870D01*
X136882403Y-96569058D01*
X136710342Y-96684024D01*
X136564024Y-96830342D01*
X136449058Y-97002403D01*
X136369870Y-97193579D01*
X136369868Y-97193587D01*
X136329500Y-97396530D01*
X135890499Y-97396530D01*
X135850130Y-97193580D01*
X135770941Y-97002402D01*
X135655977Y-96830345D01*
X135655975Y-96830342D01*
X135509657Y-96684024D01*
X135341655Y-96571770D01*
X135337598Y-96569059D01*
X135146420Y-96489870D01*
X135146412Y-96489868D01*
X134943469Y-96449500D01*
X134943465Y-96449500D01*
X134736535Y-96449500D01*
X134736530Y-96449500D01*
X134533587Y-96489868D01*
X134533579Y-96489870D01*
X134342403Y-96569058D01*
X134170342Y-96684024D01*
X134024024Y-96830342D01*
X133909058Y-97002403D01*
X133829870Y-97193579D01*
X133829868Y-97193587D01*
X133789500Y-97396530D01*
X133350499Y-97396530D01*
X133310130Y-97193580D01*
X133230941Y-97002402D01*
X133115977Y-96830345D01*
X133115975Y-96830342D01*
X132969657Y-96684024D01*
X132801655Y-96571770D01*
X132797598Y-96569059D01*
X132606420Y-96489870D01*
X132606412Y-96489868D01*
X132403469Y-96449500D01*
X132403465Y-96449500D01*
X132196535Y-96449500D01*
X132196530Y-96449500D01*
X131993587Y-96489868D01*
X131993579Y-96489870D01*
X131802403Y-96569058D01*
X131630342Y-96684024D01*
X131484024Y-96830342D01*
X131369058Y-97002403D01*
X131289870Y-97193579D01*
X131289868Y-97193587D01*
X131249500Y-97396530D01*
X130810499Y-97396530D01*
X130770130Y-97193580D01*
X130690941Y-97002402D01*
X130575977Y-96830345D01*
X130575975Y-96830342D01*
X130429657Y-96684024D01*
X130261655Y-96571770D01*
X130257598Y-96569059D01*
X130066420Y-96489870D01*
X130066412Y-96489868D01*
X129863469Y-96449500D01*
X129863465Y-96449500D01*
X129656535Y-96449500D01*
X129656530Y-96449500D01*
X129453587Y-96489868D01*
X129453579Y-96489870D01*
X129262403Y-96569058D01*
X129090342Y-96684024D01*
X128944024Y-96830342D01*
X128829058Y-97002403D01*
X128749870Y-97193579D01*
X128749868Y-97193587D01*
X128709500Y-97396530D01*
X128270499Y-97396530D01*
X128230130Y-97193580D01*
X128150941Y-97002402D01*
X128035977Y-96830345D01*
X128035975Y-96830342D01*
X127889657Y-96684024D01*
X127721655Y-96571770D01*
X127717598Y-96569059D01*
X127526420Y-96489870D01*
X127526412Y-96489868D01*
X127323469Y-96449500D01*
X127323465Y-96449500D01*
X127116535Y-96449500D01*
X127116530Y-96449500D01*
X126913587Y-96489868D01*
X126913579Y-96489870D01*
X126722403Y-96569058D01*
X126550342Y-96684024D01*
X126404024Y-96830342D01*
X126289058Y-97002403D01*
X126209870Y-97193579D01*
X126209868Y-97193587D01*
X126169500Y-97396530D01*
X125730499Y-97396530D01*
X125690130Y-97193580D01*
X125610941Y-97002402D01*
X125495977Y-96830345D01*
X125495975Y-96830342D01*
X125349657Y-96684024D01*
X125181655Y-96571770D01*
X125177598Y-96569059D01*
X124986420Y-96489870D01*
X124986412Y-96489868D01*
X124783469Y-96449500D01*
X124783465Y-96449500D01*
X124576535Y-96449500D01*
X124576530Y-96449500D01*
X124373587Y-96489868D01*
X124373579Y-96489870D01*
X124182403Y-96569058D01*
X124010342Y-96684024D01*
X123864024Y-96830342D01*
X123749058Y-97002403D01*
X123669870Y-97193579D01*
X123669868Y-97193587D01*
X123629500Y-97396530D01*
X123190499Y-97396530D01*
X123150130Y-97193580D01*
X123070941Y-97002402D01*
X122955977Y-96830345D01*
X122955975Y-96830342D01*
X122809657Y-96684024D01*
X122641655Y-96571770D01*
X122637598Y-96569059D01*
X122446420Y-96489870D01*
X122446412Y-96489868D01*
X122243469Y-96449500D01*
X122243465Y-96449500D01*
X122036535Y-96449500D01*
X122036530Y-96449500D01*
X121833587Y-96489868D01*
X121833579Y-96489870D01*
X121642403Y-96569058D01*
X121470342Y-96684024D01*
X121324024Y-96830342D01*
X121209058Y-97002403D01*
X121129870Y-97193579D01*
X121129868Y-97193587D01*
X121089500Y-97396530D01*
X120650499Y-97396530D01*
X120610130Y-97193580D01*
X120530941Y-97002402D01*
X120415977Y-96830345D01*
X120415975Y-96830342D01*
X120269657Y-96684024D01*
X120101655Y-96571770D01*
X120097598Y-96569059D01*
X119906420Y-96489870D01*
X119906412Y-96489868D01*
X119703469Y-96449500D01*
X119703465Y-96449500D01*
X119496535Y-96449500D01*
X119496530Y-96449500D01*
X119293587Y-96489868D01*
X119293579Y-96489870D01*
X119102403Y-96569058D01*
X118930342Y-96684024D01*
X118784024Y-96830342D01*
X118669058Y-97002403D01*
X118589870Y-97193579D01*
X118589868Y-97193587D01*
X118549500Y-97396530D01*
X118110499Y-97396530D01*
X118070130Y-97193580D01*
X117990941Y-97002402D01*
X117875977Y-96830345D01*
X117875975Y-96830342D01*
X117729657Y-96684024D01*
X117561655Y-96571770D01*
X117557598Y-96569059D01*
X117366420Y-96489870D01*
X117366412Y-96489868D01*
X117163469Y-96449500D01*
X117163465Y-96449500D01*
X116956535Y-96449500D01*
X116956530Y-96449500D01*
X116753587Y-96489868D01*
X116753579Y-96489870D01*
X116562403Y-96569058D01*
X116390342Y-96684024D01*
X116244024Y-96830342D01*
X116129058Y-97002403D01*
X116049870Y-97193579D01*
X116049868Y-97193587D01*
X116009500Y-97396530D01*
X115570500Y-97396530D01*
X115570500Y-96630249D01*
X115570499Y-96630247D01*
X115558868Y-96571770D01*
X115558867Y-96571769D01*
X115514552Y-96505447D01*
X115448230Y-96461132D01*
X115448229Y-96461131D01*
X115389752Y-96449500D01*
X115389748Y-96449500D01*
X113650252Y-96449500D01*
X113650247Y-96449500D01*
X113591770Y-96461131D01*
X113591769Y-96461132D01*
X113525447Y-96505447D01*
X113481132Y-96571769D01*
X113481131Y-96571770D01*
X113469500Y-96630247D01*
X98661212Y-96630247D01*
X98752759Y-96569077D01*
X99005595Y-96361580D01*
X99236875Y-96130300D01*
X99444372Y-95877464D01*
X99626088Y-95605508D01*
X99780272Y-95317049D01*
X99905440Y-95014867D01*
X100000386Y-94701872D01*
X100000388Y-94701862D01*
X100000391Y-94701851D01*
X100064196Y-94381076D01*
X100070380Y-94318285D01*
X100096255Y-94055573D01*
X100096255Y-93728493D01*
X100064196Y-93402989D01*
X100039731Y-93279993D01*
X100000391Y-93082214D01*
X100000388Y-93082203D01*
X100000387Y-93082200D01*
X100000386Y-93082194D01*
X99905440Y-92769199D01*
X99834819Y-92598706D01*
X99825112Y-92575270D01*
X99807140Y-92531882D01*
X99807134Y-92531868D01*
X161557770Y-92531868D01*
X161557770Y-92768131D01*
X161570184Y-92862417D01*
X161588607Y-93002352D01*
X161649752Y-93230551D01*
X161649755Y-93230558D01*
X161740157Y-93448809D01*
X161740162Y-93448819D01*
X161858284Y-93653413D01*
X162002102Y-93840840D01*
X162002108Y-93840847D01*
X162169152Y-94007891D01*
X162169159Y-94007897D01*
X162356586Y-94151715D01*
X162561180Y-94269837D01*
X162561190Y-94269842D01*
X162654726Y-94308585D01*
X162779449Y-94360248D01*
X163007648Y-94421393D01*
X163241876Y-94452230D01*
X163241883Y-94452230D01*
X163478117Y-94452230D01*
X163478124Y-94452230D01*
X163712352Y-94421393D01*
X163940551Y-94360248D01*
X164158816Y-94269839D01*
X164363414Y-94151715D01*
X164550842Y-94007896D01*
X164717896Y-93840842D01*
X164861715Y-93653414D01*
X164979839Y-93448816D01*
X165070248Y-93230551D01*
X165131393Y-93002352D01*
X165162230Y-92768124D01*
X165162230Y-92581995D01*
X181859500Y-92581995D01*
X181859500Y-92818004D01*
X181859501Y-92818020D01*
X181890306Y-93052010D01*
X181951394Y-93279993D01*
X182041714Y-93498045D01*
X182041719Y-93498056D01*
X182112677Y-93620957D01*
X182159727Y-93702450D01*
X182159729Y-93702453D01*
X182159730Y-93702454D01*
X182303406Y-93889697D01*
X182303412Y-93889704D01*
X182470295Y-94056587D01*
X182470301Y-94056592D01*
X182657550Y-94200273D01*
X182778042Y-94269839D01*
X182861943Y-94318280D01*
X182861948Y-94318282D01*
X182861951Y-94318284D01*
X183080007Y-94408606D01*
X183307986Y-94469693D01*
X183541989Y-94500500D01*
X183541996Y-94500500D01*
X183778004Y-94500500D01*
X183778011Y-94500500D01*
X184012014Y-94469693D01*
X184239993Y-94408606D01*
X184458049Y-94318284D01*
X184662450Y-94200273D01*
X184849699Y-94056592D01*
X185016592Y-93889699D01*
X185160273Y-93702450D01*
X185183633Y-93661990D01*
X189436425Y-93661990D01*
X189436425Y-93673276D01*
X189436425Y-93989070D01*
X189442975Y-94055569D01*
X189468483Y-94314573D01*
X189532288Y-94635348D01*
X189532291Y-94635359D01*
X189627240Y-94948365D01*
X189725407Y-95185360D01*
X189752408Y-95250546D01*
X189787958Y-95317056D01*
X189906585Y-95538993D01*
X189906596Y-95539011D01*
X190088302Y-95810952D01*
X190088312Y-95810966D01*
X190295809Y-96063802D01*
X190527079Y-96295072D01*
X190527084Y-96295076D01*
X190527085Y-96295077D01*
X190779921Y-96502574D01*
X191051877Y-96684290D01*
X191340336Y-96838474D01*
X191642518Y-96963642D01*
X191955513Y-97058588D01*
X191955519Y-97058589D01*
X191955522Y-97058590D01*
X191955533Y-97058593D01*
X192276308Y-97122398D01*
X192601812Y-97154457D01*
X192601815Y-97154457D01*
X192928889Y-97154457D01*
X192928892Y-97154457D01*
X193254396Y-97122398D01*
X193316842Y-97109976D01*
X193575170Y-97058593D01*
X193575181Y-97058590D01*
X193575181Y-97058589D01*
X193575191Y-97058588D01*
X193888186Y-96963642D01*
X194190368Y-96838474D01*
X194478827Y-96684290D01*
X194750783Y-96502574D01*
X195003619Y-96295077D01*
X195234899Y-96063797D01*
X195442396Y-95810961D01*
X195624112Y-95539005D01*
X195778296Y-95250546D01*
X195903464Y-94948364D01*
X195998410Y-94635369D01*
X195998412Y-94635359D01*
X195998415Y-94635348D01*
X196062220Y-94314573D01*
X196066626Y-94269837D01*
X196094279Y-93989070D01*
X196094279Y-93661990D01*
X196062220Y-93336486D01*
X196041150Y-93230558D01*
X195998415Y-93015711D01*
X195998412Y-93015700D01*
X195998411Y-93015697D01*
X195998410Y-93015691D01*
X195903464Y-92702696D01*
X195778296Y-92400514D01*
X195639960Y-92141705D01*
X195624118Y-92112066D01*
X195624117Y-92112064D01*
X195624112Y-92112055D01*
X195442396Y-91840099D01*
X195234899Y-91587263D01*
X195234898Y-91587262D01*
X195234894Y-91587257D01*
X195003624Y-91355987D01*
X194750788Y-91148490D01*
X194750787Y-91148489D01*
X194750783Y-91148486D01*
X194478827Y-90966770D01*
X194478822Y-90966767D01*
X194478815Y-90966763D01*
X194190375Y-90812590D01*
X194190368Y-90812586D01*
X194190361Y-90812583D01*
X193888187Y-90687418D01*
X193575181Y-90592469D01*
X193575170Y-90592466D01*
X193254395Y-90528661D01*
X193009239Y-90504516D01*
X192928892Y-90496603D01*
X192601812Y-90496603D01*
X192527573Y-90503914D01*
X192276308Y-90528661D01*
X191955533Y-90592466D01*
X191955522Y-90592469D01*
X191642516Y-90687418D01*
X191340342Y-90812583D01*
X191340328Y-90812590D01*
X191051888Y-90966763D01*
X191051870Y-90966774D01*
X190779929Y-91148480D01*
X190779915Y-91148490D01*
X190527079Y-91355987D01*
X190295809Y-91587257D01*
X190088312Y-91840093D01*
X190088302Y-91840107D01*
X189906596Y-92112048D01*
X189906585Y-92112066D01*
X189752412Y-92400506D01*
X189752405Y-92400520D01*
X189627240Y-92702694D01*
X189532291Y-93015700D01*
X189532288Y-93015711D01*
X189468483Y-93336486D01*
X189452571Y-93498056D01*
X189436425Y-93661990D01*
X185183633Y-93661990D01*
X185278284Y-93498049D01*
X185368606Y-93279993D01*
X185429693Y-93052014D01*
X185460500Y-92818011D01*
X185460500Y-92581989D01*
X185429693Y-92347986D01*
X185368606Y-92120007D01*
X185278284Y-91901951D01*
X185278282Y-91901948D01*
X185278280Y-91901943D01*
X185207583Y-91779494D01*
X185160273Y-91697550D01*
X185016592Y-91510301D01*
X185016587Y-91510295D01*
X184849704Y-91343412D01*
X184849697Y-91343406D01*
X184662454Y-91199730D01*
X184662453Y-91199729D01*
X184662450Y-91199727D01*
X184573348Y-91148284D01*
X184458056Y-91081719D01*
X184458045Y-91081714D01*
X184239993Y-90991394D01*
X184047263Y-90939752D01*
X184012014Y-90930307D01*
X184012013Y-90930306D01*
X184012010Y-90930306D01*
X183778020Y-90899501D01*
X183778017Y-90899500D01*
X183778011Y-90899500D01*
X183541989Y-90899500D01*
X183541983Y-90899500D01*
X183541979Y-90899501D01*
X183307989Y-90930306D01*
X183080006Y-90991394D01*
X182861954Y-91081714D01*
X182861943Y-91081719D01*
X182657545Y-91199730D01*
X182470302Y-91343406D01*
X182470295Y-91343412D01*
X182303412Y-91510295D01*
X182303406Y-91510302D01*
X182159730Y-91697545D01*
X182041719Y-91901943D01*
X182041714Y-91901954D01*
X181951394Y-92120006D01*
X181890306Y-92347989D01*
X181859501Y-92581979D01*
X181859500Y-92581995D01*
X165162230Y-92581995D01*
X165162230Y-92531876D01*
X165131393Y-92297648D01*
X165070248Y-92069449D01*
X165003190Y-91907558D01*
X164979842Y-91851190D01*
X164979837Y-91851180D01*
X164861715Y-91646586D01*
X164717897Y-91459159D01*
X164717891Y-91459152D01*
X164550847Y-91292108D01*
X164550840Y-91292102D01*
X164363413Y-91148284D01*
X164158819Y-91030162D01*
X164158809Y-91030157D01*
X163940558Y-90939755D01*
X163940559Y-90939755D01*
X163940551Y-90939752D01*
X163939416Y-90939448D01*
X163892315Y-90926827D01*
X163712352Y-90878607D01*
X163673207Y-90873453D01*
X163478131Y-90847770D01*
X163478124Y-90847770D01*
X163241876Y-90847770D01*
X163241868Y-90847770D01*
X163018923Y-90877122D01*
X163007648Y-90878607D01*
X162931581Y-90898988D01*
X162779455Y-90939750D01*
X162779441Y-90939755D01*
X162561190Y-91030157D01*
X162561180Y-91030162D01*
X162356586Y-91148284D01*
X162169159Y-91292102D01*
X162169152Y-91292108D01*
X162002108Y-91459152D01*
X162002102Y-91459159D01*
X161858284Y-91646586D01*
X161740162Y-91851180D01*
X161740157Y-91851190D01*
X161649755Y-92069441D01*
X161649750Y-92069455D01*
X161588608Y-92297645D01*
X161588606Y-92297656D01*
X161557770Y-92531868D01*
X99807134Y-92531868D01*
X99780272Y-92467017D01*
X99626088Y-92178558D01*
X99444372Y-91906602D01*
X99236875Y-91653766D01*
X99236874Y-91653765D01*
X99236870Y-91653760D01*
X99005600Y-91422490D01*
X98752764Y-91214993D01*
X98752763Y-91214992D01*
X98752759Y-91214989D01*
X98487390Y-91037674D01*
X98480813Y-91033279D01*
X98480791Y-91033266D01*
X98305268Y-90939448D01*
X114379500Y-90939448D01*
X114379500Y-91120551D01*
X114407829Y-91299410D01*
X114463787Y-91471636D01*
X114463788Y-91471639D01*
X114546006Y-91632997D01*
X114652441Y-91779494D01*
X114652445Y-91779499D01*
X114780500Y-91907554D01*
X114780505Y-91907558D01*
X114900728Y-91994904D01*
X114927006Y-92013996D01*
X115032484Y-92067740D01*
X115088360Y-92096211D01*
X115088363Y-92096212D01*
X115137158Y-92112066D01*
X115260591Y-92152171D01*
X115343429Y-92165291D01*
X115439449Y-92180500D01*
X115439454Y-92180500D01*
X115620551Y-92180500D01*
X115707259Y-92166765D01*
X115799409Y-92152171D01*
X115971639Y-92096211D01*
X116132994Y-92013996D01*
X116279501Y-91907553D01*
X116407553Y-91779501D01*
X116513996Y-91632994D01*
X116596211Y-91471639D01*
X116652171Y-91299409D01*
X116667959Y-91199727D01*
X116680500Y-91120551D01*
X116680500Y-90939448D01*
X116660406Y-90812586D01*
X116652171Y-90760591D01*
X116598422Y-90595165D01*
X116596212Y-90588363D01*
X116596211Y-90588360D01*
X116565792Y-90528661D01*
X116513996Y-90427006D01*
X116500396Y-90408287D01*
X116407558Y-90280505D01*
X116407554Y-90280500D01*
X116279499Y-90152445D01*
X116279494Y-90152441D01*
X116132997Y-90046006D01*
X116132996Y-90046005D01*
X116132994Y-90046004D01*
X116081300Y-90019664D01*
X115971639Y-89963788D01*
X115971636Y-89963787D01*
X115799410Y-89907829D01*
X115620551Y-89879500D01*
X115620546Y-89879500D01*
X115439454Y-89879500D01*
X115439449Y-89879500D01*
X115260589Y-89907829D01*
X115088363Y-89963787D01*
X115088360Y-89963788D01*
X114927002Y-90046006D01*
X114780505Y-90152441D01*
X114780500Y-90152445D01*
X114652445Y-90280500D01*
X114652441Y-90280505D01*
X114546006Y-90427002D01*
X114463788Y-90588360D01*
X114463787Y-90588363D01*
X114407829Y-90760589D01*
X114379500Y-90939448D01*
X98305268Y-90939448D01*
X98192351Y-90879093D01*
X98192344Y-90879089D01*
X98191183Y-90878608D01*
X97890163Y-90753921D01*
X97577157Y-90658972D01*
X97577146Y-90658969D01*
X97256371Y-90595164D01*
X97011215Y-90571019D01*
X96930868Y-90563106D01*
X96603788Y-90563106D01*
X96529549Y-90570417D01*
X96278284Y-90595164D01*
X95957509Y-90658969D01*
X95957498Y-90658972D01*
X95644492Y-90753921D01*
X95342318Y-90879086D01*
X95342304Y-90879093D01*
X95053864Y-91033266D01*
X95053846Y-91033277D01*
X94781905Y-91214983D01*
X94781891Y-91214993D01*
X94529055Y-91422490D01*
X94297785Y-91653760D01*
X94090288Y-91906596D01*
X94090278Y-91906610D01*
X93908572Y-92178551D01*
X93908561Y-92178569D01*
X93754388Y-92467009D01*
X93754381Y-92467023D01*
X93629216Y-92769197D01*
X93534267Y-93082203D01*
X93534264Y-93082214D01*
X93470459Y-93402989D01*
X93451357Y-93596943D01*
X93438401Y-93728493D01*
X91000500Y-93728493D01*
X91000500Y-88926530D01*
X107629500Y-88926530D01*
X107629500Y-89133469D01*
X107669868Y-89336412D01*
X107669870Y-89336420D01*
X107749058Y-89527596D01*
X107864024Y-89699657D01*
X108010342Y-89845975D01*
X108010345Y-89845977D01*
X108182402Y-89960941D01*
X108373580Y-90040130D01*
X108576530Y-90080499D01*
X108576534Y-90080500D01*
X108576535Y-90080500D01*
X109983466Y-90080500D01*
X109983467Y-90080499D01*
X110186420Y-90040130D01*
X110377598Y-89960941D01*
X110549655Y-89845977D01*
X110695977Y-89699655D01*
X110810941Y-89527598D01*
X110890130Y-89336420D01*
X110930500Y-89133465D01*
X110930500Y-88926535D01*
X110930499Y-88926530D01*
X120129500Y-88926530D01*
X120129500Y-89133469D01*
X120169868Y-89336412D01*
X120169870Y-89336420D01*
X120249058Y-89527596D01*
X120364024Y-89699657D01*
X120510342Y-89845975D01*
X120510345Y-89845977D01*
X120682402Y-89960941D01*
X120873580Y-90040130D01*
X121076530Y-90080499D01*
X121076534Y-90080500D01*
X121076535Y-90080500D01*
X122483466Y-90080500D01*
X122483467Y-90080499D01*
X122686420Y-90040130D01*
X122877598Y-89960941D01*
X123049655Y-89845977D01*
X123195977Y-89699655D01*
X123310941Y-89527598D01*
X123390130Y-89336420D01*
X123430500Y-89133465D01*
X123430500Y-88926535D01*
X123390130Y-88723580D01*
X123310941Y-88532402D01*
X123195977Y-88360345D01*
X123195975Y-88360342D01*
X123049657Y-88214024D01*
X122882068Y-88102046D01*
X122877598Y-88099059D01*
X122860802Y-88092102D01*
X122686420Y-88019870D01*
X122686412Y-88019868D01*
X122483469Y-87979500D01*
X122483465Y-87979500D01*
X121076535Y-87979500D01*
X121076530Y-87979500D01*
X120873587Y-88019868D01*
X120873579Y-88019870D01*
X120682403Y-88099058D01*
X120510342Y-88214024D01*
X120364024Y-88360342D01*
X120249058Y-88532403D01*
X120169870Y-88723579D01*
X120169868Y-88723587D01*
X120129500Y-88926530D01*
X110930499Y-88926530D01*
X110890130Y-88723580D01*
X110810941Y-88532402D01*
X110695977Y-88360345D01*
X110695975Y-88360342D01*
X110549657Y-88214024D01*
X110382068Y-88102046D01*
X110377598Y-88099059D01*
X110360802Y-88092102D01*
X110186420Y-88019870D01*
X110186412Y-88019868D01*
X109983469Y-87979500D01*
X109983465Y-87979500D01*
X108576535Y-87979500D01*
X108576530Y-87979500D01*
X108373587Y-88019868D01*
X108373579Y-88019870D01*
X108182403Y-88099058D01*
X108010342Y-88214024D01*
X107864024Y-88360342D01*
X107749058Y-88532403D01*
X107669870Y-88723579D01*
X107669868Y-88723587D01*
X107629500Y-88926530D01*
X91000500Y-88926530D01*
X91000500Y-86582155D01*
X133825000Y-86582155D01*
X133825000Y-87280000D01*
X134849722Y-87280000D01*
X134805667Y-87356306D01*
X134775000Y-87470756D01*
X134775000Y-87589244D01*
X134805667Y-87703694D01*
X134849722Y-87780000D01*
X133825000Y-87780000D01*
X133825000Y-88477844D01*
X133831401Y-88537372D01*
X133831403Y-88537379D01*
X133881645Y-88672086D01*
X133881649Y-88672093D01*
X133967809Y-88787187D01*
X133967812Y-88787190D01*
X134082906Y-88873350D01*
X134082913Y-88873354D01*
X134217620Y-88923596D01*
X134217627Y-88923598D01*
X134277155Y-88929999D01*
X134277172Y-88930000D01*
X134975000Y-88930000D01*
X134975000Y-87905277D01*
X135051306Y-87949333D01*
X135165756Y-87980000D01*
X135284244Y-87980000D01*
X135398694Y-87949333D01*
X135475000Y-87905277D01*
X135475000Y-88930000D01*
X136172828Y-88930000D01*
X136172844Y-88929999D01*
X136232372Y-88923598D01*
X136232379Y-88923596D01*
X136367086Y-88873354D01*
X136367093Y-88873350D01*
X136482187Y-88787190D01*
X136482190Y-88787187D01*
X136568350Y-88672093D01*
X136568354Y-88672086D01*
X136618596Y-88537379D01*
X136618598Y-88537372D01*
X136624999Y-88477844D01*
X136625000Y-88477827D01*
X136625000Y-88214840D01*
X136644685Y-88147801D01*
X136697489Y-88102046D01*
X136766647Y-88092102D01*
X136830203Y-88121127D01*
X136849316Y-88141952D01*
X136925586Y-88246928D01*
X137048072Y-88369414D01*
X137188212Y-88471232D01*
X137342555Y-88549873D01*
X137507299Y-88603402D01*
X137678389Y-88630500D01*
X137678390Y-88630500D01*
X137851610Y-88630500D01*
X137851611Y-88630500D01*
X138022701Y-88603402D01*
X138187445Y-88549873D01*
X138341788Y-88471232D01*
X138481928Y-88369414D01*
X138604414Y-88246928D01*
X138706232Y-88106788D01*
X138784873Y-87952445D01*
X138838402Y-87787701D01*
X138865500Y-87616611D01*
X138865500Y-87443389D01*
X138860418Y-87411304D01*
X141289500Y-87411304D01*
X141289500Y-87588695D01*
X141324103Y-87762658D01*
X141324106Y-87762667D01*
X141391983Y-87926540D01*
X141391990Y-87926553D01*
X141490535Y-88074034D01*
X141490538Y-88074038D01*
X141615961Y-88199461D01*
X141615965Y-88199464D01*
X141763446Y-88298009D01*
X141763459Y-88298016D01*
X141886363Y-88348923D01*
X141927334Y-88365894D01*
X141927336Y-88365894D01*
X141927341Y-88365896D01*
X142101304Y-88400499D01*
X142101307Y-88400500D01*
X142101309Y-88400500D01*
X142278693Y-88400500D01*
X142278694Y-88400499D01*
X142336682Y-88388964D01*
X142452658Y-88365896D01*
X142452661Y-88365894D01*
X142452666Y-88365894D01*
X142616547Y-88298013D01*
X142764035Y-88199464D01*
X142889464Y-88074035D01*
X142988013Y-87926547D01*
X143055894Y-87762666D01*
X143067625Y-87703694D01*
X143084946Y-87616611D01*
X143090500Y-87588691D01*
X143090500Y-87411309D01*
X143090500Y-87411306D01*
X143090499Y-87411304D01*
X148909500Y-87411304D01*
X148909500Y-87588695D01*
X148944103Y-87762658D01*
X148944106Y-87762667D01*
X149011983Y-87926540D01*
X149011990Y-87926553D01*
X149110535Y-88074034D01*
X149110538Y-88074038D01*
X149235961Y-88199461D01*
X149235965Y-88199464D01*
X149383446Y-88298009D01*
X149383459Y-88298016D01*
X149506363Y-88348923D01*
X149547334Y-88365894D01*
X149547336Y-88365894D01*
X149547341Y-88365896D01*
X149721304Y-88400499D01*
X149721307Y-88400500D01*
X149721309Y-88400500D01*
X149898693Y-88400500D01*
X149898694Y-88400499D01*
X149956682Y-88388964D01*
X150072658Y-88365896D01*
X150072661Y-88365894D01*
X150072666Y-88365894D01*
X150236547Y-88298013D01*
X150384035Y-88199464D01*
X150509464Y-88074035D01*
X150608013Y-87926547D01*
X150675894Y-87762666D01*
X150687625Y-87703694D01*
X150704946Y-87616611D01*
X150710500Y-87588691D01*
X150710500Y-87411309D01*
X150710500Y-87411306D01*
X150710499Y-87411304D01*
X150675896Y-87237341D01*
X150675893Y-87237332D01*
X150608016Y-87073459D01*
X150608009Y-87073446D01*
X150509464Y-86925965D01*
X150509461Y-86925961D01*
X150384038Y-86800538D01*
X150384034Y-86800535D01*
X150236553Y-86701990D01*
X150236540Y-86701983D01*
X150072667Y-86634106D01*
X150072658Y-86634103D01*
X149898694Y-86599500D01*
X149898691Y-86599500D01*
X149721309Y-86599500D01*
X149721306Y-86599500D01*
X149547341Y-86634103D01*
X149547332Y-86634106D01*
X149383459Y-86701983D01*
X149383446Y-86701990D01*
X149235965Y-86800535D01*
X149235961Y-86800538D01*
X149110538Y-86925961D01*
X149110535Y-86925965D01*
X149011990Y-87073446D01*
X149011983Y-87073459D01*
X148944106Y-87237332D01*
X148944103Y-87237341D01*
X148909500Y-87411304D01*
X143090499Y-87411304D01*
X143055896Y-87237341D01*
X143055893Y-87237332D01*
X142988016Y-87073459D01*
X142988009Y-87073446D01*
X142889464Y-86925965D01*
X142889461Y-86925961D01*
X142764038Y-86800538D01*
X142764034Y-86800535D01*
X142616553Y-86701990D01*
X142616540Y-86701983D01*
X142452667Y-86634106D01*
X142452658Y-86634103D01*
X142278694Y-86599500D01*
X142278691Y-86599500D01*
X142101309Y-86599500D01*
X142101306Y-86599500D01*
X141927341Y-86634103D01*
X141927332Y-86634106D01*
X141763459Y-86701983D01*
X141763446Y-86701990D01*
X141615965Y-86800535D01*
X141615961Y-86800538D01*
X141490538Y-86925961D01*
X141490535Y-86925965D01*
X141391990Y-87073446D01*
X141391983Y-87073459D01*
X141324106Y-87237332D01*
X141324103Y-87237341D01*
X141289500Y-87411304D01*
X138860418Y-87411304D01*
X138838402Y-87272299D01*
X138784873Y-87107555D01*
X138706232Y-86953212D01*
X138604414Y-86813072D01*
X138481928Y-86690586D01*
X138341788Y-86588768D01*
X138187445Y-86510127D01*
X138022701Y-86456598D01*
X138022699Y-86456597D01*
X138022698Y-86456597D01*
X137891271Y-86435781D01*
X137851611Y-86429500D01*
X137678389Y-86429500D01*
X137638728Y-86435781D01*
X137507302Y-86456597D01*
X137342552Y-86510128D01*
X137188211Y-86588768D01*
X137125814Y-86634103D01*
X137048072Y-86690586D01*
X137048070Y-86690588D01*
X137048069Y-86690588D01*
X136925587Y-86813070D01*
X136849318Y-86918045D01*
X136793987Y-86960711D01*
X136724374Y-86966689D01*
X136662579Y-86934083D01*
X136628222Y-86873244D01*
X136625000Y-86845159D01*
X136625000Y-86582172D01*
X136624999Y-86582155D01*
X136618598Y-86522627D01*
X136618596Y-86522620D01*
X136568354Y-86387913D01*
X136568350Y-86387906D01*
X136482190Y-86272812D01*
X136482187Y-86272809D01*
X136367093Y-86186649D01*
X136367086Y-86186645D01*
X136232379Y-86136403D01*
X136232372Y-86136401D01*
X136172844Y-86130000D01*
X135475000Y-86130000D01*
X135475000Y-87154722D01*
X135398694Y-87110667D01*
X135284244Y-87080000D01*
X135165756Y-87080000D01*
X135051306Y-87110667D01*
X134975000Y-87154722D01*
X134975000Y-86130000D01*
X134277155Y-86130000D01*
X134217627Y-86136401D01*
X134217620Y-86136403D01*
X134082913Y-86186645D01*
X134082906Y-86186649D01*
X133967812Y-86272809D01*
X133967809Y-86272812D01*
X133881649Y-86387906D01*
X133881645Y-86387913D01*
X133831403Y-86522620D01*
X133831401Y-86522627D01*
X133825000Y-86582155D01*
X91000500Y-86582155D01*
X91000500Y-83926530D01*
X107629500Y-83926530D01*
X107629500Y-84133469D01*
X107669868Y-84336412D01*
X107669870Y-84336420D01*
X107749058Y-84527596D01*
X107864024Y-84699657D01*
X108010342Y-84845975D01*
X108010345Y-84845977D01*
X108182402Y-84960941D01*
X108373580Y-85040130D01*
X108576530Y-85080499D01*
X108576534Y-85080500D01*
X108576535Y-85080500D01*
X109983466Y-85080500D01*
X109983467Y-85080499D01*
X110186420Y-85040130D01*
X110377598Y-84960941D01*
X110549655Y-84845977D01*
X110695977Y-84699655D01*
X110810941Y-84527598D01*
X110890130Y-84336420D01*
X110930500Y-84133465D01*
X110930500Y-83926535D01*
X110901353Y-83780000D01*
X119852769Y-83780000D01*
X121231518Y-83780000D01*
X121220889Y-83798409D01*
X121180000Y-83951009D01*
X121180000Y-84108991D01*
X121220889Y-84261591D01*
X121231518Y-84280000D01*
X119852769Y-84280000D01*
X119863242Y-84346126D01*
X119863242Y-84346129D01*
X119928904Y-84548217D01*
X120025379Y-84737557D01*
X120150272Y-84909459D01*
X120150276Y-84909464D01*
X120300535Y-85059723D01*
X120300540Y-85059727D01*
X120472442Y-85184620D01*
X120661782Y-85281095D01*
X120863870Y-85346757D01*
X121073754Y-85380000D01*
X121530000Y-85380000D01*
X121530000Y-84578482D01*
X121548409Y-84589111D01*
X121701009Y-84630000D01*
X121858991Y-84630000D01*
X122011591Y-84589111D01*
X122030000Y-84578482D01*
X122030000Y-85380000D01*
X122486246Y-85380000D01*
X122696127Y-85346757D01*
X122696130Y-85346757D01*
X122898217Y-85281095D01*
X123087557Y-85184620D01*
X123259459Y-85059727D01*
X123259464Y-85059723D01*
X123409723Y-84909464D01*
X123409727Y-84909459D01*
X123534620Y-84737557D01*
X123631095Y-84548217D01*
X123696757Y-84346129D01*
X123696757Y-84346126D01*
X123707231Y-84280000D01*
X122328482Y-84280000D01*
X122339111Y-84261591D01*
X122380000Y-84108991D01*
X122380000Y-83951009D01*
X122339111Y-83798409D01*
X122328482Y-83780000D01*
X123707231Y-83780000D01*
X123696757Y-83713873D01*
X123696757Y-83713870D01*
X123631095Y-83511782D01*
X123534620Y-83322442D01*
X123409727Y-83150540D01*
X123409723Y-83150535D01*
X123259464Y-83000276D01*
X123259459Y-83000272D01*
X123087557Y-82875379D01*
X122965959Y-82813421D01*
X122898217Y-82778904D01*
X122696129Y-82713242D01*
X122486246Y-82680000D01*
X122030000Y-82680000D01*
X122030000Y-83481517D01*
X122011591Y-83470889D01*
X121858991Y-83430000D01*
X121701009Y-83430000D01*
X121548409Y-83470889D01*
X121530000Y-83481517D01*
X121530000Y-82680000D01*
X121073754Y-82680000D01*
X120863872Y-82713242D01*
X120863869Y-82713242D01*
X120661782Y-82778904D01*
X120472442Y-82875379D01*
X120300540Y-83000272D01*
X120300535Y-83000276D01*
X120150276Y-83150535D01*
X120150272Y-83150540D01*
X120025379Y-83322442D01*
X119928904Y-83511782D01*
X119863242Y-83713870D01*
X119863242Y-83713873D01*
X119852769Y-83780000D01*
X110901353Y-83780000D01*
X110890130Y-83723580D01*
X110810941Y-83532402D01*
X110695977Y-83360345D01*
X110695975Y-83360342D01*
X110549657Y-83214024D01*
X110454638Y-83150535D01*
X110377598Y-83099059D01*
X110370722Y-83096211D01*
X110186420Y-83019870D01*
X110186412Y-83019868D01*
X109983469Y-82979500D01*
X109983465Y-82979500D01*
X108576535Y-82979500D01*
X108576530Y-82979500D01*
X108373587Y-83019868D01*
X108373579Y-83019870D01*
X108182403Y-83099058D01*
X108010342Y-83214024D01*
X107864024Y-83360342D01*
X107749058Y-83532403D01*
X107669870Y-83723579D01*
X107669868Y-83723587D01*
X107629500Y-83926530D01*
X91000500Y-83926530D01*
X91000500Y-81939448D01*
X114379500Y-81939448D01*
X114379500Y-82120551D01*
X114407829Y-82299410D01*
X114463787Y-82471636D01*
X114463788Y-82471639D01*
X114546006Y-82632997D01*
X114652441Y-82779494D01*
X114652445Y-82779499D01*
X114780500Y-82907554D01*
X114780505Y-82907558D01*
X114879526Y-82979500D01*
X114927006Y-83013996D01*
X115032484Y-83067740D01*
X115088360Y-83096211D01*
X115088363Y-83096212D01*
X115174476Y-83124191D01*
X115260591Y-83152171D01*
X115343429Y-83165291D01*
X115439449Y-83180500D01*
X115439454Y-83180500D01*
X115620551Y-83180500D01*
X115707259Y-83166765D01*
X115799409Y-83152171D01*
X115971639Y-83096211D01*
X116132994Y-83013996D01*
X116279501Y-82907553D01*
X116407553Y-82779501D01*
X116513996Y-82632994D01*
X116596211Y-82471639D01*
X116652171Y-82299409D01*
X116658783Y-82257664D01*
X116661581Y-82240000D01*
X127462769Y-82240000D01*
X128356988Y-82240000D01*
X128324075Y-82297007D01*
X128290000Y-82424174D01*
X128290000Y-82555826D01*
X128324075Y-82682993D01*
X128356988Y-82740000D01*
X127462769Y-82740000D01*
X127473242Y-82806126D01*
X127473242Y-82806129D01*
X127538904Y-83008217D01*
X127635379Y-83197557D01*
X127760272Y-83369459D01*
X127760276Y-83369464D01*
X127910535Y-83519723D01*
X127910540Y-83519727D01*
X128082442Y-83644620D01*
X128276121Y-83743306D01*
X128275603Y-83744321D01*
X128325808Y-83784779D01*
X128347873Y-83851073D01*
X128330594Y-83918772D01*
X128279458Y-83966383D01*
X128223952Y-83979500D01*
X127920247Y-83979500D01*
X127861770Y-83991131D01*
X127861769Y-83991132D01*
X127795447Y-84035447D01*
X127751132Y-84101769D01*
X127751131Y-84101770D01*
X127739500Y-84160247D01*
X127739500Y-85899752D01*
X127751131Y-85958229D01*
X127751132Y-85958230D01*
X127795447Y-86024552D01*
X127861769Y-86068867D01*
X127861770Y-86068868D01*
X127920247Y-86080499D01*
X127920250Y-86080500D01*
X127920252Y-86080500D01*
X129659750Y-86080500D01*
X129659751Y-86080499D01*
X129674568Y-86077552D01*
X129718229Y-86068868D01*
X129718229Y-86068867D01*
X129718231Y-86068867D01*
X129784552Y-86024552D01*
X129828867Y-85958231D01*
X129828867Y-85958229D01*
X129828868Y-85958229D01*
X129840499Y-85899752D01*
X129840500Y-85899750D01*
X129840500Y-84160249D01*
X129840499Y-84160247D01*
X129828868Y-84101770D01*
X129828867Y-84101769D01*
X129784552Y-84035447D01*
X129718230Y-83991132D01*
X129718229Y-83991131D01*
X129659752Y-83979500D01*
X129659748Y-83979500D01*
X129356048Y-83979500D01*
X129289009Y-83959815D01*
X129243254Y-83907011D01*
X129233310Y-83837853D01*
X129262335Y-83774297D01*
X129304264Y-83744061D01*
X129303879Y-83743306D01*
X129497557Y-83644620D01*
X129669459Y-83519727D01*
X129669464Y-83519723D01*
X129819723Y-83369464D01*
X129819727Y-83369459D01*
X129944620Y-83197557D01*
X130041095Y-83008217D01*
X130106757Y-82806129D01*
X130106757Y-82806126D01*
X130117231Y-82740000D01*
X129223012Y-82740000D01*
X129255925Y-82682993D01*
X129290000Y-82555826D01*
X129290000Y-82424174D01*
X129255925Y-82297007D01*
X129223012Y-82240000D01*
X130117231Y-82240000D01*
X130106757Y-82173873D01*
X130106757Y-82173870D01*
X130041095Y-81971782D01*
X129944620Y-81782442D01*
X129819727Y-81610540D01*
X129819723Y-81610535D01*
X129669464Y-81460276D01*
X129669459Y-81460272D01*
X129497557Y-81335379D01*
X129308215Y-81238903D01*
X129106124Y-81173241D01*
X129040000Y-81162768D01*
X129040000Y-82056988D01*
X128982993Y-82024075D01*
X128855826Y-81990000D01*
X128724174Y-81990000D01*
X128597007Y-82024075D01*
X128540000Y-82056988D01*
X128540000Y-81162768D01*
X128539999Y-81162768D01*
X128473875Y-81173241D01*
X128271784Y-81238903D01*
X128082442Y-81335379D01*
X127910540Y-81460272D01*
X127910535Y-81460276D01*
X127760276Y-81610535D01*
X127760272Y-81610540D01*
X127635379Y-81782442D01*
X127538904Y-81971782D01*
X127473242Y-82173870D01*
X127473242Y-82173873D01*
X127462769Y-82240000D01*
X116661581Y-82240000D01*
X116680500Y-82120551D01*
X116680500Y-81939448D01*
X116664019Y-81835397D01*
X116652171Y-81760591D01*
X116624191Y-81674476D01*
X116596212Y-81588363D01*
X116596211Y-81588360D01*
X116567740Y-81532484D01*
X116513996Y-81427006D01*
X116500396Y-81408287D01*
X116407558Y-81280505D01*
X116407554Y-81280500D01*
X116279499Y-81152445D01*
X116279494Y-81152441D01*
X116132997Y-81046006D01*
X116132996Y-81046005D01*
X116132994Y-81046004D01*
X116081300Y-81019664D01*
X115971639Y-80963788D01*
X115971636Y-80963787D01*
X115799410Y-80907829D01*
X115620551Y-80879500D01*
X115620546Y-80879500D01*
X115439454Y-80879500D01*
X115439449Y-80879500D01*
X115260589Y-80907829D01*
X115088363Y-80963787D01*
X115088360Y-80963788D01*
X114927002Y-81046006D01*
X114780505Y-81152441D01*
X114780500Y-81152445D01*
X114652445Y-81280500D01*
X114652441Y-81280505D01*
X114546006Y-81427002D01*
X114463788Y-81588360D01*
X114463787Y-81588363D01*
X114407829Y-81760589D01*
X114379500Y-81939448D01*
X91000500Y-81939448D01*
X91000500Y-79800862D01*
X91009144Y-79771421D01*
X91015668Y-79741435D01*
X91019422Y-79736419D01*
X91020185Y-79733823D01*
X91036819Y-79713181D01*
X92197845Y-78552155D01*
X133825000Y-78552155D01*
X133825000Y-79250000D01*
X134849722Y-79250000D01*
X134805667Y-79326306D01*
X134775000Y-79440756D01*
X134775000Y-79559244D01*
X134805667Y-79673694D01*
X134849722Y-79750000D01*
X133825000Y-79750000D01*
X133825000Y-80447844D01*
X133831401Y-80507372D01*
X133831403Y-80507379D01*
X133881645Y-80642086D01*
X133881649Y-80642093D01*
X133967809Y-80757187D01*
X133967812Y-80757190D01*
X134082906Y-80843350D01*
X134082913Y-80843354D01*
X134217620Y-80893596D01*
X134217627Y-80893598D01*
X134277155Y-80899999D01*
X134277172Y-80900000D01*
X134975000Y-80900000D01*
X134975000Y-79875277D01*
X135051306Y-79919333D01*
X135165756Y-79950000D01*
X135284244Y-79950000D01*
X135398694Y-79919333D01*
X135475000Y-79875277D01*
X135475000Y-80900000D01*
X136172828Y-80900000D01*
X136172844Y-80899999D01*
X136232372Y-80893598D01*
X136232379Y-80893596D01*
X136367086Y-80843354D01*
X136367093Y-80843350D01*
X136482187Y-80757190D01*
X136482190Y-80757187D01*
X136568350Y-80642093D01*
X136568354Y-80642086D01*
X136618596Y-80507379D01*
X136618598Y-80507372D01*
X136624999Y-80447844D01*
X136625000Y-80447827D01*
X136625000Y-80184840D01*
X136644685Y-80117801D01*
X136697489Y-80072046D01*
X136766647Y-80062102D01*
X136830203Y-80091127D01*
X136849316Y-80111952D01*
X136925586Y-80216928D01*
X137048072Y-80339414D01*
X137188212Y-80441232D01*
X137342555Y-80519873D01*
X137507299Y-80573402D01*
X137678389Y-80600500D01*
X137678390Y-80600500D01*
X137851610Y-80600500D01*
X137851611Y-80600500D01*
X138022701Y-80573402D01*
X138187445Y-80519873D01*
X138341788Y-80441232D01*
X138481928Y-80339414D01*
X138604414Y-80216928D01*
X138706232Y-80076788D01*
X138784873Y-79922445D01*
X138838402Y-79757701D01*
X138865500Y-79586611D01*
X138865500Y-79413389D01*
X138865170Y-79411304D01*
X141479500Y-79411304D01*
X141479500Y-79588695D01*
X141514103Y-79762658D01*
X141514106Y-79762667D01*
X141581983Y-79926540D01*
X141581990Y-79926553D01*
X141680535Y-80074034D01*
X141680538Y-80074038D01*
X141805961Y-80199461D01*
X141805965Y-80199464D01*
X141953446Y-80298009D01*
X141953459Y-80298016D01*
X142053405Y-80339414D01*
X142117334Y-80365894D01*
X142117336Y-80365894D01*
X142117341Y-80365896D01*
X142291304Y-80400499D01*
X142291307Y-80400500D01*
X142291309Y-80400500D01*
X142468693Y-80400500D01*
X142468694Y-80400499D01*
X142526682Y-80388964D01*
X142642658Y-80365896D01*
X142642661Y-80365894D01*
X142642666Y-80365894D01*
X142806547Y-80298013D01*
X142954035Y-80199464D01*
X143079464Y-80074035D01*
X143178013Y-79926547D01*
X143245894Y-79762666D01*
X143246883Y-79757697D01*
X143280499Y-79588695D01*
X143280500Y-79588693D01*
X143280500Y-79411306D01*
X143280499Y-79411304D01*
X149099500Y-79411304D01*
X149099500Y-79588695D01*
X149134103Y-79762658D01*
X149134106Y-79762667D01*
X149201983Y-79926540D01*
X149201990Y-79926553D01*
X149300535Y-80074034D01*
X149300538Y-80074038D01*
X149425961Y-80199461D01*
X149425965Y-80199464D01*
X149573446Y-80298009D01*
X149573459Y-80298016D01*
X149673405Y-80339414D01*
X149737334Y-80365894D01*
X149737336Y-80365894D01*
X149737341Y-80365896D01*
X149911304Y-80400499D01*
X149911307Y-80400500D01*
X149911309Y-80400500D01*
X150088693Y-80400500D01*
X150088694Y-80400499D01*
X150146682Y-80388964D01*
X150262658Y-80365896D01*
X150262661Y-80365894D01*
X150262666Y-80365894D01*
X150426547Y-80298013D01*
X150574035Y-80199464D01*
X150699464Y-80074035D01*
X150798013Y-79926547D01*
X150865894Y-79762666D01*
X150866883Y-79757697D01*
X150900499Y-79588695D01*
X150900500Y-79588693D01*
X150900500Y-79411306D01*
X150900499Y-79411304D01*
X150865896Y-79237341D01*
X150865893Y-79237332D01*
X150798016Y-79073459D01*
X150798009Y-79073446D01*
X150699464Y-78925965D01*
X150699461Y-78925961D01*
X150574038Y-78800538D01*
X150574034Y-78800535D01*
X150426553Y-78701990D01*
X150426540Y-78701983D01*
X150262667Y-78634106D01*
X150262658Y-78634103D01*
X150088694Y-78599500D01*
X150088691Y-78599500D01*
X149911309Y-78599500D01*
X149911306Y-78599500D01*
X149737341Y-78634103D01*
X149737332Y-78634106D01*
X149573459Y-78701983D01*
X149573446Y-78701990D01*
X149425965Y-78800535D01*
X149425961Y-78800538D01*
X149300538Y-78925961D01*
X149300535Y-78925965D01*
X149201990Y-79073446D01*
X149201983Y-79073459D01*
X149134106Y-79237332D01*
X149134103Y-79237341D01*
X149099500Y-79411304D01*
X143280499Y-79411304D01*
X143245896Y-79237341D01*
X143245893Y-79237332D01*
X143178016Y-79073459D01*
X143178009Y-79073446D01*
X143079464Y-78925965D01*
X143079461Y-78925961D01*
X142954038Y-78800538D01*
X142954034Y-78800535D01*
X142806553Y-78701990D01*
X142806540Y-78701983D01*
X142642667Y-78634106D01*
X142642658Y-78634103D01*
X142468694Y-78599500D01*
X142468691Y-78599500D01*
X142291309Y-78599500D01*
X142291306Y-78599500D01*
X142117341Y-78634103D01*
X142117332Y-78634106D01*
X141953459Y-78701983D01*
X141953446Y-78701990D01*
X141805965Y-78800535D01*
X141805961Y-78800538D01*
X141680538Y-78925961D01*
X141680535Y-78925965D01*
X141581990Y-79073446D01*
X141581983Y-79073459D01*
X141514106Y-79237332D01*
X141514103Y-79237341D01*
X141479500Y-79411304D01*
X138865170Y-79411304D01*
X138838402Y-79242299D01*
X138784873Y-79077555D01*
X138706232Y-78923212D01*
X138604414Y-78783072D01*
X138481928Y-78660586D01*
X138341788Y-78558768D01*
X138187445Y-78480127D01*
X138022701Y-78426598D01*
X138022699Y-78426597D01*
X138022698Y-78426597D01*
X137891271Y-78405781D01*
X137851611Y-78399500D01*
X137678389Y-78399500D01*
X137638728Y-78405781D01*
X137507302Y-78426597D01*
X137342552Y-78480128D01*
X137188211Y-78558768D01*
X137132149Y-78599500D01*
X137048072Y-78660586D01*
X137048070Y-78660588D01*
X137048069Y-78660588D01*
X136925587Y-78783070D01*
X136849318Y-78888045D01*
X136793987Y-78930711D01*
X136724374Y-78936689D01*
X136662579Y-78904083D01*
X136628222Y-78843244D01*
X136625000Y-78815159D01*
X136625000Y-78552172D01*
X136624999Y-78552155D01*
X136618598Y-78492627D01*
X136618596Y-78492620D01*
X136568354Y-78357913D01*
X136568350Y-78357906D01*
X136482190Y-78242812D01*
X136482187Y-78242809D01*
X136367093Y-78156649D01*
X136367086Y-78156645D01*
X136232379Y-78106403D01*
X136232372Y-78106401D01*
X136172844Y-78100000D01*
X135475000Y-78100000D01*
X135475000Y-79124722D01*
X135398694Y-79080667D01*
X135284244Y-79050000D01*
X135165756Y-79050000D01*
X135051306Y-79080667D01*
X134975000Y-79124722D01*
X134975000Y-78100000D01*
X134277155Y-78100000D01*
X134217627Y-78106401D01*
X134217620Y-78106403D01*
X134082913Y-78156645D01*
X134082906Y-78156649D01*
X133967812Y-78242809D01*
X133967809Y-78242812D01*
X133881649Y-78357906D01*
X133881645Y-78357913D01*
X133831403Y-78492620D01*
X133831401Y-78492627D01*
X133825000Y-78552155D01*
X92197845Y-78552155D01*
X92213181Y-78536819D01*
X92274504Y-78503334D01*
X92300862Y-78500500D01*
X98131113Y-78500500D01*
X98131120Y-78500500D01*
X98391116Y-78466270D01*
X98644419Y-78398398D01*
X98886697Y-78298043D01*
X99113803Y-78166924D01*
X99321851Y-78007282D01*
X99321855Y-78007277D01*
X99321860Y-78007274D01*
X99507274Y-77821860D01*
X99507277Y-77821855D01*
X99507282Y-77821851D01*
X99666924Y-77613803D01*
X99798043Y-77386697D01*
X99898398Y-77144419D01*
X99966270Y-76891116D01*
X100000500Y-76631120D01*
X100000500Y-76500000D01*
X100000500Y-76434108D01*
X100000500Y-75439448D01*
X114379500Y-75439448D01*
X114379500Y-75620551D01*
X114407829Y-75799410D01*
X114463787Y-75971636D01*
X114463788Y-75971639D01*
X114506070Y-76054620D01*
X114540868Y-76122915D01*
X114546006Y-76132997D01*
X114652441Y-76279494D01*
X114652445Y-76279499D01*
X114780500Y-76407554D01*
X114780505Y-76407558D01*
X114882917Y-76481964D01*
X114927006Y-76513996D01*
X115032484Y-76567740D01*
X115088360Y-76596211D01*
X115088363Y-76596212D01*
X115174476Y-76624191D01*
X115260591Y-76652171D01*
X115343429Y-76665291D01*
X115439449Y-76680500D01*
X115439454Y-76680500D01*
X115620551Y-76680500D01*
X115707259Y-76666765D01*
X115799409Y-76652171D01*
X115971639Y-76596211D01*
X116132994Y-76513996D01*
X116279501Y-76407553D01*
X116407553Y-76279501D01*
X116513996Y-76132994D01*
X116596211Y-75971639D01*
X116652171Y-75799409D01*
X116666765Y-75707259D01*
X116680500Y-75620551D01*
X116680500Y-75439448D01*
X116658428Y-75300099D01*
X116652171Y-75260591D01*
X116596211Y-75088361D01*
X116596211Y-75088360D01*
X116552956Y-75003469D01*
X116513996Y-74927006D01*
X116419204Y-74796535D01*
X116407558Y-74780505D01*
X116407554Y-74780500D01*
X116279499Y-74652445D01*
X116279494Y-74652441D01*
X116132997Y-74546006D01*
X116132996Y-74546005D01*
X116132994Y-74546004D01*
X116081300Y-74519664D01*
X115971639Y-74463788D01*
X115971636Y-74463787D01*
X115799410Y-74407829D01*
X115620551Y-74379500D01*
X115620546Y-74379500D01*
X115439454Y-74379500D01*
X115439449Y-74379500D01*
X115260589Y-74407829D01*
X115088363Y-74463787D01*
X115088360Y-74463788D01*
X114927002Y-74546006D01*
X114780505Y-74652441D01*
X114780500Y-74652445D01*
X114652445Y-74780500D01*
X114652441Y-74780505D01*
X114546006Y-74927002D01*
X114463788Y-75088360D01*
X114463787Y-75088363D01*
X114407829Y-75260589D01*
X114379500Y-75439448D01*
X100000500Y-75439448D01*
X100000500Y-73426530D01*
X107629500Y-73426530D01*
X107629500Y-73633469D01*
X107669868Y-73836412D01*
X107669870Y-73836420D01*
X107698462Y-73905448D01*
X107749059Y-74027598D01*
X107772914Y-74063300D01*
X107864024Y-74199657D01*
X108010342Y-74345975D01*
X108010345Y-74345977D01*
X108182402Y-74460941D01*
X108373580Y-74540130D01*
X108576530Y-74580499D01*
X108576534Y-74580500D01*
X108576535Y-74580500D01*
X109983466Y-74580500D01*
X109983467Y-74580499D01*
X110186420Y-74540130D01*
X110377598Y-74460941D01*
X110549655Y-74345977D01*
X110695977Y-74199655D01*
X110810941Y-74027598D01*
X110890130Y-73836420D01*
X110930500Y-73633465D01*
X110930500Y-73426535D01*
X110930499Y-73426530D01*
X120129500Y-73426530D01*
X120129500Y-73633469D01*
X120169868Y-73836412D01*
X120169870Y-73836420D01*
X120198462Y-73905448D01*
X120249059Y-74027598D01*
X120272914Y-74063300D01*
X120364024Y-74199657D01*
X120510342Y-74345975D01*
X120510345Y-74345977D01*
X120682402Y-74460941D01*
X120873580Y-74540130D01*
X121076530Y-74580499D01*
X121076534Y-74580500D01*
X121076535Y-74580500D01*
X122483466Y-74580500D01*
X122483467Y-74580499D01*
X122686420Y-74540130D01*
X122877598Y-74460941D01*
X123049655Y-74345977D01*
X123144328Y-74251304D01*
X127879500Y-74251304D01*
X127879500Y-74428695D01*
X127914103Y-74602658D01*
X127914106Y-74602667D01*
X127981983Y-74766540D01*
X127981990Y-74766553D01*
X128080535Y-74914034D01*
X128080538Y-74914038D01*
X128205961Y-75039461D01*
X128205965Y-75039464D01*
X128353446Y-75138009D01*
X128353459Y-75138016D01*
X128451169Y-75178488D01*
X128517334Y-75205894D01*
X128517336Y-75205894D01*
X128517341Y-75205896D01*
X128691304Y-75240499D01*
X128691307Y-75240500D01*
X128691309Y-75240500D01*
X128868693Y-75240500D01*
X128868694Y-75240499D01*
X128947424Y-75224839D01*
X129042658Y-75205896D01*
X129042661Y-75205894D01*
X129042666Y-75205894D01*
X129206547Y-75138013D01*
X129354035Y-75039464D01*
X129479464Y-74914035D01*
X129578013Y-74766547D01*
X129645894Y-74602666D01*
X129647702Y-74593580D01*
X129668964Y-74486682D01*
X129680500Y-74428691D01*
X129680500Y-74251309D01*
X129680500Y-74251306D01*
X129680499Y-74251304D01*
X129645896Y-74077341D01*
X129645893Y-74077332D01*
X129640080Y-74063299D01*
X129622367Y-74020535D01*
X129578016Y-73913459D01*
X129578009Y-73913446D01*
X129479464Y-73765965D01*
X129479461Y-73765961D01*
X129354038Y-73640538D01*
X129354034Y-73640535D01*
X129206553Y-73541990D01*
X129206540Y-73541983D01*
X129042667Y-73474106D01*
X129042658Y-73474103D01*
X128868694Y-73439500D01*
X128868691Y-73439500D01*
X128691309Y-73439500D01*
X128691306Y-73439500D01*
X128517341Y-73474103D01*
X128517332Y-73474106D01*
X128353459Y-73541983D01*
X128353446Y-73541990D01*
X128205965Y-73640535D01*
X128205961Y-73640538D01*
X128080538Y-73765961D01*
X128080535Y-73765965D01*
X127981990Y-73913446D01*
X127981983Y-73913459D01*
X127914106Y-74077332D01*
X127914103Y-74077341D01*
X127879500Y-74251304D01*
X123144328Y-74251304D01*
X123195977Y-74199655D01*
X123211564Y-74176326D01*
X123211566Y-74176325D01*
X123310940Y-74027600D01*
X123310940Y-74027599D01*
X123310941Y-74027598D01*
X123390130Y-73836420D01*
X123430500Y-73633465D01*
X123430500Y-73426535D01*
X123390130Y-73223580D01*
X123310941Y-73032402D01*
X123195977Y-72860345D01*
X123195975Y-72860342D01*
X123049657Y-72714024D01*
X122963626Y-72656541D01*
X122877598Y-72599059D01*
X122686420Y-72519870D01*
X122686412Y-72519868D01*
X122483469Y-72479500D01*
X122483465Y-72479500D01*
X121076535Y-72479500D01*
X121076530Y-72479500D01*
X120873587Y-72519868D01*
X120873579Y-72519870D01*
X120682403Y-72599058D01*
X120510342Y-72714024D01*
X120364024Y-72860342D01*
X120249058Y-73032403D01*
X120169870Y-73223579D01*
X120169868Y-73223587D01*
X120129500Y-73426530D01*
X110930499Y-73426530D01*
X110890130Y-73223580D01*
X110810941Y-73032402D01*
X110695977Y-72860345D01*
X110695975Y-72860342D01*
X110549657Y-72714024D01*
X110463626Y-72656541D01*
X110377598Y-72599059D01*
X110186420Y-72519870D01*
X110186412Y-72519868D01*
X109983469Y-72479500D01*
X109983465Y-72479500D01*
X108576535Y-72479500D01*
X108576530Y-72479500D01*
X108373587Y-72519868D01*
X108373579Y-72519870D01*
X108182403Y-72599058D01*
X108010342Y-72714024D01*
X107864024Y-72860342D01*
X107749058Y-73032403D01*
X107669870Y-73223579D01*
X107669868Y-73223587D01*
X107629500Y-73426530D01*
X100000500Y-73426530D01*
X100000500Y-68426530D01*
X107629500Y-68426530D01*
X107629500Y-68633469D01*
X107669868Y-68836412D01*
X107669870Y-68836420D01*
X107749058Y-69027596D01*
X107864024Y-69199657D01*
X108010342Y-69345975D01*
X108010345Y-69345977D01*
X108182402Y-69460941D01*
X108373580Y-69540130D01*
X108546974Y-69574620D01*
X108576530Y-69580499D01*
X108576534Y-69580500D01*
X108576535Y-69580500D01*
X109983466Y-69580500D01*
X109983467Y-69580499D01*
X110186420Y-69540130D01*
X110377598Y-69460941D01*
X110549655Y-69345977D01*
X110695977Y-69199655D01*
X110810941Y-69027598D01*
X110890130Y-68836420D01*
X110930500Y-68633465D01*
X110930500Y-68426535D01*
X110930499Y-68426530D01*
X120129500Y-68426530D01*
X120129500Y-68633469D01*
X120169868Y-68836412D01*
X120169870Y-68836420D01*
X120249058Y-69027596D01*
X120364024Y-69199657D01*
X120510342Y-69345975D01*
X120510345Y-69345977D01*
X120682402Y-69460941D01*
X120873580Y-69540130D01*
X121046974Y-69574620D01*
X121076530Y-69580499D01*
X121076534Y-69580500D01*
X121076535Y-69580500D01*
X122483466Y-69580500D01*
X122483467Y-69580499D01*
X122686420Y-69540130D01*
X122877598Y-69460941D01*
X123049655Y-69345977D01*
X123094424Y-69301208D01*
X133221600Y-69301208D01*
X133221600Y-69432992D01*
X133224741Y-69444714D01*
X133255708Y-69560287D01*
X133283163Y-69607840D01*
X133321600Y-69674414D01*
X133414786Y-69767600D01*
X133528914Y-69833492D01*
X133656208Y-69867600D01*
X133656210Y-69867600D01*
X133746267Y-69867600D01*
X133813306Y-69887285D01*
X133833948Y-69903919D01*
X134018789Y-70088760D01*
X134087312Y-70128322D01*
X134087313Y-70128322D01*
X134087500Y-70128430D01*
X134135715Y-70178997D01*
X134149500Y-70235817D01*
X134149500Y-71869752D01*
X134161131Y-71928229D01*
X134161132Y-71928230D01*
X134205447Y-71994552D01*
X134271769Y-72038867D01*
X134271770Y-72038868D01*
X134330247Y-72050499D01*
X134330250Y-72050500D01*
X134330252Y-72050500D01*
X136069750Y-72050500D01*
X136069751Y-72050499D01*
X136084568Y-72047552D01*
X136128229Y-72038868D01*
X136128229Y-72038867D01*
X136128231Y-72038867D01*
X136194552Y-71994552D01*
X136238867Y-71928231D01*
X136238867Y-71928229D01*
X136238868Y-71928229D01*
X136250499Y-71869752D01*
X136250500Y-71869750D01*
X136250500Y-70896530D01*
X136689500Y-70896530D01*
X136689500Y-71103469D01*
X136729868Y-71306412D01*
X136729870Y-71306420D01*
X136809058Y-71497596D01*
X136924024Y-71669657D01*
X137070342Y-71815975D01*
X137070345Y-71815977D01*
X137242402Y-71930941D01*
X137433580Y-72010130D01*
X137578052Y-72038867D01*
X137636530Y-72050499D01*
X137636534Y-72050500D01*
X137636535Y-72050500D01*
X137843466Y-72050500D01*
X137843467Y-72050499D01*
X138046420Y-72010130D01*
X138237598Y-71930941D01*
X138409655Y-71815977D01*
X138555977Y-71669655D01*
X138670941Y-71497598D01*
X138750130Y-71306420D01*
X138790500Y-71103465D01*
X138790500Y-70896535D01*
X138790499Y-70896530D01*
X139229500Y-70896530D01*
X139229500Y-71103469D01*
X139269868Y-71306412D01*
X139269870Y-71306420D01*
X139349058Y-71497596D01*
X139464024Y-71669657D01*
X139610342Y-71815975D01*
X139610345Y-71815977D01*
X139782402Y-71930941D01*
X139973580Y-72010130D01*
X140118052Y-72038867D01*
X140176530Y-72050499D01*
X140176534Y-72050500D01*
X140176535Y-72050500D01*
X140383466Y-72050500D01*
X140383467Y-72050499D01*
X140586420Y-72010130D01*
X140777598Y-71930941D01*
X140949655Y-71815977D01*
X141095977Y-71669655D01*
X141210941Y-71497598D01*
X141290130Y-71306420D01*
X141330500Y-71103465D01*
X141330500Y-70896535D01*
X141290130Y-70693580D01*
X141210941Y-70502402D01*
X141095977Y-70330345D01*
X141095975Y-70330342D01*
X140949657Y-70184024D01*
X140863626Y-70126541D01*
X140777598Y-70069059D01*
X140586420Y-69989870D01*
X140586412Y-69989868D01*
X140383469Y-69949500D01*
X140383465Y-69949500D01*
X140176535Y-69949500D01*
X140176530Y-69949500D01*
X139973587Y-69989868D01*
X139973579Y-69989870D01*
X139782403Y-70069058D01*
X139610342Y-70184024D01*
X139464024Y-70330342D01*
X139349058Y-70502403D01*
X139269870Y-70693579D01*
X139269868Y-70693587D01*
X139229500Y-70896530D01*
X138790499Y-70896530D01*
X138750130Y-70693580D01*
X138670941Y-70502402D01*
X138555977Y-70330345D01*
X138555975Y-70330342D01*
X138409657Y-70184024D01*
X138323626Y-70126541D01*
X138237598Y-70069059D01*
X138046420Y-69989870D01*
X138046412Y-69989868D01*
X137843469Y-69949500D01*
X137843465Y-69949500D01*
X137636535Y-69949500D01*
X137636530Y-69949500D01*
X137433587Y-69989868D01*
X137433579Y-69989870D01*
X137242403Y-70069058D01*
X137070342Y-70184024D01*
X136924024Y-70330342D01*
X136809058Y-70502403D01*
X136729870Y-70693579D01*
X136729868Y-70693587D01*
X136689500Y-70896530D01*
X136250500Y-70896530D01*
X136250500Y-70130249D01*
X136250499Y-70130247D01*
X136238868Y-70071770D01*
X136238867Y-70071769D01*
X136194552Y-70005447D01*
X136128230Y-69961132D01*
X136128229Y-69961131D01*
X136069752Y-69949500D01*
X136069748Y-69949500D01*
X135766048Y-69949500D01*
X135699009Y-69929815D01*
X135653254Y-69877011D01*
X135643310Y-69807853D01*
X135672335Y-69744297D01*
X135714264Y-69714061D01*
X135713879Y-69713306D01*
X135907557Y-69614620D01*
X136079459Y-69489727D01*
X136079464Y-69489723D01*
X136229723Y-69339464D01*
X136229727Y-69339459D01*
X136354620Y-69167557D01*
X136451095Y-68978217D01*
X136508343Y-68802026D01*
X136547780Y-68744351D01*
X136612139Y-68717152D01*
X136680985Y-68729066D01*
X136732461Y-68776310D01*
X136740833Y-68792887D01*
X136768673Y-68860099D01*
X136795939Y-68925925D01*
X136809059Y-68957598D01*
X136822836Y-68978217D01*
X136924024Y-69129657D01*
X137070342Y-69275975D01*
X137070345Y-69275977D01*
X137242402Y-69390941D01*
X137433580Y-69470130D01*
X137636530Y-69510499D01*
X137636534Y-69510500D01*
X137636535Y-69510500D01*
X137843466Y-69510500D01*
X137843467Y-69510499D01*
X138046420Y-69470130D01*
X138237598Y-69390941D01*
X138409655Y-69275977D01*
X138555977Y-69129655D01*
X138670941Y-68957598D01*
X138750130Y-68766420D01*
X138790500Y-68563465D01*
X138790500Y-68356535D01*
X138790499Y-68356530D01*
X139229500Y-68356530D01*
X139229500Y-68563469D01*
X139269868Y-68766412D01*
X139269870Y-68766420D01*
X139335939Y-68925925D01*
X139349059Y-68957598D01*
X139362836Y-68978217D01*
X139464024Y-69129657D01*
X139610342Y-69275975D01*
X139610345Y-69275977D01*
X139782402Y-69390941D01*
X139973580Y-69470130D01*
X140176530Y-69510499D01*
X140176534Y-69510500D01*
X140176535Y-69510500D01*
X140383466Y-69510500D01*
X140383467Y-69510499D01*
X140586420Y-69470130D01*
X140777598Y-69390941D01*
X140949655Y-69275977D01*
X141095977Y-69129655D01*
X141210941Y-68957598D01*
X141290130Y-68766420D01*
X141305517Y-68689066D01*
X141321494Y-68608745D01*
X141330499Y-68563469D01*
X141330500Y-68563466D01*
X141330500Y-68356534D01*
X141330499Y-68356530D01*
X141305581Y-68231255D01*
X141293396Y-68170000D01*
X146472769Y-68170000D01*
X147366988Y-68170000D01*
X147334075Y-68227007D01*
X147300000Y-68354174D01*
X147300000Y-68485826D01*
X147334075Y-68612993D01*
X147366988Y-68670000D01*
X146472769Y-68670000D01*
X146483242Y-68736126D01*
X146483242Y-68736129D01*
X146548904Y-68938217D01*
X146645379Y-69127557D01*
X146770272Y-69299459D01*
X146770276Y-69299464D01*
X146920535Y-69449723D01*
X146920540Y-69449727D01*
X147092442Y-69574620D01*
X147286121Y-69673306D01*
X147285603Y-69674321D01*
X147335808Y-69714779D01*
X147357873Y-69781073D01*
X147340594Y-69848772D01*
X147289458Y-69896383D01*
X147233952Y-69909500D01*
X146930247Y-69909500D01*
X146871770Y-69921131D01*
X146871769Y-69921132D01*
X146805447Y-69965447D01*
X146761132Y-70031769D01*
X146761131Y-70031770D01*
X146749500Y-70090247D01*
X146749500Y-71829752D01*
X146761131Y-71888229D01*
X146761132Y-71888230D01*
X146805447Y-71954552D01*
X146871769Y-71998867D01*
X146871770Y-71998868D01*
X146930247Y-72010499D01*
X146930250Y-72010500D01*
X146930252Y-72010500D01*
X147375500Y-72010500D01*
X147442539Y-72030185D01*
X147488294Y-72082989D01*
X147499500Y-72134500D01*
X147499500Y-73204123D01*
X147479815Y-73271162D01*
X147463182Y-73291804D01*
X147399500Y-73355486D01*
X147333608Y-73469612D01*
X147299500Y-73596908D01*
X147299500Y-73728691D01*
X147333608Y-73855987D01*
X147341856Y-73870272D01*
X147399500Y-73970114D01*
X147492686Y-74063300D01*
X147606814Y-74129192D01*
X147734108Y-74163300D01*
X147734110Y-74163300D01*
X147865890Y-74163300D01*
X147865892Y-74163300D01*
X147993186Y-74129192D01*
X148107314Y-74063300D01*
X148200500Y-73970114D01*
X148266392Y-73855986D01*
X148300500Y-73728692D01*
X148300500Y-73596908D01*
X148266392Y-73469614D01*
X148200500Y-73355486D01*
X148136818Y-73291804D01*
X148103334Y-73230480D01*
X148100500Y-73204123D01*
X148100500Y-72134500D01*
X148120185Y-72067461D01*
X148172989Y-72021706D01*
X148224500Y-72010500D01*
X148669750Y-72010500D01*
X148669751Y-72010499D01*
X148684568Y-72007552D01*
X148728229Y-71998868D01*
X148728229Y-71998867D01*
X148728231Y-71998867D01*
X148794552Y-71954552D01*
X148838867Y-71888231D01*
X148838867Y-71888229D01*
X148838868Y-71888229D01*
X148850499Y-71829752D01*
X148850500Y-71829750D01*
X148850500Y-70090249D01*
X148850499Y-70090247D01*
X148838868Y-70031770D01*
X148838867Y-70031769D01*
X148794552Y-69965447D01*
X148728230Y-69921132D01*
X148728229Y-69921131D01*
X148669752Y-69909500D01*
X148669748Y-69909500D01*
X148366048Y-69909500D01*
X148299009Y-69889815D01*
X148253254Y-69837011D01*
X148243310Y-69767853D01*
X148272335Y-69704297D01*
X148314264Y-69674061D01*
X148313879Y-69673306D01*
X148507557Y-69574620D01*
X148679459Y-69449727D01*
X148679464Y-69449723D01*
X148829723Y-69299464D01*
X148829727Y-69299459D01*
X148954620Y-69127557D01*
X149051095Y-68938217D01*
X149108343Y-68762026D01*
X149147780Y-68704351D01*
X149212139Y-68677152D01*
X149280985Y-68689066D01*
X149332461Y-68736310D01*
X149340833Y-68752887D01*
X149375434Y-68836420D01*
X149409058Y-68917596D01*
X149524024Y-69089657D01*
X149670342Y-69235975D01*
X149670345Y-69235977D01*
X149842402Y-69350941D01*
X149962953Y-69400875D01*
X150017356Y-69444714D01*
X150039421Y-69511008D01*
X150039500Y-69515435D01*
X150039500Y-69611262D01*
X150040400Y-69614620D01*
X150059979Y-69687690D01*
X150059982Y-69687695D01*
X150103603Y-69763250D01*
X150102107Y-69764113D01*
X150123754Y-69820100D01*
X150109717Y-69888546D01*
X150060904Y-69938536D01*
X150036193Y-69949076D01*
X150033590Y-69949865D01*
X149842403Y-70029058D01*
X149670342Y-70144024D01*
X149524024Y-70290342D01*
X149409058Y-70462403D01*
X149329870Y-70653579D01*
X149329868Y-70653587D01*
X149289500Y-70856530D01*
X149289500Y-71063469D01*
X149329868Y-71266412D01*
X149329870Y-71266420D01*
X149409058Y-71457596D01*
X149524024Y-71629657D01*
X149670342Y-71775975D01*
X149670345Y-71775977D01*
X149842402Y-71890941D01*
X150033580Y-71970130D01*
X150178052Y-71998867D01*
X150236530Y-72010499D01*
X150236534Y-72010500D01*
X150236535Y-72010500D01*
X150443466Y-72010500D01*
X150443467Y-72010499D01*
X150646420Y-71970130D01*
X150837598Y-71890941D01*
X151009655Y-71775977D01*
X151009658Y-71775974D01*
X151048219Y-71737414D01*
X151109542Y-71703929D01*
X151179234Y-71708913D01*
X151235167Y-71750785D01*
X151259584Y-71816249D01*
X151259900Y-71825095D01*
X151259900Y-77891823D01*
X151240215Y-77958862D01*
X151223582Y-77979504D01*
X151159900Y-78043186D01*
X151094008Y-78157312D01*
X151072244Y-78238540D01*
X151059900Y-78284608D01*
X151059900Y-78416392D01*
X151062635Y-78426598D01*
X151094008Y-78543687D01*
X151126232Y-78599500D01*
X151159900Y-78657814D01*
X151253086Y-78751000D01*
X151367214Y-78816892D01*
X151494508Y-78851000D01*
X151494510Y-78851000D01*
X151626290Y-78851000D01*
X151626292Y-78851000D01*
X151753586Y-78816892D01*
X151867714Y-78751000D01*
X151960900Y-78657814D01*
X152026792Y-78543686D01*
X152060900Y-78416392D01*
X152060900Y-78284608D01*
X152026792Y-78157314D01*
X152020432Y-78146299D01*
X152014490Y-78136007D01*
X151960900Y-78043186D01*
X151897218Y-77979504D01*
X151863734Y-77918180D01*
X151860900Y-77891823D01*
X151860900Y-74796530D01*
X162309500Y-74796530D01*
X162309500Y-75003469D01*
X162349868Y-75206412D01*
X162349870Y-75206420D01*
X162415939Y-75365925D01*
X162429059Y-75397598D01*
X162453454Y-75434108D01*
X162544024Y-75569657D01*
X162690342Y-75715975D01*
X162690345Y-75715977D01*
X162862402Y-75830941D01*
X163053580Y-75910130D01*
X163198052Y-75938867D01*
X163256530Y-75950499D01*
X163256534Y-75950500D01*
X163256535Y-75950500D01*
X163463466Y-75950500D01*
X163463467Y-75950499D01*
X163666420Y-75910130D01*
X163857598Y-75830941D01*
X164029655Y-75715977D01*
X164175977Y-75569655D01*
X164290941Y-75397598D01*
X164370130Y-75206420D01*
X164410500Y-75003465D01*
X164410500Y-74796535D01*
X164410499Y-74796530D01*
X164849500Y-74796530D01*
X164849500Y-75003469D01*
X164889868Y-75206412D01*
X164889870Y-75206420D01*
X164955939Y-75365925D01*
X164969059Y-75397598D01*
X164993454Y-75434108D01*
X165084024Y-75569657D01*
X165230342Y-75715975D01*
X165230345Y-75715977D01*
X165402402Y-75830941D01*
X165593580Y-75910130D01*
X165738052Y-75938867D01*
X165796530Y-75950499D01*
X165796534Y-75950500D01*
X165796535Y-75950500D01*
X166003466Y-75950500D01*
X166003467Y-75950499D01*
X166206420Y-75910130D01*
X166397598Y-75830941D01*
X166569655Y-75715977D01*
X166715977Y-75569655D01*
X166830941Y-75397598D01*
X166910130Y-75206420D01*
X166950500Y-75003465D01*
X166950500Y-74796535D01*
X166950499Y-74796530D01*
X167389500Y-74796530D01*
X167389500Y-75003469D01*
X167429868Y-75206412D01*
X167429870Y-75206420D01*
X167495939Y-75365925D01*
X167509059Y-75397598D01*
X167533454Y-75434108D01*
X167624024Y-75569657D01*
X167770342Y-75715975D01*
X167770345Y-75715977D01*
X167942402Y-75830941D01*
X168133580Y-75910130D01*
X168278052Y-75938867D01*
X168336530Y-75950499D01*
X168336534Y-75950500D01*
X168336535Y-75950500D01*
X168543466Y-75950500D01*
X168543467Y-75950499D01*
X168746420Y-75910130D01*
X168937598Y-75830941D01*
X169109655Y-75715977D01*
X169255977Y-75569655D01*
X169370941Y-75397598D01*
X169450130Y-75206420D01*
X169490500Y-75003465D01*
X169490500Y-74796535D01*
X169490499Y-74796530D01*
X169929500Y-74796530D01*
X169929500Y-75003469D01*
X169969868Y-75206412D01*
X169969870Y-75206420D01*
X170035939Y-75365925D01*
X170049059Y-75397598D01*
X170073454Y-75434108D01*
X170164024Y-75569657D01*
X170310342Y-75715975D01*
X170310345Y-75715977D01*
X170482402Y-75830941D01*
X170602953Y-75880875D01*
X170657356Y-75924714D01*
X170679421Y-75991008D01*
X170679500Y-75995435D01*
X170679500Y-77101862D01*
X170691685Y-77147336D01*
X170699979Y-77178290D01*
X170699980Y-77178291D01*
X170721536Y-77215627D01*
X170721537Y-77215628D01*
X170739539Y-77246810D01*
X171026681Y-77533952D01*
X171060166Y-77595275D01*
X171063000Y-77621633D01*
X171063000Y-77711691D01*
X171097108Y-77838987D01*
X171130054Y-77896050D01*
X171163000Y-77953114D01*
X171256186Y-78046300D01*
X171370314Y-78112192D01*
X171497608Y-78146300D01*
X171497610Y-78146300D01*
X171629390Y-78146300D01*
X171629392Y-78146300D01*
X171756686Y-78112192D01*
X171870814Y-78046300D01*
X171964000Y-77953114D01*
X172029892Y-77838986D01*
X172064000Y-77711692D01*
X172064000Y-77579908D01*
X172029892Y-77452614D01*
X171964000Y-77338486D01*
X171870814Y-77245300D01*
X171813750Y-77212354D01*
X171756687Y-77179408D01*
X171693039Y-77162354D01*
X171629392Y-77145300D01*
X171539333Y-77145300D01*
X171509892Y-77136655D01*
X171479906Y-77130132D01*
X171474890Y-77126377D01*
X171472294Y-77125615D01*
X171451652Y-77108981D01*
X171316819Y-76974148D01*
X171283334Y-76912825D01*
X171280500Y-76886467D01*
X171280500Y-75995435D01*
X171300185Y-75928396D01*
X171352989Y-75882641D01*
X171357012Y-75880889D01*
X171477598Y-75830941D01*
X171649655Y-75715977D01*
X171795977Y-75569655D01*
X171910941Y-75397598D01*
X171990130Y-75206420D01*
X172030500Y-75003465D01*
X172030500Y-74796535D01*
X172030499Y-74796530D01*
X172469500Y-74796530D01*
X172469500Y-75003469D01*
X172509868Y-75206412D01*
X172509870Y-75206420D01*
X172575939Y-75365925D01*
X172589059Y-75397598D01*
X172613454Y-75434108D01*
X172704024Y-75569657D01*
X172850342Y-75715975D01*
X172850345Y-75715977D01*
X173022402Y-75830941D01*
X173213580Y-75910130D01*
X173358052Y-75938867D01*
X173416530Y-75950499D01*
X173416534Y-75950500D01*
X173416535Y-75950500D01*
X173623466Y-75950500D01*
X173623467Y-75950499D01*
X173826420Y-75910130D01*
X174017598Y-75830941D01*
X174189655Y-75715977D01*
X174335977Y-75569655D01*
X174450941Y-75397598D01*
X174530130Y-75206420D01*
X174570500Y-75003465D01*
X174570500Y-74796535D01*
X174570499Y-74796530D01*
X175009500Y-74796530D01*
X175009500Y-75003469D01*
X175049868Y-75206412D01*
X175049870Y-75206420D01*
X175115939Y-75365925D01*
X175129059Y-75397598D01*
X175153454Y-75434108D01*
X175244024Y-75569657D01*
X175390342Y-75715975D01*
X175390345Y-75715977D01*
X175562402Y-75830941D01*
X175753580Y-75910130D01*
X175898052Y-75938867D01*
X175956530Y-75950499D01*
X175956534Y-75950500D01*
X175956535Y-75950500D01*
X176163466Y-75950500D01*
X176163467Y-75950499D01*
X176366420Y-75910130D01*
X176557598Y-75830941D01*
X176729655Y-75715977D01*
X176875977Y-75569655D01*
X176990941Y-75397598D01*
X177070130Y-75206420D01*
X177110500Y-75003465D01*
X177110500Y-74796535D01*
X177110499Y-74796530D01*
X177549500Y-74796530D01*
X177549500Y-75003469D01*
X177589868Y-75206412D01*
X177589870Y-75206420D01*
X177655939Y-75365925D01*
X177669059Y-75397598D01*
X177693454Y-75434108D01*
X177784024Y-75569657D01*
X177930342Y-75715975D01*
X177930345Y-75715977D01*
X178102402Y-75830941D01*
X178293580Y-75910130D01*
X178438052Y-75938867D01*
X178496530Y-75950499D01*
X178496534Y-75950500D01*
X178496535Y-75950500D01*
X178703466Y-75950500D01*
X178703467Y-75950499D01*
X178906420Y-75910130D01*
X179097598Y-75830941D01*
X179269655Y-75715977D01*
X179415977Y-75569655D01*
X179530941Y-75397598D01*
X179599165Y-75232889D01*
X179643004Y-75178488D01*
X179709298Y-75156423D01*
X179776998Y-75173702D01*
X179824609Y-75224839D01*
X179831656Y-75242026D01*
X179888904Y-75418216D01*
X179985379Y-75607557D01*
X180110272Y-75779459D01*
X180110276Y-75779464D01*
X180260535Y-75929723D01*
X180260540Y-75929727D01*
X180432442Y-76054620D01*
X180621782Y-76151095D01*
X180823871Y-76216757D01*
X180890000Y-76227231D01*
X180890000Y-75333012D01*
X180947007Y-75365925D01*
X181074174Y-75400000D01*
X181205826Y-75400000D01*
X181332993Y-75365925D01*
X181390000Y-75333012D01*
X181390000Y-76227230D01*
X181456126Y-76216757D01*
X181456129Y-76216757D01*
X181658217Y-76151095D01*
X181847557Y-76054620D01*
X182019459Y-75929727D01*
X182019464Y-75929723D01*
X182169723Y-75779464D01*
X182169727Y-75779459D01*
X182294620Y-75607557D01*
X182393306Y-75413879D01*
X182394321Y-75414396D01*
X182434779Y-75364192D01*
X182501073Y-75342127D01*
X182568772Y-75359406D01*
X182616383Y-75410542D01*
X182629500Y-75466048D01*
X182629500Y-75769752D01*
X182641131Y-75828229D01*
X182641132Y-75828230D01*
X182685447Y-75894552D01*
X182751769Y-75938867D01*
X182751770Y-75938868D01*
X182810247Y-75950499D01*
X182810250Y-75950500D01*
X182810252Y-75950500D01*
X184549750Y-75950500D01*
X184549751Y-75950499D01*
X184564568Y-75947552D01*
X184608229Y-75938868D01*
X184608229Y-75938867D01*
X184608231Y-75938867D01*
X184674552Y-75894552D01*
X184718867Y-75828231D01*
X184718867Y-75828229D01*
X184718868Y-75828229D01*
X184730499Y-75769752D01*
X184730500Y-75769750D01*
X184730500Y-74030249D01*
X184730499Y-74030247D01*
X184718868Y-73971770D01*
X184718867Y-73971769D01*
X184674552Y-73905447D01*
X184608230Y-73861132D01*
X184608229Y-73861131D01*
X184549752Y-73849500D01*
X184549748Y-73849500D01*
X182810252Y-73849500D01*
X182810247Y-73849500D01*
X182751770Y-73861131D01*
X182751769Y-73861132D01*
X182685447Y-73905447D01*
X182641132Y-73971769D01*
X182641131Y-73971770D01*
X182629500Y-74030247D01*
X182629500Y-74333951D01*
X182609815Y-74400990D01*
X182557011Y-74446745D01*
X182487853Y-74456689D01*
X182424297Y-74427664D01*
X182394061Y-74385736D01*
X182393306Y-74386121D01*
X182294620Y-74192442D01*
X182169727Y-74020540D01*
X182169723Y-74020535D01*
X182019464Y-73870276D01*
X182019459Y-73870272D01*
X181847557Y-73745379D01*
X181658215Y-73648903D01*
X181456124Y-73583241D01*
X181390000Y-73572768D01*
X181390000Y-74466988D01*
X181332993Y-74434075D01*
X181205826Y-74400000D01*
X181074174Y-74400000D01*
X180947007Y-74434075D01*
X180890000Y-74466988D01*
X180890000Y-73572768D01*
X180889999Y-73572768D01*
X180823875Y-73583241D01*
X180621784Y-73648903D01*
X180432442Y-73745379D01*
X180260540Y-73870272D01*
X180260535Y-73870276D01*
X180110276Y-74020535D01*
X180110272Y-74020540D01*
X179985379Y-74192442D01*
X179888905Y-74381781D01*
X179831656Y-74557974D01*
X179792218Y-74615649D01*
X179727859Y-74642847D01*
X179659013Y-74630932D01*
X179607537Y-74583688D01*
X179599164Y-74567107D01*
X179587990Y-74540131D01*
X179571327Y-74499901D01*
X179530943Y-74402405D01*
X179415975Y-74230342D01*
X179269657Y-74084024D01*
X179101655Y-73971770D01*
X179097598Y-73969059D01*
X178906420Y-73889870D01*
X178906412Y-73889868D01*
X178703469Y-73849500D01*
X178703465Y-73849500D01*
X178496535Y-73849500D01*
X178496530Y-73849500D01*
X178293587Y-73889868D01*
X178293579Y-73889870D01*
X178102403Y-73969058D01*
X177930342Y-74084024D01*
X177784024Y-74230342D01*
X177669058Y-74402403D01*
X177589870Y-74593579D01*
X177589868Y-74593587D01*
X177549500Y-74796530D01*
X177110499Y-74796530D01*
X177070130Y-74593580D01*
X176990941Y-74402402D01*
X176875977Y-74230345D01*
X176875975Y-74230342D01*
X176729657Y-74084024D01*
X176561655Y-73971770D01*
X176557598Y-73969059D01*
X176366420Y-73889870D01*
X176366412Y-73889868D01*
X176163469Y-73849500D01*
X176163465Y-73849500D01*
X175956535Y-73849500D01*
X175956530Y-73849500D01*
X175753587Y-73889868D01*
X175753579Y-73889870D01*
X175562403Y-73969058D01*
X175390342Y-74084024D01*
X175244024Y-74230342D01*
X175129058Y-74402403D01*
X175049870Y-74593579D01*
X175049868Y-74593587D01*
X175009500Y-74796530D01*
X174570499Y-74796530D01*
X174530130Y-74593580D01*
X174450941Y-74402402D01*
X174335977Y-74230345D01*
X174335975Y-74230342D01*
X174189657Y-74084024D01*
X174021655Y-73971770D01*
X174017598Y-73969059D01*
X173826420Y-73889870D01*
X173826412Y-73889868D01*
X173623469Y-73849500D01*
X173623465Y-73849500D01*
X173416535Y-73849500D01*
X173416530Y-73849500D01*
X173213587Y-73889868D01*
X173213579Y-73889870D01*
X173022403Y-73969058D01*
X172850342Y-74084024D01*
X172704024Y-74230342D01*
X172589058Y-74402403D01*
X172509870Y-74593579D01*
X172509868Y-74593587D01*
X172469500Y-74796530D01*
X172030499Y-74796530D01*
X171990130Y-74593580D01*
X171910941Y-74402402D01*
X171795977Y-74230345D01*
X171795975Y-74230342D01*
X171649657Y-74084024D01*
X171481655Y-73971770D01*
X171477598Y-73969059D01*
X171286420Y-73889870D01*
X171286412Y-73889868D01*
X171083469Y-73849500D01*
X171083465Y-73849500D01*
X170876535Y-73849500D01*
X170876530Y-73849500D01*
X170673587Y-73889868D01*
X170673579Y-73889870D01*
X170482403Y-73969058D01*
X170310342Y-74084024D01*
X170164024Y-74230342D01*
X170049058Y-74402403D01*
X169969870Y-74593579D01*
X169969868Y-74593587D01*
X169929500Y-74796530D01*
X169490499Y-74796530D01*
X169450130Y-74593580D01*
X169370941Y-74402402D01*
X169255977Y-74230345D01*
X169255975Y-74230342D01*
X169109657Y-74084024D01*
X168941655Y-73971770D01*
X168937598Y-73969059D01*
X168746420Y-73889870D01*
X168746412Y-73889868D01*
X168543469Y-73849500D01*
X168543465Y-73849500D01*
X168336535Y-73849500D01*
X168336530Y-73849500D01*
X168133587Y-73889868D01*
X168133579Y-73889870D01*
X167942403Y-73969058D01*
X167770342Y-74084024D01*
X167624024Y-74230342D01*
X167509058Y-74402403D01*
X167429870Y-74593579D01*
X167429868Y-74593587D01*
X167389500Y-74796530D01*
X166950499Y-74796530D01*
X166910130Y-74593580D01*
X166830941Y-74402402D01*
X166715977Y-74230345D01*
X166715975Y-74230342D01*
X166569657Y-74084024D01*
X166401655Y-73971770D01*
X166397598Y-73969059D01*
X166206420Y-73889870D01*
X166206412Y-73889868D01*
X166003469Y-73849500D01*
X166003465Y-73849500D01*
X165796535Y-73849500D01*
X165796530Y-73849500D01*
X165593587Y-73889868D01*
X165593579Y-73889870D01*
X165402403Y-73969058D01*
X165230342Y-74084024D01*
X165084024Y-74230342D01*
X164969058Y-74402403D01*
X164889870Y-74593579D01*
X164889868Y-74593587D01*
X164849500Y-74796530D01*
X164410499Y-74796530D01*
X164370130Y-74593580D01*
X164290941Y-74402402D01*
X164175977Y-74230345D01*
X164175975Y-74230342D01*
X164029657Y-74084024D01*
X163861655Y-73971770D01*
X163857598Y-73969059D01*
X163666420Y-73889870D01*
X163666412Y-73889868D01*
X163463469Y-73849500D01*
X163463465Y-73849500D01*
X163256535Y-73849500D01*
X163256530Y-73849500D01*
X163053587Y-73889868D01*
X163053579Y-73889870D01*
X162862403Y-73969058D01*
X162690342Y-74084024D01*
X162544024Y-74230342D01*
X162429058Y-74402403D01*
X162349870Y-74593579D01*
X162349868Y-74593587D01*
X162309500Y-74796530D01*
X151860900Y-74796530D01*
X151860900Y-71725895D01*
X151880585Y-71658856D01*
X151933389Y-71613101D01*
X152002547Y-71603157D01*
X152066103Y-71632182D01*
X152072581Y-71638214D01*
X152210342Y-71775975D01*
X152210345Y-71775977D01*
X152382402Y-71890941D01*
X152573580Y-71970130D01*
X152718052Y-71998867D01*
X152776530Y-72010499D01*
X152776534Y-72010500D01*
X152776535Y-72010500D01*
X152983466Y-72010500D01*
X152983467Y-72010499D01*
X153186420Y-71970130D01*
X153377598Y-71890941D01*
X153549655Y-71775977D01*
X153695977Y-71629655D01*
X153810941Y-71457598D01*
X153890130Y-71266420D01*
X153930500Y-71063465D01*
X153930500Y-70856535D01*
X153890130Y-70653580D01*
X153810941Y-70462402D01*
X153695977Y-70290345D01*
X153695975Y-70290342D01*
X153549657Y-70144024D01*
X153381655Y-70031770D01*
X153377598Y-70029059D01*
X153320596Y-70005448D01*
X153186420Y-69949870D01*
X153186412Y-69949868D01*
X152983469Y-69909500D01*
X152983465Y-69909500D01*
X152776535Y-69909500D01*
X152776530Y-69909500D01*
X152573587Y-69949868D01*
X152573579Y-69949870D01*
X152382403Y-70029058D01*
X152210342Y-70144024D01*
X152064025Y-70290341D01*
X152064022Y-70290345D01*
X152024542Y-70349431D01*
X151970929Y-70394236D01*
X151901604Y-70402943D01*
X151838577Y-70372788D01*
X151814052Y-70342539D01*
X151800860Y-70319689D01*
X150941149Y-69459978D01*
X150907664Y-69398655D01*
X150912648Y-69328963D01*
X150954520Y-69273030D01*
X150959900Y-69269221D01*
X151009655Y-69235977D01*
X151155977Y-69089655D01*
X151270941Y-68917598D01*
X151350130Y-68726420D01*
X151390500Y-68523465D01*
X151390500Y-68316535D01*
X151390499Y-68316530D01*
X151829500Y-68316530D01*
X151829500Y-68523469D01*
X151869868Y-68726412D01*
X151869870Y-68726420D01*
X151949058Y-68917596D01*
X152064024Y-69089657D01*
X152210342Y-69235975D01*
X152210345Y-69235977D01*
X152382402Y-69350941D01*
X152573580Y-69430130D01*
X152774670Y-69470129D01*
X152776530Y-69470499D01*
X152776534Y-69470500D01*
X152776535Y-69470500D01*
X152983466Y-69470500D01*
X152983467Y-69470499D01*
X153186420Y-69430130D01*
X153377598Y-69350941D01*
X153549655Y-69235977D01*
X153695977Y-69089655D01*
X153810941Y-68917598D01*
X153890130Y-68726420D01*
X153930500Y-68523465D01*
X153930500Y-68316535D01*
X153890130Y-68113580D01*
X153810941Y-67922402D01*
X153695977Y-67750345D01*
X153695975Y-67750342D01*
X153549657Y-67604024D01*
X153414919Y-67513996D01*
X153377598Y-67489059D01*
X153235674Y-67430272D01*
X153186420Y-67409870D01*
X153186412Y-67409868D01*
X152983469Y-67369500D01*
X152983465Y-67369500D01*
X152776535Y-67369500D01*
X152776530Y-67369500D01*
X152573587Y-67409868D01*
X152573579Y-67409870D01*
X152382403Y-67489058D01*
X152210342Y-67604024D01*
X152064024Y-67750342D01*
X151949058Y-67922403D01*
X151869870Y-68113579D01*
X151869868Y-68113587D01*
X151829500Y-68316530D01*
X151390499Y-68316530D01*
X151350130Y-68113580D01*
X151270941Y-67922402D01*
X151155977Y-67750345D01*
X151155975Y-67750342D01*
X151009657Y-67604024D01*
X150874919Y-67513996D01*
X150837598Y-67489059D01*
X150695674Y-67430272D01*
X150646420Y-67409870D01*
X150646412Y-67409868D01*
X150443469Y-67369500D01*
X150443465Y-67369500D01*
X150236535Y-67369500D01*
X150236530Y-67369500D01*
X150033587Y-67409868D01*
X150033579Y-67409870D01*
X149842403Y-67489058D01*
X149670342Y-67604024D01*
X149524024Y-67750342D01*
X149409057Y-67922403D01*
X149340835Y-68087108D01*
X149296994Y-68141511D01*
X149230700Y-68163576D01*
X149163000Y-68146297D01*
X149115390Y-68095159D01*
X149108343Y-68077973D01*
X149051095Y-67901782D01*
X148954620Y-67712442D01*
X148829727Y-67540540D01*
X148829723Y-67540535D01*
X148679464Y-67390276D01*
X148679459Y-67390272D01*
X148507557Y-67265379D01*
X148318215Y-67168903D01*
X148116124Y-67103241D01*
X148050000Y-67092768D01*
X148050000Y-67986988D01*
X147992993Y-67954075D01*
X147865826Y-67920000D01*
X147734174Y-67920000D01*
X147607007Y-67954075D01*
X147550000Y-67986988D01*
X147550000Y-67092768D01*
X147549999Y-67092768D01*
X147483875Y-67103241D01*
X147281784Y-67168903D01*
X147092442Y-67265379D01*
X146920540Y-67390272D01*
X146920535Y-67390276D01*
X146770276Y-67540535D01*
X146770272Y-67540540D01*
X146645379Y-67712442D01*
X146548904Y-67901782D01*
X146483242Y-68103870D01*
X146483242Y-68103873D01*
X146472769Y-68170000D01*
X141293396Y-68170000D01*
X141290131Y-68153587D01*
X141290130Y-68153580D01*
X141210941Y-67962402D01*
X141095977Y-67790345D01*
X141095975Y-67790342D01*
X140949657Y-67644024D01*
X140807083Y-67548760D01*
X140777598Y-67529059D01*
X140777593Y-67529057D01*
X140586420Y-67449870D01*
X140586412Y-67449868D01*
X140383469Y-67409500D01*
X140383465Y-67409500D01*
X140176535Y-67409500D01*
X140176530Y-67409500D01*
X139973587Y-67449868D01*
X139973579Y-67449870D01*
X139782403Y-67529058D01*
X139610342Y-67644024D01*
X139464024Y-67790342D01*
X139349058Y-67962403D01*
X139269870Y-68153579D01*
X139269868Y-68153587D01*
X139229500Y-68356530D01*
X138790499Y-68356530D01*
X138750130Y-68153580D01*
X138670941Y-67962402D01*
X138555977Y-67790345D01*
X138555975Y-67790342D01*
X138494183Y-67728550D01*
X138460698Y-67667227D01*
X138465682Y-67597535D01*
X138494183Y-67553188D01*
X138554560Y-67492811D01*
X138657099Y-67390272D01*
X138789351Y-67258018D01*
X138850674Y-67224534D01*
X138877032Y-67221700D01*
X138967090Y-67221700D01*
X138967092Y-67221700D01*
X139094386Y-67187592D01*
X139208514Y-67121700D01*
X139301700Y-67028514D01*
X139367592Y-66914386D01*
X139401700Y-66787092D01*
X139401700Y-66655308D01*
X139367592Y-66528014D01*
X139301700Y-66413886D01*
X139208514Y-66320700D01*
X139151450Y-66287754D01*
X139094387Y-66254808D01*
X139030739Y-66237754D01*
X138967092Y-66220700D01*
X138835308Y-66220700D01*
X138708012Y-66254808D01*
X138593886Y-66320700D01*
X138593883Y-66320702D01*
X138500702Y-66413883D01*
X138500700Y-66413886D01*
X138434808Y-66528012D01*
X138400700Y-66655308D01*
X138400700Y-66745366D01*
X138392054Y-66774809D01*
X138385532Y-66804792D01*
X138381777Y-66809807D01*
X138381015Y-66812405D01*
X138364385Y-66833042D01*
X138225946Y-66971482D01*
X138164626Y-67004966D01*
X138138267Y-67007800D01*
X137779562Y-67007800D01*
X137700438Y-67007800D01*
X137662224Y-67018039D01*
X137624009Y-67028279D01*
X137624004Y-67028282D01*
X137555495Y-67067835D01*
X137555487Y-67067841D01*
X137499541Y-67123787D01*
X137499535Y-67123795D01*
X137459982Y-67192304D01*
X137459979Y-67192309D01*
X137439500Y-67268739D01*
X137439500Y-67364563D01*
X137419815Y-67431602D01*
X137367011Y-67477357D01*
X137362953Y-67479124D01*
X137242404Y-67529057D01*
X137070342Y-67644024D01*
X136924024Y-67790342D01*
X136809057Y-67962403D01*
X136740835Y-68127108D01*
X136696994Y-68181511D01*
X136630700Y-68203576D01*
X136563000Y-68186297D01*
X136515390Y-68135159D01*
X136508343Y-68117973D01*
X136451095Y-67941782D01*
X136354620Y-67752442D01*
X136229727Y-67580540D01*
X136229723Y-67580535D01*
X136079464Y-67430276D01*
X136079459Y-67430272D01*
X135907557Y-67305379D01*
X135718215Y-67208903D01*
X135516124Y-67143241D01*
X135450000Y-67132768D01*
X135450000Y-68026988D01*
X135392993Y-67994075D01*
X135265826Y-67960000D01*
X135134174Y-67960000D01*
X135007007Y-67994075D01*
X134950000Y-68026988D01*
X134950000Y-67132768D01*
X134949999Y-67132768D01*
X134883875Y-67143241D01*
X134681784Y-67208903D01*
X134492442Y-67305379D01*
X134320540Y-67430272D01*
X134320535Y-67430276D01*
X134170276Y-67580535D01*
X134170272Y-67580540D01*
X134045379Y-67752442D01*
X133948904Y-67941782D01*
X133883242Y-68143870D01*
X133883242Y-68143873D01*
X133872769Y-68210000D01*
X134766988Y-68210000D01*
X134734075Y-68267007D01*
X134700000Y-68394174D01*
X134700000Y-68525826D01*
X134734075Y-68652993D01*
X134766988Y-68710000D01*
X133872769Y-68710000D01*
X133874860Y-68723202D01*
X133865906Y-68792495D01*
X133820910Y-68845947D01*
X133754158Y-68866587D01*
X133752387Y-68866600D01*
X133656208Y-68866600D01*
X133528912Y-68900708D01*
X133414786Y-68966600D01*
X133414783Y-68966602D01*
X133321602Y-69059783D01*
X133321600Y-69059786D01*
X133255708Y-69173912D01*
X133222069Y-69299459D01*
X133221600Y-69301208D01*
X123094424Y-69301208D01*
X123119657Y-69275975D01*
X123190233Y-69205400D01*
X123195974Y-69199658D01*
X123195975Y-69199657D01*
X123195977Y-69199655D01*
X123310941Y-69027598D01*
X123390130Y-68836420D01*
X123430500Y-68633465D01*
X123430500Y-68426535D01*
X123426971Y-68408794D01*
X123399614Y-68271255D01*
X123390131Y-68223585D01*
X123390130Y-68223584D01*
X123390130Y-68223580D01*
X123310941Y-68032402D01*
X123195977Y-67860345D01*
X123195975Y-67860342D01*
X123063515Y-67727882D01*
X128125669Y-67727882D01*
X128125670Y-67727883D01*
X128151059Y-67746329D01*
X128319362Y-67832085D01*
X128498997Y-67890451D01*
X128685553Y-67920000D01*
X128874447Y-67920000D01*
X129061002Y-67890451D01*
X129240637Y-67832085D01*
X129408937Y-67746331D01*
X129434328Y-67727883D01*
X129434328Y-67727882D01*
X128780001Y-67073554D01*
X128780000Y-67073554D01*
X128125669Y-67727882D01*
X123063515Y-67727882D01*
X123049657Y-67714024D01*
X122891238Y-67608173D01*
X122877598Y-67599059D01*
X122870722Y-67596211D01*
X122686420Y-67519870D01*
X122686412Y-67519868D01*
X122483469Y-67479500D01*
X122483465Y-67479500D01*
X121076535Y-67479500D01*
X121076530Y-67479500D01*
X120873587Y-67519868D01*
X120873579Y-67519870D01*
X120682403Y-67599058D01*
X120510342Y-67714024D01*
X120364024Y-67860342D01*
X120249058Y-68032403D01*
X120169870Y-68223579D01*
X120169868Y-68223587D01*
X120129500Y-68426530D01*
X110930499Y-68426530D01*
X110890130Y-68223580D01*
X110810941Y-68032402D01*
X110695977Y-67860345D01*
X110695975Y-67860342D01*
X110549657Y-67714024D01*
X110391238Y-67608173D01*
X110377598Y-67599059D01*
X110370722Y-67596211D01*
X110186420Y-67519870D01*
X110186412Y-67519868D01*
X109983469Y-67479500D01*
X109983465Y-67479500D01*
X108576535Y-67479500D01*
X108576530Y-67479500D01*
X108373587Y-67519868D01*
X108373579Y-67519870D01*
X108182403Y-67599058D01*
X108010342Y-67714024D01*
X107864024Y-67860342D01*
X107749058Y-68032403D01*
X107669870Y-68223579D01*
X107669868Y-68223587D01*
X107629500Y-68426530D01*
X100000500Y-68426530D01*
X100000500Y-64836463D01*
X100671073Y-64836463D01*
X100671073Y-65163536D01*
X100703131Y-65489043D01*
X100766936Y-65809818D01*
X100766939Y-65809829D01*
X100861888Y-66122835D01*
X100987053Y-66425009D01*
X100987060Y-66425023D01*
X101141233Y-66713463D01*
X101141244Y-66713481D01*
X101322950Y-66985422D01*
X101322960Y-66985436D01*
X101530457Y-67238272D01*
X101761727Y-67469542D01*
X101761732Y-67469546D01*
X101761733Y-67469547D01*
X102014569Y-67677044D01*
X102286525Y-67858760D01*
X102574984Y-68012944D01*
X102877166Y-68138112D01*
X103190161Y-68233058D01*
X103190167Y-68233059D01*
X103190170Y-68233060D01*
X103190181Y-68233063D01*
X103506592Y-68296000D01*
X103510956Y-68296868D01*
X103836460Y-68328927D01*
X103836463Y-68328927D01*
X104163537Y-68328927D01*
X104163540Y-68328927D01*
X104316156Y-68313895D01*
X104487301Y-68297040D01*
X104488643Y-68296907D01*
X104489044Y-68296868D01*
X104551490Y-68284446D01*
X104809818Y-68233063D01*
X104809829Y-68233060D01*
X104809829Y-68233059D01*
X104809839Y-68233058D01*
X105122834Y-68138112D01*
X105425016Y-68012944D01*
X105713475Y-67858760D01*
X105985431Y-67677044D01*
X106238267Y-67469547D01*
X106469547Y-67238267D01*
X106677044Y-66985431D01*
X106858760Y-66713475D01*
X107005230Y-66439448D01*
X114379500Y-66439448D01*
X114379500Y-66620551D01*
X114407829Y-66799410D01*
X114463787Y-66971636D01*
X114463788Y-66971639D01*
X114512806Y-67067840D01*
X114540249Y-67121700D01*
X114546006Y-67132997D01*
X114652441Y-67279494D01*
X114652445Y-67279499D01*
X114780500Y-67407554D01*
X114780505Y-67407558D01*
X114892683Y-67489059D01*
X114927006Y-67513996D01*
X115032484Y-67567740D01*
X115088360Y-67596211D01*
X115088363Y-67596212D01*
X115174476Y-67624191D01*
X115260591Y-67652171D01*
X115343429Y-67665291D01*
X115439449Y-67680500D01*
X115439454Y-67680500D01*
X115620551Y-67680500D01*
X115707259Y-67666765D01*
X115799409Y-67652171D01*
X115971639Y-67596211D01*
X116132994Y-67513996D01*
X116279501Y-67407553D01*
X116407553Y-67279501D01*
X116513996Y-67132994D01*
X116596211Y-66971639D01*
X116652171Y-66799409D01*
X116674994Y-66655310D01*
X116679708Y-66625552D01*
X127580000Y-66625552D01*
X127580000Y-66814447D01*
X127609548Y-67001002D01*
X127667914Y-67180637D01*
X127753666Y-67348933D01*
X127772116Y-67374328D01*
X128426446Y-66720000D01*
X128426446Y-66719999D01*
X128380369Y-66673922D01*
X128430000Y-66673922D01*
X128430000Y-66766078D01*
X128453852Y-66855095D01*
X128499930Y-66934905D01*
X128565095Y-67000070D01*
X128644905Y-67046148D01*
X128733922Y-67070000D01*
X128826078Y-67070000D01*
X128915095Y-67046148D01*
X128994905Y-67000070D01*
X129060070Y-66934905D01*
X129106148Y-66855095D01*
X129130000Y-66766078D01*
X129130000Y-66719999D01*
X129133554Y-66719999D01*
X129133554Y-66720000D01*
X129787882Y-67374328D01*
X129787883Y-67374328D01*
X129806331Y-67348937D01*
X129892085Y-67180637D01*
X129950451Y-67001002D01*
X129980000Y-66814447D01*
X129980000Y-66625552D01*
X129950451Y-66438997D01*
X129892085Y-66259362D01*
X129806329Y-66091059D01*
X129787883Y-66065670D01*
X129787882Y-66065669D01*
X129133554Y-66719999D01*
X129130000Y-66719999D01*
X129130000Y-66673922D01*
X129106148Y-66584905D01*
X129060070Y-66505095D01*
X128994905Y-66439930D01*
X128915095Y-66393852D01*
X128826078Y-66370000D01*
X128733922Y-66370000D01*
X128644905Y-66393852D01*
X128565095Y-66439930D01*
X128499930Y-66505095D01*
X128453852Y-66584905D01*
X128430000Y-66673922D01*
X128380369Y-66673922D01*
X127772116Y-66065669D01*
X127772116Y-66065670D01*
X127753669Y-66091060D01*
X127667914Y-66259362D01*
X127609548Y-66438997D01*
X127580000Y-66625552D01*
X116679708Y-66625552D01*
X116680500Y-66620551D01*
X116680500Y-66439448D01*
X116664019Y-66335397D01*
X116652171Y-66260591D01*
X116596211Y-66088361D01*
X116596211Y-66088360D01*
X116566279Y-66029616D01*
X116513996Y-65927006D01*
X116407553Y-65780499D01*
X116339170Y-65712116D01*
X128125669Y-65712116D01*
X128780000Y-66366446D01*
X128780001Y-66366446D01*
X129434328Y-65712116D01*
X129408933Y-65693666D01*
X129240637Y-65607914D01*
X129061002Y-65549548D01*
X128874447Y-65520000D01*
X128685553Y-65520000D01*
X128498997Y-65549548D01*
X128319362Y-65607914D01*
X128151060Y-65693669D01*
X128125670Y-65712116D01*
X128125669Y-65712116D01*
X116339170Y-65712116D01*
X116279501Y-65652447D01*
X116279499Y-65652445D01*
X116279494Y-65652441D01*
X116132997Y-65546006D01*
X116132996Y-65546005D01*
X116132994Y-65546004D01*
X116081300Y-65519664D01*
X115971639Y-65463788D01*
X115971636Y-65463787D01*
X115799410Y-65407829D01*
X115620551Y-65379500D01*
X115620546Y-65379500D01*
X115439454Y-65379500D01*
X115439449Y-65379500D01*
X115260589Y-65407829D01*
X115088363Y-65463787D01*
X115088360Y-65463788D01*
X114927002Y-65546006D01*
X114780505Y-65652441D01*
X114780500Y-65652445D01*
X114652445Y-65780500D01*
X114652441Y-65780505D01*
X114546006Y-65927002D01*
X114463788Y-66088360D01*
X114463787Y-66088363D01*
X114407829Y-66260589D01*
X114379500Y-66439448D01*
X107005230Y-66439448D01*
X107012944Y-66425016D01*
X107138112Y-66122834D01*
X107233058Y-65809839D01*
X107233060Y-65809829D01*
X107233063Y-65809818D01*
X107296868Y-65489043D01*
X107299355Y-65463788D01*
X107328927Y-65163540D01*
X107328927Y-64836463D01*
X182171073Y-64836463D01*
X182171073Y-65163536D01*
X182203131Y-65489043D01*
X182266936Y-65809818D01*
X182266939Y-65809829D01*
X182361888Y-66122835D01*
X182487053Y-66425009D01*
X182487060Y-66425023D01*
X182641233Y-66713463D01*
X182641244Y-66713481D01*
X182822950Y-66985422D01*
X182822960Y-66985436D01*
X183030457Y-67238272D01*
X183261727Y-67469542D01*
X183261732Y-67469546D01*
X183261733Y-67469547D01*
X183514569Y-67677044D01*
X183786525Y-67858760D01*
X184074984Y-68012944D01*
X184377166Y-68138112D01*
X184690161Y-68233058D01*
X184690167Y-68233059D01*
X184690170Y-68233060D01*
X184690181Y-68233063D01*
X185006592Y-68296000D01*
X185010956Y-68296868D01*
X185336460Y-68328927D01*
X185336463Y-68328927D01*
X185663537Y-68328927D01*
X185663540Y-68328927D01*
X185989044Y-68296868D01*
X186051490Y-68284446D01*
X186309818Y-68233063D01*
X186309829Y-68233060D01*
X186309829Y-68233059D01*
X186309839Y-68233058D01*
X186622834Y-68138112D01*
X186925016Y-68012944D01*
X187213475Y-67858760D01*
X187485431Y-67677044D01*
X187738267Y-67469547D01*
X187969547Y-67238267D01*
X188177044Y-66985431D01*
X188358760Y-66713475D01*
X188512944Y-66425016D01*
X188638112Y-66122834D01*
X188733058Y-65809839D01*
X188733060Y-65809829D01*
X188733063Y-65809818D01*
X188796868Y-65489043D01*
X188799355Y-65463788D01*
X188828927Y-65163540D01*
X188828927Y-64836460D01*
X188796868Y-64510956D01*
X188733063Y-64190181D01*
X188733060Y-64190170D01*
X188733059Y-64190167D01*
X188733058Y-64190161D01*
X188638112Y-63877166D01*
X188512944Y-63574984D01*
X188358760Y-63286525D01*
X188177044Y-63014569D01*
X187969547Y-62761733D01*
X187969546Y-62761732D01*
X187969542Y-62761727D01*
X187738272Y-62530457D01*
X187485436Y-62322960D01*
X187485435Y-62322959D01*
X187485431Y-62322956D01*
X187213475Y-62141240D01*
X187213470Y-62141237D01*
X187213463Y-62141233D01*
X186925023Y-61987060D01*
X186925016Y-61987056D01*
X186925009Y-61987053D01*
X186622835Y-61861888D01*
X186309829Y-61766939D01*
X186309818Y-61766936D01*
X185989043Y-61703131D01*
X185743887Y-61678986D01*
X185663540Y-61671073D01*
X185336460Y-61671073D01*
X185262221Y-61678384D01*
X185010956Y-61703131D01*
X184690181Y-61766936D01*
X184690170Y-61766939D01*
X184377164Y-61861888D01*
X184074990Y-61987053D01*
X184074976Y-61987060D01*
X183786536Y-62141233D01*
X183786518Y-62141244D01*
X183514577Y-62322950D01*
X183514563Y-62322960D01*
X183261727Y-62530457D01*
X183030457Y-62761727D01*
X182822960Y-63014563D01*
X182822950Y-63014577D01*
X182641244Y-63286518D01*
X182641233Y-63286536D01*
X182487060Y-63574976D01*
X182487053Y-63574990D01*
X182361888Y-63877164D01*
X182266939Y-64190170D01*
X182266936Y-64190181D01*
X182203131Y-64510956D01*
X182171073Y-64836463D01*
X107328927Y-64836463D01*
X107328927Y-64836460D01*
X107296868Y-64510956D01*
X107233063Y-64190181D01*
X107233060Y-64190170D01*
X107233059Y-64190167D01*
X107233058Y-64190161D01*
X107138112Y-63877166D01*
X107012944Y-63574984D01*
X106858760Y-63286525D01*
X106677044Y-63014569D01*
X106469547Y-62761733D01*
X106469546Y-62761732D01*
X106469542Y-62761727D01*
X106238272Y-62530457D01*
X105985436Y-62322960D01*
X105985435Y-62322959D01*
X105985431Y-62322956D01*
X105713475Y-62141240D01*
X105713470Y-62141237D01*
X105713463Y-62141233D01*
X105425023Y-61987060D01*
X105425016Y-61987056D01*
X105425009Y-61987053D01*
X105122835Y-61861888D01*
X104809829Y-61766939D01*
X104809818Y-61766936D01*
X104489043Y-61703131D01*
X104243887Y-61678986D01*
X104163540Y-61671073D01*
X103836460Y-61671073D01*
X103762221Y-61678384D01*
X103510956Y-61703131D01*
X103190181Y-61766936D01*
X103190170Y-61766939D01*
X102877164Y-61861888D01*
X102574990Y-61987053D01*
X102574976Y-61987060D01*
X102286536Y-62141233D01*
X102286518Y-62141244D01*
X102014577Y-62322950D01*
X102014563Y-62322960D01*
X101761727Y-62530457D01*
X101530457Y-62761727D01*
X101322960Y-63014563D01*
X101322950Y-63014577D01*
X101141244Y-63286518D01*
X101141233Y-63286536D01*
X100987060Y-63574976D01*
X100987053Y-63574990D01*
X100861888Y-63877164D01*
X100766939Y-64190170D01*
X100766936Y-64190181D01*
X100703131Y-64510956D01*
X100671073Y-64836463D01*
X100000500Y-64836463D01*
X100000500Y-62504427D01*
X100000816Y-62495581D01*
X100013162Y-62322960D01*
X100015131Y-62295434D01*
X100017646Y-62277938D01*
X100059356Y-62086199D01*
X100064333Y-62069248D01*
X100132913Y-61885378D01*
X100140252Y-61869309D01*
X100143216Y-61863883D01*
X100164356Y-61835643D01*
X100835643Y-61164356D01*
X100863885Y-61143214D01*
X100869309Y-61140252D01*
X100885378Y-61132913D01*
X101069248Y-61064333D01*
X101086199Y-61059356D01*
X101277938Y-61017646D01*
X101295436Y-61015130D01*
X101495582Y-61000816D01*
X101504428Y-61000500D01*
X101565892Y-61000500D01*
X187934108Y-61000500D01*
X187995572Y-61000500D01*
X188004418Y-61000816D01*
G37*
G04 #@! TD.AperFunction*
M02*
