%TF.GenerationSoftware,KiCad,Pcbnew,9.0.2*%
%TF.CreationDate,2025-06-18T13:56:50-05:00*%
%TF.ProjectId,Quake_PCB_3,5175616b-655f-4504-9342-5f332e6b6963,rev?*%
%TF.SameCoordinates,Original*%
%TF.FileFunction,Drillmap*%
%TF.FilePolarity,Positive*%
%FSLAX45Y45*%
G04 Gerber Fmt 4.5, Leading zero omitted, Abs format (unit mm)*
G04 Created by KiCad (PCBNEW 9.0.2) date 2025-06-18 13:56:50*
%MOMM*%
%LPD*%
G01*
G04 APERTURE LIST*
%ADD10C,0.050000*%
%ADD11C,0.200000*%
%ADD12C,0.180000*%
G04 APERTURE END LIST*
D10*
X19559378Y-9382553D02*
G75*
G02*
X18993693Y-9382553I-282843J0D01*
G01*
X18993693Y-9382553D02*
G75*
G02*
X19559378Y-9382553I282843J0D01*
G01*
X19950000Y-7950000D02*
X19950000Y-9550000D01*
X10150000Y-12750000D02*
G75*
G02*
X9950000Y-12550000I0J200000D01*
G01*
X9950000Y-6250000D02*
X9950000Y-7650000D01*
X9800000Y-11000000D02*
X9200000Y-11000000D01*
X9959576Y-9389203D02*
G75*
G02*
X9393890Y-9389203I-282843J0D01*
G01*
X9393890Y-9389203D02*
G75*
G02*
X9959576Y-9389203I282843J0D01*
G01*
X18832843Y-6500000D02*
G75*
G02*
X18267157Y-6500000I-282843J0D01*
G01*
X18267157Y-6500000D02*
G75*
G02*
X18832843Y-6500000I282843J0D01*
G01*
X19200000Y-7750000D02*
X19750000Y-7750000D01*
X9950000Y-7650000D02*
G75*
G02*
X9800000Y-7800000I-150000J0D01*
G01*
X19950000Y-9550000D02*
G75*
G02*
X19700000Y-9800000I-250000J0D01*
G01*
X9950000Y-6250000D02*
G75*
G02*
X10150000Y-6050000I200000J0D01*
G01*
X19750000Y-7750000D02*
G75*
G02*
X19950000Y-7950000I0J-200000D01*
G01*
X18496000Y-9270000D02*
G75*
G02*
X18236000Y-9270000I-130000J0D01*
G01*
X18236000Y-9270000D02*
G75*
G02*
X18496000Y-9270000I130000J0D01*
G01*
X9050000Y-7950000D02*
G75*
G02*
X9200000Y-7800000I150000J0D01*
G01*
X19700000Y-9800000D02*
X16300000Y-9800000D01*
X9050000Y-10850000D02*
X9050000Y-7950000D01*
X15900000Y-12750000D02*
X10150000Y-12750000D01*
X16100000Y-10000000D02*
X16100000Y-12550000D01*
X9200000Y-7800000D02*
X9800000Y-7800000D01*
X9200000Y-11000000D02*
G75*
G02*
X9050000Y-10850000I0J150000D01*
G01*
X10150000Y-6050000D02*
X18800000Y-6050000D01*
X16100000Y-12550000D02*
G75*
G02*
X15900000Y-12750000I-200000J0D01*
G01*
X9950000Y-11150000D02*
X9950000Y-12550000D01*
X10682843Y-6500000D02*
G75*
G02*
X10117157Y-6500000I-282843J0D01*
G01*
X10117157Y-6500000D02*
G75*
G02*
X10682843Y-6500000I282843J0D01*
G01*
X9800000Y-11000000D02*
G75*
G02*
X9950000Y-11150000I0J-150000D01*
G01*
X10669584Y-12287880D02*
G75*
G02*
X10106175Y-12287880I-281704J0D01*
G01*
X10106175Y-12287880D02*
G75*
G02*
X10669584Y-12287880I281704J0D01*
G01*
X19200000Y-7750000D02*
G75*
G02*
X19000000Y-7550000I0J200000D01*
G01*
X16466173Y-9265000D02*
G75*
G02*
X16205827Y-9265000I-130173J0D01*
G01*
X16205827Y-9265000D02*
G75*
G02*
X16466173Y-9265000I130173J0D01*
G01*
X16100000Y-10000000D02*
G75*
G02*
X16300000Y-9800000I200000J0D01*
G01*
X19000000Y-6250000D02*
X19000000Y-7550000D01*
X18800000Y-6050000D02*
G75*
G02*
X19000000Y-6250000I0J-200000D01*
G01*
D11*
D12*
X11463000Y-6563000D02*
X11643000Y-6743000D01*
X11643000Y-6563000D02*
X11463000Y-6743000D01*
X11463000Y-7463000D02*
X11643000Y-7643000D01*
X11643000Y-7463000D02*
X11463000Y-7643000D01*
X11463000Y-8113000D02*
X11643000Y-8293000D01*
X11643000Y-8113000D02*
X11463000Y-8293000D01*
X11463000Y-9013000D02*
X11643000Y-9193000D01*
X11643000Y-9013000D02*
X11463000Y-9193000D01*
D11*
X9308277Y-13063984D02*
X9308277Y-12863984D01*
X9308277Y-12863984D02*
X9355896Y-12863984D01*
X9355896Y-12863984D02*
X9384467Y-12873508D01*
X9384467Y-12873508D02*
X9403515Y-12892555D01*
X9403515Y-12892555D02*
X9413039Y-12911603D01*
X9413039Y-12911603D02*
X9422563Y-12949698D01*
X9422563Y-12949698D02*
X9422563Y-12978269D01*
X9422563Y-12978269D02*
X9413039Y-13016365D01*
X9413039Y-13016365D02*
X9403515Y-13035412D01*
X9403515Y-13035412D02*
X9384467Y-13054460D01*
X9384467Y-13054460D02*
X9355896Y-13063984D01*
X9355896Y-13063984D02*
X9308277Y-13063984D01*
X9508277Y-13063984D02*
X9508277Y-12930650D01*
X9508277Y-12968746D02*
X9517801Y-12949698D01*
X9517801Y-12949698D02*
X9527324Y-12940174D01*
X9527324Y-12940174D02*
X9546372Y-12930650D01*
X9546372Y-12930650D02*
X9565420Y-12930650D01*
X9632086Y-13063984D02*
X9632086Y-12930650D01*
X9632086Y-12863984D02*
X9622563Y-12873508D01*
X9622563Y-12873508D02*
X9632086Y-12883031D01*
X9632086Y-12883031D02*
X9641610Y-12873508D01*
X9641610Y-12873508D02*
X9632086Y-12863984D01*
X9632086Y-12863984D02*
X9632086Y-12883031D01*
X9755896Y-13063984D02*
X9736848Y-13054460D01*
X9736848Y-13054460D02*
X9727324Y-13035412D01*
X9727324Y-13035412D02*
X9727324Y-12863984D01*
X9860658Y-13063984D02*
X9841610Y-13054460D01*
X9841610Y-13054460D02*
X9832086Y-13035412D01*
X9832086Y-13035412D02*
X9832086Y-12863984D01*
X10089229Y-13063984D02*
X10089229Y-12863984D01*
X10089229Y-12863984D02*
X10155896Y-13006841D01*
X10155896Y-13006841D02*
X10222563Y-12863984D01*
X10222563Y-12863984D02*
X10222563Y-13063984D01*
X10403515Y-13063984D02*
X10403515Y-12959222D01*
X10403515Y-12959222D02*
X10393991Y-12940174D01*
X10393991Y-12940174D02*
X10374944Y-12930650D01*
X10374944Y-12930650D02*
X10336848Y-12930650D01*
X10336848Y-12930650D02*
X10317801Y-12940174D01*
X10403515Y-13054460D02*
X10384467Y-13063984D01*
X10384467Y-13063984D02*
X10336848Y-13063984D01*
X10336848Y-13063984D02*
X10317801Y-13054460D01*
X10317801Y-13054460D02*
X10308277Y-13035412D01*
X10308277Y-13035412D02*
X10308277Y-13016365D01*
X10308277Y-13016365D02*
X10317801Y-12997317D01*
X10317801Y-12997317D02*
X10336848Y-12987793D01*
X10336848Y-12987793D02*
X10384467Y-12987793D01*
X10384467Y-12987793D02*
X10403515Y-12978269D01*
X10498753Y-12930650D02*
X10498753Y-13130650D01*
X10498753Y-12940174D02*
X10517801Y-12930650D01*
X10517801Y-12930650D02*
X10555896Y-12930650D01*
X10555896Y-12930650D02*
X10574944Y-12940174D01*
X10574944Y-12940174D02*
X10584467Y-12949698D01*
X10584467Y-12949698D02*
X10593991Y-12968746D01*
X10593991Y-12968746D02*
X10593991Y-13025888D01*
X10593991Y-13025888D02*
X10584467Y-13044936D01*
X10584467Y-13044936D02*
X10574944Y-13054460D01*
X10574944Y-13054460D02*
X10555896Y-13063984D01*
X10555896Y-13063984D02*
X10517801Y-13063984D01*
X10517801Y-13063984D02*
X10498753Y-13054460D01*
X10679705Y-13044936D02*
X10689229Y-13054460D01*
X10689229Y-13054460D02*
X10679705Y-13063984D01*
X10679705Y-13063984D02*
X10670182Y-13054460D01*
X10670182Y-13054460D02*
X10679705Y-13044936D01*
X10679705Y-13044936D02*
X10679705Y-13063984D01*
X10679705Y-12940174D02*
X10689229Y-12949698D01*
X10689229Y-12949698D02*
X10679705Y-12959222D01*
X10679705Y-12959222D02*
X10670182Y-12949698D01*
X10670182Y-12949698D02*
X10679705Y-12940174D01*
X10679705Y-12940174D02*
X10679705Y-12959222D01*
D12*
X8867500Y-13302500D02*
X9047500Y-13482500D01*
X9047500Y-13302500D02*
X8867500Y-13482500D01*
D11*
X9413039Y-13483984D02*
X9298753Y-13483984D01*
X9355896Y-13483984D02*
X9355896Y-13283984D01*
X9355896Y-13283984D02*
X9336848Y-13312555D01*
X9336848Y-13312555D02*
X9317801Y-13331603D01*
X9317801Y-13331603D02*
X9298753Y-13341127D01*
X9498753Y-13464936D02*
X9508277Y-13474460D01*
X9508277Y-13474460D02*
X9498753Y-13483984D01*
X9498753Y-13483984D02*
X9489229Y-13474460D01*
X9489229Y-13474460D02*
X9498753Y-13464936D01*
X9498753Y-13464936D02*
X9498753Y-13483984D01*
X9622563Y-13369698D02*
X9603515Y-13360174D01*
X9603515Y-13360174D02*
X9593991Y-13350650D01*
X9593991Y-13350650D02*
X9584467Y-13331603D01*
X9584467Y-13331603D02*
X9584467Y-13322079D01*
X9584467Y-13322079D02*
X9593991Y-13303031D01*
X9593991Y-13303031D02*
X9603515Y-13293508D01*
X9603515Y-13293508D02*
X9622563Y-13283984D01*
X9622563Y-13283984D02*
X9660658Y-13283984D01*
X9660658Y-13283984D02*
X9679705Y-13293508D01*
X9679705Y-13293508D02*
X9689229Y-13303031D01*
X9689229Y-13303031D02*
X9698753Y-13322079D01*
X9698753Y-13322079D02*
X9698753Y-13331603D01*
X9698753Y-13331603D02*
X9689229Y-13350650D01*
X9689229Y-13350650D02*
X9679705Y-13360174D01*
X9679705Y-13360174D02*
X9660658Y-13369698D01*
X9660658Y-13369698D02*
X9622563Y-13369698D01*
X9622563Y-13369698D02*
X9603515Y-13379222D01*
X9603515Y-13379222D02*
X9593991Y-13388746D01*
X9593991Y-13388746D02*
X9584467Y-13407793D01*
X9584467Y-13407793D02*
X9584467Y-13445888D01*
X9584467Y-13445888D02*
X9593991Y-13464936D01*
X9593991Y-13464936D02*
X9603515Y-13474460D01*
X9603515Y-13474460D02*
X9622563Y-13483984D01*
X9622563Y-13483984D02*
X9660658Y-13483984D01*
X9660658Y-13483984D02*
X9679705Y-13474460D01*
X9679705Y-13474460D02*
X9689229Y-13464936D01*
X9689229Y-13464936D02*
X9698753Y-13445888D01*
X9698753Y-13445888D02*
X9698753Y-13407793D01*
X9698753Y-13407793D02*
X9689229Y-13388746D01*
X9689229Y-13388746D02*
X9679705Y-13379222D01*
X9679705Y-13379222D02*
X9660658Y-13369698D01*
X9822563Y-13283984D02*
X9841610Y-13283984D01*
X9841610Y-13283984D02*
X9860658Y-13293508D01*
X9860658Y-13293508D02*
X9870182Y-13303031D01*
X9870182Y-13303031D02*
X9879705Y-13322079D01*
X9879705Y-13322079D02*
X9889229Y-13360174D01*
X9889229Y-13360174D02*
X9889229Y-13407793D01*
X9889229Y-13407793D02*
X9879705Y-13445888D01*
X9879705Y-13445888D02*
X9870182Y-13464936D01*
X9870182Y-13464936D02*
X9860658Y-13474460D01*
X9860658Y-13474460D02*
X9841610Y-13483984D01*
X9841610Y-13483984D02*
X9822563Y-13483984D01*
X9822563Y-13483984D02*
X9803515Y-13474460D01*
X9803515Y-13474460D02*
X9793991Y-13464936D01*
X9793991Y-13464936D02*
X9784467Y-13445888D01*
X9784467Y-13445888D02*
X9774944Y-13407793D01*
X9774944Y-13407793D02*
X9774944Y-13360174D01*
X9774944Y-13360174D02*
X9784467Y-13322079D01*
X9784467Y-13322079D02*
X9793991Y-13303031D01*
X9793991Y-13303031D02*
X9803515Y-13293508D01*
X9803515Y-13293508D02*
X9822563Y-13283984D01*
X10013039Y-13283984D02*
X10032086Y-13283984D01*
X10032086Y-13283984D02*
X10051134Y-13293508D01*
X10051134Y-13293508D02*
X10060658Y-13303031D01*
X10060658Y-13303031D02*
X10070182Y-13322079D01*
X10070182Y-13322079D02*
X10079705Y-13360174D01*
X10079705Y-13360174D02*
X10079705Y-13407793D01*
X10079705Y-13407793D02*
X10070182Y-13445888D01*
X10070182Y-13445888D02*
X10060658Y-13464936D01*
X10060658Y-13464936D02*
X10051134Y-13474460D01*
X10051134Y-13474460D02*
X10032086Y-13483984D01*
X10032086Y-13483984D02*
X10013039Y-13483984D01*
X10013039Y-13483984D02*
X9993991Y-13474460D01*
X9993991Y-13474460D02*
X9984467Y-13464936D01*
X9984467Y-13464936D02*
X9974944Y-13445888D01*
X9974944Y-13445888D02*
X9965420Y-13407793D01*
X9965420Y-13407793D02*
X9965420Y-13360174D01*
X9965420Y-13360174D02*
X9974944Y-13322079D01*
X9974944Y-13322079D02*
X9984467Y-13303031D01*
X9984467Y-13303031D02*
X9993991Y-13293508D01*
X9993991Y-13293508D02*
X10013039Y-13283984D01*
X10165420Y-13483984D02*
X10165420Y-13350650D01*
X10165420Y-13369698D02*
X10174944Y-13360174D01*
X10174944Y-13360174D02*
X10193991Y-13350650D01*
X10193991Y-13350650D02*
X10222563Y-13350650D01*
X10222563Y-13350650D02*
X10241610Y-13360174D01*
X10241610Y-13360174D02*
X10251134Y-13379222D01*
X10251134Y-13379222D02*
X10251134Y-13483984D01*
X10251134Y-13379222D02*
X10260658Y-13360174D01*
X10260658Y-13360174D02*
X10279705Y-13350650D01*
X10279705Y-13350650D02*
X10308277Y-13350650D01*
X10308277Y-13350650D02*
X10327325Y-13360174D01*
X10327325Y-13360174D02*
X10336848Y-13379222D01*
X10336848Y-13379222D02*
X10336848Y-13483984D01*
X10432086Y-13483984D02*
X10432086Y-13350650D01*
X10432086Y-13369698D02*
X10441610Y-13360174D01*
X10441610Y-13360174D02*
X10460658Y-13350650D01*
X10460658Y-13350650D02*
X10489229Y-13350650D01*
X10489229Y-13350650D02*
X10508277Y-13360174D01*
X10508277Y-13360174D02*
X10517801Y-13379222D01*
X10517801Y-13379222D02*
X10517801Y-13483984D01*
X10517801Y-13379222D02*
X10527325Y-13360174D01*
X10527325Y-13360174D02*
X10546372Y-13350650D01*
X10546372Y-13350650D02*
X10574944Y-13350650D01*
X10574944Y-13350650D02*
X10593991Y-13360174D01*
X10593991Y-13360174D02*
X10603515Y-13379222D01*
X10603515Y-13379222D02*
X10603515Y-13483984D01*
X10993991Y-13274460D02*
X10822563Y-13531603D01*
X11251134Y-13283984D02*
X11270182Y-13283984D01*
X11270182Y-13283984D02*
X11289229Y-13293508D01*
X11289229Y-13293508D02*
X11298753Y-13303031D01*
X11298753Y-13303031D02*
X11308277Y-13322079D01*
X11308277Y-13322079D02*
X11317801Y-13360174D01*
X11317801Y-13360174D02*
X11317801Y-13407793D01*
X11317801Y-13407793D02*
X11308277Y-13445888D01*
X11308277Y-13445888D02*
X11298753Y-13464936D01*
X11298753Y-13464936D02*
X11289229Y-13474460D01*
X11289229Y-13474460D02*
X11270182Y-13483984D01*
X11270182Y-13483984D02*
X11251134Y-13483984D01*
X11251134Y-13483984D02*
X11232086Y-13474460D01*
X11232086Y-13474460D02*
X11222563Y-13464936D01*
X11222563Y-13464936D02*
X11213039Y-13445888D01*
X11213039Y-13445888D02*
X11203515Y-13407793D01*
X11203515Y-13407793D02*
X11203515Y-13360174D01*
X11203515Y-13360174D02*
X11213039Y-13322079D01*
X11213039Y-13322079D02*
X11222563Y-13303031D01*
X11222563Y-13303031D02*
X11232086Y-13293508D01*
X11232086Y-13293508D02*
X11251134Y-13283984D01*
X11403515Y-13464936D02*
X11413039Y-13474460D01*
X11413039Y-13474460D02*
X11403515Y-13483984D01*
X11403515Y-13483984D02*
X11393991Y-13474460D01*
X11393991Y-13474460D02*
X11403515Y-13464936D01*
X11403515Y-13464936D02*
X11403515Y-13483984D01*
X11536848Y-13283984D02*
X11555896Y-13283984D01*
X11555896Y-13283984D02*
X11574944Y-13293508D01*
X11574944Y-13293508D02*
X11584467Y-13303031D01*
X11584467Y-13303031D02*
X11593991Y-13322079D01*
X11593991Y-13322079D02*
X11603515Y-13360174D01*
X11603515Y-13360174D02*
X11603515Y-13407793D01*
X11603515Y-13407793D02*
X11593991Y-13445888D01*
X11593991Y-13445888D02*
X11584467Y-13464936D01*
X11584467Y-13464936D02*
X11574944Y-13474460D01*
X11574944Y-13474460D02*
X11555896Y-13483984D01*
X11555896Y-13483984D02*
X11536848Y-13483984D01*
X11536848Y-13483984D02*
X11517801Y-13474460D01*
X11517801Y-13474460D02*
X11508277Y-13464936D01*
X11508277Y-13464936D02*
X11498753Y-13445888D01*
X11498753Y-13445888D02*
X11489229Y-13407793D01*
X11489229Y-13407793D02*
X11489229Y-13360174D01*
X11489229Y-13360174D02*
X11498753Y-13322079D01*
X11498753Y-13322079D02*
X11508277Y-13303031D01*
X11508277Y-13303031D02*
X11517801Y-13293508D01*
X11517801Y-13293508D02*
X11536848Y-13283984D01*
X11670182Y-13283984D02*
X11803515Y-13283984D01*
X11803515Y-13283984D02*
X11717801Y-13483984D01*
X11917801Y-13283984D02*
X11936848Y-13283984D01*
X11936848Y-13283984D02*
X11955896Y-13293508D01*
X11955896Y-13293508D02*
X11965420Y-13303031D01*
X11965420Y-13303031D02*
X11974944Y-13322079D01*
X11974944Y-13322079D02*
X11984467Y-13360174D01*
X11984467Y-13360174D02*
X11984467Y-13407793D01*
X11984467Y-13407793D02*
X11974944Y-13445888D01*
X11974944Y-13445888D02*
X11965420Y-13464936D01*
X11965420Y-13464936D02*
X11955896Y-13474460D01*
X11955896Y-13474460D02*
X11936848Y-13483984D01*
X11936848Y-13483984D02*
X11917801Y-13483984D01*
X11917801Y-13483984D02*
X11898753Y-13474460D01*
X11898753Y-13474460D02*
X11889229Y-13464936D01*
X11889229Y-13464936D02*
X11879706Y-13445888D01*
X11879706Y-13445888D02*
X11870182Y-13407793D01*
X11870182Y-13407793D02*
X11870182Y-13360174D01*
X11870182Y-13360174D02*
X11879706Y-13322079D01*
X11879706Y-13322079D02*
X11889229Y-13303031D01*
X11889229Y-13303031D02*
X11898753Y-13293508D01*
X11898753Y-13293508D02*
X11917801Y-13283984D01*
X12079706Y-13483984D02*
X12117801Y-13483984D01*
X12117801Y-13483984D02*
X12136848Y-13474460D01*
X12136848Y-13474460D02*
X12146372Y-13464936D01*
X12146372Y-13464936D02*
X12165420Y-13436365D01*
X12165420Y-13436365D02*
X12174944Y-13398269D01*
X12174944Y-13398269D02*
X12174944Y-13322079D01*
X12174944Y-13322079D02*
X12165420Y-13303031D01*
X12165420Y-13303031D02*
X12155896Y-13293508D01*
X12155896Y-13293508D02*
X12136848Y-13283984D01*
X12136848Y-13283984D02*
X12098753Y-13283984D01*
X12098753Y-13283984D02*
X12079706Y-13293508D01*
X12079706Y-13293508D02*
X12070182Y-13303031D01*
X12070182Y-13303031D02*
X12060658Y-13322079D01*
X12060658Y-13322079D02*
X12060658Y-13369698D01*
X12060658Y-13369698D02*
X12070182Y-13388746D01*
X12070182Y-13388746D02*
X12079706Y-13398269D01*
X12079706Y-13398269D02*
X12098753Y-13407793D01*
X12098753Y-13407793D02*
X12136848Y-13407793D01*
X12136848Y-13407793D02*
X12155896Y-13398269D01*
X12155896Y-13398269D02*
X12165420Y-13388746D01*
X12165420Y-13388746D02*
X12174944Y-13369698D01*
X12251134Y-13283984D02*
X12251134Y-13322079D01*
X12327325Y-13283984D02*
X12327325Y-13322079D01*
X12622563Y-13560174D02*
X12613039Y-13550650D01*
X12613039Y-13550650D02*
X12593991Y-13522079D01*
X12593991Y-13522079D02*
X12584468Y-13503031D01*
X12584468Y-13503031D02*
X12574944Y-13474460D01*
X12574944Y-13474460D02*
X12565420Y-13426841D01*
X12565420Y-13426841D02*
X12565420Y-13388746D01*
X12565420Y-13388746D02*
X12574944Y-13341127D01*
X12574944Y-13341127D02*
X12584468Y-13312555D01*
X12584468Y-13312555D02*
X12593991Y-13293508D01*
X12593991Y-13293508D02*
X12613039Y-13264936D01*
X12613039Y-13264936D02*
X12622563Y-13255412D01*
X12784468Y-13350650D02*
X12784468Y-13483984D01*
X12736848Y-13274460D02*
X12689229Y-13417317D01*
X12689229Y-13417317D02*
X12813039Y-13417317D01*
X13041610Y-13483984D02*
X13041610Y-13283984D01*
X13127325Y-13483984D02*
X13127325Y-13379222D01*
X13127325Y-13379222D02*
X13117801Y-13360174D01*
X13117801Y-13360174D02*
X13098753Y-13350650D01*
X13098753Y-13350650D02*
X13070182Y-13350650D01*
X13070182Y-13350650D02*
X13051134Y-13360174D01*
X13051134Y-13360174D02*
X13041610Y-13369698D01*
X13251134Y-13483984D02*
X13232087Y-13474460D01*
X13232087Y-13474460D02*
X13222563Y-13464936D01*
X13222563Y-13464936D02*
X13213039Y-13445888D01*
X13213039Y-13445888D02*
X13213039Y-13388746D01*
X13213039Y-13388746D02*
X13222563Y-13369698D01*
X13222563Y-13369698D02*
X13232087Y-13360174D01*
X13232087Y-13360174D02*
X13251134Y-13350650D01*
X13251134Y-13350650D02*
X13279706Y-13350650D01*
X13279706Y-13350650D02*
X13298753Y-13360174D01*
X13298753Y-13360174D02*
X13308277Y-13369698D01*
X13308277Y-13369698D02*
X13317801Y-13388746D01*
X13317801Y-13388746D02*
X13317801Y-13445888D01*
X13317801Y-13445888D02*
X13308277Y-13464936D01*
X13308277Y-13464936D02*
X13298753Y-13474460D01*
X13298753Y-13474460D02*
X13279706Y-13483984D01*
X13279706Y-13483984D02*
X13251134Y-13483984D01*
X13432087Y-13483984D02*
X13413039Y-13474460D01*
X13413039Y-13474460D02*
X13403515Y-13455412D01*
X13403515Y-13455412D02*
X13403515Y-13283984D01*
X13584468Y-13474460D02*
X13565420Y-13483984D01*
X13565420Y-13483984D02*
X13527325Y-13483984D01*
X13527325Y-13483984D02*
X13508277Y-13474460D01*
X13508277Y-13474460D02*
X13498753Y-13455412D01*
X13498753Y-13455412D02*
X13498753Y-13379222D01*
X13498753Y-13379222D02*
X13508277Y-13360174D01*
X13508277Y-13360174D02*
X13527325Y-13350650D01*
X13527325Y-13350650D02*
X13565420Y-13350650D01*
X13565420Y-13350650D02*
X13584468Y-13360174D01*
X13584468Y-13360174D02*
X13593991Y-13379222D01*
X13593991Y-13379222D02*
X13593991Y-13398269D01*
X13593991Y-13398269D02*
X13498753Y-13417317D01*
X13670182Y-13474460D02*
X13689230Y-13483984D01*
X13689230Y-13483984D02*
X13727325Y-13483984D01*
X13727325Y-13483984D02*
X13746372Y-13474460D01*
X13746372Y-13474460D02*
X13755896Y-13455412D01*
X13755896Y-13455412D02*
X13755896Y-13445888D01*
X13755896Y-13445888D02*
X13746372Y-13426841D01*
X13746372Y-13426841D02*
X13727325Y-13417317D01*
X13727325Y-13417317D02*
X13698753Y-13417317D01*
X13698753Y-13417317D02*
X13679706Y-13407793D01*
X13679706Y-13407793D02*
X13670182Y-13388746D01*
X13670182Y-13388746D02*
X13670182Y-13379222D01*
X13670182Y-13379222D02*
X13679706Y-13360174D01*
X13679706Y-13360174D02*
X13698753Y-13350650D01*
X13698753Y-13350650D02*
X13727325Y-13350650D01*
X13727325Y-13350650D02*
X13746372Y-13360174D01*
X13822563Y-13560174D02*
X13832087Y-13550650D01*
X13832087Y-13550650D02*
X13851134Y-13522079D01*
X13851134Y-13522079D02*
X13860658Y-13503031D01*
X13860658Y-13503031D02*
X13870182Y-13474460D01*
X13870182Y-13474460D02*
X13879706Y-13426841D01*
X13879706Y-13426841D02*
X13879706Y-13388746D01*
X13879706Y-13388746D02*
X13870182Y-13341127D01*
X13870182Y-13341127D02*
X13860658Y-13312555D01*
X13860658Y-13312555D02*
X13851134Y-13293508D01*
X13851134Y-13293508D02*
X13832087Y-13264936D01*
X13832087Y-13264936D02*
X13822563Y-13255412D01*
X14184468Y-13560174D02*
X14174944Y-13550650D01*
X14174944Y-13550650D02*
X14155896Y-13522079D01*
X14155896Y-13522079D02*
X14146372Y-13503031D01*
X14146372Y-13503031D02*
X14136849Y-13474460D01*
X14136849Y-13474460D02*
X14127325Y-13426841D01*
X14127325Y-13426841D02*
X14127325Y-13388746D01*
X14127325Y-13388746D02*
X14136849Y-13341127D01*
X14136849Y-13341127D02*
X14146372Y-13312555D01*
X14146372Y-13312555D02*
X14155896Y-13293508D01*
X14155896Y-13293508D02*
X14174944Y-13264936D01*
X14174944Y-13264936D02*
X14184468Y-13255412D01*
X14260658Y-13350650D02*
X14260658Y-13483984D01*
X14260658Y-13369698D02*
X14270182Y-13360174D01*
X14270182Y-13360174D02*
X14289230Y-13350650D01*
X14289230Y-13350650D02*
X14317801Y-13350650D01*
X14317801Y-13350650D02*
X14336849Y-13360174D01*
X14336849Y-13360174D02*
X14346372Y-13379222D01*
X14346372Y-13379222D02*
X14346372Y-13483984D01*
X14470182Y-13483984D02*
X14451134Y-13474460D01*
X14451134Y-13474460D02*
X14441611Y-13464936D01*
X14441611Y-13464936D02*
X14432087Y-13445888D01*
X14432087Y-13445888D02*
X14432087Y-13388746D01*
X14432087Y-13388746D02*
X14441611Y-13369698D01*
X14441611Y-13369698D02*
X14451134Y-13360174D01*
X14451134Y-13360174D02*
X14470182Y-13350650D01*
X14470182Y-13350650D02*
X14498753Y-13350650D01*
X14498753Y-13350650D02*
X14517801Y-13360174D01*
X14517801Y-13360174D02*
X14527325Y-13369698D01*
X14527325Y-13369698D02*
X14536849Y-13388746D01*
X14536849Y-13388746D02*
X14536849Y-13445888D01*
X14536849Y-13445888D02*
X14527325Y-13464936D01*
X14527325Y-13464936D02*
X14517801Y-13474460D01*
X14517801Y-13474460D02*
X14498753Y-13483984D01*
X14498753Y-13483984D02*
X14470182Y-13483984D01*
X14593992Y-13350650D02*
X14670182Y-13350650D01*
X14622563Y-13283984D02*
X14622563Y-13455412D01*
X14622563Y-13455412D02*
X14632087Y-13474460D01*
X14632087Y-13474460D02*
X14651134Y-13483984D01*
X14651134Y-13483984D02*
X14670182Y-13483984D01*
X14889230Y-13350650D02*
X14889230Y-13550650D01*
X14889230Y-13360174D02*
X14908277Y-13350650D01*
X14908277Y-13350650D02*
X14946373Y-13350650D01*
X14946373Y-13350650D02*
X14965420Y-13360174D01*
X14965420Y-13360174D02*
X14974944Y-13369698D01*
X14974944Y-13369698D02*
X14984468Y-13388746D01*
X14984468Y-13388746D02*
X14984468Y-13445888D01*
X14984468Y-13445888D02*
X14974944Y-13464936D01*
X14974944Y-13464936D02*
X14965420Y-13474460D01*
X14965420Y-13474460D02*
X14946373Y-13483984D01*
X14946373Y-13483984D02*
X14908277Y-13483984D01*
X14908277Y-13483984D02*
X14889230Y-13474460D01*
X15098753Y-13483984D02*
X15079706Y-13474460D01*
X15079706Y-13474460D02*
X15070182Y-13455412D01*
X15070182Y-13455412D02*
X15070182Y-13283984D01*
X15260658Y-13483984D02*
X15260658Y-13379222D01*
X15260658Y-13379222D02*
X15251134Y-13360174D01*
X15251134Y-13360174D02*
X15232087Y-13350650D01*
X15232087Y-13350650D02*
X15193992Y-13350650D01*
X15193992Y-13350650D02*
X15174944Y-13360174D01*
X15260658Y-13474460D02*
X15241611Y-13483984D01*
X15241611Y-13483984D02*
X15193992Y-13483984D01*
X15193992Y-13483984D02*
X15174944Y-13474460D01*
X15174944Y-13474460D02*
X15165420Y-13455412D01*
X15165420Y-13455412D02*
X15165420Y-13436365D01*
X15165420Y-13436365D02*
X15174944Y-13417317D01*
X15174944Y-13417317D02*
X15193992Y-13407793D01*
X15193992Y-13407793D02*
X15241611Y-13407793D01*
X15241611Y-13407793D02*
X15260658Y-13398269D01*
X15327325Y-13350650D02*
X15403515Y-13350650D01*
X15355896Y-13283984D02*
X15355896Y-13455412D01*
X15355896Y-13455412D02*
X15365420Y-13474460D01*
X15365420Y-13474460D02*
X15384468Y-13483984D01*
X15384468Y-13483984D02*
X15403515Y-13483984D01*
X15546373Y-13474460D02*
X15527325Y-13483984D01*
X15527325Y-13483984D02*
X15489230Y-13483984D01*
X15489230Y-13483984D02*
X15470182Y-13474460D01*
X15470182Y-13474460D02*
X15460658Y-13455412D01*
X15460658Y-13455412D02*
X15460658Y-13379222D01*
X15460658Y-13379222D02*
X15470182Y-13360174D01*
X15470182Y-13360174D02*
X15489230Y-13350650D01*
X15489230Y-13350650D02*
X15527325Y-13350650D01*
X15527325Y-13350650D02*
X15546373Y-13360174D01*
X15546373Y-13360174D02*
X15555896Y-13379222D01*
X15555896Y-13379222D02*
X15555896Y-13398269D01*
X15555896Y-13398269D02*
X15460658Y-13417317D01*
X15727325Y-13483984D02*
X15727325Y-13283984D01*
X15727325Y-13474460D02*
X15708277Y-13483984D01*
X15708277Y-13483984D02*
X15670182Y-13483984D01*
X15670182Y-13483984D02*
X15651134Y-13474460D01*
X15651134Y-13474460D02*
X15641611Y-13464936D01*
X15641611Y-13464936D02*
X15632087Y-13445888D01*
X15632087Y-13445888D02*
X15632087Y-13388746D01*
X15632087Y-13388746D02*
X15641611Y-13369698D01*
X15641611Y-13369698D02*
X15651134Y-13360174D01*
X15651134Y-13360174D02*
X15670182Y-13350650D01*
X15670182Y-13350650D02*
X15708277Y-13350650D01*
X15708277Y-13350650D02*
X15727325Y-13360174D01*
X15803515Y-13560174D02*
X15813039Y-13550650D01*
X15813039Y-13550650D02*
X15832087Y-13522079D01*
X15832087Y-13522079D02*
X15841611Y-13503031D01*
X15841611Y-13503031D02*
X15851134Y-13474460D01*
X15851134Y-13474460D02*
X15860658Y-13426841D01*
X15860658Y-13426841D02*
X15860658Y-13388746D01*
X15860658Y-13388746D02*
X15851134Y-13341127D01*
X15851134Y-13341127D02*
X15841611Y-13312555D01*
X15841611Y-13312555D02*
X15832087Y-13293508D01*
X15832087Y-13293508D02*
X15813039Y-13264936D01*
X15813039Y-13264936D02*
X15803515Y-13255412D01*
M02*
