%TF.GenerationSoftware,KiCad,Pcbnew,9.0.2*%
%TF.CreationDate,2025-06-18T13:56:50-05:00*%
%TF.ProjectId,Quake_PCB_3,5175616b-655f-4504-9342-5f332e6b6963,rev?*%
%TF.SameCoordinates,Original*%
%TF.FileFunction,Drillmap*%
%TF.FilePolarity,Positive*%
%FSLAX45Y45*%
G04 Gerber Fmt 4.5, Leading zero omitted, Abs format (unit mm)*
G04 Created by KiCad (PCBNEW 9.0.2) date 2025-06-18 13:56:50*
%MOMM*%
%LPD*%
G01*
G04 APERTURE LIST*
%ADD10C,0.050000*%
%ADD11C,0.200000*%
%ADD12C,0.100000*%
%ADD13C,0.120000*%
G04 APERTURE END LIST*
D10*
X19559378Y-9382553D02*
G75*
G02*
X18993693Y-9382553I-282843J0D01*
G01*
X18993693Y-9382553D02*
G75*
G02*
X19559378Y-9382553I282843J0D01*
G01*
X19950000Y-7950000D02*
X19950000Y-9550000D01*
X10150000Y-12750000D02*
G75*
G02*
X9950000Y-12550000I0J200000D01*
G01*
X9950000Y-6250000D02*
X9950000Y-7650000D01*
X9800000Y-11000000D02*
X9200000Y-11000000D01*
X9959576Y-9389203D02*
G75*
G02*
X9393890Y-9389203I-282843J0D01*
G01*
X9393890Y-9389203D02*
G75*
G02*
X9959576Y-9389203I282843J0D01*
G01*
X18832843Y-6500000D02*
G75*
G02*
X18267157Y-6500000I-282843J0D01*
G01*
X18267157Y-6500000D02*
G75*
G02*
X18832843Y-6500000I282843J0D01*
G01*
X19200000Y-7750000D02*
X19750000Y-7750000D01*
X9950000Y-7650000D02*
G75*
G02*
X9800000Y-7800000I-150000J0D01*
G01*
X19950000Y-9550000D02*
G75*
G02*
X19700000Y-9800000I-250000J0D01*
G01*
X9950000Y-6250000D02*
G75*
G02*
X10150000Y-6050000I200000J0D01*
G01*
X19750000Y-7750000D02*
G75*
G02*
X19950000Y-7950000I0J-200000D01*
G01*
X18496000Y-9270000D02*
G75*
G02*
X18236000Y-9270000I-130000J0D01*
G01*
X18236000Y-9270000D02*
G75*
G02*
X18496000Y-9270000I130000J0D01*
G01*
X9050000Y-7950000D02*
G75*
G02*
X9200000Y-7800000I150000J0D01*
G01*
X19700000Y-9800000D02*
X16300000Y-9800000D01*
X9050000Y-10850000D02*
X9050000Y-7950000D01*
X15900000Y-12750000D02*
X10150000Y-12750000D01*
X16100000Y-10000000D02*
X16100000Y-12550000D01*
X9200000Y-7800000D02*
X9800000Y-7800000D01*
X9200000Y-11000000D02*
G75*
G02*
X9050000Y-10850000I0J150000D01*
G01*
X10150000Y-6050000D02*
X18800000Y-6050000D01*
X16100000Y-12550000D02*
G75*
G02*
X15900000Y-12750000I-200000J0D01*
G01*
X9950000Y-11150000D02*
X9950000Y-12550000D01*
X10682843Y-6500000D02*
G75*
G02*
X10117157Y-6500000I-282843J0D01*
G01*
X10117157Y-6500000D02*
G75*
G02*
X10682843Y-6500000I282843J0D01*
G01*
X9800000Y-11000000D02*
G75*
G02*
X9950000Y-11150000I0J-150000D01*
G01*
X10669584Y-12287880D02*
G75*
G02*
X10106175Y-12287880I-281704J0D01*
G01*
X10106175Y-12287880D02*
G75*
G02*
X10669584Y-12287880I281704J0D01*
G01*
X19200000Y-7750000D02*
G75*
G02*
X19000000Y-7550000I0J200000D01*
G01*
X16466173Y-9265000D02*
G75*
G02*
X16205827Y-9265000I-130173J0D01*
G01*
X16205827Y-9265000D02*
G75*
G02*
X16466173Y-9265000I130173J0D01*
G01*
X16100000Y-10000000D02*
G75*
G02*
X16300000Y-9800000I200000J0D01*
G01*
X19000000Y-6250000D02*
X19000000Y-7550000D01*
X18800000Y-6050000D02*
G75*
G02*
X19000000Y-6250000I0J-200000D01*
G01*
D11*
D12*
X13357210Y-6921710D02*
X13387210Y-6951710D01*
X13387210Y-6921710D02*
X13357210Y-6951710D01*
X13875120Y-6657120D02*
X13905120Y-6687120D01*
X13905120Y-6657120D02*
X13875120Y-6687120D01*
X14765000Y-7351280D02*
X14795000Y-7381280D01*
X14795000Y-7351280D02*
X14765000Y-7381280D01*
X15141040Y-7820050D02*
X15171040Y-7850050D01*
X15171040Y-7820050D02*
X15141040Y-7850050D01*
X17141350Y-7749580D02*
X17171350Y-7779580D01*
X17171350Y-7749580D02*
X17141350Y-7779580D01*
X12913000Y-6672000D02*
G75*
G02*
X12843000Y-6672000I-35000J0D01*
G01*
X12843000Y-6672000D02*
G75*
G02*
X12913000Y-6672000I35000J0D01*
G01*
X12913000Y-7434000D02*
G75*
G02*
X12843000Y-7434000I-35000J0D01*
G01*
X12843000Y-7434000D02*
G75*
G02*
X12913000Y-7434000I35000J0D01*
G01*
X14254000Y-8750000D02*
G75*
G02*
X14184000Y-8750000I-35000J0D01*
G01*
X14184000Y-8750000D02*
G75*
G02*
X14254000Y-8750000I35000J0D01*
G01*
X14273000Y-7950000D02*
G75*
G02*
X14203000Y-7950000I-35000J0D01*
G01*
X14203000Y-7950000D02*
G75*
G02*
X14273000Y-7950000I35000J0D01*
G01*
X15016000Y-8750000D02*
G75*
G02*
X14946000Y-8750000I-35000J0D01*
G01*
X14946000Y-8750000D02*
G75*
G02*
X15016000Y-8750000I35000J0D01*
G01*
X15035000Y-7950000D02*
G75*
G02*
X14965000Y-7950000I-35000J0D01*
G01*
X14965000Y-7950000D02*
G75*
G02*
X15035000Y-7950000I35000J0D01*
G01*
X13522500Y-7905000D02*
X13522500Y-7995000D01*
X13477500Y-7950000D02*
X13567500Y-7950000D01*
X13522500Y-8708000D02*
X13522500Y-8798000D01*
X13477500Y-8753000D02*
X13567500Y-8753000D01*
X13776500Y-7905000D02*
X13776500Y-7995000D01*
X13731500Y-7950000D02*
X13821500Y-7950000D01*
X13776500Y-8708000D02*
X13776500Y-8798000D01*
X13731500Y-8753000D02*
X13821500Y-8753000D01*
X11487356Y-9785356D02*
X11487356Y-9714644D01*
X11416644Y-9714644D01*
X11416644Y-9785356D01*
X11487356Y-9785356D01*
X11487356Y-11815356D02*
X11487356Y-11744644D01*
X11416644Y-11744644D01*
X11416644Y-11815356D01*
X11487356Y-11815356D01*
X11741356Y-9785356D02*
X11741356Y-9714644D01*
X11670644Y-9714644D01*
X11670644Y-9785356D01*
X11741356Y-9785356D01*
X11741356Y-11815356D02*
X11741356Y-11744644D01*
X11670644Y-11744644D01*
X11670644Y-11815356D01*
X11741356Y-11815356D01*
X11995356Y-9785356D02*
X11995356Y-9714644D01*
X11924644Y-9714644D01*
X11924644Y-9785356D01*
X11995356Y-9785356D01*
X11995356Y-11815356D02*
X11995356Y-11744644D01*
X11924644Y-11744644D01*
X11924644Y-11815356D01*
X11995356Y-11815356D01*
X12249356Y-9785356D02*
X12249356Y-9714644D01*
X12178644Y-9714644D01*
X12178644Y-9785356D01*
X12249356Y-9785356D01*
X12249356Y-11815356D02*
X12249356Y-11744644D01*
X12178644Y-11744644D01*
X12178644Y-11815356D01*
X12249356Y-11815356D01*
X12503356Y-9785356D02*
X12503356Y-9714644D01*
X12432644Y-9714644D01*
X12432644Y-9785356D01*
X12503356Y-9785356D01*
X12503356Y-11815356D02*
X12503356Y-11744644D01*
X12432644Y-11744644D01*
X12432644Y-11815356D01*
X12503356Y-11815356D01*
X12757356Y-9785356D02*
X12757356Y-9714644D01*
X12686644Y-9714644D01*
X12686644Y-9785356D01*
X12757356Y-9785356D01*
X12757356Y-11815356D02*
X12757356Y-11744644D01*
X12686644Y-11744644D01*
X12686644Y-11815356D01*
X12757356Y-11815356D01*
X12914356Y-8284356D02*
X12914356Y-8213644D01*
X12843644Y-8213644D01*
X12843644Y-8284356D01*
X12914356Y-8284356D01*
X12914356Y-8538356D02*
X12914356Y-8467644D01*
X12843644Y-8467644D01*
X12843644Y-8538356D01*
X12914356Y-8538356D01*
X13011356Y-9785356D02*
X13011356Y-9714644D01*
X12940644Y-9714644D01*
X12940644Y-9785356D01*
X13011356Y-9785356D01*
X13011356Y-11815356D02*
X13011356Y-11744644D01*
X12940644Y-11744644D01*
X12940644Y-11815356D01*
X13011356Y-11815356D01*
X13265356Y-9785356D02*
X13265356Y-9714644D01*
X13194644Y-9714644D01*
X13194644Y-9785356D01*
X13265356Y-9785356D01*
X13265356Y-11815356D02*
X13265356Y-11744644D01*
X13194644Y-11744644D01*
X13194644Y-11815356D01*
X13265356Y-11815356D01*
X13519356Y-9785356D02*
X13519356Y-9714644D01*
X13448644Y-9714644D01*
X13448644Y-9785356D01*
X13519356Y-9785356D01*
X13519356Y-11815356D02*
X13519356Y-11744644D01*
X13448644Y-11744644D01*
X13448644Y-11815356D01*
X13519356Y-11815356D01*
X13555356Y-6881356D02*
X13555356Y-6810644D01*
X13484644Y-6810644D01*
X13484644Y-6881356D01*
X13555356Y-6881356D01*
X13555356Y-7135356D02*
X13555356Y-7064644D01*
X13484644Y-7064644D01*
X13484644Y-7135356D01*
X13555356Y-7135356D01*
X13773356Y-9785356D02*
X13773356Y-9714644D01*
X13702644Y-9714644D01*
X13702644Y-9785356D01*
X13773356Y-9785356D01*
X13773356Y-11815356D02*
X13773356Y-11744644D01*
X13702644Y-11744644D01*
X13702644Y-11815356D01*
X13773356Y-11815356D01*
X13809356Y-6881356D02*
X13809356Y-6810644D01*
X13738644Y-6810644D01*
X13738644Y-6881356D01*
X13809356Y-6881356D01*
X13809356Y-7135356D02*
X13809356Y-7064644D01*
X13738644Y-7064644D01*
X13738644Y-7135356D01*
X13809356Y-7135356D01*
X14027356Y-9785356D02*
X14027356Y-9714644D01*
X13956644Y-9714644D01*
X13956644Y-9785356D01*
X14027356Y-9785356D01*
X14027356Y-11815356D02*
X14027356Y-11744644D01*
X13956644Y-11744644D01*
X13956644Y-11815356D01*
X14027356Y-11815356D01*
X14063356Y-6881356D02*
X14063356Y-6810644D01*
X13992644Y-6810644D01*
X13992644Y-6881356D01*
X14063356Y-6881356D01*
X14063356Y-7135356D02*
X14063356Y-7064644D01*
X13992644Y-7064644D01*
X13992644Y-7135356D01*
X14063356Y-7135356D01*
X14281356Y-9785356D02*
X14281356Y-9714644D01*
X14210644Y-9714644D01*
X14210644Y-9785356D01*
X14281356Y-9785356D01*
X14281356Y-11815356D02*
X14281356Y-11744644D01*
X14210644Y-11744644D01*
X14210644Y-11815356D01*
X14281356Y-11815356D01*
X14535356Y-9785356D02*
X14535356Y-9714644D01*
X14464644Y-9714644D01*
X14464644Y-9785356D01*
X14535356Y-9785356D01*
X14789356Y-9785356D02*
X14789356Y-9714644D01*
X14718644Y-9714644D01*
X14718644Y-9785356D01*
X14789356Y-9785356D01*
X14815356Y-6877356D02*
X14815356Y-6806644D01*
X14744644Y-6806644D01*
X14744644Y-6877356D01*
X14815356Y-6877356D01*
X14815356Y-7131356D02*
X14815356Y-7060644D01*
X14744644Y-7060644D01*
X14744644Y-7131356D01*
X14815356Y-7131356D01*
X15043356Y-9785356D02*
X15043356Y-9714644D01*
X14972644Y-9714644D01*
X14972644Y-9785356D01*
X15043356Y-9785356D01*
X15069356Y-6877356D02*
X15069356Y-6806644D01*
X14998644Y-6806644D01*
X14998644Y-6877356D01*
X15069356Y-6877356D01*
X15069356Y-7131356D02*
X15069356Y-7060644D01*
X14998644Y-7060644D01*
X14998644Y-7131356D01*
X15069356Y-7131356D01*
X15297356Y-9785356D02*
X15297356Y-9714644D01*
X15226644Y-9714644D01*
X15226644Y-9785356D01*
X15297356Y-9785356D01*
X15323356Y-6877356D02*
X15323356Y-6806644D01*
X15252644Y-6806644D01*
X15252644Y-6877356D01*
X15323356Y-6877356D01*
X15323356Y-7131356D02*
X15323356Y-7060644D01*
X15252644Y-7060644D01*
X15252644Y-7131356D01*
X15323356Y-7131356D01*
X16371356Y-7525356D02*
X16371356Y-7454644D01*
X16300644Y-7454644D01*
X16300644Y-7525356D01*
X16371356Y-7525356D01*
X16625356Y-7525356D02*
X16625356Y-7454644D01*
X16554644Y-7454644D01*
X16554644Y-7525356D01*
X16625356Y-7525356D01*
X16879356Y-7525356D02*
X16879356Y-7454644D01*
X16808644Y-7454644D01*
X16808644Y-7525356D01*
X16879356Y-7525356D01*
X17133356Y-7525356D02*
X17133356Y-7454644D01*
X17062644Y-7454644D01*
X17062644Y-7525356D01*
X17133356Y-7525356D01*
X17387356Y-7525356D02*
X17387356Y-7454644D01*
X17316644Y-7454644D01*
X17316644Y-7525356D01*
X17387356Y-7525356D01*
X17641356Y-7525356D02*
X17641356Y-7454644D01*
X17570644Y-7454644D01*
X17570644Y-7525356D01*
X17641356Y-7525356D01*
X17895356Y-7525356D02*
X17895356Y-7454644D01*
X17824644Y-7454644D01*
X17824644Y-7525356D01*
X17895356Y-7525356D01*
X18149356Y-7525356D02*
X18149356Y-7454644D01*
X18078644Y-7454644D01*
X18078644Y-7525356D01*
X18149356Y-7525356D01*
X18403356Y-7525356D02*
X18403356Y-7454644D01*
X18332644Y-7454644D01*
X18332644Y-7525356D01*
X18403356Y-7525356D01*
D13*
X10928000Y-6913000D02*
X10988000Y-6853000D01*
X10928000Y-6793000D01*
X10868000Y-6853000D01*
X10928000Y-6913000D01*
X10928000Y-7413000D02*
X10988000Y-7353000D01*
X10928000Y-7293000D01*
X10868000Y-7353000D01*
X10928000Y-7413000D01*
X10928000Y-8463000D02*
X10988000Y-8403000D01*
X10928000Y-8343000D01*
X10868000Y-8403000D01*
X10928000Y-8463000D01*
X10928000Y-8963000D02*
X10988000Y-8903000D01*
X10928000Y-8843000D01*
X10868000Y-8903000D01*
X10928000Y-8963000D01*
X12178000Y-6913000D02*
X12238000Y-6853000D01*
X12178000Y-6793000D01*
X12118000Y-6853000D01*
X12178000Y-6913000D01*
X12178000Y-7413000D02*
X12238000Y-7353000D01*
X12178000Y-7293000D01*
X12118000Y-7353000D01*
X12178000Y-7413000D01*
X12178000Y-8463000D02*
X12238000Y-8403000D01*
X12178000Y-8343000D01*
X12118000Y-8403000D01*
X12178000Y-8463000D01*
X12178000Y-8963000D02*
X12238000Y-8903000D01*
X12178000Y-8843000D01*
X12118000Y-8903000D01*
X12178000Y-8963000D01*
D11*
X9308277Y-13063984D02*
X9308277Y-12863984D01*
X9308277Y-12863984D02*
X9355896Y-12863984D01*
X9355896Y-12863984D02*
X9384467Y-12873508D01*
X9384467Y-12873508D02*
X9403515Y-12892555D01*
X9403515Y-12892555D02*
X9413039Y-12911603D01*
X9413039Y-12911603D02*
X9422563Y-12949698D01*
X9422563Y-12949698D02*
X9422563Y-12978269D01*
X9422563Y-12978269D02*
X9413039Y-13016365D01*
X9413039Y-13016365D02*
X9403515Y-13035412D01*
X9403515Y-13035412D02*
X9384467Y-13054460D01*
X9384467Y-13054460D02*
X9355896Y-13063984D01*
X9355896Y-13063984D02*
X9308277Y-13063984D01*
X9508277Y-13063984D02*
X9508277Y-12930650D01*
X9508277Y-12968746D02*
X9517801Y-12949698D01*
X9517801Y-12949698D02*
X9527324Y-12940174D01*
X9527324Y-12940174D02*
X9546372Y-12930650D01*
X9546372Y-12930650D02*
X9565420Y-12930650D01*
X9632086Y-13063984D02*
X9632086Y-12930650D01*
X9632086Y-12863984D02*
X9622563Y-12873508D01*
X9622563Y-12873508D02*
X9632086Y-12883031D01*
X9632086Y-12883031D02*
X9641610Y-12873508D01*
X9641610Y-12873508D02*
X9632086Y-12863984D01*
X9632086Y-12863984D02*
X9632086Y-12883031D01*
X9755896Y-13063984D02*
X9736848Y-13054460D01*
X9736848Y-13054460D02*
X9727324Y-13035412D01*
X9727324Y-13035412D02*
X9727324Y-12863984D01*
X9860658Y-13063984D02*
X9841610Y-13054460D01*
X9841610Y-13054460D02*
X9832086Y-13035412D01*
X9832086Y-13035412D02*
X9832086Y-12863984D01*
X10089229Y-13063984D02*
X10089229Y-12863984D01*
X10089229Y-12863984D02*
X10155896Y-13006841D01*
X10155896Y-13006841D02*
X10222563Y-12863984D01*
X10222563Y-12863984D02*
X10222563Y-13063984D01*
X10403515Y-13063984D02*
X10403515Y-12959222D01*
X10403515Y-12959222D02*
X10393991Y-12940174D01*
X10393991Y-12940174D02*
X10374944Y-12930650D01*
X10374944Y-12930650D02*
X10336848Y-12930650D01*
X10336848Y-12930650D02*
X10317801Y-12940174D01*
X10403515Y-13054460D02*
X10384467Y-13063984D01*
X10384467Y-13063984D02*
X10336848Y-13063984D01*
X10336848Y-13063984D02*
X10317801Y-13054460D01*
X10317801Y-13054460D02*
X10308277Y-13035412D01*
X10308277Y-13035412D02*
X10308277Y-13016365D01*
X10308277Y-13016365D02*
X10317801Y-12997317D01*
X10317801Y-12997317D02*
X10336848Y-12987793D01*
X10336848Y-12987793D02*
X10384467Y-12987793D01*
X10384467Y-12987793D02*
X10403515Y-12978269D01*
X10498753Y-12930650D02*
X10498753Y-13130650D01*
X10498753Y-12940174D02*
X10517801Y-12930650D01*
X10517801Y-12930650D02*
X10555896Y-12930650D01*
X10555896Y-12930650D02*
X10574944Y-12940174D01*
X10574944Y-12940174D02*
X10584467Y-12949698D01*
X10584467Y-12949698D02*
X10593991Y-12968746D01*
X10593991Y-12968746D02*
X10593991Y-13025888D01*
X10593991Y-13025888D02*
X10584467Y-13044936D01*
X10584467Y-13044936D02*
X10574944Y-13054460D01*
X10574944Y-13054460D02*
X10555896Y-13063984D01*
X10555896Y-13063984D02*
X10517801Y-13063984D01*
X10517801Y-13063984D02*
X10498753Y-13054460D01*
X10679705Y-13044936D02*
X10689229Y-13054460D01*
X10689229Y-13054460D02*
X10679705Y-13063984D01*
X10679705Y-13063984D02*
X10670182Y-13054460D01*
X10670182Y-13054460D02*
X10679705Y-13044936D01*
X10679705Y-13044936D02*
X10679705Y-13063984D01*
X10679705Y-12940174D02*
X10689229Y-12949698D01*
X10689229Y-12949698D02*
X10679705Y-12959222D01*
X10679705Y-12959222D02*
X10670182Y-12949698D01*
X10670182Y-12949698D02*
X10679705Y-12940174D01*
X10679705Y-12940174D02*
X10679705Y-12959222D01*
D12*
X9017500Y-13377500D02*
X9047500Y-13407500D01*
X9047500Y-13377500D02*
X9017500Y-13407500D01*
D11*
X9346372Y-13283984D02*
X9365420Y-13283984D01*
X9365420Y-13283984D02*
X9384467Y-13293508D01*
X9384467Y-13293508D02*
X9393991Y-13303031D01*
X9393991Y-13303031D02*
X9403515Y-13322079D01*
X9403515Y-13322079D02*
X9413039Y-13360174D01*
X9413039Y-13360174D02*
X9413039Y-13407793D01*
X9413039Y-13407793D02*
X9403515Y-13445888D01*
X9403515Y-13445888D02*
X9393991Y-13464936D01*
X9393991Y-13464936D02*
X9384467Y-13474460D01*
X9384467Y-13474460D02*
X9365420Y-13483984D01*
X9365420Y-13483984D02*
X9346372Y-13483984D01*
X9346372Y-13483984D02*
X9327324Y-13474460D01*
X9327324Y-13474460D02*
X9317801Y-13464936D01*
X9317801Y-13464936D02*
X9308277Y-13445888D01*
X9308277Y-13445888D02*
X9298753Y-13407793D01*
X9298753Y-13407793D02*
X9298753Y-13360174D01*
X9298753Y-13360174D02*
X9308277Y-13322079D01*
X9308277Y-13322079D02*
X9317801Y-13303031D01*
X9317801Y-13303031D02*
X9327324Y-13293508D01*
X9327324Y-13293508D02*
X9346372Y-13283984D01*
X9498753Y-13464936D02*
X9508277Y-13474460D01*
X9508277Y-13474460D02*
X9498753Y-13483984D01*
X9498753Y-13483984D02*
X9489229Y-13474460D01*
X9489229Y-13474460D02*
X9498753Y-13464936D01*
X9498753Y-13464936D02*
X9498753Y-13483984D01*
X9574944Y-13283984D02*
X9698753Y-13283984D01*
X9698753Y-13283984D02*
X9632086Y-13360174D01*
X9632086Y-13360174D02*
X9660658Y-13360174D01*
X9660658Y-13360174D02*
X9679705Y-13369698D01*
X9679705Y-13369698D02*
X9689229Y-13379222D01*
X9689229Y-13379222D02*
X9698753Y-13398269D01*
X9698753Y-13398269D02*
X9698753Y-13445888D01*
X9698753Y-13445888D02*
X9689229Y-13464936D01*
X9689229Y-13464936D02*
X9679705Y-13474460D01*
X9679705Y-13474460D02*
X9660658Y-13483984D01*
X9660658Y-13483984D02*
X9603515Y-13483984D01*
X9603515Y-13483984D02*
X9584467Y-13474460D01*
X9584467Y-13474460D02*
X9574944Y-13464936D01*
X9822563Y-13283984D02*
X9841610Y-13283984D01*
X9841610Y-13283984D02*
X9860658Y-13293508D01*
X9860658Y-13293508D02*
X9870182Y-13303031D01*
X9870182Y-13303031D02*
X9879705Y-13322079D01*
X9879705Y-13322079D02*
X9889229Y-13360174D01*
X9889229Y-13360174D02*
X9889229Y-13407793D01*
X9889229Y-13407793D02*
X9879705Y-13445888D01*
X9879705Y-13445888D02*
X9870182Y-13464936D01*
X9870182Y-13464936D02*
X9860658Y-13474460D01*
X9860658Y-13474460D02*
X9841610Y-13483984D01*
X9841610Y-13483984D02*
X9822563Y-13483984D01*
X9822563Y-13483984D02*
X9803515Y-13474460D01*
X9803515Y-13474460D02*
X9793991Y-13464936D01*
X9793991Y-13464936D02*
X9784467Y-13445888D01*
X9784467Y-13445888D02*
X9774944Y-13407793D01*
X9774944Y-13407793D02*
X9774944Y-13360174D01*
X9774944Y-13360174D02*
X9784467Y-13322079D01*
X9784467Y-13322079D02*
X9793991Y-13303031D01*
X9793991Y-13303031D02*
X9803515Y-13293508D01*
X9803515Y-13293508D02*
X9822563Y-13283984D01*
X10013039Y-13283984D02*
X10032086Y-13283984D01*
X10032086Y-13283984D02*
X10051134Y-13293508D01*
X10051134Y-13293508D02*
X10060658Y-13303031D01*
X10060658Y-13303031D02*
X10070182Y-13322079D01*
X10070182Y-13322079D02*
X10079705Y-13360174D01*
X10079705Y-13360174D02*
X10079705Y-13407793D01*
X10079705Y-13407793D02*
X10070182Y-13445888D01*
X10070182Y-13445888D02*
X10060658Y-13464936D01*
X10060658Y-13464936D02*
X10051134Y-13474460D01*
X10051134Y-13474460D02*
X10032086Y-13483984D01*
X10032086Y-13483984D02*
X10013039Y-13483984D01*
X10013039Y-13483984D02*
X9993991Y-13474460D01*
X9993991Y-13474460D02*
X9984467Y-13464936D01*
X9984467Y-13464936D02*
X9974944Y-13445888D01*
X9974944Y-13445888D02*
X9965420Y-13407793D01*
X9965420Y-13407793D02*
X9965420Y-13360174D01*
X9965420Y-13360174D02*
X9974944Y-13322079D01*
X9974944Y-13322079D02*
X9984467Y-13303031D01*
X9984467Y-13303031D02*
X9993991Y-13293508D01*
X9993991Y-13293508D02*
X10013039Y-13283984D01*
X10165420Y-13483984D02*
X10165420Y-13350650D01*
X10165420Y-13369698D02*
X10174944Y-13360174D01*
X10174944Y-13360174D02*
X10193991Y-13350650D01*
X10193991Y-13350650D02*
X10222563Y-13350650D01*
X10222563Y-13350650D02*
X10241610Y-13360174D01*
X10241610Y-13360174D02*
X10251134Y-13379222D01*
X10251134Y-13379222D02*
X10251134Y-13483984D01*
X10251134Y-13379222D02*
X10260658Y-13360174D01*
X10260658Y-13360174D02*
X10279705Y-13350650D01*
X10279705Y-13350650D02*
X10308277Y-13350650D01*
X10308277Y-13350650D02*
X10327325Y-13360174D01*
X10327325Y-13360174D02*
X10336848Y-13379222D01*
X10336848Y-13379222D02*
X10336848Y-13483984D01*
X10432086Y-13483984D02*
X10432086Y-13350650D01*
X10432086Y-13369698D02*
X10441610Y-13360174D01*
X10441610Y-13360174D02*
X10460658Y-13350650D01*
X10460658Y-13350650D02*
X10489229Y-13350650D01*
X10489229Y-13350650D02*
X10508277Y-13360174D01*
X10508277Y-13360174D02*
X10517801Y-13379222D01*
X10517801Y-13379222D02*
X10517801Y-13483984D01*
X10517801Y-13379222D02*
X10527325Y-13360174D01*
X10527325Y-13360174D02*
X10546372Y-13350650D01*
X10546372Y-13350650D02*
X10574944Y-13350650D01*
X10574944Y-13350650D02*
X10593991Y-13360174D01*
X10593991Y-13360174D02*
X10603515Y-13379222D01*
X10603515Y-13379222D02*
X10603515Y-13483984D01*
X10993991Y-13274460D02*
X10822563Y-13531603D01*
X11251134Y-13283984D02*
X11270182Y-13283984D01*
X11270182Y-13283984D02*
X11289229Y-13293508D01*
X11289229Y-13293508D02*
X11298753Y-13303031D01*
X11298753Y-13303031D02*
X11308277Y-13322079D01*
X11308277Y-13322079D02*
X11317801Y-13360174D01*
X11317801Y-13360174D02*
X11317801Y-13407793D01*
X11317801Y-13407793D02*
X11308277Y-13445888D01*
X11308277Y-13445888D02*
X11298753Y-13464936D01*
X11298753Y-13464936D02*
X11289229Y-13474460D01*
X11289229Y-13474460D02*
X11270182Y-13483984D01*
X11270182Y-13483984D02*
X11251134Y-13483984D01*
X11251134Y-13483984D02*
X11232086Y-13474460D01*
X11232086Y-13474460D02*
X11222563Y-13464936D01*
X11222563Y-13464936D02*
X11213039Y-13445888D01*
X11213039Y-13445888D02*
X11203515Y-13407793D01*
X11203515Y-13407793D02*
X11203515Y-13360174D01*
X11203515Y-13360174D02*
X11213039Y-13322079D01*
X11213039Y-13322079D02*
X11222563Y-13303031D01*
X11222563Y-13303031D02*
X11232086Y-13293508D01*
X11232086Y-13293508D02*
X11251134Y-13283984D01*
X11403515Y-13464936D02*
X11413039Y-13474460D01*
X11413039Y-13474460D02*
X11403515Y-13483984D01*
X11403515Y-13483984D02*
X11393991Y-13474460D01*
X11393991Y-13474460D02*
X11403515Y-13464936D01*
X11403515Y-13464936D02*
X11403515Y-13483984D01*
X11536848Y-13283984D02*
X11555896Y-13283984D01*
X11555896Y-13283984D02*
X11574944Y-13293508D01*
X11574944Y-13293508D02*
X11584467Y-13303031D01*
X11584467Y-13303031D02*
X11593991Y-13322079D01*
X11593991Y-13322079D02*
X11603515Y-13360174D01*
X11603515Y-13360174D02*
X11603515Y-13407793D01*
X11603515Y-13407793D02*
X11593991Y-13445888D01*
X11593991Y-13445888D02*
X11584467Y-13464936D01*
X11584467Y-13464936D02*
X11574944Y-13474460D01*
X11574944Y-13474460D02*
X11555896Y-13483984D01*
X11555896Y-13483984D02*
X11536848Y-13483984D01*
X11536848Y-13483984D02*
X11517801Y-13474460D01*
X11517801Y-13474460D02*
X11508277Y-13464936D01*
X11508277Y-13464936D02*
X11498753Y-13445888D01*
X11498753Y-13445888D02*
X11489229Y-13407793D01*
X11489229Y-13407793D02*
X11489229Y-13360174D01*
X11489229Y-13360174D02*
X11498753Y-13322079D01*
X11498753Y-13322079D02*
X11508277Y-13303031D01*
X11508277Y-13303031D02*
X11517801Y-13293508D01*
X11517801Y-13293508D02*
X11536848Y-13283984D01*
X11793991Y-13483984D02*
X11679706Y-13483984D01*
X11736848Y-13483984D02*
X11736848Y-13283984D01*
X11736848Y-13283984D02*
X11717801Y-13312555D01*
X11717801Y-13312555D02*
X11698753Y-13331603D01*
X11698753Y-13331603D02*
X11679706Y-13341127D01*
X11984467Y-13483984D02*
X11870182Y-13483984D01*
X11927325Y-13483984D02*
X11927325Y-13283984D01*
X11927325Y-13283984D02*
X11908277Y-13312555D01*
X11908277Y-13312555D02*
X11889229Y-13331603D01*
X11889229Y-13331603D02*
X11870182Y-13341127D01*
X12098753Y-13369698D02*
X12079706Y-13360174D01*
X12079706Y-13360174D02*
X12070182Y-13350650D01*
X12070182Y-13350650D02*
X12060658Y-13331603D01*
X12060658Y-13331603D02*
X12060658Y-13322079D01*
X12060658Y-13322079D02*
X12070182Y-13303031D01*
X12070182Y-13303031D02*
X12079706Y-13293508D01*
X12079706Y-13293508D02*
X12098753Y-13283984D01*
X12098753Y-13283984D02*
X12136848Y-13283984D01*
X12136848Y-13283984D02*
X12155896Y-13293508D01*
X12155896Y-13293508D02*
X12165420Y-13303031D01*
X12165420Y-13303031D02*
X12174944Y-13322079D01*
X12174944Y-13322079D02*
X12174944Y-13331603D01*
X12174944Y-13331603D02*
X12165420Y-13350650D01*
X12165420Y-13350650D02*
X12155896Y-13360174D01*
X12155896Y-13360174D02*
X12136848Y-13369698D01*
X12136848Y-13369698D02*
X12098753Y-13369698D01*
X12098753Y-13369698D02*
X12079706Y-13379222D01*
X12079706Y-13379222D02*
X12070182Y-13388746D01*
X12070182Y-13388746D02*
X12060658Y-13407793D01*
X12060658Y-13407793D02*
X12060658Y-13445888D01*
X12060658Y-13445888D02*
X12070182Y-13464936D01*
X12070182Y-13464936D02*
X12079706Y-13474460D01*
X12079706Y-13474460D02*
X12098753Y-13483984D01*
X12098753Y-13483984D02*
X12136848Y-13483984D01*
X12136848Y-13483984D02*
X12155896Y-13474460D01*
X12155896Y-13474460D02*
X12165420Y-13464936D01*
X12165420Y-13464936D02*
X12174944Y-13445888D01*
X12174944Y-13445888D02*
X12174944Y-13407793D01*
X12174944Y-13407793D02*
X12165420Y-13388746D01*
X12165420Y-13388746D02*
X12155896Y-13379222D01*
X12155896Y-13379222D02*
X12136848Y-13369698D01*
X12251134Y-13283984D02*
X12251134Y-13322079D01*
X12327325Y-13283984D02*
X12327325Y-13322079D01*
X12622563Y-13560174D02*
X12613039Y-13550650D01*
X12613039Y-13550650D02*
X12593991Y-13522079D01*
X12593991Y-13522079D02*
X12584468Y-13503031D01*
X12584468Y-13503031D02*
X12574944Y-13474460D01*
X12574944Y-13474460D02*
X12565420Y-13426841D01*
X12565420Y-13426841D02*
X12565420Y-13388746D01*
X12565420Y-13388746D02*
X12574944Y-13341127D01*
X12574944Y-13341127D02*
X12584468Y-13312555D01*
X12584468Y-13312555D02*
X12593991Y-13293508D01*
X12593991Y-13293508D02*
X12613039Y-13264936D01*
X12613039Y-13264936D02*
X12622563Y-13255412D01*
X12793991Y-13283984D02*
X12698753Y-13283984D01*
X12698753Y-13283984D02*
X12689229Y-13379222D01*
X12689229Y-13379222D02*
X12698753Y-13369698D01*
X12698753Y-13369698D02*
X12717801Y-13360174D01*
X12717801Y-13360174D02*
X12765420Y-13360174D01*
X12765420Y-13360174D02*
X12784468Y-13369698D01*
X12784468Y-13369698D02*
X12793991Y-13379222D01*
X12793991Y-13379222D02*
X12803515Y-13398269D01*
X12803515Y-13398269D02*
X12803515Y-13445888D01*
X12803515Y-13445888D02*
X12793991Y-13464936D01*
X12793991Y-13464936D02*
X12784468Y-13474460D01*
X12784468Y-13474460D02*
X12765420Y-13483984D01*
X12765420Y-13483984D02*
X12717801Y-13483984D01*
X12717801Y-13483984D02*
X12698753Y-13474460D01*
X12698753Y-13474460D02*
X12689229Y-13464936D01*
X13041610Y-13483984D02*
X13041610Y-13283984D01*
X13127325Y-13483984D02*
X13127325Y-13379222D01*
X13127325Y-13379222D02*
X13117801Y-13360174D01*
X13117801Y-13360174D02*
X13098753Y-13350650D01*
X13098753Y-13350650D02*
X13070182Y-13350650D01*
X13070182Y-13350650D02*
X13051134Y-13360174D01*
X13051134Y-13360174D02*
X13041610Y-13369698D01*
X13251134Y-13483984D02*
X13232087Y-13474460D01*
X13232087Y-13474460D02*
X13222563Y-13464936D01*
X13222563Y-13464936D02*
X13213039Y-13445888D01*
X13213039Y-13445888D02*
X13213039Y-13388746D01*
X13213039Y-13388746D02*
X13222563Y-13369698D01*
X13222563Y-13369698D02*
X13232087Y-13360174D01*
X13232087Y-13360174D02*
X13251134Y-13350650D01*
X13251134Y-13350650D02*
X13279706Y-13350650D01*
X13279706Y-13350650D02*
X13298753Y-13360174D01*
X13298753Y-13360174D02*
X13308277Y-13369698D01*
X13308277Y-13369698D02*
X13317801Y-13388746D01*
X13317801Y-13388746D02*
X13317801Y-13445888D01*
X13317801Y-13445888D02*
X13308277Y-13464936D01*
X13308277Y-13464936D02*
X13298753Y-13474460D01*
X13298753Y-13474460D02*
X13279706Y-13483984D01*
X13279706Y-13483984D02*
X13251134Y-13483984D01*
X13432087Y-13483984D02*
X13413039Y-13474460D01*
X13413039Y-13474460D02*
X13403515Y-13455412D01*
X13403515Y-13455412D02*
X13403515Y-13283984D01*
X13584468Y-13474460D02*
X13565420Y-13483984D01*
X13565420Y-13483984D02*
X13527325Y-13483984D01*
X13527325Y-13483984D02*
X13508277Y-13474460D01*
X13508277Y-13474460D02*
X13498753Y-13455412D01*
X13498753Y-13455412D02*
X13498753Y-13379222D01*
X13498753Y-13379222D02*
X13508277Y-13360174D01*
X13508277Y-13360174D02*
X13527325Y-13350650D01*
X13527325Y-13350650D02*
X13565420Y-13350650D01*
X13565420Y-13350650D02*
X13584468Y-13360174D01*
X13584468Y-13360174D02*
X13593991Y-13379222D01*
X13593991Y-13379222D02*
X13593991Y-13398269D01*
X13593991Y-13398269D02*
X13498753Y-13417317D01*
X13670182Y-13474460D02*
X13689230Y-13483984D01*
X13689230Y-13483984D02*
X13727325Y-13483984D01*
X13727325Y-13483984D02*
X13746372Y-13474460D01*
X13746372Y-13474460D02*
X13755896Y-13455412D01*
X13755896Y-13455412D02*
X13755896Y-13445888D01*
X13755896Y-13445888D02*
X13746372Y-13426841D01*
X13746372Y-13426841D02*
X13727325Y-13417317D01*
X13727325Y-13417317D02*
X13698753Y-13417317D01*
X13698753Y-13417317D02*
X13679706Y-13407793D01*
X13679706Y-13407793D02*
X13670182Y-13388746D01*
X13670182Y-13388746D02*
X13670182Y-13379222D01*
X13670182Y-13379222D02*
X13679706Y-13360174D01*
X13679706Y-13360174D02*
X13698753Y-13350650D01*
X13698753Y-13350650D02*
X13727325Y-13350650D01*
X13727325Y-13350650D02*
X13746372Y-13360174D01*
X13822563Y-13560174D02*
X13832087Y-13550650D01*
X13832087Y-13550650D02*
X13851134Y-13522079D01*
X13851134Y-13522079D02*
X13860658Y-13503031D01*
X13860658Y-13503031D02*
X13870182Y-13474460D01*
X13870182Y-13474460D02*
X13879706Y-13426841D01*
X13879706Y-13426841D02*
X13879706Y-13388746D01*
X13879706Y-13388746D02*
X13870182Y-13341127D01*
X13870182Y-13341127D02*
X13860658Y-13312555D01*
X13860658Y-13312555D02*
X13851134Y-13293508D01*
X13851134Y-13293508D02*
X13832087Y-13264936D01*
X13832087Y-13264936D02*
X13822563Y-13255412D01*
D12*
X9047500Y-13656500D02*
G75*
G02*
X8977500Y-13656500I-35000J0D01*
G01*
X8977500Y-13656500D02*
G75*
G02*
X9047500Y-13656500I35000J0D01*
G01*
D11*
X9346372Y-13547984D02*
X9365420Y-13547984D01*
X9365420Y-13547984D02*
X9384467Y-13557508D01*
X9384467Y-13557508D02*
X9393991Y-13567031D01*
X9393991Y-13567031D02*
X9403515Y-13586079D01*
X9403515Y-13586079D02*
X9413039Y-13624174D01*
X9413039Y-13624174D02*
X9413039Y-13671793D01*
X9413039Y-13671793D02*
X9403515Y-13709888D01*
X9403515Y-13709888D02*
X9393991Y-13728936D01*
X9393991Y-13728936D02*
X9384467Y-13738460D01*
X9384467Y-13738460D02*
X9365420Y-13747984D01*
X9365420Y-13747984D02*
X9346372Y-13747984D01*
X9346372Y-13747984D02*
X9327324Y-13738460D01*
X9327324Y-13738460D02*
X9317801Y-13728936D01*
X9317801Y-13728936D02*
X9308277Y-13709888D01*
X9308277Y-13709888D02*
X9298753Y-13671793D01*
X9298753Y-13671793D02*
X9298753Y-13624174D01*
X9298753Y-13624174D02*
X9308277Y-13586079D01*
X9308277Y-13586079D02*
X9317801Y-13567031D01*
X9317801Y-13567031D02*
X9327324Y-13557508D01*
X9327324Y-13557508D02*
X9346372Y-13547984D01*
X9498753Y-13728936D02*
X9508277Y-13738460D01*
X9508277Y-13738460D02*
X9498753Y-13747984D01*
X9498753Y-13747984D02*
X9489229Y-13738460D01*
X9489229Y-13738460D02*
X9498753Y-13728936D01*
X9498753Y-13728936D02*
X9498753Y-13747984D01*
X9574944Y-13547984D02*
X9708277Y-13547984D01*
X9708277Y-13547984D02*
X9622563Y-13747984D01*
X9822563Y-13547984D02*
X9841610Y-13547984D01*
X9841610Y-13547984D02*
X9860658Y-13557508D01*
X9860658Y-13557508D02*
X9870182Y-13567031D01*
X9870182Y-13567031D02*
X9879705Y-13586079D01*
X9879705Y-13586079D02*
X9889229Y-13624174D01*
X9889229Y-13624174D02*
X9889229Y-13671793D01*
X9889229Y-13671793D02*
X9879705Y-13709888D01*
X9879705Y-13709888D02*
X9870182Y-13728936D01*
X9870182Y-13728936D02*
X9860658Y-13738460D01*
X9860658Y-13738460D02*
X9841610Y-13747984D01*
X9841610Y-13747984D02*
X9822563Y-13747984D01*
X9822563Y-13747984D02*
X9803515Y-13738460D01*
X9803515Y-13738460D02*
X9793991Y-13728936D01*
X9793991Y-13728936D02*
X9784467Y-13709888D01*
X9784467Y-13709888D02*
X9774944Y-13671793D01*
X9774944Y-13671793D02*
X9774944Y-13624174D01*
X9774944Y-13624174D02*
X9784467Y-13586079D01*
X9784467Y-13586079D02*
X9793991Y-13567031D01*
X9793991Y-13567031D02*
X9803515Y-13557508D01*
X9803515Y-13557508D02*
X9822563Y-13547984D01*
X10013039Y-13547984D02*
X10032086Y-13547984D01*
X10032086Y-13547984D02*
X10051134Y-13557508D01*
X10051134Y-13557508D02*
X10060658Y-13567031D01*
X10060658Y-13567031D02*
X10070182Y-13586079D01*
X10070182Y-13586079D02*
X10079705Y-13624174D01*
X10079705Y-13624174D02*
X10079705Y-13671793D01*
X10079705Y-13671793D02*
X10070182Y-13709888D01*
X10070182Y-13709888D02*
X10060658Y-13728936D01*
X10060658Y-13728936D02*
X10051134Y-13738460D01*
X10051134Y-13738460D02*
X10032086Y-13747984D01*
X10032086Y-13747984D02*
X10013039Y-13747984D01*
X10013039Y-13747984D02*
X9993991Y-13738460D01*
X9993991Y-13738460D02*
X9984467Y-13728936D01*
X9984467Y-13728936D02*
X9974944Y-13709888D01*
X9974944Y-13709888D02*
X9965420Y-13671793D01*
X9965420Y-13671793D02*
X9965420Y-13624174D01*
X9965420Y-13624174D02*
X9974944Y-13586079D01*
X9974944Y-13586079D02*
X9984467Y-13567031D01*
X9984467Y-13567031D02*
X9993991Y-13557508D01*
X9993991Y-13557508D02*
X10013039Y-13547984D01*
X10165420Y-13747984D02*
X10165420Y-13614650D01*
X10165420Y-13633698D02*
X10174944Y-13624174D01*
X10174944Y-13624174D02*
X10193991Y-13614650D01*
X10193991Y-13614650D02*
X10222563Y-13614650D01*
X10222563Y-13614650D02*
X10241610Y-13624174D01*
X10241610Y-13624174D02*
X10251134Y-13643222D01*
X10251134Y-13643222D02*
X10251134Y-13747984D01*
X10251134Y-13643222D02*
X10260658Y-13624174D01*
X10260658Y-13624174D02*
X10279705Y-13614650D01*
X10279705Y-13614650D02*
X10308277Y-13614650D01*
X10308277Y-13614650D02*
X10327325Y-13624174D01*
X10327325Y-13624174D02*
X10336848Y-13643222D01*
X10336848Y-13643222D02*
X10336848Y-13747984D01*
X10432086Y-13747984D02*
X10432086Y-13614650D01*
X10432086Y-13633698D02*
X10441610Y-13624174D01*
X10441610Y-13624174D02*
X10460658Y-13614650D01*
X10460658Y-13614650D02*
X10489229Y-13614650D01*
X10489229Y-13614650D02*
X10508277Y-13624174D01*
X10508277Y-13624174D02*
X10517801Y-13643222D01*
X10517801Y-13643222D02*
X10517801Y-13747984D01*
X10517801Y-13643222D02*
X10527325Y-13624174D01*
X10527325Y-13624174D02*
X10546372Y-13614650D01*
X10546372Y-13614650D02*
X10574944Y-13614650D01*
X10574944Y-13614650D02*
X10593991Y-13624174D01*
X10593991Y-13624174D02*
X10603515Y-13643222D01*
X10603515Y-13643222D02*
X10603515Y-13747984D01*
X10993991Y-13538460D02*
X10822563Y-13795603D01*
X11251134Y-13547984D02*
X11270182Y-13547984D01*
X11270182Y-13547984D02*
X11289229Y-13557508D01*
X11289229Y-13557508D02*
X11298753Y-13567031D01*
X11298753Y-13567031D02*
X11308277Y-13586079D01*
X11308277Y-13586079D02*
X11317801Y-13624174D01*
X11317801Y-13624174D02*
X11317801Y-13671793D01*
X11317801Y-13671793D02*
X11308277Y-13709888D01*
X11308277Y-13709888D02*
X11298753Y-13728936D01*
X11298753Y-13728936D02*
X11289229Y-13738460D01*
X11289229Y-13738460D02*
X11270182Y-13747984D01*
X11270182Y-13747984D02*
X11251134Y-13747984D01*
X11251134Y-13747984D02*
X11232086Y-13738460D01*
X11232086Y-13738460D02*
X11222563Y-13728936D01*
X11222563Y-13728936D02*
X11213039Y-13709888D01*
X11213039Y-13709888D02*
X11203515Y-13671793D01*
X11203515Y-13671793D02*
X11203515Y-13624174D01*
X11203515Y-13624174D02*
X11213039Y-13586079D01*
X11213039Y-13586079D02*
X11222563Y-13567031D01*
X11222563Y-13567031D02*
X11232086Y-13557508D01*
X11232086Y-13557508D02*
X11251134Y-13547984D01*
X11403515Y-13728936D02*
X11413039Y-13738460D01*
X11413039Y-13738460D02*
X11403515Y-13747984D01*
X11403515Y-13747984D02*
X11393991Y-13738460D01*
X11393991Y-13738460D02*
X11403515Y-13728936D01*
X11403515Y-13728936D02*
X11403515Y-13747984D01*
X11536848Y-13547984D02*
X11555896Y-13547984D01*
X11555896Y-13547984D02*
X11574944Y-13557508D01*
X11574944Y-13557508D02*
X11584467Y-13567031D01*
X11584467Y-13567031D02*
X11593991Y-13586079D01*
X11593991Y-13586079D02*
X11603515Y-13624174D01*
X11603515Y-13624174D02*
X11603515Y-13671793D01*
X11603515Y-13671793D02*
X11593991Y-13709888D01*
X11593991Y-13709888D02*
X11584467Y-13728936D01*
X11584467Y-13728936D02*
X11574944Y-13738460D01*
X11574944Y-13738460D02*
X11555896Y-13747984D01*
X11555896Y-13747984D02*
X11536848Y-13747984D01*
X11536848Y-13747984D02*
X11517801Y-13738460D01*
X11517801Y-13738460D02*
X11508277Y-13728936D01*
X11508277Y-13728936D02*
X11498753Y-13709888D01*
X11498753Y-13709888D02*
X11489229Y-13671793D01*
X11489229Y-13671793D02*
X11489229Y-13624174D01*
X11489229Y-13624174D02*
X11498753Y-13586079D01*
X11498753Y-13586079D02*
X11508277Y-13567031D01*
X11508277Y-13567031D02*
X11517801Y-13557508D01*
X11517801Y-13557508D02*
X11536848Y-13547984D01*
X11679706Y-13567031D02*
X11689229Y-13557508D01*
X11689229Y-13557508D02*
X11708277Y-13547984D01*
X11708277Y-13547984D02*
X11755896Y-13547984D01*
X11755896Y-13547984D02*
X11774944Y-13557508D01*
X11774944Y-13557508D02*
X11784467Y-13567031D01*
X11784467Y-13567031D02*
X11793991Y-13586079D01*
X11793991Y-13586079D02*
X11793991Y-13605127D01*
X11793991Y-13605127D02*
X11784467Y-13633698D01*
X11784467Y-13633698D02*
X11670182Y-13747984D01*
X11670182Y-13747984D02*
X11793991Y-13747984D01*
X11860658Y-13547984D02*
X11993991Y-13547984D01*
X11993991Y-13547984D02*
X11908277Y-13747984D01*
X12155896Y-13547984D02*
X12117801Y-13547984D01*
X12117801Y-13547984D02*
X12098753Y-13557508D01*
X12098753Y-13557508D02*
X12089229Y-13567031D01*
X12089229Y-13567031D02*
X12070182Y-13595603D01*
X12070182Y-13595603D02*
X12060658Y-13633698D01*
X12060658Y-13633698D02*
X12060658Y-13709888D01*
X12060658Y-13709888D02*
X12070182Y-13728936D01*
X12070182Y-13728936D02*
X12079706Y-13738460D01*
X12079706Y-13738460D02*
X12098753Y-13747984D01*
X12098753Y-13747984D02*
X12136848Y-13747984D01*
X12136848Y-13747984D02*
X12155896Y-13738460D01*
X12155896Y-13738460D02*
X12165420Y-13728936D01*
X12165420Y-13728936D02*
X12174944Y-13709888D01*
X12174944Y-13709888D02*
X12174944Y-13662269D01*
X12174944Y-13662269D02*
X12165420Y-13643222D01*
X12165420Y-13643222D02*
X12155896Y-13633698D01*
X12155896Y-13633698D02*
X12136848Y-13624174D01*
X12136848Y-13624174D02*
X12098753Y-13624174D01*
X12098753Y-13624174D02*
X12079706Y-13633698D01*
X12079706Y-13633698D02*
X12070182Y-13643222D01*
X12070182Y-13643222D02*
X12060658Y-13662269D01*
X12251134Y-13547984D02*
X12251134Y-13586079D01*
X12327325Y-13547984D02*
X12327325Y-13586079D01*
X12622563Y-13824174D02*
X12613039Y-13814650D01*
X12613039Y-13814650D02*
X12593991Y-13786079D01*
X12593991Y-13786079D02*
X12584468Y-13767031D01*
X12584468Y-13767031D02*
X12574944Y-13738460D01*
X12574944Y-13738460D02*
X12565420Y-13690841D01*
X12565420Y-13690841D02*
X12565420Y-13652746D01*
X12565420Y-13652746D02*
X12574944Y-13605127D01*
X12574944Y-13605127D02*
X12584468Y-13576555D01*
X12584468Y-13576555D02*
X12593991Y-13557508D01*
X12593991Y-13557508D02*
X12613039Y-13528936D01*
X12613039Y-13528936D02*
X12622563Y-13519412D01*
X12784468Y-13547984D02*
X12746372Y-13547984D01*
X12746372Y-13547984D02*
X12727325Y-13557508D01*
X12727325Y-13557508D02*
X12717801Y-13567031D01*
X12717801Y-13567031D02*
X12698753Y-13595603D01*
X12698753Y-13595603D02*
X12689229Y-13633698D01*
X12689229Y-13633698D02*
X12689229Y-13709888D01*
X12689229Y-13709888D02*
X12698753Y-13728936D01*
X12698753Y-13728936D02*
X12708277Y-13738460D01*
X12708277Y-13738460D02*
X12727325Y-13747984D01*
X12727325Y-13747984D02*
X12765420Y-13747984D01*
X12765420Y-13747984D02*
X12784468Y-13738460D01*
X12784468Y-13738460D02*
X12793991Y-13728936D01*
X12793991Y-13728936D02*
X12803515Y-13709888D01*
X12803515Y-13709888D02*
X12803515Y-13662269D01*
X12803515Y-13662269D02*
X12793991Y-13643222D01*
X12793991Y-13643222D02*
X12784468Y-13633698D01*
X12784468Y-13633698D02*
X12765420Y-13624174D01*
X12765420Y-13624174D02*
X12727325Y-13624174D01*
X12727325Y-13624174D02*
X12708277Y-13633698D01*
X12708277Y-13633698D02*
X12698753Y-13643222D01*
X12698753Y-13643222D02*
X12689229Y-13662269D01*
X13041610Y-13747984D02*
X13041610Y-13547984D01*
X13127325Y-13747984D02*
X13127325Y-13643222D01*
X13127325Y-13643222D02*
X13117801Y-13624174D01*
X13117801Y-13624174D02*
X13098753Y-13614650D01*
X13098753Y-13614650D02*
X13070182Y-13614650D01*
X13070182Y-13614650D02*
X13051134Y-13624174D01*
X13051134Y-13624174D02*
X13041610Y-13633698D01*
X13251134Y-13747984D02*
X13232087Y-13738460D01*
X13232087Y-13738460D02*
X13222563Y-13728936D01*
X13222563Y-13728936D02*
X13213039Y-13709888D01*
X13213039Y-13709888D02*
X13213039Y-13652746D01*
X13213039Y-13652746D02*
X13222563Y-13633698D01*
X13222563Y-13633698D02*
X13232087Y-13624174D01*
X13232087Y-13624174D02*
X13251134Y-13614650D01*
X13251134Y-13614650D02*
X13279706Y-13614650D01*
X13279706Y-13614650D02*
X13298753Y-13624174D01*
X13298753Y-13624174D02*
X13308277Y-13633698D01*
X13308277Y-13633698D02*
X13317801Y-13652746D01*
X13317801Y-13652746D02*
X13317801Y-13709888D01*
X13317801Y-13709888D02*
X13308277Y-13728936D01*
X13308277Y-13728936D02*
X13298753Y-13738460D01*
X13298753Y-13738460D02*
X13279706Y-13747984D01*
X13279706Y-13747984D02*
X13251134Y-13747984D01*
X13432087Y-13747984D02*
X13413039Y-13738460D01*
X13413039Y-13738460D02*
X13403515Y-13719412D01*
X13403515Y-13719412D02*
X13403515Y-13547984D01*
X13584468Y-13738460D02*
X13565420Y-13747984D01*
X13565420Y-13747984D02*
X13527325Y-13747984D01*
X13527325Y-13747984D02*
X13508277Y-13738460D01*
X13508277Y-13738460D02*
X13498753Y-13719412D01*
X13498753Y-13719412D02*
X13498753Y-13643222D01*
X13498753Y-13643222D02*
X13508277Y-13624174D01*
X13508277Y-13624174D02*
X13527325Y-13614650D01*
X13527325Y-13614650D02*
X13565420Y-13614650D01*
X13565420Y-13614650D02*
X13584468Y-13624174D01*
X13584468Y-13624174D02*
X13593991Y-13643222D01*
X13593991Y-13643222D02*
X13593991Y-13662269D01*
X13593991Y-13662269D02*
X13498753Y-13681317D01*
X13670182Y-13738460D02*
X13689230Y-13747984D01*
X13689230Y-13747984D02*
X13727325Y-13747984D01*
X13727325Y-13747984D02*
X13746372Y-13738460D01*
X13746372Y-13738460D02*
X13755896Y-13719412D01*
X13755896Y-13719412D02*
X13755896Y-13709888D01*
X13755896Y-13709888D02*
X13746372Y-13690841D01*
X13746372Y-13690841D02*
X13727325Y-13681317D01*
X13727325Y-13681317D02*
X13698753Y-13681317D01*
X13698753Y-13681317D02*
X13679706Y-13671793D01*
X13679706Y-13671793D02*
X13670182Y-13652746D01*
X13670182Y-13652746D02*
X13670182Y-13643222D01*
X13670182Y-13643222D02*
X13679706Y-13624174D01*
X13679706Y-13624174D02*
X13698753Y-13614650D01*
X13698753Y-13614650D02*
X13727325Y-13614650D01*
X13727325Y-13614650D02*
X13746372Y-13624174D01*
X13822563Y-13824174D02*
X13832087Y-13814650D01*
X13832087Y-13814650D02*
X13851134Y-13786079D01*
X13851134Y-13786079D02*
X13860658Y-13767031D01*
X13860658Y-13767031D02*
X13870182Y-13738460D01*
X13870182Y-13738460D02*
X13879706Y-13690841D01*
X13879706Y-13690841D02*
X13879706Y-13652746D01*
X13879706Y-13652746D02*
X13870182Y-13605127D01*
X13870182Y-13605127D02*
X13860658Y-13576555D01*
X13860658Y-13576555D02*
X13851134Y-13557508D01*
X13851134Y-13557508D02*
X13832087Y-13528936D01*
X13832087Y-13528936D02*
X13822563Y-13519412D01*
D12*
X9002500Y-13875500D02*
X9002500Y-13965500D01*
X8957500Y-13920500D02*
X9047500Y-13920500D01*
D11*
X9346372Y-13811984D02*
X9365420Y-13811984D01*
X9365420Y-13811984D02*
X9384467Y-13821508D01*
X9384467Y-13821508D02*
X9393991Y-13831031D01*
X9393991Y-13831031D02*
X9403515Y-13850079D01*
X9403515Y-13850079D02*
X9413039Y-13888174D01*
X9413039Y-13888174D02*
X9413039Y-13935793D01*
X9413039Y-13935793D02*
X9403515Y-13973888D01*
X9403515Y-13973888D02*
X9393991Y-13992936D01*
X9393991Y-13992936D02*
X9384467Y-14002460D01*
X9384467Y-14002460D02*
X9365420Y-14011984D01*
X9365420Y-14011984D02*
X9346372Y-14011984D01*
X9346372Y-14011984D02*
X9327324Y-14002460D01*
X9327324Y-14002460D02*
X9317801Y-13992936D01*
X9317801Y-13992936D02*
X9308277Y-13973888D01*
X9308277Y-13973888D02*
X9298753Y-13935793D01*
X9298753Y-13935793D02*
X9298753Y-13888174D01*
X9298753Y-13888174D02*
X9308277Y-13850079D01*
X9308277Y-13850079D02*
X9317801Y-13831031D01*
X9317801Y-13831031D02*
X9327324Y-13821508D01*
X9327324Y-13821508D02*
X9346372Y-13811984D01*
X9498753Y-13992936D02*
X9508277Y-14002460D01*
X9508277Y-14002460D02*
X9498753Y-14011984D01*
X9498753Y-14011984D02*
X9489229Y-14002460D01*
X9489229Y-14002460D02*
X9498753Y-13992936D01*
X9498753Y-13992936D02*
X9498753Y-14011984D01*
X9603515Y-14011984D02*
X9641610Y-14011984D01*
X9641610Y-14011984D02*
X9660658Y-14002460D01*
X9660658Y-14002460D02*
X9670182Y-13992936D01*
X9670182Y-13992936D02*
X9689229Y-13964365D01*
X9689229Y-13964365D02*
X9698753Y-13926269D01*
X9698753Y-13926269D02*
X9698753Y-13850079D01*
X9698753Y-13850079D02*
X9689229Y-13831031D01*
X9689229Y-13831031D02*
X9679705Y-13821508D01*
X9679705Y-13821508D02*
X9660658Y-13811984D01*
X9660658Y-13811984D02*
X9622563Y-13811984D01*
X9622563Y-13811984D02*
X9603515Y-13821508D01*
X9603515Y-13821508D02*
X9593991Y-13831031D01*
X9593991Y-13831031D02*
X9584467Y-13850079D01*
X9584467Y-13850079D02*
X9584467Y-13897698D01*
X9584467Y-13897698D02*
X9593991Y-13916746D01*
X9593991Y-13916746D02*
X9603515Y-13926269D01*
X9603515Y-13926269D02*
X9622563Y-13935793D01*
X9622563Y-13935793D02*
X9660658Y-13935793D01*
X9660658Y-13935793D02*
X9679705Y-13926269D01*
X9679705Y-13926269D02*
X9689229Y-13916746D01*
X9689229Y-13916746D02*
X9698753Y-13897698D01*
X9822563Y-13811984D02*
X9841610Y-13811984D01*
X9841610Y-13811984D02*
X9860658Y-13821508D01*
X9860658Y-13821508D02*
X9870182Y-13831031D01*
X9870182Y-13831031D02*
X9879705Y-13850079D01*
X9879705Y-13850079D02*
X9889229Y-13888174D01*
X9889229Y-13888174D02*
X9889229Y-13935793D01*
X9889229Y-13935793D02*
X9879705Y-13973888D01*
X9879705Y-13973888D02*
X9870182Y-13992936D01*
X9870182Y-13992936D02*
X9860658Y-14002460D01*
X9860658Y-14002460D02*
X9841610Y-14011984D01*
X9841610Y-14011984D02*
X9822563Y-14011984D01*
X9822563Y-14011984D02*
X9803515Y-14002460D01*
X9803515Y-14002460D02*
X9793991Y-13992936D01*
X9793991Y-13992936D02*
X9784467Y-13973888D01*
X9784467Y-13973888D02*
X9774944Y-13935793D01*
X9774944Y-13935793D02*
X9774944Y-13888174D01*
X9774944Y-13888174D02*
X9784467Y-13850079D01*
X9784467Y-13850079D02*
X9793991Y-13831031D01*
X9793991Y-13831031D02*
X9803515Y-13821508D01*
X9803515Y-13821508D02*
X9822563Y-13811984D01*
X10013039Y-13811984D02*
X10032086Y-13811984D01*
X10032086Y-13811984D02*
X10051134Y-13821508D01*
X10051134Y-13821508D02*
X10060658Y-13831031D01*
X10060658Y-13831031D02*
X10070182Y-13850079D01*
X10070182Y-13850079D02*
X10079705Y-13888174D01*
X10079705Y-13888174D02*
X10079705Y-13935793D01*
X10079705Y-13935793D02*
X10070182Y-13973888D01*
X10070182Y-13973888D02*
X10060658Y-13992936D01*
X10060658Y-13992936D02*
X10051134Y-14002460D01*
X10051134Y-14002460D02*
X10032086Y-14011984D01*
X10032086Y-14011984D02*
X10013039Y-14011984D01*
X10013039Y-14011984D02*
X9993991Y-14002460D01*
X9993991Y-14002460D02*
X9984467Y-13992936D01*
X9984467Y-13992936D02*
X9974944Y-13973888D01*
X9974944Y-13973888D02*
X9965420Y-13935793D01*
X9965420Y-13935793D02*
X9965420Y-13888174D01*
X9965420Y-13888174D02*
X9974944Y-13850079D01*
X9974944Y-13850079D02*
X9984467Y-13831031D01*
X9984467Y-13831031D02*
X9993991Y-13821508D01*
X9993991Y-13821508D02*
X10013039Y-13811984D01*
X10165420Y-14011984D02*
X10165420Y-13878650D01*
X10165420Y-13897698D02*
X10174944Y-13888174D01*
X10174944Y-13888174D02*
X10193991Y-13878650D01*
X10193991Y-13878650D02*
X10222563Y-13878650D01*
X10222563Y-13878650D02*
X10241610Y-13888174D01*
X10241610Y-13888174D02*
X10251134Y-13907222D01*
X10251134Y-13907222D02*
X10251134Y-14011984D01*
X10251134Y-13907222D02*
X10260658Y-13888174D01*
X10260658Y-13888174D02*
X10279705Y-13878650D01*
X10279705Y-13878650D02*
X10308277Y-13878650D01*
X10308277Y-13878650D02*
X10327325Y-13888174D01*
X10327325Y-13888174D02*
X10336848Y-13907222D01*
X10336848Y-13907222D02*
X10336848Y-14011984D01*
X10432086Y-14011984D02*
X10432086Y-13878650D01*
X10432086Y-13897698D02*
X10441610Y-13888174D01*
X10441610Y-13888174D02*
X10460658Y-13878650D01*
X10460658Y-13878650D02*
X10489229Y-13878650D01*
X10489229Y-13878650D02*
X10508277Y-13888174D01*
X10508277Y-13888174D02*
X10517801Y-13907222D01*
X10517801Y-13907222D02*
X10517801Y-14011984D01*
X10517801Y-13907222D02*
X10527325Y-13888174D01*
X10527325Y-13888174D02*
X10546372Y-13878650D01*
X10546372Y-13878650D02*
X10574944Y-13878650D01*
X10574944Y-13878650D02*
X10593991Y-13888174D01*
X10593991Y-13888174D02*
X10603515Y-13907222D01*
X10603515Y-13907222D02*
X10603515Y-14011984D01*
X10993991Y-13802460D02*
X10822563Y-14059603D01*
X11251134Y-13811984D02*
X11270182Y-13811984D01*
X11270182Y-13811984D02*
X11289229Y-13821508D01*
X11289229Y-13821508D02*
X11298753Y-13831031D01*
X11298753Y-13831031D02*
X11308277Y-13850079D01*
X11308277Y-13850079D02*
X11317801Y-13888174D01*
X11317801Y-13888174D02*
X11317801Y-13935793D01*
X11317801Y-13935793D02*
X11308277Y-13973888D01*
X11308277Y-13973888D02*
X11298753Y-13992936D01*
X11298753Y-13992936D02*
X11289229Y-14002460D01*
X11289229Y-14002460D02*
X11270182Y-14011984D01*
X11270182Y-14011984D02*
X11251134Y-14011984D01*
X11251134Y-14011984D02*
X11232086Y-14002460D01*
X11232086Y-14002460D02*
X11222563Y-13992936D01*
X11222563Y-13992936D02*
X11213039Y-13973888D01*
X11213039Y-13973888D02*
X11203515Y-13935793D01*
X11203515Y-13935793D02*
X11203515Y-13888174D01*
X11203515Y-13888174D02*
X11213039Y-13850079D01*
X11213039Y-13850079D02*
X11222563Y-13831031D01*
X11222563Y-13831031D02*
X11232086Y-13821508D01*
X11232086Y-13821508D02*
X11251134Y-13811984D01*
X11403515Y-13992936D02*
X11413039Y-14002460D01*
X11413039Y-14002460D02*
X11403515Y-14011984D01*
X11403515Y-14011984D02*
X11393991Y-14002460D01*
X11393991Y-14002460D02*
X11403515Y-13992936D01*
X11403515Y-13992936D02*
X11403515Y-14011984D01*
X11536848Y-13811984D02*
X11555896Y-13811984D01*
X11555896Y-13811984D02*
X11574944Y-13821508D01*
X11574944Y-13821508D02*
X11584467Y-13831031D01*
X11584467Y-13831031D02*
X11593991Y-13850079D01*
X11593991Y-13850079D02*
X11603515Y-13888174D01*
X11603515Y-13888174D02*
X11603515Y-13935793D01*
X11603515Y-13935793D02*
X11593991Y-13973888D01*
X11593991Y-13973888D02*
X11584467Y-13992936D01*
X11584467Y-13992936D02*
X11574944Y-14002460D01*
X11574944Y-14002460D02*
X11555896Y-14011984D01*
X11555896Y-14011984D02*
X11536848Y-14011984D01*
X11536848Y-14011984D02*
X11517801Y-14002460D01*
X11517801Y-14002460D02*
X11508277Y-13992936D01*
X11508277Y-13992936D02*
X11498753Y-13973888D01*
X11498753Y-13973888D02*
X11489229Y-13935793D01*
X11489229Y-13935793D02*
X11489229Y-13888174D01*
X11489229Y-13888174D02*
X11498753Y-13850079D01*
X11498753Y-13850079D02*
X11508277Y-13831031D01*
X11508277Y-13831031D02*
X11517801Y-13821508D01*
X11517801Y-13821508D02*
X11536848Y-13811984D01*
X11670182Y-13811984D02*
X11793991Y-13811984D01*
X11793991Y-13811984D02*
X11727325Y-13888174D01*
X11727325Y-13888174D02*
X11755896Y-13888174D01*
X11755896Y-13888174D02*
X11774944Y-13897698D01*
X11774944Y-13897698D02*
X11784467Y-13907222D01*
X11784467Y-13907222D02*
X11793991Y-13926269D01*
X11793991Y-13926269D02*
X11793991Y-13973888D01*
X11793991Y-13973888D02*
X11784467Y-13992936D01*
X11784467Y-13992936D02*
X11774944Y-14002460D01*
X11774944Y-14002460D02*
X11755896Y-14011984D01*
X11755896Y-14011984D02*
X11698753Y-14011984D01*
X11698753Y-14011984D02*
X11679706Y-14002460D01*
X11679706Y-14002460D02*
X11670182Y-13992936D01*
X11974944Y-13811984D02*
X11879706Y-13811984D01*
X11879706Y-13811984D02*
X11870182Y-13907222D01*
X11870182Y-13907222D02*
X11879706Y-13897698D01*
X11879706Y-13897698D02*
X11898753Y-13888174D01*
X11898753Y-13888174D02*
X11946372Y-13888174D01*
X11946372Y-13888174D02*
X11965420Y-13897698D01*
X11965420Y-13897698D02*
X11974944Y-13907222D01*
X11974944Y-13907222D02*
X11984467Y-13926269D01*
X11984467Y-13926269D02*
X11984467Y-13973888D01*
X11984467Y-13973888D02*
X11974944Y-13992936D01*
X11974944Y-13992936D02*
X11965420Y-14002460D01*
X11965420Y-14002460D02*
X11946372Y-14011984D01*
X11946372Y-14011984D02*
X11898753Y-14011984D01*
X11898753Y-14011984D02*
X11879706Y-14002460D01*
X11879706Y-14002460D02*
X11870182Y-13992936D01*
X12155896Y-13878650D02*
X12155896Y-14011984D01*
X12108277Y-13802460D02*
X12060658Y-13945317D01*
X12060658Y-13945317D02*
X12184467Y-13945317D01*
X12251134Y-13811984D02*
X12251134Y-13850079D01*
X12327325Y-13811984D02*
X12327325Y-13850079D01*
X12622563Y-14088174D02*
X12613039Y-14078650D01*
X12613039Y-14078650D02*
X12593991Y-14050079D01*
X12593991Y-14050079D02*
X12584468Y-14031031D01*
X12584468Y-14031031D02*
X12574944Y-14002460D01*
X12574944Y-14002460D02*
X12565420Y-13954841D01*
X12565420Y-13954841D02*
X12565420Y-13916746D01*
X12565420Y-13916746D02*
X12574944Y-13869127D01*
X12574944Y-13869127D02*
X12584468Y-13840555D01*
X12584468Y-13840555D02*
X12593991Y-13821508D01*
X12593991Y-13821508D02*
X12613039Y-13792936D01*
X12613039Y-13792936D02*
X12622563Y-13783412D01*
X12784468Y-13878650D02*
X12784468Y-14011984D01*
X12736848Y-13802460D02*
X12689229Y-13945317D01*
X12689229Y-13945317D02*
X12813039Y-13945317D01*
X13041610Y-14011984D02*
X13041610Y-13811984D01*
X13127325Y-14011984D02*
X13127325Y-13907222D01*
X13127325Y-13907222D02*
X13117801Y-13888174D01*
X13117801Y-13888174D02*
X13098753Y-13878650D01*
X13098753Y-13878650D02*
X13070182Y-13878650D01*
X13070182Y-13878650D02*
X13051134Y-13888174D01*
X13051134Y-13888174D02*
X13041610Y-13897698D01*
X13251134Y-14011984D02*
X13232087Y-14002460D01*
X13232087Y-14002460D02*
X13222563Y-13992936D01*
X13222563Y-13992936D02*
X13213039Y-13973888D01*
X13213039Y-13973888D02*
X13213039Y-13916746D01*
X13213039Y-13916746D02*
X13222563Y-13897698D01*
X13222563Y-13897698D02*
X13232087Y-13888174D01*
X13232087Y-13888174D02*
X13251134Y-13878650D01*
X13251134Y-13878650D02*
X13279706Y-13878650D01*
X13279706Y-13878650D02*
X13298753Y-13888174D01*
X13298753Y-13888174D02*
X13308277Y-13897698D01*
X13308277Y-13897698D02*
X13317801Y-13916746D01*
X13317801Y-13916746D02*
X13317801Y-13973888D01*
X13317801Y-13973888D02*
X13308277Y-13992936D01*
X13308277Y-13992936D02*
X13298753Y-14002460D01*
X13298753Y-14002460D02*
X13279706Y-14011984D01*
X13279706Y-14011984D02*
X13251134Y-14011984D01*
X13432087Y-14011984D02*
X13413039Y-14002460D01*
X13413039Y-14002460D02*
X13403515Y-13983412D01*
X13403515Y-13983412D02*
X13403515Y-13811984D01*
X13584468Y-14002460D02*
X13565420Y-14011984D01*
X13565420Y-14011984D02*
X13527325Y-14011984D01*
X13527325Y-14011984D02*
X13508277Y-14002460D01*
X13508277Y-14002460D02*
X13498753Y-13983412D01*
X13498753Y-13983412D02*
X13498753Y-13907222D01*
X13498753Y-13907222D02*
X13508277Y-13888174D01*
X13508277Y-13888174D02*
X13527325Y-13878650D01*
X13527325Y-13878650D02*
X13565420Y-13878650D01*
X13565420Y-13878650D02*
X13584468Y-13888174D01*
X13584468Y-13888174D02*
X13593991Y-13907222D01*
X13593991Y-13907222D02*
X13593991Y-13926269D01*
X13593991Y-13926269D02*
X13498753Y-13945317D01*
X13670182Y-14002460D02*
X13689230Y-14011984D01*
X13689230Y-14011984D02*
X13727325Y-14011984D01*
X13727325Y-14011984D02*
X13746372Y-14002460D01*
X13746372Y-14002460D02*
X13755896Y-13983412D01*
X13755896Y-13983412D02*
X13755896Y-13973888D01*
X13755896Y-13973888D02*
X13746372Y-13954841D01*
X13746372Y-13954841D02*
X13727325Y-13945317D01*
X13727325Y-13945317D02*
X13698753Y-13945317D01*
X13698753Y-13945317D02*
X13679706Y-13935793D01*
X13679706Y-13935793D02*
X13670182Y-13916746D01*
X13670182Y-13916746D02*
X13670182Y-13907222D01*
X13670182Y-13907222D02*
X13679706Y-13888174D01*
X13679706Y-13888174D02*
X13698753Y-13878650D01*
X13698753Y-13878650D02*
X13727325Y-13878650D01*
X13727325Y-13878650D02*
X13746372Y-13888174D01*
X13822563Y-14088174D02*
X13832087Y-14078650D01*
X13832087Y-14078650D02*
X13851134Y-14050079D01*
X13851134Y-14050079D02*
X13860658Y-14031031D01*
X13860658Y-14031031D02*
X13870182Y-14002460D01*
X13870182Y-14002460D02*
X13879706Y-13954841D01*
X13879706Y-13954841D02*
X13879706Y-13916746D01*
X13879706Y-13916746D02*
X13870182Y-13869127D01*
X13870182Y-13869127D02*
X13860658Y-13840555D01*
X13860658Y-13840555D02*
X13851134Y-13821508D01*
X13851134Y-13821508D02*
X13832087Y-13792936D01*
X13832087Y-13792936D02*
X13822563Y-13783412D01*
D12*
X9032856Y-14219856D02*
X9032856Y-14149144D01*
X8962144Y-14149144D01*
X8962144Y-14219856D01*
X9032856Y-14219856D01*
D11*
X9413039Y-14275984D02*
X9298753Y-14275984D01*
X9355896Y-14275984D02*
X9355896Y-14075984D01*
X9355896Y-14075984D02*
X9336848Y-14104555D01*
X9336848Y-14104555D02*
X9317801Y-14123603D01*
X9317801Y-14123603D02*
X9298753Y-14133127D01*
X9498753Y-14256936D02*
X9508277Y-14266460D01*
X9508277Y-14266460D02*
X9498753Y-14275984D01*
X9498753Y-14275984D02*
X9489229Y-14266460D01*
X9489229Y-14266460D02*
X9498753Y-14256936D01*
X9498753Y-14256936D02*
X9498753Y-14275984D01*
X9632086Y-14075984D02*
X9651134Y-14075984D01*
X9651134Y-14075984D02*
X9670182Y-14085508D01*
X9670182Y-14085508D02*
X9679705Y-14095031D01*
X9679705Y-14095031D02*
X9689229Y-14114079D01*
X9689229Y-14114079D02*
X9698753Y-14152174D01*
X9698753Y-14152174D02*
X9698753Y-14199793D01*
X9698753Y-14199793D02*
X9689229Y-14237888D01*
X9689229Y-14237888D02*
X9679705Y-14256936D01*
X9679705Y-14256936D02*
X9670182Y-14266460D01*
X9670182Y-14266460D02*
X9651134Y-14275984D01*
X9651134Y-14275984D02*
X9632086Y-14275984D01*
X9632086Y-14275984D02*
X9613039Y-14266460D01*
X9613039Y-14266460D02*
X9603515Y-14256936D01*
X9603515Y-14256936D02*
X9593991Y-14237888D01*
X9593991Y-14237888D02*
X9584467Y-14199793D01*
X9584467Y-14199793D02*
X9584467Y-14152174D01*
X9584467Y-14152174D02*
X9593991Y-14114079D01*
X9593991Y-14114079D02*
X9603515Y-14095031D01*
X9603515Y-14095031D02*
X9613039Y-14085508D01*
X9613039Y-14085508D02*
X9632086Y-14075984D01*
X9822563Y-14075984D02*
X9841610Y-14075984D01*
X9841610Y-14075984D02*
X9860658Y-14085508D01*
X9860658Y-14085508D02*
X9870182Y-14095031D01*
X9870182Y-14095031D02*
X9879705Y-14114079D01*
X9879705Y-14114079D02*
X9889229Y-14152174D01*
X9889229Y-14152174D02*
X9889229Y-14199793D01*
X9889229Y-14199793D02*
X9879705Y-14237888D01*
X9879705Y-14237888D02*
X9870182Y-14256936D01*
X9870182Y-14256936D02*
X9860658Y-14266460D01*
X9860658Y-14266460D02*
X9841610Y-14275984D01*
X9841610Y-14275984D02*
X9822563Y-14275984D01*
X9822563Y-14275984D02*
X9803515Y-14266460D01*
X9803515Y-14266460D02*
X9793991Y-14256936D01*
X9793991Y-14256936D02*
X9784467Y-14237888D01*
X9784467Y-14237888D02*
X9774944Y-14199793D01*
X9774944Y-14199793D02*
X9774944Y-14152174D01*
X9774944Y-14152174D02*
X9784467Y-14114079D01*
X9784467Y-14114079D02*
X9793991Y-14095031D01*
X9793991Y-14095031D02*
X9803515Y-14085508D01*
X9803515Y-14085508D02*
X9822563Y-14075984D01*
X10013039Y-14075984D02*
X10032086Y-14075984D01*
X10032086Y-14075984D02*
X10051134Y-14085508D01*
X10051134Y-14085508D02*
X10060658Y-14095031D01*
X10060658Y-14095031D02*
X10070182Y-14114079D01*
X10070182Y-14114079D02*
X10079705Y-14152174D01*
X10079705Y-14152174D02*
X10079705Y-14199793D01*
X10079705Y-14199793D02*
X10070182Y-14237888D01*
X10070182Y-14237888D02*
X10060658Y-14256936D01*
X10060658Y-14256936D02*
X10051134Y-14266460D01*
X10051134Y-14266460D02*
X10032086Y-14275984D01*
X10032086Y-14275984D02*
X10013039Y-14275984D01*
X10013039Y-14275984D02*
X9993991Y-14266460D01*
X9993991Y-14266460D02*
X9984467Y-14256936D01*
X9984467Y-14256936D02*
X9974944Y-14237888D01*
X9974944Y-14237888D02*
X9965420Y-14199793D01*
X9965420Y-14199793D02*
X9965420Y-14152174D01*
X9965420Y-14152174D02*
X9974944Y-14114079D01*
X9974944Y-14114079D02*
X9984467Y-14095031D01*
X9984467Y-14095031D02*
X9993991Y-14085508D01*
X9993991Y-14085508D02*
X10013039Y-14075984D01*
X10165420Y-14275984D02*
X10165420Y-14142650D01*
X10165420Y-14161698D02*
X10174944Y-14152174D01*
X10174944Y-14152174D02*
X10193991Y-14142650D01*
X10193991Y-14142650D02*
X10222563Y-14142650D01*
X10222563Y-14142650D02*
X10241610Y-14152174D01*
X10241610Y-14152174D02*
X10251134Y-14171222D01*
X10251134Y-14171222D02*
X10251134Y-14275984D01*
X10251134Y-14171222D02*
X10260658Y-14152174D01*
X10260658Y-14152174D02*
X10279705Y-14142650D01*
X10279705Y-14142650D02*
X10308277Y-14142650D01*
X10308277Y-14142650D02*
X10327325Y-14152174D01*
X10327325Y-14152174D02*
X10336848Y-14171222D01*
X10336848Y-14171222D02*
X10336848Y-14275984D01*
X10432086Y-14275984D02*
X10432086Y-14142650D01*
X10432086Y-14161698D02*
X10441610Y-14152174D01*
X10441610Y-14152174D02*
X10460658Y-14142650D01*
X10460658Y-14142650D02*
X10489229Y-14142650D01*
X10489229Y-14142650D02*
X10508277Y-14152174D01*
X10508277Y-14152174D02*
X10517801Y-14171222D01*
X10517801Y-14171222D02*
X10517801Y-14275984D01*
X10517801Y-14171222D02*
X10527325Y-14152174D01*
X10527325Y-14152174D02*
X10546372Y-14142650D01*
X10546372Y-14142650D02*
X10574944Y-14142650D01*
X10574944Y-14142650D02*
X10593991Y-14152174D01*
X10593991Y-14152174D02*
X10603515Y-14171222D01*
X10603515Y-14171222D02*
X10603515Y-14275984D01*
X10993991Y-14066460D02*
X10822563Y-14323603D01*
X11251134Y-14075984D02*
X11270182Y-14075984D01*
X11270182Y-14075984D02*
X11289229Y-14085508D01*
X11289229Y-14085508D02*
X11298753Y-14095031D01*
X11298753Y-14095031D02*
X11308277Y-14114079D01*
X11308277Y-14114079D02*
X11317801Y-14152174D01*
X11317801Y-14152174D02*
X11317801Y-14199793D01*
X11317801Y-14199793D02*
X11308277Y-14237888D01*
X11308277Y-14237888D02*
X11298753Y-14256936D01*
X11298753Y-14256936D02*
X11289229Y-14266460D01*
X11289229Y-14266460D02*
X11270182Y-14275984D01*
X11270182Y-14275984D02*
X11251134Y-14275984D01*
X11251134Y-14275984D02*
X11232086Y-14266460D01*
X11232086Y-14266460D02*
X11222563Y-14256936D01*
X11222563Y-14256936D02*
X11213039Y-14237888D01*
X11213039Y-14237888D02*
X11203515Y-14199793D01*
X11203515Y-14199793D02*
X11203515Y-14152174D01*
X11203515Y-14152174D02*
X11213039Y-14114079D01*
X11213039Y-14114079D02*
X11222563Y-14095031D01*
X11222563Y-14095031D02*
X11232086Y-14085508D01*
X11232086Y-14085508D02*
X11251134Y-14075984D01*
X11403515Y-14256936D02*
X11413039Y-14266460D01*
X11413039Y-14266460D02*
X11403515Y-14275984D01*
X11403515Y-14275984D02*
X11393991Y-14266460D01*
X11393991Y-14266460D02*
X11403515Y-14256936D01*
X11403515Y-14256936D02*
X11403515Y-14275984D01*
X11536848Y-14075984D02*
X11555896Y-14075984D01*
X11555896Y-14075984D02*
X11574944Y-14085508D01*
X11574944Y-14085508D02*
X11584467Y-14095031D01*
X11584467Y-14095031D02*
X11593991Y-14114079D01*
X11593991Y-14114079D02*
X11603515Y-14152174D01*
X11603515Y-14152174D02*
X11603515Y-14199793D01*
X11603515Y-14199793D02*
X11593991Y-14237888D01*
X11593991Y-14237888D02*
X11584467Y-14256936D01*
X11584467Y-14256936D02*
X11574944Y-14266460D01*
X11574944Y-14266460D02*
X11555896Y-14275984D01*
X11555896Y-14275984D02*
X11536848Y-14275984D01*
X11536848Y-14275984D02*
X11517801Y-14266460D01*
X11517801Y-14266460D02*
X11508277Y-14256936D01*
X11508277Y-14256936D02*
X11498753Y-14237888D01*
X11498753Y-14237888D02*
X11489229Y-14199793D01*
X11489229Y-14199793D02*
X11489229Y-14152174D01*
X11489229Y-14152174D02*
X11498753Y-14114079D01*
X11498753Y-14114079D02*
X11508277Y-14095031D01*
X11508277Y-14095031D02*
X11517801Y-14085508D01*
X11517801Y-14085508D02*
X11536848Y-14075984D01*
X11670182Y-14075984D02*
X11793991Y-14075984D01*
X11793991Y-14075984D02*
X11727325Y-14152174D01*
X11727325Y-14152174D02*
X11755896Y-14152174D01*
X11755896Y-14152174D02*
X11774944Y-14161698D01*
X11774944Y-14161698D02*
X11784467Y-14171222D01*
X11784467Y-14171222D02*
X11793991Y-14190269D01*
X11793991Y-14190269D02*
X11793991Y-14237888D01*
X11793991Y-14237888D02*
X11784467Y-14256936D01*
X11784467Y-14256936D02*
X11774944Y-14266460D01*
X11774944Y-14266460D02*
X11755896Y-14275984D01*
X11755896Y-14275984D02*
X11698753Y-14275984D01*
X11698753Y-14275984D02*
X11679706Y-14266460D01*
X11679706Y-14266460D02*
X11670182Y-14256936D01*
X11889229Y-14275984D02*
X11927325Y-14275984D01*
X11927325Y-14275984D02*
X11946372Y-14266460D01*
X11946372Y-14266460D02*
X11955896Y-14256936D01*
X11955896Y-14256936D02*
X11974944Y-14228365D01*
X11974944Y-14228365D02*
X11984467Y-14190269D01*
X11984467Y-14190269D02*
X11984467Y-14114079D01*
X11984467Y-14114079D02*
X11974944Y-14095031D01*
X11974944Y-14095031D02*
X11965420Y-14085508D01*
X11965420Y-14085508D02*
X11946372Y-14075984D01*
X11946372Y-14075984D02*
X11908277Y-14075984D01*
X11908277Y-14075984D02*
X11889229Y-14085508D01*
X11889229Y-14085508D02*
X11879706Y-14095031D01*
X11879706Y-14095031D02*
X11870182Y-14114079D01*
X11870182Y-14114079D02*
X11870182Y-14161698D01*
X11870182Y-14161698D02*
X11879706Y-14180746D01*
X11879706Y-14180746D02*
X11889229Y-14190269D01*
X11889229Y-14190269D02*
X11908277Y-14199793D01*
X11908277Y-14199793D02*
X11946372Y-14199793D01*
X11946372Y-14199793D02*
X11965420Y-14190269D01*
X11965420Y-14190269D02*
X11974944Y-14180746D01*
X11974944Y-14180746D02*
X11984467Y-14161698D01*
X12155896Y-14142650D02*
X12155896Y-14275984D01*
X12108277Y-14066460D02*
X12060658Y-14209317D01*
X12060658Y-14209317D02*
X12184467Y-14209317D01*
X12251134Y-14075984D02*
X12251134Y-14114079D01*
X12327325Y-14075984D02*
X12327325Y-14114079D01*
X12622563Y-14352174D02*
X12613039Y-14342650D01*
X12613039Y-14342650D02*
X12593991Y-14314079D01*
X12593991Y-14314079D02*
X12584468Y-14295031D01*
X12584468Y-14295031D02*
X12574944Y-14266460D01*
X12574944Y-14266460D02*
X12565420Y-14218841D01*
X12565420Y-14218841D02*
X12565420Y-14180746D01*
X12565420Y-14180746D02*
X12574944Y-14133127D01*
X12574944Y-14133127D02*
X12584468Y-14104555D01*
X12584468Y-14104555D02*
X12593991Y-14085508D01*
X12593991Y-14085508D02*
X12613039Y-14056936D01*
X12613039Y-14056936D02*
X12622563Y-14047412D01*
X12793991Y-14075984D02*
X12698753Y-14075984D01*
X12698753Y-14075984D02*
X12689229Y-14171222D01*
X12689229Y-14171222D02*
X12698753Y-14161698D01*
X12698753Y-14161698D02*
X12717801Y-14152174D01*
X12717801Y-14152174D02*
X12765420Y-14152174D01*
X12765420Y-14152174D02*
X12784468Y-14161698D01*
X12784468Y-14161698D02*
X12793991Y-14171222D01*
X12793991Y-14171222D02*
X12803515Y-14190269D01*
X12803515Y-14190269D02*
X12803515Y-14237888D01*
X12803515Y-14237888D02*
X12793991Y-14256936D01*
X12793991Y-14256936D02*
X12784468Y-14266460D01*
X12784468Y-14266460D02*
X12765420Y-14275984D01*
X12765420Y-14275984D02*
X12717801Y-14275984D01*
X12717801Y-14275984D02*
X12698753Y-14266460D01*
X12698753Y-14266460D02*
X12689229Y-14256936D01*
X12993991Y-14275984D02*
X12879706Y-14275984D01*
X12936848Y-14275984D02*
X12936848Y-14075984D01*
X12936848Y-14075984D02*
X12917801Y-14104555D01*
X12917801Y-14104555D02*
X12898753Y-14123603D01*
X12898753Y-14123603D02*
X12879706Y-14133127D01*
X13232087Y-14275984D02*
X13232087Y-14075984D01*
X13317801Y-14275984D02*
X13317801Y-14171222D01*
X13317801Y-14171222D02*
X13308277Y-14152174D01*
X13308277Y-14152174D02*
X13289230Y-14142650D01*
X13289230Y-14142650D02*
X13260658Y-14142650D01*
X13260658Y-14142650D02*
X13241610Y-14152174D01*
X13241610Y-14152174D02*
X13232087Y-14161698D01*
X13441610Y-14275984D02*
X13422563Y-14266460D01*
X13422563Y-14266460D02*
X13413039Y-14256936D01*
X13413039Y-14256936D02*
X13403515Y-14237888D01*
X13403515Y-14237888D02*
X13403515Y-14180746D01*
X13403515Y-14180746D02*
X13413039Y-14161698D01*
X13413039Y-14161698D02*
X13422563Y-14152174D01*
X13422563Y-14152174D02*
X13441610Y-14142650D01*
X13441610Y-14142650D02*
X13470182Y-14142650D01*
X13470182Y-14142650D02*
X13489230Y-14152174D01*
X13489230Y-14152174D02*
X13498753Y-14161698D01*
X13498753Y-14161698D02*
X13508277Y-14180746D01*
X13508277Y-14180746D02*
X13508277Y-14237888D01*
X13508277Y-14237888D02*
X13498753Y-14256936D01*
X13498753Y-14256936D02*
X13489230Y-14266460D01*
X13489230Y-14266460D02*
X13470182Y-14275984D01*
X13470182Y-14275984D02*
X13441610Y-14275984D01*
X13622563Y-14275984D02*
X13603515Y-14266460D01*
X13603515Y-14266460D02*
X13593991Y-14247412D01*
X13593991Y-14247412D02*
X13593991Y-14075984D01*
X13774944Y-14266460D02*
X13755896Y-14275984D01*
X13755896Y-14275984D02*
X13717801Y-14275984D01*
X13717801Y-14275984D02*
X13698753Y-14266460D01*
X13698753Y-14266460D02*
X13689230Y-14247412D01*
X13689230Y-14247412D02*
X13689230Y-14171222D01*
X13689230Y-14171222D02*
X13698753Y-14152174D01*
X13698753Y-14152174D02*
X13717801Y-14142650D01*
X13717801Y-14142650D02*
X13755896Y-14142650D01*
X13755896Y-14142650D02*
X13774944Y-14152174D01*
X13774944Y-14152174D02*
X13784468Y-14171222D01*
X13784468Y-14171222D02*
X13784468Y-14190269D01*
X13784468Y-14190269D02*
X13689230Y-14209317D01*
X13860658Y-14266460D02*
X13879706Y-14275984D01*
X13879706Y-14275984D02*
X13917801Y-14275984D01*
X13917801Y-14275984D02*
X13936849Y-14266460D01*
X13936849Y-14266460D02*
X13946372Y-14247412D01*
X13946372Y-14247412D02*
X13946372Y-14237888D01*
X13946372Y-14237888D02*
X13936849Y-14218841D01*
X13936849Y-14218841D02*
X13917801Y-14209317D01*
X13917801Y-14209317D02*
X13889230Y-14209317D01*
X13889230Y-14209317D02*
X13870182Y-14199793D01*
X13870182Y-14199793D02*
X13860658Y-14180746D01*
X13860658Y-14180746D02*
X13860658Y-14171222D01*
X13860658Y-14171222D02*
X13870182Y-14152174D01*
X13870182Y-14152174D02*
X13889230Y-14142650D01*
X13889230Y-14142650D02*
X13917801Y-14142650D01*
X13917801Y-14142650D02*
X13936849Y-14152174D01*
X14013039Y-14352174D02*
X14022563Y-14342650D01*
X14022563Y-14342650D02*
X14041611Y-14314079D01*
X14041611Y-14314079D02*
X14051134Y-14295031D01*
X14051134Y-14295031D02*
X14060658Y-14266460D01*
X14060658Y-14266460D02*
X14070182Y-14218841D01*
X14070182Y-14218841D02*
X14070182Y-14180746D01*
X14070182Y-14180746D02*
X14060658Y-14133127D01*
X14060658Y-14133127D02*
X14051134Y-14104555D01*
X14051134Y-14104555D02*
X14041611Y-14085508D01*
X14041611Y-14085508D02*
X14022563Y-14056936D01*
X14022563Y-14056936D02*
X14013039Y-14047412D01*
D13*
X8987500Y-14508500D02*
X9047500Y-14448500D01*
X8987500Y-14388500D01*
X8927500Y-14448500D01*
X8987500Y-14508500D01*
D11*
X9413039Y-14539984D02*
X9298753Y-14539984D01*
X9355896Y-14539984D02*
X9355896Y-14339984D01*
X9355896Y-14339984D02*
X9336848Y-14368555D01*
X9336848Y-14368555D02*
X9317801Y-14387603D01*
X9317801Y-14387603D02*
X9298753Y-14397127D01*
X9498753Y-14520936D02*
X9508277Y-14530460D01*
X9508277Y-14530460D02*
X9498753Y-14539984D01*
X9498753Y-14539984D02*
X9489229Y-14530460D01*
X9489229Y-14530460D02*
X9498753Y-14520936D01*
X9498753Y-14520936D02*
X9498753Y-14539984D01*
X9584467Y-14359031D02*
X9593991Y-14349508D01*
X9593991Y-14349508D02*
X9613039Y-14339984D01*
X9613039Y-14339984D02*
X9660658Y-14339984D01*
X9660658Y-14339984D02*
X9679705Y-14349508D01*
X9679705Y-14349508D02*
X9689229Y-14359031D01*
X9689229Y-14359031D02*
X9698753Y-14378079D01*
X9698753Y-14378079D02*
X9698753Y-14397127D01*
X9698753Y-14397127D02*
X9689229Y-14425698D01*
X9689229Y-14425698D02*
X9574944Y-14539984D01*
X9574944Y-14539984D02*
X9698753Y-14539984D01*
X9822563Y-14339984D02*
X9841610Y-14339984D01*
X9841610Y-14339984D02*
X9860658Y-14349508D01*
X9860658Y-14349508D02*
X9870182Y-14359031D01*
X9870182Y-14359031D02*
X9879705Y-14378079D01*
X9879705Y-14378079D02*
X9889229Y-14416174D01*
X9889229Y-14416174D02*
X9889229Y-14463793D01*
X9889229Y-14463793D02*
X9879705Y-14501888D01*
X9879705Y-14501888D02*
X9870182Y-14520936D01*
X9870182Y-14520936D02*
X9860658Y-14530460D01*
X9860658Y-14530460D02*
X9841610Y-14539984D01*
X9841610Y-14539984D02*
X9822563Y-14539984D01*
X9822563Y-14539984D02*
X9803515Y-14530460D01*
X9803515Y-14530460D02*
X9793991Y-14520936D01*
X9793991Y-14520936D02*
X9784467Y-14501888D01*
X9784467Y-14501888D02*
X9774944Y-14463793D01*
X9774944Y-14463793D02*
X9774944Y-14416174D01*
X9774944Y-14416174D02*
X9784467Y-14378079D01*
X9784467Y-14378079D02*
X9793991Y-14359031D01*
X9793991Y-14359031D02*
X9803515Y-14349508D01*
X9803515Y-14349508D02*
X9822563Y-14339984D01*
X10013039Y-14339984D02*
X10032086Y-14339984D01*
X10032086Y-14339984D02*
X10051134Y-14349508D01*
X10051134Y-14349508D02*
X10060658Y-14359031D01*
X10060658Y-14359031D02*
X10070182Y-14378079D01*
X10070182Y-14378079D02*
X10079705Y-14416174D01*
X10079705Y-14416174D02*
X10079705Y-14463793D01*
X10079705Y-14463793D02*
X10070182Y-14501888D01*
X10070182Y-14501888D02*
X10060658Y-14520936D01*
X10060658Y-14520936D02*
X10051134Y-14530460D01*
X10051134Y-14530460D02*
X10032086Y-14539984D01*
X10032086Y-14539984D02*
X10013039Y-14539984D01*
X10013039Y-14539984D02*
X9993991Y-14530460D01*
X9993991Y-14530460D02*
X9984467Y-14520936D01*
X9984467Y-14520936D02*
X9974944Y-14501888D01*
X9974944Y-14501888D02*
X9965420Y-14463793D01*
X9965420Y-14463793D02*
X9965420Y-14416174D01*
X9965420Y-14416174D02*
X9974944Y-14378079D01*
X9974944Y-14378079D02*
X9984467Y-14359031D01*
X9984467Y-14359031D02*
X9993991Y-14349508D01*
X9993991Y-14349508D02*
X10013039Y-14339984D01*
X10165420Y-14539984D02*
X10165420Y-14406650D01*
X10165420Y-14425698D02*
X10174944Y-14416174D01*
X10174944Y-14416174D02*
X10193991Y-14406650D01*
X10193991Y-14406650D02*
X10222563Y-14406650D01*
X10222563Y-14406650D02*
X10241610Y-14416174D01*
X10241610Y-14416174D02*
X10251134Y-14435222D01*
X10251134Y-14435222D02*
X10251134Y-14539984D01*
X10251134Y-14435222D02*
X10260658Y-14416174D01*
X10260658Y-14416174D02*
X10279705Y-14406650D01*
X10279705Y-14406650D02*
X10308277Y-14406650D01*
X10308277Y-14406650D02*
X10327325Y-14416174D01*
X10327325Y-14416174D02*
X10336848Y-14435222D01*
X10336848Y-14435222D02*
X10336848Y-14539984D01*
X10432086Y-14539984D02*
X10432086Y-14406650D01*
X10432086Y-14425698D02*
X10441610Y-14416174D01*
X10441610Y-14416174D02*
X10460658Y-14406650D01*
X10460658Y-14406650D02*
X10489229Y-14406650D01*
X10489229Y-14406650D02*
X10508277Y-14416174D01*
X10508277Y-14416174D02*
X10517801Y-14435222D01*
X10517801Y-14435222D02*
X10517801Y-14539984D01*
X10517801Y-14435222D02*
X10527325Y-14416174D01*
X10527325Y-14416174D02*
X10546372Y-14406650D01*
X10546372Y-14406650D02*
X10574944Y-14406650D01*
X10574944Y-14406650D02*
X10593991Y-14416174D01*
X10593991Y-14416174D02*
X10603515Y-14435222D01*
X10603515Y-14435222D02*
X10603515Y-14539984D01*
X10993991Y-14330460D02*
X10822563Y-14587603D01*
X11251134Y-14339984D02*
X11270182Y-14339984D01*
X11270182Y-14339984D02*
X11289229Y-14349508D01*
X11289229Y-14349508D02*
X11298753Y-14359031D01*
X11298753Y-14359031D02*
X11308277Y-14378079D01*
X11308277Y-14378079D02*
X11317801Y-14416174D01*
X11317801Y-14416174D02*
X11317801Y-14463793D01*
X11317801Y-14463793D02*
X11308277Y-14501888D01*
X11308277Y-14501888D02*
X11298753Y-14520936D01*
X11298753Y-14520936D02*
X11289229Y-14530460D01*
X11289229Y-14530460D02*
X11270182Y-14539984D01*
X11270182Y-14539984D02*
X11251134Y-14539984D01*
X11251134Y-14539984D02*
X11232086Y-14530460D01*
X11232086Y-14530460D02*
X11222563Y-14520936D01*
X11222563Y-14520936D02*
X11213039Y-14501888D01*
X11213039Y-14501888D02*
X11203515Y-14463793D01*
X11203515Y-14463793D02*
X11203515Y-14416174D01*
X11203515Y-14416174D02*
X11213039Y-14378079D01*
X11213039Y-14378079D02*
X11222563Y-14359031D01*
X11222563Y-14359031D02*
X11232086Y-14349508D01*
X11232086Y-14349508D02*
X11251134Y-14339984D01*
X11403515Y-14520936D02*
X11413039Y-14530460D01*
X11413039Y-14530460D02*
X11403515Y-14539984D01*
X11403515Y-14539984D02*
X11393991Y-14530460D01*
X11393991Y-14530460D02*
X11403515Y-14520936D01*
X11403515Y-14520936D02*
X11403515Y-14539984D01*
X11536848Y-14339984D02*
X11555896Y-14339984D01*
X11555896Y-14339984D02*
X11574944Y-14349508D01*
X11574944Y-14349508D02*
X11584467Y-14359031D01*
X11584467Y-14359031D02*
X11593991Y-14378079D01*
X11593991Y-14378079D02*
X11603515Y-14416174D01*
X11603515Y-14416174D02*
X11603515Y-14463793D01*
X11603515Y-14463793D02*
X11593991Y-14501888D01*
X11593991Y-14501888D02*
X11584467Y-14520936D01*
X11584467Y-14520936D02*
X11574944Y-14530460D01*
X11574944Y-14530460D02*
X11555896Y-14539984D01*
X11555896Y-14539984D02*
X11536848Y-14539984D01*
X11536848Y-14539984D02*
X11517801Y-14530460D01*
X11517801Y-14530460D02*
X11508277Y-14520936D01*
X11508277Y-14520936D02*
X11498753Y-14501888D01*
X11498753Y-14501888D02*
X11489229Y-14463793D01*
X11489229Y-14463793D02*
X11489229Y-14416174D01*
X11489229Y-14416174D02*
X11498753Y-14378079D01*
X11498753Y-14378079D02*
X11508277Y-14359031D01*
X11508277Y-14359031D02*
X11517801Y-14349508D01*
X11517801Y-14349508D02*
X11536848Y-14339984D01*
X11774944Y-14406650D02*
X11774944Y-14539984D01*
X11727325Y-14330460D02*
X11679706Y-14473317D01*
X11679706Y-14473317D02*
X11803515Y-14473317D01*
X11860658Y-14339984D02*
X11993991Y-14339984D01*
X11993991Y-14339984D02*
X11908277Y-14539984D01*
X12060658Y-14359031D02*
X12070182Y-14349508D01*
X12070182Y-14349508D02*
X12089229Y-14339984D01*
X12089229Y-14339984D02*
X12136848Y-14339984D01*
X12136848Y-14339984D02*
X12155896Y-14349508D01*
X12155896Y-14349508D02*
X12165420Y-14359031D01*
X12165420Y-14359031D02*
X12174944Y-14378079D01*
X12174944Y-14378079D02*
X12174944Y-14397127D01*
X12174944Y-14397127D02*
X12165420Y-14425698D01*
X12165420Y-14425698D02*
X12051134Y-14539984D01*
X12051134Y-14539984D02*
X12174944Y-14539984D01*
X12251134Y-14339984D02*
X12251134Y-14378079D01*
X12327325Y-14339984D02*
X12327325Y-14378079D01*
X12622563Y-14616174D02*
X12613039Y-14606650D01*
X12613039Y-14606650D02*
X12593991Y-14578079D01*
X12593991Y-14578079D02*
X12584468Y-14559031D01*
X12584468Y-14559031D02*
X12574944Y-14530460D01*
X12574944Y-14530460D02*
X12565420Y-14482841D01*
X12565420Y-14482841D02*
X12565420Y-14444746D01*
X12565420Y-14444746D02*
X12574944Y-14397127D01*
X12574944Y-14397127D02*
X12584468Y-14368555D01*
X12584468Y-14368555D02*
X12593991Y-14349508D01*
X12593991Y-14349508D02*
X12613039Y-14320936D01*
X12613039Y-14320936D02*
X12622563Y-14311412D01*
X12727325Y-14425698D02*
X12708277Y-14416174D01*
X12708277Y-14416174D02*
X12698753Y-14406650D01*
X12698753Y-14406650D02*
X12689229Y-14387603D01*
X12689229Y-14387603D02*
X12689229Y-14378079D01*
X12689229Y-14378079D02*
X12698753Y-14359031D01*
X12698753Y-14359031D02*
X12708277Y-14349508D01*
X12708277Y-14349508D02*
X12727325Y-14339984D01*
X12727325Y-14339984D02*
X12765420Y-14339984D01*
X12765420Y-14339984D02*
X12784468Y-14349508D01*
X12784468Y-14349508D02*
X12793991Y-14359031D01*
X12793991Y-14359031D02*
X12803515Y-14378079D01*
X12803515Y-14378079D02*
X12803515Y-14387603D01*
X12803515Y-14387603D02*
X12793991Y-14406650D01*
X12793991Y-14406650D02*
X12784468Y-14416174D01*
X12784468Y-14416174D02*
X12765420Y-14425698D01*
X12765420Y-14425698D02*
X12727325Y-14425698D01*
X12727325Y-14425698D02*
X12708277Y-14435222D01*
X12708277Y-14435222D02*
X12698753Y-14444746D01*
X12698753Y-14444746D02*
X12689229Y-14463793D01*
X12689229Y-14463793D02*
X12689229Y-14501888D01*
X12689229Y-14501888D02*
X12698753Y-14520936D01*
X12698753Y-14520936D02*
X12708277Y-14530460D01*
X12708277Y-14530460D02*
X12727325Y-14539984D01*
X12727325Y-14539984D02*
X12765420Y-14539984D01*
X12765420Y-14539984D02*
X12784468Y-14530460D01*
X12784468Y-14530460D02*
X12793991Y-14520936D01*
X12793991Y-14520936D02*
X12803515Y-14501888D01*
X12803515Y-14501888D02*
X12803515Y-14463793D01*
X12803515Y-14463793D02*
X12793991Y-14444746D01*
X12793991Y-14444746D02*
X12784468Y-14435222D01*
X12784468Y-14435222D02*
X12765420Y-14425698D01*
X13041610Y-14539984D02*
X13041610Y-14339984D01*
X13127325Y-14539984D02*
X13127325Y-14435222D01*
X13127325Y-14435222D02*
X13117801Y-14416174D01*
X13117801Y-14416174D02*
X13098753Y-14406650D01*
X13098753Y-14406650D02*
X13070182Y-14406650D01*
X13070182Y-14406650D02*
X13051134Y-14416174D01*
X13051134Y-14416174D02*
X13041610Y-14425698D01*
X13251134Y-14539984D02*
X13232087Y-14530460D01*
X13232087Y-14530460D02*
X13222563Y-14520936D01*
X13222563Y-14520936D02*
X13213039Y-14501888D01*
X13213039Y-14501888D02*
X13213039Y-14444746D01*
X13213039Y-14444746D02*
X13222563Y-14425698D01*
X13222563Y-14425698D02*
X13232087Y-14416174D01*
X13232087Y-14416174D02*
X13251134Y-14406650D01*
X13251134Y-14406650D02*
X13279706Y-14406650D01*
X13279706Y-14406650D02*
X13298753Y-14416174D01*
X13298753Y-14416174D02*
X13308277Y-14425698D01*
X13308277Y-14425698D02*
X13317801Y-14444746D01*
X13317801Y-14444746D02*
X13317801Y-14501888D01*
X13317801Y-14501888D02*
X13308277Y-14520936D01*
X13308277Y-14520936D02*
X13298753Y-14530460D01*
X13298753Y-14530460D02*
X13279706Y-14539984D01*
X13279706Y-14539984D02*
X13251134Y-14539984D01*
X13432087Y-14539984D02*
X13413039Y-14530460D01*
X13413039Y-14530460D02*
X13403515Y-14511412D01*
X13403515Y-14511412D02*
X13403515Y-14339984D01*
X13584468Y-14530460D02*
X13565420Y-14539984D01*
X13565420Y-14539984D02*
X13527325Y-14539984D01*
X13527325Y-14539984D02*
X13508277Y-14530460D01*
X13508277Y-14530460D02*
X13498753Y-14511412D01*
X13498753Y-14511412D02*
X13498753Y-14435222D01*
X13498753Y-14435222D02*
X13508277Y-14416174D01*
X13508277Y-14416174D02*
X13527325Y-14406650D01*
X13527325Y-14406650D02*
X13565420Y-14406650D01*
X13565420Y-14406650D02*
X13584468Y-14416174D01*
X13584468Y-14416174D02*
X13593991Y-14435222D01*
X13593991Y-14435222D02*
X13593991Y-14454269D01*
X13593991Y-14454269D02*
X13498753Y-14473317D01*
X13670182Y-14530460D02*
X13689230Y-14539984D01*
X13689230Y-14539984D02*
X13727325Y-14539984D01*
X13727325Y-14539984D02*
X13746372Y-14530460D01*
X13746372Y-14530460D02*
X13755896Y-14511412D01*
X13755896Y-14511412D02*
X13755896Y-14501888D01*
X13755896Y-14501888D02*
X13746372Y-14482841D01*
X13746372Y-14482841D02*
X13727325Y-14473317D01*
X13727325Y-14473317D02*
X13698753Y-14473317D01*
X13698753Y-14473317D02*
X13679706Y-14463793D01*
X13679706Y-14463793D02*
X13670182Y-14444746D01*
X13670182Y-14444746D02*
X13670182Y-14435222D01*
X13670182Y-14435222D02*
X13679706Y-14416174D01*
X13679706Y-14416174D02*
X13698753Y-14406650D01*
X13698753Y-14406650D02*
X13727325Y-14406650D01*
X13727325Y-14406650D02*
X13746372Y-14416174D01*
X13822563Y-14616174D02*
X13832087Y-14606650D01*
X13832087Y-14606650D02*
X13851134Y-14578079D01*
X13851134Y-14578079D02*
X13860658Y-14559031D01*
X13860658Y-14559031D02*
X13870182Y-14530460D01*
X13870182Y-14530460D02*
X13879706Y-14482841D01*
X13879706Y-14482841D02*
X13879706Y-14444746D01*
X13879706Y-14444746D02*
X13870182Y-14397127D01*
X13870182Y-14397127D02*
X13860658Y-14368555D01*
X13860658Y-14368555D02*
X13851134Y-14349508D01*
X13851134Y-14349508D02*
X13832087Y-14320936D01*
X13832087Y-14320936D02*
X13822563Y-14311412D01*
M02*
