G04 #@! TF.GenerationSoftware,KiCad,Pcbnew,9.0.2*
G04 #@! TF.CreationDate,2025-06-18T13:56:45-05:00*
G04 #@! TF.ProjectId,Quake_PCB_3,5175616b-655f-4504-9342-5f332e6b6963,rev?*
G04 #@! TF.SameCoordinates,Original*
G04 #@! TF.FileFunction,Copper,L1,Top*
G04 #@! TF.FilePolarity,Positive*
%FSLAX46Y46*%
G04 Gerber Fmt 4.6, Leading zero omitted, Abs format (unit mm)*
G04 Created by KiCad (PCBNEW 9.0.2) date 2025-06-18 13:56:45*
%MOMM*%
%LPD*%
G01*
G04 APERTURE LIST*
G04 #@! TA.AperFunction,ComponentPad*
%ADD10R,1.700000X1.700000*%
G04 #@! TD*
G04 #@! TA.AperFunction,ComponentPad*
%ADD11O,1.700000X1.700000*%
G04 #@! TD*
G04 #@! TA.AperFunction,ComponentPad*
%ADD12C,1.400000*%
G04 #@! TD*
G04 #@! TA.AperFunction,ComponentPad*
%ADD13O,1.400000X1.400000*%
G04 #@! TD*
G04 #@! TA.AperFunction,ComponentPad*
%ADD14R,1.800000X1.800000*%
G04 #@! TD*
G04 #@! TA.AperFunction,ComponentPad*
%ADD15C,1.800000*%
G04 #@! TD*
G04 #@! TA.AperFunction,ComponentPad*
%ADD16O,2.900000X1.700000*%
G04 #@! TD*
G04 #@! TA.AperFunction,ViaPad*
%ADD17C,0.600000*%
G04 #@! TD*
G04 #@! TA.AperFunction,Conductor*
%ADD18C,0.200000*%
G04 #@! TD*
G04 APERTURE END LIST*
D10*
X183680000Y-74900000D03*
D11*
X181140000Y-74900000D03*
X178600000Y-74900000D03*
X176060000Y-74900000D03*
X173520000Y-74900000D03*
X170980000Y-74900000D03*
X168440000Y-74900000D03*
X165900000Y-74900000D03*
X163360000Y-74900000D03*
D10*
X114520000Y-97500000D03*
D11*
X117060000Y-97500000D03*
X119600000Y-97500000D03*
X122140000Y-97500000D03*
X124680000Y-97500000D03*
X127220000Y-97500000D03*
X129760000Y-97500000D03*
X132300000Y-97500000D03*
X134840000Y-97500000D03*
X137380000Y-97500000D03*
X139920000Y-97500000D03*
X142460000Y-97500000D03*
X145000000Y-97500000D03*
X147540000Y-97500000D03*
X150080000Y-97500000D03*
X152620000Y-97500000D03*
D12*
X150000000Y-79500000D03*
D13*
X142380000Y-79500000D03*
D14*
X135225000Y-79500000D03*
D15*
X137765000Y-79500000D03*
D10*
X114520000Y-117800000D03*
D11*
X117060000Y-117800000D03*
X119600000Y-117800000D03*
X122140000Y-117800000D03*
X124680000Y-117800000D03*
X127220000Y-117800000D03*
X129760000Y-117800000D03*
X132300000Y-117800000D03*
X134840000Y-117800000D03*
X137380000Y-117800000D03*
X139920000Y-117800000D03*
X142460000Y-117800000D03*
D10*
X147800000Y-70960000D03*
D11*
X147800000Y-68420000D03*
X150340000Y-70960000D03*
X150340000Y-68420000D03*
X152880000Y-70960000D03*
X152880000Y-68420000D03*
D10*
X128790000Y-85030000D03*
D11*
X128790000Y-82490000D03*
D16*
X109280000Y-68530000D03*
X121780000Y-68530000D03*
X109280000Y-73530000D03*
X121780000Y-73530000D03*
D14*
X135225000Y-87530000D03*
D15*
X137765000Y-87530000D03*
D12*
X128780000Y-74340000D03*
X128780000Y-66720000D03*
D16*
X109280000Y-84030000D03*
X121780000Y-84030000D03*
X109280000Y-89030000D03*
X121780000Y-89030000D03*
D12*
X149810000Y-87500000D03*
D13*
X142190000Y-87500000D03*
D10*
X135200000Y-71000000D03*
D11*
X135200000Y-68460000D03*
X137740000Y-71000000D03*
X137740000Y-68460000D03*
X140280000Y-71000000D03*
X140280000Y-68460000D03*
D17*
X138901200Y-66721200D03*
X151560400Y-78350500D03*
X171563500Y-77645800D03*
X147800000Y-73662800D03*
X133722100Y-69367100D03*
D18*
X127970000Y-73530000D02*
X128780000Y-74340000D01*
X121780000Y-73530000D02*
X127970000Y-73530000D01*
X109280000Y-73530000D02*
X107528300Y-73530000D01*
X134840000Y-117800000D02*
X133688300Y-117800000D01*
X133688300Y-118068500D02*
X133688300Y-117800000D01*
X132798300Y-118958500D02*
X133688300Y-118068500D01*
X126198200Y-118958500D02*
X132798300Y-118958500D01*
X126031900Y-119124800D02*
X126198200Y-118958500D01*
X126031900Y-119124800D02*
X126198200Y-118958500D01*
X105910400Y-75147900D02*
X107528300Y-73530000D01*
X105910400Y-104182500D02*
X105910400Y-75147900D01*
X118330000Y-116602100D02*
X105910400Y-104182500D01*
X118330000Y-118192100D02*
X118330000Y-116602100D01*
X119498100Y-119360200D02*
X118330000Y-118192100D01*
X125796500Y-119360200D02*
X119498100Y-119360200D01*
X126031900Y-119124800D02*
X125796500Y-119360200D01*
X147777400Y-66721200D02*
X138901200Y-66721200D01*
X149188300Y-68132100D02*
X147777400Y-66721200D01*
X149188300Y-68420000D02*
X149188300Y-68132100D01*
X150340000Y-68420000D02*
X149188300Y-68420000D01*
X151366500Y-78156600D02*
X151560400Y-78350500D01*
X149896900Y-78156600D02*
X151366500Y-78156600D01*
X148307900Y-79745600D02*
X149896900Y-78156600D01*
X148307900Y-82967100D02*
X148307900Y-79745600D01*
X144142300Y-87132700D02*
X148307900Y-82967100D01*
X144042300Y-87132700D02*
X144142300Y-87132700D01*
X143942200Y-87232800D02*
X144042300Y-87132700D01*
X143942200Y-87315400D02*
X143942200Y-87232800D01*
X144002300Y-87375500D02*
X143942200Y-87315400D01*
X144002300Y-87738700D02*
X144002300Y-87375500D01*
X136665800Y-95075200D02*
X144002300Y-87738700D01*
X135614200Y-95075200D02*
X136665800Y-95075200D01*
X133451700Y-97237700D02*
X135614200Y-95075200D01*
X133451700Y-97500000D02*
X133451700Y-97237700D01*
X132300000Y-97500000D02*
X133451700Y-97500000D01*
X140280000Y-71000000D02*
X141431700Y-71000000D01*
X152880000Y-70960000D02*
X151728300Y-70960000D01*
X124680000Y-117800000D02*
X124680000Y-116648300D01*
X141431700Y-72522600D02*
X141431700Y-71000000D01*
X150419700Y-72522600D02*
X141431700Y-72522600D01*
X151728300Y-71214000D02*
X150419700Y-72522600D01*
X151728300Y-70960000D02*
X151728300Y-71214000D01*
X106713800Y-98682100D02*
X124680000Y-116648300D01*
X106713800Y-88101400D02*
X106713800Y-98682100D01*
X108170900Y-86644300D02*
X106713800Y-88101400D01*
X122386400Y-86644300D02*
X108170900Y-86644300D01*
X136508100Y-72522600D02*
X122386400Y-86644300D01*
X141431700Y-72522600D02*
X136508100Y-72522600D01*
X128790000Y-85030000D02*
X127638300Y-85030000D01*
X139920000Y-117800000D02*
X138768300Y-117800000D01*
X125020600Y-87647700D02*
X127638300Y-85030000D01*
X108374500Y-87647700D02*
X125020600Y-87647700D01*
X107517200Y-88505000D02*
X108374500Y-87647700D01*
X107517200Y-90275500D02*
X107517200Y-88505000D01*
X111031400Y-93789700D02*
X107517200Y-90275500D01*
X111031400Y-96194400D02*
X111031400Y-93789700D01*
X114106400Y-99269400D02*
X111031400Y-96194400D01*
X117961700Y-99269400D02*
X114106400Y-99269400D01*
X136110000Y-117417700D02*
X117961700Y-99269400D01*
X136110000Y-118185500D02*
X136110000Y-117417700D01*
X136889400Y-118964900D02*
X136110000Y-118185500D01*
X137891300Y-118964900D02*
X136889400Y-118964900D01*
X138768300Y-118087900D02*
X137891300Y-118964900D01*
X138768300Y-117800000D02*
X138768300Y-118087900D01*
X138891700Y-70731500D02*
X138891700Y-71000000D01*
X139813800Y-69809400D02*
X138891700Y-70731500D01*
X142293800Y-69809400D02*
X139813800Y-69809400D01*
X144596100Y-72111700D02*
X142293800Y-69809400D01*
X148828400Y-72111700D02*
X144596100Y-72111700D01*
X149188300Y-71751800D02*
X148828400Y-72111700D01*
X149188300Y-70960000D02*
X149188300Y-71751800D01*
X150340000Y-70960000D02*
X149188300Y-70960000D01*
X138315900Y-71000000D02*
X138891700Y-71000000D01*
X119600000Y-117800000D02*
X119600000Y-116648300D01*
X138315900Y-71000000D02*
X137740000Y-71000000D01*
X137740000Y-71000000D02*
X136588300Y-71000000D01*
X106312100Y-103360400D02*
X119600000Y-116648300D01*
X106312100Y-87935100D02*
X106312100Y-103360400D01*
X108004600Y-86242600D02*
X106312100Y-87935100D01*
X122137500Y-86242600D02*
X108004600Y-86242600D01*
X136588300Y-71791800D02*
X122137500Y-86242600D01*
X136588300Y-71000000D02*
X136588300Y-71791800D01*
X153148500Y-69571700D02*
X152880000Y-69571700D01*
X154057300Y-70480500D02*
X153148500Y-69571700D01*
X154057300Y-71470800D02*
X154057300Y-70480500D01*
X152535400Y-72992700D02*
X154057300Y-71470800D01*
X138110400Y-72992700D02*
X152535400Y-72992700D01*
X130164100Y-80939000D02*
X138110400Y-72992700D01*
X128659700Y-80939000D02*
X130164100Y-80939000D01*
X122552700Y-87046000D02*
X128659700Y-80939000D01*
X108337200Y-87046000D02*
X122552700Y-87046000D01*
X107115500Y-88267700D02*
X108337200Y-87046000D01*
X107115500Y-92846500D02*
X107115500Y-88267700D01*
X125853200Y-111584200D02*
X107115500Y-92846500D01*
X125853200Y-118297300D02*
X125853200Y-111584200D01*
X125192000Y-118958500D02*
X125853200Y-118297300D01*
X124148600Y-118958500D02*
X125192000Y-118958500D01*
X123291700Y-118101600D02*
X124148600Y-118958500D01*
X123291700Y-117800000D02*
X123291700Y-118101600D01*
X122140000Y-117800000D02*
X123291700Y-117800000D01*
X152880000Y-68420000D02*
X152880000Y-69571700D01*
X129760000Y-97500000D02*
X129760000Y-96514600D01*
X132155300Y-94119300D02*
X129760000Y-96514600D01*
X137053700Y-94119300D02*
X132155300Y-94119300D01*
X143574600Y-87598400D02*
X137053700Y-94119300D01*
X143574600Y-87515800D02*
X143574600Y-87598400D01*
X143499200Y-87440400D02*
X143574600Y-87515800D01*
X143499200Y-87107800D02*
X143499200Y-87440400D01*
X147906100Y-82700900D02*
X143499200Y-87107800D01*
X147906200Y-82700900D02*
X147906100Y-82700900D01*
X147906200Y-79579300D02*
X147906200Y-82700900D01*
X149771900Y-77713600D02*
X147906200Y-79579300D01*
X171495700Y-77713600D02*
X149771900Y-77713600D01*
X171563500Y-77645800D02*
X171495700Y-77713600D01*
X150080000Y-97500000D02*
X151231700Y-97500000D01*
X147800000Y-70960000D02*
X146648300Y-70960000D01*
X183680000Y-74900000D02*
X182816300Y-74900000D01*
X182816300Y-74900000D02*
X182528300Y-74900000D01*
X181579100Y-73662800D02*
X147800000Y-73662800D01*
X182816300Y-74900000D02*
X181579100Y-73662800D01*
X133325800Y-68970800D02*
X133722100Y-69367100D01*
X133325800Y-68970800D02*
X133325800Y-68929500D01*
X133220800Y-68530000D02*
X133325800Y-68635000D01*
X121780000Y-68530000D02*
X133220800Y-68530000D01*
X133325800Y-68929500D02*
X133325800Y-68635000D01*
X142990000Y-67301700D02*
X146648300Y-70960000D01*
X139171600Y-67301700D02*
X142990000Y-67301700D01*
X139150400Y-67322900D02*
X139171600Y-67301700D01*
X138652100Y-67322900D02*
X139150400Y-67322900D01*
X138629400Y-67300200D02*
X138652100Y-67322900D01*
X134660600Y-67300200D02*
X138629400Y-67300200D01*
X133325800Y-68635000D02*
X134660600Y-67300200D01*
X163103100Y-85340600D02*
X166506800Y-85340600D01*
X151231700Y-97212000D02*
X163103100Y-85340600D01*
X151231700Y-97500000D02*
X151231700Y-97212000D01*
X182528300Y-75197800D02*
X182528300Y-74900000D01*
X172385500Y-85340600D02*
X182528300Y-75197800D01*
X166506800Y-85340600D02*
X172385500Y-85340600D01*
X178600000Y-74900000D02*
X177448300Y-74900000D01*
X141325200Y-81788500D02*
X141491500Y-81622200D01*
X141325200Y-81788500D02*
X141491500Y-81622200D01*
X177448300Y-75168500D02*
X177448300Y-74900000D01*
X175572700Y-77044100D02*
X177448300Y-75168500D01*
X150421100Y-77044100D02*
X175572700Y-77044100D01*
X150299600Y-77165600D02*
X150421100Y-77044100D01*
X150299600Y-77165600D02*
X150421100Y-77044100D01*
X127220000Y-93228900D02*
X127220000Y-97500000D01*
X137579500Y-82869400D02*
X127220000Y-93228900D01*
X140244300Y-82869400D02*
X137579500Y-82869400D01*
X141325200Y-81788500D02*
X140244300Y-82869400D01*
X145295300Y-81622200D02*
X141491500Y-81622200D01*
X149751900Y-77165600D02*
X145295300Y-81622200D01*
X150299600Y-77165600D02*
X149751900Y-77165600D01*
X123508600Y-98671400D02*
X124680000Y-97500000D01*
X121635800Y-98671400D02*
X123508600Y-98671400D01*
X120948100Y-97983700D02*
X121635800Y-98671400D01*
X120948100Y-97033900D02*
X120948100Y-97983700D01*
X136538000Y-81444000D02*
X120948100Y-97033900D01*
X137846000Y-81444000D02*
X136538000Y-81444000D01*
X138788300Y-80501700D02*
X137846000Y-81444000D01*
X142794900Y-80501700D02*
X138788300Y-80501700D01*
X147244900Y-76051700D02*
X142794900Y-80501700D01*
X171504600Y-76051700D02*
X147244900Y-76051700D01*
X172368300Y-75188000D02*
X171504600Y-76051700D01*
X172368300Y-74900000D02*
X172368300Y-75188000D01*
X173520000Y-74900000D02*
X172368300Y-74900000D01*
X140280000Y-68460000D02*
X139128300Y-68460000D01*
X117060000Y-117800000D02*
X117060000Y-116648300D01*
X139128300Y-68748000D02*
X139128300Y-68460000D01*
X138264600Y-69611700D02*
X139128300Y-68748000D01*
X134328400Y-69611700D02*
X138264600Y-69611700D01*
X133971300Y-69968800D02*
X134328400Y-69611700D01*
X110490700Y-69968800D02*
X133971300Y-69968800D01*
X105494500Y-74965000D02*
X110490700Y-69968800D01*
X105494500Y-105082800D02*
X105494500Y-74965000D01*
X117060000Y-116648300D02*
X105494500Y-105082800D01*
X122140000Y-97500000D02*
X123291700Y-97500000D01*
X176060000Y-74900000D02*
X174908300Y-74900000D01*
X123291700Y-96530200D02*
X123291700Y-97500000D01*
X137834600Y-81987300D02*
X123291700Y-96530200D01*
X138104000Y-81987300D02*
X137834600Y-81987300D01*
X139088700Y-81002600D02*
X138104000Y-81987300D01*
X145326600Y-81002600D02*
X139088700Y-81002600D01*
X149731600Y-76597600D02*
X145326600Y-81002600D01*
X173479200Y-76597600D02*
X149731600Y-76597600D01*
X174908300Y-75168500D02*
X173479200Y-76597600D01*
X174908300Y-74900000D02*
X174908300Y-75168500D01*
X140961700Y-96348300D02*
X139920000Y-96348300D01*
X149810000Y-87500000D02*
X140961700Y-96348300D01*
X139920000Y-97500000D02*
X139920000Y-96348300D01*
X141158300Y-87530000D02*
X141188300Y-87500000D01*
X137765000Y-87530000D02*
X141158300Y-87530000D01*
X142190000Y-87500000D02*
X141188300Y-87500000D01*
X142380000Y-79500000D02*
X137765000Y-79500000D01*
X150824000Y-80324000D02*
X150000000Y-79500000D01*
X150824000Y-87984300D02*
X150824000Y-80324000D01*
X142460000Y-96348300D02*
X150824000Y-87984300D01*
X142460000Y-97500000D02*
X142460000Y-96348300D01*
X109280000Y-89030000D02*
X111031700Y-89030000D01*
X150992600Y-99127400D02*
X152620000Y-97500000D01*
X119507300Y-99127400D02*
X150992600Y-99127400D01*
X118346700Y-97966800D02*
X119507300Y-99127400D01*
X118346700Y-96345000D02*
X118346700Y-97966800D01*
X111031700Y-89030000D02*
X118346700Y-96345000D01*
M02*
