G04 #@! TF.GenerationSoftware,KiCad,Pcbnew,9.0.2*
G04 #@! TF.CreationDate,2025-06-18T13:56:45-05:00*
G04 #@! TF.ProjectId,Quake_PCB_3,5175616b-655f-4504-9342-5f332e6b6963,rev?*
G04 #@! TF.SameCoordinates,Original*
G04 #@! TF.FileFunction,Legend,Top*
G04 #@! TF.FilePolarity,Positive*
%FSLAX46Y46*%
G04 Gerber Fmt 4.6, Leading zero omitted, Abs format (unit mm)*
G04 Created by KiCad (PCBNEW 9.0.2) date 2025-06-18 13:56:45*
%MOMM*%
%LPD*%
G01*
G04 APERTURE LIST*
%ADD10C,0.100000*%
%ADD11C,0.200000*%
%ADD12C,0.150000*%
%ADD13C,0.120000*%
%ADD14R,1.700000X1.700000*%
%ADD15O,1.700000X1.700000*%
%ADD16C,1.400000*%
%ADD17O,1.400000X1.400000*%
%ADD18R,1.800000X1.800000*%
%ADD19C,1.800000*%
%ADD20O,2.900000X1.700000*%
G04 APERTURE END LIST*
D10*
X157740000Y-102040000D02*
X159190000Y-102050000D01*
X157730000Y-113270000D02*
X157740000Y-102040000D01*
X107890000Y-94980000D02*
X159220000Y-94980000D01*
X159220000Y-120340000D01*
X107890000Y-120340000D01*
X107890000Y-94980000D01*
X178120000Y-93290000D02*
X178120000Y-95090000D01*
X160930000Y-72240000D02*
X186350000Y-72240000D01*
X186350000Y-95110000D01*
X160930000Y-95110000D01*
X160930000Y-72240000D01*
X166900000Y-93290000D02*
X178120000Y-93290000D01*
X157730000Y-113270000D02*
X159220000Y-113270000D01*
X166900000Y-93290000D02*
X166900000Y-95110000D01*
X147436741Y-66327419D02*
X147389122Y-66303609D01*
X147389122Y-66303609D02*
X147317693Y-66303609D01*
X147317693Y-66303609D02*
X147246265Y-66327419D01*
X147246265Y-66327419D02*
X147198646Y-66375038D01*
X147198646Y-66375038D02*
X147174836Y-66422657D01*
X147174836Y-66422657D02*
X147151027Y-66517895D01*
X147151027Y-66517895D02*
X147151027Y-66589323D01*
X147151027Y-66589323D02*
X147174836Y-66684561D01*
X147174836Y-66684561D02*
X147198646Y-66732180D01*
X147198646Y-66732180D02*
X147246265Y-66779800D01*
X147246265Y-66779800D02*
X147317693Y-66803609D01*
X147317693Y-66803609D02*
X147365312Y-66803609D01*
X147365312Y-66803609D02*
X147436741Y-66779800D01*
X147436741Y-66779800D02*
X147460550Y-66755990D01*
X147460550Y-66755990D02*
X147460550Y-66589323D01*
X147460550Y-66589323D02*
X147365312Y-66589323D01*
X147674836Y-66803609D02*
X147674836Y-66303609D01*
X147674836Y-66303609D02*
X147960550Y-66803609D01*
X147960550Y-66803609D02*
X147960550Y-66303609D01*
X148198646Y-66803609D02*
X148198646Y-66303609D01*
X148198646Y-66303609D02*
X148317694Y-66303609D01*
X148317694Y-66303609D02*
X148389122Y-66327419D01*
X148389122Y-66327419D02*
X148436741Y-66375038D01*
X148436741Y-66375038D02*
X148460551Y-66422657D01*
X148460551Y-66422657D02*
X148484360Y-66517895D01*
X148484360Y-66517895D02*
X148484360Y-66589323D01*
X148484360Y-66589323D02*
X148460551Y-66684561D01*
X148460551Y-66684561D02*
X148436741Y-66732180D01*
X148436741Y-66732180D02*
X148389122Y-66779800D01*
X148389122Y-66779800D02*
X148317694Y-66803609D01*
X148317694Y-66803609D02*
X148198646Y-66803609D01*
X121364836Y-95813609D02*
X121364836Y-95313609D01*
X121364836Y-95313609D02*
X121531503Y-95670752D01*
X121531503Y-95670752D02*
X121698169Y-95313609D01*
X121698169Y-95313609D02*
X121698169Y-95813609D01*
X121936265Y-95813609D02*
X121936265Y-95313609D01*
X122150551Y-95789800D02*
X122221979Y-95813609D01*
X122221979Y-95813609D02*
X122341027Y-95813609D01*
X122341027Y-95813609D02*
X122388646Y-95789800D01*
X122388646Y-95789800D02*
X122412455Y-95765990D01*
X122412455Y-95765990D02*
X122436265Y-95718371D01*
X122436265Y-95718371D02*
X122436265Y-95670752D01*
X122436265Y-95670752D02*
X122412455Y-95623133D01*
X122412455Y-95623133D02*
X122388646Y-95599323D01*
X122388646Y-95599323D02*
X122341027Y-95575514D01*
X122341027Y-95575514D02*
X122245789Y-95551704D01*
X122245789Y-95551704D02*
X122198170Y-95527895D01*
X122198170Y-95527895D02*
X122174360Y-95504085D01*
X122174360Y-95504085D02*
X122150551Y-95456466D01*
X122150551Y-95456466D02*
X122150551Y-95408847D01*
X122150551Y-95408847D02*
X122174360Y-95361228D01*
X122174360Y-95361228D02*
X122198170Y-95337419D01*
X122198170Y-95337419D02*
X122245789Y-95313609D01*
X122245789Y-95313609D02*
X122364836Y-95313609D01*
X122364836Y-95313609D02*
X122436265Y-95337419D01*
X122745788Y-95313609D02*
X122841026Y-95313609D01*
X122841026Y-95313609D02*
X122888645Y-95337419D01*
X122888645Y-95337419D02*
X122936264Y-95385038D01*
X122936264Y-95385038D02*
X122960074Y-95480276D01*
X122960074Y-95480276D02*
X122960074Y-95646942D01*
X122960074Y-95646942D02*
X122936264Y-95742180D01*
X122936264Y-95742180D02*
X122888645Y-95789800D01*
X122888645Y-95789800D02*
X122841026Y-95813609D01*
X122841026Y-95813609D02*
X122745788Y-95813609D01*
X122745788Y-95813609D02*
X122698169Y-95789800D01*
X122698169Y-95789800D02*
X122650550Y-95742180D01*
X122650550Y-95742180D02*
X122626741Y-95646942D01*
X122626741Y-95646942D02*
X122626741Y-95480276D01*
X122626741Y-95480276D02*
X122650550Y-95385038D01*
X122650550Y-95385038D02*
X122698169Y-95337419D01*
X122698169Y-95337419D02*
X122745788Y-95313609D01*
X131395546Y-95837855D02*
X131395546Y-95337855D01*
X131395546Y-95575950D02*
X131681260Y-95575950D01*
X131681260Y-95837855D02*
X131681260Y-95337855D01*
X131919356Y-95837855D02*
X131919356Y-95337855D01*
X131919356Y-95337855D02*
X132086023Y-95694998D01*
X132086023Y-95694998D02*
X132252689Y-95337855D01*
X132252689Y-95337855D02*
X132252689Y-95837855D01*
X132490785Y-95837855D02*
X132490785Y-95337855D01*
X132705071Y-95814046D02*
X132776499Y-95837855D01*
X132776499Y-95837855D02*
X132895547Y-95837855D01*
X132895547Y-95837855D02*
X132943166Y-95814046D01*
X132943166Y-95814046D02*
X132966975Y-95790236D01*
X132966975Y-95790236D02*
X132990785Y-95742617D01*
X132990785Y-95742617D02*
X132990785Y-95694998D01*
X132990785Y-95694998D02*
X132966975Y-95647379D01*
X132966975Y-95647379D02*
X132943166Y-95623569D01*
X132943166Y-95623569D02*
X132895547Y-95599760D01*
X132895547Y-95599760D02*
X132800309Y-95575950D01*
X132800309Y-95575950D02*
X132752690Y-95552141D01*
X132752690Y-95552141D02*
X132728880Y-95528331D01*
X132728880Y-95528331D02*
X132705071Y-95480712D01*
X132705071Y-95480712D02*
X132705071Y-95433093D01*
X132705071Y-95433093D02*
X132728880Y-95385474D01*
X132728880Y-95385474D02*
X132752690Y-95361665D01*
X132752690Y-95361665D02*
X132800309Y-95337855D01*
X132800309Y-95337855D02*
X132919356Y-95337855D01*
X132919356Y-95337855D02*
X132990785Y-95361665D01*
X133300308Y-95337855D02*
X133395546Y-95337855D01*
X133395546Y-95337855D02*
X133443165Y-95361665D01*
X133443165Y-95361665D02*
X133490784Y-95409284D01*
X133490784Y-95409284D02*
X133514594Y-95504522D01*
X133514594Y-95504522D02*
X133514594Y-95671188D01*
X133514594Y-95671188D02*
X133490784Y-95766426D01*
X133490784Y-95766426D02*
X133443165Y-95814046D01*
X133443165Y-95814046D02*
X133395546Y-95837855D01*
X133395546Y-95837855D02*
X133300308Y-95837855D01*
X133300308Y-95837855D02*
X133252689Y-95814046D01*
X133252689Y-95814046D02*
X133205070Y-95766426D01*
X133205070Y-95766426D02*
X133181261Y-95671188D01*
X133181261Y-95671188D02*
X133181261Y-95504522D01*
X133181261Y-95504522D02*
X133205070Y-95409284D01*
X133205070Y-95409284D02*
X133252689Y-95361665D01*
X133252689Y-95361665D02*
X133300308Y-95337855D01*
X139504836Y-73113609D02*
X139504836Y-72613609D01*
X139504836Y-72851704D02*
X139790550Y-72851704D01*
X139790550Y-73113609D02*
X139790550Y-72613609D01*
X140028646Y-73113609D02*
X140028646Y-72613609D01*
X140028646Y-72613609D02*
X140195313Y-72970752D01*
X140195313Y-72970752D02*
X140361979Y-72613609D01*
X140361979Y-72613609D02*
X140361979Y-73113609D01*
X140695313Y-72613609D02*
X140790551Y-72613609D01*
X140790551Y-72613609D02*
X140838170Y-72637419D01*
X140838170Y-72637419D02*
X140885789Y-72685038D01*
X140885789Y-72685038D02*
X140909599Y-72780276D01*
X140909599Y-72780276D02*
X140909599Y-72946942D01*
X140909599Y-72946942D02*
X140885789Y-73042180D01*
X140885789Y-73042180D02*
X140838170Y-73089800D01*
X140838170Y-73089800D02*
X140790551Y-73113609D01*
X140790551Y-73113609D02*
X140695313Y-73113609D01*
X140695313Y-73113609D02*
X140647694Y-73089800D01*
X140647694Y-73089800D02*
X140600075Y-73042180D01*
X140600075Y-73042180D02*
X140576266Y-72946942D01*
X140576266Y-72946942D02*
X140576266Y-72780276D01*
X140576266Y-72780276D02*
X140600075Y-72685038D01*
X140600075Y-72685038D02*
X140647694Y-72637419D01*
X140647694Y-72637419D02*
X140695313Y-72613609D01*
X141100076Y-73089800D02*
X141171504Y-73113609D01*
X141171504Y-73113609D02*
X141290552Y-73113609D01*
X141290552Y-73113609D02*
X141338171Y-73089800D01*
X141338171Y-73089800D02*
X141361980Y-73065990D01*
X141361980Y-73065990D02*
X141385790Y-73018371D01*
X141385790Y-73018371D02*
X141385790Y-72970752D01*
X141385790Y-72970752D02*
X141361980Y-72923133D01*
X141361980Y-72923133D02*
X141338171Y-72899323D01*
X141338171Y-72899323D02*
X141290552Y-72875514D01*
X141290552Y-72875514D02*
X141195314Y-72851704D01*
X141195314Y-72851704D02*
X141147695Y-72827895D01*
X141147695Y-72827895D02*
X141123885Y-72804085D01*
X141123885Y-72804085D02*
X141100076Y-72756466D01*
X141100076Y-72756466D02*
X141100076Y-72708847D01*
X141100076Y-72708847D02*
X141123885Y-72661228D01*
X141123885Y-72661228D02*
X141147695Y-72637419D01*
X141147695Y-72637419D02*
X141195314Y-72613609D01*
X141195314Y-72613609D02*
X141314361Y-72613609D01*
X141314361Y-72613609D02*
X141385790Y-72637419D01*
X141600075Y-73113609D02*
X141600075Y-72613609D01*
D11*
X133779197Y-87815504D02*
X133741101Y-87853600D01*
X133741101Y-87853600D02*
X133626816Y-87891695D01*
X133626816Y-87891695D02*
X133550625Y-87891695D01*
X133550625Y-87891695D02*
X133436339Y-87853600D01*
X133436339Y-87853600D02*
X133360149Y-87777409D01*
X133360149Y-87777409D02*
X133322054Y-87701219D01*
X133322054Y-87701219D02*
X133283958Y-87548838D01*
X133283958Y-87548838D02*
X133283958Y-87434552D01*
X133283958Y-87434552D02*
X133322054Y-87282171D01*
X133322054Y-87282171D02*
X133360149Y-87205980D01*
X133360149Y-87205980D02*
X133436339Y-87129790D01*
X133436339Y-87129790D02*
X133550625Y-87091695D01*
X133550625Y-87091695D02*
X133626816Y-87091695D01*
X133626816Y-87091695D02*
X133741101Y-87129790D01*
X133741101Y-87129790D02*
X133779197Y-87167885D01*
D10*
X136665680Y-66776420D02*
X136665680Y-66276420D01*
X136665680Y-66514515D02*
X136951394Y-66514515D01*
X136951394Y-66776420D02*
X136951394Y-66276420D01*
X137189490Y-66776420D02*
X137189490Y-66276420D01*
X137189490Y-66276420D02*
X137356157Y-66633563D01*
X137356157Y-66633563D02*
X137522823Y-66276420D01*
X137522823Y-66276420D02*
X137522823Y-66776420D01*
X137760919Y-66776420D02*
X137760919Y-66276420D01*
X137975205Y-66752611D02*
X138046633Y-66776420D01*
X138046633Y-66776420D02*
X138165681Y-66776420D01*
X138165681Y-66776420D02*
X138213300Y-66752611D01*
X138213300Y-66752611D02*
X138237109Y-66728801D01*
X138237109Y-66728801D02*
X138260919Y-66681182D01*
X138260919Y-66681182D02*
X138260919Y-66633563D01*
X138260919Y-66633563D02*
X138237109Y-66585944D01*
X138237109Y-66585944D02*
X138213300Y-66562134D01*
X138213300Y-66562134D02*
X138165681Y-66538325D01*
X138165681Y-66538325D02*
X138070443Y-66514515D01*
X138070443Y-66514515D02*
X138022824Y-66490706D01*
X138022824Y-66490706D02*
X137999014Y-66466896D01*
X137999014Y-66466896D02*
X137975205Y-66419277D01*
X137975205Y-66419277D02*
X137975205Y-66371658D01*
X137975205Y-66371658D02*
X137999014Y-66324039D01*
X137999014Y-66324039D02*
X138022824Y-66300230D01*
X138022824Y-66300230D02*
X138070443Y-66276420D01*
X138070443Y-66276420D02*
X138189490Y-66276420D01*
X138189490Y-66276420D02*
X138260919Y-66300230D01*
X138570442Y-66276420D02*
X138665680Y-66276420D01*
X138665680Y-66276420D02*
X138713299Y-66300230D01*
X138713299Y-66300230D02*
X138760918Y-66347849D01*
X138760918Y-66347849D02*
X138784728Y-66443087D01*
X138784728Y-66443087D02*
X138784728Y-66609753D01*
X138784728Y-66609753D02*
X138760918Y-66704991D01*
X138760918Y-66704991D02*
X138713299Y-66752611D01*
X138713299Y-66752611D02*
X138665680Y-66776420D01*
X138665680Y-66776420D02*
X138570442Y-66776420D01*
X138570442Y-66776420D02*
X138522823Y-66752611D01*
X138522823Y-66752611D02*
X138475204Y-66704991D01*
X138475204Y-66704991D02*
X138451395Y-66609753D01*
X138451395Y-66609753D02*
X138451395Y-66443087D01*
X138451395Y-66443087D02*
X138475204Y-66347849D01*
X138475204Y-66347849D02*
X138522823Y-66300230D01*
X138522823Y-66300230D02*
X138570442Y-66276420D01*
X134452924Y-119628844D02*
X134524352Y-119652654D01*
X134524352Y-119652654D02*
X134548162Y-119676463D01*
X134548162Y-119676463D02*
X134571971Y-119724082D01*
X134571971Y-119724082D02*
X134571971Y-119795511D01*
X134571971Y-119795511D02*
X134548162Y-119843130D01*
X134548162Y-119843130D02*
X134524352Y-119866940D01*
X134524352Y-119866940D02*
X134476733Y-119890749D01*
X134476733Y-119890749D02*
X134286257Y-119890749D01*
X134286257Y-119890749D02*
X134286257Y-119390749D01*
X134286257Y-119390749D02*
X134452924Y-119390749D01*
X134452924Y-119390749D02*
X134500543Y-119414559D01*
X134500543Y-119414559D02*
X134524352Y-119438368D01*
X134524352Y-119438368D02*
X134548162Y-119485987D01*
X134548162Y-119485987D02*
X134548162Y-119533606D01*
X134548162Y-119533606D02*
X134524352Y-119581225D01*
X134524352Y-119581225D02*
X134500543Y-119605035D01*
X134500543Y-119605035D02*
X134452924Y-119628844D01*
X134452924Y-119628844D02*
X134286257Y-119628844D01*
X134786257Y-119390749D02*
X134786257Y-119795511D01*
X134786257Y-119795511D02*
X134810067Y-119843130D01*
X134810067Y-119843130D02*
X134833876Y-119866940D01*
X134833876Y-119866940D02*
X134881495Y-119890749D01*
X134881495Y-119890749D02*
X134976733Y-119890749D01*
X134976733Y-119890749D02*
X135024352Y-119866940D01*
X135024352Y-119866940D02*
X135048162Y-119843130D01*
X135048162Y-119843130D02*
X135071971Y-119795511D01*
X135071971Y-119795511D02*
X135071971Y-119390749D01*
X135238639Y-119390749D02*
X135524353Y-119390749D01*
X135381496Y-119890749D02*
X135381496Y-119390749D01*
X174315163Y-72676390D02*
X174315163Y-73176390D01*
X174315163Y-73176390D02*
X174148496Y-72819247D01*
X174148496Y-72819247D02*
X173981830Y-73176390D01*
X173981830Y-73176390D02*
X173981830Y-72676390D01*
X173648496Y-73176390D02*
X173553258Y-73176390D01*
X173553258Y-73176390D02*
X173505639Y-73152580D01*
X173505639Y-73152580D02*
X173458020Y-73104961D01*
X173458020Y-73104961D02*
X173434210Y-73009723D01*
X173434210Y-73009723D02*
X173434210Y-72843057D01*
X173434210Y-72843057D02*
X173458020Y-72747819D01*
X173458020Y-72747819D02*
X173505639Y-72700200D01*
X173505639Y-72700200D02*
X173553258Y-72676390D01*
X173553258Y-72676390D02*
X173648496Y-72676390D01*
X173648496Y-72676390D02*
X173696115Y-72700200D01*
X173696115Y-72700200D02*
X173743734Y-72747819D01*
X173743734Y-72747819D02*
X173767543Y-72843057D01*
X173767543Y-72843057D02*
X173767543Y-73009723D01*
X173767543Y-73009723D02*
X173743734Y-73104961D01*
X173743734Y-73104961D02*
X173696115Y-73152580D01*
X173696115Y-73152580D02*
X173648496Y-73176390D01*
X173243733Y-72700200D02*
X173172305Y-72676390D01*
X173172305Y-72676390D02*
X173053257Y-72676390D01*
X173053257Y-72676390D02*
X173005638Y-72700200D01*
X173005638Y-72700200D02*
X172981829Y-72724009D01*
X172981829Y-72724009D02*
X172958019Y-72771628D01*
X172958019Y-72771628D02*
X172958019Y-72819247D01*
X172958019Y-72819247D02*
X172981829Y-72866866D01*
X172981829Y-72866866D02*
X173005638Y-72890676D01*
X173005638Y-72890676D02*
X173053257Y-72914485D01*
X173053257Y-72914485D02*
X173148495Y-72938295D01*
X173148495Y-72938295D02*
X173196114Y-72962104D01*
X173196114Y-72962104D02*
X173219924Y-72985914D01*
X173219924Y-72985914D02*
X173243733Y-73033533D01*
X173243733Y-73033533D02*
X173243733Y-73081152D01*
X173243733Y-73081152D02*
X173219924Y-73128771D01*
X173219924Y-73128771D02*
X173196114Y-73152580D01*
X173196114Y-73152580D02*
X173148495Y-73176390D01*
X173148495Y-73176390D02*
X173029448Y-73176390D01*
X173029448Y-73176390D02*
X172958019Y-73152580D01*
X172743734Y-72676390D02*
X172743734Y-73176390D01*
X118794836Y-119893609D02*
X118794836Y-119393609D01*
X118794836Y-119631704D02*
X119080550Y-119631704D01*
X119080550Y-119893609D02*
X119080550Y-119393609D01*
X119294837Y-119869800D02*
X119366265Y-119893609D01*
X119366265Y-119893609D02*
X119485313Y-119893609D01*
X119485313Y-119893609D02*
X119532932Y-119869800D01*
X119532932Y-119869800D02*
X119556741Y-119845990D01*
X119556741Y-119845990D02*
X119580551Y-119798371D01*
X119580551Y-119798371D02*
X119580551Y-119750752D01*
X119580551Y-119750752D02*
X119556741Y-119703133D01*
X119556741Y-119703133D02*
X119532932Y-119679323D01*
X119532932Y-119679323D02*
X119485313Y-119655514D01*
X119485313Y-119655514D02*
X119390075Y-119631704D01*
X119390075Y-119631704D02*
X119342456Y-119607895D01*
X119342456Y-119607895D02*
X119318646Y-119584085D01*
X119318646Y-119584085D02*
X119294837Y-119536466D01*
X119294837Y-119536466D02*
X119294837Y-119488847D01*
X119294837Y-119488847D02*
X119318646Y-119441228D01*
X119318646Y-119441228D02*
X119342456Y-119417419D01*
X119342456Y-119417419D02*
X119390075Y-119393609D01*
X119390075Y-119393609D02*
X119509122Y-119393609D01*
X119509122Y-119393609D02*
X119580551Y-119417419D01*
X120080550Y-119845990D02*
X120056741Y-119869800D01*
X120056741Y-119869800D02*
X119985312Y-119893609D01*
X119985312Y-119893609D02*
X119937693Y-119893609D01*
X119937693Y-119893609D02*
X119866265Y-119869800D01*
X119866265Y-119869800D02*
X119818646Y-119822180D01*
X119818646Y-119822180D02*
X119794836Y-119774561D01*
X119794836Y-119774561D02*
X119771027Y-119679323D01*
X119771027Y-119679323D02*
X119771027Y-119607895D01*
X119771027Y-119607895D02*
X119794836Y-119512657D01*
X119794836Y-119512657D02*
X119818646Y-119465038D01*
X119818646Y-119465038D02*
X119866265Y-119417419D01*
X119866265Y-119417419D02*
X119937693Y-119393609D01*
X119937693Y-119393609D02*
X119985312Y-119393609D01*
X119985312Y-119393609D02*
X120056741Y-119417419D01*
X120056741Y-119417419D02*
X120080550Y-119441228D01*
X120294836Y-119893609D02*
X120294836Y-119393609D01*
X120580550Y-119893609D02*
X120366265Y-119607895D01*
X120580550Y-119393609D02*
X120294836Y-119679323D01*
X152380550Y-66755990D02*
X152356741Y-66779800D01*
X152356741Y-66779800D02*
X152285312Y-66803609D01*
X152285312Y-66803609D02*
X152237693Y-66803609D01*
X152237693Y-66803609D02*
X152166265Y-66779800D01*
X152166265Y-66779800D02*
X152118646Y-66732180D01*
X152118646Y-66732180D02*
X152094836Y-66684561D01*
X152094836Y-66684561D02*
X152071027Y-66589323D01*
X152071027Y-66589323D02*
X152071027Y-66517895D01*
X152071027Y-66517895D02*
X152094836Y-66422657D01*
X152094836Y-66422657D02*
X152118646Y-66375038D01*
X152118646Y-66375038D02*
X152166265Y-66327419D01*
X152166265Y-66327419D02*
X152237693Y-66303609D01*
X152237693Y-66303609D02*
X152285312Y-66303609D01*
X152285312Y-66303609D02*
X152356741Y-66327419D01*
X152356741Y-66327419D02*
X152380550Y-66351228D01*
X152571027Y-66779800D02*
X152642455Y-66803609D01*
X152642455Y-66803609D02*
X152761503Y-66803609D01*
X152761503Y-66803609D02*
X152809122Y-66779800D01*
X152809122Y-66779800D02*
X152832931Y-66755990D01*
X152832931Y-66755990D02*
X152856741Y-66708371D01*
X152856741Y-66708371D02*
X152856741Y-66660752D01*
X152856741Y-66660752D02*
X152832931Y-66613133D01*
X152832931Y-66613133D02*
X152809122Y-66589323D01*
X152809122Y-66589323D02*
X152761503Y-66565514D01*
X152761503Y-66565514D02*
X152666265Y-66541704D01*
X152666265Y-66541704D02*
X152618646Y-66517895D01*
X152618646Y-66517895D02*
X152594836Y-66494085D01*
X152594836Y-66494085D02*
X152571027Y-66446466D01*
X152571027Y-66446466D02*
X152571027Y-66398847D01*
X152571027Y-66398847D02*
X152594836Y-66351228D01*
X152594836Y-66351228D02*
X152618646Y-66327419D01*
X152618646Y-66327419D02*
X152666265Y-66303609D01*
X152666265Y-66303609D02*
X152785312Y-66303609D01*
X152785312Y-66303609D02*
X152856741Y-66327419D01*
X152951979Y-66851228D02*
X153332931Y-66851228D01*
X153428169Y-66351228D02*
X153451978Y-66327419D01*
X153451978Y-66327419D02*
X153499597Y-66303609D01*
X153499597Y-66303609D02*
X153618645Y-66303609D01*
X153618645Y-66303609D02*
X153666264Y-66327419D01*
X153666264Y-66327419D02*
X153690073Y-66351228D01*
X153690073Y-66351228D02*
X153713883Y-66398847D01*
X153713883Y-66398847D02*
X153713883Y-66446466D01*
X153713883Y-66446466D02*
X153690073Y-66517895D01*
X153690073Y-66517895D02*
X153404359Y-66803609D01*
X153404359Y-66803609D02*
X153713883Y-66803609D01*
X136965659Y-73130529D02*
X136965659Y-72630529D01*
X136965659Y-72868624D02*
X137251373Y-72868624D01*
X137251373Y-73130529D02*
X137251373Y-72630529D01*
X137465660Y-73106720D02*
X137537088Y-73130529D01*
X137537088Y-73130529D02*
X137656136Y-73130529D01*
X137656136Y-73130529D02*
X137703755Y-73106720D01*
X137703755Y-73106720D02*
X137727564Y-73082910D01*
X137727564Y-73082910D02*
X137751374Y-73035291D01*
X137751374Y-73035291D02*
X137751374Y-72987672D01*
X137751374Y-72987672D02*
X137727564Y-72940053D01*
X137727564Y-72940053D02*
X137703755Y-72916243D01*
X137703755Y-72916243D02*
X137656136Y-72892434D01*
X137656136Y-72892434D02*
X137560898Y-72868624D01*
X137560898Y-72868624D02*
X137513279Y-72844815D01*
X137513279Y-72844815D02*
X137489469Y-72821005D01*
X137489469Y-72821005D02*
X137465660Y-72773386D01*
X137465660Y-72773386D02*
X137465660Y-72725767D01*
X137465660Y-72725767D02*
X137489469Y-72678148D01*
X137489469Y-72678148D02*
X137513279Y-72654339D01*
X137513279Y-72654339D02*
X137560898Y-72630529D01*
X137560898Y-72630529D02*
X137679945Y-72630529D01*
X137679945Y-72630529D02*
X137751374Y-72654339D01*
X138251373Y-73082910D02*
X138227564Y-73106720D01*
X138227564Y-73106720D02*
X138156135Y-73130529D01*
X138156135Y-73130529D02*
X138108516Y-73130529D01*
X138108516Y-73130529D02*
X138037088Y-73106720D01*
X138037088Y-73106720D02*
X137989469Y-73059100D01*
X137989469Y-73059100D02*
X137965659Y-73011481D01*
X137965659Y-73011481D02*
X137941850Y-72916243D01*
X137941850Y-72916243D02*
X137941850Y-72844815D01*
X137941850Y-72844815D02*
X137965659Y-72749577D01*
X137965659Y-72749577D02*
X137989469Y-72701958D01*
X137989469Y-72701958D02*
X138037088Y-72654339D01*
X138037088Y-72654339D02*
X138108516Y-72630529D01*
X138108516Y-72630529D02*
X138156135Y-72630529D01*
X138156135Y-72630529D02*
X138227564Y-72654339D01*
X138227564Y-72654339D02*
X138251373Y-72678148D01*
X138465659Y-73130529D02*
X138465659Y-72630529D01*
X138751373Y-73130529D02*
X138537088Y-72844815D01*
X138751373Y-72630529D02*
X138465659Y-72916243D01*
X179268972Y-72700200D02*
X179197544Y-72676390D01*
X179197544Y-72676390D02*
X179078496Y-72676390D01*
X179078496Y-72676390D02*
X179030877Y-72700200D01*
X179030877Y-72700200D02*
X179007068Y-72724009D01*
X179007068Y-72724009D02*
X178983258Y-72771628D01*
X178983258Y-72771628D02*
X178983258Y-72819247D01*
X178983258Y-72819247D02*
X179007068Y-72866866D01*
X179007068Y-72866866D02*
X179030877Y-72890676D01*
X179030877Y-72890676D02*
X179078496Y-72914485D01*
X179078496Y-72914485D02*
X179173734Y-72938295D01*
X179173734Y-72938295D02*
X179221353Y-72962104D01*
X179221353Y-72962104D02*
X179245163Y-72985914D01*
X179245163Y-72985914D02*
X179268972Y-73033533D01*
X179268972Y-73033533D02*
X179268972Y-73081152D01*
X179268972Y-73081152D02*
X179245163Y-73128771D01*
X179245163Y-73128771D02*
X179221353Y-73152580D01*
X179221353Y-73152580D02*
X179173734Y-73176390D01*
X179173734Y-73176390D02*
X179054687Y-73176390D01*
X179054687Y-73176390D02*
X178983258Y-73152580D01*
X178483259Y-72724009D02*
X178507068Y-72700200D01*
X178507068Y-72700200D02*
X178578497Y-72676390D01*
X178578497Y-72676390D02*
X178626116Y-72676390D01*
X178626116Y-72676390D02*
X178697544Y-72700200D01*
X178697544Y-72700200D02*
X178745163Y-72747819D01*
X178745163Y-72747819D02*
X178768973Y-72795438D01*
X178768973Y-72795438D02*
X178792782Y-72890676D01*
X178792782Y-72890676D02*
X178792782Y-72962104D01*
X178792782Y-72962104D02*
X178768973Y-73057342D01*
X178768973Y-73057342D02*
X178745163Y-73104961D01*
X178745163Y-73104961D02*
X178697544Y-73152580D01*
X178697544Y-73152580D02*
X178626116Y-73176390D01*
X178626116Y-73176390D02*
X178578497Y-73176390D01*
X178578497Y-73176390D02*
X178507068Y-73152580D01*
X178507068Y-73152580D02*
X178483259Y-73128771D01*
X178268973Y-72676390D02*
X178268973Y-73176390D01*
X177983259Y-72676390D02*
X178197544Y-72962104D01*
X177983259Y-73176390D02*
X178268973Y-72890676D01*
X134762217Y-72573609D02*
X135071741Y-72573609D01*
X135071741Y-72573609D02*
X134905074Y-72764085D01*
X134905074Y-72764085D02*
X134976503Y-72764085D01*
X134976503Y-72764085D02*
X135024122Y-72787895D01*
X135024122Y-72787895D02*
X135047931Y-72811704D01*
X135047931Y-72811704D02*
X135071741Y-72859323D01*
X135071741Y-72859323D02*
X135071741Y-72978371D01*
X135071741Y-72978371D02*
X135047931Y-73025990D01*
X135047931Y-73025990D02*
X135024122Y-73049800D01*
X135024122Y-73049800D02*
X134976503Y-73073609D01*
X134976503Y-73073609D02*
X134833646Y-73073609D01*
X134833646Y-73073609D02*
X134786027Y-73049800D01*
X134786027Y-73049800D02*
X134762217Y-73025990D01*
X135214598Y-72573609D02*
X135381264Y-73073609D01*
X135381264Y-73073609D02*
X135547931Y-72573609D01*
X149292086Y-66803691D02*
X149292086Y-66303691D01*
X149292086Y-66541786D02*
X149577800Y-66541786D01*
X149577800Y-66803691D02*
X149577800Y-66303691D01*
X149815896Y-66803691D02*
X149815896Y-66303691D01*
X149815896Y-66303691D02*
X149982563Y-66660834D01*
X149982563Y-66660834D02*
X150149229Y-66303691D01*
X150149229Y-66303691D02*
X150149229Y-66803691D01*
X150387325Y-66803691D02*
X150387325Y-66303691D01*
X150601611Y-66779882D02*
X150673039Y-66803691D01*
X150673039Y-66803691D02*
X150792087Y-66803691D01*
X150792087Y-66803691D02*
X150839706Y-66779882D01*
X150839706Y-66779882D02*
X150863515Y-66756072D01*
X150863515Y-66756072D02*
X150887325Y-66708453D01*
X150887325Y-66708453D02*
X150887325Y-66660834D01*
X150887325Y-66660834D02*
X150863515Y-66613215D01*
X150863515Y-66613215D02*
X150839706Y-66589405D01*
X150839706Y-66589405D02*
X150792087Y-66565596D01*
X150792087Y-66565596D02*
X150696849Y-66541786D01*
X150696849Y-66541786D02*
X150649230Y-66517977D01*
X150649230Y-66517977D02*
X150625420Y-66494167D01*
X150625420Y-66494167D02*
X150601611Y-66446548D01*
X150601611Y-66446548D02*
X150601611Y-66398929D01*
X150601611Y-66398929D02*
X150625420Y-66351310D01*
X150625420Y-66351310D02*
X150649230Y-66327501D01*
X150649230Y-66327501D02*
X150696849Y-66303691D01*
X150696849Y-66303691D02*
X150815896Y-66303691D01*
X150815896Y-66303691D02*
X150887325Y-66327501D01*
X151196848Y-66303691D02*
X151292086Y-66303691D01*
X151292086Y-66303691D02*
X151339705Y-66327501D01*
X151339705Y-66327501D02*
X151387324Y-66375120D01*
X151387324Y-66375120D02*
X151411134Y-66470358D01*
X151411134Y-66470358D02*
X151411134Y-66637024D01*
X151411134Y-66637024D02*
X151387324Y-66732262D01*
X151387324Y-66732262D02*
X151339705Y-66779882D01*
X151339705Y-66779882D02*
X151292086Y-66803691D01*
X151292086Y-66803691D02*
X151196848Y-66803691D01*
X151196848Y-66803691D02*
X151149229Y-66779882D01*
X151149229Y-66779882D02*
X151101610Y-66732262D01*
X151101610Y-66732262D02*
X151077801Y-66637024D01*
X151077801Y-66637024D02*
X151077801Y-66470358D01*
X151077801Y-66470358D02*
X151101610Y-66375120D01*
X151101610Y-66375120D02*
X151149229Y-66327501D01*
X151149229Y-66327501D02*
X151196848Y-66303691D01*
X139574836Y-119631704D02*
X139741503Y-119631704D01*
X139812931Y-119893609D02*
X139574836Y-119893609D01*
X139574836Y-119893609D02*
X139574836Y-119393609D01*
X139574836Y-119393609D02*
X139812931Y-119393609D01*
X140027217Y-119893609D02*
X140027217Y-119393609D01*
X140027217Y-119393609D02*
X140312931Y-119893609D01*
X140312931Y-119893609D02*
X140312931Y-119393609D01*
X129000550Y-95765990D02*
X128976741Y-95789800D01*
X128976741Y-95789800D02*
X128905312Y-95813609D01*
X128905312Y-95813609D02*
X128857693Y-95813609D01*
X128857693Y-95813609D02*
X128786265Y-95789800D01*
X128786265Y-95789800D02*
X128738646Y-95742180D01*
X128738646Y-95742180D02*
X128714836Y-95694561D01*
X128714836Y-95694561D02*
X128691027Y-95599323D01*
X128691027Y-95599323D02*
X128691027Y-95527895D01*
X128691027Y-95527895D02*
X128714836Y-95432657D01*
X128714836Y-95432657D02*
X128738646Y-95385038D01*
X128738646Y-95385038D02*
X128786265Y-95337419D01*
X128786265Y-95337419D02*
X128857693Y-95313609D01*
X128857693Y-95313609D02*
X128905312Y-95313609D01*
X128905312Y-95313609D02*
X128976741Y-95337419D01*
X128976741Y-95337419D02*
X129000550Y-95361228D01*
X129191027Y-95789800D02*
X129262455Y-95813609D01*
X129262455Y-95813609D02*
X129381503Y-95813609D01*
X129381503Y-95813609D02*
X129429122Y-95789800D01*
X129429122Y-95789800D02*
X129452931Y-95765990D01*
X129452931Y-95765990D02*
X129476741Y-95718371D01*
X129476741Y-95718371D02*
X129476741Y-95670752D01*
X129476741Y-95670752D02*
X129452931Y-95623133D01*
X129452931Y-95623133D02*
X129429122Y-95599323D01*
X129429122Y-95599323D02*
X129381503Y-95575514D01*
X129381503Y-95575514D02*
X129286265Y-95551704D01*
X129286265Y-95551704D02*
X129238646Y-95527895D01*
X129238646Y-95527895D02*
X129214836Y-95504085D01*
X129214836Y-95504085D02*
X129191027Y-95456466D01*
X129191027Y-95456466D02*
X129191027Y-95408847D01*
X129191027Y-95408847D02*
X129214836Y-95361228D01*
X129214836Y-95361228D02*
X129238646Y-95337419D01*
X129238646Y-95337419D02*
X129286265Y-95313609D01*
X129286265Y-95313609D02*
X129405312Y-95313609D01*
X129405312Y-95313609D02*
X129476741Y-95337419D01*
X129571979Y-95861228D02*
X129952931Y-95861228D01*
X130048169Y-95789800D02*
X130119597Y-95813609D01*
X130119597Y-95813609D02*
X130238645Y-95813609D01*
X130238645Y-95813609D02*
X130286264Y-95789800D01*
X130286264Y-95789800D02*
X130310073Y-95765990D01*
X130310073Y-95765990D02*
X130333883Y-95718371D01*
X130333883Y-95718371D02*
X130333883Y-95670752D01*
X130333883Y-95670752D02*
X130310073Y-95623133D01*
X130310073Y-95623133D02*
X130286264Y-95599323D01*
X130286264Y-95599323D02*
X130238645Y-95575514D01*
X130238645Y-95575514D02*
X130143407Y-95551704D01*
X130143407Y-95551704D02*
X130095788Y-95527895D01*
X130095788Y-95527895D02*
X130071978Y-95504085D01*
X130071978Y-95504085D02*
X130048169Y-95456466D01*
X130048169Y-95456466D02*
X130048169Y-95408847D01*
X130048169Y-95408847D02*
X130071978Y-95361228D01*
X130071978Y-95361228D02*
X130095788Y-95337419D01*
X130095788Y-95337419D02*
X130143407Y-95313609D01*
X130143407Y-95313609D02*
X130262454Y-95313609D01*
X130262454Y-95313609D02*
X130333883Y-95337419D01*
X130548168Y-95813609D02*
X130548168Y-95313609D01*
X130548168Y-95313609D02*
X130667216Y-95313609D01*
X130667216Y-95313609D02*
X130738644Y-95337419D01*
X130738644Y-95337419D02*
X130786263Y-95385038D01*
X130786263Y-95385038D02*
X130810073Y-95432657D01*
X130810073Y-95432657D02*
X130833882Y-95527895D01*
X130833882Y-95527895D02*
X130833882Y-95599323D01*
X130833882Y-95599323D02*
X130810073Y-95694561D01*
X130810073Y-95694561D02*
X130786263Y-95742180D01*
X130786263Y-95742180D02*
X130738644Y-95789800D01*
X130738644Y-95789800D02*
X130667216Y-95813609D01*
X130667216Y-95813609D02*
X130548168Y-95813609D01*
X139030074Y-95313609D02*
X139125312Y-95313609D01*
X139125312Y-95313609D02*
X139172931Y-95337419D01*
X139172931Y-95337419D02*
X139220550Y-95385038D01*
X139220550Y-95385038D02*
X139244360Y-95480276D01*
X139244360Y-95480276D02*
X139244360Y-95646942D01*
X139244360Y-95646942D02*
X139220550Y-95742180D01*
X139220550Y-95742180D02*
X139172931Y-95789800D01*
X139172931Y-95789800D02*
X139125312Y-95813609D01*
X139125312Y-95813609D02*
X139030074Y-95813609D01*
X139030074Y-95813609D02*
X138982455Y-95789800D01*
X138982455Y-95789800D02*
X138934836Y-95742180D01*
X138934836Y-95742180D02*
X138911027Y-95646942D01*
X138911027Y-95646942D02*
X138911027Y-95480276D01*
X138911027Y-95480276D02*
X138934836Y-95385038D01*
X138934836Y-95385038D02*
X138982455Y-95337419D01*
X138982455Y-95337419D02*
X139030074Y-95313609D01*
X139458646Y-95813609D02*
X139458646Y-95313609D01*
X139458646Y-95313609D02*
X139649122Y-95313609D01*
X139649122Y-95313609D02*
X139696741Y-95337419D01*
X139696741Y-95337419D02*
X139720551Y-95361228D01*
X139720551Y-95361228D02*
X139744360Y-95408847D01*
X139744360Y-95408847D02*
X139744360Y-95480276D01*
X139744360Y-95480276D02*
X139720551Y-95527895D01*
X139720551Y-95527895D02*
X139696741Y-95551704D01*
X139696741Y-95551704D02*
X139649122Y-95575514D01*
X139649122Y-95575514D02*
X139458646Y-95575514D01*
X139958646Y-95551704D02*
X140125313Y-95551704D01*
X140196741Y-95813609D02*
X139958646Y-95813609D01*
X139958646Y-95813609D02*
X139958646Y-95313609D01*
X139958646Y-95313609D02*
X140196741Y-95313609D01*
X140696741Y-95813609D02*
X140530075Y-95575514D01*
X140411027Y-95813609D02*
X140411027Y-95313609D01*
X140411027Y-95313609D02*
X140601503Y-95313609D01*
X140601503Y-95313609D02*
X140649122Y-95337419D01*
X140649122Y-95337419D02*
X140672932Y-95361228D01*
X140672932Y-95361228D02*
X140696741Y-95408847D01*
X140696741Y-95408847D02*
X140696741Y-95480276D01*
X140696741Y-95480276D02*
X140672932Y-95527895D01*
X140672932Y-95527895D02*
X140649122Y-95551704D01*
X140649122Y-95551704D02*
X140601503Y-95575514D01*
X140601503Y-95575514D02*
X140411027Y-95575514D01*
D12*
X128208207Y-79619291D02*
X128132017Y-79581196D01*
X128132017Y-79581196D02*
X128017731Y-79581196D01*
X128017731Y-79581196D02*
X127903445Y-79619291D01*
X127903445Y-79619291D02*
X127827255Y-79695481D01*
X127827255Y-79695481D02*
X127789160Y-79771672D01*
X127789160Y-79771672D02*
X127751064Y-79924053D01*
X127751064Y-79924053D02*
X127751064Y-80038339D01*
X127751064Y-80038339D02*
X127789160Y-80190720D01*
X127789160Y-80190720D02*
X127827255Y-80266910D01*
X127827255Y-80266910D02*
X127903445Y-80343101D01*
X127903445Y-80343101D02*
X128017731Y-80381196D01*
X128017731Y-80381196D02*
X128093922Y-80381196D01*
X128093922Y-80381196D02*
X128208207Y-80343101D01*
X128208207Y-80343101D02*
X128246303Y-80305005D01*
X128246303Y-80305005D02*
X128246303Y-80038339D01*
X128246303Y-80038339D02*
X128093922Y-80038339D01*
X128589160Y-80381196D02*
X128589160Y-79581196D01*
X128589160Y-79581196D02*
X129046303Y-80381196D01*
X129046303Y-80381196D02*
X129046303Y-79581196D01*
X129427255Y-80381196D02*
X129427255Y-79581196D01*
X129427255Y-79581196D02*
X129617731Y-79581196D01*
X129617731Y-79581196D02*
X129732017Y-79619291D01*
X129732017Y-79619291D02*
X129808207Y-79695481D01*
X129808207Y-79695481D02*
X129846302Y-79771672D01*
X129846302Y-79771672D02*
X129884398Y-79924053D01*
X129884398Y-79924053D02*
X129884398Y-80038339D01*
X129884398Y-80038339D02*
X129846302Y-80190720D01*
X129846302Y-80190720D02*
X129808207Y-80266910D01*
X129808207Y-80266910D02*
X129732017Y-80343101D01*
X129732017Y-80343101D02*
X129617731Y-80381196D01*
X129617731Y-80381196D02*
X129427255Y-80381196D01*
D11*
X133779197Y-79815504D02*
X133741101Y-79853600D01*
X133741101Y-79853600D02*
X133626816Y-79891695D01*
X133626816Y-79891695D02*
X133550625Y-79891695D01*
X133550625Y-79891695D02*
X133436339Y-79853600D01*
X133436339Y-79853600D02*
X133360149Y-79777409D01*
X133360149Y-79777409D02*
X133322054Y-79701219D01*
X133322054Y-79701219D02*
X133283958Y-79548838D01*
X133283958Y-79548838D02*
X133283958Y-79434552D01*
X133283958Y-79434552D02*
X133322054Y-79282171D01*
X133322054Y-79282171D02*
X133360149Y-79205980D01*
X133360149Y-79205980D02*
X133436339Y-79129790D01*
X133436339Y-79129790D02*
X133550625Y-79091695D01*
X133550625Y-79091695D02*
X133626816Y-79091695D01*
X133626816Y-79091695D02*
X133741101Y-79129790D01*
X133741101Y-79129790D02*
X133779197Y-79167885D01*
D10*
X126391027Y-95789800D02*
X126462455Y-95813609D01*
X126462455Y-95813609D02*
X126581503Y-95813609D01*
X126581503Y-95813609D02*
X126629122Y-95789800D01*
X126629122Y-95789800D02*
X126652931Y-95765990D01*
X126652931Y-95765990D02*
X126676741Y-95718371D01*
X126676741Y-95718371D02*
X126676741Y-95670752D01*
X126676741Y-95670752D02*
X126652931Y-95623133D01*
X126652931Y-95623133D02*
X126629122Y-95599323D01*
X126629122Y-95599323D02*
X126581503Y-95575514D01*
X126581503Y-95575514D02*
X126486265Y-95551704D01*
X126486265Y-95551704D02*
X126438646Y-95527895D01*
X126438646Y-95527895D02*
X126414836Y-95504085D01*
X126414836Y-95504085D02*
X126391027Y-95456466D01*
X126391027Y-95456466D02*
X126391027Y-95408847D01*
X126391027Y-95408847D02*
X126414836Y-95361228D01*
X126414836Y-95361228D02*
X126438646Y-95337419D01*
X126438646Y-95337419D02*
X126486265Y-95313609D01*
X126486265Y-95313609D02*
X126605312Y-95313609D01*
X126605312Y-95313609D02*
X126676741Y-95337419D01*
X127176740Y-95765990D02*
X127152931Y-95789800D01*
X127152931Y-95789800D02*
X127081502Y-95813609D01*
X127081502Y-95813609D02*
X127033883Y-95813609D01*
X127033883Y-95813609D02*
X126962455Y-95789800D01*
X126962455Y-95789800D02*
X126914836Y-95742180D01*
X126914836Y-95742180D02*
X126891026Y-95694561D01*
X126891026Y-95694561D02*
X126867217Y-95599323D01*
X126867217Y-95599323D02*
X126867217Y-95527895D01*
X126867217Y-95527895D02*
X126891026Y-95432657D01*
X126891026Y-95432657D02*
X126914836Y-95385038D01*
X126914836Y-95385038D02*
X126962455Y-95337419D01*
X126962455Y-95337419D02*
X127033883Y-95313609D01*
X127033883Y-95313609D02*
X127081502Y-95313609D01*
X127081502Y-95313609D02*
X127152931Y-95337419D01*
X127152931Y-95337419D02*
X127176740Y-95361228D01*
X127391026Y-95813609D02*
X127391026Y-95313609D01*
X127676740Y-95813609D02*
X127462455Y-95527895D01*
X127676740Y-95313609D02*
X127391026Y-95599323D01*
X149564794Y-73075987D02*
X149564794Y-72575987D01*
X149564794Y-72814082D02*
X149850508Y-72814082D01*
X149850508Y-73075987D02*
X149850508Y-72575987D01*
X150064795Y-73052178D02*
X150136223Y-73075987D01*
X150136223Y-73075987D02*
X150255271Y-73075987D01*
X150255271Y-73075987D02*
X150302890Y-73052178D01*
X150302890Y-73052178D02*
X150326699Y-73028368D01*
X150326699Y-73028368D02*
X150350509Y-72980749D01*
X150350509Y-72980749D02*
X150350509Y-72933130D01*
X150350509Y-72933130D02*
X150326699Y-72885511D01*
X150326699Y-72885511D02*
X150302890Y-72861701D01*
X150302890Y-72861701D02*
X150255271Y-72837892D01*
X150255271Y-72837892D02*
X150160033Y-72814082D01*
X150160033Y-72814082D02*
X150112414Y-72790273D01*
X150112414Y-72790273D02*
X150088604Y-72766463D01*
X150088604Y-72766463D02*
X150064795Y-72718844D01*
X150064795Y-72718844D02*
X150064795Y-72671225D01*
X150064795Y-72671225D02*
X150088604Y-72623606D01*
X150088604Y-72623606D02*
X150112414Y-72599797D01*
X150112414Y-72599797D02*
X150160033Y-72575987D01*
X150160033Y-72575987D02*
X150279080Y-72575987D01*
X150279080Y-72575987D02*
X150350509Y-72599797D01*
X150850508Y-73028368D02*
X150826699Y-73052178D01*
X150826699Y-73052178D02*
X150755270Y-73075987D01*
X150755270Y-73075987D02*
X150707651Y-73075987D01*
X150707651Y-73075987D02*
X150636223Y-73052178D01*
X150636223Y-73052178D02*
X150588604Y-73004558D01*
X150588604Y-73004558D02*
X150564794Y-72956939D01*
X150564794Y-72956939D02*
X150540985Y-72861701D01*
X150540985Y-72861701D02*
X150540985Y-72790273D01*
X150540985Y-72790273D02*
X150564794Y-72695035D01*
X150564794Y-72695035D02*
X150588604Y-72647416D01*
X150588604Y-72647416D02*
X150636223Y-72599797D01*
X150636223Y-72599797D02*
X150707651Y-72575987D01*
X150707651Y-72575987D02*
X150755270Y-72575987D01*
X150755270Y-72575987D02*
X150826699Y-72599797D01*
X150826699Y-72599797D02*
X150850508Y-72623606D01*
X151064794Y-73075987D02*
X151064794Y-72575987D01*
X151350508Y-73075987D02*
X151136223Y-72790273D01*
X151350508Y-72575987D02*
X151064794Y-72861701D01*
X179220000Y-85353239D02*
X178743810Y-85353239D01*
X179315238Y-85067524D02*
X178981905Y-86067524D01*
X178981905Y-86067524D02*
X178648572Y-85067524D01*
X177886667Y-85067524D02*
X177886667Y-86067524D01*
X177886667Y-85115144D02*
X177981905Y-85067524D01*
X177981905Y-85067524D02*
X178172381Y-85067524D01*
X178172381Y-85067524D02*
X178267619Y-85115144D01*
X178267619Y-85115144D02*
X178315238Y-85162763D01*
X178315238Y-85162763D02*
X178362857Y-85258001D01*
X178362857Y-85258001D02*
X178362857Y-85543715D01*
X178362857Y-85543715D02*
X178315238Y-85638953D01*
X178315238Y-85638953D02*
X178267619Y-85686572D01*
X178267619Y-85686572D02*
X178172381Y-85734191D01*
X178172381Y-85734191D02*
X177981905Y-85734191D01*
X177981905Y-85734191D02*
X177886667Y-85686572D01*
X176981905Y-85067524D02*
X176981905Y-85591334D01*
X176981905Y-85591334D02*
X177029524Y-85686572D01*
X177029524Y-85686572D02*
X177124762Y-85734191D01*
X177124762Y-85734191D02*
X177315238Y-85734191D01*
X177315238Y-85734191D02*
X177410476Y-85686572D01*
X176981905Y-85115144D02*
X177077143Y-85067524D01*
X177077143Y-85067524D02*
X177315238Y-85067524D01*
X177315238Y-85067524D02*
X177410476Y-85115144D01*
X177410476Y-85115144D02*
X177458095Y-85210382D01*
X177458095Y-85210382D02*
X177458095Y-85305620D01*
X177458095Y-85305620D02*
X177410476Y-85400858D01*
X177410476Y-85400858D02*
X177315238Y-85448477D01*
X177315238Y-85448477D02*
X177077143Y-85448477D01*
X177077143Y-85448477D02*
X176981905Y-85496096D01*
X176648571Y-85734191D02*
X176267619Y-85734191D01*
X176505714Y-85067524D02*
X176505714Y-85924667D01*
X176505714Y-85924667D02*
X176458095Y-86019905D01*
X176458095Y-86019905D02*
X176362857Y-86067524D01*
X176362857Y-86067524D02*
X176267619Y-86067524D01*
X175934285Y-85067524D02*
X175934285Y-85734191D01*
X175934285Y-85543715D02*
X175886666Y-85638953D01*
X175886666Y-85638953D02*
X175839047Y-85686572D01*
X175839047Y-85686572D02*
X175743809Y-85734191D01*
X175743809Y-85734191D02*
X175648571Y-85734191D01*
X174886666Y-85734191D02*
X174886666Y-85067524D01*
X175315237Y-85734191D02*
X175315237Y-85210382D01*
X175315237Y-85210382D02*
X175267618Y-85115144D01*
X175267618Y-85115144D02*
X175172380Y-85067524D01*
X175172380Y-85067524D02*
X175029523Y-85067524D01*
X175029523Y-85067524D02*
X174934285Y-85115144D01*
X174934285Y-85115144D02*
X174886666Y-85162763D01*
X174410475Y-85067524D02*
X174410475Y-85734191D01*
X174410475Y-86067524D02*
X174458094Y-86019905D01*
X174458094Y-86019905D02*
X174410475Y-85972286D01*
X174410475Y-85972286D02*
X174362856Y-86019905D01*
X174362856Y-86019905D02*
X174410475Y-86067524D01*
X174410475Y-86067524D02*
X174410475Y-85972286D01*
X174077142Y-85734191D02*
X173696190Y-85734191D01*
X173934285Y-86067524D02*
X173934285Y-85210382D01*
X173934285Y-85210382D02*
X173886666Y-85115144D01*
X173886666Y-85115144D02*
X173791428Y-85067524D01*
X173791428Y-85067524D02*
X173696190Y-85067524D01*
X172172380Y-85734191D02*
X172172380Y-85067524D01*
X172410475Y-86115144D02*
X172648570Y-85400858D01*
X172648570Y-85400858D02*
X172029523Y-85400858D01*
X171219999Y-86067524D02*
X171410475Y-86067524D01*
X171410475Y-86067524D02*
X171505713Y-86019905D01*
X171505713Y-86019905D02*
X171553332Y-85972286D01*
X171553332Y-85972286D02*
X171648570Y-85829429D01*
X171648570Y-85829429D02*
X171696189Y-85638953D01*
X171696189Y-85638953D02*
X171696189Y-85258001D01*
X171696189Y-85258001D02*
X171648570Y-85162763D01*
X171648570Y-85162763D02*
X171600951Y-85115144D01*
X171600951Y-85115144D02*
X171505713Y-85067524D01*
X171505713Y-85067524D02*
X171315237Y-85067524D01*
X171315237Y-85067524D02*
X171219999Y-85115144D01*
X171219999Y-85115144D02*
X171172380Y-85162763D01*
X171172380Y-85162763D02*
X171124761Y-85258001D01*
X171124761Y-85258001D02*
X171124761Y-85496096D01*
X171124761Y-85496096D02*
X171172380Y-85591334D01*
X171172380Y-85591334D02*
X171219999Y-85638953D01*
X171219999Y-85638953D02*
X171315237Y-85686572D01*
X171315237Y-85686572D02*
X171505713Y-85686572D01*
X171505713Y-85686572D02*
X171600951Y-85638953D01*
X171600951Y-85638953D02*
X171648570Y-85591334D01*
X171648570Y-85591334D02*
X171696189Y-85496096D01*
X170553332Y-85638953D02*
X170648570Y-85686572D01*
X170648570Y-85686572D02*
X170696189Y-85734191D01*
X170696189Y-85734191D02*
X170743808Y-85829429D01*
X170743808Y-85829429D02*
X170743808Y-85877048D01*
X170743808Y-85877048D02*
X170696189Y-85972286D01*
X170696189Y-85972286D02*
X170648570Y-86019905D01*
X170648570Y-86019905D02*
X170553332Y-86067524D01*
X170553332Y-86067524D02*
X170362856Y-86067524D01*
X170362856Y-86067524D02*
X170267618Y-86019905D01*
X170267618Y-86019905D02*
X170219999Y-85972286D01*
X170219999Y-85972286D02*
X170172380Y-85877048D01*
X170172380Y-85877048D02*
X170172380Y-85829429D01*
X170172380Y-85829429D02*
X170219999Y-85734191D01*
X170219999Y-85734191D02*
X170267618Y-85686572D01*
X170267618Y-85686572D02*
X170362856Y-85638953D01*
X170362856Y-85638953D02*
X170553332Y-85638953D01*
X170553332Y-85638953D02*
X170648570Y-85591334D01*
X170648570Y-85591334D02*
X170696189Y-85543715D01*
X170696189Y-85543715D02*
X170743808Y-85448477D01*
X170743808Y-85448477D02*
X170743808Y-85258001D01*
X170743808Y-85258001D02*
X170696189Y-85162763D01*
X170696189Y-85162763D02*
X170648570Y-85115144D01*
X170648570Y-85115144D02*
X170553332Y-85067524D01*
X170553332Y-85067524D02*
X170362856Y-85067524D01*
X170362856Y-85067524D02*
X170267618Y-85115144D01*
X170267618Y-85115144D02*
X170219999Y-85162763D01*
X170219999Y-85162763D02*
X170172380Y-85258001D01*
X170172380Y-85258001D02*
X170172380Y-85448477D01*
X170172380Y-85448477D02*
X170219999Y-85543715D01*
X170219999Y-85543715D02*
X170267618Y-85591334D01*
X170267618Y-85591334D02*
X170362856Y-85638953D01*
X169791427Y-85972286D02*
X169743808Y-86019905D01*
X169743808Y-86019905D02*
X169648570Y-86067524D01*
X169648570Y-86067524D02*
X169410475Y-86067524D01*
X169410475Y-86067524D02*
X169315237Y-86019905D01*
X169315237Y-86019905D02*
X169267618Y-85972286D01*
X169267618Y-85972286D02*
X169219999Y-85877048D01*
X169219999Y-85877048D02*
X169219999Y-85781810D01*
X169219999Y-85781810D02*
X169267618Y-85638953D01*
X169267618Y-85638953D02*
X169839046Y-85067524D01*
X169839046Y-85067524D02*
X169219999Y-85067524D01*
X180291428Y-83505200D02*
X180148571Y-83457580D01*
X180148571Y-83457580D02*
X179910476Y-83457580D01*
X179910476Y-83457580D02*
X179815238Y-83505200D01*
X179815238Y-83505200D02*
X179767619Y-83552819D01*
X179767619Y-83552819D02*
X179720000Y-83648057D01*
X179720000Y-83648057D02*
X179720000Y-83743295D01*
X179720000Y-83743295D02*
X179767619Y-83838533D01*
X179767619Y-83838533D02*
X179815238Y-83886152D01*
X179815238Y-83886152D02*
X179910476Y-83933771D01*
X179910476Y-83933771D02*
X180100952Y-83981390D01*
X180100952Y-83981390D02*
X180196190Y-84029009D01*
X180196190Y-84029009D02*
X180243809Y-84076628D01*
X180243809Y-84076628D02*
X180291428Y-84171866D01*
X180291428Y-84171866D02*
X180291428Y-84267104D01*
X180291428Y-84267104D02*
X180243809Y-84362342D01*
X180243809Y-84362342D02*
X180196190Y-84409961D01*
X180196190Y-84409961D02*
X180100952Y-84457580D01*
X180100952Y-84457580D02*
X179862857Y-84457580D01*
X179862857Y-84457580D02*
X179720000Y-84409961D01*
X179291428Y-83457580D02*
X179291428Y-84457580D01*
X179291428Y-84457580D02*
X179053333Y-84457580D01*
X179053333Y-84457580D02*
X178910476Y-84409961D01*
X178910476Y-84409961D02*
X178815238Y-84314723D01*
X178815238Y-84314723D02*
X178767619Y-84219485D01*
X178767619Y-84219485D02*
X178720000Y-84029009D01*
X178720000Y-84029009D02*
X178720000Y-83886152D01*
X178720000Y-83886152D02*
X178767619Y-83695676D01*
X178767619Y-83695676D02*
X178815238Y-83600438D01*
X178815238Y-83600438D02*
X178910476Y-83505200D01*
X178910476Y-83505200D02*
X179053333Y-83457580D01*
X179053333Y-83457580D02*
X179291428Y-83457580D01*
X178291428Y-83838533D02*
X177529524Y-83838533D01*
X176481905Y-83552819D02*
X176529524Y-83505200D01*
X176529524Y-83505200D02*
X176672381Y-83457580D01*
X176672381Y-83457580D02*
X176767619Y-83457580D01*
X176767619Y-83457580D02*
X176910476Y-83505200D01*
X176910476Y-83505200D02*
X177005714Y-83600438D01*
X177005714Y-83600438D02*
X177053333Y-83695676D01*
X177053333Y-83695676D02*
X177100952Y-83886152D01*
X177100952Y-83886152D02*
X177100952Y-84029009D01*
X177100952Y-84029009D02*
X177053333Y-84219485D01*
X177053333Y-84219485D02*
X177005714Y-84314723D01*
X177005714Y-84314723D02*
X176910476Y-84409961D01*
X176910476Y-84409961D02*
X176767619Y-84457580D01*
X176767619Y-84457580D02*
X176672381Y-84457580D01*
X176672381Y-84457580D02*
X176529524Y-84409961D01*
X176529524Y-84409961D02*
X176481905Y-84362342D01*
X175624762Y-83457580D02*
X175624762Y-83981390D01*
X175624762Y-83981390D02*
X175672381Y-84076628D01*
X175672381Y-84076628D02*
X175767619Y-84124247D01*
X175767619Y-84124247D02*
X175958095Y-84124247D01*
X175958095Y-84124247D02*
X176053333Y-84076628D01*
X175624762Y-83505200D02*
X175720000Y-83457580D01*
X175720000Y-83457580D02*
X175958095Y-83457580D01*
X175958095Y-83457580D02*
X176053333Y-83505200D01*
X176053333Y-83505200D02*
X176100952Y-83600438D01*
X176100952Y-83600438D02*
X176100952Y-83695676D01*
X176100952Y-83695676D02*
X176053333Y-83790914D01*
X176053333Y-83790914D02*
X175958095Y-83838533D01*
X175958095Y-83838533D02*
X175720000Y-83838533D01*
X175720000Y-83838533D02*
X175624762Y-83886152D01*
X175148571Y-83457580D02*
X175148571Y-84124247D01*
X175148571Y-83933771D02*
X175100952Y-84029009D01*
X175100952Y-84029009D02*
X175053333Y-84076628D01*
X175053333Y-84076628D02*
X174958095Y-84124247D01*
X174958095Y-84124247D02*
X174862857Y-84124247D01*
X174100952Y-83457580D02*
X174100952Y-84457580D01*
X174100952Y-83505200D02*
X174196190Y-83457580D01*
X174196190Y-83457580D02*
X174386666Y-83457580D01*
X174386666Y-83457580D02*
X174481904Y-83505200D01*
X174481904Y-83505200D02*
X174529523Y-83552819D01*
X174529523Y-83552819D02*
X174577142Y-83648057D01*
X174577142Y-83648057D02*
X174577142Y-83933771D01*
X174577142Y-83933771D02*
X174529523Y-84029009D01*
X174529523Y-84029009D02*
X174481904Y-84076628D01*
X174481904Y-84076628D02*
X174386666Y-84124247D01*
X174386666Y-84124247D02*
X174196190Y-84124247D01*
X174196190Y-84124247D02*
X174100952Y-84076628D01*
X172291428Y-83457580D02*
X172624761Y-83933771D01*
X172862856Y-83457580D02*
X172862856Y-84457580D01*
X172862856Y-84457580D02*
X172481904Y-84457580D01*
X172481904Y-84457580D02*
X172386666Y-84409961D01*
X172386666Y-84409961D02*
X172339047Y-84362342D01*
X172339047Y-84362342D02*
X172291428Y-84267104D01*
X172291428Y-84267104D02*
X172291428Y-84124247D01*
X172291428Y-84124247D02*
X172339047Y-84029009D01*
X172339047Y-84029009D02*
X172386666Y-83981390D01*
X172386666Y-83981390D02*
X172481904Y-83933771D01*
X172481904Y-83933771D02*
X172862856Y-83933771D01*
X171481904Y-83505200D02*
X171577142Y-83457580D01*
X171577142Y-83457580D02*
X171767618Y-83457580D01*
X171767618Y-83457580D02*
X171862856Y-83505200D01*
X171862856Y-83505200D02*
X171910475Y-83600438D01*
X171910475Y-83600438D02*
X171910475Y-83981390D01*
X171910475Y-83981390D02*
X171862856Y-84076628D01*
X171862856Y-84076628D02*
X171767618Y-84124247D01*
X171767618Y-84124247D02*
X171577142Y-84124247D01*
X171577142Y-84124247D02*
X171481904Y-84076628D01*
X171481904Y-84076628D02*
X171434285Y-83981390D01*
X171434285Y-83981390D02*
X171434285Y-83886152D01*
X171434285Y-83886152D02*
X171910475Y-83790914D01*
X170577142Y-83457580D02*
X170577142Y-83981390D01*
X170577142Y-83981390D02*
X170624761Y-84076628D01*
X170624761Y-84076628D02*
X170719999Y-84124247D01*
X170719999Y-84124247D02*
X170910475Y-84124247D01*
X170910475Y-84124247D02*
X171005713Y-84076628D01*
X170577142Y-83505200D02*
X170672380Y-83457580D01*
X170672380Y-83457580D02*
X170910475Y-83457580D01*
X170910475Y-83457580D02*
X171005713Y-83505200D01*
X171005713Y-83505200D02*
X171053332Y-83600438D01*
X171053332Y-83600438D02*
X171053332Y-83695676D01*
X171053332Y-83695676D02*
X171005713Y-83790914D01*
X171005713Y-83790914D02*
X170910475Y-83838533D01*
X170910475Y-83838533D02*
X170672380Y-83838533D01*
X170672380Y-83838533D02*
X170577142Y-83886152D01*
X169672380Y-83457580D02*
X169672380Y-84457580D01*
X169672380Y-83505200D02*
X169767618Y-83457580D01*
X169767618Y-83457580D02*
X169958094Y-83457580D01*
X169958094Y-83457580D02*
X170053332Y-83505200D01*
X170053332Y-83505200D02*
X170100951Y-83552819D01*
X170100951Y-83552819D02*
X170148570Y-83648057D01*
X170148570Y-83648057D02*
X170148570Y-83933771D01*
X170148570Y-83933771D02*
X170100951Y-84029009D01*
X170100951Y-84029009D02*
X170053332Y-84076628D01*
X170053332Y-84076628D02*
X169958094Y-84124247D01*
X169958094Y-84124247D02*
X169767618Y-84124247D01*
X169767618Y-84124247D02*
X169672380Y-84076628D01*
X168815237Y-83505200D02*
X168910475Y-83457580D01*
X168910475Y-83457580D02*
X169100951Y-83457580D01*
X169100951Y-83457580D02*
X169196189Y-83505200D01*
X169196189Y-83505200D02*
X169243808Y-83600438D01*
X169243808Y-83600438D02*
X169243808Y-83981390D01*
X169243808Y-83981390D02*
X169196189Y-84076628D01*
X169196189Y-84076628D02*
X169100951Y-84124247D01*
X169100951Y-84124247D02*
X168910475Y-84124247D01*
X168910475Y-84124247D02*
X168815237Y-84076628D01*
X168815237Y-84076628D02*
X168767618Y-83981390D01*
X168767618Y-83981390D02*
X168767618Y-83886152D01*
X168767618Y-83886152D02*
X169243808Y-83790914D01*
X168339046Y-83457580D02*
X168339046Y-84124247D01*
X168339046Y-83933771D02*
X168291427Y-84029009D01*
X168291427Y-84029009D02*
X168243808Y-84076628D01*
X168243808Y-84076628D02*
X168148570Y-84124247D01*
X168148570Y-84124247D02*
X168053332Y-84124247D01*
X181573258Y-73152580D02*
X181620877Y-73176390D01*
X181620877Y-73176390D02*
X181692306Y-73176390D01*
X181692306Y-73176390D02*
X181763734Y-73152580D01*
X181763734Y-73152580D02*
X181811353Y-73104961D01*
X181811353Y-73104961D02*
X181835163Y-73057342D01*
X181835163Y-73057342D02*
X181858972Y-72962104D01*
X181858972Y-72962104D02*
X181858972Y-72890676D01*
X181858972Y-72890676D02*
X181835163Y-72795438D01*
X181835163Y-72795438D02*
X181811353Y-72747819D01*
X181811353Y-72747819D02*
X181763734Y-72700200D01*
X181763734Y-72700200D02*
X181692306Y-72676390D01*
X181692306Y-72676390D02*
X181644687Y-72676390D01*
X181644687Y-72676390D02*
X181573258Y-72700200D01*
X181573258Y-72700200D02*
X181549449Y-72724009D01*
X181549449Y-72724009D02*
X181549449Y-72890676D01*
X181549449Y-72890676D02*
X181644687Y-72890676D01*
X181335163Y-72676390D02*
X181335163Y-73176390D01*
X181335163Y-73176390D02*
X181049449Y-72676390D01*
X181049449Y-72676390D02*
X181049449Y-73176390D01*
X180811353Y-72676390D02*
X180811353Y-73176390D01*
X180811353Y-73176390D02*
X180692305Y-73176390D01*
X180692305Y-73176390D02*
X180620877Y-73152580D01*
X180620877Y-73152580D02*
X180573258Y-73104961D01*
X180573258Y-73104961D02*
X180549448Y-73057342D01*
X180549448Y-73057342D02*
X180525639Y-72962104D01*
X180525639Y-72962104D02*
X180525639Y-72890676D01*
X180525639Y-72890676D02*
X180549448Y-72795438D01*
X180549448Y-72795438D02*
X180573258Y-72747819D01*
X180573258Y-72747819D02*
X180620877Y-72700200D01*
X180620877Y-72700200D02*
X180692305Y-72676390D01*
X180692305Y-72676390D02*
X180811353Y-72676390D01*
X123904836Y-95813609D02*
X123904836Y-95313609D01*
X123904836Y-95313609D02*
X124071503Y-95670752D01*
X124071503Y-95670752D02*
X124238169Y-95313609D01*
X124238169Y-95313609D02*
X124238169Y-95813609D01*
X124571503Y-95313609D02*
X124666741Y-95313609D01*
X124666741Y-95313609D02*
X124714360Y-95337419D01*
X124714360Y-95337419D02*
X124761979Y-95385038D01*
X124761979Y-95385038D02*
X124785789Y-95480276D01*
X124785789Y-95480276D02*
X124785789Y-95646942D01*
X124785789Y-95646942D02*
X124761979Y-95742180D01*
X124761979Y-95742180D02*
X124714360Y-95789800D01*
X124714360Y-95789800D02*
X124666741Y-95813609D01*
X124666741Y-95813609D02*
X124571503Y-95813609D01*
X124571503Y-95813609D02*
X124523884Y-95789800D01*
X124523884Y-95789800D02*
X124476265Y-95742180D01*
X124476265Y-95742180D02*
X124452456Y-95646942D01*
X124452456Y-95646942D02*
X124452456Y-95480276D01*
X124452456Y-95480276D02*
X124476265Y-95385038D01*
X124476265Y-95385038D02*
X124523884Y-95337419D01*
X124523884Y-95337419D02*
X124571503Y-95313609D01*
X124976266Y-95789800D02*
X125047694Y-95813609D01*
X125047694Y-95813609D02*
X125166742Y-95813609D01*
X125166742Y-95813609D02*
X125214361Y-95789800D01*
X125214361Y-95789800D02*
X125238170Y-95765990D01*
X125238170Y-95765990D02*
X125261980Y-95718371D01*
X125261980Y-95718371D02*
X125261980Y-95670752D01*
X125261980Y-95670752D02*
X125238170Y-95623133D01*
X125238170Y-95623133D02*
X125214361Y-95599323D01*
X125214361Y-95599323D02*
X125166742Y-95575514D01*
X125166742Y-95575514D02*
X125071504Y-95551704D01*
X125071504Y-95551704D02*
X125023885Y-95527895D01*
X125023885Y-95527895D02*
X125000075Y-95504085D01*
X125000075Y-95504085D02*
X124976266Y-95456466D01*
X124976266Y-95456466D02*
X124976266Y-95408847D01*
X124976266Y-95408847D02*
X125000075Y-95361228D01*
X125000075Y-95361228D02*
X125023885Y-95337419D01*
X125023885Y-95337419D02*
X125071504Y-95313609D01*
X125071504Y-95313609D02*
X125190551Y-95313609D01*
X125190551Y-95313609D02*
X125261980Y-95337419D01*
X125476265Y-95813609D02*
X125476265Y-95313609D01*
X116700436Y-119770614D02*
X116676627Y-119794424D01*
X116676627Y-119794424D02*
X116605198Y-119818233D01*
X116605198Y-119818233D02*
X116557579Y-119818233D01*
X116557579Y-119818233D02*
X116486151Y-119794424D01*
X116486151Y-119794424D02*
X116438532Y-119746804D01*
X116438532Y-119746804D02*
X116414722Y-119699185D01*
X116414722Y-119699185D02*
X116390913Y-119603947D01*
X116390913Y-119603947D02*
X116390913Y-119532519D01*
X116390913Y-119532519D02*
X116414722Y-119437281D01*
X116414722Y-119437281D02*
X116438532Y-119389662D01*
X116438532Y-119389662D02*
X116486151Y-119342043D01*
X116486151Y-119342043D02*
X116557579Y-119318233D01*
X116557579Y-119318233D02*
X116605198Y-119318233D01*
X116605198Y-119318233D02*
X116676627Y-119342043D01*
X116676627Y-119342043D02*
X116700436Y-119365852D01*
X116890913Y-119794424D02*
X116962341Y-119818233D01*
X116962341Y-119818233D02*
X117081389Y-119818233D01*
X117081389Y-119818233D02*
X117129008Y-119794424D01*
X117129008Y-119794424D02*
X117152817Y-119770614D01*
X117152817Y-119770614D02*
X117176627Y-119722995D01*
X117176627Y-119722995D02*
X117176627Y-119675376D01*
X117176627Y-119675376D02*
X117152817Y-119627757D01*
X117152817Y-119627757D02*
X117129008Y-119603947D01*
X117129008Y-119603947D02*
X117081389Y-119580138D01*
X117081389Y-119580138D02*
X116986151Y-119556328D01*
X116986151Y-119556328D02*
X116938532Y-119532519D01*
X116938532Y-119532519D02*
X116914722Y-119508709D01*
X116914722Y-119508709D02*
X116890913Y-119461090D01*
X116890913Y-119461090D02*
X116890913Y-119413471D01*
X116890913Y-119413471D02*
X116914722Y-119365852D01*
X116914722Y-119365852D02*
X116938532Y-119342043D01*
X116938532Y-119342043D02*
X116986151Y-119318233D01*
X116986151Y-119318233D02*
X117105198Y-119318233D01*
X117105198Y-119318233D02*
X117176627Y-119342043D01*
X117271865Y-119865852D02*
X117652817Y-119865852D01*
X118033769Y-119818233D02*
X117748055Y-119818233D01*
X117890912Y-119818233D02*
X117890912Y-119318233D01*
X117890912Y-119318233D02*
X117843293Y-119389662D01*
X117843293Y-119389662D02*
X117795674Y-119437281D01*
X117795674Y-119437281D02*
X117748055Y-119461090D01*
X144646741Y-95337419D02*
X144599122Y-95313609D01*
X144599122Y-95313609D02*
X144527693Y-95313609D01*
X144527693Y-95313609D02*
X144456265Y-95337419D01*
X144456265Y-95337419D02*
X144408646Y-95385038D01*
X144408646Y-95385038D02*
X144384836Y-95432657D01*
X144384836Y-95432657D02*
X144361027Y-95527895D01*
X144361027Y-95527895D02*
X144361027Y-95599323D01*
X144361027Y-95599323D02*
X144384836Y-95694561D01*
X144384836Y-95694561D02*
X144408646Y-95742180D01*
X144408646Y-95742180D02*
X144456265Y-95789800D01*
X144456265Y-95789800D02*
X144527693Y-95813609D01*
X144527693Y-95813609D02*
X144575312Y-95813609D01*
X144575312Y-95813609D02*
X144646741Y-95789800D01*
X144646741Y-95789800D02*
X144670550Y-95765990D01*
X144670550Y-95765990D02*
X144670550Y-95599323D01*
X144670550Y-95599323D02*
X144575312Y-95599323D01*
X144884836Y-95813609D02*
X144884836Y-95313609D01*
X144884836Y-95313609D02*
X145170550Y-95813609D01*
X145170550Y-95813609D02*
X145170550Y-95313609D01*
X145408646Y-95813609D02*
X145408646Y-95313609D01*
X145408646Y-95313609D02*
X145527694Y-95313609D01*
X145527694Y-95313609D02*
X145599122Y-95337419D01*
X145599122Y-95337419D02*
X145646741Y-95385038D01*
X145646741Y-95385038D02*
X145670551Y-95432657D01*
X145670551Y-95432657D02*
X145694360Y-95527895D01*
X145694360Y-95527895D02*
X145694360Y-95599323D01*
X145694360Y-95599323D02*
X145670551Y-95694561D01*
X145670551Y-95694561D02*
X145646741Y-95742180D01*
X145646741Y-95742180D02*
X145599122Y-95789800D01*
X145599122Y-95789800D02*
X145527694Y-95813609D01*
X145527694Y-95813609D02*
X145408646Y-95813609D01*
X127283332Y-106416760D02*
X127759522Y-106416760D01*
X127188094Y-106702475D02*
X127521427Y-105702475D01*
X127521427Y-105702475D02*
X127854760Y-106702475D01*
X128616665Y-106702475D02*
X128616665Y-105702475D01*
X128616665Y-106654856D02*
X128521427Y-106702475D01*
X128521427Y-106702475D02*
X128330951Y-106702475D01*
X128330951Y-106702475D02*
X128235713Y-106654856D01*
X128235713Y-106654856D02*
X128188094Y-106607236D01*
X128188094Y-106607236D02*
X128140475Y-106511998D01*
X128140475Y-106511998D02*
X128140475Y-106226284D01*
X128140475Y-106226284D02*
X128188094Y-106131046D01*
X128188094Y-106131046D02*
X128235713Y-106083427D01*
X128235713Y-106083427D02*
X128330951Y-106035808D01*
X128330951Y-106035808D02*
X128521427Y-106035808D01*
X128521427Y-106035808D02*
X128616665Y-106083427D01*
X129521427Y-106702475D02*
X129521427Y-106178665D01*
X129521427Y-106178665D02*
X129473808Y-106083427D01*
X129473808Y-106083427D02*
X129378570Y-106035808D01*
X129378570Y-106035808D02*
X129188094Y-106035808D01*
X129188094Y-106035808D02*
X129092856Y-106083427D01*
X129521427Y-106654856D02*
X129426189Y-106702475D01*
X129426189Y-106702475D02*
X129188094Y-106702475D01*
X129188094Y-106702475D02*
X129092856Y-106654856D01*
X129092856Y-106654856D02*
X129045237Y-106559617D01*
X129045237Y-106559617D02*
X129045237Y-106464379D01*
X129045237Y-106464379D02*
X129092856Y-106369141D01*
X129092856Y-106369141D02*
X129188094Y-106321522D01*
X129188094Y-106321522D02*
X129426189Y-106321522D01*
X129426189Y-106321522D02*
X129521427Y-106273903D01*
X129854761Y-106035808D02*
X130235713Y-106035808D01*
X129997618Y-106702475D02*
X129997618Y-105845332D01*
X129997618Y-105845332D02*
X130045237Y-105750094D01*
X130045237Y-105750094D02*
X130140475Y-105702475D01*
X130140475Y-105702475D02*
X130235713Y-105702475D01*
X130569047Y-106702475D02*
X130569047Y-106035808D01*
X130569047Y-106226284D02*
X130616666Y-106131046D01*
X130616666Y-106131046D02*
X130664285Y-106083427D01*
X130664285Y-106083427D02*
X130759523Y-106035808D01*
X130759523Y-106035808D02*
X130854761Y-106035808D01*
X131616666Y-106035808D02*
X131616666Y-106702475D01*
X131188095Y-106035808D02*
X131188095Y-106559617D01*
X131188095Y-106559617D02*
X131235714Y-106654856D01*
X131235714Y-106654856D02*
X131330952Y-106702475D01*
X131330952Y-106702475D02*
X131473809Y-106702475D01*
X131473809Y-106702475D02*
X131569047Y-106654856D01*
X131569047Y-106654856D02*
X131616666Y-106607236D01*
X132092857Y-106702475D02*
X132092857Y-106035808D01*
X132092857Y-105702475D02*
X132045238Y-105750094D01*
X132045238Y-105750094D02*
X132092857Y-105797713D01*
X132092857Y-105797713D02*
X132140476Y-105750094D01*
X132140476Y-105750094D02*
X132092857Y-105702475D01*
X132092857Y-105702475D02*
X132092857Y-105797713D01*
X132426190Y-106035808D02*
X132807142Y-106035808D01*
X132569047Y-105702475D02*
X132569047Y-106559617D01*
X132569047Y-106559617D02*
X132616666Y-106654856D01*
X132616666Y-106654856D02*
X132711904Y-106702475D01*
X132711904Y-106702475D02*
X132807142Y-106702475D01*
X134235714Y-106178665D02*
X133902381Y-106178665D01*
X133902381Y-106702475D02*
X133902381Y-105702475D01*
X133902381Y-105702475D02*
X134378571Y-105702475D01*
X135140476Y-106654856D02*
X135045238Y-106702475D01*
X135045238Y-106702475D02*
X134854762Y-106702475D01*
X134854762Y-106702475D02*
X134759524Y-106654856D01*
X134759524Y-106654856D02*
X134711905Y-106559617D01*
X134711905Y-106559617D02*
X134711905Y-106178665D01*
X134711905Y-106178665D02*
X134759524Y-106083427D01*
X134759524Y-106083427D02*
X134854762Y-106035808D01*
X134854762Y-106035808D02*
X135045238Y-106035808D01*
X135045238Y-106035808D02*
X135140476Y-106083427D01*
X135140476Y-106083427D02*
X135188095Y-106178665D01*
X135188095Y-106178665D02*
X135188095Y-106273903D01*
X135188095Y-106273903D02*
X134711905Y-106369141D01*
X136045238Y-106702475D02*
X136045238Y-106178665D01*
X136045238Y-106178665D02*
X135997619Y-106083427D01*
X135997619Y-106083427D02*
X135902381Y-106035808D01*
X135902381Y-106035808D02*
X135711905Y-106035808D01*
X135711905Y-106035808D02*
X135616667Y-106083427D01*
X136045238Y-106654856D02*
X135950000Y-106702475D01*
X135950000Y-106702475D02*
X135711905Y-106702475D01*
X135711905Y-106702475D02*
X135616667Y-106654856D01*
X135616667Y-106654856D02*
X135569048Y-106559617D01*
X135569048Y-106559617D02*
X135569048Y-106464379D01*
X135569048Y-106464379D02*
X135616667Y-106369141D01*
X135616667Y-106369141D02*
X135711905Y-106321522D01*
X135711905Y-106321522D02*
X135950000Y-106321522D01*
X135950000Y-106321522D02*
X136045238Y-106273903D01*
X136378572Y-106035808D02*
X136759524Y-106035808D01*
X136521429Y-105702475D02*
X136521429Y-106559617D01*
X136521429Y-106559617D02*
X136569048Y-106654856D01*
X136569048Y-106654856D02*
X136664286Y-106702475D01*
X136664286Y-106702475D02*
X136759524Y-106702475D01*
X137092858Y-106702475D02*
X137092858Y-105702475D01*
X137521429Y-106702475D02*
X137521429Y-106178665D01*
X137521429Y-106178665D02*
X137473810Y-106083427D01*
X137473810Y-106083427D02*
X137378572Y-106035808D01*
X137378572Y-106035808D02*
X137235715Y-106035808D01*
X137235715Y-106035808D02*
X137140477Y-106083427D01*
X137140477Y-106083427D02*
X137092858Y-106131046D01*
X138378572Y-106654856D02*
X138283334Y-106702475D01*
X138283334Y-106702475D02*
X138092858Y-106702475D01*
X138092858Y-106702475D02*
X137997620Y-106654856D01*
X137997620Y-106654856D02*
X137950001Y-106559617D01*
X137950001Y-106559617D02*
X137950001Y-106178665D01*
X137950001Y-106178665D02*
X137997620Y-106083427D01*
X137997620Y-106083427D02*
X138092858Y-106035808D01*
X138092858Y-106035808D02*
X138283334Y-106035808D01*
X138283334Y-106035808D02*
X138378572Y-106083427D01*
X138378572Y-106083427D02*
X138426191Y-106178665D01*
X138426191Y-106178665D02*
X138426191Y-106273903D01*
X138426191Y-106273903D02*
X137950001Y-106369141D01*
X138854763Y-106702475D02*
X138854763Y-106035808D01*
X138854763Y-106226284D02*
X138902382Y-106131046D01*
X138902382Y-106131046D02*
X138950001Y-106083427D01*
X138950001Y-106083427D02*
X139045239Y-106035808D01*
X139045239Y-106035808D02*
X139140477Y-106035808D01*
X140092859Y-105702475D02*
X140426192Y-106702475D01*
X140426192Y-106702475D02*
X140759525Y-105702475D01*
X141045240Y-105797713D02*
X141092859Y-105750094D01*
X141092859Y-105750094D02*
X141188097Y-105702475D01*
X141188097Y-105702475D02*
X141426192Y-105702475D01*
X141426192Y-105702475D02*
X141521430Y-105750094D01*
X141521430Y-105750094D02*
X141569049Y-105797713D01*
X141569049Y-105797713D02*
X141616668Y-105892951D01*
X141616668Y-105892951D02*
X141616668Y-105988189D01*
X141616668Y-105988189D02*
X141569049Y-106131046D01*
X141569049Y-106131046D02*
X140997621Y-106702475D01*
X140997621Y-106702475D02*
X141616668Y-106702475D01*
X131926190Y-107788609D02*
X132259523Y-107788609D01*
X132402380Y-108312419D02*
X131926190Y-108312419D01*
X131926190Y-108312419D02*
X131926190Y-107312419D01*
X131926190Y-107312419D02*
X132402380Y-107312419D01*
X132783333Y-108264800D02*
X132926190Y-108312419D01*
X132926190Y-108312419D02*
X133164285Y-108312419D01*
X133164285Y-108312419D02*
X133259523Y-108264800D01*
X133259523Y-108264800D02*
X133307142Y-108217180D01*
X133307142Y-108217180D02*
X133354761Y-108121942D01*
X133354761Y-108121942D02*
X133354761Y-108026704D01*
X133354761Y-108026704D02*
X133307142Y-107931466D01*
X133307142Y-107931466D02*
X133259523Y-107883847D01*
X133259523Y-107883847D02*
X133164285Y-107836228D01*
X133164285Y-107836228D02*
X132973809Y-107788609D01*
X132973809Y-107788609D02*
X132878571Y-107740990D01*
X132878571Y-107740990D02*
X132830952Y-107693371D01*
X132830952Y-107693371D02*
X132783333Y-107598133D01*
X132783333Y-107598133D02*
X132783333Y-107502895D01*
X132783333Y-107502895D02*
X132830952Y-107407657D01*
X132830952Y-107407657D02*
X132878571Y-107360038D01*
X132878571Y-107360038D02*
X132973809Y-107312419D01*
X132973809Y-107312419D02*
X133211904Y-107312419D01*
X133211904Y-107312419D02*
X133354761Y-107360038D01*
X133783333Y-108312419D02*
X133783333Y-107312419D01*
X133783333Y-107312419D02*
X134164285Y-107312419D01*
X134164285Y-107312419D02*
X134259523Y-107360038D01*
X134259523Y-107360038D02*
X134307142Y-107407657D01*
X134307142Y-107407657D02*
X134354761Y-107502895D01*
X134354761Y-107502895D02*
X134354761Y-107645752D01*
X134354761Y-107645752D02*
X134307142Y-107740990D01*
X134307142Y-107740990D02*
X134259523Y-107788609D01*
X134259523Y-107788609D02*
X134164285Y-107836228D01*
X134164285Y-107836228D02*
X133783333Y-107836228D01*
X134688095Y-107312419D02*
X135307142Y-107312419D01*
X135307142Y-107312419D02*
X134973809Y-107693371D01*
X134973809Y-107693371D02*
X135116666Y-107693371D01*
X135116666Y-107693371D02*
X135211904Y-107740990D01*
X135211904Y-107740990D02*
X135259523Y-107788609D01*
X135259523Y-107788609D02*
X135307142Y-107883847D01*
X135307142Y-107883847D02*
X135307142Y-108121942D01*
X135307142Y-108121942D02*
X135259523Y-108217180D01*
X135259523Y-108217180D02*
X135211904Y-108264800D01*
X135211904Y-108264800D02*
X135116666Y-108312419D01*
X135116666Y-108312419D02*
X134830952Y-108312419D01*
X134830952Y-108312419D02*
X134735714Y-108264800D01*
X134735714Y-108264800D02*
X134688095Y-108217180D01*
X135688095Y-107407657D02*
X135735714Y-107360038D01*
X135735714Y-107360038D02*
X135830952Y-107312419D01*
X135830952Y-107312419D02*
X136069047Y-107312419D01*
X136069047Y-107312419D02*
X136164285Y-107360038D01*
X136164285Y-107360038D02*
X136211904Y-107407657D01*
X136211904Y-107407657D02*
X136259523Y-107502895D01*
X136259523Y-107502895D02*
X136259523Y-107598133D01*
X136259523Y-107598133D02*
X136211904Y-107740990D01*
X136211904Y-107740990D02*
X135640476Y-108312419D01*
X135640476Y-108312419D02*
X136259523Y-108312419D01*
X176765163Y-72676390D02*
X176765163Y-73176390D01*
X176765163Y-73176390D02*
X176598496Y-72819247D01*
X176598496Y-72819247D02*
X176431830Y-73176390D01*
X176431830Y-73176390D02*
X176431830Y-72676390D01*
X176193734Y-72676390D02*
X176193734Y-73176390D01*
X175979448Y-72700200D02*
X175908020Y-72676390D01*
X175908020Y-72676390D02*
X175788972Y-72676390D01*
X175788972Y-72676390D02*
X175741353Y-72700200D01*
X175741353Y-72700200D02*
X175717544Y-72724009D01*
X175717544Y-72724009D02*
X175693734Y-72771628D01*
X175693734Y-72771628D02*
X175693734Y-72819247D01*
X175693734Y-72819247D02*
X175717544Y-72866866D01*
X175717544Y-72866866D02*
X175741353Y-72890676D01*
X175741353Y-72890676D02*
X175788972Y-72914485D01*
X175788972Y-72914485D02*
X175884210Y-72938295D01*
X175884210Y-72938295D02*
X175931829Y-72962104D01*
X175931829Y-72962104D02*
X175955639Y-72985914D01*
X175955639Y-72985914D02*
X175979448Y-73033533D01*
X175979448Y-73033533D02*
X175979448Y-73081152D01*
X175979448Y-73081152D02*
X175955639Y-73128771D01*
X175955639Y-73128771D02*
X175931829Y-73152580D01*
X175931829Y-73152580D02*
X175884210Y-73176390D01*
X175884210Y-73176390D02*
X175765163Y-73176390D01*
X175765163Y-73176390D02*
X175693734Y-73152580D01*
X175384211Y-73176390D02*
X175288973Y-73176390D01*
X175288973Y-73176390D02*
X175241354Y-73152580D01*
X175241354Y-73152580D02*
X175193735Y-73104961D01*
X175193735Y-73104961D02*
X175169925Y-73009723D01*
X175169925Y-73009723D02*
X175169925Y-72843057D01*
X175169925Y-72843057D02*
X175193735Y-72747819D01*
X175193735Y-72747819D02*
X175241354Y-72700200D01*
X175241354Y-72700200D02*
X175288973Y-72676390D01*
X175288973Y-72676390D02*
X175384211Y-72676390D01*
X175384211Y-72676390D02*
X175431830Y-72700200D01*
X175431830Y-72700200D02*
X175479449Y-72747819D01*
X175479449Y-72747819D02*
X175503258Y-72843057D01*
X175503258Y-72843057D02*
X175503258Y-73009723D01*
X175503258Y-73009723D02*
X175479449Y-73104961D01*
X175479449Y-73104961D02*
X175431830Y-73152580D01*
X175431830Y-73152580D02*
X175384211Y-73176390D01*
X147437217Y-72573609D02*
X147746741Y-72573609D01*
X147746741Y-72573609D02*
X147580074Y-72764085D01*
X147580074Y-72764085D02*
X147651503Y-72764085D01*
X147651503Y-72764085D02*
X147699122Y-72787895D01*
X147699122Y-72787895D02*
X147722931Y-72811704D01*
X147722931Y-72811704D02*
X147746741Y-72859323D01*
X147746741Y-72859323D02*
X147746741Y-72978371D01*
X147746741Y-72978371D02*
X147722931Y-73025990D01*
X147722931Y-73025990D02*
X147699122Y-73049800D01*
X147699122Y-73049800D02*
X147651503Y-73073609D01*
X147651503Y-73073609D02*
X147508646Y-73073609D01*
X147508646Y-73073609D02*
X147461027Y-73049800D01*
X147461027Y-73049800D02*
X147437217Y-73025990D01*
X147889598Y-72573609D02*
X148056264Y-73073609D01*
X148056264Y-73073609D02*
X148222931Y-72573609D01*
X139635550Y-66755990D02*
X139611741Y-66779800D01*
X139611741Y-66779800D02*
X139540312Y-66803609D01*
X139540312Y-66803609D02*
X139492693Y-66803609D01*
X139492693Y-66803609D02*
X139421265Y-66779800D01*
X139421265Y-66779800D02*
X139373646Y-66732180D01*
X139373646Y-66732180D02*
X139349836Y-66684561D01*
X139349836Y-66684561D02*
X139326027Y-66589323D01*
X139326027Y-66589323D02*
X139326027Y-66517895D01*
X139326027Y-66517895D02*
X139349836Y-66422657D01*
X139349836Y-66422657D02*
X139373646Y-66375038D01*
X139373646Y-66375038D02*
X139421265Y-66327419D01*
X139421265Y-66327419D02*
X139492693Y-66303609D01*
X139492693Y-66303609D02*
X139540312Y-66303609D01*
X139540312Y-66303609D02*
X139611741Y-66327419D01*
X139611741Y-66327419D02*
X139635550Y-66351228D01*
X139826027Y-66779800D02*
X139897455Y-66803609D01*
X139897455Y-66803609D02*
X140016503Y-66803609D01*
X140016503Y-66803609D02*
X140064122Y-66779800D01*
X140064122Y-66779800D02*
X140087931Y-66755990D01*
X140087931Y-66755990D02*
X140111741Y-66708371D01*
X140111741Y-66708371D02*
X140111741Y-66660752D01*
X140111741Y-66660752D02*
X140087931Y-66613133D01*
X140087931Y-66613133D02*
X140064122Y-66589323D01*
X140064122Y-66589323D02*
X140016503Y-66565514D01*
X140016503Y-66565514D02*
X139921265Y-66541704D01*
X139921265Y-66541704D02*
X139873646Y-66517895D01*
X139873646Y-66517895D02*
X139849836Y-66494085D01*
X139849836Y-66494085D02*
X139826027Y-66446466D01*
X139826027Y-66446466D02*
X139826027Y-66398847D01*
X139826027Y-66398847D02*
X139849836Y-66351228D01*
X139849836Y-66351228D02*
X139873646Y-66327419D01*
X139873646Y-66327419D02*
X139921265Y-66303609D01*
X139921265Y-66303609D02*
X140040312Y-66303609D01*
X140040312Y-66303609D02*
X140111741Y-66327419D01*
X140206979Y-66851228D02*
X140587931Y-66851228D01*
X140968883Y-66803609D02*
X140683169Y-66803609D01*
X140826026Y-66803609D02*
X140826026Y-66303609D01*
X140826026Y-66303609D02*
X140778407Y-66375038D01*
X140778407Y-66375038D02*
X140730788Y-66422657D01*
X140730788Y-66422657D02*
X140683169Y-66446466D01*
X152074836Y-73073609D02*
X152074836Y-72573609D01*
X152074836Y-72811704D02*
X152360550Y-72811704D01*
X152360550Y-73073609D02*
X152360550Y-72573609D01*
X152598646Y-73073609D02*
X152598646Y-72573609D01*
X152598646Y-72573609D02*
X152765313Y-72930752D01*
X152765313Y-72930752D02*
X152931979Y-72573609D01*
X152931979Y-72573609D02*
X152931979Y-73073609D01*
X153265313Y-72573609D02*
X153360551Y-72573609D01*
X153360551Y-72573609D02*
X153408170Y-72597419D01*
X153408170Y-72597419D02*
X153455789Y-72645038D01*
X153455789Y-72645038D02*
X153479599Y-72740276D01*
X153479599Y-72740276D02*
X153479599Y-72906942D01*
X153479599Y-72906942D02*
X153455789Y-73002180D01*
X153455789Y-73002180D02*
X153408170Y-73049800D01*
X153408170Y-73049800D02*
X153360551Y-73073609D01*
X153360551Y-73073609D02*
X153265313Y-73073609D01*
X153265313Y-73073609D02*
X153217694Y-73049800D01*
X153217694Y-73049800D02*
X153170075Y-73002180D01*
X153170075Y-73002180D02*
X153146266Y-72906942D01*
X153146266Y-72906942D02*
X153146266Y-72740276D01*
X153146266Y-72740276D02*
X153170075Y-72645038D01*
X153170075Y-72645038D02*
X153217694Y-72597419D01*
X153217694Y-72597419D02*
X153265313Y-72573609D01*
X153670076Y-73049800D02*
X153741504Y-73073609D01*
X153741504Y-73073609D02*
X153860552Y-73073609D01*
X153860552Y-73073609D02*
X153908171Y-73049800D01*
X153908171Y-73049800D02*
X153931980Y-73025990D01*
X153931980Y-73025990D02*
X153955790Y-72978371D01*
X153955790Y-72978371D02*
X153955790Y-72930752D01*
X153955790Y-72930752D02*
X153931980Y-72883133D01*
X153931980Y-72883133D02*
X153908171Y-72859323D01*
X153908171Y-72859323D02*
X153860552Y-72835514D01*
X153860552Y-72835514D02*
X153765314Y-72811704D01*
X153765314Y-72811704D02*
X153717695Y-72787895D01*
X153717695Y-72787895D02*
X153693885Y-72764085D01*
X153693885Y-72764085D02*
X153670076Y-72716466D01*
X153670076Y-72716466D02*
X153670076Y-72668847D01*
X153670076Y-72668847D02*
X153693885Y-72621228D01*
X153693885Y-72621228D02*
X153717695Y-72597419D01*
X153717695Y-72597419D02*
X153765314Y-72573609D01*
X153765314Y-72573609D02*
X153884361Y-72573609D01*
X153884361Y-72573609D02*
X153955790Y-72597419D01*
X154170075Y-73073609D02*
X154170075Y-72573609D01*
X121800086Y-119825155D02*
X121776277Y-119848965D01*
X121776277Y-119848965D02*
X121704848Y-119872774D01*
X121704848Y-119872774D02*
X121657229Y-119872774D01*
X121657229Y-119872774D02*
X121585801Y-119848965D01*
X121585801Y-119848965D02*
X121538182Y-119801345D01*
X121538182Y-119801345D02*
X121514372Y-119753726D01*
X121514372Y-119753726D02*
X121490563Y-119658488D01*
X121490563Y-119658488D02*
X121490563Y-119587060D01*
X121490563Y-119587060D02*
X121514372Y-119491822D01*
X121514372Y-119491822D02*
X121538182Y-119444203D01*
X121538182Y-119444203D02*
X121585801Y-119396584D01*
X121585801Y-119396584D02*
X121657229Y-119372774D01*
X121657229Y-119372774D02*
X121704848Y-119372774D01*
X121704848Y-119372774D02*
X121776277Y-119396584D01*
X121776277Y-119396584D02*
X121800086Y-119420393D01*
X121990563Y-119848965D02*
X122061991Y-119872774D01*
X122061991Y-119872774D02*
X122181039Y-119872774D01*
X122181039Y-119872774D02*
X122228658Y-119848965D01*
X122228658Y-119848965D02*
X122252467Y-119825155D01*
X122252467Y-119825155D02*
X122276277Y-119777536D01*
X122276277Y-119777536D02*
X122276277Y-119729917D01*
X122276277Y-119729917D02*
X122252467Y-119682298D01*
X122252467Y-119682298D02*
X122228658Y-119658488D01*
X122228658Y-119658488D02*
X122181039Y-119634679D01*
X122181039Y-119634679D02*
X122085801Y-119610869D01*
X122085801Y-119610869D02*
X122038182Y-119587060D01*
X122038182Y-119587060D02*
X122014372Y-119563250D01*
X122014372Y-119563250D02*
X121990563Y-119515631D01*
X121990563Y-119515631D02*
X121990563Y-119468012D01*
X121990563Y-119468012D02*
X122014372Y-119420393D01*
X122014372Y-119420393D02*
X122038182Y-119396584D01*
X122038182Y-119396584D02*
X122085801Y-119372774D01*
X122085801Y-119372774D02*
X122204848Y-119372774D01*
X122204848Y-119372774D02*
X122276277Y-119396584D01*
X122371515Y-119920393D02*
X122752467Y-119920393D01*
X122847705Y-119420393D02*
X122871514Y-119396584D01*
X122871514Y-119396584D02*
X122919133Y-119372774D01*
X122919133Y-119372774D02*
X123038181Y-119372774D01*
X123038181Y-119372774D02*
X123085800Y-119396584D01*
X123085800Y-119396584D02*
X123109609Y-119420393D01*
X123109609Y-119420393D02*
X123133419Y-119468012D01*
X123133419Y-119468012D02*
X123133419Y-119515631D01*
X123133419Y-119515631D02*
X123109609Y-119587060D01*
X123109609Y-119587060D02*
X122823895Y-119872774D01*
X122823895Y-119872774D02*
X123133419Y-119872774D01*
X152250550Y-95813609D02*
X152083884Y-95575514D01*
X151964836Y-95813609D02*
X151964836Y-95313609D01*
X151964836Y-95313609D02*
X152155312Y-95313609D01*
X152155312Y-95313609D02*
X152202931Y-95337419D01*
X152202931Y-95337419D02*
X152226741Y-95361228D01*
X152226741Y-95361228D02*
X152250550Y-95408847D01*
X152250550Y-95408847D02*
X152250550Y-95480276D01*
X152250550Y-95480276D02*
X152226741Y-95527895D01*
X152226741Y-95527895D02*
X152202931Y-95551704D01*
X152202931Y-95551704D02*
X152155312Y-95575514D01*
X152155312Y-95575514D02*
X151964836Y-95575514D01*
X152441027Y-95789800D02*
X152512455Y-95813609D01*
X152512455Y-95813609D02*
X152631503Y-95813609D01*
X152631503Y-95813609D02*
X152679122Y-95789800D01*
X152679122Y-95789800D02*
X152702931Y-95765990D01*
X152702931Y-95765990D02*
X152726741Y-95718371D01*
X152726741Y-95718371D02*
X152726741Y-95670752D01*
X152726741Y-95670752D02*
X152702931Y-95623133D01*
X152702931Y-95623133D02*
X152679122Y-95599323D01*
X152679122Y-95599323D02*
X152631503Y-95575514D01*
X152631503Y-95575514D02*
X152536265Y-95551704D01*
X152536265Y-95551704D02*
X152488646Y-95527895D01*
X152488646Y-95527895D02*
X152464836Y-95504085D01*
X152464836Y-95504085D02*
X152441027Y-95456466D01*
X152441027Y-95456466D02*
X152441027Y-95408847D01*
X152441027Y-95408847D02*
X152464836Y-95361228D01*
X152464836Y-95361228D02*
X152488646Y-95337419D01*
X152488646Y-95337419D02*
X152536265Y-95313609D01*
X152536265Y-95313609D02*
X152655312Y-95313609D01*
X152655312Y-95313609D02*
X152726741Y-95337419D01*
X152869598Y-95313609D02*
X153155312Y-95313609D01*
X153012455Y-95813609D02*
X153012455Y-95313609D01*
X134761741Y-66327419D02*
X134714122Y-66303609D01*
X134714122Y-66303609D02*
X134642693Y-66303609D01*
X134642693Y-66303609D02*
X134571265Y-66327419D01*
X134571265Y-66327419D02*
X134523646Y-66375038D01*
X134523646Y-66375038D02*
X134499836Y-66422657D01*
X134499836Y-66422657D02*
X134476027Y-66517895D01*
X134476027Y-66517895D02*
X134476027Y-66589323D01*
X134476027Y-66589323D02*
X134499836Y-66684561D01*
X134499836Y-66684561D02*
X134523646Y-66732180D01*
X134523646Y-66732180D02*
X134571265Y-66779800D01*
X134571265Y-66779800D02*
X134642693Y-66803609D01*
X134642693Y-66803609D02*
X134690312Y-66803609D01*
X134690312Y-66803609D02*
X134761741Y-66779800D01*
X134761741Y-66779800D02*
X134785550Y-66755990D01*
X134785550Y-66755990D02*
X134785550Y-66589323D01*
X134785550Y-66589323D02*
X134690312Y-66589323D01*
X134999836Y-66803609D02*
X134999836Y-66303609D01*
X134999836Y-66303609D02*
X135285550Y-66803609D01*
X135285550Y-66803609D02*
X135285550Y-66303609D01*
X135523646Y-66803609D02*
X135523646Y-66303609D01*
X135523646Y-66303609D02*
X135642694Y-66303609D01*
X135642694Y-66303609D02*
X135714122Y-66327419D01*
X135714122Y-66327419D02*
X135761741Y-66375038D01*
X135761741Y-66375038D02*
X135785551Y-66422657D01*
X135785551Y-66422657D02*
X135809360Y-66517895D01*
X135809360Y-66517895D02*
X135809360Y-66589323D01*
X135809360Y-66589323D02*
X135785551Y-66684561D01*
X135785551Y-66684561D02*
X135761741Y-66732180D01*
X135761741Y-66732180D02*
X135714122Y-66779800D01*
X135714122Y-66779800D02*
X135642694Y-66803609D01*
X135642694Y-66803609D02*
X135523646Y-66803609D01*
X171499449Y-72724009D02*
X171523258Y-72700200D01*
X171523258Y-72700200D02*
X171594687Y-72676390D01*
X171594687Y-72676390D02*
X171642306Y-72676390D01*
X171642306Y-72676390D02*
X171713734Y-72700200D01*
X171713734Y-72700200D02*
X171761353Y-72747819D01*
X171761353Y-72747819D02*
X171785163Y-72795438D01*
X171785163Y-72795438D02*
X171808972Y-72890676D01*
X171808972Y-72890676D02*
X171808972Y-72962104D01*
X171808972Y-72962104D02*
X171785163Y-73057342D01*
X171785163Y-73057342D02*
X171761353Y-73104961D01*
X171761353Y-73104961D02*
X171713734Y-73152580D01*
X171713734Y-73152580D02*
X171642306Y-73176390D01*
X171642306Y-73176390D02*
X171594687Y-73176390D01*
X171594687Y-73176390D02*
X171523258Y-73152580D01*
X171523258Y-73152580D02*
X171499449Y-73128771D01*
X171308972Y-72700200D02*
X171237544Y-72676390D01*
X171237544Y-72676390D02*
X171118496Y-72676390D01*
X171118496Y-72676390D02*
X171070877Y-72700200D01*
X171070877Y-72700200D02*
X171047068Y-72724009D01*
X171047068Y-72724009D02*
X171023258Y-72771628D01*
X171023258Y-72771628D02*
X171023258Y-72819247D01*
X171023258Y-72819247D02*
X171047068Y-72866866D01*
X171047068Y-72866866D02*
X171070877Y-72890676D01*
X171070877Y-72890676D02*
X171118496Y-72914485D01*
X171118496Y-72914485D02*
X171213734Y-72938295D01*
X171213734Y-72938295D02*
X171261353Y-72962104D01*
X171261353Y-72962104D02*
X171285163Y-72985914D01*
X171285163Y-72985914D02*
X171308972Y-73033533D01*
X171308972Y-73033533D02*
X171308972Y-73081152D01*
X171308972Y-73081152D02*
X171285163Y-73128771D01*
X171285163Y-73128771D02*
X171261353Y-73152580D01*
X171261353Y-73152580D02*
X171213734Y-73176390D01*
X171213734Y-73176390D02*
X171094687Y-73176390D01*
X171094687Y-73176390D02*
X171023258Y-73152580D01*
X170928021Y-72628771D02*
X170547068Y-72628771D01*
X170451830Y-72700200D02*
X170380402Y-72676390D01*
X170380402Y-72676390D02*
X170261354Y-72676390D01*
X170261354Y-72676390D02*
X170213735Y-72700200D01*
X170213735Y-72700200D02*
X170189926Y-72724009D01*
X170189926Y-72724009D02*
X170166116Y-72771628D01*
X170166116Y-72771628D02*
X170166116Y-72819247D01*
X170166116Y-72819247D02*
X170189926Y-72866866D01*
X170189926Y-72866866D02*
X170213735Y-72890676D01*
X170213735Y-72890676D02*
X170261354Y-72914485D01*
X170261354Y-72914485D02*
X170356592Y-72938295D01*
X170356592Y-72938295D02*
X170404211Y-72962104D01*
X170404211Y-72962104D02*
X170428021Y-72985914D01*
X170428021Y-72985914D02*
X170451830Y-73033533D01*
X170451830Y-73033533D02*
X170451830Y-73081152D01*
X170451830Y-73081152D02*
X170428021Y-73128771D01*
X170428021Y-73128771D02*
X170404211Y-73152580D01*
X170404211Y-73152580D02*
X170356592Y-73176390D01*
X170356592Y-73176390D02*
X170237545Y-73176390D01*
X170237545Y-73176390D02*
X170166116Y-73152580D01*
X169951831Y-72676390D02*
X169951831Y-73176390D01*
X169951831Y-73176390D02*
X169832783Y-73176390D01*
X169832783Y-73176390D02*
X169761355Y-73152580D01*
X169761355Y-73152580D02*
X169713736Y-73104961D01*
X169713736Y-73104961D02*
X169689926Y-73057342D01*
X169689926Y-73057342D02*
X169666117Y-72962104D01*
X169666117Y-72962104D02*
X169666117Y-72890676D01*
X169666117Y-72890676D02*
X169689926Y-72795438D01*
X169689926Y-72795438D02*
X169713736Y-72747819D01*
X169713736Y-72747819D02*
X169761355Y-72700200D01*
X169761355Y-72700200D02*
X169832783Y-72676390D01*
X169832783Y-72676390D02*
X169951831Y-72676390D01*
X142140550Y-95765990D02*
X142116741Y-95789800D01*
X142116741Y-95789800D02*
X142045312Y-95813609D01*
X142045312Y-95813609D02*
X141997693Y-95813609D01*
X141997693Y-95813609D02*
X141926265Y-95789800D01*
X141926265Y-95789800D02*
X141878646Y-95742180D01*
X141878646Y-95742180D02*
X141854836Y-95694561D01*
X141854836Y-95694561D02*
X141831027Y-95599323D01*
X141831027Y-95599323D02*
X141831027Y-95527895D01*
X141831027Y-95527895D02*
X141854836Y-95432657D01*
X141854836Y-95432657D02*
X141878646Y-95385038D01*
X141878646Y-95385038D02*
X141926265Y-95337419D01*
X141926265Y-95337419D02*
X141997693Y-95313609D01*
X141997693Y-95313609D02*
X142045312Y-95313609D01*
X142045312Y-95313609D02*
X142116741Y-95337419D01*
X142116741Y-95337419D02*
X142140550Y-95361228D01*
X142331027Y-95670752D02*
X142569122Y-95670752D01*
X142283408Y-95813609D02*
X142450074Y-95313609D01*
X142450074Y-95313609D02*
X142616741Y-95813609D01*
X143021502Y-95813609D02*
X142783407Y-95813609D01*
X142783407Y-95813609D02*
X142783407Y-95313609D01*
X149647217Y-95313609D02*
X149956741Y-95313609D01*
X149956741Y-95313609D02*
X149790074Y-95504085D01*
X149790074Y-95504085D02*
X149861503Y-95504085D01*
X149861503Y-95504085D02*
X149909122Y-95527895D01*
X149909122Y-95527895D02*
X149932931Y-95551704D01*
X149932931Y-95551704D02*
X149956741Y-95599323D01*
X149956741Y-95599323D02*
X149956741Y-95718371D01*
X149956741Y-95718371D02*
X149932931Y-95765990D01*
X149932931Y-95765990D02*
X149909122Y-95789800D01*
X149909122Y-95789800D02*
X149861503Y-95813609D01*
X149861503Y-95813609D02*
X149718646Y-95813609D01*
X149718646Y-95813609D02*
X149671027Y-95789800D01*
X149671027Y-95789800D02*
X149647217Y-95765990D01*
X150099598Y-95313609D02*
X150266264Y-95813609D01*
X150266264Y-95813609D02*
X150432931Y-95313609D01*
X184182782Y-73176390D02*
X183873258Y-73176390D01*
X183873258Y-73176390D02*
X184039925Y-72985914D01*
X184039925Y-72985914D02*
X183968496Y-72985914D01*
X183968496Y-72985914D02*
X183920877Y-72962104D01*
X183920877Y-72962104D02*
X183897068Y-72938295D01*
X183897068Y-72938295D02*
X183873258Y-72890676D01*
X183873258Y-72890676D02*
X183873258Y-72771628D01*
X183873258Y-72771628D02*
X183897068Y-72724009D01*
X183897068Y-72724009D02*
X183920877Y-72700200D01*
X183920877Y-72700200D02*
X183968496Y-72676390D01*
X183968496Y-72676390D02*
X184111353Y-72676390D01*
X184111353Y-72676390D02*
X184158972Y-72700200D01*
X184158972Y-72700200D02*
X184182782Y-72724009D01*
X183730401Y-73176390D02*
X183563735Y-72676390D01*
X183563735Y-72676390D02*
X183397068Y-73176390D01*
X123864836Y-119893609D02*
X123864836Y-119393609D01*
X123864836Y-119631704D02*
X124150550Y-119631704D01*
X124150550Y-119893609D02*
X124150550Y-119393609D01*
X124388646Y-119893609D02*
X124388646Y-119393609D01*
X124388646Y-119393609D02*
X124555313Y-119750752D01*
X124555313Y-119750752D02*
X124721979Y-119393609D01*
X124721979Y-119393609D02*
X124721979Y-119893609D01*
X125055313Y-119393609D02*
X125150551Y-119393609D01*
X125150551Y-119393609D02*
X125198170Y-119417419D01*
X125198170Y-119417419D02*
X125245789Y-119465038D01*
X125245789Y-119465038D02*
X125269599Y-119560276D01*
X125269599Y-119560276D02*
X125269599Y-119726942D01*
X125269599Y-119726942D02*
X125245789Y-119822180D01*
X125245789Y-119822180D02*
X125198170Y-119869800D01*
X125198170Y-119869800D02*
X125150551Y-119893609D01*
X125150551Y-119893609D02*
X125055313Y-119893609D01*
X125055313Y-119893609D02*
X125007694Y-119869800D01*
X125007694Y-119869800D02*
X124960075Y-119822180D01*
X124960075Y-119822180D02*
X124936266Y-119726942D01*
X124936266Y-119726942D02*
X124936266Y-119560276D01*
X124936266Y-119560276D02*
X124960075Y-119465038D01*
X124960075Y-119465038D02*
X125007694Y-119417419D01*
X125007694Y-119417419D02*
X125055313Y-119393609D01*
X125460076Y-119869800D02*
X125531504Y-119893609D01*
X125531504Y-119893609D02*
X125650552Y-119893609D01*
X125650552Y-119893609D02*
X125698171Y-119869800D01*
X125698171Y-119869800D02*
X125721980Y-119845990D01*
X125721980Y-119845990D02*
X125745790Y-119798371D01*
X125745790Y-119798371D02*
X125745790Y-119750752D01*
X125745790Y-119750752D02*
X125721980Y-119703133D01*
X125721980Y-119703133D02*
X125698171Y-119679323D01*
X125698171Y-119679323D02*
X125650552Y-119655514D01*
X125650552Y-119655514D02*
X125555314Y-119631704D01*
X125555314Y-119631704D02*
X125507695Y-119607895D01*
X125507695Y-119607895D02*
X125483885Y-119584085D01*
X125483885Y-119584085D02*
X125460076Y-119536466D01*
X125460076Y-119536466D02*
X125460076Y-119488847D01*
X125460076Y-119488847D02*
X125483885Y-119441228D01*
X125483885Y-119441228D02*
X125507695Y-119417419D01*
X125507695Y-119417419D02*
X125555314Y-119393609D01*
X125555314Y-119393609D02*
X125674361Y-119393609D01*
X125674361Y-119393609D02*
X125745790Y-119417419D01*
X125960075Y-119893609D02*
X125960075Y-119393609D01*
D12*
X183194819Y-78043333D02*
X183909104Y-78043333D01*
X183909104Y-78043333D02*
X184051961Y-78090952D01*
X184051961Y-78090952D02*
X184147200Y-78186190D01*
X184147200Y-78186190D02*
X184194819Y-78329047D01*
X184194819Y-78329047D02*
X184194819Y-78424285D01*
X183194819Y-77662380D02*
X183194819Y-76995714D01*
X183194819Y-76995714D02*
X184194819Y-77424285D01*
X111644819Y-97833333D02*
X112359104Y-97833333D01*
X112359104Y-97833333D02*
X112501961Y-97880952D01*
X112501961Y-97880952D02*
X112597200Y-97976190D01*
X112597200Y-97976190D02*
X112644819Y-98119047D01*
X112644819Y-98119047D02*
X112644819Y-98214285D01*
X111740057Y-97404761D02*
X111692438Y-97357142D01*
X111692438Y-97357142D02*
X111644819Y-97261904D01*
X111644819Y-97261904D02*
X111644819Y-97023809D01*
X111644819Y-97023809D02*
X111692438Y-96928571D01*
X111692438Y-96928571D02*
X111740057Y-96880952D01*
X111740057Y-96880952D02*
X111835295Y-96833333D01*
X111835295Y-96833333D02*
X111930533Y-96833333D01*
X111930533Y-96833333D02*
X112073390Y-96880952D01*
X112073390Y-96880952D02*
X112644819Y-97452380D01*
X112644819Y-97452380D02*
X112644819Y-96833333D01*
X146023333Y-81874819D02*
X145690000Y-81398628D01*
X145451905Y-81874819D02*
X145451905Y-80874819D01*
X145451905Y-80874819D02*
X145832857Y-80874819D01*
X145832857Y-80874819D02*
X145928095Y-80922438D01*
X145928095Y-80922438D02*
X145975714Y-80970057D01*
X145975714Y-80970057D02*
X146023333Y-81065295D01*
X146023333Y-81065295D02*
X146023333Y-81208152D01*
X146023333Y-81208152D02*
X145975714Y-81303390D01*
X145975714Y-81303390D02*
X145928095Y-81351009D01*
X145928095Y-81351009D02*
X145832857Y-81398628D01*
X145832857Y-81398628D02*
X145451905Y-81398628D01*
X146975714Y-81874819D02*
X146404286Y-81874819D01*
X146690000Y-81874819D02*
X146690000Y-80874819D01*
X146690000Y-80874819D02*
X146594762Y-81017676D01*
X146594762Y-81017676D02*
X146499524Y-81112914D01*
X146499524Y-81112914D02*
X146404286Y-81160533D01*
X146392619Y-77812295D02*
X146125952Y-77431342D01*
X145935476Y-77812295D02*
X145935476Y-77012295D01*
X145935476Y-77012295D02*
X146240238Y-77012295D01*
X146240238Y-77012295D02*
X146316428Y-77050390D01*
X146316428Y-77050390D02*
X146354523Y-77088485D01*
X146354523Y-77088485D02*
X146392619Y-77164676D01*
X146392619Y-77164676D02*
X146392619Y-77278961D01*
X146392619Y-77278961D02*
X146354523Y-77355152D01*
X146354523Y-77355152D02*
X146316428Y-77393247D01*
X146316428Y-77393247D02*
X146240238Y-77431342D01*
X146240238Y-77431342D02*
X145935476Y-77431342D01*
X135761905Y-76954819D02*
X135761905Y-75954819D01*
X135761905Y-75954819D02*
X136000000Y-75954819D01*
X136000000Y-75954819D02*
X136142857Y-76002438D01*
X136142857Y-76002438D02*
X136238095Y-76097676D01*
X136238095Y-76097676D02*
X136285714Y-76192914D01*
X136285714Y-76192914D02*
X136333333Y-76383390D01*
X136333333Y-76383390D02*
X136333333Y-76526247D01*
X136333333Y-76526247D02*
X136285714Y-76716723D01*
X136285714Y-76716723D02*
X136238095Y-76811961D01*
X136238095Y-76811961D02*
X136142857Y-76907200D01*
X136142857Y-76907200D02*
X136000000Y-76954819D01*
X136000000Y-76954819D02*
X135761905Y-76954819D01*
X137285714Y-76954819D02*
X136714286Y-76954819D01*
X137000000Y-76954819D02*
X137000000Y-75954819D01*
X137000000Y-75954819D02*
X136904762Y-76097676D01*
X136904762Y-76097676D02*
X136809524Y-76192914D01*
X136809524Y-76192914D02*
X136714286Y-76240533D01*
X135857142Y-82954819D02*
X135380952Y-82954819D01*
X135380952Y-82954819D02*
X135380952Y-81954819D01*
X136190476Y-82431009D02*
X136523809Y-82431009D01*
X136666666Y-82954819D02*
X136190476Y-82954819D01*
X136190476Y-82954819D02*
X136190476Y-81954819D01*
X136190476Y-81954819D02*
X136666666Y-81954819D01*
X137095238Y-82954819D02*
X137095238Y-81954819D01*
X137095238Y-81954819D02*
X137333333Y-81954819D01*
X137333333Y-81954819D02*
X137476190Y-82002438D01*
X137476190Y-82002438D02*
X137571428Y-82097676D01*
X137571428Y-82097676D02*
X137619047Y-82192914D01*
X137619047Y-82192914D02*
X137666666Y-82383390D01*
X137666666Y-82383390D02*
X137666666Y-82526247D01*
X137666666Y-82526247D02*
X137619047Y-82716723D01*
X137619047Y-82716723D02*
X137571428Y-82811961D01*
X137571428Y-82811961D02*
X137476190Y-82907200D01*
X137476190Y-82907200D02*
X137333333Y-82954819D01*
X137333333Y-82954819D02*
X137095238Y-82954819D01*
X111644819Y-118133333D02*
X112359104Y-118133333D01*
X112359104Y-118133333D02*
X112501961Y-118180952D01*
X112501961Y-118180952D02*
X112597200Y-118276190D01*
X112597200Y-118276190D02*
X112644819Y-118419047D01*
X112644819Y-118419047D02*
X112644819Y-118514285D01*
X112644819Y-117133333D02*
X112644819Y-117704761D01*
X112644819Y-117419047D02*
X111644819Y-117419047D01*
X111644819Y-117419047D02*
X111787676Y-117514285D01*
X111787676Y-117514285D02*
X111882914Y-117609523D01*
X111882914Y-117609523D02*
X111930533Y-117704761D01*
X144924819Y-70023333D02*
X145639104Y-70023333D01*
X145639104Y-70023333D02*
X145781961Y-70070952D01*
X145781961Y-70070952D02*
X145877200Y-70166190D01*
X145877200Y-70166190D02*
X145924819Y-70309047D01*
X145924819Y-70309047D02*
X145924819Y-70404285D01*
X145258152Y-69118571D02*
X145924819Y-69118571D01*
X144877200Y-69356666D02*
X145591485Y-69594761D01*
X145591485Y-69594761D02*
X145591485Y-68975714D01*
X127396667Y-88137200D02*
X127539524Y-88184819D01*
X127539524Y-88184819D02*
X127777619Y-88184819D01*
X127777619Y-88184819D02*
X127872857Y-88137200D01*
X127872857Y-88137200D02*
X127920476Y-88089580D01*
X127920476Y-88089580D02*
X127968095Y-87994342D01*
X127968095Y-87994342D02*
X127968095Y-87899104D01*
X127968095Y-87899104D02*
X127920476Y-87803866D01*
X127920476Y-87803866D02*
X127872857Y-87756247D01*
X127872857Y-87756247D02*
X127777619Y-87708628D01*
X127777619Y-87708628D02*
X127587143Y-87661009D01*
X127587143Y-87661009D02*
X127491905Y-87613390D01*
X127491905Y-87613390D02*
X127444286Y-87565771D01*
X127444286Y-87565771D02*
X127396667Y-87470533D01*
X127396667Y-87470533D02*
X127396667Y-87375295D01*
X127396667Y-87375295D02*
X127444286Y-87280057D01*
X127444286Y-87280057D02*
X127491905Y-87232438D01*
X127491905Y-87232438D02*
X127587143Y-87184819D01*
X127587143Y-87184819D02*
X127825238Y-87184819D01*
X127825238Y-87184819D02*
X127968095Y-87232438D01*
X128301429Y-87184819D02*
X128539524Y-88184819D01*
X128539524Y-88184819D02*
X128730000Y-87470533D01*
X128730000Y-87470533D02*
X128920476Y-88184819D01*
X128920476Y-88184819D02*
X129158572Y-87184819D01*
X129491905Y-87280057D02*
X129539524Y-87232438D01*
X129539524Y-87232438D02*
X129634762Y-87184819D01*
X129634762Y-87184819D02*
X129872857Y-87184819D01*
X129872857Y-87184819D02*
X129968095Y-87232438D01*
X129968095Y-87232438D02*
X130015714Y-87280057D01*
X130015714Y-87280057D02*
X130063333Y-87375295D01*
X130063333Y-87375295D02*
X130063333Y-87470533D01*
X130063333Y-87470533D02*
X130015714Y-87613390D01*
X130015714Y-87613390D02*
X129444286Y-88184819D01*
X129444286Y-88184819D02*
X130063333Y-88184819D01*
X114196667Y-71437200D02*
X114339524Y-71484819D01*
X114339524Y-71484819D02*
X114577619Y-71484819D01*
X114577619Y-71484819D02*
X114672857Y-71437200D01*
X114672857Y-71437200D02*
X114720476Y-71389580D01*
X114720476Y-71389580D02*
X114768095Y-71294342D01*
X114768095Y-71294342D02*
X114768095Y-71199104D01*
X114768095Y-71199104D02*
X114720476Y-71103866D01*
X114720476Y-71103866D02*
X114672857Y-71056247D01*
X114672857Y-71056247D02*
X114577619Y-71008628D01*
X114577619Y-71008628D02*
X114387143Y-70961009D01*
X114387143Y-70961009D02*
X114291905Y-70913390D01*
X114291905Y-70913390D02*
X114244286Y-70865771D01*
X114244286Y-70865771D02*
X114196667Y-70770533D01*
X114196667Y-70770533D02*
X114196667Y-70675295D01*
X114196667Y-70675295D02*
X114244286Y-70580057D01*
X114244286Y-70580057D02*
X114291905Y-70532438D01*
X114291905Y-70532438D02*
X114387143Y-70484819D01*
X114387143Y-70484819D02*
X114625238Y-70484819D01*
X114625238Y-70484819D02*
X114768095Y-70532438D01*
X115101429Y-70484819D02*
X115339524Y-71484819D01*
X115339524Y-71484819D02*
X115530000Y-70770533D01*
X115530000Y-70770533D02*
X115720476Y-71484819D01*
X115720476Y-71484819D02*
X115958572Y-70484819D01*
X116244286Y-70484819D02*
X116863333Y-70484819D01*
X116863333Y-70484819D02*
X116530000Y-70865771D01*
X116530000Y-70865771D02*
X116672857Y-70865771D01*
X116672857Y-70865771D02*
X116768095Y-70913390D01*
X116768095Y-70913390D02*
X116815714Y-70961009D01*
X116815714Y-70961009D02*
X116863333Y-71056247D01*
X116863333Y-71056247D02*
X116863333Y-71294342D01*
X116863333Y-71294342D02*
X116815714Y-71389580D01*
X116815714Y-71389580D02*
X116768095Y-71437200D01*
X116768095Y-71437200D02*
X116672857Y-71484819D01*
X116672857Y-71484819D02*
X116387143Y-71484819D01*
X116387143Y-71484819D02*
X116291905Y-71437200D01*
X116291905Y-71437200D02*
X116244286Y-71389580D01*
X135756905Y-85024819D02*
X135756905Y-84024819D01*
X135756905Y-84024819D02*
X135995000Y-84024819D01*
X135995000Y-84024819D02*
X136137857Y-84072438D01*
X136137857Y-84072438D02*
X136233095Y-84167676D01*
X136233095Y-84167676D02*
X136280714Y-84262914D01*
X136280714Y-84262914D02*
X136328333Y-84453390D01*
X136328333Y-84453390D02*
X136328333Y-84596247D01*
X136328333Y-84596247D02*
X136280714Y-84786723D01*
X136280714Y-84786723D02*
X136233095Y-84881961D01*
X136233095Y-84881961D02*
X136137857Y-84977200D01*
X136137857Y-84977200D02*
X135995000Y-85024819D01*
X135995000Y-85024819D02*
X135756905Y-85024819D01*
X136709286Y-84120057D02*
X136756905Y-84072438D01*
X136756905Y-84072438D02*
X136852143Y-84024819D01*
X136852143Y-84024819D02*
X137090238Y-84024819D01*
X137090238Y-84024819D02*
X137185476Y-84072438D01*
X137185476Y-84072438D02*
X137233095Y-84120057D01*
X137233095Y-84120057D02*
X137280714Y-84215295D01*
X137280714Y-84215295D02*
X137280714Y-84310533D01*
X137280714Y-84310533D02*
X137233095Y-84453390D01*
X137233095Y-84453390D02*
X136661667Y-85024819D01*
X136661667Y-85024819D02*
X137280714Y-85024819D01*
X135852142Y-90944819D02*
X135375952Y-90944819D01*
X135375952Y-90944819D02*
X135375952Y-89944819D01*
X136185476Y-90421009D02*
X136518809Y-90421009D01*
X136661666Y-90944819D02*
X136185476Y-90944819D01*
X136185476Y-90944819D02*
X136185476Y-89944819D01*
X136185476Y-89944819D02*
X136661666Y-89944819D01*
X137090238Y-90944819D02*
X137090238Y-89944819D01*
X137090238Y-89944819D02*
X137328333Y-89944819D01*
X137328333Y-89944819D02*
X137471190Y-89992438D01*
X137471190Y-89992438D02*
X137566428Y-90087676D01*
X137566428Y-90087676D02*
X137614047Y-90182914D01*
X137614047Y-90182914D02*
X137661666Y-90373390D01*
X137661666Y-90373390D02*
X137661666Y-90516247D01*
X137661666Y-90516247D02*
X137614047Y-90706723D01*
X137614047Y-90706723D02*
X137566428Y-90801961D01*
X137566428Y-90801961D02*
X137471190Y-90897200D01*
X137471190Y-90897200D02*
X137328333Y-90944819D01*
X137328333Y-90944819D02*
X137090238Y-90944819D01*
X127314819Y-70696666D02*
X126838628Y-71029999D01*
X127314819Y-71268094D02*
X126314819Y-71268094D01*
X126314819Y-71268094D02*
X126314819Y-70887142D01*
X126314819Y-70887142D02*
X126362438Y-70791904D01*
X126362438Y-70791904D02*
X126410057Y-70744285D01*
X126410057Y-70744285D02*
X126505295Y-70696666D01*
X126505295Y-70696666D02*
X126648152Y-70696666D01*
X126648152Y-70696666D02*
X126743390Y-70744285D01*
X126743390Y-70744285D02*
X126791009Y-70791904D01*
X126791009Y-70791904D02*
X126838628Y-70887142D01*
X126838628Y-70887142D02*
X126838628Y-71268094D01*
X126314819Y-70363332D02*
X126314819Y-69744285D01*
X126314819Y-69744285D02*
X126695771Y-70077618D01*
X126695771Y-70077618D02*
X126695771Y-69934761D01*
X126695771Y-69934761D02*
X126743390Y-69839523D01*
X126743390Y-69839523D02*
X126791009Y-69791904D01*
X126791009Y-69791904D02*
X126886247Y-69744285D01*
X126886247Y-69744285D02*
X127124342Y-69744285D01*
X127124342Y-69744285D02*
X127219580Y-69791904D01*
X127219580Y-69791904D02*
X127267200Y-69839523D01*
X127267200Y-69839523D02*
X127314819Y-69934761D01*
X127314819Y-69934761D02*
X127314819Y-70220475D01*
X127314819Y-70220475D02*
X127267200Y-70315713D01*
X127267200Y-70315713D02*
X127219580Y-70363332D01*
X114196667Y-86937200D02*
X114339524Y-86984819D01*
X114339524Y-86984819D02*
X114577619Y-86984819D01*
X114577619Y-86984819D02*
X114672857Y-86937200D01*
X114672857Y-86937200D02*
X114720476Y-86889580D01*
X114720476Y-86889580D02*
X114768095Y-86794342D01*
X114768095Y-86794342D02*
X114768095Y-86699104D01*
X114768095Y-86699104D02*
X114720476Y-86603866D01*
X114720476Y-86603866D02*
X114672857Y-86556247D01*
X114672857Y-86556247D02*
X114577619Y-86508628D01*
X114577619Y-86508628D02*
X114387143Y-86461009D01*
X114387143Y-86461009D02*
X114291905Y-86413390D01*
X114291905Y-86413390D02*
X114244286Y-86365771D01*
X114244286Y-86365771D02*
X114196667Y-86270533D01*
X114196667Y-86270533D02*
X114196667Y-86175295D01*
X114196667Y-86175295D02*
X114244286Y-86080057D01*
X114244286Y-86080057D02*
X114291905Y-86032438D01*
X114291905Y-86032438D02*
X114387143Y-85984819D01*
X114387143Y-85984819D02*
X114625238Y-85984819D01*
X114625238Y-85984819D02*
X114768095Y-86032438D01*
X115101429Y-85984819D02*
X115339524Y-86984819D01*
X115339524Y-86984819D02*
X115530000Y-86270533D01*
X115530000Y-86270533D02*
X115720476Y-86984819D01*
X115720476Y-86984819D02*
X115958572Y-85984819D01*
X116863333Y-86984819D02*
X116291905Y-86984819D01*
X116577619Y-86984819D02*
X116577619Y-85984819D01*
X116577619Y-85984819D02*
X116482381Y-86127676D01*
X116482381Y-86127676D02*
X116387143Y-86222914D01*
X116387143Y-86222914D02*
X116291905Y-86270533D01*
X145833333Y-89874819D02*
X145500000Y-89398628D01*
X145261905Y-89874819D02*
X145261905Y-88874819D01*
X145261905Y-88874819D02*
X145642857Y-88874819D01*
X145642857Y-88874819D02*
X145738095Y-88922438D01*
X145738095Y-88922438D02*
X145785714Y-88970057D01*
X145785714Y-88970057D02*
X145833333Y-89065295D01*
X145833333Y-89065295D02*
X145833333Y-89208152D01*
X145833333Y-89208152D02*
X145785714Y-89303390D01*
X145785714Y-89303390D02*
X145738095Y-89351009D01*
X145738095Y-89351009D02*
X145642857Y-89398628D01*
X145642857Y-89398628D02*
X145261905Y-89398628D01*
X146214286Y-88970057D02*
X146261905Y-88922438D01*
X146261905Y-88922438D02*
X146357143Y-88874819D01*
X146357143Y-88874819D02*
X146595238Y-88874819D01*
X146595238Y-88874819D02*
X146690476Y-88922438D01*
X146690476Y-88922438D02*
X146738095Y-88970057D01*
X146738095Y-88970057D02*
X146785714Y-89065295D01*
X146785714Y-89065295D02*
X146785714Y-89160533D01*
X146785714Y-89160533D02*
X146738095Y-89303390D01*
X146738095Y-89303390D02*
X146166667Y-89874819D01*
X146166667Y-89874819D02*
X146785714Y-89874819D01*
X132324819Y-70063333D02*
X133039104Y-70063333D01*
X133039104Y-70063333D02*
X133181961Y-70110952D01*
X133181961Y-70110952D02*
X133277200Y-70206190D01*
X133277200Y-70206190D02*
X133324819Y-70349047D01*
X133324819Y-70349047D02*
X133324819Y-70444285D01*
X132324819Y-69682380D02*
X132324819Y-69063333D01*
X132324819Y-69063333D02*
X132705771Y-69396666D01*
X132705771Y-69396666D02*
X132705771Y-69253809D01*
X132705771Y-69253809D02*
X132753390Y-69158571D01*
X132753390Y-69158571D02*
X132801009Y-69110952D01*
X132801009Y-69110952D02*
X132896247Y-69063333D01*
X132896247Y-69063333D02*
X133134342Y-69063333D01*
X133134342Y-69063333D02*
X133229580Y-69110952D01*
X133229580Y-69110952D02*
X133277200Y-69158571D01*
X133277200Y-69158571D02*
X133324819Y-69253809D01*
X133324819Y-69253809D02*
X133324819Y-69539523D01*
X133324819Y-69539523D02*
X133277200Y-69634761D01*
X133277200Y-69634761D02*
X133229580Y-69682380D01*
D13*
X162030000Y-73570000D02*
X162030000Y-76230000D01*
X182410000Y-73570000D02*
X162030000Y-73570000D01*
X182410000Y-73570000D02*
X182410000Y-76230000D01*
X182410000Y-76230000D02*
X162030000Y-76230000D01*
X183680000Y-73570000D02*
X185010000Y-73570000D01*
X185010000Y-73570000D02*
X185010000Y-74900000D01*
X113190000Y-98830000D02*
X113190000Y-97500000D01*
X114520000Y-98830000D02*
X113190000Y-98830000D01*
X115790000Y-96170000D02*
X153950000Y-96170000D01*
X115790000Y-98830000D02*
X115790000Y-96170000D01*
X115790000Y-98830000D02*
X153950000Y-98830000D01*
X153950000Y-98830000D02*
X153950000Y-96170000D01*
X143320000Y-79500000D02*
X144270000Y-79500000D01*
X144270000Y-78580000D02*
X144270000Y-80420000D01*
X144270000Y-80420000D02*
X148110000Y-80420000D01*
X148110000Y-78580000D02*
X144270000Y-78580000D01*
X148110000Y-80420000D02*
X148110000Y-78580000D01*
X149060000Y-79500000D02*
X148110000Y-79500000D01*
X134935000Y-78264000D02*
X134935000Y-78420000D01*
X134935000Y-80580000D02*
X134935000Y-80736000D01*
X134935000Y-78264484D02*
G75*
G02*
X138167335Y-78421392I1560000J-1235516D01*
G01*
X135454039Y-78420000D02*
G75*
G02*
X137536130Y-78420163I1040961J-1080000D01*
G01*
X137536130Y-80579837D02*
G75*
G02*
X135454039Y-80580000I-1041130J1079837D01*
G01*
X138167335Y-80578608D02*
G75*
G02*
X134935000Y-80735516I-1672335J1078608D01*
G01*
X113190000Y-119130000D02*
X113190000Y-117800000D01*
X114520000Y-119130000D02*
X113190000Y-119130000D01*
X115790000Y-116470000D02*
X143790000Y-116470000D01*
X115790000Y-119130000D02*
X115790000Y-116470000D01*
X115790000Y-119130000D02*
X143790000Y-119130000D01*
X143790000Y-119130000D02*
X143790000Y-116470000D01*
X146470000Y-67090000D02*
X154210000Y-67090000D01*
X146470000Y-69690000D02*
X146470000Y-67090000D01*
X146470000Y-72290000D02*
X146470000Y-70960000D01*
X147800000Y-72290000D02*
X146470000Y-72290000D01*
X149070000Y-69690000D02*
X146470000Y-69690000D01*
X149070000Y-72290000D02*
X149070000Y-69690000D01*
X149070000Y-72290000D02*
X154210000Y-72290000D01*
X154210000Y-72290000D02*
X154210000Y-67090000D01*
X127460000Y-83760000D02*
X127460000Y-81160000D01*
X130120000Y-81160000D02*
X127460000Y-81160000D01*
X130120000Y-83760000D02*
X127460000Y-83760000D01*
X130120000Y-83760000D02*
X130120000Y-81160000D01*
X130120000Y-85030000D02*
X130120000Y-86360000D01*
X130120000Y-86360000D02*
X128790000Y-86360000D01*
X109420000Y-64920000D02*
X109420000Y-67430000D01*
X109420000Y-64920000D02*
X121640000Y-64920000D01*
X109420000Y-69730000D02*
X109420000Y-72330000D01*
X109420000Y-74630000D02*
X109420000Y-77140000D01*
X121640000Y-64920000D02*
X121640000Y-67430000D01*
X121640000Y-69730000D02*
X121640000Y-72330000D01*
X121640000Y-74630000D02*
X121640000Y-77140000D01*
X121640000Y-77140000D02*
X109420000Y-77140000D01*
X134935000Y-86294000D02*
X134935000Y-86450000D01*
X134935000Y-88610000D02*
X134935000Y-88766000D01*
X134935000Y-86294484D02*
G75*
G02*
X138167335Y-86451392I1560000J-1235516D01*
G01*
X135454039Y-86450000D02*
G75*
G02*
X137536130Y-86450163I1040961J-1080000D01*
G01*
X137536130Y-88609837D02*
G75*
G02*
X135454039Y-88610000I-1041130J1079837D01*
G01*
X138167335Y-88608608D02*
G75*
G02*
X134935000Y-88765516I-1672335J1078608D01*
G01*
X128780000Y-67660000D02*
X128780000Y-68610000D01*
X128780000Y-73400000D02*
X128780000Y-72450000D01*
X127860000Y-72450000D02*
X129700000Y-72450000D01*
X129700000Y-68610000D01*
X127860000Y-68610000D01*
X127860000Y-72450000D01*
X109420000Y-80420000D02*
X109420000Y-82930000D01*
X109420000Y-80420000D02*
X121640000Y-80420000D01*
X109420000Y-85230000D02*
X109420000Y-87830000D01*
X109420000Y-90130000D02*
X109420000Y-92640000D01*
X121640000Y-80420000D02*
X121640000Y-82930000D01*
X121640000Y-85230000D02*
X121640000Y-87830000D01*
X121640000Y-90130000D02*
X121640000Y-92640000D01*
X121640000Y-92640000D02*
X109420000Y-92640000D01*
X143130000Y-87500000D02*
X144080000Y-87500000D01*
X144080000Y-86580000D02*
X144080000Y-88420000D01*
X144080000Y-88420000D02*
X147920000Y-88420000D01*
X147920000Y-86580000D02*
X144080000Y-86580000D01*
X147920000Y-88420000D02*
X147920000Y-86580000D01*
X148870000Y-87500000D02*
X147920000Y-87500000D01*
X133870000Y-67130000D02*
X141610000Y-67130000D01*
X133870000Y-69730000D02*
X133870000Y-67130000D01*
X133870000Y-72330000D02*
X133870000Y-71000000D01*
X135200000Y-72330000D02*
X133870000Y-72330000D01*
X136470000Y-69730000D02*
X133870000Y-69730000D01*
X136470000Y-72330000D02*
X136470000Y-69730000D01*
X136470000Y-72330000D02*
X141610000Y-72330000D01*
X141610000Y-72330000D02*
X141610000Y-67130000D01*
%LPC*%
D14*
X183680000Y-74900000D03*
D15*
X181140000Y-74900000D03*
X178600000Y-74900000D03*
X176060000Y-74900000D03*
X173520000Y-74900000D03*
X170980000Y-74900000D03*
X168440000Y-74900000D03*
X165900000Y-74900000D03*
X163360000Y-74900000D03*
D14*
X114520000Y-97500000D03*
D15*
X117060000Y-97500000D03*
X119600000Y-97500000D03*
X122140000Y-97500000D03*
X124680000Y-97500000D03*
X127220000Y-97500000D03*
X129760000Y-97500000D03*
X132300000Y-97500000D03*
X134840000Y-97500000D03*
X137380000Y-97500000D03*
X139920000Y-97500000D03*
X142460000Y-97500000D03*
X145000000Y-97500000D03*
X147540000Y-97500000D03*
X150080000Y-97500000D03*
X152620000Y-97500000D03*
D16*
X150000000Y-79500000D03*
D17*
X142380000Y-79500000D03*
D18*
X135225000Y-79500000D03*
D19*
X137765000Y-79500000D03*
D14*
X114520000Y-117800000D03*
D15*
X117060000Y-117800000D03*
X119600000Y-117800000D03*
X122140000Y-117800000D03*
X124680000Y-117800000D03*
X127220000Y-117800000D03*
X129760000Y-117800000D03*
X132300000Y-117800000D03*
X134840000Y-117800000D03*
X137380000Y-117800000D03*
X139920000Y-117800000D03*
X142460000Y-117800000D03*
D14*
X147800000Y-70960000D03*
D15*
X147800000Y-68420000D03*
X150340000Y-70960000D03*
X150340000Y-68420000D03*
X152880000Y-70960000D03*
X152880000Y-68420000D03*
D14*
X128790000Y-85030000D03*
D15*
X128790000Y-82490000D03*
D19*
X115530000Y-66530000D03*
X115530000Y-75530000D03*
D20*
X109280000Y-68530000D03*
X121780000Y-68530000D03*
X109280000Y-73530000D03*
X121780000Y-73530000D03*
D18*
X135225000Y-87530000D03*
D19*
X137765000Y-87530000D03*
D16*
X128780000Y-74340000D03*
X128780000Y-66720000D03*
D19*
X115530000Y-82030000D03*
X115530000Y-91030000D03*
D20*
X109280000Y-84030000D03*
X121780000Y-84030000D03*
X109280000Y-89030000D03*
X121780000Y-89030000D03*
D16*
X149810000Y-87500000D03*
D17*
X142190000Y-87500000D03*
D14*
X135200000Y-71000000D03*
D15*
X135200000Y-68460000D03*
X137740000Y-71000000D03*
X137740000Y-68460000D03*
X140280000Y-71000000D03*
X140280000Y-68460000D03*
%LPD*%
M02*
