G04 #@! TF.GenerationSoftware,KiCad,Pcbnew,9.0.2*
G04 #@! TF.CreationDate,2025-09-04T17:03:48-05:00*
G04 #@! TF.ProjectId,Quake_PCB_3,5175616b-655f-4504-9342-5f332e6b6963,rev?*
G04 #@! TF.SameCoordinates,Original*
G04 #@! TF.FileFunction,Profile,NP*
%FSLAX46Y46*%
G04 Gerber Fmt 4.6, Leading zero omitted, Abs format (unit mm)*
G04 Created by KiCad (PCBNEW 9.0.2) date 2025-09-04 17:03:48*
%MOMM*%
%LPD*%
G01*
G04 APERTURE LIST*
G04 #@! TA.AperFunction,Profile*
%ADD10C,0.050000*%
G04 #@! TD*
G04 APERTURE END LIST*
D10*
X199500000Y-79500000D02*
X199500000Y-95500000D01*
X101500000Y-127500000D02*
G75*
G02*
X99500000Y-125500000I0J2000000D01*
G01*
X99500000Y-62500000D02*
X99500000Y-76500000D01*
X98000000Y-110000000D02*
X92000000Y-110000000D01*
X99595755Y-93892033D02*
G75*
G02*
X93938901Y-93892033I-2828427J0D01*
G01*
X93938901Y-93892033D02*
G75*
G02*
X99595755Y-93892033I2828427J0D01*
G01*
X188328427Y-65000000D02*
G75*
G02*
X182671573Y-65000000I-2828427J0D01*
G01*
X182671573Y-65000000D02*
G75*
G02*
X188328427Y-65000000I2828427J0D01*
G01*
X192000000Y-77500000D02*
X197500000Y-77500000D01*
X99500000Y-76500000D02*
G75*
G02*
X98000000Y-78000000I-1500000J0D01*
G01*
X199500000Y-95500000D02*
G75*
G02*
X197000000Y-98000000I-2500000J0D01*
G01*
X99500000Y-62500000D02*
G75*
G02*
X101500000Y-60500000I2000000J0D01*
G01*
X195593779Y-93825530D02*
G75*
G02*
X189936925Y-93825530I-2828427J0D01*
G01*
X189936925Y-93825530D02*
G75*
G02*
X195593779Y-93825530I2828427J0D01*
G01*
X197500000Y-77500000D02*
G75*
G02*
X199500000Y-79500000I0J-2000000D01*
G01*
X184960000Y-92700000D02*
G75*
G02*
X182360000Y-92700000I-1300000J0D01*
G01*
X182360000Y-92700000D02*
G75*
G02*
X184960000Y-92700000I1300000J0D01*
G01*
X90500000Y-79500000D02*
G75*
G02*
X92000000Y-78000000I1500000J0D01*
G01*
X197000000Y-98000000D02*
X163000000Y-98000000D01*
X90500000Y-108500000D02*
X90500000Y-79500000D01*
X159000000Y-127500000D02*
X101500000Y-127500000D01*
X161000000Y-100000000D02*
X161000000Y-125500000D01*
X92000000Y-78000000D02*
X98000000Y-78000000D01*
X92000000Y-110000000D02*
G75*
G02*
X90500000Y-108500000I0J1500000D01*
G01*
X101500000Y-60500000D02*
X188000000Y-60500000D01*
X161000000Y-125500000D02*
G75*
G02*
X159000000Y-127500000I-2000000J0D01*
G01*
X99500000Y-111500000D02*
X99500000Y-125500000D01*
X106828427Y-65000000D02*
G75*
G02*
X101171573Y-65000000I-2828427J0D01*
G01*
X101171573Y-65000000D02*
G75*
G02*
X106828427Y-65000000I2828427J0D01*
G01*
X98000000Y-110000000D02*
G75*
G02*
X99500000Y-111500000I0J-1500000D01*
G01*
X106695839Y-122878796D02*
G75*
G02*
X101061753Y-122878796I-2817043J0D01*
G01*
X101061753Y-122878796D02*
G75*
G02*
X106695839Y-122878796I2817043J0D01*
G01*
X192000000Y-77500000D02*
G75*
G02*
X190000000Y-75500000I0J2000000D01*
G01*
X164661730Y-92650000D02*
G75*
G02*
X162058270Y-92650000I-1301730J0D01*
G01*
X162058270Y-92650000D02*
G75*
G02*
X164661730Y-92650000I1301730J0D01*
G01*
X161000000Y-100000000D02*
G75*
G02*
X163000000Y-98000000I2000000J0D01*
G01*
X190000000Y-62500000D02*
X190000000Y-75500000D01*
X188000000Y-60500000D02*
G75*
G02*
X190000000Y-62500000I0J-2000000D01*
G01*
M02*
