%TF.GenerationSoftware,KiCad,Pcbnew,9.0.2*%
%TF.CreationDate,2025-09-04T17:04:39-05:00*%
%TF.ProjectId,Quake_PCB_3,5175616b-655f-4504-9342-5f332e6b6963,rev?*%
%TF.SameCoordinates,Original*%
%TF.FileFunction,Drillmap*%
%TF.FilePolarity,Positive*%
%FSLAX45Y45*%
G04 Gerber Fmt 4.5, Leading zero omitted, Abs format (unit mm)*
G04 Created by KiCad (PCBNEW 9.0.2) date 2025-09-04 17:04:39*
%MOMM*%
%LPD*%
G01*
G04 APERTURE LIST*
%ADD10C,0.050000*%
%ADD11C,0.200000*%
%ADD12C,0.100000*%
%ADD13C,0.120000*%
G04 APERTURE END LIST*
D10*
X19950000Y-7950000D02*
X19950000Y-9550000D01*
X10150000Y-12750000D02*
G75*
G02*
X9950000Y-12550000I0J200000D01*
G01*
X9950000Y-6250000D02*
X9950000Y-7650000D01*
X9800000Y-11000000D02*
X9200000Y-11000000D01*
X9959576Y-9389203D02*
G75*
G02*
X9393890Y-9389203I-282843J0D01*
G01*
X9393890Y-9389203D02*
G75*
G02*
X9959576Y-9389203I282843J0D01*
G01*
X18832843Y-6500000D02*
G75*
G02*
X18267157Y-6500000I-282843J0D01*
G01*
X18267157Y-6500000D02*
G75*
G02*
X18832843Y-6500000I282843J0D01*
G01*
X19200000Y-7750000D02*
X19750000Y-7750000D01*
X9950000Y-7650000D02*
G75*
G02*
X9800000Y-7800000I-150000J0D01*
G01*
X19950000Y-9550000D02*
G75*
G02*
X19700000Y-9800000I-250000J0D01*
G01*
X9950000Y-6250000D02*
G75*
G02*
X10150000Y-6050000I200000J0D01*
G01*
X19559378Y-9382553D02*
G75*
G02*
X18993693Y-9382553I-282843J0D01*
G01*
X18993693Y-9382553D02*
G75*
G02*
X19559378Y-9382553I282843J0D01*
G01*
X19750000Y-7750000D02*
G75*
G02*
X19950000Y-7950000I0J-200000D01*
G01*
X18496000Y-9270000D02*
G75*
G02*
X18236000Y-9270000I-130000J0D01*
G01*
X18236000Y-9270000D02*
G75*
G02*
X18496000Y-9270000I130000J0D01*
G01*
X9050000Y-7950000D02*
G75*
G02*
X9200000Y-7800000I150000J0D01*
G01*
X19700000Y-9800000D02*
X16300000Y-9800000D01*
X9050000Y-10850000D02*
X9050000Y-7950000D01*
X15900000Y-12750000D02*
X10150000Y-12750000D01*
X16100000Y-10000000D02*
X16100000Y-12550000D01*
X9200000Y-7800000D02*
X9800000Y-7800000D01*
X9200000Y-11000000D02*
G75*
G02*
X9050000Y-10850000I0J150000D01*
G01*
X10150000Y-6050000D02*
X18800000Y-6050000D01*
X16100000Y-12550000D02*
G75*
G02*
X15900000Y-12750000I-200000J0D01*
G01*
X9950000Y-11150000D02*
X9950000Y-12550000D01*
X10682843Y-6500000D02*
G75*
G02*
X10117157Y-6500000I-282843J0D01*
G01*
X10117157Y-6500000D02*
G75*
G02*
X10682843Y-6500000I282843J0D01*
G01*
X9800000Y-11000000D02*
G75*
G02*
X9950000Y-11150000I0J-150000D01*
G01*
X10669584Y-12287880D02*
G75*
G02*
X10106175Y-12287880I-281704J0D01*
G01*
X10106175Y-12287880D02*
G75*
G02*
X10669584Y-12287880I281704J0D01*
G01*
X19200000Y-7750000D02*
G75*
G02*
X19000000Y-7550000I0J200000D01*
G01*
X16466173Y-9265000D02*
G75*
G02*
X16205827Y-9265000I-130173J0D01*
G01*
X16205827Y-9265000D02*
G75*
G02*
X16466173Y-9265000I130173J0D01*
G01*
X16100000Y-10000000D02*
G75*
G02*
X16300000Y-9800000I200000J0D01*
G01*
X19000000Y-6250000D02*
X19000000Y-7550000D01*
X18800000Y-6050000D02*
G75*
G02*
X19000000Y-6250000I0J-200000D01*
G01*
D11*
D12*
X13357210Y-6921710D02*
X13387210Y-6951710D01*
X13387210Y-6921710D02*
X13357210Y-6951710D01*
X13875120Y-6657120D02*
X13905120Y-6687120D01*
X13905120Y-6657120D02*
X13875120Y-6687120D01*
X14765000Y-7351280D02*
X14795000Y-7381280D01*
X14795000Y-7351280D02*
X14765000Y-7381280D01*
X15141040Y-7820050D02*
X15171040Y-7850050D01*
X15171040Y-7820050D02*
X15141040Y-7850050D01*
X17141350Y-7749580D02*
X17171350Y-7779580D01*
X17171350Y-7749580D02*
X17141350Y-7779580D01*
X12970000Y-12150000D02*
G75*
G02*
X12930000Y-12150000I-20000J0D01*
G01*
X12930000Y-12150000D02*
G75*
G02*
X12970000Y-12150000I20000J0D01*
G01*
X12878000Y-6637000D02*
X12878000Y-6707000D01*
X12843000Y-6672000D02*
X12913000Y-6672000D01*
X12878000Y-7399000D02*
X12878000Y-7469000D01*
X12843000Y-7434000D02*
X12913000Y-7434000D01*
X14219000Y-8715000D02*
X14219000Y-8785000D01*
X14184000Y-8750000D02*
X14254000Y-8750000D01*
X14238000Y-7915000D02*
X14238000Y-7985000D01*
X14203000Y-7950000D02*
X14273000Y-7950000D01*
X14981000Y-8715000D02*
X14981000Y-8785000D01*
X14946000Y-8750000D02*
X15016000Y-8750000D01*
X15000000Y-7915000D02*
X15000000Y-7985000D01*
X14965000Y-7950000D02*
X15035000Y-7950000D01*
X13554320Y-7981820D02*
X13554320Y-7918180D01*
X13490680Y-7918180D01*
X13490680Y-7981820D01*
X13554320Y-7981820D01*
X13554320Y-8784820D02*
X13554320Y-8721180D01*
X13490680Y-8721180D01*
X13490680Y-8784820D01*
X13554320Y-8784820D01*
X13808320Y-7981820D02*
X13808320Y-7918180D01*
X13744680Y-7918180D01*
X13744680Y-7981820D01*
X13808320Y-7981820D01*
X13808320Y-8784820D02*
X13808320Y-8721180D01*
X13744680Y-8721180D01*
X13744680Y-8784820D01*
X13808320Y-8784820D01*
X11452000Y-9800000D02*
X11502000Y-9750000D01*
X11452000Y-9700000D01*
X11402000Y-9750000D01*
X11452000Y-9800000D01*
X11452000Y-11830000D02*
X11502000Y-11780000D01*
X11452000Y-11730000D01*
X11402000Y-11780000D01*
X11452000Y-11830000D01*
X11706000Y-9800000D02*
X11756000Y-9750000D01*
X11706000Y-9700000D01*
X11656000Y-9750000D01*
X11706000Y-9800000D01*
X11706000Y-11830000D02*
X11756000Y-11780000D01*
X11706000Y-11730000D01*
X11656000Y-11780000D01*
X11706000Y-11830000D01*
X11960000Y-9800000D02*
X12010000Y-9750000D01*
X11960000Y-9700000D01*
X11910000Y-9750000D01*
X11960000Y-9800000D01*
X11960000Y-11830000D02*
X12010000Y-11780000D01*
X11960000Y-11730000D01*
X11910000Y-11780000D01*
X11960000Y-11830000D01*
X12214000Y-9800000D02*
X12264000Y-9750000D01*
X12214000Y-9700000D01*
X12164000Y-9750000D01*
X12214000Y-9800000D01*
X12214000Y-11830000D02*
X12264000Y-11780000D01*
X12214000Y-11730000D01*
X12164000Y-11780000D01*
X12214000Y-11830000D01*
X12468000Y-9800000D02*
X12518000Y-9750000D01*
X12468000Y-9700000D01*
X12418000Y-9750000D01*
X12468000Y-9800000D01*
X12468000Y-11830000D02*
X12518000Y-11780000D01*
X12468000Y-11730000D01*
X12418000Y-11780000D01*
X12468000Y-11830000D01*
X12722000Y-9800000D02*
X12772000Y-9750000D01*
X12722000Y-9700000D01*
X12672000Y-9750000D01*
X12722000Y-9800000D01*
X12722000Y-11830000D02*
X12772000Y-11780000D01*
X12722000Y-11730000D01*
X12672000Y-11780000D01*
X12722000Y-11830000D01*
X12879000Y-8299000D02*
X12929000Y-8249000D01*
X12879000Y-8199000D01*
X12829000Y-8249000D01*
X12879000Y-8299000D01*
X12879000Y-8553000D02*
X12929000Y-8503000D01*
X12879000Y-8453000D01*
X12829000Y-8503000D01*
X12879000Y-8553000D01*
X12976000Y-9800000D02*
X13026000Y-9750000D01*
X12976000Y-9700000D01*
X12926000Y-9750000D01*
X12976000Y-9800000D01*
X12976000Y-11830000D02*
X13026000Y-11780000D01*
X12976000Y-11730000D01*
X12926000Y-11780000D01*
X12976000Y-11830000D01*
X13230000Y-9800000D02*
X13280000Y-9750000D01*
X13230000Y-9700000D01*
X13180000Y-9750000D01*
X13230000Y-9800000D01*
X13230000Y-11830000D02*
X13280000Y-11780000D01*
X13230000Y-11730000D01*
X13180000Y-11780000D01*
X13230000Y-11830000D01*
X13484000Y-9800000D02*
X13534000Y-9750000D01*
X13484000Y-9700000D01*
X13434000Y-9750000D01*
X13484000Y-9800000D01*
X13484000Y-11830000D02*
X13534000Y-11780000D01*
X13484000Y-11730000D01*
X13434000Y-11780000D01*
X13484000Y-11830000D01*
X13520000Y-6896000D02*
X13570000Y-6846000D01*
X13520000Y-6796000D01*
X13470000Y-6846000D01*
X13520000Y-6896000D01*
X13520000Y-7150000D02*
X13570000Y-7100000D01*
X13520000Y-7050000D01*
X13470000Y-7100000D01*
X13520000Y-7150000D01*
X13738000Y-9800000D02*
X13788000Y-9750000D01*
X13738000Y-9700000D01*
X13688000Y-9750000D01*
X13738000Y-9800000D01*
X13738000Y-11830000D02*
X13788000Y-11780000D01*
X13738000Y-11730000D01*
X13688000Y-11780000D01*
X13738000Y-11830000D01*
X13774000Y-6896000D02*
X13824000Y-6846000D01*
X13774000Y-6796000D01*
X13724000Y-6846000D01*
X13774000Y-6896000D01*
X13774000Y-7150000D02*
X13824000Y-7100000D01*
X13774000Y-7050000D01*
X13724000Y-7100000D01*
X13774000Y-7150000D01*
X13992000Y-9800000D02*
X14042000Y-9750000D01*
X13992000Y-9700000D01*
X13942000Y-9750000D01*
X13992000Y-9800000D01*
X13992000Y-11830000D02*
X14042000Y-11780000D01*
X13992000Y-11730000D01*
X13942000Y-11780000D01*
X13992000Y-11830000D01*
X14028000Y-6896000D02*
X14078000Y-6846000D01*
X14028000Y-6796000D01*
X13978000Y-6846000D01*
X14028000Y-6896000D01*
X14028000Y-7150000D02*
X14078000Y-7100000D01*
X14028000Y-7050000D01*
X13978000Y-7100000D01*
X14028000Y-7150000D01*
X14246000Y-9800000D02*
X14296000Y-9750000D01*
X14246000Y-9700000D01*
X14196000Y-9750000D01*
X14246000Y-9800000D01*
X14246000Y-11830000D02*
X14296000Y-11780000D01*
X14246000Y-11730000D01*
X14196000Y-11780000D01*
X14246000Y-11830000D01*
X14500000Y-9800000D02*
X14550000Y-9750000D01*
X14500000Y-9700000D01*
X14450000Y-9750000D01*
X14500000Y-9800000D01*
X14754000Y-9800000D02*
X14804000Y-9750000D01*
X14754000Y-9700000D01*
X14704000Y-9750000D01*
X14754000Y-9800000D01*
X14780000Y-6892000D02*
X14830000Y-6842000D01*
X14780000Y-6792000D01*
X14730000Y-6842000D01*
X14780000Y-6892000D01*
X14780000Y-7146000D02*
X14830000Y-7096000D01*
X14780000Y-7046000D01*
X14730000Y-7096000D01*
X14780000Y-7146000D01*
X15008000Y-9800000D02*
X15058000Y-9750000D01*
X15008000Y-9700000D01*
X14958000Y-9750000D01*
X15008000Y-9800000D01*
X15034000Y-6892000D02*
X15084000Y-6842000D01*
X15034000Y-6792000D01*
X14984000Y-6842000D01*
X15034000Y-6892000D01*
X15034000Y-7146000D02*
X15084000Y-7096000D01*
X15034000Y-7046000D01*
X14984000Y-7096000D01*
X15034000Y-7146000D01*
X15262000Y-9800000D02*
X15312000Y-9750000D01*
X15262000Y-9700000D01*
X15212000Y-9750000D01*
X15262000Y-9800000D01*
X15288000Y-6892000D02*
X15338000Y-6842000D01*
X15288000Y-6792000D01*
X15238000Y-6842000D01*
X15288000Y-6892000D01*
X15288000Y-7146000D02*
X15338000Y-7096000D01*
X15288000Y-7046000D01*
X15238000Y-7096000D01*
X15288000Y-7146000D01*
X16336000Y-7540000D02*
X16386000Y-7490000D01*
X16336000Y-7440000D01*
X16286000Y-7490000D01*
X16336000Y-7540000D01*
X16590000Y-7540000D02*
X16640000Y-7490000D01*
X16590000Y-7440000D01*
X16540000Y-7490000D01*
X16590000Y-7540000D01*
X16696000Y-8800000D02*
X16746000Y-8750000D01*
X16696000Y-8700000D01*
X16646000Y-8750000D01*
X16696000Y-8800000D01*
X16844000Y-7540000D02*
X16894000Y-7490000D01*
X16844000Y-7440000D01*
X16794000Y-7490000D01*
X16844000Y-7540000D01*
X16950000Y-8800000D02*
X17000000Y-8750000D01*
X16950000Y-8700000D01*
X16900000Y-8750000D01*
X16950000Y-8800000D01*
X17098000Y-7540000D02*
X17148000Y-7490000D01*
X17098000Y-7440000D01*
X17048000Y-7490000D01*
X17098000Y-7540000D01*
X17204000Y-8800000D02*
X17254000Y-8750000D01*
X17204000Y-8700000D01*
X17154000Y-8750000D01*
X17204000Y-8800000D01*
X17352000Y-7540000D02*
X17402000Y-7490000D01*
X17352000Y-7440000D01*
X17302000Y-7490000D01*
X17352000Y-7540000D01*
X17458000Y-8800000D02*
X17508000Y-8750000D01*
X17458000Y-8700000D01*
X17408000Y-8750000D01*
X17458000Y-8800000D01*
X17606000Y-7540000D02*
X17656000Y-7490000D01*
X17606000Y-7440000D01*
X17556000Y-7490000D01*
X17606000Y-7540000D01*
X17712000Y-8800000D02*
X17762000Y-8750000D01*
X17712000Y-8700000D01*
X17662000Y-8750000D01*
X17712000Y-8800000D01*
X17860000Y-7540000D02*
X17910000Y-7490000D01*
X17860000Y-7440000D01*
X17810000Y-7490000D01*
X17860000Y-7540000D01*
X18114000Y-7540000D02*
X18164000Y-7490000D01*
X18114000Y-7440000D01*
X18064000Y-7490000D01*
X18114000Y-7540000D01*
X18368000Y-7540000D02*
X18418000Y-7490000D01*
X18368000Y-7440000D01*
X18318000Y-7490000D01*
X18368000Y-7540000D01*
D13*
X10868000Y-6793000D02*
X10988000Y-6913000D01*
X10988000Y-6793000D02*
X10868000Y-6913000D01*
X10988000Y-6853000D02*
G75*
G02*
X10868000Y-6853000I-60000J0D01*
G01*
X10868000Y-6853000D02*
G75*
G02*
X10988000Y-6853000I60000J0D01*
G01*
X10868000Y-7293000D02*
X10988000Y-7413000D01*
X10988000Y-7293000D02*
X10868000Y-7413000D01*
X10988000Y-7353000D02*
G75*
G02*
X10868000Y-7353000I-60000J0D01*
G01*
X10868000Y-7353000D02*
G75*
G02*
X10988000Y-7353000I60000J0D01*
G01*
X10868000Y-8343000D02*
X10988000Y-8463000D01*
X10988000Y-8343000D02*
X10868000Y-8463000D01*
X10988000Y-8403000D02*
G75*
G02*
X10868000Y-8403000I-60000J0D01*
G01*
X10868000Y-8403000D02*
G75*
G02*
X10988000Y-8403000I60000J0D01*
G01*
X10868000Y-8843000D02*
X10988000Y-8963000D01*
X10988000Y-8843000D02*
X10868000Y-8963000D01*
X10988000Y-8903000D02*
G75*
G02*
X10868000Y-8903000I-60000J0D01*
G01*
X10868000Y-8903000D02*
G75*
G02*
X10988000Y-8903000I60000J0D01*
G01*
X12118000Y-6793000D02*
X12238000Y-6913000D01*
X12238000Y-6793000D02*
X12118000Y-6913000D01*
X12238000Y-6853000D02*
G75*
G02*
X12118000Y-6853000I-60000J0D01*
G01*
X12118000Y-6853000D02*
G75*
G02*
X12238000Y-6853000I60000J0D01*
G01*
X12118000Y-7293000D02*
X12238000Y-7413000D01*
X12238000Y-7293000D02*
X12118000Y-7413000D01*
X12238000Y-7353000D02*
G75*
G02*
X12118000Y-7353000I-60000J0D01*
G01*
X12118000Y-7353000D02*
G75*
G02*
X12238000Y-7353000I60000J0D01*
G01*
X12118000Y-8343000D02*
X12238000Y-8463000D01*
X12238000Y-8343000D02*
X12118000Y-8463000D01*
X12238000Y-8403000D02*
G75*
G02*
X12118000Y-8403000I-60000J0D01*
G01*
X12118000Y-8403000D02*
G75*
G02*
X12238000Y-8403000I60000J0D01*
G01*
X12118000Y-8843000D02*
X12238000Y-8963000D01*
X12238000Y-8843000D02*
X12118000Y-8963000D01*
X12238000Y-8903000D02*
G75*
G02*
X12118000Y-8903000I-60000J0D01*
G01*
X12118000Y-8903000D02*
G75*
G02*
X12238000Y-8903000I60000J0D01*
G01*
D11*
X9308277Y-13063984D02*
X9308277Y-12863984D01*
X9308277Y-12863984D02*
X9355896Y-12863984D01*
X9355896Y-12863984D02*
X9384467Y-12873508D01*
X9384467Y-12873508D02*
X9403515Y-12892555D01*
X9403515Y-12892555D02*
X9413039Y-12911603D01*
X9413039Y-12911603D02*
X9422563Y-12949698D01*
X9422563Y-12949698D02*
X9422563Y-12978269D01*
X9422563Y-12978269D02*
X9413039Y-13016365D01*
X9413039Y-13016365D02*
X9403515Y-13035412D01*
X9403515Y-13035412D02*
X9384467Y-13054460D01*
X9384467Y-13054460D02*
X9355896Y-13063984D01*
X9355896Y-13063984D02*
X9308277Y-13063984D01*
X9508277Y-13063984D02*
X9508277Y-12930650D01*
X9508277Y-12968746D02*
X9517801Y-12949698D01*
X9517801Y-12949698D02*
X9527324Y-12940174D01*
X9527324Y-12940174D02*
X9546372Y-12930650D01*
X9546372Y-12930650D02*
X9565420Y-12930650D01*
X9632086Y-13063984D02*
X9632086Y-12930650D01*
X9632086Y-12863984D02*
X9622563Y-12873508D01*
X9622563Y-12873508D02*
X9632086Y-12883031D01*
X9632086Y-12883031D02*
X9641610Y-12873508D01*
X9641610Y-12873508D02*
X9632086Y-12863984D01*
X9632086Y-12863984D02*
X9632086Y-12883031D01*
X9755896Y-13063984D02*
X9736848Y-13054460D01*
X9736848Y-13054460D02*
X9727324Y-13035412D01*
X9727324Y-13035412D02*
X9727324Y-12863984D01*
X9860658Y-13063984D02*
X9841610Y-13054460D01*
X9841610Y-13054460D02*
X9832086Y-13035412D01*
X9832086Y-13035412D02*
X9832086Y-12863984D01*
X10089229Y-13063984D02*
X10089229Y-12863984D01*
X10089229Y-12863984D02*
X10155896Y-13006841D01*
X10155896Y-13006841D02*
X10222563Y-12863984D01*
X10222563Y-12863984D02*
X10222563Y-13063984D01*
X10403515Y-13063984D02*
X10403515Y-12959222D01*
X10403515Y-12959222D02*
X10393991Y-12940174D01*
X10393991Y-12940174D02*
X10374944Y-12930650D01*
X10374944Y-12930650D02*
X10336848Y-12930650D01*
X10336848Y-12930650D02*
X10317801Y-12940174D01*
X10403515Y-13054460D02*
X10384467Y-13063984D01*
X10384467Y-13063984D02*
X10336848Y-13063984D01*
X10336848Y-13063984D02*
X10317801Y-13054460D01*
X10317801Y-13054460D02*
X10308277Y-13035412D01*
X10308277Y-13035412D02*
X10308277Y-13016365D01*
X10308277Y-13016365D02*
X10317801Y-12997317D01*
X10317801Y-12997317D02*
X10336848Y-12987793D01*
X10336848Y-12987793D02*
X10384467Y-12987793D01*
X10384467Y-12987793D02*
X10403515Y-12978269D01*
X10498753Y-12930650D02*
X10498753Y-13130650D01*
X10498753Y-12940174D02*
X10517801Y-12930650D01*
X10517801Y-12930650D02*
X10555896Y-12930650D01*
X10555896Y-12930650D02*
X10574944Y-12940174D01*
X10574944Y-12940174D02*
X10584467Y-12949698D01*
X10584467Y-12949698D02*
X10593991Y-12968746D01*
X10593991Y-12968746D02*
X10593991Y-13025888D01*
X10593991Y-13025888D02*
X10584467Y-13044936D01*
X10584467Y-13044936D02*
X10574944Y-13054460D01*
X10574944Y-13054460D02*
X10555896Y-13063984D01*
X10555896Y-13063984D02*
X10517801Y-13063984D01*
X10517801Y-13063984D02*
X10498753Y-13054460D01*
X10679705Y-13044936D02*
X10689229Y-13054460D01*
X10689229Y-13054460D02*
X10679705Y-13063984D01*
X10679705Y-13063984D02*
X10670182Y-13054460D01*
X10670182Y-13054460D02*
X10679705Y-13044936D01*
X10679705Y-13044936D02*
X10679705Y-13063984D01*
X10679705Y-12940174D02*
X10689229Y-12949698D01*
X10689229Y-12949698D02*
X10679705Y-12959222D01*
X10679705Y-12959222D02*
X10670182Y-12949698D01*
X10670182Y-12949698D02*
X10679705Y-12940174D01*
X10679705Y-12940174D02*
X10679705Y-12959222D01*
D12*
X9017500Y-13377500D02*
X9047500Y-13407500D01*
X9047500Y-13377500D02*
X9017500Y-13407500D01*
D11*
X9346372Y-13283984D02*
X9365420Y-13283984D01*
X9365420Y-13283984D02*
X9384467Y-13293508D01*
X9384467Y-13293508D02*
X9393991Y-13303031D01*
X9393991Y-13303031D02*
X9403515Y-13322079D01*
X9403515Y-13322079D02*
X9413039Y-13360174D01*
X9413039Y-13360174D02*
X9413039Y-13407793D01*
X9413039Y-13407793D02*
X9403515Y-13445888D01*
X9403515Y-13445888D02*
X9393991Y-13464936D01*
X9393991Y-13464936D02*
X9384467Y-13474460D01*
X9384467Y-13474460D02*
X9365420Y-13483984D01*
X9365420Y-13483984D02*
X9346372Y-13483984D01*
X9346372Y-13483984D02*
X9327324Y-13474460D01*
X9327324Y-13474460D02*
X9317801Y-13464936D01*
X9317801Y-13464936D02*
X9308277Y-13445888D01*
X9308277Y-13445888D02*
X9298753Y-13407793D01*
X9298753Y-13407793D02*
X9298753Y-13360174D01*
X9298753Y-13360174D02*
X9308277Y-13322079D01*
X9308277Y-13322079D02*
X9317801Y-13303031D01*
X9317801Y-13303031D02*
X9327324Y-13293508D01*
X9327324Y-13293508D02*
X9346372Y-13283984D01*
X9498753Y-13464936D02*
X9508277Y-13474460D01*
X9508277Y-13474460D02*
X9498753Y-13483984D01*
X9498753Y-13483984D02*
X9489229Y-13474460D01*
X9489229Y-13474460D02*
X9498753Y-13464936D01*
X9498753Y-13464936D02*
X9498753Y-13483984D01*
X9574944Y-13283984D02*
X9698753Y-13283984D01*
X9698753Y-13283984D02*
X9632086Y-13360174D01*
X9632086Y-13360174D02*
X9660658Y-13360174D01*
X9660658Y-13360174D02*
X9679705Y-13369698D01*
X9679705Y-13369698D02*
X9689229Y-13379222D01*
X9689229Y-13379222D02*
X9698753Y-13398269D01*
X9698753Y-13398269D02*
X9698753Y-13445888D01*
X9698753Y-13445888D02*
X9689229Y-13464936D01*
X9689229Y-13464936D02*
X9679705Y-13474460D01*
X9679705Y-13474460D02*
X9660658Y-13483984D01*
X9660658Y-13483984D02*
X9603515Y-13483984D01*
X9603515Y-13483984D02*
X9584467Y-13474460D01*
X9584467Y-13474460D02*
X9574944Y-13464936D01*
X9822563Y-13283984D02*
X9841610Y-13283984D01*
X9841610Y-13283984D02*
X9860658Y-13293508D01*
X9860658Y-13293508D02*
X9870182Y-13303031D01*
X9870182Y-13303031D02*
X9879705Y-13322079D01*
X9879705Y-13322079D02*
X9889229Y-13360174D01*
X9889229Y-13360174D02*
X9889229Y-13407793D01*
X9889229Y-13407793D02*
X9879705Y-13445888D01*
X9879705Y-13445888D02*
X9870182Y-13464936D01*
X9870182Y-13464936D02*
X9860658Y-13474460D01*
X9860658Y-13474460D02*
X9841610Y-13483984D01*
X9841610Y-13483984D02*
X9822563Y-13483984D01*
X9822563Y-13483984D02*
X9803515Y-13474460D01*
X9803515Y-13474460D02*
X9793991Y-13464936D01*
X9793991Y-13464936D02*
X9784467Y-13445888D01*
X9784467Y-13445888D02*
X9774944Y-13407793D01*
X9774944Y-13407793D02*
X9774944Y-13360174D01*
X9774944Y-13360174D02*
X9784467Y-13322079D01*
X9784467Y-13322079D02*
X9793991Y-13303031D01*
X9793991Y-13303031D02*
X9803515Y-13293508D01*
X9803515Y-13293508D02*
X9822563Y-13283984D01*
X10013039Y-13283984D02*
X10032086Y-13283984D01*
X10032086Y-13283984D02*
X10051134Y-13293508D01*
X10051134Y-13293508D02*
X10060658Y-13303031D01*
X10060658Y-13303031D02*
X10070182Y-13322079D01*
X10070182Y-13322079D02*
X10079705Y-13360174D01*
X10079705Y-13360174D02*
X10079705Y-13407793D01*
X10079705Y-13407793D02*
X10070182Y-13445888D01*
X10070182Y-13445888D02*
X10060658Y-13464936D01*
X10060658Y-13464936D02*
X10051134Y-13474460D01*
X10051134Y-13474460D02*
X10032086Y-13483984D01*
X10032086Y-13483984D02*
X10013039Y-13483984D01*
X10013039Y-13483984D02*
X9993991Y-13474460D01*
X9993991Y-13474460D02*
X9984467Y-13464936D01*
X9984467Y-13464936D02*
X9974944Y-13445888D01*
X9974944Y-13445888D02*
X9965420Y-13407793D01*
X9965420Y-13407793D02*
X9965420Y-13360174D01*
X9965420Y-13360174D02*
X9974944Y-13322079D01*
X9974944Y-13322079D02*
X9984467Y-13303031D01*
X9984467Y-13303031D02*
X9993991Y-13293508D01*
X9993991Y-13293508D02*
X10013039Y-13283984D01*
X10165420Y-13483984D02*
X10165420Y-13350650D01*
X10165420Y-13369698D02*
X10174944Y-13360174D01*
X10174944Y-13360174D02*
X10193991Y-13350650D01*
X10193991Y-13350650D02*
X10222563Y-13350650D01*
X10222563Y-13350650D02*
X10241610Y-13360174D01*
X10241610Y-13360174D02*
X10251134Y-13379222D01*
X10251134Y-13379222D02*
X10251134Y-13483984D01*
X10251134Y-13379222D02*
X10260658Y-13360174D01*
X10260658Y-13360174D02*
X10279705Y-13350650D01*
X10279705Y-13350650D02*
X10308277Y-13350650D01*
X10308277Y-13350650D02*
X10327325Y-13360174D01*
X10327325Y-13360174D02*
X10336848Y-13379222D01*
X10336848Y-13379222D02*
X10336848Y-13483984D01*
X10432086Y-13483984D02*
X10432086Y-13350650D01*
X10432086Y-13369698D02*
X10441610Y-13360174D01*
X10441610Y-13360174D02*
X10460658Y-13350650D01*
X10460658Y-13350650D02*
X10489229Y-13350650D01*
X10489229Y-13350650D02*
X10508277Y-13360174D01*
X10508277Y-13360174D02*
X10517801Y-13379222D01*
X10517801Y-13379222D02*
X10517801Y-13483984D01*
X10517801Y-13379222D02*
X10527325Y-13360174D01*
X10527325Y-13360174D02*
X10546372Y-13350650D01*
X10546372Y-13350650D02*
X10574944Y-13350650D01*
X10574944Y-13350650D02*
X10593991Y-13360174D01*
X10593991Y-13360174D02*
X10603515Y-13379222D01*
X10603515Y-13379222D02*
X10603515Y-13483984D01*
X10993991Y-13274460D02*
X10822563Y-13531603D01*
X11251134Y-13283984D02*
X11270182Y-13283984D01*
X11270182Y-13283984D02*
X11289229Y-13293508D01*
X11289229Y-13293508D02*
X11298753Y-13303031D01*
X11298753Y-13303031D02*
X11308277Y-13322079D01*
X11308277Y-13322079D02*
X11317801Y-13360174D01*
X11317801Y-13360174D02*
X11317801Y-13407793D01*
X11317801Y-13407793D02*
X11308277Y-13445888D01*
X11308277Y-13445888D02*
X11298753Y-13464936D01*
X11298753Y-13464936D02*
X11289229Y-13474460D01*
X11289229Y-13474460D02*
X11270182Y-13483984D01*
X11270182Y-13483984D02*
X11251134Y-13483984D01*
X11251134Y-13483984D02*
X11232086Y-13474460D01*
X11232086Y-13474460D02*
X11222563Y-13464936D01*
X11222563Y-13464936D02*
X11213039Y-13445888D01*
X11213039Y-13445888D02*
X11203515Y-13407793D01*
X11203515Y-13407793D02*
X11203515Y-13360174D01*
X11203515Y-13360174D02*
X11213039Y-13322079D01*
X11213039Y-13322079D02*
X11222563Y-13303031D01*
X11222563Y-13303031D02*
X11232086Y-13293508D01*
X11232086Y-13293508D02*
X11251134Y-13283984D01*
X11403515Y-13464936D02*
X11413039Y-13474460D01*
X11413039Y-13474460D02*
X11403515Y-13483984D01*
X11403515Y-13483984D02*
X11393991Y-13474460D01*
X11393991Y-13474460D02*
X11403515Y-13464936D01*
X11403515Y-13464936D02*
X11403515Y-13483984D01*
X11536848Y-13283984D02*
X11555896Y-13283984D01*
X11555896Y-13283984D02*
X11574944Y-13293508D01*
X11574944Y-13293508D02*
X11584467Y-13303031D01*
X11584467Y-13303031D02*
X11593991Y-13322079D01*
X11593991Y-13322079D02*
X11603515Y-13360174D01*
X11603515Y-13360174D02*
X11603515Y-13407793D01*
X11603515Y-13407793D02*
X11593991Y-13445888D01*
X11593991Y-13445888D02*
X11584467Y-13464936D01*
X11584467Y-13464936D02*
X11574944Y-13474460D01*
X11574944Y-13474460D02*
X11555896Y-13483984D01*
X11555896Y-13483984D02*
X11536848Y-13483984D01*
X11536848Y-13483984D02*
X11517801Y-13474460D01*
X11517801Y-13474460D02*
X11508277Y-13464936D01*
X11508277Y-13464936D02*
X11498753Y-13445888D01*
X11498753Y-13445888D02*
X11489229Y-13407793D01*
X11489229Y-13407793D02*
X11489229Y-13360174D01*
X11489229Y-13360174D02*
X11498753Y-13322079D01*
X11498753Y-13322079D02*
X11508277Y-13303031D01*
X11508277Y-13303031D02*
X11517801Y-13293508D01*
X11517801Y-13293508D02*
X11536848Y-13283984D01*
X11793991Y-13483984D02*
X11679706Y-13483984D01*
X11736848Y-13483984D02*
X11736848Y-13283984D01*
X11736848Y-13283984D02*
X11717801Y-13312555D01*
X11717801Y-13312555D02*
X11698753Y-13331603D01*
X11698753Y-13331603D02*
X11679706Y-13341127D01*
X11984467Y-13483984D02*
X11870182Y-13483984D01*
X11927325Y-13483984D02*
X11927325Y-13283984D01*
X11927325Y-13283984D02*
X11908277Y-13312555D01*
X11908277Y-13312555D02*
X11889229Y-13331603D01*
X11889229Y-13331603D02*
X11870182Y-13341127D01*
X12098753Y-13369698D02*
X12079706Y-13360174D01*
X12079706Y-13360174D02*
X12070182Y-13350650D01*
X12070182Y-13350650D02*
X12060658Y-13331603D01*
X12060658Y-13331603D02*
X12060658Y-13322079D01*
X12060658Y-13322079D02*
X12070182Y-13303031D01*
X12070182Y-13303031D02*
X12079706Y-13293508D01*
X12079706Y-13293508D02*
X12098753Y-13283984D01*
X12098753Y-13283984D02*
X12136848Y-13283984D01*
X12136848Y-13283984D02*
X12155896Y-13293508D01*
X12155896Y-13293508D02*
X12165420Y-13303031D01*
X12165420Y-13303031D02*
X12174944Y-13322079D01*
X12174944Y-13322079D02*
X12174944Y-13331603D01*
X12174944Y-13331603D02*
X12165420Y-13350650D01*
X12165420Y-13350650D02*
X12155896Y-13360174D01*
X12155896Y-13360174D02*
X12136848Y-13369698D01*
X12136848Y-13369698D02*
X12098753Y-13369698D01*
X12098753Y-13369698D02*
X12079706Y-13379222D01*
X12079706Y-13379222D02*
X12070182Y-13388746D01*
X12070182Y-13388746D02*
X12060658Y-13407793D01*
X12060658Y-13407793D02*
X12060658Y-13445888D01*
X12060658Y-13445888D02*
X12070182Y-13464936D01*
X12070182Y-13464936D02*
X12079706Y-13474460D01*
X12079706Y-13474460D02*
X12098753Y-13483984D01*
X12098753Y-13483984D02*
X12136848Y-13483984D01*
X12136848Y-13483984D02*
X12155896Y-13474460D01*
X12155896Y-13474460D02*
X12165420Y-13464936D01*
X12165420Y-13464936D02*
X12174944Y-13445888D01*
X12174944Y-13445888D02*
X12174944Y-13407793D01*
X12174944Y-13407793D02*
X12165420Y-13388746D01*
X12165420Y-13388746D02*
X12155896Y-13379222D01*
X12155896Y-13379222D02*
X12136848Y-13369698D01*
X12251134Y-13283984D02*
X12251134Y-13322079D01*
X12327325Y-13283984D02*
X12327325Y-13322079D01*
X12622563Y-13560174D02*
X12613039Y-13550650D01*
X12613039Y-13550650D02*
X12593991Y-13522079D01*
X12593991Y-13522079D02*
X12584468Y-13503031D01*
X12584468Y-13503031D02*
X12574944Y-13474460D01*
X12574944Y-13474460D02*
X12565420Y-13426841D01*
X12565420Y-13426841D02*
X12565420Y-13388746D01*
X12565420Y-13388746D02*
X12574944Y-13341127D01*
X12574944Y-13341127D02*
X12584468Y-13312555D01*
X12584468Y-13312555D02*
X12593991Y-13293508D01*
X12593991Y-13293508D02*
X12613039Y-13264936D01*
X12613039Y-13264936D02*
X12622563Y-13255412D01*
X12793991Y-13283984D02*
X12698753Y-13283984D01*
X12698753Y-13283984D02*
X12689229Y-13379222D01*
X12689229Y-13379222D02*
X12698753Y-13369698D01*
X12698753Y-13369698D02*
X12717801Y-13360174D01*
X12717801Y-13360174D02*
X12765420Y-13360174D01*
X12765420Y-13360174D02*
X12784468Y-13369698D01*
X12784468Y-13369698D02*
X12793991Y-13379222D01*
X12793991Y-13379222D02*
X12803515Y-13398269D01*
X12803515Y-13398269D02*
X12803515Y-13445888D01*
X12803515Y-13445888D02*
X12793991Y-13464936D01*
X12793991Y-13464936D02*
X12784468Y-13474460D01*
X12784468Y-13474460D02*
X12765420Y-13483984D01*
X12765420Y-13483984D02*
X12717801Y-13483984D01*
X12717801Y-13483984D02*
X12698753Y-13474460D01*
X12698753Y-13474460D02*
X12689229Y-13464936D01*
X13041610Y-13483984D02*
X13041610Y-13283984D01*
X13127325Y-13483984D02*
X13127325Y-13379222D01*
X13127325Y-13379222D02*
X13117801Y-13360174D01*
X13117801Y-13360174D02*
X13098753Y-13350650D01*
X13098753Y-13350650D02*
X13070182Y-13350650D01*
X13070182Y-13350650D02*
X13051134Y-13360174D01*
X13051134Y-13360174D02*
X13041610Y-13369698D01*
X13251134Y-13483984D02*
X13232087Y-13474460D01*
X13232087Y-13474460D02*
X13222563Y-13464936D01*
X13222563Y-13464936D02*
X13213039Y-13445888D01*
X13213039Y-13445888D02*
X13213039Y-13388746D01*
X13213039Y-13388746D02*
X13222563Y-13369698D01*
X13222563Y-13369698D02*
X13232087Y-13360174D01*
X13232087Y-13360174D02*
X13251134Y-13350650D01*
X13251134Y-13350650D02*
X13279706Y-13350650D01*
X13279706Y-13350650D02*
X13298753Y-13360174D01*
X13298753Y-13360174D02*
X13308277Y-13369698D01*
X13308277Y-13369698D02*
X13317801Y-13388746D01*
X13317801Y-13388746D02*
X13317801Y-13445888D01*
X13317801Y-13445888D02*
X13308277Y-13464936D01*
X13308277Y-13464936D02*
X13298753Y-13474460D01*
X13298753Y-13474460D02*
X13279706Y-13483984D01*
X13279706Y-13483984D02*
X13251134Y-13483984D01*
X13432087Y-13483984D02*
X13413039Y-13474460D01*
X13413039Y-13474460D02*
X13403515Y-13455412D01*
X13403515Y-13455412D02*
X13403515Y-13283984D01*
X13584468Y-13474460D02*
X13565420Y-13483984D01*
X13565420Y-13483984D02*
X13527325Y-13483984D01*
X13527325Y-13483984D02*
X13508277Y-13474460D01*
X13508277Y-13474460D02*
X13498753Y-13455412D01*
X13498753Y-13455412D02*
X13498753Y-13379222D01*
X13498753Y-13379222D02*
X13508277Y-13360174D01*
X13508277Y-13360174D02*
X13527325Y-13350650D01*
X13527325Y-13350650D02*
X13565420Y-13350650D01*
X13565420Y-13350650D02*
X13584468Y-13360174D01*
X13584468Y-13360174D02*
X13593991Y-13379222D01*
X13593991Y-13379222D02*
X13593991Y-13398269D01*
X13593991Y-13398269D02*
X13498753Y-13417317D01*
X13670182Y-13474460D02*
X13689230Y-13483984D01*
X13689230Y-13483984D02*
X13727325Y-13483984D01*
X13727325Y-13483984D02*
X13746372Y-13474460D01*
X13746372Y-13474460D02*
X13755896Y-13455412D01*
X13755896Y-13455412D02*
X13755896Y-13445888D01*
X13755896Y-13445888D02*
X13746372Y-13426841D01*
X13746372Y-13426841D02*
X13727325Y-13417317D01*
X13727325Y-13417317D02*
X13698753Y-13417317D01*
X13698753Y-13417317D02*
X13679706Y-13407793D01*
X13679706Y-13407793D02*
X13670182Y-13388746D01*
X13670182Y-13388746D02*
X13670182Y-13379222D01*
X13670182Y-13379222D02*
X13679706Y-13360174D01*
X13679706Y-13360174D02*
X13698753Y-13350650D01*
X13698753Y-13350650D02*
X13727325Y-13350650D01*
X13727325Y-13350650D02*
X13746372Y-13360174D01*
X13822563Y-13560174D02*
X13832087Y-13550650D01*
X13832087Y-13550650D02*
X13851134Y-13522079D01*
X13851134Y-13522079D02*
X13860658Y-13503031D01*
X13860658Y-13503031D02*
X13870182Y-13474460D01*
X13870182Y-13474460D02*
X13879706Y-13426841D01*
X13879706Y-13426841D02*
X13879706Y-13388746D01*
X13879706Y-13388746D02*
X13870182Y-13341127D01*
X13870182Y-13341127D02*
X13860658Y-13312555D01*
X13860658Y-13312555D02*
X13851134Y-13293508D01*
X13851134Y-13293508D02*
X13832087Y-13264936D01*
X13832087Y-13264936D02*
X13822563Y-13255412D01*
D12*
X9047500Y-13656500D02*
G75*
G02*
X9007500Y-13656500I-20000J0D01*
G01*
X9007500Y-13656500D02*
G75*
G02*
X9047500Y-13656500I20000J0D01*
G01*
D11*
X9346372Y-13547984D02*
X9365420Y-13547984D01*
X9365420Y-13547984D02*
X9384467Y-13557508D01*
X9384467Y-13557508D02*
X9393991Y-13567031D01*
X9393991Y-13567031D02*
X9403515Y-13586079D01*
X9403515Y-13586079D02*
X9413039Y-13624174D01*
X9413039Y-13624174D02*
X9413039Y-13671793D01*
X9413039Y-13671793D02*
X9403515Y-13709888D01*
X9403515Y-13709888D02*
X9393991Y-13728936D01*
X9393991Y-13728936D02*
X9384467Y-13738460D01*
X9384467Y-13738460D02*
X9365420Y-13747984D01*
X9365420Y-13747984D02*
X9346372Y-13747984D01*
X9346372Y-13747984D02*
X9327324Y-13738460D01*
X9327324Y-13738460D02*
X9317801Y-13728936D01*
X9317801Y-13728936D02*
X9308277Y-13709888D01*
X9308277Y-13709888D02*
X9298753Y-13671793D01*
X9298753Y-13671793D02*
X9298753Y-13624174D01*
X9298753Y-13624174D02*
X9308277Y-13586079D01*
X9308277Y-13586079D02*
X9317801Y-13567031D01*
X9317801Y-13567031D02*
X9327324Y-13557508D01*
X9327324Y-13557508D02*
X9346372Y-13547984D01*
X9498753Y-13728936D02*
X9508277Y-13738460D01*
X9508277Y-13738460D02*
X9498753Y-13747984D01*
X9498753Y-13747984D02*
X9489229Y-13738460D01*
X9489229Y-13738460D02*
X9498753Y-13728936D01*
X9498753Y-13728936D02*
X9498753Y-13747984D01*
X9679705Y-13614650D02*
X9679705Y-13747984D01*
X9632086Y-13538460D02*
X9584467Y-13681317D01*
X9584467Y-13681317D02*
X9708277Y-13681317D01*
X9822563Y-13547984D02*
X9841610Y-13547984D01*
X9841610Y-13547984D02*
X9860658Y-13557508D01*
X9860658Y-13557508D02*
X9870182Y-13567031D01*
X9870182Y-13567031D02*
X9879705Y-13586079D01*
X9879705Y-13586079D02*
X9889229Y-13624174D01*
X9889229Y-13624174D02*
X9889229Y-13671793D01*
X9889229Y-13671793D02*
X9879705Y-13709888D01*
X9879705Y-13709888D02*
X9870182Y-13728936D01*
X9870182Y-13728936D02*
X9860658Y-13738460D01*
X9860658Y-13738460D02*
X9841610Y-13747984D01*
X9841610Y-13747984D02*
X9822563Y-13747984D01*
X9822563Y-13747984D02*
X9803515Y-13738460D01*
X9803515Y-13738460D02*
X9793991Y-13728936D01*
X9793991Y-13728936D02*
X9784467Y-13709888D01*
X9784467Y-13709888D02*
X9774944Y-13671793D01*
X9774944Y-13671793D02*
X9774944Y-13624174D01*
X9774944Y-13624174D02*
X9784467Y-13586079D01*
X9784467Y-13586079D02*
X9793991Y-13567031D01*
X9793991Y-13567031D02*
X9803515Y-13557508D01*
X9803515Y-13557508D02*
X9822563Y-13547984D01*
X10013039Y-13547984D02*
X10032086Y-13547984D01*
X10032086Y-13547984D02*
X10051134Y-13557508D01*
X10051134Y-13557508D02*
X10060658Y-13567031D01*
X10060658Y-13567031D02*
X10070182Y-13586079D01*
X10070182Y-13586079D02*
X10079705Y-13624174D01*
X10079705Y-13624174D02*
X10079705Y-13671793D01*
X10079705Y-13671793D02*
X10070182Y-13709888D01*
X10070182Y-13709888D02*
X10060658Y-13728936D01*
X10060658Y-13728936D02*
X10051134Y-13738460D01*
X10051134Y-13738460D02*
X10032086Y-13747984D01*
X10032086Y-13747984D02*
X10013039Y-13747984D01*
X10013039Y-13747984D02*
X9993991Y-13738460D01*
X9993991Y-13738460D02*
X9984467Y-13728936D01*
X9984467Y-13728936D02*
X9974944Y-13709888D01*
X9974944Y-13709888D02*
X9965420Y-13671793D01*
X9965420Y-13671793D02*
X9965420Y-13624174D01*
X9965420Y-13624174D02*
X9974944Y-13586079D01*
X9974944Y-13586079D02*
X9984467Y-13567031D01*
X9984467Y-13567031D02*
X9993991Y-13557508D01*
X9993991Y-13557508D02*
X10013039Y-13547984D01*
X10165420Y-13747984D02*
X10165420Y-13614650D01*
X10165420Y-13633698D02*
X10174944Y-13624174D01*
X10174944Y-13624174D02*
X10193991Y-13614650D01*
X10193991Y-13614650D02*
X10222563Y-13614650D01*
X10222563Y-13614650D02*
X10241610Y-13624174D01*
X10241610Y-13624174D02*
X10251134Y-13643222D01*
X10251134Y-13643222D02*
X10251134Y-13747984D01*
X10251134Y-13643222D02*
X10260658Y-13624174D01*
X10260658Y-13624174D02*
X10279705Y-13614650D01*
X10279705Y-13614650D02*
X10308277Y-13614650D01*
X10308277Y-13614650D02*
X10327325Y-13624174D01*
X10327325Y-13624174D02*
X10336848Y-13643222D01*
X10336848Y-13643222D02*
X10336848Y-13747984D01*
X10432086Y-13747984D02*
X10432086Y-13614650D01*
X10432086Y-13633698D02*
X10441610Y-13624174D01*
X10441610Y-13624174D02*
X10460658Y-13614650D01*
X10460658Y-13614650D02*
X10489229Y-13614650D01*
X10489229Y-13614650D02*
X10508277Y-13624174D01*
X10508277Y-13624174D02*
X10517801Y-13643222D01*
X10517801Y-13643222D02*
X10517801Y-13747984D01*
X10517801Y-13643222D02*
X10527325Y-13624174D01*
X10527325Y-13624174D02*
X10546372Y-13614650D01*
X10546372Y-13614650D02*
X10574944Y-13614650D01*
X10574944Y-13614650D02*
X10593991Y-13624174D01*
X10593991Y-13624174D02*
X10603515Y-13643222D01*
X10603515Y-13643222D02*
X10603515Y-13747984D01*
X10993991Y-13538460D02*
X10822563Y-13795603D01*
X11251134Y-13547984D02*
X11270182Y-13547984D01*
X11270182Y-13547984D02*
X11289229Y-13557508D01*
X11289229Y-13557508D02*
X11298753Y-13567031D01*
X11298753Y-13567031D02*
X11308277Y-13586079D01*
X11308277Y-13586079D02*
X11317801Y-13624174D01*
X11317801Y-13624174D02*
X11317801Y-13671793D01*
X11317801Y-13671793D02*
X11308277Y-13709888D01*
X11308277Y-13709888D02*
X11298753Y-13728936D01*
X11298753Y-13728936D02*
X11289229Y-13738460D01*
X11289229Y-13738460D02*
X11270182Y-13747984D01*
X11270182Y-13747984D02*
X11251134Y-13747984D01*
X11251134Y-13747984D02*
X11232086Y-13738460D01*
X11232086Y-13738460D02*
X11222563Y-13728936D01*
X11222563Y-13728936D02*
X11213039Y-13709888D01*
X11213039Y-13709888D02*
X11203515Y-13671793D01*
X11203515Y-13671793D02*
X11203515Y-13624174D01*
X11203515Y-13624174D02*
X11213039Y-13586079D01*
X11213039Y-13586079D02*
X11222563Y-13567031D01*
X11222563Y-13567031D02*
X11232086Y-13557508D01*
X11232086Y-13557508D02*
X11251134Y-13547984D01*
X11403515Y-13728936D02*
X11413039Y-13738460D01*
X11413039Y-13738460D02*
X11403515Y-13747984D01*
X11403515Y-13747984D02*
X11393991Y-13738460D01*
X11393991Y-13738460D02*
X11403515Y-13728936D01*
X11403515Y-13728936D02*
X11403515Y-13747984D01*
X11536848Y-13547984D02*
X11555896Y-13547984D01*
X11555896Y-13547984D02*
X11574944Y-13557508D01*
X11574944Y-13557508D02*
X11584467Y-13567031D01*
X11584467Y-13567031D02*
X11593991Y-13586079D01*
X11593991Y-13586079D02*
X11603515Y-13624174D01*
X11603515Y-13624174D02*
X11603515Y-13671793D01*
X11603515Y-13671793D02*
X11593991Y-13709888D01*
X11593991Y-13709888D02*
X11584467Y-13728936D01*
X11584467Y-13728936D02*
X11574944Y-13738460D01*
X11574944Y-13738460D02*
X11555896Y-13747984D01*
X11555896Y-13747984D02*
X11536848Y-13747984D01*
X11536848Y-13747984D02*
X11517801Y-13738460D01*
X11517801Y-13738460D02*
X11508277Y-13728936D01*
X11508277Y-13728936D02*
X11498753Y-13709888D01*
X11498753Y-13709888D02*
X11489229Y-13671793D01*
X11489229Y-13671793D02*
X11489229Y-13624174D01*
X11489229Y-13624174D02*
X11498753Y-13586079D01*
X11498753Y-13586079D02*
X11508277Y-13567031D01*
X11508277Y-13567031D02*
X11517801Y-13557508D01*
X11517801Y-13557508D02*
X11536848Y-13547984D01*
X11793991Y-13747984D02*
X11679706Y-13747984D01*
X11736848Y-13747984D02*
X11736848Y-13547984D01*
X11736848Y-13547984D02*
X11717801Y-13576555D01*
X11717801Y-13576555D02*
X11698753Y-13595603D01*
X11698753Y-13595603D02*
X11679706Y-13605127D01*
X11974944Y-13547984D02*
X11879706Y-13547984D01*
X11879706Y-13547984D02*
X11870182Y-13643222D01*
X11870182Y-13643222D02*
X11879706Y-13633698D01*
X11879706Y-13633698D02*
X11898753Y-13624174D01*
X11898753Y-13624174D02*
X11946372Y-13624174D01*
X11946372Y-13624174D02*
X11965420Y-13633698D01*
X11965420Y-13633698D02*
X11974944Y-13643222D01*
X11974944Y-13643222D02*
X11984467Y-13662269D01*
X11984467Y-13662269D02*
X11984467Y-13709888D01*
X11984467Y-13709888D02*
X11974944Y-13728936D01*
X11974944Y-13728936D02*
X11965420Y-13738460D01*
X11965420Y-13738460D02*
X11946372Y-13747984D01*
X11946372Y-13747984D02*
X11898753Y-13747984D01*
X11898753Y-13747984D02*
X11879706Y-13738460D01*
X11879706Y-13738460D02*
X11870182Y-13728936D01*
X12051134Y-13547984D02*
X12184467Y-13547984D01*
X12184467Y-13547984D02*
X12098753Y-13747984D01*
X12251134Y-13547984D02*
X12251134Y-13586079D01*
X12327325Y-13547984D02*
X12327325Y-13586079D01*
X12622563Y-13824174D02*
X12613039Y-13814650D01*
X12613039Y-13814650D02*
X12593991Y-13786079D01*
X12593991Y-13786079D02*
X12584468Y-13767031D01*
X12584468Y-13767031D02*
X12574944Y-13738460D01*
X12574944Y-13738460D02*
X12565420Y-13690841D01*
X12565420Y-13690841D02*
X12565420Y-13652746D01*
X12565420Y-13652746D02*
X12574944Y-13605127D01*
X12574944Y-13605127D02*
X12584468Y-13576555D01*
X12584468Y-13576555D02*
X12593991Y-13557508D01*
X12593991Y-13557508D02*
X12613039Y-13528936D01*
X12613039Y-13528936D02*
X12622563Y-13519412D01*
X12803515Y-13747984D02*
X12689229Y-13747984D01*
X12746372Y-13747984D02*
X12746372Y-13547984D01*
X12746372Y-13547984D02*
X12727325Y-13576555D01*
X12727325Y-13576555D02*
X12708277Y-13595603D01*
X12708277Y-13595603D02*
X12689229Y-13605127D01*
X13041610Y-13747984D02*
X13041610Y-13547984D01*
X13127325Y-13747984D02*
X13127325Y-13643222D01*
X13127325Y-13643222D02*
X13117801Y-13624174D01*
X13117801Y-13624174D02*
X13098753Y-13614650D01*
X13098753Y-13614650D02*
X13070182Y-13614650D01*
X13070182Y-13614650D02*
X13051134Y-13624174D01*
X13051134Y-13624174D02*
X13041610Y-13633698D01*
X13251134Y-13747984D02*
X13232087Y-13738460D01*
X13232087Y-13738460D02*
X13222563Y-13728936D01*
X13222563Y-13728936D02*
X13213039Y-13709888D01*
X13213039Y-13709888D02*
X13213039Y-13652746D01*
X13213039Y-13652746D02*
X13222563Y-13633698D01*
X13222563Y-13633698D02*
X13232087Y-13624174D01*
X13232087Y-13624174D02*
X13251134Y-13614650D01*
X13251134Y-13614650D02*
X13279706Y-13614650D01*
X13279706Y-13614650D02*
X13298753Y-13624174D01*
X13298753Y-13624174D02*
X13308277Y-13633698D01*
X13308277Y-13633698D02*
X13317801Y-13652746D01*
X13317801Y-13652746D02*
X13317801Y-13709888D01*
X13317801Y-13709888D02*
X13308277Y-13728936D01*
X13308277Y-13728936D02*
X13298753Y-13738460D01*
X13298753Y-13738460D02*
X13279706Y-13747984D01*
X13279706Y-13747984D02*
X13251134Y-13747984D01*
X13432087Y-13747984D02*
X13413039Y-13738460D01*
X13413039Y-13738460D02*
X13403515Y-13719412D01*
X13403515Y-13719412D02*
X13403515Y-13547984D01*
X13584468Y-13738460D02*
X13565420Y-13747984D01*
X13565420Y-13747984D02*
X13527325Y-13747984D01*
X13527325Y-13747984D02*
X13508277Y-13738460D01*
X13508277Y-13738460D02*
X13498753Y-13719412D01*
X13498753Y-13719412D02*
X13498753Y-13643222D01*
X13498753Y-13643222D02*
X13508277Y-13624174D01*
X13508277Y-13624174D02*
X13527325Y-13614650D01*
X13527325Y-13614650D02*
X13565420Y-13614650D01*
X13565420Y-13614650D02*
X13584468Y-13624174D01*
X13584468Y-13624174D02*
X13593991Y-13643222D01*
X13593991Y-13643222D02*
X13593991Y-13662269D01*
X13593991Y-13662269D02*
X13498753Y-13681317D01*
X13660658Y-13824174D02*
X13670182Y-13814650D01*
X13670182Y-13814650D02*
X13689230Y-13786079D01*
X13689230Y-13786079D02*
X13698753Y-13767031D01*
X13698753Y-13767031D02*
X13708277Y-13738460D01*
X13708277Y-13738460D02*
X13717801Y-13690841D01*
X13717801Y-13690841D02*
X13717801Y-13652746D01*
X13717801Y-13652746D02*
X13708277Y-13605127D01*
X13708277Y-13605127D02*
X13698753Y-13576555D01*
X13698753Y-13576555D02*
X13689230Y-13557508D01*
X13689230Y-13557508D02*
X13670182Y-13528936D01*
X13670182Y-13528936D02*
X13660658Y-13519412D01*
D12*
X9012500Y-13885500D02*
X9012500Y-13955500D01*
X8977500Y-13920500D02*
X9047500Y-13920500D01*
D11*
X9346372Y-13811984D02*
X9365420Y-13811984D01*
X9365420Y-13811984D02*
X9384467Y-13821508D01*
X9384467Y-13821508D02*
X9393991Y-13831031D01*
X9393991Y-13831031D02*
X9403515Y-13850079D01*
X9403515Y-13850079D02*
X9413039Y-13888174D01*
X9413039Y-13888174D02*
X9413039Y-13935793D01*
X9413039Y-13935793D02*
X9403515Y-13973888D01*
X9403515Y-13973888D02*
X9393991Y-13992936D01*
X9393991Y-13992936D02*
X9384467Y-14002460D01*
X9384467Y-14002460D02*
X9365420Y-14011984D01*
X9365420Y-14011984D02*
X9346372Y-14011984D01*
X9346372Y-14011984D02*
X9327324Y-14002460D01*
X9327324Y-14002460D02*
X9317801Y-13992936D01*
X9317801Y-13992936D02*
X9308277Y-13973888D01*
X9308277Y-13973888D02*
X9298753Y-13935793D01*
X9298753Y-13935793D02*
X9298753Y-13888174D01*
X9298753Y-13888174D02*
X9308277Y-13850079D01*
X9308277Y-13850079D02*
X9317801Y-13831031D01*
X9317801Y-13831031D02*
X9327324Y-13821508D01*
X9327324Y-13821508D02*
X9346372Y-13811984D01*
X9498753Y-13992936D02*
X9508277Y-14002460D01*
X9508277Y-14002460D02*
X9498753Y-14011984D01*
X9498753Y-14011984D02*
X9489229Y-14002460D01*
X9489229Y-14002460D02*
X9498753Y-13992936D01*
X9498753Y-13992936D02*
X9498753Y-14011984D01*
X9574944Y-13811984D02*
X9708277Y-13811984D01*
X9708277Y-13811984D02*
X9622563Y-14011984D01*
X9822563Y-13811984D02*
X9841610Y-13811984D01*
X9841610Y-13811984D02*
X9860658Y-13821508D01*
X9860658Y-13821508D02*
X9870182Y-13831031D01*
X9870182Y-13831031D02*
X9879705Y-13850079D01*
X9879705Y-13850079D02*
X9889229Y-13888174D01*
X9889229Y-13888174D02*
X9889229Y-13935793D01*
X9889229Y-13935793D02*
X9879705Y-13973888D01*
X9879705Y-13973888D02*
X9870182Y-13992936D01*
X9870182Y-13992936D02*
X9860658Y-14002460D01*
X9860658Y-14002460D02*
X9841610Y-14011984D01*
X9841610Y-14011984D02*
X9822563Y-14011984D01*
X9822563Y-14011984D02*
X9803515Y-14002460D01*
X9803515Y-14002460D02*
X9793991Y-13992936D01*
X9793991Y-13992936D02*
X9784467Y-13973888D01*
X9784467Y-13973888D02*
X9774944Y-13935793D01*
X9774944Y-13935793D02*
X9774944Y-13888174D01*
X9774944Y-13888174D02*
X9784467Y-13850079D01*
X9784467Y-13850079D02*
X9793991Y-13831031D01*
X9793991Y-13831031D02*
X9803515Y-13821508D01*
X9803515Y-13821508D02*
X9822563Y-13811984D01*
X10013039Y-13811984D02*
X10032086Y-13811984D01*
X10032086Y-13811984D02*
X10051134Y-13821508D01*
X10051134Y-13821508D02*
X10060658Y-13831031D01*
X10060658Y-13831031D02*
X10070182Y-13850079D01*
X10070182Y-13850079D02*
X10079705Y-13888174D01*
X10079705Y-13888174D02*
X10079705Y-13935793D01*
X10079705Y-13935793D02*
X10070182Y-13973888D01*
X10070182Y-13973888D02*
X10060658Y-13992936D01*
X10060658Y-13992936D02*
X10051134Y-14002460D01*
X10051134Y-14002460D02*
X10032086Y-14011984D01*
X10032086Y-14011984D02*
X10013039Y-14011984D01*
X10013039Y-14011984D02*
X9993991Y-14002460D01*
X9993991Y-14002460D02*
X9984467Y-13992936D01*
X9984467Y-13992936D02*
X9974944Y-13973888D01*
X9974944Y-13973888D02*
X9965420Y-13935793D01*
X9965420Y-13935793D02*
X9965420Y-13888174D01*
X9965420Y-13888174D02*
X9974944Y-13850079D01*
X9974944Y-13850079D02*
X9984467Y-13831031D01*
X9984467Y-13831031D02*
X9993991Y-13821508D01*
X9993991Y-13821508D02*
X10013039Y-13811984D01*
X10165420Y-14011984D02*
X10165420Y-13878650D01*
X10165420Y-13897698D02*
X10174944Y-13888174D01*
X10174944Y-13888174D02*
X10193991Y-13878650D01*
X10193991Y-13878650D02*
X10222563Y-13878650D01*
X10222563Y-13878650D02*
X10241610Y-13888174D01*
X10241610Y-13888174D02*
X10251134Y-13907222D01*
X10251134Y-13907222D02*
X10251134Y-14011984D01*
X10251134Y-13907222D02*
X10260658Y-13888174D01*
X10260658Y-13888174D02*
X10279705Y-13878650D01*
X10279705Y-13878650D02*
X10308277Y-13878650D01*
X10308277Y-13878650D02*
X10327325Y-13888174D01*
X10327325Y-13888174D02*
X10336848Y-13907222D01*
X10336848Y-13907222D02*
X10336848Y-14011984D01*
X10432086Y-14011984D02*
X10432086Y-13878650D01*
X10432086Y-13897698D02*
X10441610Y-13888174D01*
X10441610Y-13888174D02*
X10460658Y-13878650D01*
X10460658Y-13878650D02*
X10489229Y-13878650D01*
X10489229Y-13878650D02*
X10508277Y-13888174D01*
X10508277Y-13888174D02*
X10517801Y-13907222D01*
X10517801Y-13907222D02*
X10517801Y-14011984D01*
X10517801Y-13907222D02*
X10527325Y-13888174D01*
X10527325Y-13888174D02*
X10546372Y-13878650D01*
X10546372Y-13878650D02*
X10574944Y-13878650D01*
X10574944Y-13878650D02*
X10593991Y-13888174D01*
X10593991Y-13888174D02*
X10603515Y-13907222D01*
X10603515Y-13907222D02*
X10603515Y-14011984D01*
X10993991Y-13802460D02*
X10822563Y-14059603D01*
X11251134Y-13811984D02*
X11270182Y-13811984D01*
X11270182Y-13811984D02*
X11289229Y-13821508D01*
X11289229Y-13821508D02*
X11298753Y-13831031D01*
X11298753Y-13831031D02*
X11308277Y-13850079D01*
X11308277Y-13850079D02*
X11317801Y-13888174D01*
X11317801Y-13888174D02*
X11317801Y-13935793D01*
X11317801Y-13935793D02*
X11308277Y-13973888D01*
X11308277Y-13973888D02*
X11298753Y-13992936D01*
X11298753Y-13992936D02*
X11289229Y-14002460D01*
X11289229Y-14002460D02*
X11270182Y-14011984D01*
X11270182Y-14011984D02*
X11251134Y-14011984D01*
X11251134Y-14011984D02*
X11232086Y-14002460D01*
X11232086Y-14002460D02*
X11222563Y-13992936D01*
X11222563Y-13992936D02*
X11213039Y-13973888D01*
X11213039Y-13973888D02*
X11203515Y-13935793D01*
X11203515Y-13935793D02*
X11203515Y-13888174D01*
X11203515Y-13888174D02*
X11213039Y-13850079D01*
X11213039Y-13850079D02*
X11222563Y-13831031D01*
X11222563Y-13831031D02*
X11232086Y-13821508D01*
X11232086Y-13821508D02*
X11251134Y-13811984D01*
X11403515Y-13992936D02*
X11413039Y-14002460D01*
X11413039Y-14002460D02*
X11403515Y-14011984D01*
X11403515Y-14011984D02*
X11393991Y-14002460D01*
X11393991Y-14002460D02*
X11403515Y-13992936D01*
X11403515Y-13992936D02*
X11403515Y-14011984D01*
X11536848Y-13811984D02*
X11555896Y-13811984D01*
X11555896Y-13811984D02*
X11574944Y-13821508D01*
X11574944Y-13821508D02*
X11584467Y-13831031D01*
X11584467Y-13831031D02*
X11593991Y-13850079D01*
X11593991Y-13850079D02*
X11603515Y-13888174D01*
X11603515Y-13888174D02*
X11603515Y-13935793D01*
X11603515Y-13935793D02*
X11593991Y-13973888D01*
X11593991Y-13973888D02*
X11584467Y-13992936D01*
X11584467Y-13992936D02*
X11574944Y-14002460D01*
X11574944Y-14002460D02*
X11555896Y-14011984D01*
X11555896Y-14011984D02*
X11536848Y-14011984D01*
X11536848Y-14011984D02*
X11517801Y-14002460D01*
X11517801Y-14002460D02*
X11508277Y-13992936D01*
X11508277Y-13992936D02*
X11498753Y-13973888D01*
X11498753Y-13973888D02*
X11489229Y-13935793D01*
X11489229Y-13935793D02*
X11489229Y-13888174D01*
X11489229Y-13888174D02*
X11498753Y-13850079D01*
X11498753Y-13850079D02*
X11508277Y-13831031D01*
X11508277Y-13831031D02*
X11517801Y-13821508D01*
X11517801Y-13821508D02*
X11536848Y-13811984D01*
X11679706Y-13831031D02*
X11689229Y-13821508D01*
X11689229Y-13821508D02*
X11708277Y-13811984D01*
X11708277Y-13811984D02*
X11755896Y-13811984D01*
X11755896Y-13811984D02*
X11774944Y-13821508D01*
X11774944Y-13821508D02*
X11784467Y-13831031D01*
X11784467Y-13831031D02*
X11793991Y-13850079D01*
X11793991Y-13850079D02*
X11793991Y-13869127D01*
X11793991Y-13869127D02*
X11784467Y-13897698D01*
X11784467Y-13897698D02*
X11670182Y-14011984D01*
X11670182Y-14011984D02*
X11793991Y-14011984D01*
X11860658Y-13811984D02*
X11993991Y-13811984D01*
X11993991Y-13811984D02*
X11908277Y-14011984D01*
X12155896Y-13811984D02*
X12117801Y-13811984D01*
X12117801Y-13811984D02*
X12098753Y-13821508D01*
X12098753Y-13821508D02*
X12089229Y-13831031D01*
X12089229Y-13831031D02*
X12070182Y-13859603D01*
X12070182Y-13859603D02*
X12060658Y-13897698D01*
X12060658Y-13897698D02*
X12060658Y-13973888D01*
X12060658Y-13973888D02*
X12070182Y-13992936D01*
X12070182Y-13992936D02*
X12079706Y-14002460D01*
X12079706Y-14002460D02*
X12098753Y-14011984D01*
X12098753Y-14011984D02*
X12136848Y-14011984D01*
X12136848Y-14011984D02*
X12155896Y-14002460D01*
X12155896Y-14002460D02*
X12165420Y-13992936D01*
X12165420Y-13992936D02*
X12174944Y-13973888D01*
X12174944Y-13973888D02*
X12174944Y-13926269D01*
X12174944Y-13926269D02*
X12165420Y-13907222D01*
X12165420Y-13907222D02*
X12155896Y-13897698D01*
X12155896Y-13897698D02*
X12136848Y-13888174D01*
X12136848Y-13888174D02*
X12098753Y-13888174D01*
X12098753Y-13888174D02*
X12079706Y-13897698D01*
X12079706Y-13897698D02*
X12070182Y-13907222D01*
X12070182Y-13907222D02*
X12060658Y-13926269D01*
X12251134Y-13811984D02*
X12251134Y-13850079D01*
X12327325Y-13811984D02*
X12327325Y-13850079D01*
X12622563Y-14088174D02*
X12613039Y-14078650D01*
X12613039Y-14078650D02*
X12593991Y-14050079D01*
X12593991Y-14050079D02*
X12584468Y-14031031D01*
X12584468Y-14031031D02*
X12574944Y-14002460D01*
X12574944Y-14002460D02*
X12565420Y-13954841D01*
X12565420Y-13954841D02*
X12565420Y-13916746D01*
X12565420Y-13916746D02*
X12574944Y-13869127D01*
X12574944Y-13869127D02*
X12584468Y-13840555D01*
X12584468Y-13840555D02*
X12593991Y-13821508D01*
X12593991Y-13821508D02*
X12613039Y-13792936D01*
X12613039Y-13792936D02*
X12622563Y-13783412D01*
X12784468Y-13811984D02*
X12746372Y-13811984D01*
X12746372Y-13811984D02*
X12727325Y-13821508D01*
X12727325Y-13821508D02*
X12717801Y-13831031D01*
X12717801Y-13831031D02*
X12698753Y-13859603D01*
X12698753Y-13859603D02*
X12689229Y-13897698D01*
X12689229Y-13897698D02*
X12689229Y-13973888D01*
X12689229Y-13973888D02*
X12698753Y-13992936D01*
X12698753Y-13992936D02*
X12708277Y-14002460D01*
X12708277Y-14002460D02*
X12727325Y-14011984D01*
X12727325Y-14011984D02*
X12765420Y-14011984D01*
X12765420Y-14011984D02*
X12784468Y-14002460D01*
X12784468Y-14002460D02*
X12793991Y-13992936D01*
X12793991Y-13992936D02*
X12803515Y-13973888D01*
X12803515Y-13973888D02*
X12803515Y-13926269D01*
X12803515Y-13926269D02*
X12793991Y-13907222D01*
X12793991Y-13907222D02*
X12784468Y-13897698D01*
X12784468Y-13897698D02*
X12765420Y-13888174D01*
X12765420Y-13888174D02*
X12727325Y-13888174D01*
X12727325Y-13888174D02*
X12708277Y-13897698D01*
X12708277Y-13897698D02*
X12698753Y-13907222D01*
X12698753Y-13907222D02*
X12689229Y-13926269D01*
X13041610Y-14011984D02*
X13041610Y-13811984D01*
X13127325Y-14011984D02*
X13127325Y-13907222D01*
X13127325Y-13907222D02*
X13117801Y-13888174D01*
X13117801Y-13888174D02*
X13098753Y-13878650D01*
X13098753Y-13878650D02*
X13070182Y-13878650D01*
X13070182Y-13878650D02*
X13051134Y-13888174D01*
X13051134Y-13888174D02*
X13041610Y-13897698D01*
X13251134Y-14011984D02*
X13232087Y-14002460D01*
X13232087Y-14002460D02*
X13222563Y-13992936D01*
X13222563Y-13992936D02*
X13213039Y-13973888D01*
X13213039Y-13973888D02*
X13213039Y-13916746D01*
X13213039Y-13916746D02*
X13222563Y-13897698D01*
X13222563Y-13897698D02*
X13232087Y-13888174D01*
X13232087Y-13888174D02*
X13251134Y-13878650D01*
X13251134Y-13878650D02*
X13279706Y-13878650D01*
X13279706Y-13878650D02*
X13298753Y-13888174D01*
X13298753Y-13888174D02*
X13308277Y-13897698D01*
X13308277Y-13897698D02*
X13317801Y-13916746D01*
X13317801Y-13916746D02*
X13317801Y-13973888D01*
X13317801Y-13973888D02*
X13308277Y-13992936D01*
X13308277Y-13992936D02*
X13298753Y-14002460D01*
X13298753Y-14002460D02*
X13279706Y-14011984D01*
X13279706Y-14011984D02*
X13251134Y-14011984D01*
X13432087Y-14011984D02*
X13413039Y-14002460D01*
X13413039Y-14002460D02*
X13403515Y-13983412D01*
X13403515Y-13983412D02*
X13403515Y-13811984D01*
X13584468Y-14002460D02*
X13565420Y-14011984D01*
X13565420Y-14011984D02*
X13527325Y-14011984D01*
X13527325Y-14011984D02*
X13508277Y-14002460D01*
X13508277Y-14002460D02*
X13498753Y-13983412D01*
X13498753Y-13983412D02*
X13498753Y-13907222D01*
X13498753Y-13907222D02*
X13508277Y-13888174D01*
X13508277Y-13888174D02*
X13527325Y-13878650D01*
X13527325Y-13878650D02*
X13565420Y-13878650D01*
X13565420Y-13878650D02*
X13584468Y-13888174D01*
X13584468Y-13888174D02*
X13593991Y-13907222D01*
X13593991Y-13907222D02*
X13593991Y-13926269D01*
X13593991Y-13926269D02*
X13498753Y-13945317D01*
X13670182Y-14002460D02*
X13689230Y-14011984D01*
X13689230Y-14011984D02*
X13727325Y-14011984D01*
X13727325Y-14011984D02*
X13746372Y-14002460D01*
X13746372Y-14002460D02*
X13755896Y-13983412D01*
X13755896Y-13983412D02*
X13755896Y-13973888D01*
X13755896Y-13973888D02*
X13746372Y-13954841D01*
X13746372Y-13954841D02*
X13727325Y-13945317D01*
X13727325Y-13945317D02*
X13698753Y-13945317D01*
X13698753Y-13945317D02*
X13679706Y-13935793D01*
X13679706Y-13935793D02*
X13670182Y-13916746D01*
X13670182Y-13916746D02*
X13670182Y-13907222D01*
X13670182Y-13907222D02*
X13679706Y-13888174D01*
X13679706Y-13888174D02*
X13698753Y-13878650D01*
X13698753Y-13878650D02*
X13727325Y-13878650D01*
X13727325Y-13878650D02*
X13746372Y-13888174D01*
X13822563Y-14088174D02*
X13832087Y-14078650D01*
X13832087Y-14078650D02*
X13851134Y-14050079D01*
X13851134Y-14050079D02*
X13860658Y-14031031D01*
X13860658Y-14031031D02*
X13870182Y-14002460D01*
X13870182Y-14002460D02*
X13879706Y-13954841D01*
X13879706Y-13954841D02*
X13879706Y-13916746D01*
X13879706Y-13916746D02*
X13870182Y-13869127D01*
X13870182Y-13869127D02*
X13860658Y-13840555D01*
X13860658Y-13840555D02*
X13851134Y-13821508D01*
X13851134Y-13821508D02*
X13832087Y-13792936D01*
X13832087Y-13792936D02*
X13822563Y-13783412D01*
D12*
X9034320Y-14216320D02*
X9034320Y-14152680D01*
X8970680Y-14152680D01*
X8970680Y-14216320D01*
X9034320Y-14216320D01*
D11*
X9346372Y-14075984D02*
X9365420Y-14075984D01*
X9365420Y-14075984D02*
X9384467Y-14085508D01*
X9384467Y-14085508D02*
X9393991Y-14095031D01*
X9393991Y-14095031D02*
X9403515Y-14114079D01*
X9403515Y-14114079D02*
X9413039Y-14152174D01*
X9413039Y-14152174D02*
X9413039Y-14199793D01*
X9413039Y-14199793D02*
X9403515Y-14237888D01*
X9403515Y-14237888D02*
X9393991Y-14256936D01*
X9393991Y-14256936D02*
X9384467Y-14266460D01*
X9384467Y-14266460D02*
X9365420Y-14275984D01*
X9365420Y-14275984D02*
X9346372Y-14275984D01*
X9346372Y-14275984D02*
X9327324Y-14266460D01*
X9327324Y-14266460D02*
X9317801Y-14256936D01*
X9317801Y-14256936D02*
X9308277Y-14237888D01*
X9308277Y-14237888D02*
X9298753Y-14199793D01*
X9298753Y-14199793D02*
X9298753Y-14152174D01*
X9298753Y-14152174D02*
X9308277Y-14114079D01*
X9308277Y-14114079D02*
X9317801Y-14095031D01*
X9317801Y-14095031D02*
X9327324Y-14085508D01*
X9327324Y-14085508D02*
X9346372Y-14075984D01*
X9498753Y-14256936D02*
X9508277Y-14266460D01*
X9508277Y-14266460D02*
X9498753Y-14275984D01*
X9498753Y-14275984D02*
X9489229Y-14266460D01*
X9489229Y-14266460D02*
X9498753Y-14256936D01*
X9498753Y-14256936D02*
X9498753Y-14275984D01*
X9603515Y-14275984D02*
X9641610Y-14275984D01*
X9641610Y-14275984D02*
X9660658Y-14266460D01*
X9660658Y-14266460D02*
X9670182Y-14256936D01*
X9670182Y-14256936D02*
X9689229Y-14228365D01*
X9689229Y-14228365D02*
X9698753Y-14190269D01*
X9698753Y-14190269D02*
X9698753Y-14114079D01*
X9698753Y-14114079D02*
X9689229Y-14095031D01*
X9689229Y-14095031D02*
X9679705Y-14085508D01*
X9679705Y-14085508D02*
X9660658Y-14075984D01*
X9660658Y-14075984D02*
X9622563Y-14075984D01*
X9622563Y-14075984D02*
X9603515Y-14085508D01*
X9603515Y-14085508D02*
X9593991Y-14095031D01*
X9593991Y-14095031D02*
X9584467Y-14114079D01*
X9584467Y-14114079D02*
X9584467Y-14161698D01*
X9584467Y-14161698D02*
X9593991Y-14180746D01*
X9593991Y-14180746D02*
X9603515Y-14190269D01*
X9603515Y-14190269D02*
X9622563Y-14199793D01*
X9622563Y-14199793D02*
X9660658Y-14199793D01*
X9660658Y-14199793D02*
X9679705Y-14190269D01*
X9679705Y-14190269D02*
X9689229Y-14180746D01*
X9689229Y-14180746D02*
X9698753Y-14161698D01*
X9822563Y-14075984D02*
X9841610Y-14075984D01*
X9841610Y-14075984D02*
X9860658Y-14085508D01*
X9860658Y-14085508D02*
X9870182Y-14095031D01*
X9870182Y-14095031D02*
X9879705Y-14114079D01*
X9879705Y-14114079D02*
X9889229Y-14152174D01*
X9889229Y-14152174D02*
X9889229Y-14199793D01*
X9889229Y-14199793D02*
X9879705Y-14237888D01*
X9879705Y-14237888D02*
X9870182Y-14256936D01*
X9870182Y-14256936D02*
X9860658Y-14266460D01*
X9860658Y-14266460D02*
X9841610Y-14275984D01*
X9841610Y-14275984D02*
X9822563Y-14275984D01*
X9822563Y-14275984D02*
X9803515Y-14266460D01*
X9803515Y-14266460D02*
X9793991Y-14256936D01*
X9793991Y-14256936D02*
X9784467Y-14237888D01*
X9784467Y-14237888D02*
X9774944Y-14199793D01*
X9774944Y-14199793D02*
X9774944Y-14152174D01*
X9774944Y-14152174D02*
X9784467Y-14114079D01*
X9784467Y-14114079D02*
X9793991Y-14095031D01*
X9793991Y-14095031D02*
X9803515Y-14085508D01*
X9803515Y-14085508D02*
X9822563Y-14075984D01*
X10013039Y-14075984D02*
X10032086Y-14075984D01*
X10032086Y-14075984D02*
X10051134Y-14085508D01*
X10051134Y-14085508D02*
X10060658Y-14095031D01*
X10060658Y-14095031D02*
X10070182Y-14114079D01*
X10070182Y-14114079D02*
X10079705Y-14152174D01*
X10079705Y-14152174D02*
X10079705Y-14199793D01*
X10079705Y-14199793D02*
X10070182Y-14237888D01*
X10070182Y-14237888D02*
X10060658Y-14256936D01*
X10060658Y-14256936D02*
X10051134Y-14266460D01*
X10051134Y-14266460D02*
X10032086Y-14275984D01*
X10032086Y-14275984D02*
X10013039Y-14275984D01*
X10013039Y-14275984D02*
X9993991Y-14266460D01*
X9993991Y-14266460D02*
X9984467Y-14256936D01*
X9984467Y-14256936D02*
X9974944Y-14237888D01*
X9974944Y-14237888D02*
X9965420Y-14199793D01*
X9965420Y-14199793D02*
X9965420Y-14152174D01*
X9965420Y-14152174D02*
X9974944Y-14114079D01*
X9974944Y-14114079D02*
X9984467Y-14095031D01*
X9984467Y-14095031D02*
X9993991Y-14085508D01*
X9993991Y-14085508D02*
X10013039Y-14075984D01*
X10165420Y-14275984D02*
X10165420Y-14142650D01*
X10165420Y-14161698D02*
X10174944Y-14152174D01*
X10174944Y-14152174D02*
X10193991Y-14142650D01*
X10193991Y-14142650D02*
X10222563Y-14142650D01*
X10222563Y-14142650D02*
X10241610Y-14152174D01*
X10241610Y-14152174D02*
X10251134Y-14171222D01*
X10251134Y-14171222D02*
X10251134Y-14275984D01*
X10251134Y-14171222D02*
X10260658Y-14152174D01*
X10260658Y-14152174D02*
X10279705Y-14142650D01*
X10279705Y-14142650D02*
X10308277Y-14142650D01*
X10308277Y-14142650D02*
X10327325Y-14152174D01*
X10327325Y-14152174D02*
X10336848Y-14171222D01*
X10336848Y-14171222D02*
X10336848Y-14275984D01*
X10432086Y-14275984D02*
X10432086Y-14142650D01*
X10432086Y-14161698D02*
X10441610Y-14152174D01*
X10441610Y-14152174D02*
X10460658Y-14142650D01*
X10460658Y-14142650D02*
X10489229Y-14142650D01*
X10489229Y-14142650D02*
X10508277Y-14152174D01*
X10508277Y-14152174D02*
X10517801Y-14171222D01*
X10517801Y-14171222D02*
X10517801Y-14275984D01*
X10517801Y-14171222D02*
X10527325Y-14152174D01*
X10527325Y-14152174D02*
X10546372Y-14142650D01*
X10546372Y-14142650D02*
X10574944Y-14142650D01*
X10574944Y-14142650D02*
X10593991Y-14152174D01*
X10593991Y-14152174D02*
X10603515Y-14171222D01*
X10603515Y-14171222D02*
X10603515Y-14275984D01*
X10993991Y-14066460D02*
X10822563Y-14323603D01*
X11251134Y-14075984D02*
X11270182Y-14075984D01*
X11270182Y-14075984D02*
X11289229Y-14085508D01*
X11289229Y-14085508D02*
X11298753Y-14095031D01*
X11298753Y-14095031D02*
X11308277Y-14114079D01*
X11308277Y-14114079D02*
X11317801Y-14152174D01*
X11317801Y-14152174D02*
X11317801Y-14199793D01*
X11317801Y-14199793D02*
X11308277Y-14237888D01*
X11308277Y-14237888D02*
X11298753Y-14256936D01*
X11298753Y-14256936D02*
X11289229Y-14266460D01*
X11289229Y-14266460D02*
X11270182Y-14275984D01*
X11270182Y-14275984D02*
X11251134Y-14275984D01*
X11251134Y-14275984D02*
X11232086Y-14266460D01*
X11232086Y-14266460D02*
X11222563Y-14256936D01*
X11222563Y-14256936D02*
X11213039Y-14237888D01*
X11213039Y-14237888D02*
X11203515Y-14199793D01*
X11203515Y-14199793D02*
X11203515Y-14152174D01*
X11203515Y-14152174D02*
X11213039Y-14114079D01*
X11213039Y-14114079D02*
X11222563Y-14095031D01*
X11222563Y-14095031D02*
X11232086Y-14085508D01*
X11232086Y-14085508D02*
X11251134Y-14075984D01*
X11403515Y-14256936D02*
X11413039Y-14266460D01*
X11413039Y-14266460D02*
X11403515Y-14275984D01*
X11403515Y-14275984D02*
X11393991Y-14266460D01*
X11393991Y-14266460D02*
X11403515Y-14256936D01*
X11403515Y-14256936D02*
X11403515Y-14275984D01*
X11536848Y-14075984D02*
X11555896Y-14075984D01*
X11555896Y-14075984D02*
X11574944Y-14085508D01*
X11574944Y-14085508D02*
X11584467Y-14095031D01*
X11584467Y-14095031D02*
X11593991Y-14114079D01*
X11593991Y-14114079D02*
X11603515Y-14152174D01*
X11603515Y-14152174D02*
X11603515Y-14199793D01*
X11603515Y-14199793D02*
X11593991Y-14237888D01*
X11593991Y-14237888D02*
X11584467Y-14256936D01*
X11584467Y-14256936D02*
X11574944Y-14266460D01*
X11574944Y-14266460D02*
X11555896Y-14275984D01*
X11555896Y-14275984D02*
X11536848Y-14275984D01*
X11536848Y-14275984D02*
X11517801Y-14266460D01*
X11517801Y-14266460D02*
X11508277Y-14256936D01*
X11508277Y-14256936D02*
X11498753Y-14237888D01*
X11498753Y-14237888D02*
X11489229Y-14199793D01*
X11489229Y-14199793D02*
X11489229Y-14152174D01*
X11489229Y-14152174D02*
X11498753Y-14114079D01*
X11498753Y-14114079D02*
X11508277Y-14095031D01*
X11508277Y-14095031D02*
X11517801Y-14085508D01*
X11517801Y-14085508D02*
X11536848Y-14075984D01*
X11670182Y-14075984D02*
X11793991Y-14075984D01*
X11793991Y-14075984D02*
X11727325Y-14152174D01*
X11727325Y-14152174D02*
X11755896Y-14152174D01*
X11755896Y-14152174D02*
X11774944Y-14161698D01*
X11774944Y-14161698D02*
X11784467Y-14171222D01*
X11784467Y-14171222D02*
X11793991Y-14190269D01*
X11793991Y-14190269D02*
X11793991Y-14237888D01*
X11793991Y-14237888D02*
X11784467Y-14256936D01*
X11784467Y-14256936D02*
X11774944Y-14266460D01*
X11774944Y-14266460D02*
X11755896Y-14275984D01*
X11755896Y-14275984D02*
X11698753Y-14275984D01*
X11698753Y-14275984D02*
X11679706Y-14266460D01*
X11679706Y-14266460D02*
X11670182Y-14256936D01*
X11974944Y-14075984D02*
X11879706Y-14075984D01*
X11879706Y-14075984D02*
X11870182Y-14171222D01*
X11870182Y-14171222D02*
X11879706Y-14161698D01*
X11879706Y-14161698D02*
X11898753Y-14152174D01*
X11898753Y-14152174D02*
X11946372Y-14152174D01*
X11946372Y-14152174D02*
X11965420Y-14161698D01*
X11965420Y-14161698D02*
X11974944Y-14171222D01*
X11974944Y-14171222D02*
X11984467Y-14190269D01*
X11984467Y-14190269D02*
X11984467Y-14237888D01*
X11984467Y-14237888D02*
X11974944Y-14256936D01*
X11974944Y-14256936D02*
X11965420Y-14266460D01*
X11965420Y-14266460D02*
X11946372Y-14275984D01*
X11946372Y-14275984D02*
X11898753Y-14275984D01*
X11898753Y-14275984D02*
X11879706Y-14266460D01*
X11879706Y-14266460D02*
X11870182Y-14256936D01*
X12155896Y-14142650D02*
X12155896Y-14275984D01*
X12108277Y-14066460D02*
X12060658Y-14209317D01*
X12060658Y-14209317D02*
X12184467Y-14209317D01*
X12251134Y-14075984D02*
X12251134Y-14114079D01*
X12327325Y-14075984D02*
X12327325Y-14114079D01*
X12622563Y-14352174D02*
X12613039Y-14342650D01*
X12613039Y-14342650D02*
X12593991Y-14314079D01*
X12593991Y-14314079D02*
X12584468Y-14295031D01*
X12584468Y-14295031D02*
X12574944Y-14266460D01*
X12574944Y-14266460D02*
X12565420Y-14218841D01*
X12565420Y-14218841D02*
X12565420Y-14180746D01*
X12565420Y-14180746D02*
X12574944Y-14133127D01*
X12574944Y-14133127D02*
X12584468Y-14104555D01*
X12584468Y-14104555D02*
X12593991Y-14085508D01*
X12593991Y-14085508D02*
X12613039Y-14056936D01*
X12613039Y-14056936D02*
X12622563Y-14047412D01*
X12784468Y-14142650D02*
X12784468Y-14275984D01*
X12736848Y-14066460D02*
X12689229Y-14209317D01*
X12689229Y-14209317D02*
X12813039Y-14209317D01*
X13041610Y-14275984D02*
X13041610Y-14075984D01*
X13127325Y-14275984D02*
X13127325Y-14171222D01*
X13127325Y-14171222D02*
X13117801Y-14152174D01*
X13117801Y-14152174D02*
X13098753Y-14142650D01*
X13098753Y-14142650D02*
X13070182Y-14142650D01*
X13070182Y-14142650D02*
X13051134Y-14152174D01*
X13051134Y-14152174D02*
X13041610Y-14161698D01*
X13251134Y-14275984D02*
X13232087Y-14266460D01*
X13232087Y-14266460D02*
X13222563Y-14256936D01*
X13222563Y-14256936D02*
X13213039Y-14237888D01*
X13213039Y-14237888D02*
X13213039Y-14180746D01*
X13213039Y-14180746D02*
X13222563Y-14161698D01*
X13222563Y-14161698D02*
X13232087Y-14152174D01*
X13232087Y-14152174D02*
X13251134Y-14142650D01*
X13251134Y-14142650D02*
X13279706Y-14142650D01*
X13279706Y-14142650D02*
X13298753Y-14152174D01*
X13298753Y-14152174D02*
X13308277Y-14161698D01*
X13308277Y-14161698D02*
X13317801Y-14180746D01*
X13317801Y-14180746D02*
X13317801Y-14237888D01*
X13317801Y-14237888D02*
X13308277Y-14256936D01*
X13308277Y-14256936D02*
X13298753Y-14266460D01*
X13298753Y-14266460D02*
X13279706Y-14275984D01*
X13279706Y-14275984D02*
X13251134Y-14275984D01*
X13432087Y-14275984D02*
X13413039Y-14266460D01*
X13413039Y-14266460D02*
X13403515Y-14247412D01*
X13403515Y-14247412D02*
X13403515Y-14075984D01*
X13584468Y-14266460D02*
X13565420Y-14275984D01*
X13565420Y-14275984D02*
X13527325Y-14275984D01*
X13527325Y-14275984D02*
X13508277Y-14266460D01*
X13508277Y-14266460D02*
X13498753Y-14247412D01*
X13498753Y-14247412D02*
X13498753Y-14171222D01*
X13498753Y-14171222D02*
X13508277Y-14152174D01*
X13508277Y-14152174D02*
X13527325Y-14142650D01*
X13527325Y-14142650D02*
X13565420Y-14142650D01*
X13565420Y-14142650D02*
X13584468Y-14152174D01*
X13584468Y-14152174D02*
X13593991Y-14171222D01*
X13593991Y-14171222D02*
X13593991Y-14190269D01*
X13593991Y-14190269D02*
X13498753Y-14209317D01*
X13670182Y-14266460D02*
X13689230Y-14275984D01*
X13689230Y-14275984D02*
X13727325Y-14275984D01*
X13727325Y-14275984D02*
X13746372Y-14266460D01*
X13746372Y-14266460D02*
X13755896Y-14247412D01*
X13755896Y-14247412D02*
X13755896Y-14237888D01*
X13755896Y-14237888D02*
X13746372Y-14218841D01*
X13746372Y-14218841D02*
X13727325Y-14209317D01*
X13727325Y-14209317D02*
X13698753Y-14209317D01*
X13698753Y-14209317D02*
X13679706Y-14199793D01*
X13679706Y-14199793D02*
X13670182Y-14180746D01*
X13670182Y-14180746D02*
X13670182Y-14171222D01*
X13670182Y-14171222D02*
X13679706Y-14152174D01*
X13679706Y-14152174D02*
X13698753Y-14142650D01*
X13698753Y-14142650D02*
X13727325Y-14142650D01*
X13727325Y-14142650D02*
X13746372Y-14152174D01*
X13822563Y-14352174D02*
X13832087Y-14342650D01*
X13832087Y-14342650D02*
X13851134Y-14314079D01*
X13851134Y-14314079D02*
X13860658Y-14295031D01*
X13860658Y-14295031D02*
X13870182Y-14266460D01*
X13870182Y-14266460D02*
X13879706Y-14218841D01*
X13879706Y-14218841D02*
X13879706Y-14180746D01*
X13879706Y-14180746D02*
X13870182Y-14133127D01*
X13870182Y-14133127D02*
X13860658Y-14104555D01*
X13860658Y-14104555D02*
X13851134Y-14085508D01*
X13851134Y-14085508D02*
X13832087Y-14056936D01*
X13832087Y-14056936D02*
X13822563Y-14047412D01*
D12*
X8997500Y-14498500D02*
X9047500Y-14448500D01*
X8997500Y-14398500D01*
X8947500Y-14448500D01*
X8997500Y-14498500D01*
D11*
X9413039Y-14539984D02*
X9298753Y-14539984D01*
X9355896Y-14539984D02*
X9355896Y-14339984D01*
X9355896Y-14339984D02*
X9336848Y-14368555D01*
X9336848Y-14368555D02*
X9317801Y-14387603D01*
X9317801Y-14387603D02*
X9298753Y-14397127D01*
X9498753Y-14520936D02*
X9508277Y-14530460D01*
X9508277Y-14530460D02*
X9498753Y-14539984D01*
X9498753Y-14539984D02*
X9489229Y-14530460D01*
X9489229Y-14530460D02*
X9498753Y-14520936D01*
X9498753Y-14520936D02*
X9498753Y-14539984D01*
X9632086Y-14339984D02*
X9651134Y-14339984D01*
X9651134Y-14339984D02*
X9670182Y-14349508D01*
X9670182Y-14349508D02*
X9679705Y-14359031D01*
X9679705Y-14359031D02*
X9689229Y-14378079D01*
X9689229Y-14378079D02*
X9698753Y-14416174D01*
X9698753Y-14416174D02*
X9698753Y-14463793D01*
X9698753Y-14463793D02*
X9689229Y-14501888D01*
X9689229Y-14501888D02*
X9679705Y-14520936D01*
X9679705Y-14520936D02*
X9670182Y-14530460D01*
X9670182Y-14530460D02*
X9651134Y-14539984D01*
X9651134Y-14539984D02*
X9632086Y-14539984D01*
X9632086Y-14539984D02*
X9613039Y-14530460D01*
X9613039Y-14530460D02*
X9603515Y-14520936D01*
X9603515Y-14520936D02*
X9593991Y-14501888D01*
X9593991Y-14501888D02*
X9584467Y-14463793D01*
X9584467Y-14463793D02*
X9584467Y-14416174D01*
X9584467Y-14416174D02*
X9593991Y-14378079D01*
X9593991Y-14378079D02*
X9603515Y-14359031D01*
X9603515Y-14359031D02*
X9613039Y-14349508D01*
X9613039Y-14349508D02*
X9632086Y-14339984D01*
X9822563Y-14339984D02*
X9841610Y-14339984D01*
X9841610Y-14339984D02*
X9860658Y-14349508D01*
X9860658Y-14349508D02*
X9870182Y-14359031D01*
X9870182Y-14359031D02*
X9879705Y-14378079D01*
X9879705Y-14378079D02*
X9889229Y-14416174D01*
X9889229Y-14416174D02*
X9889229Y-14463793D01*
X9889229Y-14463793D02*
X9879705Y-14501888D01*
X9879705Y-14501888D02*
X9870182Y-14520936D01*
X9870182Y-14520936D02*
X9860658Y-14530460D01*
X9860658Y-14530460D02*
X9841610Y-14539984D01*
X9841610Y-14539984D02*
X9822563Y-14539984D01*
X9822563Y-14539984D02*
X9803515Y-14530460D01*
X9803515Y-14530460D02*
X9793991Y-14520936D01*
X9793991Y-14520936D02*
X9784467Y-14501888D01*
X9784467Y-14501888D02*
X9774944Y-14463793D01*
X9774944Y-14463793D02*
X9774944Y-14416174D01*
X9774944Y-14416174D02*
X9784467Y-14378079D01*
X9784467Y-14378079D02*
X9793991Y-14359031D01*
X9793991Y-14359031D02*
X9803515Y-14349508D01*
X9803515Y-14349508D02*
X9822563Y-14339984D01*
X10013039Y-14339984D02*
X10032086Y-14339984D01*
X10032086Y-14339984D02*
X10051134Y-14349508D01*
X10051134Y-14349508D02*
X10060658Y-14359031D01*
X10060658Y-14359031D02*
X10070182Y-14378079D01*
X10070182Y-14378079D02*
X10079705Y-14416174D01*
X10079705Y-14416174D02*
X10079705Y-14463793D01*
X10079705Y-14463793D02*
X10070182Y-14501888D01*
X10070182Y-14501888D02*
X10060658Y-14520936D01*
X10060658Y-14520936D02*
X10051134Y-14530460D01*
X10051134Y-14530460D02*
X10032086Y-14539984D01*
X10032086Y-14539984D02*
X10013039Y-14539984D01*
X10013039Y-14539984D02*
X9993991Y-14530460D01*
X9993991Y-14530460D02*
X9984467Y-14520936D01*
X9984467Y-14520936D02*
X9974944Y-14501888D01*
X9974944Y-14501888D02*
X9965420Y-14463793D01*
X9965420Y-14463793D02*
X9965420Y-14416174D01*
X9965420Y-14416174D02*
X9974944Y-14378079D01*
X9974944Y-14378079D02*
X9984467Y-14359031D01*
X9984467Y-14359031D02*
X9993991Y-14349508D01*
X9993991Y-14349508D02*
X10013039Y-14339984D01*
X10165420Y-14539984D02*
X10165420Y-14406650D01*
X10165420Y-14425698D02*
X10174944Y-14416174D01*
X10174944Y-14416174D02*
X10193991Y-14406650D01*
X10193991Y-14406650D02*
X10222563Y-14406650D01*
X10222563Y-14406650D02*
X10241610Y-14416174D01*
X10241610Y-14416174D02*
X10251134Y-14435222D01*
X10251134Y-14435222D02*
X10251134Y-14539984D01*
X10251134Y-14435222D02*
X10260658Y-14416174D01*
X10260658Y-14416174D02*
X10279705Y-14406650D01*
X10279705Y-14406650D02*
X10308277Y-14406650D01*
X10308277Y-14406650D02*
X10327325Y-14416174D01*
X10327325Y-14416174D02*
X10336848Y-14435222D01*
X10336848Y-14435222D02*
X10336848Y-14539984D01*
X10432086Y-14539984D02*
X10432086Y-14406650D01*
X10432086Y-14425698D02*
X10441610Y-14416174D01*
X10441610Y-14416174D02*
X10460658Y-14406650D01*
X10460658Y-14406650D02*
X10489229Y-14406650D01*
X10489229Y-14406650D02*
X10508277Y-14416174D01*
X10508277Y-14416174D02*
X10517801Y-14435222D01*
X10517801Y-14435222D02*
X10517801Y-14539984D01*
X10517801Y-14435222D02*
X10527325Y-14416174D01*
X10527325Y-14416174D02*
X10546372Y-14406650D01*
X10546372Y-14406650D02*
X10574944Y-14406650D01*
X10574944Y-14406650D02*
X10593991Y-14416174D01*
X10593991Y-14416174D02*
X10603515Y-14435222D01*
X10603515Y-14435222D02*
X10603515Y-14539984D01*
X10993991Y-14330460D02*
X10822563Y-14587603D01*
X11251134Y-14339984D02*
X11270182Y-14339984D01*
X11270182Y-14339984D02*
X11289229Y-14349508D01*
X11289229Y-14349508D02*
X11298753Y-14359031D01*
X11298753Y-14359031D02*
X11308277Y-14378079D01*
X11308277Y-14378079D02*
X11317801Y-14416174D01*
X11317801Y-14416174D02*
X11317801Y-14463793D01*
X11317801Y-14463793D02*
X11308277Y-14501888D01*
X11308277Y-14501888D02*
X11298753Y-14520936D01*
X11298753Y-14520936D02*
X11289229Y-14530460D01*
X11289229Y-14530460D02*
X11270182Y-14539984D01*
X11270182Y-14539984D02*
X11251134Y-14539984D01*
X11251134Y-14539984D02*
X11232086Y-14530460D01*
X11232086Y-14530460D02*
X11222563Y-14520936D01*
X11222563Y-14520936D02*
X11213039Y-14501888D01*
X11213039Y-14501888D02*
X11203515Y-14463793D01*
X11203515Y-14463793D02*
X11203515Y-14416174D01*
X11203515Y-14416174D02*
X11213039Y-14378079D01*
X11213039Y-14378079D02*
X11222563Y-14359031D01*
X11222563Y-14359031D02*
X11232086Y-14349508D01*
X11232086Y-14349508D02*
X11251134Y-14339984D01*
X11403515Y-14520936D02*
X11413039Y-14530460D01*
X11413039Y-14530460D02*
X11403515Y-14539984D01*
X11403515Y-14539984D02*
X11393991Y-14530460D01*
X11393991Y-14530460D02*
X11403515Y-14520936D01*
X11403515Y-14520936D02*
X11403515Y-14539984D01*
X11536848Y-14339984D02*
X11555896Y-14339984D01*
X11555896Y-14339984D02*
X11574944Y-14349508D01*
X11574944Y-14349508D02*
X11584467Y-14359031D01*
X11584467Y-14359031D02*
X11593991Y-14378079D01*
X11593991Y-14378079D02*
X11603515Y-14416174D01*
X11603515Y-14416174D02*
X11603515Y-14463793D01*
X11603515Y-14463793D02*
X11593991Y-14501888D01*
X11593991Y-14501888D02*
X11584467Y-14520936D01*
X11584467Y-14520936D02*
X11574944Y-14530460D01*
X11574944Y-14530460D02*
X11555896Y-14539984D01*
X11555896Y-14539984D02*
X11536848Y-14539984D01*
X11536848Y-14539984D02*
X11517801Y-14530460D01*
X11517801Y-14530460D02*
X11508277Y-14520936D01*
X11508277Y-14520936D02*
X11498753Y-14501888D01*
X11498753Y-14501888D02*
X11489229Y-14463793D01*
X11489229Y-14463793D02*
X11489229Y-14416174D01*
X11489229Y-14416174D02*
X11498753Y-14378079D01*
X11498753Y-14378079D02*
X11508277Y-14359031D01*
X11508277Y-14359031D02*
X11517801Y-14349508D01*
X11517801Y-14349508D02*
X11536848Y-14339984D01*
X11670182Y-14339984D02*
X11793991Y-14339984D01*
X11793991Y-14339984D02*
X11727325Y-14416174D01*
X11727325Y-14416174D02*
X11755896Y-14416174D01*
X11755896Y-14416174D02*
X11774944Y-14425698D01*
X11774944Y-14425698D02*
X11784467Y-14435222D01*
X11784467Y-14435222D02*
X11793991Y-14454269D01*
X11793991Y-14454269D02*
X11793991Y-14501888D01*
X11793991Y-14501888D02*
X11784467Y-14520936D01*
X11784467Y-14520936D02*
X11774944Y-14530460D01*
X11774944Y-14530460D02*
X11755896Y-14539984D01*
X11755896Y-14539984D02*
X11698753Y-14539984D01*
X11698753Y-14539984D02*
X11679706Y-14530460D01*
X11679706Y-14530460D02*
X11670182Y-14520936D01*
X11889229Y-14539984D02*
X11927325Y-14539984D01*
X11927325Y-14539984D02*
X11946372Y-14530460D01*
X11946372Y-14530460D02*
X11955896Y-14520936D01*
X11955896Y-14520936D02*
X11974944Y-14492365D01*
X11974944Y-14492365D02*
X11984467Y-14454269D01*
X11984467Y-14454269D02*
X11984467Y-14378079D01*
X11984467Y-14378079D02*
X11974944Y-14359031D01*
X11974944Y-14359031D02*
X11965420Y-14349508D01*
X11965420Y-14349508D02*
X11946372Y-14339984D01*
X11946372Y-14339984D02*
X11908277Y-14339984D01*
X11908277Y-14339984D02*
X11889229Y-14349508D01*
X11889229Y-14349508D02*
X11879706Y-14359031D01*
X11879706Y-14359031D02*
X11870182Y-14378079D01*
X11870182Y-14378079D02*
X11870182Y-14425698D01*
X11870182Y-14425698D02*
X11879706Y-14444746D01*
X11879706Y-14444746D02*
X11889229Y-14454269D01*
X11889229Y-14454269D02*
X11908277Y-14463793D01*
X11908277Y-14463793D02*
X11946372Y-14463793D01*
X11946372Y-14463793D02*
X11965420Y-14454269D01*
X11965420Y-14454269D02*
X11974944Y-14444746D01*
X11974944Y-14444746D02*
X11984467Y-14425698D01*
X12155896Y-14406650D02*
X12155896Y-14539984D01*
X12108277Y-14330460D02*
X12060658Y-14473317D01*
X12060658Y-14473317D02*
X12184467Y-14473317D01*
X12251134Y-14339984D02*
X12251134Y-14378079D01*
X12327325Y-14339984D02*
X12327325Y-14378079D01*
X12622563Y-14616174D02*
X12613039Y-14606650D01*
X12613039Y-14606650D02*
X12593991Y-14578079D01*
X12593991Y-14578079D02*
X12584468Y-14559031D01*
X12584468Y-14559031D02*
X12574944Y-14530460D01*
X12574944Y-14530460D02*
X12565420Y-14482841D01*
X12565420Y-14482841D02*
X12565420Y-14444746D01*
X12565420Y-14444746D02*
X12574944Y-14397127D01*
X12574944Y-14397127D02*
X12584468Y-14368555D01*
X12584468Y-14368555D02*
X12593991Y-14349508D01*
X12593991Y-14349508D02*
X12613039Y-14320936D01*
X12613039Y-14320936D02*
X12622563Y-14311412D01*
X12793991Y-14339984D02*
X12698753Y-14339984D01*
X12698753Y-14339984D02*
X12689229Y-14435222D01*
X12689229Y-14435222D02*
X12698753Y-14425698D01*
X12698753Y-14425698D02*
X12717801Y-14416174D01*
X12717801Y-14416174D02*
X12765420Y-14416174D01*
X12765420Y-14416174D02*
X12784468Y-14425698D01*
X12784468Y-14425698D02*
X12793991Y-14435222D01*
X12793991Y-14435222D02*
X12803515Y-14454269D01*
X12803515Y-14454269D02*
X12803515Y-14501888D01*
X12803515Y-14501888D02*
X12793991Y-14520936D01*
X12793991Y-14520936D02*
X12784468Y-14530460D01*
X12784468Y-14530460D02*
X12765420Y-14539984D01*
X12765420Y-14539984D02*
X12717801Y-14539984D01*
X12717801Y-14539984D02*
X12698753Y-14530460D01*
X12698753Y-14530460D02*
X12689229Y-14520936D01*
X12974944Y-14339984D02*
X12936848Y-14339984D01*
X12936848Y-14339984D02*
X12917801Y-14349508D01*
X12917801Y-14349508D02*
X12908277Y-14359031D01*
X12908277Y-14359031D02*
X12889229Y-14387603D01*
X12889229Y-14387603D02*
X12879706Y-14425698D01*
X12879706Y-14425698D02*
X12879706Y-14501888D01*
X12879706Y-14501888D02*
X12889229Y-14520936D01*
X12889229Y-14520936D02*
X12898753Y-14530460D01*
X12898753Y-14530460D02*
X12917801Y-14539984D01*
X12917801Y-14539984D02*
X12955896Y-14539984D01*
X12955896Y-14539984D02*
X12974944Y-14530460D01*
X12974944Y-14530460D02*
X12984468Y-14520936D01*
X12984468Y-14520936D02*
X12993991Y-14501888D01*
X12993991Y-14501888D02*
X12993991Y-14454269D01*
X12993991Y-14454269D02*
X12984468Y-14435222D01*
X12984468Y-14435222D02*
X12974944Y-14425698D01*
X12974944Y-14425698D02*
X12955896Y-14416174D01*
X12955896Y-14416174D02*
X12917801Y-14416174D01*
X12917801Y-14416174D02*
X12898753Y-14425698D01*
X12898753Y-14425698D02*
X12889229Y-14435222D01*
X12889229Y-14435222D02*
X12879706Y-14454269D01*
X13232087Y-14539984D02*
X13232087Y-14339984D01*
X13317801Y-14539984D02*
X13317801Y-14435222D01*
X13317801Y-14435222D02*
X13308277Y-14416174D01*
X13308277Y-14416174D02*
X13289230Y-14406650D01*
X13289230Y-14406650D02*
X13260658Y-14406650D01*
X13260658Y-14406650D02*
X13241610Y-14416174D01*
X13241610Y-14416174D02*
X13232087Y-14425698D01*
X13441610Y-14539984D02*
X13422563Y-14530460D01*
X13422563Y-14530460D02*
X13413039Y-14520936D01*
X13413039Y-14520936D02*
X13403515Y-14501888D01*
X13403515Y-14501888D02*
X13403515Y-14444746D01*
X13403515Y-14444746D02*
X13413039Y-14425698D01*
X13413039Y-14425698D02*
X13422563Y-14416174D01*
X13422563Y-14416174D02*
X13441610Y-14406650D01*
X13441610Y-14406650D02*
X13470182Y-14406650D01*
X13470182Y-14406650D02*
X13489230Y-14416174D01*
X13489230Y-14416174D02*
X13498753Y-14425698D01*
X13498753Y-14425698D02*
X13508277Y-14444746D01*
X13508277Y-14444746D02*
X13508277Y-14501888D01*
X13508277Y-14501888D02*
X13498753Y-14520936D01*
X13498753Y-14520936D02*
X13489230Y-14530460D01*
X13489230Y-14530460D02*
X13470182Y-14539984D01*
X13470182Y-14539984D02*
X13441610Y-14539984D01*
X13622563Y-14539984D02*
X13603515Y-14530460D01*
X13603515Y-14530460D02*
X13593991Y-14511412D01*
X13593991Y-14511412D02*
X13593991Y-14339984D01*
X13774944Y-14530460D02*
X13755896Y-14539984D01*
X13755896Y-14539984D02*
X13717801Y-14539984D01*
X13717801Y-14539984D02*
X13698753Y-14530460D01*
X13698753Y-14530460D02*
X13689230Y-14511412D01*
X13689230Y-14511412D02*
X13689230Y-14435222D01*
X13689230Y-14435222D02*
X13698753Y-14416174D01*
X13698753Y-14416174D02*
X13717801Y-14406650D01*
X13717801Y-14406650D02*
X13755896Y-14406650D01*
X13755896Y-14406650D02*
X13774944Y-14416174D01*
X13774944Y-14416174D02*
X13784468Y-14435222D01*
X13784468Y-14435222D02*
X13784468Y-14454269D01*
X13784468Y-14454269D02*
X13689230Y-14473317D01*
X13860658Y-14530460D02*
X13879706Y-14539984D01*
X13879706Y-14539984D02*
X13917801Y-14539984D01*
X13917801Y-14539984D02*
X13936849Y-14530460D01*
X13936849Y-14530460D02*
X13946372Y-14511412D01*
X13946372Y-14511412D02*
X13946372Y-14501888D01*
X13946372Y-14501888D02*
X13936849Y-14482841D01*
X13936849Y-14482841D02*
X13917801Y-14473317D01*
X13917801Y-14473317D02*
X13889230Y-14473317D01*
X13889230Y-14473317D02*
X13870182Y-14463793D01*
X13870182Y-14463793D02*
X13860658Y-14444746D01*
X13860658Y-14444746D02*
X13860658Y-14435222D01*
X13860658Y-14435222D02*
X13870182Y-14416174D01*
X13870182Y-14416174D02*
X13889230Y-14406650D01*
X13889230Y-14406650D02*
X13917801Y-14406650D01*
X13917801Y-14406650D02*
X13936849Y-14416174D01*
X14013039Y-14616174D02*
X14022563Y-14606650D01*
X14022563Y-14606650D02*
X14041611Y-14578079D01*
X14041611Y-14578079D02*
X14051134Y-14559031D01*
X14051134Y-14559031D02*
X14060658Y-14530460D01*
X14060658Y-14530460D02*
X14070182Y-14482841D01*
X14070182Y-14482841D02*
X14070182Y-14444746D01*
X14070182Y-14444746D02*
X14060658Y-14397127D01*
X14060658Y-14397127D02*
X14051134Y-14368555D01*
X14051134Y-14368555D02*
X14041611Y-14349508D01*
X14041611Y-14349508D02*
X14022563Y-14320936D01*
X14022563Y-14320936D02*
X14013039Y-14311412D01*
D13*
X8927500Y-14652500D02*
X9047500Y-14772500D01*
X9047500Y-14652500D02*
X8927500Y-14772500D01*
X9047500Y-14712500D02*
G75*
G02*
X8927500Y-14712500I-60000J0D01*
G01*
X8927500Y-14712500D02*
G75*
G02*
X9047500Y-14712500I60000J0D01*
G01*
D11*
X9413039Y-14803984D02*
X9298753Y-14803984D01*
X9355896Y-14803984D02*
X9355896Y-14603984D01*
X9355896Y-14603984D02*
X9336848Y-14632555D01*
X9336848Y-14632555D02*
X9317801Y-14651603D01*
X9317801Y-14651603D02*
X9298753Y-14661127D01*
X9498753Y-14784936D02*
X9508277Y-14794460D01*
X9508277Y-14794460D02*
X9498753Y-14803984D01*
X9498753Y-14803984D02*
X9489229Y-14794460D01*
X9489229Y-14794460D02*
X9498753Y-14784936D01*
X9498753Y-14784936D02*
X9498753Y-14803984D01*
X9584467Y-14623031D02*
X9593991Y-14613508D01*
X9593991Y-14613508D02*
X9613039Y-14603984D01*
X9613039Y-14603984D02*
X9660658Y-14603984D01*
X9660658Y-14603984D02*
X9679705Y-14613508D01*
X9679705Y-14613508D02*
X9689229Y-14623031D01*
X9689229Y-14623031D02*
X9698753Y-14642079D01*
X9698753Y-14642079D02*
X9698753Y-14661127D01*
X9698753Y-14661127D02*
X9689229Y-14689698D01*
X9689229Y-14689698D02*
X9574944Y-14803984D01*
X9574944Y-14803984D02*
X9698753Y-14803984D01*
X9822563Y-14603984D02*
X9841610Y-14603984D01*
X9841610Y-14603984D02*
X9860658Y-14613508D01*
X9860658Y-14613508D02*
X9870182Y-14623031D01*
X9870182Y-14623031D02*
X9879705Y-14642079D01*
X9879705Y-14642079D02*
X9889229Y-14680174D01*
X9889229Y-14680174D02*
X9889229Y-14727793D01*
X9889229Y-14727793D02*
X9879705Y-14765888D01*
X9879705Y-14765888D02*
X9870182Y-14784936D01*
X9870182Y-14784936D02*
X9860658Y-14794460D01*
X9860658Y-14794460D02*
X9841610Y-14803984D01*
X9841610Y-14803984D02*
X9822563Y-14803984D01*
X9822563Y-14803984D02*
X9803515Y-14794460D01*
X9803515Y-14794460D02*
X9793991Y-14784936D01*
X9793991Y-14784936D02*
X9784467Y-14765888D01*
X9784467Y-14765888D02*
X9774944Y-14727793D01*
X9774944Y-14727793D02*
X9774944Y-14680174D01*
X9774944Y-14680174D02*
X9784467Y-14642079D01*
X9784467Y-14642079D02*
X9793991Y-14623031D01*
X9793991Y-14623031D02*
X9803515Y-14613508D01*
X9803515Y-14613508D02*
X9822563Y-14603984D01*
X10013039Y-14603984D02*
X10032086Y-14603984D01*
X10032086Y-14603984D02*
X10051134Y-14613508D01*
X10051134Y-14613508D02*
X10060658Y-14623031D01*
X10060658Y-14623031D02*
X10070182Y-14642079D01*
X10070182Y-14642079D02*
X10079705Y-14680174D01*
X10079705Y-14680174D02*
X10079705Y-14727793D01*
X10079705Y-14727793D02*
X10070182Y-14765888D01*
X10070182Y-14765888D02*
X10060658Y-14784936D01*
X10060658Y-14784936D02*
X10051134Y-14794460D01*
X10051134Y-14794460D02*
X10032086Y-14803984D01*
X10032086Y-14803984D02*
X10013039Y-14803984D01*
X10013039Y-14803984D02*
X9993991Y-14794460D01*
X9993991Y-14794460D02*
X9984467Y-14784936D01*
X9984467Y-14784936D02*
X9974944Y-14765888D01*
X9974944Y-14765888D02*
X9965420Y-14727793D01*
X9965420Y-14727793D02*
X9965420Y-14680174D01*
X9965420Y-14680174D02*
X9974944Y-14642079D01*
X9974944Y-14642079D02*
X9984467Y-14623031D01*
X9984467Y-14623031D02*
X9993991Y-14613508D01*
X9993991Y-14613508D02*
X10013039Y-14603984D01*
X10165420Y-14803984D02*
X10165420Y-14670650D01*
X10165420Y-14689698D02*
X10174944Y-14680174D01*
X10174944Y-14680174D02*
X10193991Y-14670650D01*
X10193991Y-14670650D02*
X10222563Y-14670650D01*
X10222563Y-14670650D02*
X10241610Y-14680174D01*
X10241610Y-14680174D02*
X10251134Y-14699222D01*
X10251134Y-14699222D02*
X10251134Y-14803984D01*
X10251134Y-14699222D02*
X10260658Y-14680174D01*
X10260658Y-14680174D02*
X10279705Y-14670650D01*
X10279705Y-14670650D02*
X10308277Y-14670650D01*
X10308277Y-14670650D02*
X10327325Y-14680174D01*
X10327325Y-14680174D02*
X10336848Y-14699222D01*
X10336848Y-14699222D02*
X10336848Y-14803984D01*
X10432086Y-14803984D02*
X10432086Y-14670650D01*
X10432086Y-14689698D02*
X10441610Y-14680174D01*
X10441610Y-14680174D02*
X10460658Y-14670650D01*
X10460658Y-14670650D02*
X10489229Y-14670650D01*
X10489229Y-14670650D02*
X10508277Y-14680174D01*
X10508277Y-14680174D02*
X10517801Y-14699222D01*
X10517801Y-14699222D02*
X10517801Y-14803984D01*
X10517801Y-14699222D02*
X10527325Y-14680174D01*
X10527325Y-14680174D02*
X10546372Y-14670650D01*
X10546372Y-14670650D02*
X10574944Y-14670650D01*
X10574944Y-14670650D02*
X10593991Y-14680174D01*
X10593991Y-14680174D02*
X10603515Y-14699222D01*
X10603515Y-14699222D02*
X10603515Y-14803984D01*
X10993991Y-14594460D02*
X10822563Y-14851603D01*
X11251134Y-14603984D02*
X11270182Y-14603984D01*
X11270182Y-14603984D02*
X11289229Y-14613508D01*
X11289229Y-14613508D02*
X11298753Y-14623031D01*
X11298753Y-14623031D02*
X11308277Y-14642079D01*
X11308277Y-14642079D02*
X11317801Y-14680174D01*
X11317801Y-14680174D02*
X11317801Y-14727793D01*
X11317801Y-14727793D02*
X11308277Y-14765888D01*
X11308277Y-14765888D02*
X11298753Y-14784936D01*
X11298753Y-14784936D02*
X11289229Y-14794460D01*
X11289229Y-14794460D02*
X11270182Y-14803984D01*
X11270182Y-14803984D02*
X11251134Y-14803984D01*
X11251134Y-14803984D02*
X11232086Y-14794460D01*
X11232086Y-14794460D02*
X11222563Y-14784936D01*
X11222563Y-14784936D02*
X11213039Y-14765888D01*
X11213039Y-14765888D02*
X11203515Y-14727793D01*
X11203515Y-14727793D02*
X11203515Y-14680174D01*
X11203515Y-14680174D02*
X11213039Y-14642079D01*
X11213039Y-14642079D02*
X11222563Y-14623031D01*
X11222563Y-14623031D02*
X11232086Y-14613508D01*
X11232086Y-14613508D02*
X11251134Y-14603984D01*
X11403515Y-14784936D02*
X11413039Y-14794460D01*
X11413039Y-14794460D02*
X11403515Y-14803984D01*
X11403515Y-14803984D02*
X11393991Y-14794460D01*
X11393991Y-14794460D02*
X11403515Y-14784936D01*
X11403515Y-14784936D02*
X11403515Y-14803984D01*
X11536848Y-14603984D02*
X11555896Y-14603984D01*
X11555896Y-14603984D02*
X11574944Y-14613508D01*
X11574944Y-14613508D02*
X11584467Y-14623031D01*
X11584467Y-14623031D02*
X11593991Y-14642079D01*
X11593991Y-14642079D02*
X11603515Y-14680174D01*
X11603515Y-14680174D02*
X11603515Y-14727793D01*
X11603515Y-14727793D02*
X11593991Y-14765888D01*
X11593991Y-14765888D02*
X11584467Y-14784936D01*
X11584467Y-14784936D02*
X11574944Y-14794460D01*
X11574944Y-14794460D02*
X11555896Y-14803984D01*
X11555896Y-14803984D02*
X11536848Y-14803984D01*
X11536848Y-14803984D02*
X11517801Y-14794460D01*
X11517801Y-14794460D02*
X11508277Y-14784936D01*
X11508277Y-14784936D02*
X11498753Y-14765888D01*
X11498753Y-14765888D02*
X11489229Y-14727793D01*
X11489229Y-14727793D02*
X11489229Y-14680174D01*
X11489229Y-14680174D02*
X11498753Y-14642079D01*
X11498753Y-14642079D02*
X11508277Y-14623031D01*
X11508277Y-14623031D02*
X11517801Y-14613508D01*
X11517801Y-14613508D02*
X11536848Y-14603984D01*
X11774944Y-14670650D02*
X11774944Y-14803984D01*
X11727325Y-14594460D02*
X11679706Y-14737317D01*
X11679706Y-14737317D02*
X11803515Y-14737317D01*
X11860658Y-14603984D02*
X11993991Y-14603984D01*
X11993991Y-14603984D02*
X11908277Y-14803984D01*
X12060658Y-14623031D02*
X12070182Y-14613508D01*
X12070182Y-14613508D02*
X12089229Y-14603984D01*
X12089229Y-14603984D02*
X12136848Y-14603984D01*
X12136848Y-14603984D02*
X12155896Y-14613508D01*
X12155896Y-14613508D02*
X12165420Y-14623031D01*
X12165420Y-14623031D02*
X12174944Y-14642079D01*
X12174944Y-14642079D02*
X12174944Y-14661127D01*
X12174944Y-14661127D02*
X12165420Y-14689698D01*
X12165420Y-14689698D02*
X12051134Y-14803984D01*
X12051134Y-14803984D02*
X12174944Y-14803984D01*
X12251134Y-14603984D02*
X12251134Y-14642079D01*
X12327325Y-14603984D02*
X12327325Y-14642079D01*
X12622563Y-14880174D02*
X12613039Y-14870650D01*
X12613039Y-14870650D02*
X12593991Y-14842079D01*
X12593991Y-14842079D02*
X12584468Y-14823031D01*
X12584468Y-14823031D02*
X12574944Y-14794460D01*
X12574944Y-14794460D02*
X12565420Y-14746841D01*
X12565420Y-14746841D02*
X12565420Y-14708746D01*
X12565420Y-14708746D02*
X12574944Y-14661127D01*
X12574944Y-14661127D02*
X12584468Y-14632555D01*
X12584468Y-14632555D02*
X12593991Y-14613508D01*
X12593991Y-14613508D02*
X12613039Y-14584936D01*
X12613039Y-14584936D02*
X12622563Y-14575412D01*
X12727325Y-14689698D02*
X12708277Y-14680174D01*
X12708277Y-14680174D02*
X12698753Y-14670650D01*
X12698753Y-14670650D02*
X12689229Y-14651603D01*
X12689229Y-14651603D02*
X12689229Y-14642079D01*
X12689229Y-14642079D02*
X12698753Y-14623031D01*
X12698753Y-14623031D02*
X12708277Y-14613508D01*
X12708277Y-14613508D02*
X12727325Y-14603984D01*
X12727325Y-14603984D02*
X12765420Y-14603984D01*
X12765420Y-14603984D02*
X12784468Y-14613508D01*
X12784468Y-14613508D02*
X12793991Y-14623031D01*
X12793991Y-14623031D02*
X12803515Y-14642079D01*
X12803515Y-14642079D02*
X12803515Y-14651603D01*
X12803515Y-14651603D02*
X12793991Y-14670650D01*
X12793991Y-14670650D02*
X12784468Y-14680174D01*
X12784468Y-14680174D02*
X12765420Y-14689698D01*
X12765420Y-14689698D02*
X12727325Y-14689698D01*
X12727325Y-14689698D02*
X12708277Y-14699222D01*
X12708277Y-14699222D02*
X12698753Y-14708746D01*
X12698753Y-14708746D02*
X12689229Y-14727793D01*
X12689229Y-14727793D02*
X12689229Y-14765888D01*
X12689229Y-14765888D02*
X12698753Y-14784936D01*
X12698753Y-14784936D02*
X12708277Y-14794460D01*
X12708277Y-14794460D02*
X12727325Y-14803984D01*
X12727325Y-14803984D02*
X12765420Y-14803984D01*
X12765420Y-14803984D02*
X12784468Y-14794460D01*
X12784468Y-14794460D02*
X12793991Y-14784936D01*
X12793991Y-14784936D02*
X12803515Y-14765888D01*
X12803515Y-14765888D02*
X12803515Y-14727793D01*
X12803515Y-14727793D02*
X12793991Y-14708746D01*
X12793991Y-14708746D02*
X12784468Y-14699222D01*
X12784468Y-14699222D02*
X12765420Y-14689698D01*
X13041610Y-14803984D02*
X13041610Y-14603984D01*
X13127325Y-14803984D02*
X13127325Y-14699222D01*
X13127325Y-14699222D02*
X13117801Y-14680174D01*
X13117801Y-14680174D02*
X13098753Y-14670650D01*
X13098753Y-14670650D02*
X13070182Y-14670650D01*
X13070182Y-14670650D02*
X13051134Y-14680174D01*
X13051134Y-14680174D02*
X13041610Y-14689698D01*
X13251134Y-14803984D02*
X13232087Y-14794460D01*
X13232087Y-14794460D02*
X13222563Y-14784936D01*
X13222563Y-14784936D02*
X13213039Y-14765888D01*
X13213039Y-14765888D02*
X13213039Y-14708746D01*
X13213039Y-14708746D02*
X13222563Y-14689698D01*
X13222563Y-14689698D02*
X13232087Y-14680174D01*
X13232087Y-14680174D02*
X13251134Y-14670650D01*
X13251134Y-14670650D02*
X13279706Y-14670650D01*
X13279706Y-14670650D02*
X13298753Y-14680174D01*
X13298753Y-14680174D02*
X13308277Y-14689698D01*
X13308277Y-14689698D02*
X13317801Y-14708746D01*
X13317801Y-14708746D02*
X13317801Y-14765888D01*
X13317801Y-14765888D02*
X13308277Y-14784936D01*
X13308277Y-14784936D02*
X13298753Y-14794460D01*
X13298753Y-14794460D02*
X13279706Y-14803984D01*
X13279706Y-14803984D02*
X13251134Y-14803984D01*
X13432087Y-14803984D02*
X13413039Y-14794460D01*
X13413039Y-14794460D02*
X13403515Y-14775412D01*
X13403515Y-14775412D02*
X13403515Y-14603984D01*
X13584468Y-14794460D02*
X13565420Y-14803984D01*
X13565420Y-14803984D02*
X13527325Y-14803984D01*
X13527325Y-14803984D02*
X13508277Y-14794460D01*
X13508277Y-14794460D02*
X13498753Y-14775412D01*
X13498753Y-14775412D02*
X13498753Y-14699222D01*
X13498753Y-14699222D02*
X13508277Y-14680174D01*
X13508277Y-14680174D02*
X13527325Y-14670650D01*
X13527325Y-14670650D02*
X13565420Y-14670650D01*
X13565420Y-14670650D02*
X13584468Y-14680174D01*
X13584468Y-14680174D02*
X13593991Y-14699222D01*
X13593991Y-14699222D02*
X13593991Y-14718269D01*
X13593991Y-14718269D02*
X13498753Y-14737317D01*
X13670182Y-14794460D02*
X13689230Y-14803984D01*
X13689230Y-14803984D02*
X13727325Y-14803984D01*
X13727325Y-14803984D02*
X13746372Y-14794460D01*
X13746372Y-14794460D02*
X13755896Y-14775412D01*
X13755896Y-14775412D02*
X13755896Y-14765888D01*
X13755896Y-14765888D02*
X13746372Y-14746841D01*
X13746372Y-14746841D02*
X13727325Y-14737317D01*
X13727325Y-14737317D02*
X13698753Y-14737317D01*
X13698753Y-14737317D02*
X13679706Y-14727793D01*
X13679706Y-14727793D02*
X13670182Y-14708746D01*
X13670182Y-14708746D02*
X13670182Y-14699222D01*
X13670182Y-14699222D02*
X13679706Y-14680174D01*
X13679706Y-14680174D02*
X13698753Y-14670650D01*
X13698753Y-14670650D02*
X13727325Y-14670650D01*
X13727325Y-14670650D02*
X13746372Y-14680174D01*
X13822563Y-14880174D02*
X13832087Y-14870650D01*
X13832087Y-14870650D02*
X13851134Y-14842079D01*
X13851134Y-14842079D02*
X13860658Y-14823031D01*
X13860658Y-14823031D02*
X13870182Y-14794460D01*
X13870182Y-14794460D02*
X13879706Y-14746841D01*
X13879706Y-14746841D02*
X13879706Y-14708746D01*
X13879706Y-14708746D02*
X13870182Y-14661127D01*
X13870182Y-14661127D02*
X13860658Y-14632555D01*
X13860658Y-14632555D02*
X13851134Y-14613508D01*
X13851134Y-14613508D02*
X13832087Y-14584936D01*
X13832087Y-14584936D02*
X13822563Y-14575412D01*
M02*
