G04 #@! TF.GenerationSoftware,KiCad,Pcbnew,9.0.2*
G04 #@! TF.CreationDate,2025-09-04T17:03:48-05:00*
G04 #@! TF.ProjectId,Quake_PCB_3,5175616b-655f-4504-9342-5f332e6b6963,rev?*
G04 #@! TF.SameCoordinates,Original*
G04 #@! TF.FileFunction,Copper,L2,Bot*
G04 #@! TF.FilePolarity,Positive*
%FSLAX46Y46*%
G04 Gerber Fmt 4.6, Leading zero omitted, Abs format (unit mm)*
G04 Created by KiCad (PCBNEW 9.0.2) date 2025-09-04 17:03:48*
%MOMM*%
%LPD*%
G01*
G04 APERTURE LIST*
G04 #@! TA.AperFunction,ComponentPad*
%ADD10R,1.700000X1.700000*%
G04 #@! TD*
G04 #@! TA.AperFunction,ComponentPad*
%ADD11O,1.700000X1.700000*%
G04 #@! TD*
G04 #@! TA.AperFunction,ComponentPad*
%ADD12C,1.400000*%
G04 #@! TD*
G04 #@! TA.AperFunction,ComponentPad*
%ADD13O,1.400000X1.400000*%
G04 #@! TD*
G04 #@! TA.AperFunction,ComponentPad*
%ADD14R,1.800000X1.800000*%
G04 #@! TD*
G04 #@! TA.AperFunction,ComponentPad*
%ADD15C,1.800000*%
G04 #@! TD*
G04 #@! TA.AperFunction,ComponentPad*
%ADD16O,2.900000X1.700000*%
G04 #@! TD*
G04 #@! TA.AperFunction,ComponentPad*
%ADD17C,1.700000*%
G04 #@! TD*
G04 #@! TA.AperFunction,ViaPad*
%ADD18C,0.600000*%
G04 #@! TD*
G04 #@! TA.AperFunction,ViaPad*
%ADD19C,0.800000*%
G04 #@! TD*
G04 #@! TA.AperFunction,Conductor*
%ADD20C,0.200000*%
G04 #@! TD*
G04 APERTURE END LIST*
D10*
X183680000Y-74900000D03*
D11*
X181140000Y-74900000D03*
X178600000Y-74900000D03*
X176060000Y-74900000D03*
X173520000Y-74900000D03*
X170980000Y-74900000D03*
X168440000Y-74900000D03*
X165900000Y-74900000D03*
X163360000Y-74900000D03*
D10*
X114520000Y-97500000D03*
D11*
X117060000Y-97500000D03*
X119600000Y-97500000D03*
X122140000Y-97500000D03*
X124680000Y-97500000D03*
X127220000Y-97500000D03*
X129760000Y-97500000D03*
X132300000Y-97500000D03*
X134840000Y-97500000D03*
X137380000Y-97500000D03*
X139920000Y-97500000D03*
X142460000Y-97500000D03*
X145000000Y-97500000D03*
X147540000Y-97500000D03*
X150080000Y-97500000D03*
X152620000Y-97500000D03*
D12*
X150000000Y-79500000D03*
D13*
X142380000Y-79500000D03*
D14*
X135225000Y-79500000D03*
D15*
X137765000Y-79500000D03*
D10*
X114520000Y-117800000D03*
D11*
X117060000Y-117800000D03*
X119600000Y-117800000D03*
X122140000Y-117800000D03*
X124680000Y-117800000D03*
X127220000Y-117800000D03*
X129760000Y-117800000D03*
X132300000Y-117800000D03*
X134840000Y-117800000D03*
X137380000Y-117800000D03*
X139920000Y-117800000D03*
X142460000Y-117800000D03*
D10*
X147800000Y-70960000D03*
D11*
X147800000Y-68420000D03*
X150340000Y-70960000D03*
X150340000Y-68420000D03*
X152880000Y-70960000D03*
X152880000Y-68420000D03*
D10*
X128790000Y-85030000D03*
D11*
X128790000Y-82490000D03*
D16*
X109280000Y-68530000D03*
X121780000Y-68530000D03*
X109280000Y-73530000D03*
X121780000Y-73530000D03*
D10*
X166960000Y-87500000D03*
D17*
X169500000Y-87500000D03*
X172040000Y-87500000D03*
X174580000Y-87500000D03*
X177120000Y-87500000D03*
D14*
X135225000Y-87530000D03*
D15*
X137765000Y-87530000D03*
D12*
X128780000Y-74340000D03*
X128780000Y-66720000D03*
D16*
X109280000Y-84030000D03*
X121780000Y-84030000D03*
X109280000Y-89030000D03*
X121780000Y-89030000D03*
D12*
X149810000Y-87500000D03*
D13*
X142190000Y-87500000D03*
D10*
X135200000Y-71000000D03*
D11*
X135200000Y-68460000D03*
X137740000Y-71000000D03*
X137740000Y-68460000D03*
X140280000Y-71000000D03*
X140280000Y-68460000D03*
D18*
X133722100Y-69367100D03*
X147800000Y-73662800D03*
X171563500Y-77645800D03*
D19*
X129500000Y-121500000D03*
D18*
X138901200Y-66721200D03*
X151560400Y-78350500D03*
D20*
X134203300Y-69848300D02*
X135200000Y-69848300D01*
X147800000Y-70960000D02*
X147800000Y-73662800D01*
X135200000Y-71000000D02*
X135200000Y-69848300D01*
X133722100Y-69367100D02*
X134203300Y-69848300D01*
X170980000Y-74900000D02*
X170980000Y-77062300D01*
X170980000Y-77062300D02*
X171563500Y-77645800D01*
X129500000Y-121500000D02*
X129500000Y-120080000D01*
X129500000Y-120080000D02*
X127220000Y-117800000D01*
X137740000Y-68460000D02*
X137740000Y-67308300D01*
X151560400Y-70504200D02*
X151560400Y-78350500D01*
X150340000Y-69571700D02*
X150627900Y-69571700D01*
X150627900Y-69571700D02*
X151560400Y-70504200D01*
X138901200Y-66721200D02*
X138314100Y-67308300D01*
X138314100Y-67308300D02*
X137740000Y-67308300D01*
X150340000Y-68420000D02*
X150340000Y-69571700D01*
G04 #@! TA.AperFunction,Conductor*
G36*
X188004418Y-61000816D02*
G01*
X188204561Y-61015130D01*
X188222063Y-61017647D01*
X188413797Y-61059355D01*
X188430755Y-61064334D01*
X188586212Y-61122317D01*
X188614606Y-61132908D01*
X188630691Y-61140253D01*
X188636102Y-61143207D01*
X188664362Y-61164362D01*
X189335637Y-61835637D01*
X189354417Y-61860723D01*
X189356783Y-61863883D01*
X189359736Y-61869290D01*
X189367091Y-61885391D01*
X189435662Y-62069236D01*
X189440646Y-62086212D01*
X189482351Y-62277931D01*
X189484869Y-62295442D01*
X189499184Y-62495580D01*
X189499500Y-62504427D01*
X189499500Y-75651254D01*
X189507046Y-75713401D01*
X189535963Y-75951551D01*
X189560352Y-76050500D01*
X189608358Y-76245272D01*
X189715628Y-76528117D01*
X189856206Y-76795964D01*
X189856212Y-76795973D01*
X190028047Y-77044921D01*
X190028052Y-77044927D01*
X190228646Y-77271351D01*
X190228648Y-77271353D01*
X190455072Y-77471947D01*
X190455078Y-77471952D01*
X190704026Y-77643787D01*
X190704035Y-77643793D01*
X190971882Y-77784371D01*
X191254727Y-77891641D01*
X191254731Y-77891642D01*
X191254734Y-77891643D01*
X191548449Y-77964037D01*
X191784658Y-77992718D01*
X191848746Y-78000500D01*
X191848748Y-78000500D01*
X191934108Y-78000500D01*
X197434108Y-78000500D01*
X197495572Y-78000500D01*
X197504417Y-78000816D01*
X197511363Y-78001312D01*
X197589037Y-78006868D01*
X197654498Y-78031283D01*
X197667870Y-78042870D01*
X198957128Y-79332128D01*
X198990613Y-79393451D01*
X198993131Y-79410962D01*
X198999184Y-79495582D01*
X198999500Y-79504429D01*
X198999500Y-95495933D01*
X198999235Y-95504043D01*
X198982925Y-95752883D01*
X198980807Y-95768964D01*
X198932955Y-96009535D01*
X198928757Y-96025205D01*
X198914390Y-96067526D01*
X198884652Y-96115346D01*
X197615346Y-97384652D01*
X197604637Y-97391311D01*
X197598992Y-97398403D01*
X197567526Y-97414390D01*
X197546666Y-97421471D01*
X197525198Y-97428758D01*
X197509535Y-97432955D01*
X197268964Y-97480807D01*
X197252883Y-97482925D01*
X197004043Y-97499235D01*
X196995933Y-97499500D01*
X162848746Y-97499500D01*
X162698598Y-97517731D01*
X162548449Y-97535963D01*
X162429602Y-97565255D01*
X162254727Y-97608358D01*
X161971882Y-97715628D01*
X161704035Y-97856206D01*
X161704026Y-97856212D01*
X161455078Y-98028047D01*
X161455072Y-98028052D01*
X161228648Y-98228646D01*
X161228646Y-98228648D01*
X161028052Y-98455072D01*
X161028047Y-98455078D01*
X160856212Y-98704026D01*
X160856206Y-98704035D01*
X160715628Y-98971882D01*
X160608358Y-99254727D01*
X160578200Y-99377085D01*
X160535963Y-99548449D01*
X160521377Y-99668568D01*
X160499500Y-99848745D01*
X160499500Y-125449137D01*
X160479815Y-125516176D01*
X160463181Y-125536818D01*
X159036818Y-126963181D01*
X158975495Y-126996666D01*
X158949137Y-126999500D01*
X101504428Y-126999500D01*
X101495582Y-126999184D01*
X101473622Y-126997613D01*
X101295442Y-126984869D01*
X101277931Y-126982351D01*
X101086212Y-126940646D01*
X101069236Y-126935662D01*
X100885391Y-126867091D01*
X100869290Y-126859736D01*
X100863883Y-126856783D01*
X100835637Y-126835637D01*
X100164362Y-126164362D01*
X100164359Y-126164358D01*
X100164357Y-126164357D01*
X100164352Y-126164352D01*
X100143207Y-126136102D01*
X100140253Y-126130691D01*
X100132908Y-126114606D01*
X100072091Y-125951551D01*
X100064334Y-125930755D01*
X100059355Y-125913797D01*
X100017647Y-125722063D01*
X100015130Y-125704556D01*
X100000816Y-125504418D01*
X100000500Y-125495572D01*
X100000500Y-122715819D01*
X100561253Y-122715819D01*
X100561253Y-123041772D01*
X100593201Y-123366157D01*
X100593204Y-123366174D01*
X100656789Y-123685844D01*
X100656792Y-123685855D01*
X100751416Y-123997791D01*
X100876157Y-124298941D01*
X100876159Y-124298946D01*
X101029806Y-124586399D01*
X101029817Y-124586417D01*
X101210910Y-124857442D01*
X101417698Y-125109414D01*
X101648177Y-125339893D01*
X101900149Y-125546681D01*
X101900155Y-125546685D01*
X102171181Y-125727779D01*
X102171190Y-125727784D01*
X102171192Y-125727785D01*
X102458645Y-125881432D01*
X102458647Y-125881432D01*
X102458653Y-125881436D01*
X102759802Y-126006176D01*
X103071727Y-126100797D01*
X103071733Y-126100798D01*
X103071736Y-126100799D01*
X103071747Y-126100802D01*
X103249206Y-126136100D01*
X103391424Y-126164389D01*
X103715816Y-126196339D01*
X103715819Y-126196339D01*
X104041773Y-126196339D01*
X104041776Y-126196339D01*
X104366168Y-126164389D01*
X104524410Y-126132912D01*
X104685844Y-126100802D01*
X104685855Y-126100799D01*
X104685855Y-126100798D01*
X104685865Y-126100797D01*
X104997790Y-126006176D01*
X105298939Y-125881436D01*
X105586411Y-125727779D01*
X105857437Y-125546685D01*
X106109409Y-125339898D01*
X106339898Y-125109409D01*
X106546685Y-124857437D01*
X106727779Y-124586411D01*
X106881436Y-124298939D01*
X107006176Y-123997790D01*
X107100797Y-123685865D01*
X107100799Y-123685855D01*
X107100802Y-123685844D01*
X107132912Y-123524410D01*
X107164389Y-123366168D01*
X107196339Y-123041776D01*
X107196339Y-122715816D01*
X107164389Y-122391424D01*
X107126412Y-122200500D01*
X107100802Y-122071747D01*
X107100799Y-122071736D01*
X107100798Y-122071733D01*
X107100797Y-122071727D01*
X107006176Y-121759802D01*
X106881436Y-121458653D01*
X106866657Y-121431004D01*
X106727785Y-121171192D01*
X106727784Y-121171190D01*
X106727779Y-121171181D01*
X106546685Y-120900155D01*
X106546681Y-120900149D01*
X106339893Y-120648177D01*
X106109414Y-120417698D01*
X105857442Y-120210910D01*
X105586417Y-120029817D01*
X105586416Y-120029816D01*
X105586411Y-120029813D01*
X105586406Y-120029810D01*
X105586399Y-120029806D01*
X105298946Y-119876159D01*
X105298941Y-119876157D01*
X104997791Y-119751416D01*
X104685855Y-119656792D01*
X104685844Y-119656789D01*
X104366174Y-119593204D01*
X104366157Y-119593201D01*
X104120851Y-119569041D01*
X104041776Y-119561253D01*
X103715816Y-119561253D01*
X103642683Y-119568455D01*
X103391434Y-119593201D01*
X103391417Y-119593204D01*
X103071747Y-119656789D01*
X103071736Y-119656792D01*
X102759800Y-119751416D01*
X102458650Y-119876157D01*
X102458645Y-119876159D01*
X102171192Y-120029806D01*
X102171174Y-120029817D01*
X101900149Y-120210910D01*
X101648177Y-120417698D01*
X101417698Y-120648177D01*
X101210910Y-120900149D01*
X101029817Y-121171174D01*
X101029806Y-121171192D01*
X100876159Y-121458645D01*
X100876157Y-121458650D01*
X100751416Y-121759800D01*
X100656792Y-122071736D01*
X100656789Y-122071747D01*
X100593204Y-122391417D01*
X100593201Y-122391434D01*
X100561253Y-122715819D01*
X100000500Y-122715819D01*
X100000500Y-116905131D01*
X113369500Y-116905131D01*
X113369500Y-118694856D01*
X113369502Y-118694882D01*
X113372413Y-118719987D01*
X113372415Y-118719991D01*
X113417793Y-118822764D01*
X113417794Y-118822765D01*
X113497235Y-118902206D01*
X113600009Y-118947585D01*
X113625135Y-118950500D01*
X115414864Y-118950499D01*
X115414879Y-118950497D01*
X115414882Y-118950497D01*
X115439987Y-118947586D01*
X115439988Y-118947585D01*
X115439991Y-118947585D01*
X115542765Y-118902206D01*
X115622206Y-118822765D01*
X115667585Y-118719991D01*
X115670500Y-118694865D01*
X115670499Y-117957125D01*
X115690183Y-117890089D01*
X115742987Y-117844334D01*
X115812146Y-117834390D01*
X115875702Y-117863415D01*
X115913476Y-117922193D01*
X115916972Y-117937729D01*
X115937829Y-118069410D01*
X115993787Y-118241636D01*
X115993788Y-118241639D01*
X116076006Y-118402997D01*
X116182441Y-118549494D01*
X116182445Y-118549499D01*
X116310500Y-118677554D01*
X116310505Y-118677558D01*
X116438287Y-118770396D01*
X116457006Y-118783996D01*
X116533094Y-118822765D01*
X116618360Y-118866211D01*
X116618363Y-118866212D01*
X116704476Y-118894191D01*
X116790591Y-118922171D01*
X116873429Y-118935291D01*
X116969449Y-118950500D01*
X116969454Y-118950500D01*
X117150551Y-118950500D01*
X117237259Y-118936765D01*
X117329409Y-118922171D01*
X117501639Y-118866211D01*
X117662994Y-118783996D01*
X117809501Y-118677553D01*
X117937553Y-118549501D01*
X118043996Y-118402994D01*
X118126211Y-118241639D01*
X118182171Y-118069409D01*
X118196422Y-117979425D01*
X118207527Y-117909321D01*
X118237456Y-117846186D01*
X118296768Y-117809255D01*
X118366630Y-117810253D01*
X118424863Y-117848863D01*
X118452473Y-117909321D01*
X118477829Y-118069410D01*
X118533787Y-118241636D01*
X118533788Y-118241639D01*
X118616006Y-118402997D01*
X118722441Y-118549494D01*
X118722445Y-118549499D01*
X118850500Y-118677554D01*
X118850505Y-118677558D01*
X118978287Y-118770396D01*
X118997006Y-118783996D01*
X119073094Y-118822765D01*
X119158360Y-118866211D01*
X119158363Y-118866212D01*
X119244476Y-118894191D01*
X119330591Y-118922171D01*
X119413429Y-118935291D01*
X119509449Y-118950500D01*
X119509454Y-118950500D01*
X119690551Y-118950500D01*
X119777259Y-118936765D01*
X119869409Y-118922171D01*
X120041639Y-118866211D01*
X120202994Y-118783996D01*
X120349501Y-118677553D01*
X120477553Y-118549501D01*
X120583996Y-118402994D01*
X120666211Y-118241639D01*
X120722171Y-118069409D01*
X120736422Y-117979425D01*
X120747527Y-117909321D01*
X120777456Y-117846186D01*
X120836768Y-117809255D01*
X120906630Y-117810253D01*
X120964863Y-117848863D01*
X120992473Y-117909321D01*
X121017829Y-118069410D01*
X121073787Y-118241636D01*
X121073788Y-118241639D01*
X121156006Y-118402997D01*
X121262441Y-118549494D01*
X121262445Y-118549499D01*
X121390500Y-118677554D01*
X121390505Y-118677558D01*
X121518287Y-118770396D01*
X121537006Y-118783996D01*
X121613094Y-118822765D01*
X121698360Y-118866211D01*
X121698363Y-118866212D01*
X121784476Y-118894191D01*
X121870591Y-118922171D01*
X121953429Y-118935291D01*
X122049449Y-118950500D01*
X122049454Y-118950500D01*
X122230551Y-118950500D01*
X122317259Y-118936765D01*
X122409409Y-118922171D01*
X122581639Y-118866211D01*
X122742994Y-118783996D01*
X122889501Y-118677553D01*
X123017553Y-118549501D01*
X123123996Y-118402994D01*
X123206211Y-118241639D01*
X123262171Y-118069409D01*
X123276422Y-117979425D01*
X123287527Y-117909321D01*
X123317456Y-117846186D01*
X123376768Y-117809255D01*
X123446630Y-117810253D01*
X123504863Y-117848863D01*
X123532473Y-117909321D01*
X123557829Y-118069410D01*
X123613787Y-118241636D01*
X123613788Y-118241639D01*
X123696006Y-118402997D01*
X123802441Y-118549494D01*
X123802445Y-118549499D01*
X123930500Y-118677554D01*
X123930505Y-118677558D01*
X124058287Y-118770396D01*
X124077006Y-118783996D01*
X124153094Y-118822765D01*
X124238360Y-118866211D01*
X124238363Y-118866212D01*
X124324476Y-118894191D01*
X124410591Y-118922171D01*
X124493429Y-118935291D01*
X124589449Y-118950500D01*
X124589454Y-118950500D01*
X124770551Y-118950500D01*
X124857259Y-118936765D01*
X124949409Y-118922171D01*
X125121639Y-118866211D01*
X125282994Y-118783996D01*
X125429501Y-118677553D01*
X125557553Y-118549501D01*
X125663996Y-118402994D01*
X125746211Y-118241639D01*
X125802171Y-118069409D01*
X125816422Y-117979425D01*
X125827527Y-117909321D01*
X125857456Y-117846186D01*
X125916768Y-117809255D01*
X125986630Y-117810253D01*
X126044863Y-117848863D01*
X126072473Y-117909321D01*
X126097829Y-118069410D01*
X126153787Y-118241636D01*
X126153788Y-118241639D01*
X126236006Y-118402997D01*
X126342441Y-118549494D01*
X126342445Y-118549499D01*
X126470500Y-118677554D01*
X126470505Y-118677558D01*
X126598287Y-118770396D01*
X126617006Y-118783996D01*
X126693094Y-118822765D01*
X126778360Y-118866211D01*
X126778363Y-118866212D01*
X126864476Y-118894191D01*
X126950591Y-118922171D01*
X127033429Y-118935291D01*
X127129449Y-118950500D01*
X127129454Y-118950500D01*
X127310551Y-118950500D01*
X127489409Y-118922171D01*
X127540182Y-118905674D01*
X127633284Y-118875423D01*
X127703123Y-118873429D01*
X127759281Y-118905674D01*
X129063181Y-120209574D01*
X129096666Y-120270897D01*
X129099500Y-120297255D01*
X129099500Y-120859452D01*
X129079815Y-120926491D01*
X129057616Y-120951429D01*
X129057765Y-120951578D01*
X129055204Y-120954138D01*
X129054167Y-120955304D01*
X129053453Y-120955889D01*
X128955888Y-121053454D01*
X128955885Y-121053458D01*
X128879228Y-121168182D01*
X128879221Y-121168195D01*
X128826421Y-121295667D01*
X128826418Y-121295677D01*
X128799500Y-121431004D01*
X128799500Y-121431007D01*
X128799500Y-121568993D01*
X128799500Y-121568995D01*
X128799499Y-121568995D01*
X128826418Y-121704322D01*
X128826421Y-121704332D01*
X128879221Y-121831804D01*
X128879228Y-121831817D01*
X128955885Y-121946541D01*
X128955888Y-121946545D01*
X129053454Y-122044111D01*
X129053458Y-122044114D01*
X129168182Y-122120771D01*
X129168195Y-122120778D01*
X129295667Y-122173578D01*
X129295672Y-122173580D01*
X129295676Y-122173580D01*
X129295677Y-122173581D01*
X129431004Y-122200500D01*
X129431007Y-122200500D01*
X129568995Y-122200500D01*
X129660041Y-122182389D01*
X129704328Y-122173580D01*
X129831811Y-122120775D01*
X129946542Y-122044114D01*
X130044114Y-121946542D01*
X130120775Y-121831811D01*
X130173580Y-121704328D01*
X130200500Y-121568993D01*
X130200500Y-121431007D01*
X130200500Y-121431004D01*
X130173581Y-121295677D01*
X130173580Y-121295676D01*
X130173580Y-121295672D01*
X130122019Y-121171192D01*
X130120778Y-121168195D01*
X130120771Y-121168182D01*
X130044114Y-121053458D01*
X130044111Y-121053454D01*
X129946546Y-120955889D01*
X129945833Y-120955304D01*
X129945559Y-120954902D01*
X129942235Y-120951578D01*
X129942865Y-120950947D01*
X129906500Y-120897557D01*
X129900500Y-120859452D01*
X129900500Y-120027275D01*
X129900500Y-120027273D01*
X129873207Y-119925413D01*
X129873207Y-119925412D01*
X129820480Y-119834087D01*
X128325674Y-118339281D01*
X128292189Y-118277958D01*
X128295423Y-118213284D01*
X128342171Y-118069409D01*
X128367527Y-117909321D01*
X128397456Y-117846186D01*
X128456768Y-117809255D01*
X128526630Y-117810253D01*
X128584863Y-117848863D01*
X128612473Y-117909321D01*
X128637829Y-118069410D01*
X128693787Y-118241636D01*
X128693788Y-118241639D01*
X128776006Y-118402997D01*
X128871361Y-118534244D01*
X128871365Y-118534248D01*
X128882447Y-118549501D01*
X129010499Y-118677553D01*
X129025751Y-118688634D01*
X129025755Y-118688638D01*
X129144926Y-118775219D01*
X129157006Y-118783996D01*
X129233094Y-118822765D01*
X129318360Y-118866211D01*
X129318363Y-118866212D01*
X129404476Y-118894191D01*
X129490591Y-118922171D01*
X129573429Y-118935291D01*
X129669449Y-118950500D01*
X129669454Y-118950500D01*
X129850551Y-118950500D01*
X129937259Y-118936765D01*
X130029409Y-118922171D01*
X130201639Y-118866211D01*
X130362994Y-118783996D01*
X130509501Y-118677553D01*
X130637553Y-118549501D01*
X130743996Y-118402994D01*
X130826211Y-118241639D01*
X130882171Y-118069409D01*
X130896422Y-117979425D01*
X130907527Y-117909321D01*
X130937456Y-117846186D01*
X130996768Y-117809255D01*
X131066630Y-117810253D01*
X131124863Y-117848863D01*
X131152473Y-117909321D01*
X131177829Y-118069410D01*
X131233787Y-118241636D01*
X131233788Y-118241639D01*
X131316006Y-118402997D01*
X131422441Y-118549494D01*
X131422445Y-118549499D01*
X131550500Y-118677554D01*
X131550505Y-118677558D01*
X131678287Y-118770396D01*
X131697006Y-118783996D01*
X131773094Y-118822765D01*
X131858360Y-118866211D01*
X131858363Y-118866212D01*
X131944476Y-118894191D01*
X132030591Y-118922171D01*
X132113429Y-118935291D01*
X132209449Y-118950500D01*
X132209454Y-118950500D01*
X132390551Y-118950500D01*
X132477259Y-118936765D01*
X132569409Y-118922171D01*
X132741639Y-118866211D01*
X132902994Y-118783996D01*
X133049501Y-118677553D01*
X133177553Y-118549501D01*
X133283996Y-118402994D01*
X133366211Y-118241639D01*
X133422171Y-118069409D01*
X133436422Y-117979425D01*
X133447527Y-117909321D01*
X133477456Y-117846186D01*
X133536768Y-117809255D01*
X133606630Y-117810253D01*
X133664863Y-117848863D01*
X133692473Y-117909321D01*
X133717829Y-118069410D01*
X133773787Y-118241636D01*
X133773788Y-118241639D01*
X133856006Y-118402997D01*
X133962441Y-118549494D01*
X133962445Y-118549499D01*
X134090500Y-118677554D01*
X134090505Y-118677558D01*
X134218287Y-118770396D01*
X134237006Y-118783996D01*
X134313094Y-118822765D01*
X134398360Y-118866211D01*
X134398363Y-118866212D01*
X134484476Y-118894191D01*
X134570591Y-118922171D01*
X134653429Y-118935291D01*
X134749449Y-118950500D01*
X134749454Y-118950500D01*
X134930551Y-118950500D01*
X135017259Y-118936765D01*
X135109409Y-118922171D01*
X135281639Y-118866211D01*
X135442994Y-118783996D01*
X135589501Y-118677553D01*
X135717553Y-118549501D01*
X135823996Y-118402994D01*
X135906211Y-118241639D01*
X135962171Y-118069409D01*
X135976422Y-117979425D01*
X135987527Y-117909321D01*
X136017456Y-117846186D01*
X136076768Y-117809255D01*
X136146630Y-117810253D01*
X136204863Y-117848863D01*
X136232473Y-117909321D01*
X136257829Y-118069410D01*
X136313787Y-118241636D01*
X136313788Y-118241639D01*
X136396006Y-118402997D01*
X136502441Y-118549494D01*
X136502445Y-118549499D01*
X136630500Y-118677554D01*
X136630505Y-118677558D01*
X136758287Y-118770396D01*
X136777006Y-118783996D01*
X136853094Y-118822765D01*
X136938360Y-118866211D01*
X136938363Y-118866212D01*
X137024476Y-118894191D01*
X137110591Y-118922171D01*
X137193429Y-118935291D01*
X137289449Y-118950500D01*
X137289454Y-118950500D01*
X137470551Y-118950500D01*
X137557259Y-118936765D01*
X137649409Y-118922171D01*
X137821639Y-118866211D01*
X137982994Y-118783996D01*
X138129501Y-118677553D01*
X138257553Y-118549501D01*
X138363996Y-118402994D01*
X138446211Y-118241639D01*
X138502171Y-118069409D01*
X138516422Y-117979425D01*
X138527527Y-117909321D01*
X138557456Y-117846186D01*
X138616768Y-117809255D01*
X138686630Y-117810253D01*
X138744863Y-117848863D01*
X138772473Y-117909321D01*
X138797829Y-118069410D01*
X138853787Y-118241636D01*
X138853788Y-118241639D01*
X138936006Y-118402997D01*
X139042441Y-118549494D01*
X139042445Y-118549499D01*
X139170500Y-118677554D01*
X139170505Y-118677558D01*
X139298287Y-118770396D01*
X139317006Y-118783996D01*
X139393094Y-118822765D01*
X139478360Y-118866211D01*
X139478363Y-118866212D01*
X139564476Y-118894191D01*
X139650591Y-118922171D01*
X139733429Y-118935291D01*
X139829449Y-118950500D01*
X139829454Y-118950500D01*
X140010551Y-118950500D01*
X140097259Y-118936765D01*
X140189409Y-118922171D01*
X140361639Y-118866211D01*
X140522994Y-118783996D01*
X140669501Y-118677553D01*
X140797553Y-118549501D01*
X140903996Y-118402994D01*
X140986211Y-118241639D01*
X141042171Y-118069409D01*
X141056422Y-117979425D01*
X141067527Y-117909321D01*
X141097456Y-117846186D01*
X141156768Y-117809255D01*
X141226630Y-117810253D01*
X141284863Y-117848863D01*
X141312473Y-117909321D01*
X141337829Y-118069410D01*
X141393787Y-118241636D01*
X141393788Y-118241639D01*
X141476006Y-118402997D01*
X141582441Y-118549494D01*
X141582445Y-118549499D01*
X141710500Y-118677554D01*
X141710505Y-118677558D01*
X141838287Y-118770396D01*
X141857006Y-118783996D01*
X141933094Y-118822765D01*
X142018360Y-118866211D01*
X142018363Y-118866212D01*
X142104476Y-118894191D01*
X142190591Y-118922171D01*
X142273429Y-118935291D01*
X142369449Y-118950500D01*
X142369454Y-118950500D01*
X142550551Y-118950500D01*
X142637259Y-118936765D01*
X142729409Y-118922171D01*
X142901639Y-118866211D01*
X143062994Y-118783996D01*
X143209501Y-118677553D01*
X143337553Y-118549501D01*
X143443996Y-118402994D01*
X143526211Y-118241639D01*
X143582171Y-118069409D01*
X143596765Y-117977259D01*
X143610500Y-117890551D01*
X143610500Y-117709448D01*
X143594019Y-117605397D01*
X143582171Y-117530591D01*
X143526211Y-117358361D01*
X143526211Y-117358360D01*
X143497740Y-117302484D01*
X143443996Y-117197006D01*
X143430396Y-117178287D01*
X143337558Y-117050505D01*
X143337554Y-117050500D01*
X143209499Y-116922445D01*
X143209494Y-116922441D01*
X143062997Y-116816006D01*
X143062996Y-116816005D01*
X143062994Y-116816004D01*
X142986906Y-116777235D01*
X142901639Y-116733788D01*
X142901636Y-116733787D01*
X142729410Y-116677829D01*
X142550551Y-116649500D01*
X142550546Y-116649500D01*
X142369454Y-116649500D01*
X142369449Y-116649500D01*
X142190589Y-116677829D01*
X142018363Y-116733787D01*
X142018360Y-116733788D01*
X141857002Y-116816006D01*
X141710505Y-116922441D01*
X141710500Y-116922445D01*
X141582445Y-117050500D01*
X141582441Y-117050505D01*
X141476006Y-117197002D01*
X141393788Y-117358360D01*
X141393787Y-117358363D01*
X141337829Y-117530589D01*
X141312473Y-117690678D01*
X141282544Y-117753813D01*
X141223232Y-117790744D01*
X141153369Y-117789746D01*
X141095137Y-117751136D01*
X141067527Y-117690678D01*
X141053740Y-117603639D01*
X141042171Y-117530591D01*
X140986211Y-117358361D01*
X140986211Y-117358360D01*
X140957740Y-117302484D01*
X140903996Y-117197006D01*
X140890396Y-117178287D01*
X140797558Y-117050505D01*
X140797554Y-117050500D01*
X140669499Y-116922445D01*
X140669494Y-116922441D01*
X140522997Y-116816006D01*
X140522996Y-116816005D01*
X140522994Y-116816004D01*
X140446906Y-116777235D01*
X140361639Y-116733788D01*
X140361636Y-116733787D01*
X140189410Y-116677829D01*
X140010551Y-116649500D01*
X140010546Y-116649500D01*
X139829454Y-116649500D01*
X139829449Y-116649500D01*
X139650589Y-116677829D01*
X139478363Y-116733787D01*
X139478360Y-116733788D01*
X139317002Y-116816006D01*
X139170505Y-116922441D01*
X139170500Y-116922445D01*
X139042445Y-117050500D01*
X139042441Y-117050505D01*
X138936006Y-117197002D01*
X138853788Y-117358360D01*
X138853787Y-117358363D01*
X138797829Y-117530589D01*
X138772473Y-117690678D01*
X138742544Y-117753813D01*
X138683232Y-117790744D01*
X138613369Y-117789746D01*
X138555137Y-117751136D01*
X138527527Y-117690678D01*
X138513740Y-117603639D01*
X138502171Y-117530591D01*
X138446211Y-117358361D01*
X138446211Y-117358360D01*
X138417740Y-117302484D01*
X138363996Y-117197006D01*
X138350396Y-117178287D01*
X138257558Y-117050505D01*
X138257554Y-117050500D01*
X138129499Y-116922445D01*
X138129494Y-116922441D01*
X137982997Y-116816006D01*
X137982996Y-116816005D01*
X137982994Y-116816004D01*
X137906906Y-116777235D01*
X137821639Y-116733788D01*
X137821636Y-116733787D01*
X137649410Y-116677829D01*
X137470551Y-116649500D01*
X137470546Y-116649500D01*
X137289454Y-116649500D01*
X137289449Y-116649500D01*
X137110589Y-116677829D01*
X136938363Y-116733787D01*
X136938360Y-116733788D01*
X136777002Y-116816006D01*
X136630505Y-116922441D01*
X136630500Y-116922445D01*
X136502445Y-117050500D01*
X136502441Y-117050505D01*
X136396006Y-117197002D01*
X136313788Y-117358360D01*
X136313787Y-117358363D01*
X136257829Y-117530589D01*
X136232473Y-117690678D01*
X136202544Y-117753813D01*
X136143232Y-117790744D01*
X136073369Y-117789746D01*
X136015137Y-117751136D01*
X135987527Y-117690678D01*
X135973740Y-117603639D01*
X135962171Y-117530591D01*
X135906211Y-117358361D01*
X135906211Y-117358360D01*
X135877740Y-117302484D01*
X135823996Y-117197006D01*
X135810396Y-117178287D01*
X135717558Y-117050505D01*
X135717554Y-117050500D01*
X135589499Y-116922445D01*
X135589494Y-116922441D01*
X135442997Y-116816006D01*
X135442996Y-116816005D01*
X135442994Y-116816004D01*
X135366906Y-116777235D01*
X135281639Y-116733788D01*
X135281636Y-116733787D01*
X135109410Y-116677829D01*
X134930551Y-116649500D01*
X134930546Y-116649500D01*
X134749454Y-116649500D01*
X134749449Y-116649500D01*
X134570589Y-116677829D01*
X134398363Y-116733787D01*
X134398360Y-116733788D01*
X134237002Y-116816006D01*
X134090505Y-116922441D01*
X134090500Y-116922445D01*
X133962445Y-117050500D01*
X133962441Y-117050505D01*
X133856006Y-117197002D01*
X133773788Y-117358360D01*
X133773787Y-117358363D01*
X133717829Y-117530589D01*
X133692473Y-117690678D01*
X133662544Y-117753813D01*
X133603232Y-117790744D01*
X133533369Y-117789746D01*
X133475137Y-117751136D01*
X133447527Y-117690678D01*
X133433740Y-117603639D01*
X133422171Y-117530591D01*
X133366211Y-117358361D01*
X133366211Y-117358360D01*
X133337740Y-117302484D01*
X133283996Y-117197006D01*
X133270396Y-117178287D01*
X133177558Y-117050505D01*
X133177554Y-117050500D01*
X133049499Y-116922445D01*
X133049494Y-116922441D01*
X132902997Y-116816006D01*
X132902996Y-116816005D01*
X132902994Y-116816004D01*
X132826906Y-116777235D01*
X132741639Y-116733788D01*
X132741636Y-116733787D01*
X132569410Y-116677829D01*
X132390551Y-116649500D01*
X132390546Y-116649500D01*
X132209454Y-116649500D01*
X132209449Y-116649500D01*
X132030589Y-116677829D01*
X131858363Y-116733787D01*
X131858360Y-116733788D01*
X131697002Y-116816006D01*
X131550505Y-116922441D01*
X131550500Y-116922445D01*
X131422445Y-117050500D01*
X131422441Y-117050505D01*
X131316006Y-117197002D01*
X131233788Y-117358360D01*
X131233787Y-117358363D01*
X131177829Y-117530589D01*
X131152473Y-117690678D01*
X131122544Y-117753813D01*
X131063232Y-117790744D01*
X130993369Y-117789746D01*
X130935137Y-117751136D01*
X130907527Y-117690678D01*
X130893740Y-117603639D01*
X130882171Y-117530591D01*
X130826211Y-117358361D01*
X130826211Y-117358360D01*
X130797740Y-117302484D01*
X130743996Y-117197006D01*
X130730396Y-117178287D01*
X130637558Y-117050505D01*
X130637554Y-117050500D01*
X130509499Y-116922445D01*
X130509494Y-116922441D01*
X130362997Y-116816006D01*
X130362996Y-116816005D01*
X130362994Y-116816004D01*
X130286906Y-116777235D01*
X130201639Y-116733788D01*
X130201636Y-116733787D01*
X130029410Y-116677829D01*
X129850551Y-116649500D01*
X129850546Y-116649500D01*
X129669454Y-116649500D01*
X129669449Y-116649500D01*
X129490589Y-116677829D01*
X129318363Y-116733787D01*
X129318360Y-116733788D01*
X129157002Y-116816006D01*
X129010505Y-116922441D01*
X129010500Y-116922445D01*
X128882445Y-117050500D01*
X128882441Y-117050505D01*
X128776006Y-117197002D01*
X128693788Y-117358360D01*
X128693787Y-117358363D01*
X128637829Y-117530589D01*
X128612473Y-117690678D01*
X128582544Y-117753813D01*
X128523232Y-117790744D01*
X128453369Y-117789746D01*
X128395137Y-117751136D01*
X128367527Y-117690678D01*
X128353740Y-117603639D01*
X128342171Y-117530591D01*
X128286211Y-117358361D01*
X128286211Y-117358360D01*
X128257740Y-117302484D01*
X128203996Y-117197006D01*
X128190396Y-117178287D01*
X128097558Y-117050505D01*
X128097554Y-117050500D01*
X127969499Y-116922445D01*
X127969494Y-116922441D01*
X127822997Y-116816006D01*
X127822996Y-116816005D01*
X127822994Y-116816004D01*
X127746906Y-116777235D01*
X127661639Y-116733788D01*
X127661636Y-116733787D01*
X127489410Y-116677829D01*
X127310551Y-116649500D01*
X127310546Y-116649500D01*
X127129454Y-116649500D01*
X127129449Y-116649500D01*
X126950589Y-116677829D01*
X126778363Y-116733787D01*
X126778360Y-116733788D01*
X126617002Y-116816006D01*
X126470505Y-116922441D01*
X126470500Y-116922445D01*
X126342445Y-117050500D01*
X126342441Y-117050505D01*
X126236006Y-117197002D01*
X126153788Y-117358360D01*
X126153787Y-117358363D01*
X126097829Y-117530589D01*
X126072473Y-117690678D01*
X126042544Y-117753813D01*
X125983232Y-117790744D01*
X125913369Y-117789746D01*
X125855137Y-117751136D01*
X125827527Y-117690678D01*
X125813740Y-117603639D01*
X125802171Y-117530591D01*
X125746211Y-117358361D01*
X125746211Y-117358360D01*
X125717740Y-117302484D01*
X125663996Y-117197006D01*
X125650396Y-117178287D01*
X125557558Y-117050505D01*
X125557554Y-117050500D01*
X125429499Y-116922445D01*
X125429494Y-116922441D01*
X125282997Y-116816006D01*
X125282996Y-116816005D01*
X125282994Y-116816004D01*
X125206906Y-116777235D01*
X125121639Y-116733788D01*
X125121636Y-116733787D01*
X124949410Y-116677829D01*
X124770551Y-116649500D01*
X124770546Y-116649500D01*
X124589454Y-116649500D01*
X124589449Y-116649500D01*
X124410589Y-116677829D01*
X124238363Y-116733787D01*
X124238360Y-116733788D01*
X124077002Y-116816006D01*
X123930505Y-116922441D01*
X123930500Y-116922445D01*
X123802445Y-117050500D01*
X123802441Y-117050505D01*
X123696006Y-117197002D01*
X123613788Y-117358360D01*
X123613787Y-117358363D01*
X123557829Y-117530589D01*
X123532473Y-117690678D01*
X123502544Y-117753813D01*
X123443232Y-117790744D01*
X123373369Y-117789746D01*
X123315137Y-117751136D01*
X123287527Y-117690678D01*
X123273740Y-117603639D01*
X123262171Y-117530591D01*
X123206211Y-117358361D01*
X123206211Y-117358360D01*
X123177740Y-117302484D01*
X123123996Y-117197006D01*
X123110396Y-117178287D01*
X123017558Y-117050505D01*
X123017554Y-117050500D01*
X122889499Y-116922445D01*
X122889494Y-116922441D01*
X122742997Y-116816006D01*
X122742996Y-116816005D01*
X122742994Y-116816004D01*
X122666906Y-116777235D01*
X122581639Y-116733788D01*
X122581636Y-116733787D01*
X122409410Y-116677829D01*
X122230551Y-116649500D01*
X122230546Y-116649500D01*
X122049454Y-116649500D01*
X122049449Y-116649500D01*
X121870589Y-116677829D01*
X121698363Y-116733787D01*
X121698360Y-116733788D01*
X121537002Y-116816006D01*
X121390505Y-116922441D01*
X121390500Y-116922445D01*
X121262445Y-117050500D01*
X121262441Y-117050505D01*
X121156006Y-117197002D01*
X121073788Y-117358360D01*
X121073787Y-117358363D01*
X121017829Y-117530589D01*
X120992473Y-117690678D01*
X120962544Y-117753813D01*
X120903232Y-117790744D01*
X120833369Y-117789746D01*
X120775137Y-117751136D01*
X120747527Y-117690678D01*
X120733740Y-117603639D01*
X120722171Y-117530591D01*
X120666211Y-117358361D01*
X120666211Y-117358360D01*
X120637740Y-117302484D01*
X120583996Y-117197006D01*
X120570396Y-117178287D01*
X120477558Y-117050505D01*
X120477554Y-117050500D01*
X120349499Y-116922445D01*
X120349494Y-116922441D01*
X120202997Y-116816006D01*
X120202996Y-116816005D01*
X120202994Y-116816004D01*
X120126906Y-116777235D01*
X120041639Y-116733788D01*
X120041636Y-116733787D01*
X119869410Y-116677829D01*
X119690551Y-116649500D01*
X119690546Y-116649500D01*
X119509454Y-116649500D01*
X119509449Y-116649500D01*
X119330589Y-116677829D01*
X119158363Y-116733787D01*
X119158360Y-116733788D01*
X118997002Y-116816006D01*
X118850505Y-116922441D01*
X118850500Y-116922445D01*
X118722445Y-117050500D01*
X118722441Y-117050505D01*
X118616006Y-117197002D01*
X118533788Y-117358360D01*
X118533787Y-117358363D01*
X118477829Y-117530589D01*
X118452473Y-117690678D01*
X118422544Y-117753813D01*
X118363232Y-117790744D01*
X118293369Y-117789746D01*
X118235137Y-117751136D01*
X118207527Y-117690678D01*
X118193740Y-117603639D01*
X118182171Y-117530591D01*
X118126211Y-117358361D01*
X118126211Y-117358360D01*
X118097740Y-117302484D01*
X118043996Y-117197006D01*
X118030396Y-117178287D01*
X117937558Y-117050505D01*
X117937554Y-117050500D01*
X117809499Y-116922445D01*
X117809494Y-116922441D01*
X117662997Y-116816006D01*
X117662996Y-116816005D01*
X117662994Y-116816004D01*
X117586906Y-116777235D01*
X117501639Y-116733788D01*
X117501636Y-116733787D01*
X117329410Y-116677829D01*
X117150551Y-116649500D01*
X117150546Y-116649500D01*
X116969454Y-116649500D01*
X116969449Y-116649500D01*
X116790589Y-116677829D01*
X116618363Y-116733787D01*
X116618360Y-116733788D01*
X116457002Y-116816006D01*
X116310505Y-116922441D01*
X116310500Y-116922445D01*
X116182445Y-117050500D01*
X116182441Y-117050505D01*
X116076006Y-117197002D01*
X115993788Y-117358360D01*
X115993787Y-117358363D01*
X115937829Y-117530589D01*
X115916972Y-117662271D01*
X115887042Y-117725405D01*
X115827731Y-117762336D01*
X115757868Y-117761338D01*
X115699636Y-117722728D01*
X115671522Y-117658764D01*
X115670499Y-117642872D01*
X115670499Y-116905143D01*
X115670499Y-116905136D01*
X115670497Y-116905117D01*
X115667586Y-116880012D01*
X115667585Y-116880010D01*
X115667585Y-116880009D01*
X115622206Y-116777235D01*
X115542765Y-116697794D01*
X115542763Y-116697793D01*
X115439992Y-116652415D01*
X115414865Y-116649500D01*
X113625143Y-116649500D01*
X113625117Y-116649502D01*
X113600012Y-116652413D01*
X113600008Y-116652415D01*
X113497235Y-116697793D01*
X113417794Y-116777234D01*
X113372415Y-116880006D01*
X113372415Y-116880008D01*
X113369500Y-116905131D01*
X100000500Y-116905131D01*
X100000500Y-111368886D01*
X100000499Y-111368872D01*
X99994912Y-111326439D01*
X99966270Y-111108884D01*
X99898398Y-110855581D01*
X99806785Y-110634408D01*
X99798046Y-110613309D01*
X99798041Y-110613299D01*
X99666924Y-110386196D01*
X99507281Y-110178148D01*
X99507274Y-110178140D01*
X99321860Y-109992726D01*
X99321851Y-109992718D01*
X99113803Y-109833075D01*
X98886700Y-109701958D01*
X98886690Y-109701953D01*
X98644428Y-109601605D01*
X98644421Y-109601603D01*
X98644419Y-109601602D01*
X98391116Y-109533730D01*
X98333339Y-109526123D01*
X98131127Y-109499500D01*
X98131120Y-109499500D01*
X98065892Y-109499500D01*
X92300862Y-109499500D01*
X92233823Y-109479815D01*
X92213181Y-109463181D01*
X91036819Y-108286819D01*
X91003334Y-108225496D01*
X91000500Y-108199138D01*
X91000500Y-93728493D01*
X93438401Y-93728493D01*
X93438401Y-93739779D01*
X93438401Y-94055573D01*
X93447870Y-94151715D01*
X93470459Y-94381076D01*
X93534264Y-94701851D01*
X93534267Y-94701862D01*
X93629216Y-95014868D01*
X93754381Y-95317042D01*
X93754388Y-95317056D01*
X93908561Y-95605496D01*
X93908572Y-95605514D01*
X94090278Y-95877455D01*
X94090288Y-95877469D01*
X94297785Y-96130305D01*
X94529055Y-96361575D01*
X94529060Y-96361579D01*
X94529061Y-96361580D01*
X94781897Y-96569077D01*
X95053853Y-96750793D01*
X95342312Y-96904977D01*
X95644494Y-97030145D01*
X95957489Y-97125091D01*
X95957495Y-97125092D01*
X95957498Y-97125093D01*
X95957509Y-97125096D01*
X96278284Y-97188901D01*
X96603788Y-97220960D01*
X96603791Y-97220960D01*
X96930865Y-97220960D01*
X96930868Y-97220960D01*
X97256372Y-97188901D01*
X97318818Y-97176479D01*
X97577146Y-97125096D01*
X97577157Y-97125093D01*
X97577157Y-97125092D01*
X97577167Y-97125091D01*
X97890162Y-97030145D01*
X98192344Y-96904977D01*
X98480803Y-96750793D01*
X98698801Y-96605131D01*
X113369500Y-96605131D01*
X113369500Y-98394856D01*
X113369502Y-98394882D01*
X113372413Y-98419987D01*
X113372415Y-98419991D01*
X113417793Y-98522764D01*
X113417794Y-98522765D01*
X113497235Y-98602206D01*
X113600009Y-98647585D01*
X113625135Y-98650500D01*
X115414864Y-98650499D01*
X115414879Y-98650497D01*
X115414882Y-98650497D01*
X115439987Y-98647586D01*
X115439988Y-98647585D01*
X115439991Y-98647585D01*
X115542765Y-98602206D01*
X115622206Y-98522765D01*
X115667585Y-98419991D01*
X115670500Y-98394865D01*
X115670499Y-97657125D01*
X115690183Y-97590089D01*
X115742987Y-97544334D01*
X115812146Y-97534390D01*
X115875702Y-97563415D01*
X115913476Y-97622193D01*
X115916972Y-97637729D01*
X115937829Y-97769410D01*
X115993787Y-97941636D01*
X115993788Y-97941639D01*
X116076006Y-98102997D01*
X116182441Y-98249494D01*
X116182445Y-98249499D01*
X116310500Y-98377554D01*
X116310505Y-98377558D01*
X116438287Y-98470396D01*
X116457006Y-98483996D01*
X116533094Y-98522765D01*
X116618360Y-98566211D01*
X116618363Y-98566212D01*
X116704476Y-98594191D01*
X116790591Y-98622171D01*
X116873429Y-98635291D01*
X116969449Y-98650500D01*
X116969454Y-98650500D01*
X117150551Y-98650500D01*
X117237259Y-98636765D01*
X117329409Y-98622171D01*
X117501639Y-98566211D01*
X117662994Y-98483996D01*
X117809501Y-98377553D01*
X117937553Y-98249501D01*
X118043996Y-98102994D01*
X118126211Y-97941639D01*
X118182171Y-97769409D01*
X118196422Y-97679425D01*
X118207527Y-97609321D01*
X118237456Y-97546186D01*
X118296768Y-97509255D01*
X118366630Y-97510253D01*
X118424863Y-97548863D01*
X118452473Y-97609321D01*
X118477829Y-97769410D01*
X118533787Y-97941636D01*
X118533788Y-97941639D01*
X118616006Y-98102997D01*
X118722441Y-98249494D01*
X118722445Y-98249499D01*
X118850500Y-98377554D01*
X118850505Y-98377558D01*
X118978287Y-98470396D01*
X118997006Y-98483996D01*
X119073094Y-98522765D01*
X119158360Y-98566211D01*
X119158363Y-98566212D01*
X119244476Y-98594191D01*
X119330591Y-98622171D01*
X119413429Y-98635291D01*
X119509449Y-98650500D01*
X119509454Y-98650500D01*
X119690551Y-98650500D01*
X119777259Y-98636765D01*
X119869409Y-98622171D01*
X120041639Y-98566211D01*
X120202994Y-98483996D01*
X120349501Y-98377553D01*
X120477553Y-98249501D01*
X120583996Y-98102994D01*
X120666211Y-97941639D01*
X120722171Y-97769409D01*
X120736422Y-97679425D01*
X120747527Y-97609321D01*
X120777456Y-97546186D01*
X120836768Y-97509255D01*
X120906630Y-97510253D01*
X120964863Y-97548863D01*
X120992473Y-97609321D01*
X121017829Y-97769410D01*
X121073787Y-97941636D01*
X121073788Y-97941639D01*
X121156006Y-98102997D01*
X121262441Y-98249494D01*
X121262445Y-98249499D01*
X121390500Y-98377554D01*
X121390505Y-98377558D01*
X121518287Y-98470396D01*
X121537006Y-98483996D01*
X121613094Y-98522765D01*
X121698360Y-98566211D01*
X121698363Y-98566212D01*
X121784476Y-98594191D01*
X121870591Y-98622171D01*
X121953429Y-98635291D01*
X122049449Y-98650500D01*
X122049454Y-98650500D01*
X122230551Y-98650500D01*
X122317259Y-98636765D01*
X122409409Y-98622171D01*
X122581639Y-98566211D01*
X122742994Y-98483996D01*
X122889501Y-98377553D01*
X123017553Y-98249501D01*
X123123996Y-98102994D01*
X123206211Y-97941639D01*
X123262171Y-97769409D01*
X123276422Y-97679425D01*
X123287527Y-97609321D01*
X123317456Y-97546186D01*
X123376768Y-97509255D01*
X123446630Y-97510253D01*
X123504863Y-97548863D01*
X123532473Y-97609321D01*
X123557829Y-97769410D01*
X123613787Y-97941636D01*
X123613788Y-97941639D01*
X123696006Y-98102997D01*
X123802441Y-98249494D01*
X123802445Y-98249499D01*
X123930500Y-98377554D01*
X123930505Y-98377558D01*
X124058287Y-98470396D01*
X124077006Y-98483996D01*
X124153094Y-98522765D01*
X124238360Y-98566211D01*
X124238363Y-98566212D01*
X124324476Y-98594191D01*
X124410591Y-98622171D01*
X124493429Y-98635291D01*
X124589449Y-98650500D01*
X124589454Y-98650500D01*
X124770551Y-98650500D01*
X124857259Y-98636765D01*
X124949409Y-98622171D01*
X125121639Y-98566211D01*
X125282994Y-98483996D01*
X125429501Y-98377553D01*
X125557553Y-98249501D01*
X125663996Y-98102994D01*
X125746211Y-97941639D01*
X125802171Y-97769409D01*
X125816422Y-97679425D01*
X125827527Y-97609321D01*
X125857456Y-97546186D01*
X125916768Y-97509255D01*
X125986630Y-97510253D01*
X126044863Y-97548863D01*
X126072473Y-97609321D01*
X126097829Y-97769410D01*
X126153787Y-97941636D01*
X126153788Y-97941639D01*
X126236006Y-98102997D01*
X126342441Y-98249494D01*
X126342445Y-98249499D01*
X126470500Y-98377554D01*
X126470505Y-98377558D01*
X126598287Y-98470396D01*
X126617006Y-98483996D01*
X126693094Y-98522765D01*
X126778360Y-98566211D01*
X126778363Y-98566212D01*
X126864476Y-98594191D01*
X126950591Y-98622171D01*
X127033429Y-98635291D01*
X127129449Y-98650500D01*
X127129454Y-98650500D01*
X127310551Y-98650500D01*
X127397259Y-98636765D01*
X127489409Y-98622171D01*
X127661639Y-98566211D01*
X127822994Y-98483996D01*
X127969501Y-98377553D01*
X128097553Y-98249501D01*
X128203996Y-98102994D01*
X128286211Y-97941639D01*
X128342171Y-97769409D01*
X128356422Y-97679425D01*
X128367527Y-97609321D01*
X128397456Y-97546186D01*
X128456768Y-97509255D01*
X128526630Y-97510253D01*
X128584863Y-97548863D01*
X128612473Y-97609321D01*
X128637829Y-97769410D01*
X128693787Y-97941636D01*
X128693788Y-97941639D01*
X128776006Y-98102997D01*
X128882441Y-98249494D01*
X128882445Y-98249499D01*
X129010500Y-98377554D01*
X129010505Y-98377558D01*
X129138287Y-98470396D01*
X129157006Y-98483996D01*
X129233094Y-98522765D01*
X129318360Y-98566211D01*
X129318363Y-98566212D01*
X129404476Y-98594191D01*
X129490591Y-98622171D01*
X129573429Y-98635291D01*
X129669449Y-98650500D01*
X129669454Y-98650500D01*
X129850551Y-98650500D01*
X129937259Y-98636765D01*
X130029409Y-98622171D01*
X130201639Y-98566211D01*
X130362994Y-98483996D01*
X130509501Y-98377553D01*
X130637553Y-98249501D01*
X130743996Y-98102994D01*
X130826211Y-97941639D01*
X130882171Y-97769409D01*
X130896422Y-97679425D01*
X130907527Y-97609321D01*
X130937456Y-97546186D01*
X130996768Y-97509255D01*
X131066630Y-97510253D01*
X131124863Y-97548863D01*
X131152473Y-97609321D01*
X131177829Y-97769410D01*
X131233787Y-97941636D01*
X131233788Y-97941639D01*
X131316006Y-98102997D01*
X131422441Y-98249494D01*
X131422445Y-98249499D01*
X131550500Y-98377554D01*
X131550505Y-98377558D01*
X131678287Y-98470396D01*
X131697006Y-98483996D01*
X131773094Y-98522765D01*
X131858360Y-98566211D01*
X131858363Y-98566212D01*
X131944476Y-98594191D01*
X132030591Y-98622171D01*
X132113429Y-98635291D01*
X132209449Y-98650500D01*
X132209454Y-98650500D01*
X132390551Y-98650500D01*
X132477259Y-98636765D01*
X132569409Y-98622171D01*
X132741639Y-98566211D01*
X132902994Y-98483996D01*
X133049501Y-98377553D01*
X133177553Y-98249501D01*
X133283996Y-98102994D01*
X133366211Y-97941639D01*
X133422171Y-97769409D01*
X133436422Y-97679425D01*
X133447527Y-97609321D01*
X133477456Y-97546186D01*
X133536768Y-97509255D01*
X133606630Y-97510253D01*
X133664863Y-97548863D01*
X133692473Y-97609321D01*
X133717829Y-97769410D01*
X133773787Y-97941636D01*
X133773788Y-97941639D01*
X133856006Y-98102997D01*
X133962441Y-98249494D01*
X133962445Y-98249499D01*
X134090500Y-98377554D01*
X134090505Y-98377558D01*
X134218287Y-98470396D01*
X134237006Y-98483996D01*
X134313094Y-98522765D01*
X134398360Y-98566211D01*
X134398363Y-98566212D01*
X134484476Y-98594191D01*
X134570591Y-98622171D01*
X134653429Y-98635291D01*
X134749449Y-98650500D01*
X134749454Y-98650500D01*
X134930551Y-98650500D01*
X135017259Y-98636765D01*
X135109409Y-98622171D01*
X135281639Y-98566211D01*
X135442994Y-98483996D01*
X135589501Y-98377553D01*
X135717553Y-98249501D01*
X135823996Y-98102994D01*
X135906211Y-97941639D01*
X135962171Y-97769409D01*
X135976422Y-97679425D01*
X135987527Y-97609321D01*
X136017456Y-97546186D01*
X136076768Y-97509255D01*
X136146630Y-97510253D01*
X136204863Y-97548863D01*
X136232473Y-97609321D01*
X136257829Y-97769410D01*
X136313787Y-97941636D01*
X136313788Y-97941639D01*
X136396006Y-98102997D01*
X136502441Y-98249494D01*
X136502445Y-98249499D01*
X136630500Y-98377554D01*
X136630505Y-98377558D01*
X136758287Y-98470396D01*
X136777006Y-98483996D01*
X136853094Y-98522765D01*
X136938360Y-98566211D01*
X136938363Y-98566212D01*
X137024476Y-98594191D01*
X137110591Y-98622171D01*
X137193429Y-98635291D01*
X137289449Y-98650500D01*
X137289454Y-98650500D01*
X137470551Y-98650500D01*
X137557259Y-98636765D01*
X137649409Y-98622171D01*
X137821639Y-98566211D01*
X137982994Y-98483996D01*
X138129501Y-98377553D01*
X138257553Y-98249501D01*
X138363996Y-98102994D01*
X138446211Y-97941639D01*
X138502171Y-97769409D01*
X138516422Y-97679425D01*
X138527527Y-97609321D01*
X138557456Y-97546186D01*
X138616768Y-97509255D01*
X138686630Y-97510253D01*
X138744863Y-97548863D01*
X138772473Y-97609321D01*
X138797829Y-97769410D01*
X138853787Y-97941636D01*
X138853788Y-97941639D01*
X138936006Y-98102997D01*
X139042441Y-98249494D01*
X139042445Y-98249499D01*
X139170500Y-98377554D01*
X139170505Y-98377558D01*
X139298287Y-98470396D01*
X139317006Y-98483996D01*
X139393094Y-98522765D01*
X139478360Y-98566211D01*
X139478363Y-98566212D01*
X139564476Y-98594191D01*
X139650591Y-98622171D01*
X139733429Y-98635291D01*
X139829449Y-98650500D01*
X139829454Y-98650500D01*
X140010551Y-98650500D01*
X140097259Y-98636765D01*
X140189409Y-98622171D01*
X140361639Y-98566211D01*
X140522994Y-98483996D01*
X140669501Y-98377553D01*
X140797553Y-98249501D01*
X140903996Y-98102994D01*
X140986211Y-97941639D01*
X141042171Y-97769409D01*
X141056422Y-97679425D01*
X141067527Y-97609321D01*
X141097456Y-97546186D01*
X141156768Y-97509255D01*
X141226630Y-97510253D01*
X141284863Y-97548863D01*
X141312473Y-97609321D01*
X141337829Y-97769410D01*
X141393787Y-97941636D01*
X141393788Y-97941639D01*
X141476006Y-98102997D01*
X141582441Y-98249494D01*
X141582445Y-98249499D01*
X141710500Y-98377554D01*
X141710505Y-98377558D01*
X141838287Y-98470396D01*
X141857006Y-98483996D01*
X141933094Y-98522765D01*
X142018360Y-98566211D01*
X142018363Y-98566212D01*
X142104476Y-98594191D01*
X142190591Y-98622171D01*
X142273429Y-98635291D01*
X142369449Y-98650500D01*
X142369454Y-98650500D01*
X142550551Y-98650500D01*
X142637259Y-98636765D01*
X142729409Y-98622171D01*
X142901639Y-98566211D01*
X143062994Y-98483996D01*
X143209501Y-98377553D01*
X143337553Y-98249501D01*
X143443996Y-98102994D01*
X143511090Y-97971314D01*
X143559065Y-97920519D01*
X143626886Y-97903724D01*
X143693021Y-97926262D01*
X143736472Y-97980977D01*
X143739506Y-97989292D01*
X143748904Y-98018217D01*
X143845379Y-98207557D01*
X143970272Y-98379459D01*
X143970276Y-98379464D01*
X144120535Y-98529723D01*
X144120540Y-98529727D01*
X144292442Y-98654620D01*
X144481782Y-98751095D01*
X144683871Y-98816757D01*
X144750000Y-98827231D01*
X144750000Y-97933012D01*
X144807007Y-97965925D01*
X144934174Y-98000000D01*
X145065826Y-98000000D01*
X145192993Y-97965925D01*
X145250000Y-97933012D01*
X145250000Y-98827230D01*
X145316126Y-98816757D01*
X145316129Y-98816757D01*
X145518217Y-98751095D01*
X145707557Y-98654620D01*
X145879459Y-98529727D01*
X145879464Y-98529723D01*
X146029723Y-98379464D01*
X146029727Y-98379459D01*
X146154620Y-98207557D01*
X146251095Y-98018217D01*
X146260492Y-97989295D01*
X146299928Y-97931618D01*
X146364286Y-97904419D01*
X146433133Y-97916331D01*
X146484610Y-97963574D01*
X146488908Y-97971314D01*
X146556004Y-98102995D01*
X146662441Y-98249494D01*
X146662445Y-98249499D01*
X146790500Y-98377554D01*
X146790505Y-98377558D01*
X146918287Y-98470396D01*
X146937006Y-98483996D01*
X147013094Y-98522765D01*
X147098360Y-98566211D01*
X147098363Y-98566212D01*
X147184476Y-98594191D01*
X147270591Y-98622171D01*
X147353429Y-98635291D01*
X147449449Y-98650500D01*
X147449454Y-98650500D01*
X147630551Y-98650500D01*
X147717259Y-98636765D01*
X147809409Y-98622171D01*
X147981639Y-98566211D01*
X148142994Y-98483996D01*
X148289501Y-98377553D01*
X148417553Y-98249501D01*
X148523996Y-98102994D01*
X148606211Y-97941639D01*
X148662171Y-97769409D01*
X148676422Y-97679425D01*
X148687527Y-97609321D01*
X148717456Y-97546186D01*
X148776768Y-97509255D01*
X148846630Y-97510253D01*
X148904863Y-97548863D01*
X148932473Y-97609321D01*
X148957829Y-97769410D01*
X149013787Y-97941636D01*
X149013788Y-97941639D01*
X149096006Y-98102997D01*
X149202441Y-98249494D01*
X149202445Y-98249499D01*
X149330500Y-98377554D01*
X149330505Y-98377558D01*
X149458287Y-98470396D01*
X149477006Y-98483996D01*
X149553094Y-98522765D01*
X149638360Y-98566211D01*
X149638363Y-98566212D01*
X149724476Y-98594191D01*
X149810591Y-98622171D01*
X149893429Y-98635291D01*
X149989449Y-98650500D01*
X149989454Y-98650500D01*
X150170551Y-98650500D01*
X150257259Y-98636765D01*
X150349409Y-98622171D01*
X150521639Y-98566211D01*
X150682994Y-98483996D01*
X150829501Y-98377553D01*
X150957553Y-98249501D01*
X151063996Y-98102994D01*
X151146211Y-97941639D01*
X151202171Y-97769409D01*
X151216422Y-97679425D01*
X151227527Y-97609321D01*
X151257456Y-97546186D01*
X151316768Y-97509255D01*
X151386630Y-97510253D01*
X151444863Y-97548863D01*
X151472473Y-97609321D01*
X151497829Y-97769410D01*
X151553787Y-97941636D01*
X151553788Y-97941639D01*
X151636006Y-98102997D01*
X151742441Y-98249494D01*
X151742445Y-98249499D01*
X151870500Y-98377554D01*
X151870505Y-98377558D01*
X151998287Y-98470396D01*
X152017006Y-98483996D01*
X152093094Y-98522765D01*
X152178360Y-98566211D01*
X152178363Y-98566212D01*
X152264476Y-98594191D01*
X152350591Y-98622171D01*
X152433429Y-98635291D01*
X152529449Y-98650500D01*
X152529454Y-98650500D01*
X152710551Y-98650500D01*
X152797259Y-98636765D01*
X152889409Y-98622171D01*
X153061639Y-98566211D01*
X153222994Y-98483996D01*
X153369501Y-98377553D01*
X153497553Y-98249501D01*
X153603996Y-98102994D01*
X153686211Y-97941639D01*
X153742171Y-97769409D01*
X153756765Y-97677259D01*
X153770500Y-97590551D01*
X153770500Y-97409448D01*
X153754019Y-97305397D01*
X153742171Y-97230591D01*
X153698530Y-97096275D01*
X153686212Y-97058363D01*
X153686211Y-97058360D01*
X153637948Y-96963641D01*
X153603996Y-96897006D01*
X153561467Y-96838469D01*
X153497558Y-96750505D01*
X153497554Y-96750500D01*
X153369499Y-96622445D01*
X153369494Y-96622441D01*
X153222997Y-96516006D01*
X153222996Y-96516005D01*
X153222994Y-96516004D01*
X153146906Y-96477235D01*
X153061639Y-96433788D01*
X153061636Y-96433787D01*
X152889410Y-96377829D01*
X152710551Y-96349500D01*
X152710546Y-96349500D01*
X152529454Y-96349500D01*
X152529449Y-96349500D01*
X152350589Y-96377829D01*
X152178363Y-96433787D01*
X152178360Y-96433788D01*
X152017002Y-96516006D01*
X151870505Y-96622441D01*
X151870500Y-96622445D01*
X151742445Y-96750500D01*
X151742441Y-96750505D01*
X151636006Y-96897002D01*
X151553788Y-97058360D01*
X151553787Y-97058363D01*
X151497829Y-97230589D01*
X151472473Y-97390678D01*
X151442544Y-97453813D01*
X151383232Y-97490744D01*
X151313369Y-97489746D01*
X151255137Y-97451136D01*
X151227527Y-97390678D01*
X151213740Y-97303639D01*
X151202171Y-97230591D01*
X151158530Y-97096275D01*
X151146212Y-97058363D01*
X151146211Y-97058360D01*
X151097948Y-96963641D01*
X151063996Y-96897006D01*
X151021467Y-96838469D01*
X150957558Y-96750505D01*
X150957554Y-96750500D01*
X150829499Y-96622445D01*
X150829494Y-96622441D01*
X150682997Y-96516006D01*
X150682996Y-96516005D01*
X150682994Y-96516004D01*
X150606906Y-96477235D01*
X150521639Y-96433788D01*
X150521636Y-96433787D01*
X150349410Y-96377829D01*
X150170551Y-96349500D01*
X150170546Y-96349500D01*
X149989454Y-96349500D01*
X149989449Y-96349500D01*
X149810589Y-96377829D01*
X149638363Y-96433787D01*
X149638360Y-96433788D01*
X149477002Y-96516006D01*
X149330505Y-96622441D01*
X149330500Y-96622445D01*
X149202445Y-96750500D01*
X149202441Y-96750505D01*
X149096006Y-96897002D01*
X149013788Y-97058360D01*
X149013787Y-97058363D01*
X148957829Y-97230589D01*
X148932473Y-97390678D01*
X148902544Y-97453813D01*
X148843232Y-97490744D01*
X148773369Y-97489746D01*
X148715137Y-97451136D01*
X148687527Y-97390678D01*
X148673740Y-97303639D01*
X148662171Y-97230591D01*
X148618530Y-97096275D01*
X148606212Y-97058363D01*
X148606211Y-97058360D01*
X148557948Y-96963641D01*
X148523996Y-96897006D01*
X148481467Y-96838469D01*
X148417558Y-96750505D01*
X148417554Y-96750500D01*
X148289499Y-96622445D01*
X148289494Y-96622441D01*
X148142997Y-96516006D01*
X148142996Y-96516005D01*
X148142994Y-96516004D01*
X148066906Y-96477235D01*
X147981639Y-96433788D01*
X147981636Y-96433787D01*
X147809410Y-96377829D01*
X147630551Y-96349500D01*
X147630546Y-96349500D01*
X147449454Y-96349500D01*
X147449449Y-96349500D01*
X147270589Y-96377829D01*
X147098363Y-96433787D01*
X147098360Y-96433788D01*
X146937002Y-96516006D01*
X146790505Y-96622441D01*
X146790500Y-96622445D01*
X146662445Y-96750500D01*
X146662441Y-96750505D01*
X146556004Y-96897004D01*
X146488908Y-97028685D01*
X146440933Y-97079480D01*
X146373112Y-97096275D01*
X146306977Y-97073737D01*
X146263527Y-97019021D01*
X146260492Y-97010705D01*
X146251094Y-96981780D01*
X146154620Y-96792442D01*
X146029727Y-96620540D01*
X146029723Y-96620535D01*
X145879464Y-96470276D01*
X145879459Y-96470272D01*
X145707557Y-96345379D01*
X145518215Y-96248903D01*
X145316124Y-96183241D01*
X145250000Y-96172768D01*
X145250000Y-97066988D01*
X145192993Y-97034075D01*
X145065826Y-97000000D01*
X144934174Y-97000000D01*
X144807007Y-97034075D01*
X144750000Y-97066988D01*
X144750000Y-96172768D01*
X144749999Y-96172768D01*
X144683875Y-96183241D01*
X144481784Y-96248903D01*
X144292442Y-96345379D01*
X144120540Y-96470272D01*
X144120535Y-96470276D01*
X143970276Y-96620535D01*
X143970272Y-96620540D01*
X143845379Y-96792442D01*
X143748905Y-96981781D01*
X143739506Y-97010708D01*
X143700068Y-97068383D01*
X143635709Y-97095581D01*
X143566862Y-97083666D01*
X143515387Y-97036421D01*
X143511090Y-97028684D01*
X143477948Y-96963641D01*
X143443996Y-96897006D01*
X143401467Y-96838469D01*
X143337558Y-96750505D01*
X143337554Y-96750500D01*
X143209499Y-96622445D01*
X143209494Y-96622441D01*
X143062997Y-96516006D01*
X143062996Y-96516005D01*
X143062994Y-96516004D01*
X142986906Y-96477235D01*
X142901639Y-96433788D01*
X142901636Y-96433787D01*
X142729410Y-96377829D01*
X142550551Y-96349500D01*
X142550546Y-96349500D01*
X142369454Y-96349500D01*
X142369449Y-96349500D01*
X142190589Y-96377829D01*
X142018363Y-96433787D01*
X142018360Y-96433788D01*
X141857002Y-96516006D01*
X141710505Y-96622441D01*
X141710500Y-96622445D01*
X141582445Y-96750500D01*
X141582441Y-96750505D01*
X141476006Y-96897002D01*
X141393788Y-97058360D01*
X141393787Y-97058363D01*
X141337829Y-97230589D01*
X141312473Y-97390678D01*
X141282544Y-97453813D01*
X141223232Y-97490744D01*
X141153369Y-97489746D01*
X141095137Y-97451136D01*
X141067527Y-97390678D01*
X141053740Y-97303639D01*
X141042171Y-97230591D01*
X140998530Y-97096275D01*
X140986212Y-97058363D01*
X140986211Y-97058360D01*
X140937948Y-96963641D01*
X140903996Y-96897006D01*
X140861467Y-96838469D01*
X140797558Y-96750505D01*
X140797554Y-96750500D01*
X140669499Y-96622445D01*
X140669494Y-96622441D01*
X140522997Y-96516006D01*
X140522996Y-96516005D01*
X140522994Y-96516004D01*
X140446906Y-96477235D01*
X140361639Y-96433788D01*
X140361636Y-96433787D01*
X140189410Y-96377829D01*
X140010551Y-96349500D01*
X140010546Y-96349500D01*
X139829454Y-96349500D01*
X139829449Y-96349500D01*
X139650589Y-96377829D01*
X139478363Y-96433787D01*
X139478360Y-96433788D01*
X139317002Y-96516006D01*
X139170505Y-96622441D01*
X139170500Y-96622445D01*
X139042445Y-96750500D01*
X139042441Y-96750505D01*
X138936006Y-96897002D01*
X138853788Y-97058360D01*
X138853787Y-97058363D01*
X138797829Y-97230589D01*
X138772473Y-97390678D01*
X138742544Y-97453813D01*
X138683232Y-97490744D01*
X138613369Y-97489746D01*
X138555137Y-97451136D01*
X138527527Y-97390678D01*
X138513740Y-97303639D01*
X138502171Y-97230591D01*
X138458530Y-97096275D01*
X138446212Y-97058363D01*
X138446211Y-97058360D01*
X138397948Y-96963641D01*
X138363996Y-96897006D01*
X138321467Y-96838469D01*
X138257558Y-96750505D01*
X138257554Y-96750500D01*
X138129499Y-96622445D01*
X138129494Y-96622441D01*
X137982997Y-96516006D01*
X137982996Y-96516005D01*
X137982994Y-96516004D01*
X137906906Y-96477235D01*
X137821639Y-96433788D01*
X137821636Y-96433787D01*
X137649410Y-96377829D01*
X137470551Y-96349500D01*
X137470546Y-96349500D01*
X137289454Y-96349500D01*
X137289449Y-96349500D01*
X137110589Y-96377829D01*
X136938363Y-96433787D01*
X136938360Y-96433788D01*
X136777002Y-96516006D01*
X136630505Y-96622441D01*
X136630500Y-96622445D01*
X136502445Y-96750500D01*
X136502441Y-96750505D01*
X136396006Y-96897002D01*
X136313788Y-97058360D01*
X136313787Y-97058363D01*
X136257829Y-97230589D01*
X136232473Y-97390678D01*
X136202544Y-97453813D01*
X136143232Y-97490744D01*
X136073369Y-97489746D01*
X136015137Y-97451136D01*
X135987527Y-97390678D01*
X135973740Y-97303639D01*
X135962171Y-97230591D01*
X135918530Y-97096275D01*
X135906212Y-97058363D01*
X135906211Y-97058360D01*
X135857948Y-96963641D01*
X135823996Y-96897006D01*
X135781467Y-96838469D01*
X135717558Y-96750505D01*
X135717554Y-96750500D01*
X135589499Y-96622445D01*
X135589494Y-96622441D01*
X135442997Y-96516006D01*
X135442996Y-96516005D01*
X135442994Y-96516004D01*
X135366906Y-96477235D01*
X135281639Y-96433788D01*
X135281636Y-96433787D01*
X135109410Y-96377829D01*
X134930551Y-96349500D01*
X134930546Y-96349500D01*
X134749454Y-96349500D01*
X134749449Y-96349500D01*
X134570589Y-96377829D01*
X134398363Y-96433787D01*
X134398360Y-96433788D01*
X134237002Y-96516006D01*
X134090505Y-96622441D01*
X134090500Y-96622445D01*
X133962445Y-96750500D01*
X133962441Y-96750505D01*
X133856006Y-96897002D01*
X133773788Y-97058360D01*
X133773787Y-97058363D01*
X133717829Y-97230589D01*
X133692473Y-97390678D01*
X133662544Y-97453813D01*
X133603232Y-97490744D01*
X133533369Y-97489746D01*
X133475137Y-97451136D01*
X133447527Y-97390678D01*
X133433740Y-97303639D01*
X133422171Y-97230591D01*
X133378530Y-97096275D01*
X133366212Y-97058363D01*
X133366211Y-97058360D01*
X133317948Y-96963641D01*
X133283996Y-96897006D01*
X133241467Y-96838469D01*
X133177558Y-96750505D01*
X133177554Y-96750500D01*
X133049499Y-96622445D01*
X133049494Y-96622441D01*
X132902997Y-96516006D01*
X132902996Y-96516005D01*
X132902994Y-96516004D01*
X132826906Y-96477235D01*
X132741639Y-96433788D01*
X132741636Y-96433787D01*
X132569410Y-96377829D01*
X132390551Y-96349500D01*
X132390546Y-96349500D01*
X132209454Y-96349500D01*
X132209449Y-96349500D01*
X132030589Y-96377829D01*
X131858363Y-96433787D01*
X131858360Y-96433788D01*
X131697002Y-96516006D01*
X131550505Y-96622441D01*
X131550500Y-96622445D01*
X131422445Y-96750500D01*
X131422441Y-96750505D01*
X131316006Y-96897002D01*
X131233788Y-97058360D01*
X131233787Y-97058363D01*
X131177829Y-97230589D01*
X131152473Y-97390678D01*
X131122544Y-97453813D01*
X131063232Y-97490744D01*
X130993369Y-97489746D01*
X130935137Y-97451136D01*
X130907527Y-97390678D01*
X130893740Y-97303639D01*
X130882171Y-97230591D01*
X130838530Y-97096275D01*
X130826212Y-97058363D01*
X130826211Y-97058360D01*
X130777948Y-96963641D01*
X130743996Y-96897006D01*
X130701467Y-96838469D01*
X130637558Y-96750505D01*
X130637554Y-96750500D01*
X130509499Y-96622445D01*
X130509494Y-96622441D01*
X130362997Y-96516006D01*
X130362996Y-96516005D01*
X130362994Y-96516004D01*
X130286906Y-96477235D01*
X130201639Y-96433788D01*
X130201636Y-96433787D01*
X130029410Y-96377829D01*
X129850551Y-96349500D01*
X129850546Y-96349500D01*
X129669454Y-96349500D01*
X129669449Y-96349500D01*
X129490589Y-96377829D01*
X129318363Y-96433787D01*
X129318360Y-96433788D01*
X129157002Y-96516006D01*
X129010505Y-96622441D01*
X129010500Y-96622445D01*
X128882445Y-96750500D01*
X128882441Y-96750505D01*
X128776006Y-96897002D01*
X128693788Y-97058360D01*
X128693787Y-97058363D01*
X128637829Y-97230589D01*
X128612473Y-97390678D01*
X128582544Y-97453813D01*
X128523232Y-97490744D01*
X128453369Y-97489746D01*
X128395137Y-97451136D01*
X128367527Y-97390678D01*
X128353740Y-97303639D01*
X128342171Y-97230591D01*
X128298530Y-97096275D01*
X128286212Y-97058363D01*
X128286211Y-97058360D01*
X128237948Y-96963641D01*
X128203996Y-96897006D01*
X128161467Y-96838469D01*
X128097558Y-96750505D01*
X128097554Y-96750500D01*
X127969499Y-96622445D01*
X127969494Y-96622441D01*
X127822997Y-96516006D01*
X127822996Y-96516005D01*
X127822994Y-96516004D01*
X127746906Y-96477235D01*
X127661639Y-96433788D01*
X127661636Y-96433787D01*
X127489410Y-96377829D01*
X127310551Y-96349500D01*
X127310546Y-96349500D01*
X127129454Y-96349500D01*
X127129449Y-96349500D01*
X126950589Y-96377829D01*
X126778363Y-96433787D01*
X126778360Y-96433788D01*
X126617002Y-96516006D01*
X126470505Y-96622441D01*
X126470500Y-96622445D01*
X126342445Y-96750500D01*
X126342441Y-96750505D01*
X126236006Y-96897002D01*
X126153788Y-97058360D01*
X126153787Y-97058363D01*
X126097829Y-97230589D01*
X126072473Y-97390678D01*
X126042544Y-97453813D01*
X125983232Y-97490744D01*
X125913369Y-97489746D01*
X125855137Y-97451136D01*
X125827527Y-97390678D01*
X125813740Y-97303639D01*
X125802171Y-97230591D01*
X125758530Y-97096275D01*
X125746212Y-97058363D01*
X125746211Y-97058360D01*
X125697948Y-96963641D01*
X125663996Y-96897006D01*
X125621467Y-96838469D01*
X125557558Y-96750505D01*
X125557554Y-96750500D01*
X125429499Y-96622445D01*
X125429494Y-96622441D01*
X125282997Y-96516006D01*
X125282996Y-96516005D01*
X125282994Y-96516004D01*
X125206906Y-96477235D01*
X125121639Y-96433788D01*
X125121636Y-96433787D01*
X124949410Y-96377829D01*
X124770551Y-96349500D01*
X124770546Y-96349500D01*
X124589454Y-96349500D01*
X124589449Y-96349500D01*
X124410589Y-96377829D01*
X124238363Y-96433787D01*
X124238360Y-96433788D01*
X124077002Y-96516006D01*
X123930505Y-96622441D01*
X123930500Y-96622445D01*
X123802445Y-96750500D01*
X123802441Y-96750505D01*
X123696006Y-96897002D01*
X123613788Y-97058360D01*
X123613787Y-97058363D01*
X123557829Y-97230589D01*
X123532473Y-97390678D01*
X123502544Y-97453813D01*
X123443232Y-97490744D01*
X123373369Y-97489746D01*
X123315137Y-97451136D01*
X123287527Y-97390678D01*
X123273740Y-97303639D01*
X123262171Y-97230591D01*
X123218530Y-97096275D01*
X123206212Y-97058363D01*
X123206211Y-97058360D01*
X123157948Y-96963641D01*
X123123996Y-96897006D01*
X123081467Y-96838469D01*
X123017558Y-96750505D01*
X123017554Y-96750500D01*
X122889499Y-96622445D01*
X122889494Y-96622441D01*
X122742997Y-96516006D01*
X122742996Y-96516005D01*
X122742994Y-96516004D01*
X122666906Y-96477235D01*
X122581639Y-96433788D01*
X122581636Y-96433787D01*
X122409410Y-96377829D01*
X122230551Y-96349500D01*
X122230546Y-96349500D01*
X122049454Y-96349500D01*
X122049449Y-96349500D01*
X121870589Y-96377829D01*
X121698363Y-96433787D01*
X121698360Y-96433788D01*
X121537002Y-96516006D01*
X121390505Y-96622441D01*
X121390500Y-96622445D01*
X121262445Y-96750500D01*
X121262441Y-96750505D01*
X121156006Y-96897002D01*
X121073788Y-97058360D01*
X121073787Y-97058363D01*
X121017829Y-97230589D01*
X120992473Y-97390678D01*
X120962544Y-97453813D01*
X120903232Y-97490744D01*
X120833369Y-97489746D01*
X120775137Y-97451136D01*
X120747527Y-97390678D01*
X120733740Y-97303639D01*
X120722171Y-97230591D01*
X120678530Y-97096275D01*
X120666212Y-97058363D01*
X120666211Y-97058360D01*
X120617948Y-96963641D01*
X120583996Y-96897006D01*
X120541467Y-96838469D01*
X120477558Y-96750505D01*
X120477554Y-96750500D01*
X120349499Y-96622445D01*
X120349494Y-96622441D01*
X120202997Y-96516006D01*
X120202996Y-96516005D01*
X120202994Y-96516004D01*
X120126906Y-96477235D01*
X120041639Y-96433788D01*
X120041636Y-96433787D01*
X119869410Y-96377829D01*
X119690551Y-96349500D01*
X119690546Y-96349500D01*
X119509454Y-96349500D01*
X119509449Y-96349500D01*
X119330589Y-96377829D01*
X119158363Y-96433787D01*
X119158360Y-96433788D01*
X118997002Y-96516006D01*
X118850505Y-96622441D01*
X118850500Y-96622445D01*
X118722445Y-96750500D01*
X118722441Y-96750505D01*
X118616006Y-96897002D01*
X118533788Y-97058360D01*
X118533787Y-97058363D01*
X118477829Y-97230589D01*
X118452473Y-97390678D01*
X118422544Y-97453813D01*
X118363232Y-97490744D01*
X118293369Y-97489746D01*
X118235137Y-97451136D01*
X118207527Y-97390678D01*
X118193740Y-97303639D01*
X118182171Y-97230591D01*
X118138530Y-97096275D01*
X118126212Y-97058363D01*
X118126211Y-97058360D01*
X118077948Y-96963641D01*
X118043996Y-96897006D01*
X118001467Y-96838469D01*
X117937558Y-96750505D01*
X117937554Y-96750500D01*
X117809499Y-96622445D01*
X117809494Y-96622441D01*
X117662997Y-96516006D01*
X117662996Y-96516005D01*
X117662994Y-96516004D01*
X117586906Y-96477235D01*
X117501639Y-96433788D01*
X117501636Y-96433787D01*
X117329410Y-96377829D01*
X117150551Y-96349500D01*
X117150546Y-96349500D01*
X116969454Y-96349500D01*
X116969449Y-96349500D01*
X116790589Y-96377829D01*
X116618363Y-96433787D01*
X116618360Y-96433788D01*
X116457002Y-96516006D01*
X116310505Y-96622441D01*
X116310500Y-96622445D01*
X116182445Y-96750500D01*
X116182441Y-96750505D01*
X116076006Y-96897002D01*
X115993788Y-97058360D01*
X115993787Y-97058363D01*
X115937829Y-97230589D01*
X115916972Y-97362271D01*
X115887042Y-97425405D01*
X115827731Y-97462336D01*
X115757868Y-97461338D01*
X115699636Y-97422728D01*
X115671522Y-97358764D01*
X115670499Y-97342872D01*
X115670499Y-96605143D01*
X115670499Y-96605136D01*
X115670497Y-96605117D01*
X115667586Y-96580012D01*
X115667585Y-96580010D01*
X115667585Y-96580009D01*
X115622206Y-96477235D01*
X115542765Y-96397794D01*
X115542763Y-96397793D01*
X115439992Y-96352415D01*
X115414865Y-96349500D01*
X113625143Y-96349500D01*
X113625117Y-96349502D01*
X113600012Y-96352413D01*
X113600008Y-96352415D01*
X113497235Y-96397793D01*
X113417794Y-96477234D01*
X113372415Y-96580006D01*
X113372415Y-96580008D01*
X113369500Y-96605131D01*
X98698801Y-96605131D01*
X98752759Y-96569077D01*
X99005595Y-96361580D01*
X99236875Y-96130300D01*
X99444372Y-95877464D01*
X99626088Y-95605508D01*
X99780272Y-95317049D01*
X99905440Y-95014867D01*
X100000386Y-94701872D01*
X100000388Y-94701862D01*
X100000391Y-94701851D01*
X100064196Y-94381076D01*
X100070380Y-94318285D01*
X100096255Y-94055573D01*
X100096255Y-93728493D01*
X100064196Y-93402989D01*
X100039731Y-93279993D01*
X100000391Y-93082214D01*
X100000388Y-93082203D01*
X100000387Y-93082200D01*
X100000386Y-93082194D01*
X99905440Y-92769199D01*
X99834819Y-92598706D01*
X99825112Y-92575270D01*
X99807140Y-92531882D01*
X99807134Y-92531868D01*
X161557770Y-92531868D01*
X161557770Y-92768131D01*
X161570184Y-92862417D01*
X161588607Y-93002352D01*
X161649752Y-93230551D01*
X161649755Y-93230558D01*
X161740157Y-93448809D01*
X161740162Y-93448819D01*
X161858284Y-93653413D01*
X162002102Y-93840840D01*
X162002108Y-93840847D01*
X162169152Y-94007891D01*
X162169159Y-94007897D01*
X162356586Y-94151715D01*
X162561180Y-94269837D01*
X162561190Y-94269842D01*
X162654726Y-94308585D01*
X162779449Y-94360248D01*
X163007648Y-94421393D01*
X163241876Y-94452230D01*
X163241883Y-94452230D01*
X163478117Y-94452230D01*
X163478124Y-94452230D01*
X163712352Y-94421393D01*
X163940551Y-94360248D01*
X164158816Y-94269839D01*
X164363414Y-94151715D01*
X164550842Y-94007896D01*
X164717896Y-93840842D01*
X164861715Y-93653414D01*
X164979839Y-93448816D01*
X165070248Y-93230551D01*
X165131393Y-93002352D01*
X165162230Y-92768124D01*
X165162230Y-92581995D01*
X181859500Y-92581995D01*
X181859500Y-92818004D01*
X181859501Y-92818020D01*
X181890306Y-93052010D01*
X181951394Y-93279993D01*
X182041714Y-93498045D01*
X182041719Y-93498056D01*
X182112677Y-93620957D01*
X182159727Y-93702450D01*
X182159729Y-93702453D01*
X182159730Y-93702454D01*
X182303406Y-93889697D01*
X182303412Y-93889704D01*
X182470295Y-94056587D01*
X182470301Y-94056592D01*
X182657550Y-94200273D01*
X182778042Y-94269839D01*
X182861943Y-94318280D01*
X182861948Y-94318282D01*
X182861951Y-94318284D01*
X183080007Y-94408606D01*
X183307986Y-94469693D01*
X183541989Y-94500500D01*
X183541996Y-94500500D01*
X183778004Y-94500500D01*
X183778011Y-94500500D01*
X184012014Y-94469693D01*
X184239993Y-94408606D01*
X184458049Y-94318284D01*
X184662450Y-94200273D01*
X184849699Y-94056592D01*
X185016592Y-93889699D01*
X185160273Y-93702450D01*
X185183633Y-93661990D01*
X189436425Y-93661990D01*
X189436425Y-93673276D01*
X189436425Y-93989070D01*
X189442975Y-94055569D01*
X189468483Y-94314573D01*
X189532288Y-94635348D01*
X189532291Y-94635359D01*
X189627240Y-94948365D01*
X189725407Y-95185360D01*
X189752408Y-95250546D01*
X189787958Y-95317056D01*
X189906585Y-95538993D01*
X189906596Y-95539011D01*
X190088302Y-95810952D01*
X190088312Y-95810966D01*
X190295809Y-96063802D01*
X190527079Y-96295072D01*
X190527084Y-96295076D01*
X190527085Y-96295077D01*
X190779921Y-96502574D01*
X191051877Y-96684290D01*
X191340336Y-96838474D01*
X191642518Y-96963642D01*
X191955513Y-97058588D01*
X191955519Y-97058589D01*
X191955522Y-97058590D01*
X191955533Y-97058593D01*
X192276308Y-97122398D01*
X192601812Y-97154457D01*
X192601815Y-97154457D01*
X192928889Y-97154457D01*
X192928892Y-97154457D01*
X193254396Y-97122398D01*
X193316842Y-97109976D01*
X193575170Y-97058593D01*
X193575181Y-97058590D01*
X193575181Y-97058589D01*
X193575191Y-97058588D01*
X193888186Y-96963642D01*
X194190368Y-96838474D01*
X194478827Y-96684290D01*
X194750783Y-96502574D01*
X195003619Y-96295077D01*
X195234899Y-96063797D01*
X195442396Y-95810961D01*
X195624112Y-95539005D01*
X195778296Y-95250546D01*
X195903464Y-94948364D01*
X195998410Y-94635369D01*
X195998412Y-94635359D01*
X195998415Y-94635348D01*
X196062220Y-94314573D01*
X196066626Y-94269837D01*
X196094279Y-93989070D01*
X196094279Y-93661990D01*
X196062220Y-93336486D01*
X196041150Y-93230558D01*
X195998415Y-93015711D01*
X195998412Y-93015700D01*
X195998411Y-93015697D01*
X195998410Y-93015691D01*
X195903464Y-92702696D01*
X195778296Y-92400514D01*
X195639960Y-92141705D01*
X195624118Y-92112066D01*
X195624117Y-92112064D01*
X195624112Y-92112055D01*
X195442396Y-91840099D01*
X195234899Y-91587263D01*
X195234898Y-91587262D01*
X195234894Y-91587257D01*
X195003624Y-91355987D01*
X194750788Y-91148490D01*
X194750787Y-91148489D01*
X194750783Y-91148486D01*
X194478827Y-90966770D01*
X194478822Y-90966767D01*
X194478815Y-90966763D01*
X194190375Y-90812590D01*
X194190368Y-90812586D01*
X194190361Y-90812583D01*
X193888187Y-90687418D01*
X193575181Y-90592469D01*
X193575170Y-90592466D01*
X193254395Y-90528661D01*
X193009239Y-90504516D01*
X192928892Y-90496603D01*
X192601812Y-90496603D01*
X192527573Y-90503914D01*
X192276308Y-90528661D01*
X191955533Y-90592466D01*
X191955522Y-90592469D01*
X191642516Y-90687418D01*
X191340342Y-90812583D01*
X191340328Y-90812590D01*
X191051888Y-90966763D01*
X191051870Y-90966774D01*
X190779929Y-91148480D01*
X190779915Y-91148490D01*
X190527079Y-91355987D01*
X190295809Y-91587257D01*
X190088312Y-91840093D01*
X190088302Y-91840107D01*
X189906596Y-92112048D01*
X189906585Y-92112066D01*
X189752412Y-92400506D01*
X189752405Y-92400520D01*
X189627240Y-92702694D01*
X189532291Y-93015700D01*
X189532288Y-93015711D01*
X189468483Y-93336486D01*
X189452571Y-93498056D01*
X189436425Y-93661990D01*
X185183633Y-93661990D01*
X185278284Y-93498049D01*
X185368606Y-93279993D01*
X185429693Y-93052014D01*
X185460500Y-92818011D01*
X185460500Y-92581989D01*
X185429693Y-92347986D01*
X185368606Y-92120007D01*
X185278284Y-91901951D01*
X185278282Y-91901948D01*
X185278280Y-91901943D01*
X185207583Y-91779494D01*
X185160273Y-91697550D01*
X185016592Y-91510301D01*
X185016587Y-91510295D01*
X184849704Y-91343412D01*
X184849697Y-91343406D01*
X184662454Y-91199730D01*
X184662453Y-91199729D01*
X184662450Y-91199727D01*
X184573348Y-91148284D01*
X184458056Y-91081719D01*
X184458045Y-91081714D01*
X184239993Y-90991394D01*
X184047263Y-90939752D01*
X184012014Y-90930307D01*
X184012013Y-90930306D01*
X184012010Y-90930306D01*
X183778020Y-90899501D01*
X183778017Y-90899500D01*
X183778011Y-90899500D01*
X183541989Y-90899500D01*
X183541983Y-90899500D01*
X183541979Y-90899501D01*
X183307989Y-90930306D01*
X183080006Y-90991394D01*
X182861954Y-91081714D01*
X182861943Y-91081719D01*
X182657545Y-91199730D01*
X182470302Y-91343406D01*
X182470295Y-91343412D01*
X182303412Y-91510295D01*
X182303406Y-91510302D01*
X182159730Y-91697545D01*
X182041719Y-91901943D01*
X182041714Y-91901954D01*
X181951394Y-92120006D01*
X181890306Y-92347989D01*
X181859501Y-92581979D01*
X181859500Y-92581995D01*
X165162230Y-92581995D01*
X165162230Y-92531876D01*
X165131393Y-92297648D01*
X165070248Y-92069449D01*
X165003190Y-91907558D01*
X164979842Y-91851190D01*
X164979837Y-91851180D01*
X164861715Y-91646586D01*
X164717897Y-91459159D01*
X164717891Y-91459152D01*
X164550847Y-91292108D01*
X164550840Y-91292102D01*
X164363413Y-91148284D01*
X164158819Y-91030162D01*
X164158809Y-91030157D01*
X163940558Y-90939755D01*
X163940559Y-90939755D01*
X163940551Y-90939752D01*
X163939416Y-90939448D01*
X163892315Y-90926827D01*
X163712352Y-90878607D01*
X163673207Y-90873453D01*
X163478131Y-90847770D01*
X163478124Y-90847770D01*
X163241876Y-90847770D01*
X163241868Y-90847770D01*
X163018923Y-90877122D01*
X163007648Y-90878607D01*
X162931581Y-90898988D01*
X162779455Y-90939750D01*
X162779441Y-90939755D01*
X162561190Y-91030157D01*
X162561180Y-91030162D01*
X162356586Y-91148284D01*
X162169159Y-91292102D01*
X162169152Y-91292108D01*
X162002108Y-91459152D01*
X162002102Y-91459159D01*
X161858284Y-91646586D01*
X161740162Y-91851180D01*
X161740157Y-91851190D01*
X161649755Y-92069441D01*
X161649750Y-92069455D01*
X161588608Y-92297645D01*
X161588606Y-92297656D01*
X161557770Y-92531868D01*
X99807134Y-92531868D01*
X99780272Y-92467017D01*
X99626088Y-92178558D01*
X99444372Y-91906602D01*
X99236875Y-91653766D01*
X99236874Y-91653765D01*
X99236870Y-91653760D01*
X99005600Y-91422490D01*
X98752764Y-91214993D01*
X98752763Y-91214992D01*
X98752759Y-91214989D01*
X98487390Y-91037674D01*
X98480813Y-91033279D01*
X98480791Y-91033266D01*
X98305268Y-90939448D01*
X114379500Y-90939448D01*
X114379500Y-91120551D01*
X114407829Y-91299410D01*
X114463787Y-91471636D01*
X114463788Y-91471639D01*
X114546006Y-91632997D01*
X114652441Y-91779494D01*
X114652445Y-91779499D01*
X114780500Y-91907554D01*
X114780505Y-91907558D01*
X114900728Y-91994904D01*
X114927006Y-92013996D01*
X115032484Y-92067740D01*
X115088360Y-92096211D01*
X115088363Y-92096212D01*
X115137158Y-92112066D01*
X115260591Y-92152171D01*
X115343429Y-92165291D01*
X115439449Y-92180500D01*
X115439454Y-92180500D01*
X115620551Y-92180500D01*
X115707259Y-92166765D01*
X115799409Y-92152171D01*
X115971639Y-92096211D01*
X116132994Y-92013996D01*
X116279501Y-91907553D01*
X116407553Y-91779501D01*
X116513996Y-91632994D01*
X116596211Y-91471639D01*
X116652171Y-91299409D01*
X116667959Y-91199727D01*
X116680500Y-91120551D01*
X116680500Y-90939448D01*
X116660406Y-90812586D01*
X116652171Y-90760591D01*
X116598422Y-90595165D01*
X116596212Y-90588363D01*
X116596211Y-90588360D01*
X116565792Y-90528661D01*
X116513996Y-90427006D01*
X116500396Y-90408287D01*
X116407558Y-90280505D01*
X116407554Y-90280500D01*
X116279499Y-90152445D01*
X116279494Y-90152441D01*
X116132997Y-90046006D01*
X116132996Y-90046005D01*
X116132994Y-90046004D01*
X116070169Y-90013993D01*
X115971639Y-89963788D01*
X115971636Y-89963787D01*
X115799410Y-89907829D01*
X115620551Y-89879500D01*
X115620546Y-89879500D01*
X115439454Y-89879500D01*
X115439449Y-89879500D01*
X115260589Y-89907829D01*
X115088363Y-89963787D01*
X115088360Y-89963788D01*
X114927002Y-90046006D01*
X114780505Y-90152441D01*
X114780500Y-90152445D01*
X114652445Y-90280500D01*
X114652441Y-90280505D01*
X114546006Y-90427002D01*
X114463788Y-90588360D01*
X114463787Y-90588363D01*
X114407829Y-90760589D01*
X114379500Y-90939448D01*
X98305268Y-90939448D01*
X98192351Y-90879093D01*
X98192344Y-90879089D01*
X98191183Y-90878608D01*
X97890163Y-90753921D01*
X97577157Y-90658972D01*
X97577146Y-90658969D01*
X97256371Y-90595164D01*
X97011215Y-90571019D01*
X96930868Y-90563106D01*
X96603788Y-90563106D01*
X96529549Y-90570417D01*
X96278284Y-90595164D01*
X95957509Y-90658969D01*
X95957498Y-90658972D01*
X95644492Y-90753921D01*
X95342318Y-90879086D01*
X95342304Y-90879093D01*
X95053864Y-91033266D01*
X95053846Y-91033277D01*
X94781905Y-91214983D01*
X94781891Y-91214993D01*
X94529055Y-91422490D01*
X94297785Y-91653760D01*
X94090288Y-91906596D01*
X94090278Y-91906610D01*
X93908572Y-92178551D01*
X93908561Y-92178569D01*
X93754388Y-92467009D01*
X93754381Y-92467023D01*
X93629216Y-92769197D01*
X93534267Y-93082203D01*
X93534264Y-93082214D01*
X93470459Y-93402989D01*
X93451357Y-93596943D01*
X93438401Y-93728493D01*
X91000500Y-93728493D01*
X91000500Y-88939448D01*
X107529500Y-88939448D01*
X107529500Y-89120551D01*
X107557829Y-89299410D01*
X107613787Y-89471636D01*
X107613788Y-89471639D01*
X107696006Y-89632997D01*
X107802441Y-89779494D01*
X107802445Y-89779499D01*
X107930500Y-89907554D01*
X107930505Y-89907558D01*
X108058287Y-90000396D01*
X108077006Y-90013996D01*
X108182484Y-90067740D01*
X108238360Y-90096211D01*
X108238363Y-90096212D01*
X108324476Y-90124191D01*
X108410591Y-90152171D01*
X108493429Y-90165291D01*
X108589449Y-90180500D01*
X108589454Y-90180500D01*
X109970551Y-90180500D01*
X110057259Y-90166765D01*
X110149409Y-90152171D01*
X110321639Y-90096211D01*
X110482994Y-90013996D01*
X110629501Y-89907553D01*
X110757553Y-89779501D01*
X110863996Y-89632994D01*
X110946211Y-89471639D01*
X111002171Y-89299409D01*
X111016765Y-89207259D01*
X111030500Y-89120551D01*
X111030500Y-88939448D01*
X120029500Y-88939448D01*
X120029500Y-89120551D01*
X120057829Y-89299410D01*
X120113787Y-89471636D01*
X120113788Y-89471639D01*
X120196006Y-89632997D01*
X120302441Y-89779494D01*
X120302445Y-89779499D01*
X120430500Y-89907554D01*
X120430505Y-89907558D01*
X120558287Y-90000396D01*
X120577006Y-90013996D01*
X120682484Y-90067740D01*
X120738360Y-90096211D01*
X120738363Y-90096212D01*
X120824476Y-90124191D01*
X120910591Y-90152171D01*
X120993429Y-90165291D01*
X121089449Y-90180500D01*
X121089454Y-90180500D01*
X122470551Y-90180500D01*
X122557259Y-90166765D01*
X122649409Y-90152171D01*
X122821639Y-90096211D01*
X122982994Y-90013996D01*
X123129501Y-89907553D01*
X123257553Y-89779501D01*
X123363996Y-89632994D01*
X123446211Y-89471639D01*
X123502171Y-89299409D01*
X123516765Y-89207259D01*
X123530500Y-89120551D01*
X123530500Y-88939448D01*
X123511067Y-88816757D01*
X123502171Y-88760591D01*
X123465454Y-88647585D01*
X123446212Y-88588363D01*
X123446211Y-88588360D01*
X123393034Y-88483996D01*
X123363996Y-88427006D01*
X123334660Y-88386628D01*
X123257558Y-88280505D01*
X123257554Y-88280500D01*
X123129499Y-88152445D01*
X123129494Y-88152441D01*
X122982997Y-88046006D01*
X122982996Y-88046005D01*
X122982994Y-88046004D01*
X122892707Y-88000000D01*
X122821639Y-87963788D01*
X122821636Y-87963787D01*
X122649410Y-87907829D01*
X122470551Y-87879500D01*
X122470546Y-87879500D01*
X121089454Y-87879500D01*
X121089449Y-87879500D01*
X120910589Y-87907829D01*
X120738363Y-87963787D01*
X120738360Y-87963788D01*
X120577002Y-88046006D01*
X120430505Y-88152441D01*
X120430500Y-88152445D01*
X120302445Y-88280500D01*
X120302441Y-88280505D01*
X120196006Y-88427002D01*
X120113788Y-88588360D01*
X120113787Y-88588363D01*
X120057829Y-88760589D01*
X120029500Y-88939448D01*
X111030500Y-88939448D01*
X111011067Y-88816757D01*
X111002171Y-88760591D01*
X110965454Y-88647585D01*
X110946212Y-88588363D01*
X110946211Y-88588360D01*
X110893034Y-88483996D01*
X110863996Y-88427006D01*
X110834660Y-88386628D01*
X110757558Y-88280505D01*
X110757554Y-88280500D01*
X110629499Y-88152445D01*
X110629494Y-88152441D01*
X110482997Y-88046006D01*
X110482996Y-88046005D01*
X110482994Y-88046004D01*
X110392707Y-88000000D01*
X110321639Y-87963788D01*
X110321636Y-87963787D01*
X110149410Y-87907829D01*
X109970551Y-87879500D01*
X109970546Y-87879500D01*
X108589454Y-87879500D01*
X108589449Y-87879500D01*
X108410589Y-87907829D01*
X108238363Y-87963787D01*
X108238360Y-87963788D01*
X108077002Y-88046006D01*
X107930505Y-88152441D01*
X107930500Y-88152445D01*
X107802445Y-88280500D01*
X107802441Y-88280505D01*
X107696006Y-88427002D01*
X107613788Y-88588360D01*
X107613787Y-88588363D01*
X107557829Y-88760589D01*
X107529500Y-88939448D01*
X91000500Y-88939448D01*
X91000500Y-86582155D01*
X133825000Y-86582155D01*
X133825000Y-87280000D01*
X134849722Y-87280000D01*
X134805667Y-87356306D01*
X134775000Y-87470756D01*
X134775000Y-87589244D01*
X134805667Y-87703694D01*
X134849722Y-87780000D01*
X133825000Y-87780000D01*
X133825000Y-88477844D01*
X133831401Y-88537372D01*
X133831403Y-88537379D01*
X133881645Y-88672086D01*
X133881649Y-88672093D01*
X133967809Y-88787187D01*
X133967812Y-88787190D01*
X134082906Y-88873350D01*
X134082913Y-88873354D01*
X134217620Y-88923596D01*
X134217627Y-88923598D01*
X134277155Y-88929999D01*
X134277172Y-88930000D01*
X134975000Y-88930000D01*
X134975000Y-87905277D01*
X135051306Y-87949333D01*
X135165756Y-87980000D01*
X135284244Y-87980000D01*
X135398694Y-87949333D01*
X135475000Y-87905277D01*
X135475000Y-88930000D01*
X136172828Y-88930000D01*
X136172844Y-88929999D01*
X136232372Y-88923598D01*
X136232379Y-88923596D01*
X136367086Y-88873354D01*
X136367093Y-88873350D01*
X136482187Y-88787190D01*
X136482190Y-88787187D01*
X136568350Y-88672093D01*
X136568354Y-88672086D01*
X136618596Y-88537379D01*
X136618598Y-88537372D01*
X136624999Y-88477844D01*
X136625000Y-88477827D01*
X136625000Y-88384969D01*
X136644685Y-88317930D01*
X136697489Y-88272175D01*
X136766647Y-88262231D01*
X136830203Y-88291256D01*
X136846012Y-88308481D01*
X136846146Y-88308368D01*
X136849308Y-88312070D01*
X136849310Y-88312073D01*
X136982927Y-88445690D01*
X137135801Y-88556760D01*
X137154350Y-88566211D01*
X137304163Y-88642545D01*
X137304165Y-88642545D01*
X137304168Y-88642547D01*
X137395079Y-88672086D01*
X137483881Y-88700940D01*
X137670514Y-88730500D01*
X137670519Y-88730500D01*
X137859486Y-88730500D01*
X138046118Y-88700940D01*
X138225832Y-88642547D01*
X138394199Y-88556760D01*
X138547073Y-88445690D01*
X138680690Y-88312073D01*
X138791760Y-88159199D01*
X138877547Y-87990832D01*
X138935940Y-87811118D01*
X138936702Y-87806306D01*
X138965500Y-87624486D01*
X138965500Y-87598543D01*
X141189499Y-87598543D01*
X141227947Y-87791829D01*
X141227950Y-87791839D01*
X141303364Y-87973907D01*
X141303371Y-87973920D01*
X141412860Y-88137781D01*
X141412863Y-88137785D01*
X141552214Y-88277136D01*
X141552218Y-88277139D01*
X141716079Y-88386628D01*
X141716092Y-88386635D01*
X141898160Y-88462049D01*
X141898165Y-88462051D01*
X141898169Y-88462051D01*
X141898170Y-88462052D01*
X142091456Y-88500500D01*
X142091459Y-88500500D01*
X142288543Y-88500500D01*
X142453476Y-88467692D01*
X142481835Y-88462051D01*
X142643997Y-88394882D01*
X142663907Y-88386635D01*
X142663907Y-88386634D01*
X142663914Y-88386632D01*
X142827782Y-88277139D01*
X142967139Y-88137782D01*
X143076632Y-87973914D01*
X143152051Y-87791835D01*
X143185340Y-87624481D01*
X143190500Y-87598543D01*
X148809499Y-87598543D01*
X148847947Y-87791829D01*
X148847950Y-87791839D01*
X148923364Y-87973907D01*
X148923371Y-87973920D01*
X149032860Y-88137781D01*
X149032863Y-88137785D01*
X149172214Y-88277136D01*
X149172218Y-88277139D01*
X149336079Y-88386628D01*
X149336092Y-88386635D01*
X149518160Y-88462049D01*
X149518165Y-88462051D01*
X149518169Y-88462051D01*
X149518170Y-88462052D01*
X149711456Y-88500500D01*
X149711459Y-88500500D01*
X149908543Y-88500500D01*
X150073476Y-88467692D01*
X150101835Y-88462051D01*
X150263997Y-88394882D01*
X150283907Y-88386635D01*
X150283907Y-88386634D01*
X150283914Y-88386632D01*
X150447782Y-88277139D01*
X150587139Y-88137782D01*
X150696632Y-87973914D01*
X150772051Y-87791835D01*
X150805340Y-87624481D01*
X150810500Y-87598543D01*
X150810500Y-87401456D01*
X150772052Y-87208170D01*
X150772051Y-87208169D01*
X150772051Y-87208165D01*
X150761987Y-87183869D01*
X150696635Y-87026092D01*
X150696628Y-87026079D01*
X150587139Y-86862218D01*
X150587136Y-86862214D01*
X150447785Y-86722863D01*
X150447781Y-86722860D01*
X150420537Y-86704656D01*
X150283920Y-86613371D01*
X150283907Y-86613364D01*
X150264031Y-86605131D01*
X165809500Y-86605131D01*
X165809500Y-88394856D01*
X165809502Y-88394882D01*
X165812413Y-88419987D01*
X165812415Y-88419991D01*
X165857793Y-88522764D01*
X165857794Y-88522765D01*
X165937235Y-88602206D01*
X166040009Y-88647585D01*
X166065135Y-88650500D01*
X167854864Y-88650499D01*
X167854879Y-88650497D01*
X167854882Y-88650497D01*
X167879987Y-88647586D01*
X167879988Y-88647585D01*
X167879991Y-88647585D01*
X167982765Y-88602206D01*
X168062206Y-88522765D01*
X168107585Y-88419991D01*
X168110500Y-88394865D01*
X168110499Y-87657125D01*
X168130183Y-87590089D01*
X168182987Y-87544334D01*
X168252146Y-87534390D01*
X168315702Y-87563415D01*
X168353476Y-87622193D01*
X168356972Y-87637729D01*
X168377829Y-87769410D01*
X168433787Y-87941636D01*
X168433788Y-87941639D01*
X168516006Y-88102997D01*
X168622441Y-88249494D01*
X168622445Y-88249499D01*
X168750500Y-88377554D01*
X168750505Y-88377558D01*
X168874565Y-88467692D01*
X168897006Y-88483996D01*
X168973094Y-88522765D01*
X169058360Y-88566211D01*
X169058363Y-88566212D01*
X169126530Y-88588360D01*
X169230591Y-88622171D01*
X169313429Y-88635291D01*
X169409449Y-88650500D01*
X169409454Y-88650500D01*
X169590551Y-88650500D01*
X169677259Y-88636765D01*
X169769409Y-88622171D01*
X169941639Y-88566211D01*
X170102994Y-88483996D01*
X170249501Y-88377553D01*
X170377553Y-88249501D01*
X170483996Y-88102994D01*
X170566211Y-87941639D01*
X170622171Y-87769409D01*
X170636422Y-87679425D01*
X170647527Y-87609321D01*
X170677456Y-87546186D01*
X170736768Y-87509255D01*
X170806630Y-87510253D01*
X170864863Y-87548863D01*
X170892473Y-87609321D01*
X170917829Y-87769410D01*
X170973787Y-87941636D01*
X170973788Y-87941639D01*
X171056006Y-88102997D01*
X171162441Y-88249494D01*
X171162445Y-88249499D01*
X171290500Y-88377554D01*
X171290505Y-88377558D01*
X171414565Y-88467692D01*
X171437006Y-88483996D01*
X171513094Y-88522765D01*
X171598360Y-88566211D01*
X171598363Y-88566212D01*
X171666530Y-88588360D01*
X171770591Y-88622171D01*
X171853429Y-88635291D01*
X171949449Y-88650500D01*
X171949454Y-88650500D01*
X172130551Y-88650500D01*
X172217259Y-88636765D01*
X172309409Y-88622171D01*
X172481639Y-88566211D01*
X172642994Y-88483996D01*
X172789501Y-88377553D01*
X172917553Y-88249501D01*
X173023996Y-88102994D01*
X173106211Y-87941639D01*
X173162171Y-87769409D01*
X173176422Y-87679425D01*
X173187527Y-87609321D01*
X173217456Y-87546186D01*
X173276768Y-87509255D01*
X173346630Y-87510253D01*
X173404863Y-87548863D01*
X173432473Y-87609321D01*
X173457829Y-87769410D01*
X173513787Y-87941636D01*
X173513788Y-87941639D01*
X173596006Y-88102997D01*
X173702441Y-88249494D01*
X173702445Y-88249499D01*
X173830500Y-88377554D01*
X173830505Y-88377558D01*
X173954565Y-88467692D01*
X173977006Y-88483996D01*
X174053094Y-88522765D01*
X174138360Y-88566211D01*
X174138363Y-88566212D01*
X174206530Y-88588360D01*
X174310591Y-88622171D01*
X174393429Y-88635291D01*
X174489449Y-88650500D01*
X174489454Y-88650500D01*
X174670551Y-88650500D01*
X174757259Y-88636765D01*
X174849409Y-88622171D01*
X175021639Y-88566211D01*
X175182994Y-88483996D01*
X175305669Y-88394868D01*
X175329495Y-88377558D01*
X175329497Y-88377555D01*
X175329501Y-88377553D01*
X175457553Y-88249501D01*
X175563996Y-88102994D01*
X175631090Y-87971314D01*
X175679065Y-87920519D01*
X175746886Y-87903724D01*
X175813021Y-87926262D01*
X175856472Y-87980977D01*
X175859506Y-87989292D01*
X175868904Y-88018217D01*
X175965375Y-88207550D01*
X176004728Y-88261716D01*
X176637037Y-87629408D01*
X176654075Y-87692993D01*
X176719901Y-87807007D01*
X176812993Y-87900099D01*
X176927007Y-87965925D01*
X176990590Y-87982962D01*
X176358282Y-88615269D01*
X176358282Y-88615270D01*
X176412449Y-88654624D01*
X176601782Y-88751095D01*
X176803870Y-88816757D01*
X177013754Y-88850000D01*
X177226246Y-88850000D01*
X177436127Y-88816757D01*
X177436130Y-88816757D01*
X177638217Y-88751095D01*
X177827554Y-88654622D01*
X177881716Y-88615270D01*
X177881717Y-88615270D01*
X177249408Y-87982962D01*
X177312993Y-87965925D01*
X177427007Y-87900099D01*
X177520099Y-87807007D01*
X177585925Y-87692993D01*
X177602962Y-87629408D01*
X178235270Y-88261717D01*
X178235270Y-88261716D01*
X178274622Y-88207554D01*
X178371095Y-88018217D01*
X178436757Y-87816130D01*
X178436757Y-87816127D01*
X178470000Y-87606246D01*
X178470000Y-87393753D01*
X178436757Y-87183872D01*
X178436757Y-87183869D01*
X178371095Y-86981782D01*
X178274624Y-86792449D01*
X178235270Y-86738282D01*
X178235269Y-86738282D01*
X177602962Y-87370590D01*
X177585925Y-87307007D01*
X177520099Y-87192993D01*
X177427007Y-87099901D01*
X177312993Y-87034075D01*
X177249409Y-87017037D01*
X177881716Y-86384728D01*
X177827550Y-86345375D01*
X177638217Y-86248904D01*
X177436129Y-86183242D01*
X177226246Y-86150000D01*
X177013754Y-86150000D01*
X176803872Y-86183242D01*
X176803869Y-86183242D01*
X176601782Y-86248904D01*
X176412439Y-86345380D01*
X176358282Y-86384727D01*
X176358282Y-86384728D01*
X176990591Y-87017037D01*
X176927007Y-87034075D01*
X176812993Y-87099901D01*
X176719901Y-87192993D01*
X176654075Y-87307007D01*
X176637037Y-87370591D01*
X176004728Y-86738282D01*
X176004727Y-86738282D01*
X175965380Y-86792439D01*
X175868905Y-86981781D01*
X175859506Y-87010708D01*
X175820068Y-87068383D01*
X175755709Y-87095581D01*
X175686862Y-87083666D01*
X175635387Y-87036421D01*
X175631090Y-87028684D01*
X175607191Y-86981781D01*
X175563996Y-86897006D01*
X175491016Y-86796557D01*
X175457558Y-86750505D01*
X175457554Y-86750500D01*
X175329499Y-86622445D01*
X175329494Y-86622441D01*
X175205432Y-86532305D01*
X175182996Y-86516005D01*
X175021639Y-86433788D01*
X175021636Y-86433787D01*
X174849410Y-86377829D01*
X174670551Y-86349500D01*
X174670546Y-86349500D01*
X174489454Y-86349500D01*
X174489449Y-86349500D01*
X174310589Y-86377829D01*
X174138363Y-86433787D01*
X174138360Y-86433788D01*
X173977002Y-86516006D01*
X173830505Y-86622441D01*
X173830500Y-86622445D01*
X173702445Y-86750500D01*
X173702441Y-86750505D01*
X173596006Y-86897002D01*
X173513788Y-87058360D01*
X173513787Y-87058363D01*
X173457829Y-87230589D01*
X173432473Y-87390678D01*
X173402544Y-87453813D01*
X173343232Y-87490744D01*
X173273369Y-87489746D01*
X173215137Y-87451136D01*
X173187527Y-87390678D01*
X173173740Y-87303639D01*
X173162171Y-87230591D01*
X173119708Y-87099901D01*
X173106212Y-87058363D01*
X173106211Y-87058360D01*
X173067191Y-86981781D01*
X173023996Y-86897006D01*
X172951016Y-86796557D01*
X172917558Y-86750505D01*
X172917554Y-86750500D01*
X172789499Y-86622445D01*
X172789494Y-86622441D01*
X172642997Y-86516006D01*
X172642996Y-86516005D01*
X172642994Y-86516004D01*
X172566906Y-86477235D01*
X172481639Y-86433788D01*
X172481636Y-86433787D01*
X172309410Y-86377829D01*
X172130551Y-86349500D01*
X172130546Y-86349500D01*
X171949454Y-86349500D01*
X171949449Y-86349500D01*
X171770589Y-86377829D01*
X171598363Y-86433787D01*
X171598360Y-86433788D01*
X171437002Y-86516006D01*
X171290505Y-86622441D01*
X171290500Y-86622445D01*
X171162445Y-86750500D01*
X171162441Y-86750505D01*
X171056006Y-86897002D01*
X170973788Y-87058360D01*
X170973787Y-87058363D01*
X170917829Y-87230589D01*
X170892473Y-87390678D01*
X170862544Y-87453813D01*
X170803232Y-87490744D01*
X170733369Y-87489746D01*
X170675137Y-87451136D01*
X170647527Y-87390678D01*
X170633740Y-87303639D01*
X170622171Y-87230591D01*
X170579708Y-87099901D01*
X170566212Y-87058363D01*
X170566211Y-87058360D01*
X170527191Y-86981781D01*
X170483996Y-86897006D01*
X170411016Y-86796557D01*
X170377558Y-86750505D01*
X170377554Y-86750500D01*
X170249499Y-86622445D01*
X170249494Y-86622441D01*
X170102997Y-86516006D01*
X170102996Y-86516005D01*
X170102994Y-86516004D01*
X170026906Y-86477235D01*
X169941639Y-86433788D01*
X169941636Y-86433787D01*
X169769410Y-86377829D01*
X169590551Y-86349500D01*
X169590546Y-86349500D01*
X169409454Y-86349500D01*
X169409449Y-86349500D01*
X169230589Y-86377829D01*
X169058363Y-86433787D01*
X169058360Y-86433788D01*
X168897002Y-86516006D01*
X168750505Y-86622441D01*
X168750500Y-86622445D01*
X168622445Y-86750500D01*
X168622441Y-86750505D01*
X168516006Y-86897002D01*
X168433788Y-87058360D01*
X168433787Y-87058363D01*
X168377829Y-87230589D01*
X168356972Y-87362271D01*
X168327042Y-87425405D01*
X168267731Y-87462336D01*
X168197868Y-87461338D01*
X168139636Y-87422728D01*
X168111522Y-87358764D01*
X168110499Y-87342872D01*
X168110499Y-86605143D01*
X168110499Y-86605136D01*
X168107834Y-86582155D01*
X168107586Y-86580012D01*
X168107585Y-86580010D01*
X168107585Y-86580009D01*
X168062206Y-86477235D01*
X167982765Y-86397794D01*
X167960371Y-86387906D01*
X167879992Y-86352415D01*
X167854865Y-86349500D01*
X166065143Y-86349500D01*
X166065117Y-86349502D01*
X166040012Y-86352413D01*
X166040008Y-86352415D01*
X165937235Y-86397793D01*
X165857794Y-86477234D01*
X165812415Y-86580006D01*
X165812415Y-86580008D01*
X165809500Y-86605131D01*
X150264031Y-86605131D01*
X150101839Y-86537950D01*
X150101829Y-86537947D01*
X149908543Y-86499500D01*
X149908541Y-86499500D01*
X149711459Y-86499500D01*
X149711457Y-86499500D01*
X149518170Y-86537947D01*
X149518160Y-86537950D01*
X149336092Y-86613364D01*
X149336079Y-86613371D01*
X149172218Y-86722860D01*
X149172214Y-86722863D01*
X149032863Y-86862214D01*
X149032860Y-86862218D01*
X148923371Y-87026079D01*
X148923364Y-87026092D01*
X148847950Y-87208160D01*
X148847947Y-87208170D01*
X148809500Y-87401456D01*
X148809500Y-87401459D01*
X148809500Y-87598541D01*
X148809500Y-87598543D01*
X148809499Y-87598543D01*
X143190500Y-87598543D01*
X143190500Y-87401456D01*
X143152052Y-87208170D01*
X143152051Y-87208169D01*
X143152051Y-87208165D01*
X143141987Y-87183869D01*
X143076635Y-87026092D01*
X143076628Y-87026079D01*
X142967139Y-86862218D01*
X142967136Y-86862214D01*
X142827785Y-86722863D01*
X142827781Y-86722860D01*
X142663920Y-86613371D01*
X142663907Y-86613364D01*
X142481839Y-86537950D01*
X142481829Y-86537947D01*
X142288543Y-86499500D01*
X142288541Y-86499500D01*
X142091459Y-86499500D01*
X142091457Y-86499500D01*
X141898170Y-86537947D01*
X141898160Y-86537950D01*
X141716092Y-86613364D01*
X141716079Y-86613371D01*
X141552218Y-86722860D01*
X141552214Y-86722863D01*
X141412863Y-86862214D01*
X141412860Y-86862218D01*
X141303371Y-87026079D01*
X141303364Y-87026092D01*
X141227950Y-87208160D01*
X141227947Y-87208170D01*
X141189500Y-87401456D01*
X141189500Y-87401459D01*
X141189500Y-87598541D01*
X141189500Y-87598543D01*
X141189499Y-87598543D01*
X138965500Y-87598543D01*
X138965500Y-87435518D01*
X138962213Y-87414764D01*
X138962213Y-87414761D01*
X138935940Y-87248881D01*
X138886129Y-87095581D01*
X138877547Y-87069168D01*
X138877545Y-87069165D01*
X138877545Y-87069163D01*
X138791759Y-86900800D01*
X138680690Y-86747927D01*
X138547073Y-86614310D01*
X138394199Y-86503240D01*
X138386859Y-86499500D01*
X138225836Y-86417454D01*
X138046118Y-86359059D01*
X137859486Y-86329500D01*
X137859481Y-86329500D01*
X137670519Y-86329500D01*
X137670514Y-86329500D01*
X137483881Y-86359059D01*
X137304163Y-86417454D01*
X137135800Y-86503240D01*
X137088031Y-86537947D01*
X136982927Y-86614310D01*
X136982925Y-86614312D01*
X136982924Y-86614312D01*
X136849312Y-86747924D01*
X136846146Y-86751632D01*
X136845367Y-86750966D01*
X136793975Y-86790586D01*
X136724361Y-86796557D01*
X136662570Y-86763944D01*
X136628219Y-86703102D01*
X136625000Y-86675030D01*
X136625000Y-86582172D01*
X136624999Y-86582155D01*
X136618598Y-86522627D01*
X136618596Y-86522620D01*
X136568354Y-86387913D01*
X136568350Y-86387906D01*
X136482190Y-86272812D01*
X136482187Y-86272809D01*
X136367093Y-86186649D01*
X136367086Y-86186645D01*
X136232379Y-86136403D01*
X136232372Y-86136401D01*
X136172844Y-86130000D01*
X135475000Y-86130000D01*
X135475000Y-87154722D01*
X135398694Y-87110667D01*
X135284244Y-87080000D01*
X135165756Y-87080000D01*
X135051306Y-87110667D01*
X134975000Y-87154722D01*
X134975000Y-86130000D01*
X134277155Y-86130000D01*
X134217627Y-86136401D01*
X134217620Y-86136403D01*
X134082913Y-86186645D01*
X134082906Y-86186649D01*
X133967812Y-86272809D01*
X133967809Y-86272812D01*
X133881649Y-86387906D01*
X133881645Y-86387913D01*
X133831403Y-86522620D01*
X133831401Y-86522627D01*
X133825000Y-86582155D01*
X91000500Y-86582155D01*
X91000500Y-83939448D01*
X107529500Y-83939448D01*
X107529500Y-84120551D01*
X107557829Y-84299410D01*
X107613787Y-84471636D01*
X107613788Y-84471639D01*
X107669664Y-84581300D01*
X107694478Y-84630000D01*
X107696006Y-84632997D01*
X107802441Y-84779494D01*
X107802445Y-84779499D01*
X107930500Y-84907554D01*
X107930505Y-84907558D01*
X108058287Y-85000396D01*
X108077006Y-85013996D01*
X108166750Y-85059723D01*
X108238360Y-85096211D01*
X108238363Y-85096212D01*
X108324476Y-85124191D01*
X108410591Y-85152171D01*
X108493429Y-85165291D01*
X108589449Y-85180500D01*
X108589454Y-85180500D01*
X109970551Y-85180500D01*
X110057259Y-85166765D01*
X110149409Y-85152171D01*
X110321639Y-85096211D01*
X110482994Y-85013996D01*
X110629501Y-84907553D01*
X110757553Y-84779501D01*
X110863996Y-84632994D01*
X110946211Y-84471639D01*
X111002171Y-84299409D01*
X111014188Y-84223538D01*
X111030500Y-84120551D01*
X111030500Y-83939448D01*
X111014188Y-83836462D01*
X111005245Y-83780000D01*
X119852769Y-83780000D01*
X121231518Y-83780000D01*
X121220889Y-83798409D01*
X121180000Y-83951009D01*
X121180000Y-84108991D01*
X121220889Y-84261591D01*
X121231518Y-84280000D01*
X119852769Y-84280000D01*
X119863242Y-84346126D01*
X119863242Y-84346129D01*
X119928904Y-84548217D01*
X120025379Y-84737557D01*
X120150272Y-84909459D01*
X120150276Y-84909464D01*
X120300535Y-85059723D01*
X120300540Y-85059727D01*
X120472442Y-85184620D01*
X120661782Y-85281095D01*
X120863870Y-85346757D01*
X121073754Y-85380000D01*
X121530000Y-85380000D01*
X121530000Y-84578482D01*
X121548409Y-84589111D01*
X121701009Y-84630000D01*
X121858991Y-84630000D01*
X122011591Y-84589111D01*
X122030000Y-84578482D01*
X122030000Y-85380000D01*
X122486246Y-85380000D01*
X122696127Y-85346757D01*
X122696130Y-85346757D01*
X122898217Y-85281095D01*
X123087557Y-85184620D01*
X123259459Y-85059727D01*
X123259464Y-85059723D01*
X123409723Y-84909464D01*
X123409727Y-84909459D01*
X123534620Y-84737557D01*
X123631095Y-84548217D01*
X123696757Y-84346129D01*
X123696757Y-84346126D01*
X123707231Y-84280000D01*
X122328482Y-84280000D01*
X122339111Y-84261591D01*
X122380000Y-84108991D01*
X122380000Y-83951009D01*
X122339111Y-83798409D01*
X122328482Y-83780000D01*
X123707231Y-83780000D01*
X123696757Y-83713873D01*
X123696757Y-83713870D01*
X123631095Y-83511782D01*
X123534620Y-83322442D01*
X123409727Y-83150540D01*
X123409723Y-83150535D01*
X123259464Y-83000276D01*
X123259459Y-83000272D01*
X123087557Y-82875379D01*
X122965959Y-82813421D01*
X122898217Y-82778904D01*
X122696129Y-82713242D01*
X122486246Y-82680000D01*
X122030000Y-82680000D01*
X122030000Y-83481517D01*
X122011591Y-83470889D01*
X121858991Y-83430000D01*
X121701009Y-83430000D01*
X121548409Y-83470889D01*
X121530000Y-83481517D01*
X121530000Y-82680000D01*
X121073754Y-82680000D01*
X120863872Y-82713242D01*
X120863869Y-82713242D01*
X120661782Y-82778904D01*
X120472442Y-82875379D01*
X120300540Y-83000272D01*
X120300535Y-83000276D01*
X120150276Y-83150535D01*
X120150272Y-83150540D01*
X120025379Y-83322442D01*
X119928904Y-83511782D01*
X119863242Y-83713870D01*
X119863242Y-83713873D01*
X119852769Y-83780000D01*
X111005245Y-83780000D01*
X111002171Y-83760591D01*
X110946211Y-83588361D01*
X110946211Y-83588360D01*
X110907192Y-83511782D01*
X110863996Y-83427006D01*
X110822186Y-83369459D01*
X110757558Y-83280505D01*
X110757554Y-83280500D01*
X110629499Y-83152445D01*
X110629494Y-83152441D01*
X110482997Y-83046006D01*
X110482996Y-83046005D01*
X110482994Y-83046004D01*
X110420169Y-83013993D01*
X110321639Y-82963788D01*
X110321636Y-82963787D01*
X110149410Y-82907829D01*
X109970551Y-82879500D01*
X109970546Y-82879500D01*
X108589454Y-82879500D01*
X108589449Y-82879500D01*
X108410589Y-82907829D01*
X108238363Y-82963787D01*
X108238360Y-82963788D01*
X108077002Y-83046006D01*
X107930505Y-83152441D01*
X107930500Y-83152445D01*
X107802445Y-83280500D01*
X107802441Y-83280505D01*
X107696006Y-83427002D01*
X107613788Y-83588360D01*
X107613787Y-83588363D01*
X107557829Y-83760589D01*
X107529500Y-83939448D01*
X91000500Y-83939448D01*
X91000500Y-81939448D01*
X114379500Y-81939448D01*
X114379500Y-82120551D01*
X114407829Y-82299410D01*
X114463787Y-82471636D01*
X114463788Y-82471639D01*
X114546006Y-82632997D01*
X114652441Y-82779494D01*
X114652445Y-82779499D01*
X114780500Y-82907554D01*
X114780505Y-82907558D01*
X114893978Y-82990000D01*
X114927006Y-83013996D01*
X115032484Y-83067740D01*
X115088360Y-83096211D01*
X115088363Y-83096212D01*
X115174476Y-83124191D01*
X115260591Y-83152171D01*
X115343429Y-83165291D01*
X115439449Y-83180500D01*
X115439454Y-83180500D01*
X115620551Y-83180500D01*
X115707259Y-83166765D01*
X115799409Y-83152171D01*
X115971639Y-83096211D01*
X116132994Y-83013996D01*
X116279501Y-82907553D01*
X116407553Y-82779501D01*
X116513996Y-82632994D01*
X116596211Y-82471639D01*
X116652171Y-82299409D01*
X116658783Y-82257664D01*
X116661581Y-82240000D01*
X127462769Y-82240000D01*
X128356988Y-82240000D01*
X128324075Y-82297007D01*
X128290000Y-82424174D01*
X128290000Y-82555826D01*
X128324075Y-82682993D01*
X128356988Y-82740000D01*
X127462769Y-82740000D01*
X127473242Y-82806126D01*
X127473242Y-82806129D01*
X127538904Y-83008217D01*
X127635379Y-83197557D01*
X127760272Y-83369459D01*
X127760276Y-83369464D01*
X127910535Y-83519723D01*
X127910540Y-83519727D01*
X128082439Y-83644619D01*
X128083205Y-83645009D01*
X128083445Y-83645236D01*
X128086598Y-83647168D01*
X128086192Y-83647829D01*
X128134006Y-83692978D01*
X128150809Y-83760797D01*
X128128278Y-83826935D01*
X128073568Y-83870392D01*
X128026923Y-83879500D01*
X127895144Y-83879500D01*
X127895117Y-83879502D01*
X127870012Y-83882413D01*
X127870008Y-83882415D01*
X127767235Y-83927793D01*
X127687794Y-84007234D01*
X127642415Y-84110006D01*
X127642415Y-84110008D01*
X127639500Y-84135131D01*
X127639500Y-85924856D01*
X127639502Y-85924882D01*
X127642413Y-85949987D01*
X127642415Y-85949991D01*
X127687793Y-86052764D01*
X127687794Y-86052765D01*
X127767235Y-86132206D01*
X127870009Y-86177585D01*
X127895135Y-86180500D01*
X129684864Y-86180499D01*
X129684879Y-86180497D01*
X129684882Y-86180497D01*
X129709987Y-86177586D01*
X129709988Y-86177585D01*
X129709991Y-86177585D01*
X129812765Y-86132206D01*
X129892206Y-86052765D01*
X129937585Y-85949991D01*
X129940500Y-85924865D01*
X129940499Y-84135136D01*
X129938807Y-84120546D01*
X129937586Y-84110012D01*
X129937585Y-84110010D01*
X129937585Y-84110009D01*
X129892206Y-84007235D01*
X129812765Y-83927794D01*
X129812763Y-83927793D01*
X129709992Y-83882415D01*
X129684868Y-83879500D01*
X129553079Y-83879500D01*
X129486040Y-83859815D01*
X129440285Y-83807011D01*
X129430341Y-83737853D01*
X129459366Y-83674297D01*
X129493606Y-83647502D01*
X129493402Y-83647168D01*
X129496317Y-83645381D01*
X129496787Y-83645014D01*
X129497556Y-83644622D01*
X129669459Y-83519727D01*
X129669464Y-83519723D01*
X129819723Y-83369464D01*
X129819727Y-83369459D01*
X129944620Y-83197557D01*
X130041095Y-83008217D01*
X130106757Y-82806129D01*
X130106757Y-82806126D01*
X130117231Y-82740000D01*
X129223012Y-82740000D01*
X129255925Y-82682993D01*
X129290000Y-82555826D01*
X129290000Y-82424174D01*
X129255925Y-82297007D01*
X129223012Y-82240000D01*
X130117231Y-82240000D01*
X130106757Y-82173873D01*
X130106757Y-82173870D01*
X130041095Y-81971782D01*
X129944620Y-81782442D01*
X129819727Y-81610540D01*
X129819723Y-81610535D01*
X129669464Y-81460276D01*
X129669459Y-81460272D01*
X129497557Y-81335379D01*
X129308215Y-81238903D01*
X129106124Y-81173241D01*
X129040000Y-81162768D01*
X129040000Y-82056988D01*
X128982993Y-82024075D01*
X128855826Y-81990000D01*
X128724174Y-81990000D01*
X128597007Y-82024075D01*
X128540000Y-82056988D01*
X128540000Y-81162768D01*
X128539999Y-81162768D01*
X128473875Y-81173241D01*
X128271784Y-81238903D01*
X128082442Y-81335379D01*
X127910540Y-81460272D01*
X127910535Y-81460276D01*
X127760276Y-81610535D01*
X127760272Y-81610540D01*
X127635379Y-81782442D01*
X127538904Y-81971782D01*
X127473242Y-82173870D01*
X127473242Y-82173873D01*
X127462769Y-82240000D01*
X116661581Y-82240000D01*
X116680500Y-82120551D01*
X116680500Y-81939448D01*
X116664019Y-81835397D01*
X116652171Y-81760591D01*
X116624191Y-81674476D01*
X116596212Y-81588363D01*
X116596211Y-81588360D01*
X116567740Y-81532484D01*
X116513996Y-81427006D01*
X116500396Y-81408287D01*
X116407558Y-81280505D01*
X116407554Y-81280500D01*
X116279499Y-81152445D01*
X116279494Y-81152441D01*
X116132997Y-81046006D01*
X116132996Y-81046005D01*
X116132994Y-81046004D01*
X116081300Y-81019664D01*
X115971639Y-80963788D01*
X115971636Y-80963787D01*
X115799410Y-80907829D01*
X115620551Y-80879500D01*
X115620546Y-80879500D01*
X115439454Y-80879500D01*
X115439449Y-80879500D01*
X115260589Y-80907829D01*
X115088363Y-80963787D01*
X115088360Y-80963788D01*
X114927002Y-81046006D01*
X114780505Y-81152441D01*
X114780500Y-81152445D01*
X114652445Y-81280500D01*
X114652441Y-81280505D01*
X114546006Y-81427002D01*
X114463788Y-81588360D01*
X114463787Y-81588363D01*
X114407829Y-81760589D01*
X114379500Y-81939448D01*
X91000500Y-81939448D01*
X91000500Y-79800862D01*
X91009144Y-79771421D01*
X91015668Y-79741435D01*
X91019422Y-79736419D01*
X91020185Y-79733823D01*
X91036819Y-79713181D01*
X92197845Y-78552155D01*
X133825000Y-78552155D01*
X133825000Y-79250000D01*
X134849722Y-79250000D01*
X134805667Y-79326306D01*
X134775000Y-79440756D01*
X134775000Y-79559244D01*
X134805667Y-79673694D01*
X134849722Y-79750000D01*
X133825000Y-79750000D01*
X133825000Y-80447844D01*
X133831401Y-80507372D01*
X133831403Y-80507379D01*
X133881645Y-80642086D01*
X133881649Y-80642093D01*
X133967809Y-80757187D01*
X133967812Y-80757190D01*
X134082906Y-80843350D01*
X134082913Y-80843354D01*
X134217620Y-80893596D01*
X134217627Y-80893598D01*
X134277155Y-80899999D01*
X134277172Y-80900000D01*
X134975000Y-80900000D01*
X134975000Y-79875277D01*
X135051306Y-79919333D01*
X135165756Y-79950000D01*
X135284244Y-79950000D01*
X135398694Y-79919333D01*
X135475000Y-79875277D01*
X135475000Y-80900000D01*
X136172828Y-80900000D01*
X136172844Y-80899999D01*
X136232372Y-80893598D01*
X136232379Y-80893596D01*
X136367086Y-80843354D01*
X136367093Y-80843350D01*
X136482187Y-80757190D01*
X136482190Y-80757187D01*
X136568350Y-80642093D01*
X136568354Y-80642086D01*
X136618596Y-80507379D01*
X136618598Y-80507372D01*
X136624999Y-80447844D01*
X136625000Y-80447827D01*
X136625000Y-80354969D01*
X136644685Y-80287930D01*
X136697489Y-80242175D01*
X136766647Y-80232231D01*
X136830203Y-80261256D01*
X136846012Y-80278481D01*
X136846146Y-80278368D01*
X136849308Y-80282070D01*
X136849310Y-80282073D01*
X136982927Y-80415690D01*
X137135801Y-80526760D01*
X137215347Y-80567290D01*
X137304163Y-80612545D01*
X137304165Y-80612545D01*
X137304168Y-80612547D01*
X137395079Y-80642086D01*
X137483881Y-80670940D01*
X137670514Y-80700500D01*
X137670519Y-80700500D01*
X137859486Y-80700500D01*
X138046118Y-80670940D01*
X138225832Y-80612547D01*
X138394199Y-80526760D01*
X138547073Y-80415690D01*
X138680690Y-80282073D01*
X138791760Y-80129199D01*
X138877547Y-79960832D01*
X138935940Y-79781118D01*
X138946700Y-79713181D01*
X138964857Y-79598543D01*
X141379499Y-79598543D01*
X141417947Y-79791829D01*
X141417950Y-79791839D01*
X141493364Y-79973907D01*
X141493371Y-79973920D01*
X141602860Y-80137781D01*
X141602863Y-80137785D01*
X141742214Y-80277136D01*
X141742218Y-80277139D01*
X141906079Y-80386628D01*
X141906092Y-80386635D01*
X142053825Y-80447827D01*
X142088165Y-80462051D01*
X142088169Y-80462051D01*
X142088170Y-80462052D01*
X142281456Y-80500500D01*
X142281459Y-80500500D01*
X142478543Y-80500500D01*
X142608582Y-80474632D01*
X142671835Y-80462051D01*
X142853914Y-80386632D01*
X143017782Y-80277139D01*
X143157139Y-80137782D01*
X143266632Y-79973914D01*
X143342051Y-79791835D01*
X143380500Y-79598543D01*
X148999499Y-79598543D01*
X149037947Y-79791829D01*
X149037950Y-79791839D01*
X149113364Y-79973907D01*
X149113371Y-79973920D01*
X149222860Y-80137781D01*
X149222863Y-80137785D01*
X149362214Y-80277136D01*
X149362218Y-80277139D01*
X149526079Y-80386628D01*
X149526092Y-80386635D01*
X149673825Y-80447827D01*
X149708165Y-80462051D01*
X149708169Y-80462051D01*
X149708170Y-80462052D01*
X149901456Y-80500500D01*
X149901459Y-80500500D01*
X150098543Y-80500500D01*
X150228582Y-80474632D01*
X150291835Y-80462051D01*
X150473914Y-80386632D01*
X150637782Y-80277139D01*
X150777139Y-80137782D01*
X150886632Y-79973914D01*
X150962051Y-79791835D01*
X151000500Y-79598541D01*
X151000500Y-79401459D01*
X151000500Y-79401456D01*
X150962052Y-79208170D01*
X150962051Y-79208169D01*
X150962051Y-79208165D01*
X150907946Y-79077542D01*
X150886635Y-79026092D01*
X150886628Y-79026079D01*
X150777139Y-78862218D01*
X150777136Y-78862214D01*
X150637785Y-78722863D01*
X150637781Y-78722860D01*
X150473920Y-78613371D01*
X150473907Y-78613364D01*
X150291839Y-78537950D01*
X150291829Y-78537947D01*
X150098543Y-78499500D01*
X150098541Y-78499500D01*
X149901459Y-78499500D01*
X149901457Y-78499500D01*
X149708170Y-78537947D01*
X149708160Y-78537950D01*
X149526092Y-78613364D01*
X149526079Y-78613371D01*
X149362218Y-78722860D01*
X149362214Y-78722863D01*
X149222863Y-78862214D01*
X149222860Y-78862218D01*
X149113371Y-79026079D01*
X149113364Y-79026092D01*
X149037950Y-79208160D01*
X149037947Y-79208170D01*
X148999500Y-79401456D01*
X148999500Y-79401459D01*
X148999500Y-79598541D01*
X148999500Y-79598543D01*
X148999499Y-79598543D01*
X143380500Y-79598543D01*
X143380500Y-79598541D01*
X143380500Y-79401459D01*
X143380500Y-79401456D01*
X143342052Y-79208170D01*
X143342051Y-79208169D01*
X143342051Y-79208165D01*
X143287946Y-79077542D01*
X143266635Y-79026092D01*
X143266628Y-79026079D01*
X143157139Y-78862218D01*
X143157136Y-78862214D01*
X143017785Y-78722863D01*
X143017781Y-78722860D01*
X142853920Y-78613371D01*
X142853907Y-78613364D01*
X142671839Y-78537950D01*
X142671829Y-78537947D01*
X142478543Y-78499500D01*
X142478541Y-78499500D01*
X142281459Y-78499500D01*
X142281457Y-78499500D01*
X142088170Y-78537947D01*
X142088160Y-78537950D01*
X141906092Y-78613364D01*
X141906079Y-78613371D01*
X141742218Y-78722860D01*
X141742214Y-78722863D01*
X141602863Y-78862214D01*
X141602860Y-78862218D01*
X141493371Y-79026079D01*
X141493364Y-79026092D01*
X141417950Y-79208160D01*
X141417947Y-79208170D01*
X141379500Y-79401456D01*
X141379500Y-79401459D01*
X141379500Y-79598541D01*
X141379500Y-79598543D01*
X141379499Y-79598543D01*
X138964857Y-79598543D01*
X138965500Y-79594486D01*
X138965500Y-79405515D01*
X138965499Y-79405511D01*
X138935940Y-79218881D01*
X138891031Y-79080667D01*
X138877547Y-79039168D01*
X138877545Y-79039165D01*
X138877545Y-79039163D01*
X138811772Y-78910077D01*
X138791760Y-78870801D01*
X138680690Y-78717927D01*
X138547073Y-78584310D01*
X138394199Y-78473240D01*
X138380518Y-78466269D01*
X138225836Y-78387454D01*
X138046118Y-78329059D01*
X137859486Y-78299500D01*
X137859481Y-78299500D01*
X137670519Y-78299500D01*
X137670514Y-78299500D01*
X137483881Y-78329059D01*
X137304163Y-78387454D01*
X137135800Y-78473240D01*
X137074145Y-78518036D01*
X136982927Y-78584310D01*
X136982925Y-78584312D01*
X136982924Y-78584312D01*
X136849312Y-78717924D01*
X136846146Y-78721632D01*
X136845367Y-78720966D01*
X136793975Y-78760586D01*
X136724361Y-78766557D01*
X136662570Y-78733944D01*
X136628219Y-78673102D01*
X136625000Y-78645030D01*
X136625000Y-78552172D01*
X136624999Y-78552155D01*
X136618598Y-78492627D01*
X136618596Y-78492620D01*
X136568354Y-78357913D01*
X136568350Y-78357906D01*
X136482190Y-78242812D01*
X136482187Y-78242809D01*
X136367093Y-78156649D01*
X136367086Y-78156645D01*
X136232379Y-78106403D01*
X136232372Y-78106401D01*
X136172844Y-78100000D01*
X135475000Y-78100000D01*
X135475000Y-79124722D01*
X135398694Y-79080667D01*
X135284244Y-79050000D01*
X135165756Y-79050000D01*
X135051306Y-79080667D01*
X134975000Y-79124722D01*
X134975000Y-78100000D01*
X134277155Y-78100000D01*
X134217627Y-78106401D01*
X134217620Y-78106403D01*
X134082913Y-78156645D01*
X134082906Y-78156649D01*
X133967812Y-78242809D01*
X133967809Y-78242812D01*
X133881649Y-78357906D01*
X133881645Y-78357913D01*
X133831403Y-78492620D01*
X133831401Y-78492627D01*
X133825000Y-78552155D01*
X92197845Y-78552155D01*
X92213181Y-78536819D01*
X92274504Y-78503334D01*
X92300862Y-78500500D01*
X98131113Y-78500500D01*
X98131120Y-78500500D01*
X98391116Y-78466270D01*
X98644419Y-78398398D01*
X98821340Y-78325114D01*
X98886690Y-78298046D01*
X98886691Y-78298045D01*
X98886697Y-78298043D01*
X99113803Y-78166924D01*
X99321851Y-78007282D01*
X99321855Y-78007277D01*
X99321860Y-78007274D01*
X99507274Y-77821860D01*
X99507277Y-77821855D01*
X99507282Y-77821851D01*
X99666924Y-77613803D01*
X99798043Y-77386697D01*
X99898398Y-77144419D01*
X99966270Y-76891116D01*
X100000500Y-76631120D01*
X100000500Y-76500000D01*
X100000500Y-76434108D01*
X100000500Y-75439448D01*
X114379500Y-75439448D01*
X114379500Y-75620551D01*
X114407829Y-75799410D01*
X114463787Y-75971636D01*
X114463788Y-75971639D01*
X114502486Y-76047586D01*
X114540868Y-76122915D01*
X114546006Y-76132997D01*
X114652441Y-76279494D01*
X114652445Y-76279499D01*
X114780500Y-76407554D01*
X114780505Y-76407558D01*
X114882917Y-76481964D01*
X114927006Y-76513996D01*
X115032484Y-76567740D01*
X115088360Y-76596211D01*
X115088363Y-76596212D01*
X115174476Y-76624191D01*
X115260591Y-76652171D01*
X115343429Y-76665291D01*
X115439449Y-76680500D01*
X115439454Y-76680500D01*
X115620551Y-76680500D01*
X115707259Y-76666765D01*
X115799409Y-76652171D01*
X115971639Y-76596211D01*
X116132994Y-76513996D01*
X116279501Y-76407553D01*
X116407553Y-76279501D01*
X116513996Y-76132994D01*
X116596211Y-75971639D01*
X116652171Y-75799409D01*
X116673764Y-75663076D01*
X116680500Y-75620551D01*
X116680500Y-75439448D01*
X116662572Y-75326262D01*
X116652171Y-75260591D01*
X116622545Y-75169409D01*
X116596212Y-75088363D01*
X116596211Y-75088360D01*
X116539869Y-74977785D01*
X116513996Y-74927006D01*
X116486925Y-74889746D01*
X116407558Y-74780505D01*
X116407554Y-74780500D01*
X116279499Y-74652445D01*
X116279494Y-74652441D01*
X116132997Y-74546006D01*
X116132996Y-74546005D01*
X116132994Y-74546004D01*
X116070169Y-74513993D01*
X115971639Y-74463788D01*
X115971636Y-74463787D01*
X115799410Y-74407829D01*
X115620551Y-74379500D01*
X115620546Y-74379500D01*
X115439454Y-74379500D01*
X115439449Y-74379500D01*
X115260589Y-74407829D01*
X115088363Y-74463787D01*
X115088360Y-74463788D01*
X114927002Y-74546006D01*
X114780505Y-74652441D01*
X114780500Y-74652445D01*
X114652445Y-74780500D01*
X114652441Y-74780505D01*
X114546006Y-74927002D01*
X114463788Y-75088360D01*
X114463787Y-75088363D01*
X114407829Y-75260589D01*
X114379500Y-75439448D01*
X100000500Y-75439448D01*
X100000500Y-73439448D01*
X107529500Y-73439448D01*
X107529500Y-73620551D01*
X107557829Y-73799410D01*
X107613787Y-73971636D01*
X107613788Y-73971639D01*
X107696006Y-74132997D01*
X107802441Y-74279494D01*
X107802445Y-74279499D01*
X107930500Y-74407554D01*
X107930505Y-74407558D01*
X108035260Y-74483666D01*
X108077006Y-74513996D01*
X108182484Y-74567740D01*
X108238360Y-74596211D01*
X108238363Y-74596212D01*
X108324476Y-74624191D01*
X108410591Y-74652171D01*
X108493429Y-74665291D01*
X108589449Y-74680500D01*
X108589454Y-74680500D01*
X109970551Y-74680500D01*
X110057259Y-74666765D01*
X110149409Y-74652171D01*
X110321639Y-74596211D01*
X110482994Y-74513996D01*
X110629501Y-74407553D01*
X110757553Y-74279501D01*
X110863996Y-74132994D01*
X110946211Y-73971639D01*
X111002171Y-73799409D01*
X111016765Y-73707259D01*
X111030500Y-73620551D01*
X111030500Y-73439448D01*
X120029500Y-73439448D01*
X120029500Y-73620551D01*
X120057829Y-73799410D01*
X120113787Y-73971636D01*
X120113788Y-73971639D01*
X120196006Y-74132997D01*
X120302441Y-74279494D01*
X120302445Y-74279499D01*
X120430500Y-74407554D01*
X120430505Y-74407558D01*
X120535260Y-74483666D01*
X120577006Y-74513996D01*
X120682484Y-74567740D01*
X120738360Y-74596211D01*
X120738363Y-74596212D01*
X120824476Y-74624191D01*
X120910591Y-74652171D01*
X120993429Y-74665291D01*
X121089449Y-74680500D01*
X121089454Y-74680500D01*
X122470551Y-74680500D01*
X122557259Y-74666765D01*
X122649409Y-74652171D01*
X122821639Y-74596211D01*
X122982994Y-74513996D01*
X123086847Y-74438543D01*
X127779499Y-74438543D01*
X127817947Y-74631829D01*
X127817950Y-74631839D01*
X127893364Y-74813907D01*
X127893371Y-74813920D01*
X128002860Y-74977781D01*
X128002863Y-74977785D01*
X128142214Y-75117136D01*
X128142218Y-75117139D01*
X128306079Y-75226628D01*
X128306092Y-75226635D01*
X128483452Y-75300099D01*
X128488165Y-75302051D01*
X128488169Y-75302051D01*
X128488170Y-75302052D01*
X128681456Y-75340500D01*
X128681459Y-75340500D01*
X128878543Y-75340500D01*
X129063424Y-75303724D01*
X129071835Y-75302051D01*
X129253914Y-75226632D01*
X129417782Y-75117139D01*
X129557139Y-74977782D01*
X129666632Y-74813914D01*
X129742051Y-74631835D01*
X129765491Y-74513996D01*
X129780500Y-74438543D01*
X129780500Y-74241456D01*
X129742052Y-74048170D01*
X129742051Y-74048169D01*
X129742051Y-74048165D01*
X129731396Y-74022441D01*
X129666635Y-73866092D01*
X129666628Y-73866079D01*
X129557139Y-73702218D01*
X129557136Y-73702214D01*
X129417785Y-73562863D01*
X129417781Y-73562860D01*
X129253920Y-73453371D01*
X129253907Y-73453364D01*
X129071839Y-73377950D01*
X129071829Y-73377947D01*
X128878543Y-73339500D01*
X128878541Y-73339500D01*
X128681459Y-73339500D01*
X128681457Y-73339500D01*
X128488170Y-73377947D01*
X128488160Y-73377950D01*
X128306092Y-73453364D01*
X128306079Y-73453371D01*
X128142218Y-73562860D01*
X128142214Y-73562863D01*
X128002863Y-73702214D01*
X128002860Y-73702218D01*
X127893371Y-73866079D01*
X127893364Y-73866092D01*
X127817950Y-74048160D01*
X127817947Y-74048170D01*
X127779500Y-74241456D01*
X127779500Y-74241459D01*
X127779500Y-74438541D01*
X127779500Y-74438543D01*
X127779499Y-74438543D01*
X123086847Y-74438543D01*
X123129501Y-74407553D01*
X123257553Y-74279501D01*
X123271970Y-74259658D01*
X123342573Y-74162482D01*
X123357178Y-74142377D01*
X123363996Y-74132994D01*
X123446211Y-73971639D01*
X123502171Y-73799409D01*
X123516765Y-73707259D01*
X123530500Y-73620551D01*
X123530500Y-73439448D01*
X123514019Y-73335397D01*
X123502171Y-73260591D01*
X123474191Y-73174476D01*
X123446212Y-73088363D01*
X123446211Y-73088360D01*
X123417740Y-73032484D01*
X123363996Y-72927006D01*
X123350396Y-72908287D01*
X123257558Y-72780505D01*
X123257554Y-72780500D01*
X123129499Y-72652445D01*
X123129494Y-72652441D01*
X122982997Y-72546006D01*
X122982996Y-72546005D01*
X122982994Y-72546004D01*
X122931300Y-72519664D01*
X122821639Y-72463788D01*
X122821636Y-72463787D01*
X122649410Y-72407829D01*
X122470551Y-72379500D01*
X122470546Y-72379500D01*
X121089454Y-72379500D01*
X121089449Y-72379500D01*
X120910589Y-72407829D01*
X120738363Y-72463787D01*
X120738360Y-72463788D01*
X120577002Y-72546006D01*
X120430505Y-72652441D01*
X120430500Y-72652445D01*
X120302445Y-72780500D01*
X120302441Y-72780505D01*
X120196006Y-72927002D01*
X120113788Y-73088360D01*
X120113787Y-73088363D01*
X120057829Y-73260589D01*
X120029500Y-73439448D01*
X111030500Y-73439448D01*
X111014019Y-73335397D01*
X111002171Y-73260591D01*
X110974191Y-73174476D01*
X110946212Y-73088363D01*
X110946211Y-73088360D01*
X110917740Y-73032484D01*
X110863996Y-72927006D01*
X110850396Y-72908287D01*
X110757558Y-72780505D01*
X110757554Y-72780500D01*
X110629499Y-72652445D01*
X110629494Y-72652441D01*
X110482997Y-72546006D01*
X110482996Y-72546005D01*
X110482994Y-72546004D01*
X110431300Y-72519664D01*
X110321639Y-72463788D01*
X110321636Y-72463787D01*
X110149410Y-72407829D01*
X109970551Y-72379500D01*
X109970546Y-72379500D01*
X108589454Y-72379500D01*
X108589449Y-72379500D01*
X108410589Y-72407829D01*
X108238363Y-72463787D01*
X108238360Y-72463788D01*
X108077002Y-72546006D01*
X107930505Y-72652441D01*
X107930500Y-72652445D01*
X107802445Y-72780500D01*
X107802441Y-72780505D01*
X107696006Y-72927002D01*
X107613788Y-73088360D01*
X107613787Y-73088363D01*
X107557829Y-73260589D01*
X107529500Y-73439448D01*
X100000500Y-73439448D01*
X100000500Y-68439448D01*
X107529500Y-68439448D01*
X107529500Y-68620551D01*
X107557829Y-68799410D01*
X107613787Y-68971636D01*
X107613788Y-68971639D01*
X107696006Y-69132997D01*
X107802441Y-69279494D01*
X107802445Y-69279499D01*
X107930500Y-69407554D01*
X107930505Y-69407558D01*
X108016328Y-69469911D01*
X108077006Y-69513996D01*
X108165586Y-69559130D01*
X108238360Y-69596211D01*
X108238363Y-69596212D01*
X108297361Y-69615381D01*
X108410591Y-69652171D01*
X108493429Y-69665291D01*
X108589449Y-69680500D01*
X108589454Y-69680500D01*
X109970551Y-69680500D01*
X110057259Y-69666765D01*
X110149409Y-69652171D01*
X110321639Y-69596211D01*
X110482994Y-69513996D01*
X110629501Y-69407553D01*
X110757553Y-69279501D01*
X110863996Y-69132994D01*
X110946211Y-68971639D01*
X111002171Y-68799409D01*
X111019593Y-68689409D01*
X111030500Y-68620551D01*
X111030500Y-68439448D01*
X120029500Y-68439448D01*
X120029500Y-68620551D01*
X120057829Y-68799410D01*
X120113787Y-68971636D01*
X120113788Y-68971639D01*
X120196006Y-69132997D01*
X120302441Y-69279494D01*
X120302445Y-69279499D01*
X120430500Y-69407554D01*
X120430505Y-69407558D01*
X120516328Y-69469911D01*
X120577006Y-69513996D01*
X120665586Y-69559130D01*
X120738360Y-69596211D01*
X120738363Y-69596212D01*
X120797361Y-69615381D01*
X120910591Y-69652171D01*
X120993429Y-69665291D01*
X121089449Y-69680500D01*
X121089454Y-69680500D01*
X122470551Y-69680500D01*
X122557259Y-69666765D01*
X122649409Y-69652171D01*
X122821639Y-69596211D01*
X122982994Y-69513996D01*
X123129501Y-69407553D01*
X123249011Y-69288043D01*
X133121600Y-69288043D01*
X133121600Y-69446157D01*
X133162141Y-69597456D01*
X133162523Y-69598883D01*
X133162526Y-69598890D01*
X133241575Y-69735809D01*
X133241579Y-69735814D01*
X133241580Y-69735816D01*
X133353384Y-69847620D01*
X133353386Y-69847621D01*
X133353390Y-69847624D01*
X133490309Y-69926673D01*
X133490316Y-69926677D01*
X133643043Y-69967600D01*
X133704846Y-69967600D01*
X133734286Y-69976244D01*
X133764273Y-69982768D01*
X133769288Y-69986522D01*
X133771885Y-69987285D01*
X133792527Y-70003919D01*
X133878479Y-70089871D01*
X133878489Y-70089882D01*
X133882819Y-70094212D01*
X133882820Y-70094213D01*
X133957387Y-70168780D01*
X133987501Y-70186166D01*
X134035714Y-70236729D01*
X134049500Y-70293552D01*
X134049500Y-71894856D01*
X134049502Y-71894882D01*
X134052413Y-71919987D01*
X134052415Y-71919991D01*
X134097793Y-72022764D01*
X134097794Y-72022765D01*
X134177235Y-72102206D01*
X134280009Y-72147585D01*
X134305135Y-72150500D01*
X136094864Y-72150499D01*
X136094879Y-72150497D01*
X136094882Y-72150497D01*
X136119987Y-72147586D01*
X136119988Y-72147585D01*
X136119991Y-72147585D01*
X136222765Y-72102206D01*
X136302206Y-72022765D01*
X136347585Y-71919991D01*
X136350500Y-71894865D01*
X136350499Y-71157125D01*
X136370183Y-71090089D01*
X136422987Y-71044334D01*
X136492146Y-71034390D01*
X136555702Y-71063415D01*
X136593476Y-71122193D01*
X136596972Y-71137729D01*
X136617829Y-71269410D01*
X136673787Y-71441636D01*
X136673788Y-71441639D01*
X136756006Y-71602997D01*
X136862441Y-71749494D01*
X136862445Y-71749499D01*
X136990500Y-71877554D01*
X136990505Y-71877558D01*
X137081946Y-71943993D01*
X137137006Y-71983996D01*
X137213094Y-72022765D01*
X137298360Y-72066211D01*
X137298363Y-72066212D01*
X137384476Y-72094191D01*
X137470591Y-72122171D01*
X137553429Y-72135291D01*
X137649449Y-72150500D01*
X137649454Y-72150500D01*
X137830551Y-72150500D01*
X137917259Y-72136765D01*
X138009409Y-72122171D01*
X138181639Y-72066211D01*
X138342994Y-71983996D01*
X138489501Y-71877553D01*
X138617553Y-71749501D01*
X138723996Y-71602994D01*
X138806211Y-71441639D01*
X138862171Y-71269409D01*
X138876422Y-71179425D01*
X138887527Y-71109321D01*
X138917456Y-71046186D01*
X138976768Y-71009255D01*
X139046630Y-71010253D01*
X139104863Y-71048863D01*
X139132473Y-71109321D01*
X139157829Y-71269410D01*
X139213787Y-71441636D01*
X139213788Y-71441639D01*
X139296006Y-71602997D01*
X139402441Y-71749494D01*
X139402445Y-71749499D01*
X139530500Y-71877554D01*
X139530505Y-71877558D01*
X139621946Y-71943993D01*
X139677006Y-71983996D01*
X139753094Y-72022765D01*
X139838360Y-72066211D01*
X139838363Y-72066212D01*
X139924476Y-72094191D01*
X140010591Y-72122171D01*
X140093429Y-72135291D01*
X140189449Y-72150500D01*
X140189454Y-72150500D01*
X140370551Y-72150500D01*
X140457259Y-72136765D01*
X140549409Y-72122171D01*
X140721639Y-72066211D01*
X140882994Y-71983996D01*
X141029501Y-71877553D01*
X141157553Y-71749501D01*
X141263996Y-71602994D01*
X141346211Y-71441639D01*
X141402171Y-71269409D01*
X141416765Y-71177259D01*
X141430500Y-71090551D01*
X141430500Y-70909448D01*
X141413619Y-70802872D01*
X141402171Y-70730591D01*
X141346211Y-70558361D01*
X141346211Y-70558360D01*
X141317740Y-70502484D01*
X141263996Y-70397006D01*
X141250396Y-70378287D01*
X141157558Y-70250505D01*
X141157554Y-70250500D01*
X141029499Y-70122445D01*
X141029494Y-70122441D01*
X140882997Y-70016006D01*
X140882996Y-70016005D01*
X140882994Y-70016004D01*
X140806906Y-69977235D01*
X140721639Y-69933788D01*
X140721636Y-69933787D01*
X140549410Y-69877829D01*
X140389321Y-69852473D01*
X140326186Y-69822544D01*
X140289255Y-69763232D01*
X140290253Y-69693370D01*
X140328863Y-69635137D01*
X140389321Y-69607527D01*
X140460757Y-69596212D01*
X140549409Y-69582171D01*
X140721639Y-69526211D01*
X140882994Y-69443996D01*
X141029501Y-69337553D01*
X141157553Y-69209501D01*
X141263996Y-69062994D01*
X141346211Y-68901639D01*
X141402171Y-68729409D01*
X141414274Y-68652993D01*
X141420524Y-68613537D01*
X141420524Y-68613536D01*
X141430500Y-68550551D01*
X141430500Y-68369448D01*
X141407853Y-68226462D01*
X141405160Y-68209467D01*
X141402171Y-68190591D01*
X141395481Y-68170000D01*
X146472769Y-68170000D01*
X147366988Y-68170000D01*
X147334075Y-68227007D01*
X147300000Y-68354174D01*
X147300000Y-68485826D01*
X147334075Y-68612993D01*
X147366988Y-68670000D01*
X146472769Y-68670000D01*
X146483242Y-68736126D01*
X146483242Y-68736129D01*
X146548904Y-68938217D01*
X146645379Y-69127557D01*
X146770272Y-69299459D01*
X146770276Y-69299464D01*
X146920535Y-69449723D01*
X146920540Y-69449727D01*
X147092439Y-69574619D01*
X147093205Y-69575009D01*
X147093445Y-69575236D01*
X147096598Y-69577168D01*
X147096192Y-69577829D01*
X147144006Y-69622978D01*
X147160809Y-69690797D01*
X147138278Y-69756935D01*
X147083568Y-69800392D01*
X147036923Y-69809500D01*
X146905144Y-69809500D01*
X146905117Y-69809502D01*
X146880012Y-69812413D01*
X146880008Y-69812415D01*
X146777235Y-69857793D01*
X146697794Y-69937234D01*
X146652415Y-70040006D01*
X146652415Y-70040008D01*
X146649500Y-70065131D01*
X146649500Y-71854856D01*
X146649502Y-71854882D01*
X146652413Y-71879987D01*
X146652415Y-71879991D01*
X146697793Y-71982764D01*
X146697794Y-71982765D01*
X146777235Y-72062206D01*
X146880009Y-72107585D01*
X146905135Y-72110500D01*
X147275500Y-72110499D01*
X147342539Y-72130183D01*
X147388294Y-72182987D01*
X147399500Y-72234499D01*
X147399500Y-73162702D01*
X147379815Y-73229741D01*
X147363181Y-73250383D01*
X147319481Y-73294082D01*
X147319475Y-73294090D01*
X147240426Y-73431009D01*
X147240423Y-73431016D01*
X147199500Y-73583743D01*
X147199500Y-73741857D01*
X147235775Y-73877235D01*
X147240423Y-73894583D01*
X147240426Y-73894590D01*
X147319475Y-74031509D01*
X147319479Y-74031514D01*
X147319480Y-74031516D01*
X147431284Y-74143320D01*
X147431286Y-74143321D01*
X147431290Y-74143324D01*
X147517714Y-74193220D01*
X147568216Y-74222377D01*
X147720943Y-74263300D01*
X147720945Y-74263300D01*
X147879055Y-74263300D01*
X147879057Y-74263300D01*
X148031784Y-74222377D01*
X148168716Y-74143320D01*
X148280520Y-74031516D01*
X148359577Y-73894584D01*
X148400500Y-73741857D01*
X148400500Y-73583743D01*
X148359577Y-73431016D01*
X148306741Y-73339500D01*
X148280524Y-73294090D01*
X148280518Y-73294082D01*
X148236819Y-73250383D01*
X148203334Y-73189060D01*
X148200500Y-73162702D01*
X148200500Y-72234499D01*
X148220185Y-72167460D01*
X148272989Y-72121705D01*
X148324500Y-72110499D01*
X148694856Y-72110499D01*
X148694864Y-72110499D01*
X148694879Y-72110497D01*
X148694882Y-72110497D01*
X148719987Y-72107586D01*
X148719988Y-72107585D01*
X148719991Y-72107585D01*
X148822765Y-72062206D01*
X148902206Y-71982765D01*
X148947585Y-71879991D01*
X148950500Y-71854865D01*
X148950499Y-71117125D01*
X148970183Y-71050089D01*
X149022987Y-71004334D01*
X149092146Y-70994390D01*
X149155702Y-71023415D01*
X149193476Y-71082193D01*
X149196972Y-71097729D01*
X149217829Y-71229410D01*
X149273787Y-71401636D01*
X149273788Y-71401639D01*
X149356006Y-71562997D01*
X149462441Y-71709494D01*
X149462445Y-71709499D01*
X149590500Y-71837554D01*
X149590505Y-71837558D01*
X149706449Y-71921795D01*
X149737006Y-71943996D01*
X149815510Y-71983996D01*
X149898360Y-72026211D01*
X149898363Y-72026212D01*
X149984476Y-72054191D01*
X150070591Y-72082171D01*
X150153429Y-72095291D01*
X150249449Y-72110500D01*
X150249454Y-72110500D01*
X150430551Y-72110500D01*
X150517259Y-72096765D01*
X150609409Y-72082171D01*
X150781639Y-72026211D01*
X150942994Y-71943996D01*
X150963014Y-71929450D01*
X151028819Y-71905970D01*
X151096873Y-71921795D01*
X151145569Y-71971899D01*
X151159900Y-72029768D01*
X151159900Y-77850402D01*
X151140215Y-77917441D01*
X151123581Y-77938083D01*
X151079881Y-77981782D01*
X151079875Y-77981790D01*
X151000826Y-78118709D01*
X151000823Y-78118716D01*
X150959900Y-78271443D01*
X150959900Y-78429557D01*
X150988944Y-78537949D01*
X151000823Y-78582283D01*
X151000826Y-78582290D01*
X151079875Y-78719209D01*
X151079879Y-78719214D01*
X151079880Y-78719216D01*
X151191684Y-78831020D01*
X151191686Y-78831021D01*
X151191690Y-78831024D01*
X151328609Y-78910073D01*
X151328616Y-78910077D01*
X151481343Y-78951000D01*
X151481345Y-78951000D01*
X151639455Y-78951000D01*
X151639457Y-78951000D01*
X151792184Y-78910077D01*
X151929116Y-78831020D01*
X152040920Y-78719216D01*
X152119977Y-78582284D01*
X152160900Y-78429557D01*
X152160900Y-78271443D01*
X152119977Y-78118716D01*
X152112867Y-78106401D01*
X152040924Y-77981790D01*
X152040918Y-77981782D01*
X151997219Y-77938083D01*
X151963734Y-77876760D01*
X151960900Y-77850402D01*
X151960900Y-74809448D01*
X162209500Y-74809448D01*
X162209500Y-74990551D01*
X162237829Y-75169410D01*
X162293787Y-75341636D01*
X162293788Y-75341639D01*
X162349664Y-75451300D01*
X162374478Y-75500000D01*
X162376006Y-75502997D01*
X162482441Y-75649494D01*
X162482445Y-75649499D01*
X162610500Y-75777554D01*
X162610505Y-75777558D01*
X162738287Y-75870396D01*
X162757006Y-75883996D01*
X162833094Y-75922765D01*
X162918360Y-75966211D01*
X162918363Y-75966212D01*
X163004476Y-75994191D01*
X163090591Y-76022171D01*
X163173429Y-76035291D01*
X163269449Y-76050500D01*
X163269454Y-76050500D01*
X163450551Y-76050500D01*
X163537259Y-76036765D01*
X163629409Y-76022171D01*
X163801639Y-75966211D01*
X163962994Y-75883996D01*
X164109501Y-75777553D01*
X164237553Y-75649501D01*
X164343996Y-75502994D01*
X164426211Y-75341639D01*
X164482171Y-75169409D01*
X164496422Y-75079425D01*
X164507527Y-75009321D01*
X164537456Y-74946186D01*
X164596768Y-74909255D01*
X164666630Y-74910253D01*
X164724863Y-74948863D01*
X164752473Y-75009321D01*
X164777829Y-75169410D01*
X164833787Y-75341636D01*
X164833788Y-75341639D01*
X164889664Y-75451300D01*
X164914478Y-75500000D01*
X164916006Y-75502997D01*
X165022441Y-75649494D01*
X165022445Y-75649499D01*
X165150500Y-75777554D01*
X165150505Y-75777558D01*
X165278287Y-75870396D01*
X165297006Y-75883996D01*
X165373094Y-75922765D01*
X165458360Y-75966211D01*
X165458363Y-75966212D01*
X165544476Y-75994191D01*
X165630591Y-76022171D01*
X165713429Y-76035291D01*
X165809449Y-76050500D01*
X165809454Y-76050500D01*
X165990551Y-76050500D01*
X166077259Y-76036765D01*
X166169409Y-76022171D01*
X166341639Y-75966211D01*
X166502994Y-75883996D01*
X166649501Y-75777553D01*
X166777553Y-75649501D01*
X166883996Y-75502994D01*
X166966211Y-75341639D01*
X167022171Y-75169409D01*
X167036422Y-75079425D01*
X167047527Y-75009321D01*
X167077456Y-74946186D01*
X167136768Y-74909255D01*
X167206630Y-74910253D01*
X167264863Y-74948863D01*
X167292473Y-75009321D01*
X167317829Y-75169410D01*
X167373787Y-75341636D01*
X167373788Y-75341639D01*
X167429664Y-75451300D01*
X167454478Y-75500000D01*
X167456006Y-75502997D01*
X167562441Y-75649494D01*
X167562445Y-75649499D01*
X167690500Y-75777554D01*
X167690505Y-75777558D01*
X167818287Y-75870396D01*
X167837006Y-75883996D01*
X167913094Y-75922765D01*
X167998360Y-75966211D01*
X167998363Y-75966212D01*
X168084476Y-75994191D01*
X168170591Y-76022171D01*
X168253429Y-76035291D01*
X168349449Y-76050500D01*
X168349454Y-76050500D01*
X168530551Y-76050500D01*
X168617259Y-76036765D01*
X168709409Y-76022171D01*
X168881639Y-75966211D01*
X169042994Y-75883996D01*
X169189501Y-75777553D01*
X169317553Y-75649501D01*
X169423996Y-75502994D01*
X169506211Y-75341639D01*
X169562171Y-75169409D01*
X169576422Y-75079425D01*
X169587527Y-75009321D01*
X169617456Y-74946186D01*
X169676768Y-74909255D01*
X169746630Y-74910253D01*
X169804863Y-74948863D01*
X169832473Y-75009321D01*
X169857829Y-75169410D01*
X169913787Y-75341636D01*
X169913788Y-75341639D01*
X169969664Y-75451300D01*
X169994478Y-75500000D01*
X169996006Y-75502997D01*
X170102441Y-75649494D01*
X170102445Y-75649499D01*
X170230500Y-75777554D01*
X170230505Y-75777558D01*
X170377001Y-75883993D01*
X170377003Y-75883994D01*
X170377006Y-75883996D01*
X170511796Y-75952675D01*
X170562591Y-76000648D01*
X170579500Y-76063159D01*
X170579500Y-77009573D01*
X170579500Y-77115027D01*
X170587378Y-77144428D01*
X170606793Y-77216889D01*
X170634952Y-77265661D01*
X170659520Y-77308213D01*
X170926682Y-77575374D01*
X170960166Y-77636695D01*
X170963000Y-77663054D01*
X170963000Y-77724857D01*
X170988990Y-77821851D01*
X171003923Y-77877583D01*
X171003926Y-77877590D01*
X171082975Y-78014509D01*
X171082979Y-78014514D01*
X171082980Y-78014516D01*
X171194784Y-78126320D01*
X171194786Y-78126321D01*
X171194790Y-78126324D01*
X171284555Y-78178149D01*
X171331716Y-78205377D01*
X171484443Y-78246300D01*
X171484445Y-78246300D01*
X171642555Y-78246300D01*
X171642557Y-78246300D01*
X171795284Y-78205377D01*
X171932216Y-78126320D01*
X172044020Y-78014516D01*
X172123077Y-77877584D01*
X172164000Y-77724857D01*
X172164000Y-77566743D01*
X172123077Y-77414016D01*
X172107305Y-77386697D01*
X172044024Y-77277090D01*
X172044018Y-77277082D01*
X171932217Y-77165281D01*
X171932209Y-77165275D01*
X171795290Y-77086226D01*
X171795286Y-77086224D01*
X171795284Y-77086223D01*
X171642557Y-77045300D01*
X171642556Y-77045300D01*
X171580755Y-77045300D01*
X171551314Y-77036655D01*
X171521328Y-77030132D01*
X171516312Y-77026377D01*
X171513716Y-77025615D01*
X171493074Y-77008981D01*
X171416819Y-76932726D01*
X171383334Y-76871403D01*
X171380500Y-76845045D01*
X171380500Y-76063159D01*
X171400185Y-75996120D01*
X171448202Y-75952675D01*
X171582994Y-75883996D01*
X171729501Y-75777553D01*
X171857553Y-75649501D01*
X171963996Y-75502994D01*
X172046211Y-75341639D01*
X172102171Y-75169409D01*
X172116422Y-75079425D01*
X172127527Y-75009321D01*
X172157456Y-74946186D01*
X172216768Y-74909255D01*
X172286630Y-74910253D01*
X172344863Y-74948863D01*
X172372473Y-75009321D01*
X172397829Y-75169410D01*
X172453787Y-75341636D01*
X172453788Y-75341639D01*
X172509664Y-75451300D01*
X172534478Y-75500000D01*
X172536006Y-75502997D01*
X172642441Y-75649494D01*
X172642445Y-75649499D01*
X172770500Y-75777554D01*
X172770505Y-75777558D01*
X172898287Y-75870396D01*
X172917006Y-75883996D01*
X172993094Y-75922765D01*
X173078360Y-75966211D01*
X173078363Y-75966212D01*
X173164476Y-75994191D01*
X173250591Y-76022171D01*
X173333429Y-76035291D01*
X173429449Y-76050500D01*
X173429454Y-76050500D01*
X173610551Y-76050500D01*
X173697259Y-76036765D01*
X173789409Y-76022171D01*
X173961639Y-75966211D01*
X174122994Y-75883996D01*
X174269501Y-75777553D01*
X174397553Y-75649501D01*
X174503996Y-75502994D01*
X174586211Y-75341639D01*
X174642171Y-75169409D01*
X174656422Y-75079425D01*
X174667527Y-75009321D01*
X174697456Y-74946186D01*
X174756768Y-74909255D01*
X174826630Y-74910253D01*
X174884863Y-74948863D01*
X174912473Y-75009321D01*
X174937829Y-75169410D01*
X174993787Y-75341636D01*
X174993788Y-75341639D01*
X175049664Y-75451300D01*
X175074478Y-75500000D01*
X175076006Y-75502997D01*
X175182441Y-75649494D01*
X175182445Y-75649499D01*
X175310500Y-75777554D01*
X175310505Y-75777558D01*
X175438287Y-75870396D01*
X175457006Y-75883996D01*
X175533094Y-75922765D01*
X175618360Y-75966211D01*
X175618363Y-75966212D01*
X175704476Y-75994191D01*
X175790591Y-76022171D01*
X175873429Y-76035291D01*
X175969449Y-76050500D01*
X175969454Y-76050500D01*
X176150551Y-76050500D01*
X176237259Y-76036765D01*
X176329409Y-76022171D01*
X176501639Y-75966211D01*
X176662994Y-75883996D01*
X176809501Y-75777553D01*
X176937553Y-75649501D01*
X177043996Y-75502994D01*
X177126211Y-75341639D01*
X177182171Y-75169409D01*
X177196422Y-75079425D01*
X177207527Y-75009321D01*
X177237456Y-74946186D01*
X177296768Y-74909255D01*
X177366630Y-74910253D01*
X177424863Y-74948863D01*
X177452473Y-75009321D01*
X177477829Y-75169410D01*
X177533787Y-75341636D01*
X177533788Y-75341639D01*
X177589664Y-75451300D01*
X177614478Y-75500000D01*
X177616006Y-75502997D01*
X177722441Y-75649494D01*
X177722445Y-75649499D01*
X177850500Y-75777554D01*
X177850505Y-75777558D01*
X177978287Y-75870396D01*
X177997006Y-75883996D01*
X178073094Y-75922765D01*
X178158360Y-75966211D01*
X178158363Y-75966212D01*
X178244476Y-75994191D01*
X178330591Y-76022171D01*
X178413429Y-76035291D01*
X178509449Y-76050500D01*
X178509454Y-76050500D01*
X178690551Y-76050500D01*
X178777259Y-76036765D01*
X178869409Y-76022171D01*
X179041639Y-75966211D01*
X179202994Y-75883996D01*
X179349501Y-75777553D01*
X179477553Y-75649501D01*
X179583996Y-75502994D01*
X179651090Y-75371314D01*
X179699065Y-75320519D01*
X179766886Y-75303724D01*
X179833021Y-75326262D01*
X179876472Y-75380977D01*
X179879506Y-75389292D01*
X179888904Y-75418217D01*
X179985379Y-75607557D01*
X180110272Y-75779459D01*
X180110276Y-75779464D01*
X180260535Y-75929723D01*
X180260540Y-75929727D01*
X180432442Y-76054620D01*
X180621782Y-76151095D01*
X180823871Y-76216757D01*
X180890000Y-76227231D01*
X180890000Y-75333012D01*
X180947007Y-75365925D01*
X181074174Y-75400000D01*
X181205826Y-75400000D01*
X181332993Y-75365925D01*
X181390000Y-75333012D01*
X181390000Y-76227230D01*
X181456126Y-76216757D01*
X181456129Y-76216757D01*
X181658217Y-76151095D01*
X181847557Y-76054620D01*
X182019459Y-75929727D01*
X182019464Y-75929723D01*
X182169723Y-75779464D01*
X182169727Y-75779459D01*
X182294619Y-75607559D01*
X182295005Y-75606803D01*
X182295229Y-75606564D01*
X182297168Y-75603402D01*
X182297831Y-75603808D01*
X182342970Y-75555998D01*
X182410787Y-75539190D01*
X182476927Y-75561715D01*
X182520388Y-75616422D01*
X182529500Y-75663076D01*
X182529500Y-75794855D01*
X182529502Y-75794882D01*
X182532413Y-75819987D01*
X182532415Y-75819991D01*
X182577793Y-75922764D01*
X182577794Y-75922765D01*
X182657235Y-76002206D01*
X182760009Y-76047585D01*
X182785135Y-76050500D01*
X184574864Y-76050499D01*
X184574879Y-76050497D01*
X184574882Y-76050497D01*
X184599987Y-76047586D01*
X184599988Y-76047585D01*
X184599991Y-76047585D01*
X184702765Y-76002206D01*
X184782206Y-75922765D01*
X184827585Y-75819991D01*
X184830500Y-75794865D01*
X184830499Y-74005136D01*
X184830497Y-74005117D01*
X184827586Y-73980012D01*
X184827585Y-73980010D01*
X184827585Y-73980009D01*
X184782206Y-73877235D01*
X184702765Y-73797794D01*
X184702763Y-73797793D01*
X184599992Y-73752415D01*
X184574865Y-73749500D01*
X182785143Y-73749500D01*
X182785117Y-73749502D01*
X182760012Y-73752413D01*
X182760008Y-73752415D01*
X182657235Y-73797793D01*
X182577794Y-73877234D01*
X182532415Y-73980006D01*
X182532415Y-73980008D01*
X182529500Y-74005131D01*
X182529500Y-74136920D01*
X182509815Y-74203959D01*
X182457011Y-74249714D01*
X182387853Y-74259658D01*
X182324297Y-74230633D01*
X182297501Y-74196393D01*
X182297168Y-74196598D01*
X182295386Y-74193691D01*
X182295018Y-74193220D01*
X182294623Y-74192445D01*
X182169727Y-74020540D01*
X182169723Y-74020535D01*
X182019464Y-73870276D01*
X182019459Y-73870272D01*
X181847557Y-73745379D01*
X181658215Y-73648903D01*
X181456124Y-73583241D01*
X181390000Y-73572768D01*
X181390000Y-74466988D01*
X181332993Y-74434075D01*
X181205826Y-74400000D01*
X181074174Y-74400000D01*
X180947007Y-74434075D01*
X180890000Y-74466988D01*
X180890000Y-73572768D01*
X180889999Y-73572768D01*
X180823875Y-73583241D01*
X180621784Y-73648903D01*
X180432442Y-73745379D01*
X180260540Y-73870272D01*
X180260535Y-73870276D01*
X180110276Y-74020535D01*
X180110272Y-74020540D01*
X179985379Y-74192442D01*
X179888905Y-74381781D01*
X179879506Y-74410708D01*
X179840068Y-74468383D01*
X179775709Y-74495581D01*
X179706862Y-74483666D01*
X179655387Y-74436421D01*
X179651090Y-74428684D01*
X179626029Y-74379500D01*
X179583996Y-74297006D01*
X179543637Y-74241456D01*
X179477558Y-74150505D01*
X179477554Y-74150500D01*
X179349499Y-74022445D01*
X179349494Y-74022441D01*
X179202997Y-73916006D01*
X179202996Y-73916005D01*
X179202994Y-73916004D01*
X179126906Y-73877235D01*
X179041639Y-73833788D01*
X179041636Y-73833787D01*
X178869410Y-73777829D01*
X178690551Y-73749500D01*
X178690546Y-73749500D01*
X178509454Y-73749500D01*
X178509449Y-73749500D01*
X178330589Y-73777829D01*
X178158363Y-73833787D01*
X178158360Y-73833788D01*
X177997002Y-73916006D01*
X177850505Y-74022441D01*
X177850500Y-74022445D01*
X177722445Y-74150500D01*
X177722441Y-74150505D01*
X177616006Y-74297002D01*
X177533788Y-74458360D01*
X177533787Y-74458363D01*
X177477829Y-74630589D01*
X177452473Y-74790678D01*
X177422544Y-74853813D01*
X177363232Y-74890744D01*
X177293369Y-74889746D01*
X177235137Y-74851136D01*
X177207527Y-74790678D01*
X177190076Y-74680500D01*
X177182171Y-74630591D01*
X177139708Y-74499901D01*
X177126212Y-74458363D01*
X177126211Y-74458360D01*
X177086029Y-74379500D01*
X177043996Y-74297006D01*
X177003637Y-74241456D01*
X176937558Y-74150505D01*
X176937554Y-74150500D01*
X176809499Y-74022445D01*
X176809494Y-74022441D01*
X176662997Y-73916006D01*
X176662996Y-73916005D01*
X176662994Y-73916004D01*
X176586906Y-73877235D01*
X176501639Y-73833788D01*
X176501636Y-73833787D01*
X176329410Y-73777829D01*
X176150551Y-73749500D01*
X176150546Y-73749500D01*
X175969454Y-73749500D01*
X175969449Y-73749500D01*
X175790589Y-73777829D01*
X175618363Y-73833787D01*
X175618360Y-73833788D01*
X175457002Y-73916006D01*
X175310505Y-74022441D01*
X175310500Y-74022445D01*
X175182445Y-74150500D01*
X175182441Y-74150505D01*
X175076006Y-74297002D01*
X174993788Y-74458360D01*
X174993787Y-74458363D01*
X174937829Y-74630589D01*
X174912473Y-74790678D01*
X174882544Y-74853813D01*
X174823232Y-74890744D01*
X174753369Y-74889746D01*
X174695137Y-74851136D01*
X174667527Y-74790678D01*
X174650076Y-74680500D01*
X174642171Y-74630591D01*
X174599708Y-74499901D01*
X174586212Y-74458363D01*
X174586211Y-74458360D01*
X174546029Y-74379500D01*
X174503996Y-74297006D01*
X174463637Y-74241456D01*
X174397558Y-74150505D01*
X174397554Y-74150500D01*
X174269499Y-74022445D01*
X174269494Y-74022441D01*
X174122997Y-73916006D01*
X174122996Y-73916005D01*
X174122994Y-73916004D01*
X174046906Y-73877235D01*
X173961639Y-73833788D01*
X173961636Y-73833787D01*
X173789410Y-73777829D01*
X173610551Y-73749500D01*
X173610546Y-73749500D01*
X173429454Y-73749500D01*
X173429449Y-73749500D01*
X173250589Y-73777829D01*
X173078363Y-73833787D01*
X173078360Y-73833788D01*
X172917002Y-73916006D01*
X172770505Y-74022441D01*
X172770500Y-74022445D01*
X172642445Y-74150500D01*
X172642441Y-74150505D01*
X172536006Y-74297002D01*
X172453788Y-74458360D01*
X172453787Y-74458363D01*
X172397829Y-74630589D01*
X172372473Y-74790678D01*
X172342544Y-74853813D01*
X172283232Y-74890744D01*
X172213369Y-74889746D01*
X172155137Y-74851136D01*
X172127527Y-74790678D01*
X172110076Y-74680500D01*
X172102171Y-74630591D01*
X172059708Y-74499901D01*
X172046212Y-74458363D01*
X172046211Y-74458360D01*
X172006029Y-74379500D01*
X171963996Y-74297006D01*
X171923637Y-74241456D01*
X171857558Y-74150505D01*
X171857554Y-74150500D01*
X171729499Y-74022445D01*
X171729494Y-74022441D01*
X171582997Y-73916006D01*
X171582996Y-73916005D01*
X171582994Y-73916004D01*
X171506906Y-73877235D01*
X171421639Y-73833788D01*
X171421636Y-73833787D01*
X171249410Y-73777829D01*
X171070551Y-73749500D01*
X171070546Y-73749500D01*
X170889454Y-73749500D01*
X170889449Y-73749500D01*
X170710589Y-73777829D01*
X170538363Y-73833787D01*
X170538360Y-73833788D01*
X170377002Y-73916006D01*
X170230505Y-74022441D01*
X170230500Y-74022445D01*
X170102445Y-74150500D01*
X170102441Y-74150505D01*
X169996006Y-74297002D01*
X169913788Y-74458360D01*
X169913787Y-74458363D01*
X169857829Y-74630589D01*
X169832473Y-74790678D01*
X169802544Y-74853813D01*
X169743232Y-74890744D01*
X169673369Y-74889746D01*
X169615137Y-74851136D01*
X169587527Y-74790678D01*
X169570076Y-74680500D01*
X169562171Y-74630591D01*
X169519708Y-74499901D01*
X169506212Y-74458363D01*
X169506211Y-74458360D01*
X169466029Y-74379500D01*
X169423996Y-74297006D01*
X169383637Y-74241456D01*
X169317558Y-74150505D01*
X169317554Y-74150500D01*
X169189499Y-74022445D01*
X169189494Y-74022441D01*
X169042997Y-73916006D01*
X169042996Y-73916005D01*
X169042994Y-73916004D01*
X168966906Y-73877235D01*
X168881639Y-73833788D01*
X168881636Y-73833787D01*
X168709410Y-73777829D01*
X168530551Y-73749500D01*
X168530546Y-73749500D01*
X168349454Y-73749500D01*
X168349449Y-73749500D01*
X168170589Y-73777829D01*
X167998363Y-73833787D01*
X167998360Y-73833788D01*
X167837002Y-73916006D01*
X167690505Y-74022441D01*
X167690500Y-74022445D01*
X167562445Y-74150500D01*
X167562441Y-74150505D01*
X167456006Y-74297002D01*
X167373788Y-74458360D01*
X167373787Y-74458363D01*
X167317829Y-74630589D01*
X167292473Y-74790678D01*
X167262544Y-74853813D01*
X167203232Y-74890744D01*
X167133369Y-74889746D01*
X167075137Y-74851136D01*
X167047527Y-74790678D01*
X167030076Y-74680500D01*
X167022171Y-74630591D01*
X166979708Y-74499901D01*
X166966212Y-74458363D01*
X166966211Y-74458360D01*
X166926029Y-74379500D01*
X166883996Y-74297006D01*
X166843637Y-74241456D01*
X166777558Y-74150505D01*
X166777554Y-74150500D01*
X166649499Y-74022445D01*
X166649494Y-74022441D01*
X166502997Y-73916006D01*
X166502996Y-73916005D01*
X166502994Y-73916004D01*
X166426906Y-73877235D01*
X166341639Y-73833788D01*
X166341636Y-73833787D01*
X166169410Y-73777829D01*
X165990551Y-73749500D01*
X165990546Y-73749500D01*
X165809454Y-73749500D01*
X165809449Y-73749500D01*
X165630589Y-73777829D01*
X165458363Y-73833787D01*
X165458360Y-73833788D01*
X165297002Y-73916006D01*
X165150505Y-74022441D01*
X165150500Y-74022445D01*
X165022445Y-74150500D01*
X165022441Y-74150505D01*
X164916006Y-74297002D01*
X164833788Y-74458360D01*
X164833787Y-74458363D01*
X164777829Y-74630589D01*
X164752473Y-74790678D01*
X164722544Y-74853813D01*
X164663232Y-74890744D01*
X164593369Y-74889746D01*
X164535137Y-74851136D01*
X164507527Y-74790678D01*
X164490076Y-74680500D01*
X164482171Y-74630591D01*
X164439708Y-74499901D01*
X164426212Y-74458363D01*
X164426211Y-74458360D01*
X164386029Y-74379500D01*
X164343996Y-74297006D01*
X164303637Y-74241456D01*
X164237558Y-74150505D01*
X164237554Y-74150500D01*
X164109499Y-74022445D01*
X164109494Y-74022441D01*
X163962997Y-73916006D01*
X163962996Y-73916005D01*
X163962994Y-73916004D01*
X163886906Y-73877235D01*
X163801639Y-73833788D01*
X163801636Y-73833787D01*
X163629410Y-73777829D01*
X163450551Y-73749500D01*
X163450546Y-73749500D01*
X163269454Y-73749500D01*
X163269449Y-73749500D01*
X163090589Y-73777829D01*
X162918363Y-73833787D01*
X162918360Y-73833788D01*
X162757002Y-73916006D01*
X162610505Y-74022441D01*
X162610500Y-74022445D01*
X162482445Y-74150500D01*
X162482441Y-74150505D01*
X162376006Y-74297002D01*
X162293788Y-74458360D01*
X162293787Y-74458363D01*
X162237829Y-74630589D01*
X162209500Y-74809448D01*
X151960900Y-74809448D01*
X151960900Y-71957696D01*
X151980585Y-71890657D01*
X152033389Y-71844902D01*
X152102547Y-71834958D01*
X152157785Y-71857378D01*
X152246449Y-71921795D01*
X152277006Y-71943996D01*
X152355510Y-71983996D01*
X152438360Y-72026211D01*
X152438363Y-72026212D01*
X152524476Y-72054191D01*
X152610591Y-72082171D01*
X152693429Y-72095291D01*
X152789449Y-72110500D01*
X152789454Y-72110500D01*
X152970551Y-72110500D01*
X153057259Y-72096765D01*
X153149409Y-72082171D01*
X153321639Y-72026211D01*
X153482994Y-71943996D01*
X153629501Y-71837553D01*
X153757553Y-71709501D01*
X153863996Y-71562994D01*
X153946211Y-71401639D01*
X154002171Y-71229409D01*
X154019152Y-71122193D01*
X154030500Y-71050551D01*
X154030500Y-70869448D01*
X154008506Y-70730589D01*
X154002171Y-70690591D01*
X153946211Y-70518361D01*
X153946211Y-70518360D01*
X153884375Y-70397002D01*
X153863996Y-70357006D01*
X153786619Y-70250505D01*
X153757558Y-70210505D01*
X153757554Y-70210500D01*
X153629499Y-70082445D01*
X153629494Y-70082441D01*
X153482997Y-69976006D01*
X153482996Y-69976005D01*
X153482994Y-69976004D01*
X153406906Y-69937235D01*
X153321639Y-69893788D01*
X153321636Y-69893787D01*
X153149410Y-69837829D01*
X152989321Y-69812473D01*
X152926186Y-69782544D01*
X152889255Y-69723232D01*
X152890253Y-69653370D01*
X152928863Y-69595137D01*
X152989321Y-69567527D01*
X153059425Y-69556422D01*
X153149409Y-69542171D01*
X153321639Y-69486211D01*
X153482994Y-69403996D01*
X153629501Y-69297553D01*
X153757553Y-69169501D01*
X153863996Y-69022994D01*
X153946211Y-68861639D01*
X154002171Y-68689409D01*
X154024885Y-68546000D01*
X154030500Y-68510551D01*
X154030500Y-68329448D01*
X154002551Y-68152993D01*
X154002171Y-68150591D01*
X153971526Y-68056275D01*
X153946212Y-67978363D01*
X153946211Y-67978360D01*
X153901418Y-67890451D01*
X153863996Y-67817006D01*
X153812648Y-67746331D01*
X153757558Y-67670505D01*
X153757554Y-67670500D01*
X153629499Y-67542445D01*
X153629494Y-67542441D01*
X153482997Y-67436006D01*
X153482996Y-67436005D01*
X153482994Y-67436004D01*
X153400143Y-67393789D01*
X153321639Y-67353788D01*
X153321636Y-67353787D01*
X153149410Y-67297829D01*
X152970551Y-67269500D01*
X152970546Y-67269500D01*
X152789454Y-67269500D01*
X152789449Y-67269500D01*
X152610589Y-67297829D01*
X152438363Y-67353787D01*
X152438360Y-67353788D01*
X152277002Y-67436006D01*
X152130505Y-67542441D01*
X152130500Y-67542445D01*
X152002445Y-67670500D01*
X152002441Y-67670505D01*
X151896006Y-67817002D01*
X151813788Y-67978360D01*
X151813787Y-67978363D01*
X151757829Y-68150589D01*
X151732473Y-68310678D01*
X151702544Y-68373813D01*
X151643232Y-68410744D01*
X151573369Y-68409746D01*
X151515137Y-68371136D01*
X151487527Y-68310678D01*
X151462551Y-68152993D01*
X151462171Y-68150591D01*
X151431526Y-68056275D01*
X151406212Y-67978363D01*
X151406211Y-67978360D01*
X151361418Y-67890451D01*
X151323996Y-67817006D01*
X151272648Y-67746331D01*
X151217558Y-67670505D01*
X151217554Y-67670500D01*
X151089499Y-67542445D01*
X151089494Y-67542441D01*
X150942997Y-67436006D01*
X150942996Y-67436005D01*
X150942994Y-67436004D01*
X150860143Y-67393789D01*
X150781639Y-67353788D01*
X150781636Y-67353787D01*
X150609410Y-67297829D01*
X150430551Y-67269500D01*
X150430546Y-67269500D01*
X150249454Y-67269500D01*
X150249449Y-67269500D01*
X150070589Y-67297829D01*
X149898363Y-67353787D01*
X149898360Y-67353788D01*
X149737002Y-67436006D01*
X149590505Y-67542441D01*
X149590500Y-67542445D01*
X149462445Y-67670500D01*
X149462441Y-67670505D01*
X149356004Y-67817004D01*
X149288908Y-67948685D01*
X149240933Y-67999480D01*
X149173112Y-68016275D01*
X149106977Y-67993737D01*
X149063527Y-67939021D01*
X149060492Y-67930705D01*
X149051094Y-67901780D01*
X148954620Y-67712442D01*
X148829727Y-67540540D01*
X148829723Y-67540535D01*
X148679464Y-67390276D01*
X148679459Y-67390272D01*
X148507557Y-67265379D01*
X148318215Y-67168903D01*
X148116124Y-67103241D01*
X148050000Y-67092768D01*
X148050000Y-67986988D01*
X147992993Y-67954075D01*
X147865826Y-67920000D01*
X147734174Y-67920000D01*
X147607007Y-67954075D01*
X147550000Y-67986988D01*
X147550000Y-67092768D01*
X147549999Y-67092768D01*
X147483875Y-67103241D01*
X147281784Y-67168903D01*
X147092442Y-67265379D01*
X146920540Y-67390272D01*
X146920535Y-67390276D01*
X146770276Y-67540535D01*
X146770272Y-67540540D01*
X146645379Y-67712442D01*
X146548904Y-67901782D01*
X146483242Y-68103870D01*
X146483242Y-68103873D01*
X146472769Y-68170000D01*
X141395481Y-68170000D01*
X141351207Y-68033737D01*
X141346212Y-68018363D01*
X141346211Y-68018360D01*
X141305785Y-67939021D01*
X141263996Y-67857006D01*
X141245890Y-67832085D01*
X141157558Y-67710505D01*
X141157554Y-67710500D01*
X141029499Y-67582445D01*
X141029494Y-67582441D01*
X140882997Y-67476006D01*
X140882996Y-67476005D01*
X140882994Y-67476004D01*
X140804494Y-67436006D01*
X140721639Y-67393788D01*
X140721636Y-67393787D01*
X140549410Y-67337829D01*
X140370551Y-67309500D01*
X140370546Y-67309500D01*
X140189454Y-67309500D01*
X140189449Y-67309500D01*
X140010589Y-67337829D01*
X139838363Y-67393787D01*
X139838360Y-67393788D01*
X139677002Y-67476006D01*
X139530505Y-67582441D01*
X139530500Y-67582445D01*
X139402445Y-67710500D01*
X139402441Y-67710505D01*
X139296006Y-67857002D01*
X139213788Y-68018360D01*
X139213787Y-68018363D01*
X139157829Y-68190589D01*
X139132473Y-68350678D01*
X139102544Y-68413813D01*
X139043232Y-68450744D01*
X138973369Y-68449746D01*
X138915137Y-68411136D01*
X138887527Y-68350678D01*
X138868897Y-68233058D01*
X138862171Y-68190591D01*
X138811207Y-68033737D01*
X138806212Y-68018363D01*
X138806211Y-68018360D01*
X138765785Y-67939021D01*
X138723996Y-67857006D01*
X138621201Y-67715520D01*
X138597721Y-67649714D01*
X138613546Y-67581660D01*
X138633834Y-67554958D01*
X138830774Y-67358019D01*
X138892097Y-67324534D01*
X138918455Y-67321700D01*
X138980255Y-67321700D01*
X138980257Y-67321700D01*
X139132984Y-67280777D01*
X139269916Y-67201720D01*
X139381720Y-67089916D01*
X139460777Y-66952984D01*
X139501700Y-66800257D01*
X139501700Y-66642143D01*
X139460777Y-66489416D01*
X139405604Y-66393852D01*
X139381724Y-66352490D01*
X139381718Y-66352482D01*
X139269917Y-66240681D01*
X139269909Y-66240675D01*
X139132990Y-66161626D01*
X139132986Y-66161624D01*
X139132984Y-66161623D01*
X138980257Y-66120700D01*
X138822143Y-66120700D01*
X138669416Y-66161623D01*
X138669409Y-66161626D01*
X138532490Y-66240675D01*
X138532482Y-66240681D01*
X138420681Y-66352482D01*
X138420675Y-66352490D01*
X138341626Y-66489409D01*
X138341623Y-66489416D01*
X138300700Y-66642143D01*
X138300700Y-66703945D01*
X138292055Y-66733385D01*
X138285532Y-66763372D01*
X138281777Y-66768387D01*
X138281015Y-66770984D01*
X138264381Y-66791626D01*
X138184526Y-66871481D01*
X138123203Y-66904966D01*
X138096845Y-66907800D01*
X137687273Y-66907800D01*
X137585413Y-66935093D01*
X137585410Y-66935094D01*
X137494085Y-66987821D01*
X137419521Y-67062385D01*
X137366794Y-67153710D01*
X137366793Y-67153713D01*
X137339500Y-67255573D01*
X137339500Y-67296840D01*
X137319815Y-67363879D01*
X137271795Y-67407325D01*
X137137002Y-67476006D01*
X136990505Y-67582441D01*
X136990500Y-67582445D01*
X136862445Y-67710500D01*
X136862441Y-67710505D01*
X136756004Y-67857004D01*
X136688908Y-67988685D01*
X136640933Y-68039480D01*
X136573112Y-68056275D01*
X136506977Y-68033737D01*
X136463527Y-67979021D01*
X136460492Y-67970705D01*
X136451094Y-67941780D01*
X136354620Y-67752442D01*
X136229727Y-67580540D01*
X136229723Y-67580535D01*
X136079464Y-67430276D01*
X136079459Y-67430272D01*
X135907557Y-67305379D01*
X135718215Y-67208903D01*
X135516124Y-67143241D01*
X135450000Y-67132768D01*
X135450000Y-68026988D01*
X135392993Y-67994075D01*
X135265826Y-67960000D01*
X135134174Y-67960000D01*
X135007007Y-67994075D01*
X134950000Y-68026988D01*
X134950000Y-67132768D01*
X134949999Y-67132768D01*
X134883875Y-67143241D01*
X134681784Y-67208903D01*
X134492442Y-67305379D01*
X134320540Y-67430272D01*
X134320535Y-67430276D01*
X134170276Y-67580535D01*
X134170272Y-67580540D01*
X134045379Y-67752442D01*
X133948904Y-67941782D01*
X133883242Y-68143870D01*
X133883242Y-68143873D01*
X133872769Y-68210000D01*
X134766988Y-68210000D01*
X134734075Y-68267007D01*
X134700000Y-68394174D01*
X134700000Y-68525826D01*
X134734075Y-68652993D01*
X134766988Y-68710000D01*
X133872769Y-68710000D01*
X133861553Y-68723132D01*
X133803046Y-68761325D01*
X133767263Y-68766600D01*
X133643043Y-68766600D01*
X133490316Y-68807523D01*
X133490309Y-68807526D01*
X133353390Y-68886575D01*
X133353382Y-68886581D01*
X133241581Y-68998382D01*
X133241575Y-68998390D01*
X133162526Y-69135309D01*
X133162523Y-69135316D01*
X133121600Y-69288043D01*
X123249011Y-69288043D01*
X123257553Y-69279501D01*
X123257555Y-69279497D01*
X123257558Y-69279495D01*
X123310206Y-69207031D01*
X123338885Y-69167557D01*
X123363996Y-69132994D01*
X123446211Y-68971639D01*
X123502171Y-68799409D01*
X123519593Y-68689409D01*
X123530500Y-68620551D01*
X123530500Y-68439448D01*
X123503101Y-68266462D01*
X123502953Y-68265530D01*
X123502171Y-68260591D01*
X123467211Y-68152993D01*
X123446212Y-68088363D01*
X123446211Y-68088360D01*
X123407781Y-68012939D01*
X123363996Y-67927006D01*
X123314409Y-67858755D01*
X123257558Y-67780505D01*
X123257554Y-67780500D01*
X123204936Y-67727882D01*
X128125669Y-67727882D01*
X128125670Y-67727883D01*
X128151059Y-67746329D01*
X128319362Y-67832085D01*
X128498997Y-67890451D01*
X128685553Y-67920000D01*
X128874447Y-67920000D01*
X129061002Y-67890451D01*
X129240637Y-67832085D01*
X129408937Y-67746331D01*
X129434328Y-67727883D01*
X129434328Y-67727882D01*
X128780001Y-67073554D01*
X128780000Y-67073554D01*
X128125669Y-67727882D01*
X123204936Y-67727882D01*
X123129499Y-67652445D01*
X123129494Y-67652441D01*
X122982997Y-67546006D01*
X122982996Y-67546005D01*
X122982994Y-67546004D01*
X122920169Y-67513993D01*
X122821639Y-67463788D01*
X122821636Y-67463787D01*
X122649410Y-67407829D01*
X122470551Y-67379500D01*
X122470546Y-67379500D01*
X121089454Y-67379500D01*
X121089449Y-67379500D01*
X120910589Y-67407829D01*
X120738363Y-67463787D01*
X120738360Y-67463788D01*
X120577002Y-67546006D01*
X120430505Y-67652441D01*
X120430500Y-67652445D01*
X120302445Y-67780500D01*
X120302441Y-67780505D01*
X120196006Y-67927002D01*
X120113788Y-68088360D01*
X120113787Y-68088363D01*
X120057829Y-68260589D01*
X120029500Y-68439448D01*
X111030500Y-68439448D01*
X111010104Y-68310678D01*
X111002171Y-68260591D01*
X110967211Y-68152993D01*
X110946212Y-68088363D01*
X110946211Y-68088360D01*
X110907781Y-68012939D01*
X110863996Y-67927006D01*
X110814409Y-67858755D01*
X110757558Y-67780505D01*
X110757554Y-67780500D01*
X110629499Y-67652445D01*
X110629494Y-67652441D01*
X110482997Y-67546006D01*
X110482996Y-67546005D01*
X110482994Y-67546004D01*
X110420169Y-67513993D01*
X110321639Y-67463788D01*
X110321636Y-67463787D01*
X110149410Y-67407829D01*
X109970551Y-67379500D01*
X109970546Y-67379500D01*
X108589454Y-67379500D01*
X108589449Y-67379500D01*
X108410589Y-67407829D01*
X108238363Y-67463787D01*
X108238360Y-67463788D01*
X108077002Y-67546006D01*
X107930505Y-67652441D01*
X107930500Y-67652445D01*
X107802445Y-67780500D01*
X107802441Y-67780505D01*
X107696006Y-67927002D01*
X107613788Y-68088360D01*
X107613787Y-68088363D01*
X107557829Y-68260589D01*
X107529500Y-68439448D01*
X100000500Y-68439448D01*
X100000500Y-64836463D01*
X100671073Y-64836463D01*
X100671073Y-65163536D01*
X100703131Y-65489043D01*
X100766936Y-65809818D01*
X100766939Y-65809829D01*
X100861888Y-66122835D01*
X100987053Y-66425009D01*
X100987060Y-66425023D01*
X101141233Y-66713463D01*
X101141244Y-66713481D01*
X101322950Y-66985422D01*
X101322960Y-66985436D01*
X101530457Y-67238272D01*
X101761727Y-67469542D01*
X101761732Y-67469546D01*
X101761733Y-67469547D01*
X102014569Y-67677044D01*
X102286525Y-67858760D01*
X102574984Y-68012944D01*
X102877166Y-68138112D01*
X103190161Y-68233058D01*
X103190167Y-68233059D01*
X103190170Y-68233060D01*
X103190181Y-68233063D01*
X103506592Y-68296000D01*
X103510956Y-68296868D01*
X103836460Y-68328927D01*
X103836463Y-68328927D01*
X104163537Y-68328927D01*
X104163540Y-68328927D01*
X104314187Y-68314089D01*
X104343741Y-68311179D01*
X104397572Y-68305877D01*
X104489044Y-68296868D01*
X104551490Y-68284446D01*
X104809818Y-68233063D01*
X104809829Y-68233060D01*
X104809829Y-68233059D01*
X104809839Y-68233058D01*
X105122834Y-68138112D01*
X105425016Y-68012944D01*
X105713475Y-67858760D01*
X105985431Y-67677044D01*
X106238267Y-67469547D01*
X106469547Y-67238267D01*
X106677044Y-66985431D01*
X106858760Y-66713475D01*
X107005230Y-66439448D01*
X114379500Y-66439448D01*
X114379500Y-66620551D01*
X114407829Y-66799410D01*
X114463787Y-66971636D01*
X114463788Y-66971639D01*
X114546006Y-67132997D01*
X114652441Y-67279494D01*
X114652445Y-67279499D01*
X114780500Y-67407554D01*
X114780505Y-67407558D01*
X114865820Y-67469542D01*
X114927006Y-67513996D01*
X115032484Y-67567740D01*
X115088360Y-67596211D01*
X115088363Y-67596212D01*
X115174476Y-67624191D01*
X115260591Y-67652171D01*
X115343429Y-67665291D01*
X115439449Y-67680500D01*
X115439454Y-67680500D01*
X115620551Y-67680500D01*
X115707259Y-67666765D01*
X115799409Y-67652171D01*
X115971639Y-67596211D01*
X116132994Y-67513996D01*
X116279501Y-67407553D01*
X116407553Y-67279501D01*
X116513996Y-67132994D01*
X116596211Y-66971639D01*
X116652171Y-66799409D01*
X116672046Y-66673922D01*
X116679708Y-66625552D01*
X127580000Y-66625552D01*
X127580000Y-66814447D01*
X127609548Y-67001002D01*
X127667914Y-67180637D01*
X127753666Y-67348933D01*
X127772116Y-67374328D01*
X128426446Y-66720000D01*
X128426446Y-66719999D01*
X128380369Y-66673922D01*
X128430000Y-66673922D01*
X128430000Y-66766078D01*
X128453852Y-66855095D01*
X128499930Y-66934905D01*
X128565095Y-67000070D01*
X128644905Y-67046148D01*
X128733922Y-67070000D01*
X128826078Y-67070000D01*
X128915095Y-67046148D01*
X128994905Y-67000070D01*
X129060070Y-66934905D01*
X129106148Y-66855095D01*
X129130000Y-66766078D01*
X129130000Y-66719999D01*
X129133554Y-66719999D01*
X129133554Y-66720000D01*
X129787882Y-67374328D01*
X129787883Y-67374328D01*
X129806331Y-67348937D01*
X129892085Y-67180637D01*
X129950451Y-67001002D01*
X129980000Y-66814447D01*
X129980000Y-66625552D01*
X129950451Y-66438997D01*
X129892085Y-66259362D01*
X129806329Y-66091059D01*
X129787883Y-66065670D01*
X129787882Y-66065669D01*
X129133554Y-66719999D01*
X129130000Y-66719999D01*
X129130000Y-66673922D01*
X129106148Y-66584905D01*
X129060070Y-66505095D01*
X128994905Y-66439930D01*
X128915095Y-66393852D01*
X128826078Y-66370000D01*
X128733922Y-66370000D01*
X128644905Y-66393852D01*
X128565095Y-66439930D01*
X128499930Y-66505095D01*
X128453852Y-66584905D01*
X128430000Y-66673922D01*
X128380369Y-66673922D01*
X127772116Y-66065669D01*
X127772116Y-66065670D01*
X127753669Y-66091060D01*
X127667914Y-66259362D01*
X127609548Y-66438997D01*
X127580000Y-66625552D01*
X116679708Y-66625552D01*
X116680500Y-66620551D01*
X116680500Y-66439448D01*
X116664019Y-66335397D01*
X116652171Y-66260591D01*
X116607412Y-66122834D01*
X116596212Y-66088363D01*
X116596211Y-66088360D01*
X116566279Y-66029616D01*
X116513996Y-65927006D01*
X116407553Y-65780499D01*
X116339170Y-65712116D01*
X128125669Y-65712116D01*
X128780000Y-66366446D01*
X128780001Y-66366446D01*
X129434328Y-65712116D01*
X129408933Y-65693666D01*
X129240637Y-65607914D01*
X129061002Y-65549548D01*
X128874447Y-65520000D01*
X128685553Y-65520000D01*
X128498997Y-65549548D01*
X128319362Y-65607914D01*
X128151060Y-65693669D01*
X128125670Y-65712116D01*
X128125669Y-65712116D01*
X116339170Y-65712116D01*
X116279501Y-65652447D01*
X116279499Y-65652445D01*
X116279494Y-65652441D01*
X116132997Y-65546006D01*
X116132996Y-65546005D01*
X116132994Y-65546004D01*
X116081300Y-65519664D01*
X115971639Y-65463788D01*
X115971636Y-65463787D01*
X115799410Y-65407829D01*
X115620551Y-65379500D01*
X115620546Y-65379500D01*
X115439454Y-65379500D01*
X115439449Y-65379500D01*
X115260589Y-65407829D01*
X115088363Y-65463787D01*
X115088360Y-65463788D01*
X114927002Y-65546006D01*
X114780505Y-65652441D01*
X114780500Y-65652445D01*
X114652445Y-65780500D01*
X114652441Y-65780505D01*
X114546006Y-65927002D01*
X114463788Y-66088360D01*
X114463787Y-66088363D01*
X114407829Y-66260589D01*
X114379500Y-66439448D01*
X107005230Y-66439448D01*
X107012944Y-66425016D01*
X107138112Y-66122834D01*
X107233058Y-65809839D01*
X107233060Y-65809829D01*
X107233063Y-65809818D01*
X107296868Y-65489043D01*
X107299355Y-65463788D01*
X107328927Y-65163540D01*
X107328927Y-64836463D01*
X182171073Y-64836463D01*
X182171073Y-65163536D01*
X182203131Y-65489043D01*
X182266936Y-65809818D01*
X182266939Y-65809829D01*
X182361888Y-66122835D01*
X182487053Y-66425009D01*
X182487060Y-66425023D01*
X182641233Y-66713463D01*
X182641244Y-66713481D01*
X182822950Y-66985422D01*
X182822960Y-66985436D01*
X183030457Y-67238272D01*
X183261727Y-67469542D01*
X183261732Y-67469546D01*
X183261733Y-67469547D01*
X183514569Y-67677044D01*
X183786525Y-67858760D01*
X184074984Y-68012944D01*
X184377166Y-68138112D01*
X184690161Y-68233058D01*
X184690167Y-68233059D01*
X184690170Y-68233060D01*
X184690181Y-68233063D01*
X185006592Y-68296000D01*
X185010956Y-68296868D01*
X185336460Y-68328927D01*
X185336463Y-68328927D01*
X185663537Y-68328927D01*
X185663540Y-68328927D01*
X185989044Y-68296868D01*
X186051490Y-68284446D01*
X186309818Y-68233063D01*
X186309829Y-68233060D01*
X186309829Y-68233059D01*
X186309839Y-68233058D01*
X186622834Y-68138112D01*
X186925016Y-68012944D01*
X187213475Y-67858760D01*
X187485431Y-67677044D01*
X187738267Y-67469547D01*
X187969547Y-67238267D01*
X188177044Y-66985431D01*
X188358760Y-66713475D01*
X188512944Y-66425016D01*
X188638112Y-66122834D01*
X188733058Y-65809839D01*
X188733060Y-65809829D01*
X188733063Y-65809818D01*
X188796868Y-65489043D01*
X188799355Y-65463788D01*
X188828927Y-65163540D01*
X188828927Y-64836460D01*
X188796868Y-64510956D01*
X188733063Y-64190181D01*
X188733060Y-64190170D01*
X188733059Y-64190167D01*
X188733058Y-64190161D01*
X188638112Y-63877166D01*
X188512944Y-63574984D01*
X188358760Y-63286525D01*
X188177044Y-63014569D01*
X187969547Y-62761733D01*
X187969546Y-62761732D01*
X187969542Y-62761727D01*
X187738272Y-62530457D01*
X187485436Y-62322960D01*
X187485435Y-62322959D01*
X187485431Y-62322956D01*
X187213475Y-62141240D01*
X187213470Y-62141237D01*
X187213463Y-62141233D01*
X186925023Y-61987060D01*
X186925016Y-61987056D01*
X186925009Y-61987053D01*
X186622835Y-61861888D01*
X186309829Y-61766939D01*
X186309818Y-61766936D01*
X185989043Y-61703131D01*
X185743887Y-61678986D01*
X185663540Y-61671073D01*
X185336460Y-61671073D01*
X185262221Y-61678384D01*
X185010956Y-61703131D01*
X184690181Y-61766936D01*
X184690170Y-61766939D01*
X184377164Y-61861888D01*
X184074990Y-61987053D01*
X184074976Y-61987060D01*
X183786536Y-62141233D01*
X183786518Y-62141244D01*
X183514577Y-62322950D01*
X183514563Y-62322960D01*
X183261727Y-62530457D01*
X183030457Y-62761727D01*
X182822960Y-63014563D01*
X182822950Y-63014577D01*
X182641244Y-63286518D01*
X182641233Y-63286536D01*
X182487060Y-63574976D01*
X182487053Y-63574990D01*
X182361888Y-63877164D01*
X182266939Y-64190170D01*
X182266936Y-64190181D01*
X182203131Y-64510956D01*
X182171073Y-64836463D01*
X107328927Y-64836463D01*
X107328927Y-64836460D01*
X107296868Y-64510956D01*
X107233063Y-64190181D01*
X107233060Y-64190170D01*
X107233059Y-64190167D01*
X107233058Y-64190161D01*
X107138112Y-63877166D01*
X107012944Y-63574984D01*
X106858760Y-63286525D01*
X106677044Y-63014569D01*
X106469547Y-62761733D01*
X106469546Y-62761732D01*
X106469542Y-62761727D01*
X106238272Y-62530457D01*
X105985436Y-62322960D01*
X105985435Y-62322959D01*
X105985431Y-62322956D01*
X105713475Y-62141240D01*
X105713470Y-62141237D01*
X105713463Y-62141233D01*
X105425023Y-61987060D01*
X105425016Y-61987056D01*
X105425009Y-61987053D01*
X105122835Y-61861888D01*
X104809829Y-61766939D01*
X104809818Y-61766936D01*
X104489043Y-61703131D01*
X104243887Y-61678986D01*
X104163540Y-61671073D01*
X103836460Y-61671073D01*
X103762221Y-61678384D01*
X103510956Y-61703131D01*
X103190181Y-61766936D01*
X103190170Y-61766939D01*
X102877164Y-61861888D01*
X102574990Y-61987053D01*
X102574976Y-61987060D01*
X102286536Y-62141233D01*
X102286518Y-62141244D01*
X102014577Y-62322950D01*
X102014563Y-62322960D01*
X101761727Y-62530457D01*
X101530457Y-62761727D01*
X101322960Y-63014563D01*
X101322950Y-63014577D01*
X101141244Y-63286518D01*
X101141233Y-63286536D01*
X100987060Y-63574976D01*
X100987053Y-63574990D01*
X100861888Y-63877164D01*
X100766939Y-64190170D01*
X100766936Y-64190181D01*
X100703131Y-64510956D01*
X100671073Y-64836463D01*
X100000500Y-64836463D01*
X100000500Y-62504427D01*
X100000816Y-62495581D01*
X100013162Y-62322960D01*
X100015131Y-62295434D01*
X100017646Y-62277938D01*
X100059356Y-62086199D01*
X100064333Y-62069248D01*
X100132913Y-61885378D01*
X100140252Y-61869309D01*
X100143216Y-61863883D01*
X100164356Y-61835643D01*
X100835643Y-61164356D01*
X100863885Y-61143214D01*
X100869309Y-61140252D01*
X100885378Y-61132913D01*
X101069248Y-61064333D01*
X101086199Y-61059356D01*
X101277938Y-61017646D01*
X101295436Y-61015130D01*
X101495582Y-61000816D01*
X101504428Y-61000500D01*
X101565892Y-61000500D01*
X187934108Y-61000500D01*
X187995572Y-61000500D01*
X188004418Y-61000816D01*
G37*
G04 #@! TD.AperFunction*
M02*
