G04 #@! TF.GenerationSoftware,KiCad,Pcbnew,9.0.2*
G04 #@! TF.CreationDate,2025-09-04T17:03:48-05:00*
G04 #@! TF.ProjectId,Quake_PCB_3,5175616b-655f-4504-9342-5f332e6b6963,rev?*
G04 #@! TF.SameCoordinates,Original*
G04 #@! TF.FileFunction,Soldermask,Bot*
G04 #@! TF.FilePolarity,Negative*
%FSLAX46Y46*%
G04 Gerber Fmt 4.6, Leading zero omitted, Abs format (unit mm)*
G04 Created by KiCad (PCBNEW 9.0.2) date 2025-09-04 17:03:48*
%MOMM*%
%LPD*%
G01*
G04 APERTURE LIST*
%ADD10R,1.700000X1.700000*%
%ADD11O,1.700000X1.700000*%
%ADD12C,1.400000*%
%ADD13O,1.400000X1.400000*%
%ADD14R,1.800000X1.800000*%
%ADD15C,1.800000*%
%ADD16O,2.900000X1.700000*%
%ADD17C,1.700000*%
G04 APERTURE END LIST*
D10*
X183680000Y-74900000D03*
D11*
X181140000Y-74900000D03*
X178600000Y-74900000D03*
X176060000Y-74900000D03*
X173520000Y-74900000D03*
X170980000Y-74900000D03*
X168440000Y-74900000D03*
X165900000Y-74900000D03*
X163360000Y-74900000D03*
D10*
X114520000Y-97500000D03*
D11*
X117060000Y-97500000D03*
X119600000Y-97500000D03*
X122140000Y-97500000D03*
X124680000Y-97500000D03*
X127220000Y-97500000D03*
X129760000Y-97500000D03*
X132300000Y-97500000D03*
X134840000Y-97500000D03*
X137380000Y-97500000D03*
X139920000Y-97500000D03*
X142460000Y-97500000D03*
X145000000Y-97500000D03*
X147540000Y-97500000D03*
X150080000Y-97500000D03*
X152620000Y-97500000D03*
D12*
X150000000Y-79500000D03*
D13*
X142380000Y-79500000D03*
D14*
X135225000Y-79500000D03*
D15*
X137765000Y-79500000D03*
D10*
X114520000Y-117800000D03*
D11*
X117060000Y-117800000D03*
X119600000Y-117800000D03*
X122140000Y-117800000D03*
X124680000Y-117800000D03*
X127220000Y-117800000D03*
X129760000Y-117800000D03*
X132300000Y-117800000D03*
X134840000Y-117800000D03*
X137380000Y-117800000D03*
X139920000Y-117800000D03*
X142460000Y-117800000D03*
D10*
X147800000Y-70960000D03*
D11*
X147800000Y-68420000D03*
X150340000Y-70960000D03*
X150340000Y-68420000D03*
X152880000Y-70960000D03*
X152880000Y-68420000D03*
D10*
X128790000Y-85030000D03*
D11*
X128790000Y-82490000D03*
D15*
X115530000Y-66530000D03*
X115530000Y-75530000D03*
D16*
X109280000Y-68530000D03*
X121780000Y-68530000D03*
X109280000Y-73530000D03*
X121780000Y-73530000D03*
D10*
X166960000Y-87500000D03*
D17*
X169500000Y-87500000D03*
X172040000Y-87500000D03*
X174580000Y-87500000D03*
X177120000Y-87500000D03*
D14*
X135225000Y-87530000D03*
D15*
X137765000Y-87530000D03*
D12*
X128780000Y-74340000D03*
X128780000Y-66720000D03*
D15*
X115530000Y-82030000D03*
X115530000Y-91030000D03*
D16*
X109280000Y-84030000D03*
X121780000Y-84030000D03*
X109280000Y-89030000D03*
X121780000Y-89030000D03*
D12*
X149810000Y-87500000D03*
D13*
X142190000Y-87500000D03*
D10*
X135200000Y-71000000D03*
D11*
X135200000Y-68460000D03*
X137740000Y-71000000D03*
X137740000Y-68460000D03*
X140280000Y-71000000D03*
X140280000Y-68460000D03*
M02*
