M48
; DRILL file {KiCad 9.0.2} date 2025-09-04T17:04:39-0500
; FORMAT={-:-/ absolute / metric / decimal}
; #@! TF.CreationDate,2025-09-04T17:04:39-05:00
; #@! TF.GenerationSoftware,Kicad,Pcbnew,9.0.2
; #@! TF.FileFunction,Plated,1,2,PTH
FMAT,2
METRIC
; #@! TA.AperFunction,Plated,PTH,ViaDrill
T1C0.300
; #@! TA.AperFunction,Plated,PTH,ViaDrill
T2C0.400
; #@! TA.AperFunction,Plated,PTH,ComponentDrill
T3C0.700
; #@! TA.AperFunction,Plated,PTH,ComponentDrill
T4C0.900
; #@! TA.AperFunction,Plated,PTH,ComponentDrill
T5C1.000
; #@! TA.AperFunction,Plated,PTH,ComponentDrill
T6C1.200
%
G90
G05
T1
X133.722Y-69.367
X138.901Y-66.721
X147.8Y-73.663
X151.56Y-78.35
X171.564Y-77.646
T2
X129.5Y-121.5
T3
X128.78Y-66.72
X128.78Y-74.34
X142.19Y-87.5
X142.38Y-79.5
X149.81Y-87.5
X150.0Y-79.5
T4
X135.225Y-79.5
X135.225Y-87.53
X137.765Y-79.5
X137.765Y-87.53
T5
X114.52Y-97.5
X114.52Y-117.8
X117.06Y-97.5
X117.06Y-117.8
X119.6Y-97.5
X119.6Y-117.8
X122.14Y-97.5
X122.14Y-117.8
X124.68Y-97.5
X124.68Y-117.8
X127.22Y-97.5
X127.22Y-117.8
X128.79Y-82.49
X128.79Y-85.03
X129.76Y-97.5
X129.76Y-117.8
X132.3Y-97.5
X132.3Y-117.8
X134.84Y-97.5
X134.84Y-117.8
X135.2Y-68.46
X135.2Y-71.0
X137.38Y-97.5
X137.38Y-117.8
X137.74Y-68.46
X137.74Y-71.0
X139.92Y-97.5
X139.92Y-117.8
X140.28Y-68.46
X140.28Y-71.0
X142.46Y-97.5
X142.46Y-117.8
X145.0Y-97.5
X147.54Y-97.5
X147.8Y-68.42
X147.8Y-70.96
X150.08Y-97.5
X150.34Y-68.42
X150.34Y-70.96
X152.62Y-97.5
X152.88Y-68.42
X152.88Y-70.96
X163.36Y-74.9
X165.9Y-74.9
X166.96Y-87.5
X168.44Y-74.9
X169.5Y-87.5
X170.98Y-74.9
X172.04Y-87.5
X173.52Y-74.9
X174.58Y-87.5
X176.06Y-74.9
X177.12Y-87.5
X178.6Y-74.9
X181.14Y-74.9
X183.68Y-74.9
T6
X109.28Y-68.53
X109.28Y-73.53
X109.28Y-84.03
X109.28Y-89.03
X121.78Y-68.53
X121.78Y-73.53
X121.78Y-84.03
X121.78Y-89.03
M30
